G04 ================== begin FILE IDENTIFICATION RECORD ==================*
G04 Layout Name:  PC2230_6.brd*
G04 Film Name:    GND2*
G04 File Format:  Gerber RS274X*
G04 File Origin:  Cadence Allegro 16.6-P004*
G04 Origin Date:  Wed Mar 09 13:19:19 2016*
G04 *
G04 Layer:  BOARD GEOMETRY/OUTLINE*
G04 Layer:  ETCH/GND2*
G04 Layer:  PIN/GND2*
G04 Layer:  VIA CLASS/GND2*
G04 *
G04 Offset:    (0.00 0.00)*
G04 Mirror:    No*
G04 Mode:      Positive*
G04 Rotation:  0*
G04 FullContactRelief:  No*
G04 UndefLineWidth:     0.00*
G04 ================== end FILE IDENTIFICATION RECORD ====================*
%FSLAX25Y25*MOIN*%
%IR0*IPPOS*OFA0.00000B0.00000*MIA0B0*SFA1.00000B1.00000*%
%ADD11C,.041*%
%ADD10C,.018*%
%ADD12C,.006*%
%ADD13C,.03404*%
%ADD14C,.05704*%
G75*
%LPD*%
G75*
G36*
G01X1770001Y1256251D02*
Y1531249D01*
X1949999D01*
Y1256251D01*
X1779852D01*
Y1264852D01*
X1773848D01*
Y1256251D01*
X1770001D01*
G37*
%LPC*%
G75*
G36*
G01X1879968Y1517102D02*
G03X1880302Y1516612I389J-94D01*
G02X1878416Y1515324I-231J-1686D01*
G03X1878082Y1515814I-389J94D01*
G02X1879968Y1517102I231J1686D01*
G37*
G36*
G01X1884229Y1329086D02*
G03X1883888Y1329562I-392J79D01*
G02X1885774Y1330914I218J1688D01*
G03X1886115Y1330438I392J-79D01*
G02X1884229Y1329086I-218J-1688D01*
G37*
G36*
G01X1879639Y1332913D02*
G02X1878337Y1331611I361J-1663D01*
G03X1877861Y1332087I-391J85D01*
G02X1879163Y1333389I-361J1663D01*
G03X1879639Y1332913I391J-85D01*
G37*
G36*
G01X1891055Y1310441D02*
G02X1889625Y1309256I195J-1691D01*
G03X1889197Y1309772I-382J119D01*
G02X1890627Y1310957I-195J1691D01*
G03X1891055Y1310441I382J-119D01*
G37*
G54D13*
X1779106Y1431250D03*
X1775000D03*
X1790000Y1507500D03*
X1794106D03*
X1793750Y1501250D03*
X1797856D03*
X1796250Y1516250D03*
X1800356D03*
X1818750Y1352500D03*
X1814644D03*
X1813750Y1356250D03*
X1809644D03*
X1810000Y1362500D03*
X1805894D03*
X1822480Y1418730D03*
X1802500Y1521250D03*
X1806606D03*
X1830000Y1301250D03*
Y1313750D03*
X1844647Y1338750D03*
X1838750Y1345000D03*
X1842856D03*
X1831606Y1351250D03*
X1827500D03*
X1839997Y1365000D03*
X1844103D03*
X1844997Y1378750D03*
X1833299Y1402500D03*
X1823750Y1393750D03*
X1833296Y1413750D03*
X1828750Y1471250D03*
X1830000Y1506250D03*
X1850000Y1285000D03*
X1854106D03*
X1857144Y1280000D03*
X1861250D03*
X1857147Y1330000D03*
X1861253D03*
X1848753Y1338750D03*
X1861247D03*
X1865353D03*
X1849103Y1378750D03*
X1853689Y1379708D03*
X1857795D03*
X1855000Y1388750D03*
X1859106D03*
X1854997Y1486250D03*
X1859103D03*
X1866247Y1515000D03*
X1870000Y1310000D03*
X1874106D03*
X1885000Y1312500D03*
X1873394Y1333750D03*
X1867500Y1351250D03*
X1871606D03*
X1867500Y1387500D03*
X1871606D03*
X1870272Y1431250D03*
X1874378D03*
X1883397Y1437500D03*
X1887503D03*
X1883486Y1447411D03*
X1887592D03*
X1885411Y1460836D03*
X1870353Y1515000D03*
X1884177Y1514926D03*
X1874207Y1517500D03*
X1887723Y1516826D03*
X1897856Y1292500D03*
X1893750D03*
X1895356Y1308750D03*
X1895000Y1303750D03*
X1899106D03*
X1890003Y1328750D03*
X1889517Y1460836D03*
X1908902Y1486195D03*
X1891829Y1516826D03*
X1926606Y1440000D03*
X1922500D03*
X1921606Y1450000D03*
X1917500D03*
X1916683Y1461333D03*
X1912494Y1461250D03*
X1913008Y1486195D03*
G54D14*
X1821540Y1314880D03*
Y1495980D03*
X1895550Y1314880D03*
Y1495980D03*
%LPD*%
G75*
G54D10*
X1779106Y1431250D03*
X1775000D03*
X1790000Y1507500D03*
X1794106D03*
X1793750Y1501250D03*
X1797856D03*
X1796250Y1516250D03*
X1800356D03*
X1818750Y1352500D03*
X1814644D03*
X1813750Y1356250D03*
X1809644D03*
X1810000Y1362500D03*
X1805894D03*
X1822480Y1418730D03*
X1802500Y1521250D03*
X1806606D03*
X1839840Y1313750D03*
X1840000Y1301250D03*
X1830000D03*
Y1313750D03*
X1844647Y1338750D03*
X1838750Y1345000D03*
X1842856D03*
X1831606Y1351250D03*
X1827500D03*
X1839997Y1365000D03*
X1844103D03*
X1844997Y1378750D03*
X1833299Y1402500D03*
X1823750Y1393750D03*
X1833296Y1413750D03*
X1828750Y1471250D03*
X1840000Y1481250D03*
X1841250Y1495000D03*
X1830000Y1506250D03*
X1850000Y1285000D03*
X1854106D03*
X1857144Y1280000D03*
X1861250D03*
X1859530Y1313750D03*
X1850000D03*
X1860000Y1301250D03*
X1850000D03*
X1857147Y1330000D03*
X1861253D03*
X1848753Y1338750D03*
X1861247D03*
X1865353D03*
X1849103Y1378750D03*
X1853689Y1379708D03*
X1857795D03*
X1855000Y1388750D03*
X1859106D03*
X1860000Y1481250D03*
X1850000D03*
X1854997Y1486250D03*
X1859103D03*
X1866247Y1515000D03*
X1850000Y1495000D03*
X1860000D03*
X1878750Y1287500D03*
X1871250Y1313750D03*
X1877500D03*
X1868750Y1301250D03*
X1870000Y1310000D03*
X1874106D03*
X1885000Y1312500D03*
X1889002Y1311463D03*
X1873394Y1333750D03*
X1877500D03*
X1880000Y1331250D03*
X1884106D03*
X1885897Y1328750D03*
X1867500Y1351250D03*
X1871606D03*
X1867500Y1387500D03*
X1871606D03*
X1870272Y1431250D03*
X1874378D03*
X1883397Y1437500D03*
X1887503D03*
X1883486Y1447411D03*
X1887592D03*
X1885411Y1460836D03*
X1878750Y1481250D03*
X1868813D03*
X1870353Y1515000D03*
X1880071Y1514926D03*
X1884177D03*
X1878750Y1495000D03*
X1871250D03*
X1874207Y1517500D03*
X1878313D03*
X1887723Y1516826D03*
X1897856Y1292500D03*
X1893750D03*
X1891250Y1308750D03*
X1895356D03*
X1895000Y1303750D03*
X1899106D03*
X1890003Y1328750D03*
X1889517Y1460836D03*
X1908902Y1486195D03*
X1891829Y1516826D03*
X1926606Y1440000D03*
X1922500D03*
X1921606Y1450000D03*
X1917500D03*
X1916683Y1461333D03*
X1912494Y1461250D03*
X1913008Y1486195D03*
G54D11*
X1821540Y1314880D03*
Y1495980D03*
X1895550Y1314880D03*
Y1495980D03*
G54D12*
G01X1778053Y1262917D02*
X1777673Y1263417D01*
X1777230Y1263667D01*
X1776723Y1263750D01*
X1776090Y1263583D01*
X1775647Y1263167D01*
X1775520Y1262667D01*
X1775583Y1262167D01*
X1775837Y1261750D01*
X1777103Y1260917D01*
X1777673Y1260333D01*
X1778053Y1259500D01*
X1778180Y1258750D01*
X1775520D01*
M02*
