G04 ================== begin FILE IDENTIFICATION RECORD ==================*
G04 Layout Name:  PC2230_6.brd*
G04 Film Name:    GND3*
G04 File Format:  Gerber RS274X*
G04 File Origin:  Cadence Allegro 16.6-P004*
G04 Origin Date:  Wed Mar 09 13:19:19 2016*
G04 *
G04 Layer:  BOARD GEOMETRY/OUTLINE*
G04 Layer:  ETCH/GND3*
G04 Layer:  PIN/GND3*
G04 Layer:  VIA CLASS/GND3*
G04 *
G04 Offset:    (0.00 0.00)*
G04 Mirror:    No*
G04 Mode:      Positive*
G04 Rotation:  0*
G04 FullContactRelief:  No*
G04 UndefLineWidth:     0.00*
G04 ================== end FILE IDENTIFICATION RECORD ====================*
%FSLAX25Y25*MOIN*%
%IR0*IPPOS*OFA0.00000B0.00000*MIA0B0*SFA1.00000B1.00000*%
%ADD11C,.041*%
%ADD10C,.018*%
%ADD12C,.02*%
%ADD13C,.006*%
%ADD14C,.03404*%
%ADD15C,.05704*%
G75*
%LPD*%
G75*
G36*
G01X1770001Y1256251D02*
Y1531249D01*
X1949999D01*
Y1256251D01*
X1783652D01*
Y1264852D01*
X1777648D01*
Y1256251D01*
X1770001D01*
G37*
%LPC*%
G75*
G36*
G01X1830024Y1472524D02*
X1835098Y1467450D01*
Y1413750D01*
G02X1831494I-1802J0D01*
G01Y1465958D01*
X1827476Y1469976D01*
G02X1830024Y1472524I1274J1274D01*
G37*
G36*
G01X1826948Y1495746D02*
Y1505746D01*
X1828726Y1507524D01*
G02X1831274Y1504976I1274J-1274D01*
G01X1830552Y1504254D01*
Y1494254D01*
X1824282Y1487984D01*
Y1418730D01*
G02X1820678I-1802J0D01*
G01Y1489476D01*
X1826948Y1495746D01*
G37*
G36*
G01X1879968Y1517102D02*
G03X1880302Y1516612I389J-94D01*
G02X1878416Y1515324I-231J-1686D01*
G03X1878082Y1515814I-389J94D01*
G02X1879968Y1517102I231J1686D01*
G37*
G36*
G01X1884229Y1329086D02*
G03X1883888Y1329562I-392J79D01*
G02X1885774Y1330914I218J1688D01*
G03X1886115Y1330438I392J-79D01*
G02X1884229Y1329086I-218J-1688D01*
G37*
G36*
G01X1879639Y1332913D02*
G02X1878337Y1331611I361J-1663D01*
G03X1877861Y1332087I-391J85D01*
G02X1879163Y1333389I-361J1663D01*
G03X1879639Y1332913I391J-85D01*
G37*
G36*
G01X1891055Y1310441D02*
G02X1889625Y1309256I195J-1691D01*
G03X1889197Y1309772I-382J119D01*
G02X1890627Y1310957I-195J1691D01*
G03X1891055Y1310441I382J-119D01*
G37*
G36*
G01X1834496Y1299448D02*
X1830000D01*
G02X1828198Y1301250I0J1802D01*
G01Y1313004D01*
X1821948Y1319254D01*
Y1393750D01*
G02X1825552I1802J0D01*
G01Y1352671D01*
G03X1826246Y1352401I400J1D01*
G02Y1350099I1254J-1151D01*
G03X1825552Y1349829I-294J-271D01*
G01Y1320746D01*
X1831274Y1315024D01*
G02X1831802Y1313750I-1273J-1274D01*
G01Y1303052D01*
X1833004D01*
X1833198Y1303246D01*
Y1349519D01*
G03X1832572Y1349848I-400J0D01*
G02Y1352652I-966J1402D01*
G03X1833198Y1352981I226J329D01*
G01Y1400053D01*
X1832025Y1401226D01*
G02X1834573Y1403774I1274J1274D01*
G01X1836802Y1401545D01*
Y1346421D01*
G03X1837496Y1346151I400J1D01*
G02Y1343849I1254J-1151D01*
G03X1836802Y1343579I-294J-271D01*
G01Y1301754D01*
X1834496Y1299448D01*
G37*
G54D14*
X1779106Y1431250D03*
X1775000D03*
X1790000Y1507500D03*
X1794106D03*
X1793750Y1501250D03*
X1797856D03*
X1796250Y1516250D03*
X1800356D03*
X1818750Y1352500D03*
X1814644D03*
X1813750Y1356250D03*
X1809644D03*
X1810000Y1362500D03*
X1805894D03*
X1802500Y1521250D03*
X1806606D03*
X1844647Y1338750D03*
X1842856Y1345000D03*
X1839997Y1365000D03*
X1844103D03*
X1844997Y1378750D03*
X1850000Y1285000D03*
X1854106D03*
X1857144Y1280000D03*
X1861250D03*
X1857147Y1330000D03*
X1861253D03*
X1848753Y1338750D03*
X1861247D03*
X1865353D03*
X1849103Y1378750D03*
X1853689Y1379708D03*
X1857795D03*
X1855000Y1388750D03*
X1859106D03*
X1854997Y1486250D03*
X1859103D03*
X1866247Y1515000D03*
X1870000Y1310000D03*
X1874106D03*
X1885000Y1312500D03*
X1873394Y1333750D03*
X1867500Y1351250D03*
X1871606D03*
X1867500Y1387500D03*
X1871606D03*
X1870272Y1431250D03*
X1874378D03*
X1883397Y1437500D03*
X1887503D03*
X1883486Y1447411D03*
X1887592D03*
X1885411Y1460836D03*
X1870353Y1515000D03*
X1884177Y1514926D03*
X1874207Y1517500D03*
X1887723Y1516826D03*
X1897856Y1292500D03*
X1893750D03*
X1895356Y1308750D03*
X1895000Y1303750D03*
X1899106D03*
X1890003Y1328750D03*
X1889517Y1460836D03*
X1908902Y1486195D03*
X1891829Y1516826D03*
X1926606Y1440000D03*
X1922500D03*
X1921606Y1450000D03*
X1917500D03*
X1916683Y1461333D03*
X1912494Y1461250D03*
X1913008Y1486195D03*
G54D15*
X1821540Y1314880D03*
Y1495980D03*
X1895550Y1314880D03*
Y1495980D03*
%LPD*%
G75*
G54D10*
X1779106Y1431250D03*
X1775000D03*
X1790000Y1507500D03*
X1794106D03*
X1793750Y1501250D03*
X1797856D03*
X1796250Y1516250D03*
X1800356D03*
X1818750Y1352500D03*
X1814644D03*
X1813750Y1356250D03*
X1809644D03*
X1810000Y1362500D03*
X1805894D03*
X1822480Y1418730D03*
X1802500Y1521250D03*
X1806606D03*
X1839840Y1313750D03*
X1840000Y1301250D03*
X1830000D03*
Y1313750D03*
X1844647Y1338750D03*
X1838750Y1345000D03*
X1842856D03*
X1831606Y1351250D03*
X1827500D03*
X1839997Y1365000D03*
X1844103D03*
X1844997Y1378750D03*
X1833299Y1402500D03*
X1823750Y1393750D03*
X1833296Y1413750D03*
X1828750Y1471250D03*
X1840000Y1481250D03*
X1841250Y1495000D03*
X1830000Y1506250D03*
X1850000Y1285000D03*
X1854106D03*
X1857144Y1280000D03*
X1861250D03*
X1859530Y1313750D03*
X1850000D03*
X1860000Y1301250D03*
X1850000D03*
X1857147Y1330000D03*
X1861253D03*
X1848753Y1338750D03*
X1861247D03*
X1865353D03*
X1849103Y1378750D03*
X1853689Y1379708D03*
X1857795D03*
X1855000Y1388750D03*
X1859106D03*
X1860000Y1481250D03*
X1850000D03*
X1854997Y1486250D03*
X1859103D03*
X1866247Y1515000D03*
X1850000Y1495000D03*
X1860000D03*
X1878750Y1287500D03*
X1871250Y1313750D03*
X1877500D03*
X1868750Y1301250D03*
X1870000Y1310000D03*
X1874106D03*
X1885000Y1312500D03*
X1889002Y1311463D03*
X1873394Y1333750D03*
X1877500D03*
X1880000Y1331250D03*
X1884106D03*
X1885897Y1328750D03*
X1867500Y1351250D03*
X1871606D03*
X1867500Y1387500D03*
X1871606D03*
X1870272Y1431250D03*
X1874378D03*
X1883397Y1437500D03*
X1887503D03*
X1883486Y1447411D03*
X1887592D03*
X1885411Y1460836D03*
X1878750Y1481250D03*
X1868813D03*
X1870353Y1515000D03*
X1880071Y1514926D03*
X1884177D03*
X1878750Y1495000D03*
X1871250D03*
X1874207Y1517500D03*
X1878313D03*
X1887723Y1516826D03*
X1897856Y1292500D03*
X1893750D03*
X1891250Y1308750D03*
X1895356D03*
X1895000Y1303750D03*
X1899106D03*
X1890003Y1328750D03*
X1889517Y1460836D03*
X1908902Y1486195D03*
X1891829Y1516826D03*
X1926606Y1440000D03*
X1922500D03*
X1921606Y1450000D03*
X1917500D03*
X1916683Y1461333D03*
X1912494Y1461250D03*
X1913008Y1486195D03*
G54D11*
X1821540Y1314880D03*
Y1495980D03*
X1895550Y1314880D03*
Y1495980D03*
G54D12*
G01X1823750Y1393750D02*
Y1320000D01*
X1830000Y1313750D01*
G01D02*
Y1301250D01*
G01X1833299Y1402500D02*
X1835000Y1400799D01*
Y1302500D01*
X1833750Y1301250D01*
X1830000D01*
G01Y1506250D02*
X1828750Y1505000D01*
Y1495000D01*
X1822480Y1488730D01*
Y1418730D01*
G01X1833296Y1413750D02*
Y1466704D01*
X1828750Y1471250D01*
G54D13*
G01X1779257Y1259750D02*
X1779637Y1259167D01*
X1780143Y1258833D01*
X1780713Y1258750D01*
X1781220Y1258833D01*
X1781727Y1259250D01*
X1782043Y1259750D01*
X1782107Y1260250D01*
X1781980Y1260833D01*
X1781537Y1261250D01*
X1781093Y1261417D01*
X1780523D01*
G01X1781093D02*
X1781473Y1261667D01*
X1781790Y1262083D01*
X1781917Y1262583D01*
X1781790Y1263083D01*
X1781473Y1263500D01*
X1780903Y1263750D01*
X1780333Y1263667D01*
X1779763Y1263333D01*
M02*
