G04 ================== begin FILE IDENTIFICATION RECORD ==================*
G04 Layout Name:  PC2230_6.brd*
G04 Film Name:    SOLDER_TOP*
G04 File Format:  Gerber RS274X*
G04 File Origin:  Cadence Allegro 16.6-P004*
G04 Origin Date:  Wed Mar 09 13:19:19 2016*
G04 *
G04 Layer:  VIA CLASS/SOLDERMASK_TOP*
G04 Layer:  PIN/SOLDERMASK_TOP*
G04 Layer:  PACKAGE GEOMETRY/SOLDERMASK_TOP*
G04 Layer:  BOARD GEOMETRY/SOLDERMASK_TOP*
G04 Layer:  BOARD GEOMETRY/OUTLINE*
G04 *
G04 Offset:    (0.00 0.00)*
G04 Mirror:    No*
G04 Mode:      Positive*
G04 Rotation:  0*
G04 FullContactRelief:  No*
G04 UndefLineWidth:     6.00*
G04 ================== end FILE IDENTIFICATION RECORD ====================*
%FSLAX25Y25*MOIN*%
%IR0*IPPOS*OFA0.00000B0.00000*MIA0B0*SFA1.00000B1.00000*%
%ADD11C,.05*%
%ADD10C,.035*%
%ADD12R,.0194X.0887*%
%ADD13C,.006*%
G75*
%LPD*%
G75*
G54D10*
X1779106Y1431250D03*
X1775000D03*
X1790000Y1507500D03*
X1794106D03*
X1793750Y1501250D03*
X1797856D03*
X1796250Y1516250D03*
X1800356D03*
X1818750Y1352500D03*
X1814644D03*
X1813750Y1356250D03*
X1809644D03*
X1810000Y1362500D03*
X1805894D03*
X1822480Y1418730D03*
X1802500Y1521250D03*
X1806606D03*
X1839840Y1313750D03*
X1840000Y1301250D03*
X1830000D03*
Y1313750D03*
X1844647Y1338750D03*
X1838750Y1345000D03*
X1842856D03*
X1831606Y1351250D03*
X1827500D03*
X1839997Y1365000D03*
X1844103D03*
X1844997Y1378750D03*
X1833299Y1402500D03*
X1823750Y1393750D03*
X1833296Y1413750D03*
X1828750Y1471250D03*
X1840000Y1481250D03*
X1841250Y1495000D03*
X1830000Y1506250D03*
X1850000Y1285000D03*
X1854106D03*
X1857144Y1280000D03*
X1861250D03*
X1859530Y1313750D03*
X1850000D03*
X1860000Y1301250D03*
X1850000D03*
X1857147Y1330000D03*
X1861253D03*
X1848753Y1338750D03*
X1861247D03*
X1865353D03*
X1849103Y1378750D03*
X1853689Y1379708D03*
X1857795D03*
X1855000Y1388750D03*
X1859106D03*
X1860000Y1481250D03*
X1850000D03*
X1854997Y1486250D03*
X1859103D03*
X1866247Y1515000D03*
X1850000Y1495000D03*
X1860000D03*
X1878750Y1287500D03*
X1871250Y1313750D03*
X1877500D03*
X1868750Y1301250D03*
X1870000Y1310000D03*
X1874106D03*
X1885000Y1312500D03*
X1889002Y1311463D03*
X1873394Y1333750D03*
X1877500D03*
X1880000Y1331250D03*
X1884106D03*
X1885897Y1328750D03*
X1867500Y1351250D03*
X1871606D03*
X1867500Y1387500D03*
X1871606D03*
X1870272Y1431250D03*
X1874378D03*
X1883397Y1437500D03*
X1887503D03*
X1883486Y1447411D03*
X1887592D03*
X1885411Y1460836D03*
X1878750Y1481250D03*
X1868813D03*
X1870353Y1515000D03*
X1880071Y1514926D03*
X1884177D03*
X1878750Y1495000D03*
X1871250D03*
X1874207Y1517500D03*
X1878313D03*
X1887723Y1516826D03*
X1897856Y1292500D03*
X1893750D03*
X1891250Y1308750D03*
X1895356D03*
X1895000Y1303750D03*
X1899106D03*
X1890003Y1328750D03*
X1889517Y1460836D03*
X1908902Y1486195D03*
X1891829Y1516826D03*
X1926606Y1440000D03*
X1922500D03*
X1921606Y1450000D03*
X1917500D03*
X1916683Y1461333D03*
X1912494Y1461250D03*
X1913008Y1486195D03*
G54D11*
X1821540Y1314880D03*
Y1495980D03*
X1895550Y1314880D03*
Y1495980D03*
G54D12*
X1830000Y1294800D03*
X1831970D03*
X1833940D03*
X1835910D03*
X1837870D03*
X1839840D03*
X1841810D03*
X1843780D03*
X1830000Y1320000D03*
X1831970D03*
X1833940D03*
X1835910D03*
X1837870D03*
X1839840D03*
X1841810D03*
X1843780D03*
X1830000Y1475900D03*
X1831970D03*
X1833940D03*
X1835910D03*
X1837870D03*
X1839840D03*
X1841810D03*
X1843780D03*
X1830000Y1501100D03*
X1831970D03*
X1833940D03*
X1835910D03*
X1837870D03*
X1839840D03*
X1841810D03*
X1843780D03*
X1845750Y1294800D03*
X1847720D03*
X1849680D03*
X1851650D03*
X1853620D03*
X1855590D03*
X1857560D03*
X1859530D03*
X1861500D03*
X1863460D03*
X1865430D03*
X1845750Y1320000D03*
X1847720D03*
X1849680D03*
X1851650D03*
X1853620D03*
X1855590D03*
X1857560D03*
X1859530D03*
X1861500D03*
X1863460D03*
X1865430D03*
X1845750Y1475900D03*
X1847720D03*
X1849680D03*
X1851650D03*
X1853620D03*
X1855590D03*
X1857560D03*
X1859530D03*
X1861500D03*
X1863460D03*
X1865430D03*
X1845750Y1501100D03*
X1847720D03*
X1849680D03*
X1851650D03*
X1853620D03*
X1855590D03*
X1857560D03*
X1859530D03*
X1861500D03*
X1863460D03*
X1865430D03*
X1867400Y1294800D03*
X1869370D03*
X1871340D03*
X1873310D03*
X1875280D03*
X1877240D03*
X1879210D03*
X1881180D03*
X1883150D03*
X1885120D03*
X1887090D03*
X1867400Y1320000D03*
X1869370D03*
X1871340D03*
X1873310D03*
X1875280D03*
X1877240D03*
X1879210D03*
X1881180D03*
X1883150D03*
X1885120D03*
X1887090D03*
X1867400Y1475900D03*
X1869370D03*
X1871340D03*
X1873310D03*
X1875280D03*
X1877240D03*
X1879210D03*
X1881180D03*
X1883150D03*
X1885120D03*
X1887090D03*
X1867400Y1501100D03*
X1869370D03*
X1871340D03*
X1873310D03*
X1875280D03*
X1877240D03*
X1879210D03*
X1881180D03*
X1883150D03*
X1885120D03*
X1887090D03*
G54D13*
G01X1768750Y1255000D02*
Y1532500D01*
X1951250D01*
Y1255000D01*
X1768750D01*
M02*
