M48
;DRILL file {Pcbnew (2013-07-07 BZR 4022)-stable} date 2014/8/22 下午 04:39:39
;FORMAT={-:-/ absolute / inch / decimal}
FMAT,2
INCH,TZ
T1C0.008
T2C0.008
T3C0.008
T4C0.012
T5C0.035
T6C0.040
T7C0.125
%
G90
G05
M72
T1
X3.2618Y-3.1843
X3.2618Y-3.2457
X3.2618Y-3.3067
X3.2618Y-3.3622
X3.2618Y-3.4098
X3.2618Y-3.465
X3.2618Y-3.5209
X3.2618Y-3.5811
X3.2618Y-3.6421
X3.2618Y-3.6969
X3.2618Y-3.748
X3.2618Y-3.8039
X3.2618Y-3.8579
X3.2618Y-3.9079
X3.2618Y-3.9598
X3.2618Y-4.0059
X3.2618Y-4.0551
X3.2618Y-4.1091
X3.2618Y-4.163
X3.2618Y-4.224
X3.2618Y-4.2772
X3.2618Y-4.3299
X3.2618Y-4.3799
X3.2618Y-4.4461
X3.2618Y-4.4925
X3.2618Y-4.5681
X3.2618Y-4.6177
X3.2618Y-4.6709
X3.2618Y-4.715
X3.2618Y-4.776
X3.2618Y-4.8232
X3.2618Y-4.8705
X3.315Y-3.2913
X3.315Y-3.5945
X3.315Y-3.9134
X3.3228Y-4.2362
X3.3228Y-4.5669
X3.3465Y-3.2598
X3.3465Y-3.563
X3.3465Y-3.8819
X3.3543Y-4.2047
X3.3543Y-4.5354
X3.378Y-3.2913
X3.378Y-3.5945
X3.378Y-3.9134
X3.3858Y-4.2362
X3.3858Y-4.5669
X3.4291Y-3.752
X3.4331Y-3.4606
X3.4331Y-4.0787
X3.4331Y-4.3976
X3.4331Y-4.7205
X3.4484Y-5.0453
X3.4606Y-3.7205
X3.4646Y-3.4291
X3.4646Y-4.0472
X3.4646Y-4.3661
X3.4646Y-4.689
X3.4921Y-3.752
X3.4961Y-3.4606
X3.4961Y-4.0787
X3.4961Y-4.3976
X3.4961Y-4.7205
X3.5098Y-5.0453
X3.5315Y-3.063
X3.5315Y-4.2362
X3.5394Y-3.9134
X3.5394Y-4.5669
X3.5394Y-4.9213
X3.5512Y-3.5945
X3.563Y-3.0315
X3.5709Y-3.8819
X3.5709Y-4.2047
X3.5709Y-4.5354
X3.5709Y-4.8898
X3.5787Y-3.2913
X3.5791Y-5.0453
X3.5827Y-3.563
X3.5945Y-3.063
X3.6024Y-3.9134
X3.6024Y-4.2362
X3.6024Y-4.5669
X3.6024Y-4.9213
X3.6102Y-3.2598
X3.6142Y-3.5945
X3.6346Y-5.0453
X3.6417Y-3.2913
X3.6575Y-4.0787
X3.6575Y-4.3976
X3.6575Y-4.7205
X3.6654Y-3.752
X3.6843Y-5.0453
X3.689Y-4.0472
X3.689Y-4.3661
X3.689Y-4.689
X3.6917Y-3.176
X3.6969Y-3.4606
X3.6969Y-3.7205
X3.7177Y-3.1409
X3.7205Y-4.0787
X3.7205Y-4.3976
X3.7205Y-4.7205
X3.7283Y-3.4291
X3.7283Y-3.752
X3.7402Y-5.0453
X3.7476Y-3.0957
X3.7559Y-4.2362
X3.7559Y-4.5669
X3.7559Y-4.9213
X3.7598Y-3.4606
X3.7756Y-3.9134
X3.7874Y-4.2047
X3.7874Y-4.5354
X3.7874Y-4.8898
X3.7878Y-3.0591
X3.8071Y-3.8819
X3.8075Y-3.0425
X3.815Y-3.5945
X3.8189Y-4.2362
X3.8189Y-4.5669
X3.8189Y-4.9213
X3.8272Y-3.0591
X3.8386Y-3.9134
X3.8465Y-3.563
X3.8665Y-3.0591
X3.8665Y-4.8268
X3.8665Y-4.9724
X3.878Y-3.5945
X3.8862Y-3.0425
X3.8937Y-4.0787
X3.8937Y-4.3976
X3.8937Y-4.7205
X3.9059Y-3.0591
X3.9252Y-4.0472
X3.9252Y-4.3661
X3.9252Y-4.689
X3.9291Y-3.752
X3.9453Y-3.0591
X3.9567Y-4.0787
X3.9567Y-4.3976
X3.9567Y-4.7205
X3.9606Y-3.7205
X3.965Y-3.0425
X3.965Y-4.8268
X3.965Y-4.9724
X3.9846Y-3.0591
X3.9921Y-3.752
X4.0043Y-3.0425
X4.024Y-3.0591
X4.0394Y-3.9134
X4.0394Y-4.2362
X4.0394Y-4.5669
X4.0394Y-4.9213
X4.0437Y-3.0425
X4.0634Y-3.0591
X4.0634Y-4.8268
X4.0634Y-4.9724
X4.0709Y-3.8819
X4.0709Y-4.2047
X4.0709Y-4.5354
X4.0709Y-4.8898
X4.0831Y-3.0425
X4.1024Y-3.9134
X4.1024Y-4.2362
X4.1024Y-4.5669
X4.1024Y-4.9213
X4.1421Y-3.0425
X4.1421Y-3.2953
X4.1575Y-4.0787
X4.1575Y-4.3976
X4.1575Y-4.7205
X4.1618Y-3.0591
X4.1618Y-4.8268
X4.1618Y-4.9724
X4.1815Y-3.0425
X4.189Y-4.0472
X4.189Y-4.3661
X4.189Y-4.689
X4.2012Y-3.0591
X4.2012Y-3.2953
X4.2205Y-4.0787
X4.2205Y-4.3976
X4.2205Y-4.7205
X4.2209Y-3.0425
X4.2406Y-3.0591
X4.2559Y-4.9213
X4.2602Y-3.0425
X4.2602Y-4.8268
X4.2602Y-4.9724
X4.2756Y-4.2362
X4.2799Y-3.0591
X4.2874Y-4.8898
X4.2953Y-4.5669
X4.3071Y-4.2047
X4.3189Y-4.9213
X4.3268Y-4.5354
X4.3386Y-4.2362
X4.339Y-3.2917
X4.3583Y-4.5669
X4.3898Y-4.3976
X4.3898Y-4.7205
X4.3937Y-4.0787
X4.4134Y-5.0472
X4.4213Y-4.3661
X4.4213Y-4.689
X4.4252Y-4.0433
X4.4402Y-5.0157
X4.4528Y-4.3976
X4.4528Y-4.7205
X4.4567Y-4.0787
X4.4646Y-5.0472
X4.4803Y-3.3898
X4.5Y-4.8976
X4.5Y-4.9291
X4.5Y-4.9606
X4.5118Y-4.2362
X4.5157Y-5.0472
X4.5197Y-4.5669
X4.5276Y-3.437
X4.5315Y-4.8976
X4.5315Y-4.9291
X4.5315Y-4.9606
X4.5433Y-4.2047
X4.5437Y-5.0157
X4.5512Y-4.5354
X4.563Y-3.0276
X4.563Y-4.8976
X4.563Y-4.9291
X4.563Y-4.9606
X4.5669Y-5.0472
X4.5748Y-3.4843
X4.5748Y-4.2362
X4.5827Y-4.5669
X4.5945Y-2.9961
X4.5945Y-4.8976
X4.6181Y-5.0472
X4.622Y-4.3976
X4.622Y-4.7205
X4.626Y-3.0276
X4.626Y-4.8976
X4.6299Y-3.1614
X4.6492Y-5.0157
X4.6535Y-4.3661
X4.6535Y-4.689
X4.6575Y-4.8976
X4.6614Y-3.1299
X4.6693Y-5.0472
X4.685Y-4.3976
X4.685Y-4.7205
X4.6929Y-3.0276
X4.6929Y-3.1614
X4.6929Y-3.2953
X4.7205Y-5.0472
X4.7244Y-2.9961
X4.7244Y-3.2638
X4.7485Y-5.0157
X4.752Y-4.5669
X4.752Y-4.811
X4.7559Y-3.0276
X4.7559Y-3.2953
X4.7559Y-3.5945
X4.7559Y-3.6693
X4.7598Y-3.1614
X4.7717Y-5.0472
X4.7835Y-4.5354
X4.7835Y-4.7795
X4.7913Y-3.1299
X4.8028Y-3.4173
X4.815Y-4.5669
X4.815Y-4.811
X4.8228Y-3.0276
X4.8228Y-3.1614
X4.8228Y-3.2913
X4.8228Y-5.0472
X4.8465Y-5.0157
X4.8504Y-3.5945
X4.8504Y-3.6693
X4.8543Y-2.9961
X4.8543Y-3.2598
X4.8543Y-4.7205
X4.8583Y-4.3976
X4.8709Y-3.7504
X4.8709Y-3.7728
X4.874Y-5.0472
X4.8858Y-3.0276
X4.8858Y-3.1614
X4.8858Y-3.2913
X4.8858Y-3.4173
X4.8858Y-4.689
X4.9173Y-3.3858
X4.9173Y-4.7205
X4.9252Y-5.0472
X4.9299Y-3.1417
X4.9319Y-3.2559
X4.9354Y-3.7402
X4.9488Y-3.4173
X4.9528Y-3.0276
X4.9531Y-4.2488
X4.9634Y-3.7205
X4.9748Y-3.6225
X4.9843Y-2.9961
X4.985Y-4.278
X4.9917Y-3.7012
X5.002Y-3.6421
X5.0028Y-4.3508
X5.0031Y-4.5657
X5.0047Y-4.5244
X5.0157Y-3.0276
X5.05Y-3.2102
X5.0571Y-4.4839
X5.0591Y-4.685
X5.0591Y-4.7402
X5.0591Y-4.7913
X5.0591Y-4.8465
X5.0591Y-4.8976
X5.0661Y-4.0839
X5.0728Y-3.7953
X5.0846Y-3.0291
X5.1142Y-2.9961
X5.1177Y-4.4827
X5.1197Y-4.5752
X5.1213Y-4.5276
X5.126Y-4.3504
X5.1445Y-3.5929
X5.1457Y-3.0276
X5.1461Y-3.087
X5.1669Y-3.5288
X5.1713Y-4.6575
X5.1717Y-3.7992
X5.1721Y-3.7508
X5.1728Y-3.6957
X5.1728Y-3.724
X5.1732Y-3.6461
X5.1764Y-4.578
X5.2012Y-3.4799
X5.2126Y-3.0276
X5.2165Y-3.3661
X5.2165Y-3.4291
X5.2193Y-3.589
X5.2232Y-4.0016
X5.2284Y-4.1925
X5.2308Y-4.1532
X5.2382Y-4.0205
X5.2441Y-2.9961
X5.2535Y-4.1732
X5.2543Y-3.7827
X5.2598Y-3.6201
X5.2598Y-3.6476
X5.2598Y-3.6732
X5.261Y-3.2638
X5.2618Y-3.8169
X5.2618Y-3.8563
X5.2646Y-3.7508
X5.2756Y-3.0276
X5.287Y-3.6752
X5.287Y-3.7327
X5.2874Y-3.2992
X5.2906Y-3.5095
X5.2913Y-4.5984
X5.2913Y-4.6614
X5.2972Y-3.6083
X5.3071Y-3.4862
X5.313Y-3.2382
X5.3209Y-4.0846
X5.3287Y-4.124
X5.3346Y-4.065
X5.3504Y-3.8563
X5.3504Y-3.8976
X5.3504Y-3.937
X5.3504Y-4.1909
X5.3543Y-4.5984
X5.3543Y-4.6614
X5.3563Y-3.751
X5.3579Y-4.2122
X5.3583Y-4.3563
X5.3583Y-4.0201
X5.365Y-4.1536
X5.3662Y-3.8355
X5.372Y-3.1496
X5.378Y-3.378
X5.378Y-4.7244
X5.378Y-4.7795
X5.3898Y-3.4606
X5.3937Y-2.9941
X5.3937Y-4.8661
X5.3976Y-4.1417
X5.4051Y-3.6417
X5.4094Y-4.3543
X5.4114Y-4.5768
X5.4173Y-4.6614
X5.4173Y-4.8346
X5.4213Y-4.065
X5.4213Y-4.1043
X5.4252Y-3.3307
X5.4252Y-3.378
X5.4252Y-3.4409
X5.4252Y-4.7795
X5.437Y-3.8976
X5.437Y-3.937
X5.437Y-3.9626
X5.4409Y-4.5433
X5.4409Y-4.8661
X5.4453Y-3.7319
X5.4567Y-3.2992
X5.4567Y-4.8346
X5.4685Y-3.378
X5.4685Y-3.4409
X5.4721Y-3.6075
X5.4721Y-4.3055
X5.4724Y-3.9252
X5.4736Y-3.6331
X5.4764Y-3.185
X5.4803Y-2.9941
X5.4803Y-4.8661
X5.4823Y-3.748
X5.4823Y-3.7776
X5.4882Y-3.3307
X5.4965Y-4.3051
X5.5039Y-4.8346
X5.5079Y-3.1535
X5.5098Y-3.6575
X5.5118Y-3.378
X5.5225Y-4.3067
X5.526Y-4.1209
X5.5276Y-4.5984
X5.5276Y-4.8661
X5.5288Y-4.0421
X5.5299Y-3.8228
X5.5303Y-4.0032
X5.5366Y-4.0819
X5.5394Y-4.6654
X5.5394Y-3.9638
X5.5453Y-3.4567
X5.5453Y-4.3067
X5.5472Y-4.8346
X5.5555Y-3.9028
X5.5571Y-4.5866
X5.5591Y-3.378
X5.561Y-3.7776
X5.561Y-3.8031
X5.561Y-4.1575
X5.5669Y-2.9941
X5.5669Y-4.8661
X5.5701Y-4.0618
X5.5709Y-3.9445
X5.5728Y-3.4134
X5.5728Y-3.502
X5.5736Y-3.9831
X5.5748Y-3.185
X5.5748Y-4.1929
X5.5772Y-4.0232
X5.5815Y-4.1406
X5.5827Y-3.8583
X5.5831Y-3.9047
X5.5886Y-3.8287
X5.589Y-4.1016
X5.5925Y-3.7894
X5.5925Y-4.1752
X5.5984Y-3.4567
X5.6024Y-3.3307
X5.6024Y-3.378
X5.6024Y-4.2303
X5.6024Y-4.3091
X5.6063Y-3.1535
X5.6142Y-4.6614
X5.6181Y-3.8327
X5.622Y-3.5374
X5.6299Y-4.3031
X5.6303Y-4.1937
X5.6339Y-3.2992
X5.6339Y-3.813
X5.6457Y-3.378
X5.6516Y-4.3583
X5.6575Y-2.9941
X5.6575Y-3.813
X5.6654Y-3.3307
X5.6772Y-3.185
X5.6783Y-3.9272
X5.6783Y-3.9705
X5.6783Y-4.0138
X5.6783Y-4.0571
X5.6783Y-4.1004
X5.689Y-3.378
X5.6949Y-4.1969
X5.6988Y-4.9449
X5.7Y-3.9055
X5.7Y-3.9488
X5.7Y-3.9921
X5.7Y-4.0354
X5.7Y-4.0787
X5.7087Y-3.1535
X5.7087Y-4.2421
X5.7087Y-4.6772
X5.7165Y-3.5846
X5.7205Y-4.1969
X5.7216Y-3.9272
X5.7216Y-3.9705
X5.7216Y-4.0138
X5.7216Y-4.0571
X5.7216Y-4.1004
X5.7224Y-4.7185
X5.7323Y-3.6614
X5.7362Y-4.6772
X5.7433Y-3.9055
X5.7433Y-3.9488
X5.7433Y-3.9921
X5.7433Y-4.0354
X5.7433Y-4.0787
X5.7441Y-2.9941
X5.7559Y-4.4193
X5.7559Y-4.4606
X5.7653Y-3.9272
X5.7653Y-3.9705
X5.7653Y-4.0138
X5.7653Y-4.0571
X5.7653Y-4.1004
X5.7717Y-3.185
X5.7717Y-4.9469
X5.7795Y-4.5
X5.7866Y-3.9055
X5.7866Y-3.9488
X5.7866Y-3.9921
X5.7866Y-4.0354
X5.7866Y-4.0787
X5.7953Y-3.378
X5.7972Y-4.6772
X5.8031Y-3.1535
X5.8051Y-4.4547
X5.8082Y-3.9272
X5.8082Y-3.9705
X5.8082Y-4.0138
X5.8082Y-4.0571
X5.8082Y-4.1004
X5.8268Y-4.8268
X5.8268Y-4.8661
X5.8268Y-4.9213
X5.8268Y-4.9606
X5.8268Y-5.0079
X5.8268Y-5.0472
X5.8299Y-3.9055
X5.8299Y-3.9488
X5.8299Y-3.9921
X5.8299Y-4.0354
X5.8299Y-4.0787
X5.8307Y-2.9941
X5.8327Y-4.3031
X5.8327Y-4.5
X5.8346Y-4.7795
X5.8386Y-3.6614
X5.8445Y-4.2638
X5.8445Y-4.3701
X5.8515Y-3.9272
X5.8515Y-3.9705
X5.8515Y-4.0138
X5.8515Y-4.0571
X5.8515Y-4.1004
X5.8536Y-4.1973
X5.8563Y-4.313
X5.8573Y-4.3474
X5.8573Y-4.4518
X5.8583Y-3.5846
X5.8732Y-3.9055
X5.8732Y-3.9488
X5.8732Y-3.9921
X5.8732Y-4.0354
X5.8732Y-4.0787
X5.874Y-4.1969
X5.874Y-3.185
X5.874Y-4.128
X5.874Y-5.0472
X5.878Y-4.3701
X5.8976Y-4.7008
X5.9016Y-3.622
X5.9016Y-3.6555
X5.9035Y-4.813
X5.9055Y-3.1535
X5.9055Y-5.0157
X5.9094Y-3.7972
X5.9173Y-2.9941
X5.9213Y-3.378
X5.9272Y-4.1807
X5.9281Y-4.2067
X5.9291Y-4.6299
X5.9311Y-3.7972
X5.937Y-5.0472
X5.9429Y-3.4744
X5.9429Y-3.5925
X5.9429Y-3.6594
X5.9646Y-4.1417
X5.9646Y-4.0225
X5.9669Y-4.0425
X5.9685Y-3.2598
X5.9724Y-3.378
X5.9725Y-3.5159
X5.9725Y-3.5497
X5.9764Y-5.0157
X5.9783Y-3.9843
X5.9803Y-3.622
X5.9823Y-3.9488
X5.9862Y-3.7618
X5.9882Y-3.8189
X5.9882Y-4.2264
X5.998Y-4.065
X6.Y-3.2283
X6.Y-3.9921
X6.Y-4.3474
X6.Y-4.4518
X6.0039Y-4.813
X6.0059Y-3.622
X6.0079Y-4.6299
X6.0079Y-4.6772
X6.0087Y-3.5501
X6.0095Y-3.5154
X6.0118Y-2.9941
X6.0118Y-5.0472
X6.0197Y-3.378
X6.0217Y-4.061
X6.0217Y-4.1437
X6.0217Y-4.3701
X6.0315Y-3.2598
X6.0315Y-4.2425
X6.0374Y-3.5925
X6.0413Y-3.6575
X6.0413Y-4.313
X6.0433Y-4.6772
X6.0433Y-5.0157
X6.0492Y-3.4055
X6.0492Y-3.4843
X6.0571Y-4.2717
X6.063Y-3.1732
X6.063Y-3.378
X6.063Y-3.6004
X6.065Y-4.3543
X6.065Y-4.4606
X6.065Y-4.5157
X6.0689Y-4.7224
X6.0748Y-4.811
X6.0748Y-4.8819
X6.0748Y-5.0472
X6.0807Y-4.2421
X6.0827Y-4.061
X6.0846Y-3.7618
X6.0882Y-3.8087
X6.0945Y-3.1417
X6.0984Y-3.1024
X6.1063Y-3.378
X6.1063Y-4.2165
X6.1063Y-4.7795
X6.1063Y-4.8504
X6.1063Y-5.0157
X6.1102Y-4.1437
X6.1181Y-3.8642
X6.1181Y-3.8937
X6.1181Y-4.0059
X6.1193Y-4.4709
X6.126Y-3.1732
X6.1339Y-4.1693
X6.1378Y-4.811
X6.1378Y-4.8819
X6.1378Y-5.0472
X6.139Y-4.4902
X6.1417Y-3.2598
X6.1457Y-4.6299
X6.1496Y-3.378
X6.1496Y-3.5709
X6.1496Y-4.2579
X6.1594Y-3.8083
X6.1594Y-3.8327
X6.1685Y-4.3256
X6.1693Y-3.8976
X6.1693Y-4.4429
X6.1693Y-4.5197
X6.1693Y-5.0157
X6.1713Y-4.1161
X6.1732Y-3.2283
X6.1831Y-4.8346
X6.185Y-2.9941
X6.189Y-3.6772
X6.189Y-4.6299
X6.189Y-4.7047
X6.1929Y-3.9508
X6.1929Y-3.9803
X6.1949Y-4.0354
X6.1969Y-3.378
X6.2008Y-5.0472
X6.2047Y-3.2598
X6.2126Y-4.6614
X6.2362Y-5.0157
X6.2441Y-3.378
X6.252Y-4.6614
X6.252Y-4.7047
X6.2717Y-2.9941
X6.2717Y-5.0472
X6.2874Y-3.378
X6.2913Y-4.7559
X6.2992Y-4.6614
X6.3031Y-5.0157
X6.3051Y-4.813
X6.3071Y-3.748
X6.3071Y-3.7874
X6.3071Y-3.9843
X6.3071Y-4.0236
X6.315Y-4.2205
X6.315Y-4.2598
X6.3228Y-4.7244
X6.3307Y-3.378
X6.3346Y-5.0472
X6.3386Y-4.6614
X6.3425Y-3.2598
X6.3425Y-4.5709
X6.3425Y-4.6102
X6.3524Y-2.9941
X6.3543Y-3.4094
X6.3543Y-3.4409
X6.3543Y-3.622
X6.3543Y-3.6535
X6.3543Y-3.6929
X6.3543Y-3.7402
X6.3543Y-3.7795
X6.3543Y-3.8268
X6.3543Y-3.8661
X6.3543Y-3.9134
X6.3543Y-3.9528
X6.3543Y-4.
X6.3543Y-4.3543
X6.3543Y-4.3858
X6.3543Y-4.7559
X6.3622Y-4.0394
X6.3622Y-4.0787
X6.3622Y-4.126
X6.3622Y-4.1654
X6.3622Y-4.2126
X6.3622Y-4.252
X6.3622Y-4.2992
X6.374Y-3.2283
X6.3937Y-3.4094
X6.3937Y-3.4409
X6.3937Y-3.622
X6.3937Y-3.6535
X6.3937Y-3.685
X6.3937Y-4.3543
X6.3937Y-4.3858
X6.3957Y-4.5709
X6.3957Y-4.6102
X6.4055Y-3.2598
X6.417Y-3.3706
X6.4252Y-4.6378
X6.4256Y-4.326
X6.4331Y-3.685
X6.4488Y-4.937
X6.4528Y-4.7559
X6.4574Y-3.3716
X6.4646Y-4.6378
X6.465Y-4.3264
X6.4724Y-3.685
X6.4843Y-3.0866
X6.4843Y-4.7244
X6.4882Y-3.2598
X6.4882Y-4.937
X6.5038Y-3.3716
X6.5039Y-4.6378
X6.511Y-4.3268
X6.5157Y-4.7559
X6.5197Y-3.2283
X6.5197Y-3.685
X6.5354Y-4.937
X6.5424Y-3.3714
X6.5433Y-4.6378
X6.5512Y-3.2598
X6.5512Y-4.3264
X6.5591Y-3.685
X6.5827Y-3.3701
X6.5827Y-3.8031
X6.5827Y-3.8425
X6.5827Y-3.8898
X6.5827Y-3.9291
X6.5827Y-3.9764
X6.5827Y-4.0157
X6.5827Y-4.0787
X6.5827Y-4.1181
X6.5827Y-4.1654
X6.5827Y-4.2047
X6.5827Y-4.6378
X6.5827Y-4.6772
X6.5827Y-4.7165
X6.5827Y-4.7559
X6.5827Y-4.7953
X6.5827Y-4.8346
X6.5827Y-4.874
X6.5894Y-4.326
X6.5906Y-3.685
T2
X5.974Y-4.074
X5.9748Y-3.902
X6.003Y-4.1211
X6.0339Y-3.9244
X6.0473Y-4.1
X6.078Y-3.9406
X6.1102Y-4.0835
T3
X5.6437Y-3.875
X5.6437Y-3.8947
X5.6437Y-3.9144
X5.6437Y-3.9341
X5.6437Y-3.9537
X5.6437Y-3.9734
X5.6437Y-3.9931
X5.6437Y-4.0128
X5.6437Y-4.0325
X5.6437Y-4.0522
X5.6437Y-4.0719
X5.6437Y-4.0915
X5.6437Y-4.1112
X5.6447Y-4.1309
X5.6663Y-4.1339
X5.6673Y-3.8711
X5.686Y-4.1339
X5.687Y-3.872
X5.7057Y-4.1339
X5.7067Y-3.872
X5.7254Y-4.1339
X5.7854Y-3.872
X5.8238Y-4.1339
X5.8435Y-4.1339
X5.9055Y-4.0128
X5.9065Y-3.875
X5.9065Y-3.8947
X5.9065Y-3.9144
X5.9065Y-3.9341
X5.9065Y-3.9734
X5.9065Y-3.9931
X5.9065Y-4.0325
X5.9065Y-4.0522
X5.9065Y-4.0719
X5.9065Y-4.0915
X5.9065Y-4.1309
X5.9075Y-4.1112
T4
X5.1169Y-3.4244
X5.1327Y-4.733
X5.1327Y-4.7645
X5.1327Y-4.8019
X5.1327Y-4.8353
X5.1327Y-4.8668
X5.1327Y-4.9003
X5.1622Y-4.733
X5.1622Y-4.8019
X5.1622Y-4.8353
X5.1632Y-4.7645
X5.1632Y-4.8678
X5.1632Y-4.9013
X5.1927Y-4.733
X5.1927Y-4.8678
X5.1927Y-4.9013
X5.1937Y-4.8019
X5.1937Y-4.8353
X5.1947Y-4.7645
X5.2054Y-4.49
X5.2055Y-4.5215
X5.2232Y-4.733
X5.2242Y-4.8678
X5.2242Y-4.9013
X5.2252Y-4.8019
X5.2252Y-4.8353
X5.2262Y-4.7645
X5.2547Y-4.7645
X5.2547Y-4.8019
X5.2557Y-4.733
X5.2567Y-4.8353
X5.2567Y-4.8678
X5.2567Y-4.9013
X5.2763Y-4.4901
X5.2764Y-4.5215
X5.2872Y-4.7645
X5.2872Y-4.8019
X5.2882Y-4.733
X5.2892Y-4.8353
X5.2892Y-4.8678
X5.2892Y-4.9013
X5.3207Y-4.7645
X5.3207Y-4.8019
X5.3217Y-4.733
X5.3226Y-4.8353
X5.3226Y-4.8678
X5.3226Y-4.9013
X5.6102Y-4.3975
X5.6378Y-4.3975
T5
X3.2232Y-3.463
X3.2232Y-3.5063
X3.2232Y-3.5496
X3.2232Y-4.3469
X3.2232Y-4.3902
X3.2232Y-4.4335
X4.1525Y-2.935
X4.1525Y-5.0846
X4.1958Y-2.935
X4.1958Y-5.0846
X4.2389Y-2.935
X4.2389Y-5.0846
X4.2823Y-2.935
X4.2823Y-5.0846
X5.3388Y-3.0511
X5.4388Y-3.0531
X5.5388Y-3.0531
X5.6388Y-3.0531
X5.6425Y-2.935
X5.6426Y-5.0846
X5.6566Y-5.0119
X5.6858Y-2.935
X5.6859Y-5.0846
X5.7291Y-2.935
X5.7292Y-5.0846
X5.7388Y-3.0531
X5.7566Y-5.0119
X5.7725Y-2.935
X5.7726Y-5.0846
X5.8388Y-3.0531
X5.9045Y-4.9448
X5.939Y-3.0511
X6.0045Y-4.9468
X6.039Y-3.0531
X6.1045Y-4.9468
X6.139Y-3.0531
X6.2045Y-4.9468
X6.239Y-3.0531
X6.3045Y-4.9468
X6.339Y-3.0531
X6.6268Y-3.9571
X6.6268Y-4.0004
X6.6268Y-4.0437
X6.6268Y-4.087
T6
X3.7095Y-3.0399
X3.7095Y-4.8198
X4.4369Y-3.0399
X4.4369Y-4.8198
T7
X3.3482Y-3.0598
X3.3482Y-4.9598
X6.4982Y-3.0598
X6.4982Y-4.9598
T0
M30
