G04 (created by PCBNEW (2013-07-07 BZR 4022)-stable) date 2014/8/22 下午 04:39:37*
%MOIN*%
G04 Gerber Fmt 3.4, Leading zero omitted, Abs format*
%FSLAX34Y34*%
G01*
G70*
G90*
G04 APERTURE LIST*
%ADD10C,0.00590551*%
%ADD11C,0.012*%
%ADD12C,0.0077*%
%ADD13C,0.015*%
%ADD14C,0.0117*%
%ADD15C,0.0059*%
%ADD16C,0.005*%
%ADD17C,0.0078*%
%ADD18C,0.00787402*%
%ADD19C,0.00984252*%
G04 APERTURE END LIST*
G54D10*
G54D11*
X33385Y-37735D02*
X33423Y-37821D01*
X33461Y-37850D01*
X33537Y-37878D01*
X33651Y-37878D01*
X33727Y-37850D01*
X33766Y-37821D01*
X33804Y-37764D01*
X33804Y-37535D01*
X33004Y-37535D01*
X33004Y-37735D01*
X33042Y-37793D01*
X33080Y-37821D01*
X33156Y-37850D01*
X33232Y-37850D01*
X33308Y-37821D01*
X33346Y-37793D01*
X33385Y-37735D01*
X33385Y-37535D01*
X33004Y-38250D02*
X33004Y-38364D01*
X33042Y-38421D01*
X33118Y-38478D01*
X33270Y-38507D01*
X33537Y-38507D01*
X33689Y-38478D01*
X33766Y-38421D01*
X33804Y-38364D01*
X33804Y-38250D01*
X33766Y-38193D01*
X33689Y-38135D01*
X33537Y-38107D01*
X33270Y-38107D01*
X33118Y-38135D01*
X33042Y-38193D01*
X33004Y-38250D01*
X33575Y-38735D02*
X33575Y-39021D01*
X33804Y-38678D02*
X33004Y-38878D01*
X33804Y-39078D01*
X33804Y-39621D02*
X33423Y-39421D01*
X33804Y-39278D02*
X33004Y-39278D01*
X33004Y-39507D01*
X33042Y-39564D01*
X33080Y-39593D01*
X33156Y-39621D01*
X33270Y-39621D01*
X33346Y-39593D01*
X33385Y-39564D01*
X33423Y-39507D01*
X33423Y-39278D01*
X33804Y-39878D02*
X33004Y-39878D01*
X33004Y-40021D01*
X33042Y-40107D01*
X33118Y-40164D01*
X33194Y-40193D01*
X33346Y-40221D01*
X33461Y-40221D01*
X33613Y-40193D01*
X33689Y-40164D01*
X33766Y-40107D01*
X33804Y-40021D01*
X33804Y-39878D01*
X33270Y-40878D02*
X33804Y-41021D01*
X33270Y-41164D01*
X33804Y-41707D02*
X33804Y-41364D01*
X33804Y-41535D02*
X33004Y-41535D01*
X33118Y-41478D01*
X33194Y-41421D01*
X33232Y-41364D01*
X33804Y-41964D02*
X33270Y-41964D01*
X33423Y-41964D02*
X33346Y-41993D01*
X33308Y-42021D01*
X33270Y-42078D01*
X33270Y-42135D01*
X33080Y-42307D02*
X33042Y-42335D01*
X33004Y-42393D01*
X33004Y-42535D01*
X33042Y-42593D01*
X33080Y-42621D01*
X33156Y-42650D01*
X33232Y-42650D01*
X33346Y-42621D01*
X33804Y-42278D01*
X33804Y-42650D01*
G54D12*
X69000Y-26600D02*
X29500Y-26600D01*
X56384Y-29350D02*
X42862Y-29350D01*
X42862Y-50846D02*
X56386Y-50846D01*
X31444Y-51633D02*
X41484Y-51633D01*
X42862Y-50846D02*
X42862Y-51633D01*
X41484Y-50846D02*
X41484Y-51633D01*
X31444Y-28562D02*
X41484Y-28562D01*
X42862Y-28562D02*
X42862Y-29350D01*
X41484Y-28562D02*
X41484Y-29350D01*
X29500Y-53600D02*
X29500Y-26600D01*
X69000Y-53600D02*
X29500Y-53600D01*
X69000Y-26598D02*
X69000Y-53600D01*
X66228Y-29350D02*
X66228Y-39492D01*
X57764Y-29350D02*
X66228Y-29350D01*
X57764Y-28562D02*
X57764Y-29350D01*
X67016Y-28562D02*
X57764Y-28562D01*
X67016Y-39492D02*
X67016Y-28562D01*
X66228Y-39492D02*
X67016Y-39492D01*
X57795Y-51633D02*
X57795Y-50846D01*
X67016Y-51633D02*
X57795Y-51633D01*
X67016Y-40948D02*
X67016Y-51633D01*
X66228Y-40948D02*
X67016Y-40948D01*
X66228Y-50846D02*
X66228Y-40948D01*
X57795Y-50846D02*
X66228Y-50846D01*
X31444Y-51633D02*
X31444Y-44413D01*
X56386Y-51633D02*
X42862Y-51633D01*
X56386Y-51633D02*
X56386Y-50846D01*
X32232Y-50846D02*
X41484Y-50846D01*
X32232Y-44413D02*
X32232Y-50846D01*
X31444Y-44413D02*
X32232Y-44413D01*
X31444Y-43390D02*
X31444Y-35555D01*
X32232Y-43390D02*
X31444Y-43390D01*
X32232Y-35555D02*
X32232Y-43390D01*
X31444Y-35555D02*
X32232Y-35555D01*
X32232Y-29350D02*
X32232Y-34570D01*
X31444Y-34570D02*
X32232Y-34570D01*
X31444Y-28562D02*
X31444Y-34570D01*
X42862Y-28562D02*
X56384Y-28562D01*
X56384Y-28562D02*
X56384Y-29350D01*
X32232Y-29350D02*
X41484Y-29350D01*
G54D13*
X44669Y-31789D02*
X44078Y-32374D01*
X36795Y-31789D02*
X37385Y-32374D01*
X37681Y-32374D02*
X37385Y-32374D01*
X37681Y-30023D02*
X36795Y-30023D01*
X44078Y-32374D02*
X43783Y-32374D01*
X36795Y-30023D02*
X36795Y-31789D01*
X44669Y-30023D02*
X43783Y-30023D01*
X44669Y-30023D02*
X44669Y-31789D01*
G54D14*
X52205Y-45511D02*
X52597Y-45511D01*
X57341Y-48346D02*
X56949Y-48346D01*
X56052Y-44866D02*
X56444Y-44866D01*
X54979Y-46850D02*
X54587Y-46850D01*
G54D12*
X53721Y-34332D02*
X53721Y-34488D01*
X51327Y-36111D02*
X51327Y-36267D01*
X60727Y-43917D02*
X60571Y-43917D01*
X53051Y-32007D02*
X53207Y-32007D01*
X49763Y-30827D02*
X49763Y-30983D01*
X51217Y-35560D02*
X51217Y-35716D01*
X51303Y-38086D02*
X51303Y-37930D01*
X54404Y-36232D02*
X54248Y-36232D01*
X51327Y-36383D02*
X51327Y-36539D01*
X51291Y-37154D02*
X51291Y-37310D01*
X52154Y-37318D02*
X52154Y-37162D01*
X52126Y-36275D02*
X52126Y-36119D01*
X55349Y-35496D02*
X55193Y-35496D01*
X52130Y-38070D02*
X52130Y-37914D01*
X52894Y-34332D02*
X52894Y-34488D01*
X51295Y-37430D02*
X51295Y-37586D01*
X53640Y-36574D02*
X53484Y-36574D01*
X60414Y-34448D02*
X60570Y-34448D01*
X61102Y-35630D02*
X61102Y-35786D01*
X59862Y-35983D02*
X59862Y-35827D01*
X59113Y-48523D02*
X58957Y-48523D01*
X60117Y-48523D02*
X59961Y-48523D01*
X62125Y-48523D02*
X61969Y-48523D01*
X63129Y-48523D02*
X62973Y-48523D01*
X56810Y-42696D02*
X56654Y-42696D01*
X58012Y-42755D02*
X58168Y-42755D01*
X55216Y-37402D02*
X55216Y-37558D01*
X55590Y-37067D02*
X55590Y-37223D01*
X59270Y-36909D02*
X59114Y-36909D01*
X59449Y-42539D02*
X59605Y-42539D01*
X60708Y-41614D02*
X60708Y-41770D01*
X61535Y-39429D02*
X61535Y-39585D01*
X58936Y-37736D02*
X58780Y-37736D01*
X60560Y-40169D02*
X60716Y-40169D01*
X60154Y-40433D02*
X60154Y-40277D01*
X61543Y-40429D02*
X61543Y-40273D01*
X61338Y-41239D02*
X61338Y-41083D01*
X56299Y-42519D02*
X56455Y-42519D01*
X60826Y-38404D02*
X60826Y-38248D01*
X52150Y-37031D02*
X52150Y-36875D01*
X60670Y-43070D02*
X60826Y-43070D01*
X61213Y-43178D02*
X61213Y-43334D01*
X61397Y-37243D02*
X61397Y-37087D01*
X61672Y-37657D02*
X61516Y-37657D01*
X57853Y-42755D02*
X57697Y-42755D01*
X61535Y-39725D02*
X61535Y-39881D01*
X55156Y-38405D02*
X55000Y-38405D01*
X55650Y-43267D02*
X55806Y-43267D01*
X51225Y-34812D02*
X51225Y-34968D01*
X51225Y-35358D02*
X51225Y-35202D01*
X52154Y-37434D02*
X52154Y-37590D01*
X51291Y-36879D02*
X51291Y-37035D01*
X52126Y-36547D02*
X52126Y-36391D01*
X58070Y-45392D02*
X58070Y-45236D01*
X57481Y-45000D02*
X57637Y-45000D01*
X61437Y-36908D02*
X61437Y-36634D01*
X52185Y-46437D02*
X52185Y-46711D01*
X54566Y-43406D02*
X54566Y-43680D01*
X61288Y-42984D02*
X61288Y-42710D01*
X57579Y-49015D02*
X57853Y-49015D01*
X54566Y-45630D02*
X54566Y-45904D01*
X55530Y-47125D02*
X55256Y-47125D01*
X56043Y-45729D02*
X56043Y-46003D01*
X57874Y-47932D02*
X57874Y-47658D01*
X60904Y-40984D02*
X60748Y-40984D01*
X61027Y-40169D02*
X60871Y-40169D01*
X60294Y-40984D02*
X60138Y-40984D01*
X60807Y-39015D02*
X60807Y-38859D01*
X56260Y-41467D02*
X56260Y-41623D01*
X60807Y-38719D02*
X60807Y-38563D01*
X56909Y-42282D02*
X56909Y-42126D01*
X56219Y-46988D02*
X56063Y-46988D01*
X56594Y-38406D02*
X56594Y-38562D01*
X57343Y-42244D02*
X57499Y-42244D01*
X53385Y-36004D02*
X53385Y-36160D01*
X60452Y-35531D02*
X60296Y-35531D01*
X59409Y-36142D02*
X59409Y-36298D01*
X60452Y-36298D02*
X60452Y-36142D01*
X60826Y-44487D02*
X60826Y-44331D01*
X60826Y-45018D02*
X60826Y-44862D01*
X59617Y-41870D02*
X59461Y-41870D01*
X55176Y-36968D02*
X55020Y-36968D01*
X57853Y-41535D02*
X57697Y-41535D01*
X57578Y-41535D02*
X57422Y-41535D01*
X59389Y-39665D02*
X59233Y-39665D01*
X55688Y-38405D02*
X55532Y-38405D01*
X55945Y-42696D02*
X56101Y-42696D01*
X58897Y-38170D02*
X58897Y-38326D01*
X58898Y-38517D02*
X58898Y-38673D01*
X61515Y-39270D02*
X61515Y-39114D01*
X59961Y-39346D02*
X60117Y-39346D01*
X59113Y-41722D02*
X58957Y-41722D01*
X59546Y-38484D02*
X59390Y-38484D01*
X59803Y-41870D02*
X59959Y-41870D01*
X60118Y-41870D02*
X60274Y-41870D01*
X55216Y-37697D02*
X55216Y-37853D01*
X56240Y-37481D02*
X56240Y-37637D01*
X56594Y-37796D02*
X56594Y-37952D01*
X59370Y-37479D02*
X59370Y-37323D01*
X59370Y-37794D02*
X59370Y-37638D01*
X58267Y-42361D02*
X58267Y-42205D01*
X58385Y-41633D02*
X58385Y-41477D01*
X53660Y-43937D02*
X53504Y-43937D01*
X59527Y-41140D02*
X59527Y-40984D01*
G54D15*
X53059Y-38791D02*
X53059Y-38123D01*
X53937Y-39605D02*
X53937Y-38937D01*
X53059Y-40441D02*
X53059Y-39773D01*
X53779Y-41278D02*
X53779Y-40610D01*
X53059Y-42161D02*
X53059Y-41493D01*
X53858Y-43070D02*
X53858Y-42402D01*
X55464Y-42516D02*
X54796Y-42516D01*
G54D12*
X49763Y-32637D02*
X49763Y-32481D01*
X51703Y-33917D02*
X51859Y-33917D01*
X53307Y-31418D02*
X53307Y-31574D01*
X49763Y-31495D02*
X49763Y-31339D01*
G54D14*
X44669Y-49588D02*
X44078Y-50173D01*
X36795Y-49588D02*
X37385Y-50173D01*
X37681Y-50173D02*
X37385Y-50173D01*
X37681Y-47823D02*
X36795Y-47823D01*
G54D11*
X44078Y-50173D02*
X43783Y-50173D01*
X36795Y-47823D02*
X36795Y-49588D01*
X44669Y-47823D02*
X43783Y-47823D01*
X44669Y-47823D02*
X44669Y-49588D01*
G54D12*
X58701Y-43307D02*
X58857Y-43307D01*
X58150Y-43425D02*
X58306Y-43425D01*
G54D14*
X57299Y-46302D02*
X57299Y-46306D01*
G54D16*
X56890Y-47371D02*
X57440Y-47371D01*
X57440Y-47371D02*
X57440Y-46171D01*
X57440Y-46171D02*
X56890Y-46171D01*
X56890Y-46171D02*
X56890Y-47371D01*
G54D14*
X54878Y-44740D02*
X54874Y-44740D01*
G54D16*
X53809Y-44331D02*
X53809Y-44881D01*
X53809Y-44881D02*
X55009Y-44881D01*
X55009Y-44881D02*
X55009Y-44331D01*
X55009Y-44331D02*
X53809Y-44331D01*
G54D14*
X52789Y-35519D02*
X52789Y-35511D01*
G54D17*
X54261Y-34704D02*
X54261Y-35688D01*
X54261Y-35688D02*
X52609Y-35688D01*
X52609Y-34704D02*
X54261Y-34704D01*
X52609Y-35688D02*
X52609Y-34704D01*
G54D18*
X52283Y-31181D02*
X52283Y-31141D01*
X52283Y-31181D02*
X52283Y-33346D01*
X52283Y-33346D02*
X50866Y-33346D01*
X50866Y-33346D02*
X50866Y-31141D01*
X50866Y-31141D02*
X52283Y-31141D01*
G54D19*
X52794Y-33621D02*
X50354Y-33621D01*
X50354Y-33621D02*
X50354Y-30787D01*
X50354Y-30787D02*
X52794Y-30787D01*
X52794Y-30787D02*
X52794Y-33621D01*
G54D18*
X44468Y-32825D02*
X44206Y-33219D01*
X44206Y-32825D02*
X44468Y-33219D01*
X44093Y-32825D02*
X43850Y-32825D01*
X43981Y-32975D01*
X43925Y-32975D01*
X43887Y-32994D01*
X43868Y-33013D01*
X43850Y-33050D01*
X43850Y-33144D01*
X43868Y-33181D01*
X43887Y-33200D01*
X43925Y-33219D01*
X44037Y-33219D01*
X44075Y-33200D01*
X44093Y-33181D01*
X52017Y-45616D02*
X51867Y-45511D01*
X52017Y-45436D02*
X51702Y-45436D01*
X51702Y-45556D01*
X51717Y-45586D01*
X51732Y-45601D01*
X51762Y-45616D01*
X51807Y-45616D01*
X51837Y-45601D01*
X51852Y-45586D01*
X51867Y-45556D01*
X51867Y-45436D01*
X52017Y-45916D02*
X52017Y-45736D01*
X52017Y-45826D02*
X51702Y-45826D01*
X51747Y-45796D01*
X51777Y-45766D01*
X51792Y-45736D01*
X56761Y-47994D02*
X56611Y-47889D01*
X56761Y-47814D02*
X56446Y-47814D01*
X56446Y-47934D01*
X56461Y-47964D01*
X56476Y-47979D01*
X56506Y-47994D01*
X56551Y-47994D01*
X56581Y-47979D01*
X56596Y-47964D01*
X56611Y-47934D01*
X56611Y-47814D01*
X56476Y-48113D02*
X56461Y-48128D01*
X56446Y-48158D01*
X56446Y-48233D01*
X56461Y-48263D01*
X56476Y-48278D01*
X56506Y-48293D01*
X56536Y-48293D01*
X56581Y-48278D01*
X56761Y-48098D01*
X56761Y-48293D01*
X56761Y-48593D02*
X56761Y-48413D01*
X56761Y-48503D02*
X56446Y-48503D01*
X56491Y-48473D01*
X56521Y-48443D01*
X56536Y-48413D01*
X56761Y-48893D02*
X56761Y-48713D01*
X56761Y-48803D02*
X56446Y-48803D01*
X56491Y-48773D01*
X56521Y-48743D01*
X56536Y-48713D01*
X56918Y-44206D02*
X56768Y-44101D01*
X56918Y-44026D02*
X56603Y-44026D01*
X56603Y-44146D01*
X56618Y-44176D01*
X56633Y-44191D01*
X56663Y-44206D01*
X56708Y-44206D01*
X56738Y-44191D01*
X56753Y-44176D01*
X56768Y-44146D01*
X56768Y-44026D01*
X56738Y-44386D02*
X56723Y-44356D01*
X56708Y-44341D01*
X56678Y-44326D01*
X56663Y-44326D01*
X56633Y-44341D01*
X56618Y-44356D01*
X56603Y-44386D01*
X56603Y-44446D01*
X56618Y-44476D01*
X56633Y-44491D01*
X56663Y-44506D01*
X56678Y-44506D01*
X56708Y-44491D01*
X56723Y-44476D01*
X56738Y-44446D01*
X56738Y-44386D01*
X56753Y-44356D01*
X56768Y-44341D01*
X56798Y-44326D01*
X56858Y-44326D01*
X56888Y-44341D01*
X56903Y-44356D01*
X56918Y-44386D01*
X56918Y-44446D01*
X56903Y-44476D01*
X56888Y-44491D01*
X56858Y-44506D01*
X56798Y-44506D01*
X56768Y-44491D01*
X56753Y-44476D01*
X56738Y-44446D01*
X56633Y-44626D02*
X56618Y-44641D01*
X56603Y-44671D01*
X56603Y-44746D01*
X56618Y-44776D01*
X56633Y-44791D01*
X56663Y-44806D01*
X56693Y-44806D01*
X56738Y-44791D01*
X56918Y-44611D01*
X56918Y-44806D01*
X54418Y-46982D02*
X54268Y-46877D01*
X54418Y-46802D02*
X54103Y-46802D01*
X54103Y-46922D01*
X54118Y-46952D01*
X54133Y-46967D01*
X54163Y-46982D01*
X54208Y-46982D01*
X54238Y-46967D01*
X54253Y-46952D01*
X54268Y-46922D01*
X54268Y-46802D01*
X54208Y-47252D02*
X54418Y-47252D01*
X54088Y-47177D02*
X54313Y-47102D01*
X54313Y-47297D01*
X54418Y-47582D02*
X54418Y-47402D01*
X54418Y-47492D02*
X54103Y-47492D01*
X54148Y-47462D01*
X54178Y-47432D01*
X54193Y-47402D01*
X53883Y-34202D02*
X53988Y-34052D01*
X54063Y-34202D02*
X54063Y-33887D01*
X53943Y-33887D01*
X53913Y-33902D01*
X53898Y-33917D01*
X53883Y-33947D01*
X53883Y-33992D01*
X53898Y-34022D01*
X53913Y-34037D01*
X53943Y-34052D01*
X54063Y-34052D01*
X53613Y-33992D02*
X53613Y-34202D01*
X53688Y-33872D02*
X53763Y-34097D01*
X53568Y-34097D01*
X53313Y-33887D02*
X53373Y-33887D01*
X53403Y-33902D01*
X53418Y-33917D01*
X53448Y-33962D01*
X53463Y-34022D01*
X53463Y-34142D01*
X53448Y-34172D01*
X53433Y-34187D01*
X53403Y-34202D01*
X53343Y-34202D01*
X53313Y-34187D01*
X53298Y-34172D01*
X53283Y-34142D01*
X53283Y-34067D01*
X53298Y-34037D01*
X53313Y-34022D01*
X53343Y-34007D01*
X53403Y-34007D01*
X53433Y-34022D01*
X53448Y-34037D01*
X53463Y-34067D01*
X50687Y-36131D02*
X50792Y-35981D01*
X50867Y-36131D02*
X50867Y-35816D01*
X50747Y-35816D01*
X50717Y-35831D01*
X50702Y-35846D01*
X50687Y-35876D01*
X50687Y-35921D01*
X50702Y-35951D01*
X50717Y-35966D01*
X50747Y-35981D01*
X50867Y-35981D01*
X50387Y-36131D02*
X50567Y-36131D01*
X50477Y-36131D02*
X50477Y-35816D01*
X50507Y-35861D01*
X50537Y-35891D01*
X50567Y-35906D01*
X50282Y-35816D02*
X50087Y-35816D01*
X50192Y-35936D01*
X50147Y-35936D01*
X50117Y-35951D01*
X50102Y-35966D01*
X50087Y-35996D01*
X50087Y-36071D01*
X50102Y-36101D01*
X50117Y-36116D01*
X50147Y-36131D01*
X50237Y-36131D01*
X50267Y-36116D01*
X50282Y-36101D01*
X49892Y-35816D02*
X49862Y-35816D01*
X49832Y-35831D01*
X49817Y-35846D01*
X49802Y-35876D01*
X49787Y-35936D01*
X49787Y-36011D01*
X49802Y-36071D01*
X49817Y-36101D01*
X49832Y-36116D01*
X49862Y-36131D01*
X49892Y-36131D01*
X49922Y-36116D01*
X49937Y-36101D01*
X49952Y-36071D01*
X49967Y-36011D01*
X49967Y-35936D01*
X49952Y-35876D01*
X49937Y-35846D01*
X49922Y-35831D01*
X49892Y-35816D01*
X60462Y-43813D02*
X60312Y-43708D01*
X60462Y-43633D02*
X60147Y-43633D01*
X60147Y-43753D01*
X60162Y-43783D01*
X60177Y-43798D01*
X60207Y-43813D01*
X60252Y-43813D01*
X60282Y-43798D01*
X60297Y-43783D01*
X60312Y-43753D01*
X60312Y-43633D01*
X60147Y-44098D02*
X60147Y-43948D01*
X60297Y-43933D01*
X60282Y-43948D01*
X60267Y-43978D01*
X60267Y-44053D01*
X60282Y-44083D01*
X60297Y-44098D01*
X60327Y-44113D01*
X60402Y-44113D01*
X60432Y-44098D01*
X60447Y-44083D01*
X60462Y-44053D01*
X60462Y-43978D01*
X60447Y-43948D01*
X60432Y-43933D01*
X60147Y-44308D02*
X60147Y-44338D01*
X60162Y-44368D01*
X60177Y-44383D01*
X60207Y-44398D01*
X60267Y-44413D01*
X60342Y-44413D01*
X60402Y-44398D01*
X60432Y-44383D01*
X60447Y-44368D01*
X60462Y-44338D01*
X60462Y-44308D01*
X60447Y-44278D01*
X60432Y-44263D01*
X60402Y-44248D01*
X60342Y-44233D01*
X60267Y-44233D01*
X60207Y-44248D01*
X60177Y-44263D01*
X60162Y-44278D01*
X60147Y-44308D01*
X53670Y-31955D02*
X53520Y-31850D01*
X53670Y-31775D02*
X53355Y-31775D01*
X53355Y-31895D01*
X53370Y-31925D01*
X53385Y-31940D01*
X53415Y-31955D01*
X53460Y-31955D01*
X53490Y-31940D01*
X53505Y-31925D01*
X53520Y-31895D01*
X53520Y-31775D01*
X53460Y-32225D02*
X53670Y-32225D01*
X53340Y-32150D02*
X53565Y-32075D01*
X53565Y-32270D01*
X49218Y-31052D02*
X49323Y-30902D01*
X49398Y-31052D02*
X49398Y-30737D01*
X49278Y-30737D01*
X49248Y-30752D01*
X49233Y-30767D01*
X49218Y-30797D01*
X49218Y-30842D01*
X49233Y-30872D01*
X49248Y-30887D01*
X49278Y-30902D01*
X49398Y-30902D01*
X48948Y-30842D02*
X48948Y-31052D01*
X49023Y-30722D02*
X49098Y-30947D01*
X48903Y-30947D01*
X48768Y-31052D02*
X48708Y-31052D01*
X48678Y-31037D01*
X48663Y-31022D01*
X48633Y-30977D01*
X48618Y-30917D01*
X48618Y-30797D01*
X48633Y-30767D01*
X48648Y-30752D01*
X48678Y-30737D01*
X48738Y-30737D01*
X48768Y-30752D01*
X48783Y-30767D01*
X48798Y-30797D01*
X48798Y-30872D01*
X48783Y-30902D01*
X48768Y-30917D01*
X48738Y-30932D01*
X48678Y-30932D01*
X48648Y-30917D01*
X48633Y-30902D01*
X48618Y-30872D01*
X50615Y-35718D02*
X50720Y-35568D01*
X50795Y-35718D02*
X50795Y-35403D01*
X50675Y-35403D01*
X50645Y-35418D01*
X50630Y-35433D01*
X50615Y-35463D01*
X50615Y-35508D01*
X50630Y-35538D01*
X50645Y-35553D01*
X50675Y-35568D01*
X50795Y-35568D01*
X50495Y-35433D02*
X50480Y-35418D01*
X50450Y-35403D01*
X50375Y-35403D01*
X50345Y-35418D01*
X50330Y-35433D01*
X50315Y-35463D01*
X50315Y-35493D01*
X50330Y-35538D01*
X50510Y-35718D01*
X50315Y-35718D01*
X50210Y-35403D02*
X50015Y-35403D01*
X50120Y-35523D01*
X50075Y-35523D01*
X50045Y-35538D01*
X50030Y-35553D01*
X50015Y-35583D01*
X50015Y-35658D01*
X50030Y-35688D01*
X50045Y-35703D01*
X50075Y-35718D01*
X50165Y-35718D01*
X50195Y-35703D01*
X50210Y-35688D01*
X51403Y-38513D02*
X51508Y-38363D01*
X51583Y-38513D02*
X51583Y-38198D01*
X51463Y-38198D01*
X51433Y-38213D01*
X51418Y-38228D01*
X51403Y-38258D01*
X51403Y-38303D01*
X51418Y-38333D01*
X51433Y-38348D01*
X51463Y-38363D01*
X51583Y-38363D01*
X51133Y-38303D02*
X51133Y-38513D01*
X51208Y-38183D02*
X51283Y-38408D01*
X51088Y-38408D01*
X50833Y-38303D02*
X50833Y-38513D01*
X50908Y-38183D02*
X50983Y-38408D01*
X50788Y-38408D01*
X54103Y-36037D02*
X53953Y-35932D01*
X54103Y-35857D02*
X53788Y-35857D01*
X53788Y-35977D01*
X53803Y-36007D01*
X53818Y-36022D01*
X53848Y-36037D01*
X53893Y-36037D01*
X53923Y-36022D01*
X53938Y-36007D01*
X53953Y-35977D01*
X53953Y-35857D01*
X53818Y-36157D02*
X53803Y-36172D01*
X53788Y-36202D01*
X53788Y-36277D01*
X53803Y-36307D01*
X53818Y-36322D01*
X53848Y-36337D01*
X53878Y-36337D01*
X53923Y-36322D01*
X54103Y-36142D01*
X54103Y-36337D01*
X54103Y-36487D02*
X54103Y-36547D01*
X54088Y-36577D01*
X54073Y-36592D01*
X54028Y-36622D01*
X53968Y-36637D01*
X53848Y-36637D01*
X53818Y-36622D01*
X53803Y-36607D01*
X53788Y-36577D01*
X53788Y-36517D01*
X53803Y-36487D01*
X53818Y-36472D01*
X53848Y-36457D01*
X53923Y-36457D01*
X53953Y-36472D01*
X53968Y-36487D01*
X53983Y-36517D01*
X53983Y-36577D01*
X53968Y-36607D01*
X53953Y-36622D01*
X53923Y-36637D01*
X50706Y-36544D02*
X50811Y-36394D01*
X50886Y-36544D02*
X50886Y-36229D01*
X50766Y-36229D01*
X50736Y-36244D01*
X50721Y-36259D01*
X50706Y-36289D01*
X50706Y-36334D01*
X50721Y-36364D01*
X50736Y-36379D01*
X50766Y-36394D01*
X50886Y-36394D01*
X50406Y-36544D02*
X50586Y-36544D01*
X50496Y-36544D02*
X50496Y-36229D01*
X50526Y-36274D01*
X50556Y-36304D01*
X50586Y-36319D01*
X50301Y-36229D02*
X50106Y-36229D01*
X50211Y-36349D01*
X50166Y-36349D01*
X50136Y-36364D01*
X50121Y-36379D01*
X50106Y-36409D01*
X50106Y-36484D01*
X50121Y-36514D01*
X50136Y-36529D01*
X50166Y-36544D01*
X50256Y-36544D01*
X50286Y-36529D01*
X50301Y-36514D01*
X49806Y-36544D02*
X49986Y-36544D01*
X49896Y-36544D02*
X49896Y-36229D01*
X49926Y-36274D01*
X49956Y-36304D01*
X49986Y-36319D01*
X50726Y-37450D02*
X50831Y-37300D01*
X50906Y-37450D02*
X50906Y-37135D01*
X50786Y-37135D01*
X50756Y-37150D01*
X50741Y-37165D01*
X50726Y-37195D01*
X50726Y-37240D01*
X50741Y-37270D01*
X50756Y-37285D01*
X50786Y-37300D01*
X50906Y-37300D01*
X50426Y-37450D02*
X50606Y-37450D01*
X50516Y-37450D02*
X50516Y-37135D01*
X50546Y-37180D01*
X50576Y-37210D01*
X50606Y-37225D01*
X50321Y-37135D02*
X50126Y-37135D01*
X50231Y-37255D01*
X50186Y-37255D01*
X50156Y-37270D01*
X50141Y-37285D01*
X50126Y-37315D01*
X50126Y-37390D01*
X50141Y-37420D01*
X50156Y-37435D01*
X50186Y-37450D01*
X50276Y-37450D01*
X50306Y-37435D01*
X50321Y-37420D01*
X50006Y-37165D02*
X49991Y-37150D01*
X49961Y-37135D01*
X49886Y-37135D01*
X49856Y-37150D01*
X49841Y-37165D01*
X49826Y-37195D01*
X49826Y-37225D01*
X49841Y-37270D01*
X50021Y-37450D01*
X49826Y-37450D01*
X53115Y-37214D02*
X53220Y-37064D01*
X53295Y-37214D02*
X53295Y-36899D01*
X53175Y-36899D01*
X53145Y-36914D01*
X53130Y-36929D01*
X53115Y-36959D01*
X53115Y-37004D01*
X53130Y-37034D01*
X53145Y-37049D01*
X53175Y-37064D01*
X53295Y-37064D01*
X52965Y-37214D02*
X52905Y-37214D01*
X52875Y-37199D01*
X52860Y-37184D01*
X52830Y-37139D01*
X52815Y-37079D01*
X52815Y-36959D01*
X52830Y-36929D01*
X52845Y-36914D01*
X52875Y-36899D01*
X52935Y-36899D01*
X52965Y-36914D01*
X52980Y-36929D01*
X52995Y-36959D01*
X52995Y-37034D01*
X52980Y-37064D01*
X52965Y-37079D01*
X52935Y-37094D01*
X52875Y-37094D01*
X52845Y-37079D01*
X52830Y-37064D01*
X52815Y-37034D01*
X52545Y-36899D02*
X52605Y-36899D01*
X52635Y-36914D01*
X52650Y-36929D01*
X52680Y-36974D01*
X52695Y-37034D01*
X52695Y-37154D01*
X52680Y-37184D01*
X52665Y-37199D01*
X52635Y-37214D01*
X52575Y-37214D01*
X52545Y-37199D01*
X52530Y-37184D01*
X52515Y-37154D01*
X52515Y-37079D01*
X52530Y-37049D01*
X52545Y-37034D01*
X52575Y-37019D01*
X52635Y-37019D01*
X52665Y-37034D01*
X52680Y-37049D01*
X52695Y-37079D01*
X52308Y-36032D02*
X52413Y-35883D01*
X52488Y-36032D02*
X52488Y-35718D01*
X52368Y-35718D01*
X52338Y-35733D01*
X52323Y-35748D01*
X52308Y-35778D01*
X52308Y-35823D01*
X52323Y-35853D01*
X52338Y-35868D01*
X52368Y-35883D01*
X52488Y-35883D01*
X52158Y-36032D02*
X52098Y-36032D01*
X52068Y-36017D01*
X52053Y-36002D01*
X52023Y-35958D01*
X52008Y-35898D01*
X52008Y-35778D01*
X52023Y-35748D01*
X52038Y-35733D01*
X52068Y-35718D01*
X52128Y-35718D01*
X52158Y-35733D01*
X52173Y-35748D01*
X52188Y-35778D01*
X52188Y-35853D01*
X52173Y-35883D01*
X52158Y-35898D01*
X52128Y-35913D01*
X52068Y-35913D01*
X52038Y-35898D01*
X52023Y-35883D01*
X52008Y-35853D01*
X51723Y-35718D02*
X51873Y-35718D01*
X51888Y-35868D01*
X51873Y-35853D01*
X51843Y-35838D01*
X51768Y-35838D01*
X51738Y-35853D01*
X51723Y-35868D01*
X51708Y-35898D01*
X51708Y-35973D01*
X51723Y-36002D01*
X51738Y-36017D01*
X51768Y-36032D01*
X51843Y-36032D01*
X51873Y-36017D01*
X51888Y-36002D01*
X55816Y-35289D02*
X55666Y-35184D01*
X55816Y-35109D02*
X55501Y-35109D01*
X55501Y-35229D01*
X55516Y-35259D01*
X55531Y-35274D01*
X55561Y-35289D01*
X55606Y-35289D01*
X55636Y-35274D01*
X55651Y-35259D01*
X55666Y-35229D01*
X55666Y-35109D01*
X55531Y-35409D02*
X55516Y-35424D01*
X55501Y-35454D01*
X55501Y-35529D01*
X55516Y-35559D01*
X55531Y-35574D01*
X55561Y-35589D01*
X55591Y-35589D01*
X55636Y-35574D01*
X55816Y-35394D01*
X55816Y-35589D01*
X55636Y-35769D02*
X55621Y-35739D01*
X55606Y-35724D01*
X55576Y-35709D01*
X55561Y-35709D01*
X55531Y-35724D01*
X55516Y-35739D01*
X55501Y-35769D01*
X55501Y-35829D01*
X55516Y-35859D01*
X55531Y-35874D01*
X55561Y-35889D01*
X55576Y-35889D01*
X55606Y-35874D01*
X55621Y-35859D01*
X55636Y-35829D01*
X55636Y-35769D01*
X55651Y-35739D01*
X55666Y-35724D01*
X55696Y-35709D01*
X55756Y-35709D01*
X55786Y-35724D01*
X55801Y-35739D01*
X55816Y-35769D01*
X55816Y-35829D01*
X55801Y-35859D01*
X55786Y-35874D01*
X55756Y-35889D01*
X55696Y-35889D01*
X55666Y-35874D01*
X55651Y-35859D01*
X55636Y-35829D01*
X53115Y-38021D02*
X53220Y-37871D01*
X53295Y-38021D02*
X53295Y-37706D01*
X53175Y-37706D01*
X53145Y-37721D01*
X53130Y-37736D01*
X53115Y-37766D01*
X53115Y-37811D01*
X53130Y-37841D01*
X53145Y-37856D01*
X53175Y-37871D01*
X53295Y-37871D01*
X52995Y-37736D02*
X52980Y-37721D01*
X52950Y-37706D01*
X52875Y-37706D01*
X52845Y-37721D01*
X52830Y-37736D01*
X52815Y-37766D01*
X52815Y-37796D01*
X52830Y-37841D01*
X53010Y-38021D01*
X52815Y-38021D01*
X52710Y-37706D02*
X52500Y-37706D01*
X52635Y-38021D01*
X52859Y-34202D02*
X52964Y-34052D01*
X53039Y-34202D02*
X53039Y-33887D01*
X52919Y-33887D01*
X52889Y-33902D01*
X52874Y-33917D01*
X52859Y-33947D01*
X52859Y-33992D01*
X52874Y-34022D01*
X52889Y-34037D01*
X52919Y-34052D01*
X53039Y-34052D01*
X52739Y-33917D02*
X52724Y-33902D01*
X52694Y-33887D01*
X52619Y-33887D01*
X52589Y-33902D01*
X52574Y-33917D01*
X52559Y-33947D01*
X52559Y-33977D01*
X52574Y-34022D01*
X52754Y-34202D01*
X52559Y-34202D01*
X52290Y-33887D02*
X52350Y-33887D01*
X52380Y-33902D01*
X52395Y-33917D01*
X52425Y-33962D01*
X52440Y-34022D01*
X52440Y-34142D01*
X52425Y-34172D01*
X52410Y-34187D01*
X52380Y-34202D01*
X52320Y-34202D01*
X52290Y-34187D01*
X52275Y-34172D01*
X52260Y-34142D01*
X52260Y-34067D01*
X52275Y-34037D01*
X52290Y-34022D01*
X52320Y-34007D01*
X52380Y-34007D01*
X52410Y-34022D01*
X52425Y-34037D01*
X52440Y-34067D01*
X50746Y-37863D02*
X50851Y-37713D01*
X50926Y-37863D02*
X50926Y-37548D01*
X50806Y-37548D01*
X50776Y-37563D01*
X50761Y-37578D01*
X50746Y-37608D01*
X50746Y-37653D01*
X50761Y-37683D01*
X50776Y-37698D01*
X50806Y-37713D01*
X50926Y-37713D01*
X50446Y-37863D02*
X50626Y-37863D01*
X50536Y-37863D02*
X50536Y-37548D01*
X50566Y-37593D01*
X50596Y-37623D01*
X50626Y-37638D01*
X50341Y-37548D02*
X50146Y-37548D01*
X50251Y-37668D01*
X50206Y-37668D01*
X50176Y-37683D01*
X50161Y-37698D01*
X50146Y-37728D01*
X50146Y-37803D01*
X50161Y-37833D01*
X50176Y-37848D01*
X50206Y-37863D01*
X50296Y-37863D01*
X50326Y-37848D01*
X50341Y-37833D01*
X49876Y-37653D02*
X49876Y-37863D01*
X49951Y-37533D02*
X50026Y-37758D01*
X49831Y-37758D01*
X53887Y-37120D02*
X53737Y-37015D01*
X53887Y-36940D02*
X53572Y-36940D01*
X53572Y-37060D01*
X53587Y-37090D01*
X53602Y-37105D01*
X53632Y-37120D01*
X53677Y-37120D01*
X53707Y-37105D01*
X53722Y-37090D01*
X53737Y-37060D01*
X53737Y-36940D01*
X53602Y-37240D02*
X53587Y-37255D01*
X53572Y-37285D01*
X53572Y-37360D01*
X53587Y-37390D01*
X53602Y-37405D01*
X53632Y-37420D01*
X53662Y-37420D01*
X53707Y-37405D01*
X53887Y-37225D01*
X53887Y-37420D01*
X53572Y-37705D02*
X53572Y-37555D01*
X53722Y-37540D01*
X53707Y-37555D01*
X53692Y-37585D01*
X53692Y-37660D01*
X53707Y-37690D01*
X53722Y-37705D01*
X53752Y-37720D01*
X53827Y-37720D01*
X53857Y-37705D01*
X53872Y-37690D01*
X53887Y-37660D01*
X53887Y-37585D01*
X53872Y-37555D01*
X53857Y-37540D01*
X61013Y-34246D02*
X60863Y-34141D01*
X61013Y-34066D02*
X60698Y-34066D01*
X60698Y-34186D01*
X60713Y-34216D01*
X60728Y-34231D01*
X60758Y-34246D01*
X60803Y-34246D01*
X60833Y-34231D01*
X60848Y-34216D01*
X60863Y-34186D01*
X60863Y-34066D01*
X60698Y-34516D02*
X60698Y-34456D01*
X60713Y-34426D01*
X60728Y-34411D01*
X60773Y-34381D01*
X60833Y-34366D01*
X60953Y-34366D01*
X60983Y-34381D01*
X60998Y-34396D01*
X61013Y-34426D01*
X61013Y-34486D01*
X60998Y-34516D01*
X60983Y-34531D01*
X60953Y-34546D01*
X60878Y-34546D01*
X60848Y-34531D01*
X60833Y-34516D01*
X60818Y-34486D01*
X60818Y-34426D01*
X60833Y-34396D01*
X60848Y-34381D01*
X60878Y-34366D01*
X61013Y-34696D02*
X61013Y-34756D01*
X60998Y-34786D01*
X60983Y-34801D01*
X60938Y-34831D01*
X60878Y-34846D01*
X60758Y-34846D01*
X60728Y-34831D01*
X60713Y-34816D01*
X60698Y-34786D01*
X60698Y-34726D01*
X60713Y-34696D01*
X60728Y-34681D01*
X60758Y-34666D01*
X60833Y-34666D01*
X60863Y-34681D01*
X60878Y-34696D01*
X60893Y-34726D01*
X60893Y-34786D01*
X60878Y-34816D01*
X60863Y-34831D01*
X60833Y-34846D01*
G54D10*
X61345Y-35505D02*
X61437Y-35374D01*
X61502Y-35505D02*
X61502Y-35229D01*
X61397Y-35229D01*
X61371Y-35242D01*
X61358Y-35255D01*
X61345Y-35282D01*
X61345Y-35321D01*
X61358Y-35347D01*
X61371Y-35360D01*
X61397Y-35374D01*
X61502Y-35374D01*
X61253Y-35229D02*
X61082Y-35229D01*
X61174Y-35334D01*
X61135Y-35334D01*
X61108Y-35347D01*
X61095Y-35360D01*
X61082Y-35387D01*
X61082Y-35452D01*
X61095Y-35479D01*
X61108Y-35492D01*
X61135Y-35505D01*
X61213Y-35505D01*
X61240Y-35492D01*
X61253Y-35479D01*
X59455Y-35761D02*
X59547Y-35629D01*
X59612Y-35761D02*
X59612Y-35485D01*
X59507Y-35485D01*
X59481Y-35498D01*
X59468Y-35511D01*
X59455Y-35538D01*
X59455Y-35577D01*
X59468Y-35603D01*
X59481Y-35616D01*
X59507Y-35629D01*
X59612Y-35629D01*
X59350Y-35511D02*
X59337Y-35498D01*
X59311Y-35485D01*
X59245Y-35485D01*
X59219Y-35498D01*
X59206Y-35511D01*
X59192Y-35538D01*
X59192Y-35564D01*
X59206Y-35603D01*
X59363Y-35761D01*
X59192Y-35761D01*
G54D18*
X59556Y-48321D02*
X59406Y-48216D01*
X59556Y-48141D02*
X59241Y-48141D01*
X59241Y-48261D01*
X59256Y-48291D01*
X59271Y-48306D01*
X59301Y-48321D01*
X59346Y-48321D01*
X59376Y-48306D01*
X59391Y-48291D01*
X59406Y-48261D01*
X59406Y-48141D01*
X59241Y-48591D02*
X59241Y-48531D01*
X59256Y-48501D01*
X59271Y-48486D01*
X59316Y-48456D01*
X59376Y-48441D01*
X59496Y-48441D01*
X59526Y-48456D01*
X59541Y-48471D01*
X59556Y-48501D01*
X59556Y-48561D01*
X59541Y-48591D01*
X59526Y-48606D01*
X59496Y-48621D01*
X59421Y-48621D01*
X59391Y-48606D01*
X59376Y-48591D01*
X59361Y-48561D01*
X59361Y-48501D01*
X59376Y-48471D01*
X59391Y-48456D01*
X59421Y-48441D01*
X59346Y-48891D02*
X59556Y-48891D01*
X59226Y-48816D02*
X59451Y-48741D01*
X59451Y-48936D01*
X60560Y-48321D02*
X60410Y-48216D01*
X60560Y-48141D02*
X60245Y-48141D01*
X60245Y-48261D01*
X60260Y-48291D01*
X60275Y-48306D01*
X60305Y-48321D01*
X60350Y-48321D01*
X60380Y-48306D01*
X60395Y-48291D01*
X60410Y-48261D01*
X60410Y-48141D01*
X60245Y-48606D02*
X60245Y-48456D01*
X60395Y-48441D01*
X60380Y-48456D01*
X60365Y-48486D01*
X60365Y-48561D01*
X60380Y-48591D01*
X60395Y-48606D01*
X60425Y-48621D01*
X60500Y-48621D01*
X60530Y-48606D01*
X60545Y-48591D01*
X60560Y-48561D01*
X60560Y-48486D01*
X60545Y-48456D01*
X60530Y-48441D01*
X60560Y-48771D02*
X60560Y-48831D01*
X60545Y-48861D01*
X60530Y-48876D01*
X60485Y-48906D01*
X60425Y-48921D01*
X60305Y-48921D01*
X60275Y-48906D01*
X60260Y-48891D01*
X60245Y-48861D01*
X60245Y-48801D01*
X60260Y-48771D01*
X60275Y-48756D01*
X60305Y-48741D01*
X60380Y-48741D01*
X60410Y-48756D01*
X60425Y-48771D01*
X60440Y-48801D01*
X60440Y-48861D01*
X60425Y-48891D01*
X60410Y-48906D01*
X60380Y-48921D01*
X61859Y-48321D02*
X61709Y-48216D01*
X61859Y-48141D02*
X61544Y-48141D01*
X61544Y-48261D01*
X61559Y-48291D01*
X61574Y-48306D01*
X61604Y-48321D01*
X61649Y-48321D01*
X61679Y-48306D01*
X61694Y-48291D01*
X61709Y-48261D01*
X61709Y-48141D01*
X61544Y-48591D02*
X61544Y-48531D01*
X61559Y-48501D01*
X61574Y-48486D01*
X61619Y-48456D01*
X61679Y-48441D01*
X61799Y-48441D01*
X61829Y-48456D01*
X61844Y-48471D01*
X61859Y-48501D01*
X61859Y-48561D01*
X61844Y-48591D01*
X61829Y-48606D01*
X61799Y-48621D01*
X61724Y-48621D01*
X61694Y-48606D01*
X61679Y-48591D01*
X61664Y-48561D01*
X61664Y-48501D01*
X61679Y-48471D01*
X61694Y-48456D01*
X61724Y-48441D01*
X61544Y-48816D02*
X61544Y-48846D01*
X61559Y-48876D01*
X61574Y-48891D01*
X61604Y-48906D01*
X61664Y-48921D01*
X61739Y-48921D01*
X61799Y-48906D01*
X61829Y-48891D01*
X61844Y-48876D01*
X61859Y-48846D01*
X61859Y-48816D01*
X61844Y-48786D01*
X61829Y-48771D01*
X61799Y-48756D01*
X61739Y-48741D01*
X61664Y-48741D01*
X61604Y-48756D01*
X61574Y-48771D01*
X61559Y-48786D01*
X61544Y-48816D01*
X62863Y-48321D02*
X62713Y-48216D01*
X62863Y-48141D02*
X62548Y-48141D01*
X62548Y-48261D01*
X62563Y-48291D01*
X62578Y-48306D01*
X62608Y-48321D01*
X62653Y-48321D01*
X62683Y-48306D01*
X62698Y-48291D01*
X62713Y-48261D01*
X62713Y-48141D01*
X62548Y-48591D02*
X62548Y-48531D01*
X62563Y-48501D01*
X62578Y-48486D01*
X62623Y-48456D01*
X62683Y-48441D01*
X62803Y-48441D01*
X62833Y-48456D01*
X62848Y-48471D01*
X62863Y-48501D01*
X62863Y-48561D01*
X62848Y-48591D01*
X62833Y-48606D01*
X62803Y-48621D01*
X62728Y-48621D01*
X62698Y-48606D01*
X62683Y-48591D01*
X62668Y-48561D01*
X62668Y-48501D01*
X62683Y-48471D01*
X62698Y-48456D01*
X62728Y-48441D01*
X62548Y-48726D02*
X62548Y-48921D01*
X62668Y-48816D01*
X62668Y-48861D01*
X62683Y-48891D01*
X62698Y-48906D01*
X62728Y-48921D01*
X62803Y-48921D01*
X62833Y-48906D01*
X62848Y-48891D01*
X62863Y-48861D01*
X62863Y-48771D01*
X62848Y-48741D01*
X62833Y-48726D01*
X57095Y-43274D02*
X56946Y-43169D01*
X57095Y-43094D02*
X56781Y-43094D01*
X56781Y-43214D01*
X56796Y-43244D01*
X56811Y-43259D01*
X56841Y-43274D01*
X56886Y-43274D01*
X56916Y-43259D01*
X56931Y-43244D01*
X56946Y-43214D01*
X56946Y-43094D01*
X57095Y-43424D02*
X57095Y-43484D01*
X57080Y-43514D01*
X57065Y-43529D01*
X57020Y-43559D01*
X56961Y-43574D01*
X56841Y-43574D01*
X56811Y-43559D01*
X56796Y-43544D01*
X56781Y-43514D01*
X56781Y-43454D01*
X56796Y-43424D01*
X56811Y-43409D01*
X56841Y-43394D01*
X56916Y-43394D01*
X56946Y-43409D01*
X56961Y-43424D01*
X56976Y-43454D01*
X56976Y-43514D01*
X56961Y-43544D01*
X56946Y-43559D01*
X56916Y-43574D01*
G54D10*
X58560Y-42604D02*
X58447Y-42525D01*
X58560Y-42469D02*
X58323Y-42469D01*
X58323Y-42559D01*
X58335Y-42581D01*
X58346Y-42592D01*
X58368Y-42604D01*
X58402Y-42604D01*
X58425Y-42592D01*
X58436Y-42581D01*
X58447Y-42559D01*
X58447Y-42469D01*
X58346Y-42694D02*
X58335Y-42705D01*
X58323Y-42727D01*
X58323Y-42784D01*
X58335Y-42806D01*
X58346Y-42817D01*
X58368Y-42829D01*
X58391Y-42829D01*
X58425Y-42817D01*
X58560Y-42682D01*
X58560Y-42829D01*
X58346Y-42919D02*
X58335Y-42930D01*
X58323Y-42952D01*
X58323Y-43008D01*
X58335Y-43031D01*
X58346Y-43042D01*
X58368Y-43053D01*
X58391Y-43053D01*
X58425Y-43042D01*
X58560Y-42907D01*
X58560Y-43053D01*
G54D18*
X54651Y-37588D02*
X54756Y-37438D01*
X54831Y-37588D02*
X54831Y-37273D01*
X54711Y-37273D01*
X54681Y-37288D01*
X54666Y-37303D01*
X54651Y-37333D01*
X54651Y-37378D01*
X54666Y-37408D01*
X54681Y-37423D01*
X54711Y-37438D01*
X54831Y-37438D01*
X54531Y-37303D02*
X54516Y-37288D01*
X54486Y-37273D01*
X54411Y-37273D01*
X54381Y-37288D01*
X54366Y-37303D01*
X54351Y-37333D01*
X54351Y-37363D01*
X54366Y-37408D01*
X54546Y-37588D01*
X54351Y-37588D01*
X54156Y-37273D02*
X54126Y-37273D01*
X54096Y-37288D01*
X54081Y-37303D01*
X54066Y-37333D01*
X54051Y-37393D01*
X54051Y-37468D01*
X54066Y-37528D01*
X54081Y-37558D01*
X54096Y-37573D01*
X54126Y-37588D01*
X54156Y-37588D01*
X54186Y-37573D01*
X54201Y-37558D01*
X54216Y-37528D01*
X54231Y-37468D01*
X54231Y-37393D01*
X54216Y-37333D01*
X54201Y-37303D01*
X54186Y-37288D01*
X54156Y-37273D01*
X55871Y-36938D02*
X55976Y-36788D01*
X56051Y-36938D02*
X56051Y-36623D01*
X55931Y-36623D01*
X55901Y-36638D01*
X55886Y-36653D01*
X55871Y-36683D01*
X55871Y-36728D01*
X55886Y-36758D01*
X55901Y-36773D01*
X55931Y-36788D01*
X56051Y-36788D01*
X55601Y-36728D02*
X55601Y-36938D01*
X55676Y-36608D02*
X55751Y-36833D01*
X55556Y-36833D01*
X55376Y-36623D02*
X55346Y-36623D01*
X55316Y-36638D01*
X55301Y-36653D01*
X55286Y-36683D01*
X55271Y-36743D01*
X55271Y-36818D01*
X55286Y-36878D01*
X55301Y-36908D01*
X55316Y-36923D01*
X55346Y-36938D01*
X55376Y-36938D01*
X55406Y-36923D01*
X55421Y-36908D01*
X55436Y-36878D01*
X55451Y-36818D01*
X55451Y-36743D01*
X55436Y-36683D01*
X55421Y-36653D01*
X55406Y-36638D01*
X55376Y-36623D01*
G54D10*
X59642Y-36816D02*
X59530Y-36737D01*
X59642Y-36681D02*
X59406Y-36681D01*
X59406Y-36771D01*
X59417Y-36794D01*
X59429Y-36805D01*
X59451Y-36816D01*
X59485Y-36816D01*
X59507Y-36805D01*
X59519Y-36794D01*
X59530Y-36771D01*
X59530Y-36681D01*
X59429Y-36906D02*
X59417Y-36917D01*
X59406Y-36940D01*
X59406Y-36996D01*
X59417Y-37019D01*
X59429Y-37030D01*
X59451Y-37041D01*
X59474Y-37041D01*
X59507Y-37030D01*
X59642Y-36895D01*
X59642Y-37041D01*
X59642Y-37266D02*
X59642Y-37131D01*
X59642Y-37199D02*
X59406Y-37199D01*
X59440Y-37176D01*
X59462Y-37154D01*
X59474Y-37131D01*
G54D18*
X59655Y-43104D02*
X59505Y-42999D01*
X59655Y-42924D02*
X59340Y-42924D01*
X59340Y-43044D01*
X59355Y-43074D01*
X59370Y-43089D01*
X59400Y-43104D01*
X59445Y-43104D01*
X59475Y-43089D01*
X59490Y-43074D01*
X59505Y-43044D01*
X59505Y-42924D01*
X59655Y-43404D02*
X59655Y-43224D01*
X59655Y-43314D02*
X59340Y-43314D01*
X59385Y-43284D01*
X59415Y-43254D01*
X59430Y-43224D01*
X59655Y-43554D02*
X59655Y-43614D01*
X59640Y-43644D01*
X59625Y-43659D01*
X59580Y-43689D01*
X59520Y-43704D01*
X59400Y-43704D01*
X59370Y-43689D01*
X59355Y-43674D01*
X59340Y-43644D01*
X59340Y-43584D01*
X59355Y-43554D01*
X59370Y-43539D01*
X59400Y-43524D01*
X59475Y-43524D01*
X59505Y-43539D01*
X59520Y-43554D01*
X59535Y-43584D01*
X59535Y-43644D01*
X59520Y-43674D01*
X59505Y-43689D01*
X59475Y-43704D01*
X61678Y-41997D02*
X61783Y-41847D01*
X61858Y-41997D02*
X61858Y-41682D01*
X61738Y-41682D01*
X61708Y-41697D01*
X61693Y-41712D01*
X61678Y-41742D01*
X61678Y-41787D01*
X61693Y-41817D01*
X61708Y-41832D01*
X61738Y-41847D01*
X61858Y-41847D01*
X61378Y-41997D02*
X61558Y-41997D01*
X61468Y-41997D02*
X61468Y-41682D01*
X61498Y-41727D01*
X61528Y-41757D01*
X61558Y-41772D01*
X61198Y-41817D02*
X61228Y-41802D01*
X61243Y-41787D01*
X61258Y-41757D01*
X61258Y-41742D01*
X61243Y-41712D01*
X61228Y-41697D01*
X61198Y-41682D01*
X61138Y-41682D01*
X61108Y-41697D01*
X61093Y-41712D01*
X61078Y-41742D01*
X61078Y-41757D01*
X61093Y-41787D01*
X61108Y-41802D01*
X61138Y-41817D01*
X61198Y-41817D01*
X61228Y-41832D01*
X61243Y-41847D01*
X61258Y-41877D01*
X61258Y-41937D01*
X61243Y-41967D01*
X61228Y-41982D01*
X61198Y-41997D01*
X61138Y-41997D01*
X61108Y-41982D01*
X61093Y-41967D01*
X61078Y-41937D01*
X61078Y-41877D01*
X61093Y-41847D01*
X61108Y-41832D01*
X61138Y-41817D01*
G54D10*
X62460Y-39599D02*
X62552Y-39468D01*
X62618Y-39599D02*
X62618Y-39324D01*
X62513Y-39324D01*
X62486Y-39337D01*
X62473Y-39350D01*
X62460Y-39376D01*
X62460Y-39416D01*
X62473Y-39442D01*
X62486Y-39455D01*
X62513Y-39468D01*
X62618Y-39468D01*
X62198Y-39599D02*
X62355Y-39599D01*
X62276Y-39599D02*
X62276Y-39324D01*
X62303Y-39363D01*
X62329Y-39389D01*
X62355Y-39402D01*
X62093Y-39350D02*
X62080Y-39337D01*
X62053Y-39324D01*
X61988Y-39324D01*
X61961Y-39337D01*
X61948Y-39350D01*
X61935Y-39376D01*
X61935Y-39402D01*
X61948Y-39442D01*
X62106Y-39599D01*
X61935Y-39599D01*
X58969Y-36870D02*
X58838Y-36778D01*
X58969Y-36712D02*
X58694Y-36712D01*
X58694Y-36817D01*
X58707Y-36843D01*
X58720Y-36856D01*
X58746Y-36870D01*
X58786Y-36870D01*
X58812Y-36856D01*
X58825Y-36843D01*
X58838Y-36817D01*
X58838Y-36712D01*
X58969Y-37132D02*
X58969Y-36975D01*
X58969Y-37053D02*
X58694Y-37053D01*
X58733Y-37027D01*
X58759Y-37001D01*
X58772Y-36975D01*
X58694Y-37381D02*
X58694Y-37250D01*
X58825Y-37237D01*
X58812Y-37250D01*
X58799Y-37276D01*
X58799Y-37342D01*
X58812Y-37368D01*
X58825Y-37381D01*
X58851Y-37395D01*
X58917Y-37395D01*
X58943Y-37381D01*
X58956Y-37368D01*
X58969Y-37342D01*
X58969Y-37276D01*
X58956Y-37250D01*
X58943Y-37237D01*
X60745Y-39204D02*
X60632Y-39125D01*
X60745Y-39069D02*
X60508Y-39069D01*
X60508Y-39159D01*
X60520Y-39181D01*
X60531Y-39192D01*
X60553Y-39204D01*
X60587Y-39204D01*
X60610Y-39192D01*
X60621Y-39181D01*
X60632Y-39159D01*
X60632Y-39069D01*
X60745Y-39429D02*
X60745Y-39294D01*
X60745Y-39361D02*
X60508Y-39361D01*
X60542Y-39339D01*
X60565Y-39316D01*
X60576Y-39294D01*
X60508Y-39507D02*
X60508Y-39654D01*
X60598Y-39575D01*
X60598Y-39609D01*
X60610Y-39631D01*
X60621Y-39642D01*
X60643Y-39654D01*
X60700Y-39654D01*
X60722Y-39642D01*
X60733Y-39631D01*
X60745Y-39609D01*
X60745Y-39541D01*
X60733Y-39519D01*
X60722Y-39507D01*
X60745Y-39766D02*
X60745Y-39811D01*
X60733Y-39834D01*
X60722Y-39845D01*
X60688Y-39867D01*
X60643Y-39879D01*
X60553Y-39879D01*
X60531Y-39867D01*
X60520Y-39856D01*
X60508Y-39834D01*
X60508Y-39789D01*
X60520Y-39766D01*
X60531Y-39755D01*
X60553Y-39744D01*
X60610Y-39744D01*
X60632Y-39755D01*
X60643Y-39766D01*
X60655Y-39789D01*
X60655Y-39834D01*
X60643Y-39856D01*
X60632Y-39867D01*
X60610Y-39879D01*
X60303Y-40174D02*
X60382Y-40061D01*
X60438Y-40174D02*
X60438Y-39938D01*
X60348Y-39938D01*
X60326Y-39949D01*
X60314Y-39960D01*
X60303Y-39983D01*
X60303Y-40016D01*
X60314Y-40039D01*
X60326Y-40050D01*
X60348Y-40061D01*
X60438Y-40061D01*
X60078Y-40174D02*
X60213Y-40174D01*
X60146Y-40174D02*
X60146Y-39938D01*
X60168Y-39971D01*
X60191Y-39994D01*
X60213Y-40005D01*
X59876Y-39938D02*
X59921Y-39938D01*
X59943Y-39949D01*
X59955Y-39960D01*
X59977Y-39994D01*
X59988Y-40039D01*
X59988Y-40129D01*
X59977Y-40151D01*
X59966Y-40163D01*
X59943Y-40174D01*
X59898Y-40174D01*
X59876Y-40163D01*
X59865Y-40151D01*
X59853Y-40129D01*
X59853Y-40073D01*
X59865Y-40050D01*
X59876Y-40039D01*
X59898Y-40028D01*
X59943Y-40028D01*
X59966Y-40039D01*
X59977Y-40050D01*
X59988Y-40073D01*
X59651Y-40016D02*
X59651Y-40174D01*
X59707Y-39926D02*
X59763Y-40095D01*
X59617Y-40095D01*
X62500Y-40485D02*
X62591Y-40354D01*
X62657Y-40485D02*
X62657Y-40209D01*
X62552Y-40209D01*
X62526Y-40223D01*
X62513Y-40236D01*
X62500Y-40262D01*
X62500Y-40301D01*
X62513Y-40328D01*
X62526Y-40341D01*
X62552Y-40354D01*
X62657Y-40354D01*
X62408Y-40209D02*
X62237Y-40209D01*
X62329Y-40314D01*
X62290Y-40314D01*
X62263Y-40328D01*
X62250Y-40341D01*
X62237Y-40367D01*
X62237Y-40433D01*
X62250Y-40459D01*
X62263Y-40472D01*
X62290Y-40485D01*
X62368Y-40485D01*
X62395Y-40472D01*
X62408Y-40459D01*
X62145Y-40209D02*
X61961Y-40209D01*
X62080Y-40485D01*
G54D18*
X62631Y-41544D02*
X62736Y-41394D01*
X62811Y-41544D02*
X62811Y-41229D01*
X62691Y-41229D01*
X62661Y-41244D01*
X62646Y-41259D01*
X62631Y-41289D01*
X62631Y-41334D01*
X62646Y-41364D01*
X62661Y-41379D01*
X62691Y-41394D01*
X62811Y-41394D01*
X62361Y-41229D02*
X62421Y-41229D01*
X62451Y-41244D01*
X62466Y-41259D01*
X62496Y-41304D01*
X62511Y-41364D01*
X62511Y-41484D01*
X62496Y-41514D01*
X62481Y-41529D01*
X62451Y-41544D01*
X62391Y-41544D01*
X62361Y-41529D01*
X62346Y-41514D01*
X62331Y-41484D01*
X62331Y-41409D01*
X62346Y-41379D01*
X62361Y-41364D01*
X62391Y-41349D01*
X62451Y-41349D01*
X62481Y-41364D01*
X62496Y-41379D01*
X62511Y-41409D01*
X56682Y-43293D02*
X56532Y-43188D01*
X56682Y-43113D02*
X56367Y-43113D01*
X56367Y-43233D01*
X56382Y-43263D01*
X56397Y-43278D01*
X56427Y-43293D01*
X56472Y-43293D01*
X56502Y-43278D01*
X56517Y-43263D01*
X56532Y-43233D01*
X56532Y-43113D01*
X56367Y-43398D02*
X56367Y-43608D01*
X56682Y-43473D01*
G54D10*
X60833Y-38143D02*
X60925Y-38011D01*
X60990Y-38143D02*
X60990Y-37867D01*
X60885Y-37867D01*
X60859Y-37880D01*
X60846Y-37893D01*
X60833Y-37919D01*
X60833Y-37959D01*
X60846Y-37985D01*
X60859Y-37998D01*
X60885Y-38011D01*
X60990Y-38011D01*
X60675Y-37985D02*
X60702Y-37972D01*
X60715Y-37959D01*
X60728Y-37933D01*
X60728Y-37919D01*
X60715Y-37893D01*
X60702Y-37880D01*
X60675Y-37867D01*
X60623Y-37867D01*
X60597Y-37880D01*
X60583Y-37893D01*
X60570Y-37919D01*
X60570Y-37933D01*
X60583Y-37959D01*
X60597Y-37972D01*
X60623Y-37985D01*
X60675Y-37985D01*
X60702Y-37998D01*
X60715Y-38011D01*
X60728Y-38038D01*
X60728Y-38090D01*
X60715Y-38116D01*
X60702Y-38129D01*
X60675Y-38143D01*
X60623Y-38143D01*
X60597Y-38129D01*
X60583Y-38116D01*
X60570Y-38090D01*
X60570Y-38038D01*
X60583Y-38011D01*
X60597Y-37998D01*
X60623Y-37985D01*
G54D18*
X53115Y-36800D02*
X53220Y-36650D01*
X53295Y-36800D02*
X53295Y-36485D01*
X53175Y-36485D01*
X53145Y-36500D01*
X53130Y-36515D01*
X53115Y-36545D01*
X53115Y-36590D01*
X53130Y-36620D01*
X53145Y-36635D01*
X53175Y-36650D01*
X53295Y-36650D01*
X52965Y-36800D02*
X52905Y-36800D01*
X52875Y-36785D01*
X52860Y-36770D01*
X52830Y-36725D01*
X52815Y-36665D01*
X52815Y-36545D01*
X52830Y-36515D01*
X52845Y-36500D01*
X52875Y-36485D01*
X52935Y-36485D01*
X52965Y-36500D01*
X52980Y-36515D01*
X52995Y-36545D01*
X52995Y-36620D01*
X52980Y-36650D01*
X52965Y-36665D01*
X52935Y-36680D01*
X52875Y-36680D01*
X52845Y-36665D01*
X52830Y-36650D01*
X52815Y-36620D01*
X52635Y-36620D02*
X52665Y-36605D01*
X52680Y-36590D01*
X52695Y-36560D01*
X52695Y-36545D01*
X52680Y-36515D01*
X52665Y-36500D01*
X52635Y-36485D01*
X52575Y-36485D01*
X52545Y-36500D01*
X52530Y-36515D01*
X52515Y-36545D01*
X52515Y-36560D01*
X52530Y-36590D01*
X52545Y-36605D01*
X52575Y-36620D01*
X52635Y-36620D01*
X52665Y-36635D01*
X52680Y-36650D01*
X52695Y-36680D01*
X52695Y-36740D01*
X52680Y-36770D01*
X52665Y-36785D01*
X52635Y-36800D01*
X52575Y-36800D01*
X52545Y-36785D01*
X52530Y-36770D01*
X52515Y-36740D01*
X52515Y-36680D01*
X52530Y-36650D01*
X52545Y-36635D01*
X52575Y-36620D01*
X60560Y-42769D02*
X60410Y-42664D01*
X60560Y-42589D02*
X60245Y-42589D01*
X60245Y-42709D01*
X60260Y-42739D01*
X60275Y-42754D01*
X60305Y-42769D01*
X60350Y-42769D01*
X60380Y-42754D01*
X60395Y-42739D01*
X60410Y-42709D01*
X60410Y-42589D01*
X60245Y-42874D02*
X60245Y-43084D01*
X60560Y-42949D01*
X60350Y-43339D02*
X60560Y-43339D01*
X60230Y-43264D02*
X60455Y-43189D01*
X60455Y-43384D01*
X62210Y-43395D02*
X62315Y-43245D01*
X62390Y-43395D02*
X62390Y-43080D01*
X62270Y-43080D01*
X62240Y-43095D01*
X62225Y-43110D01*
X62210Y-43140D01*
X62210Y-43185D01*
X62225Y-43215D01*
X62240Y-43230D01*
X62270Y-43245D01*
X62390Y-43245D01*
X61910Y-43395D02*
X62090Y-43395D01*
X62000Y-43395D02*
X62000Y-43080D01*
X62030Y-43125D01*
X62060Y-43155D01*
X62090Y-43170D01*
X61715Y-43080D02*
X61685Y-43080D01*
X61655Y-43095D01*
X61640Y-43110D01*
X61625Y-43140D01*
X61610Y-43200D01*
X61610Y-43275D01*
X61625Y-43335D01*
X61640Y-43365D01*
X61655Y-43380D01*
X61685Y-43395D01*
X61715Y-43395D01*
X61745Y-43380D01*
X61760Y-43365D01*
X61775Y-43335D01*
X61790Y-43275D01*
X61790Y-43200D01*
X61775Y-43140D01*
X61760Y-43110D01*
X61745Y-43095D01*
X61715Y-43080D01*
G54D10*
X62322Y-37276D02*
X62414Y-37145D01*
X62480Y-37276D02*
X62480Y-37001D01*
X62375Y-37001D01*
X62349Y-37014D01*
X62335Y-37027D01*
X62322Y-37053D01*
X62322Y-37093D01*
X62335Y-37119D01*
X62349Y-37132D01*
X62375Y-37145D01*
X62480Y-37145D01*
X62230Y-37001D02*
X62047Y-37001D01*
X62165Y-37276D01*
X61811Y-37001D02*
X61942Y-37001D01*
X61955Y-37132D01*
X61942Y-37119D01*
X61916Y-37106D01*
X61850Y-37106D01*
X61824Y-37119D01*
X61811Y-37132D01*
X61797Y-37158D01*
X61797Y-37224D01*
X61811Y-37250D01*
X61824Y-37263D01*
X61850Y-37276D01*
X61916Y-37276D01*
X61942Y-37263D01*
X61955Y-37250D01*
X62060Y-37500D02*
X61929Y-37408D01*
X62060Y-37342D02*
X61784Y-37342D01*
X61784Y-37447D01*
X61797Y-37473D01*
X61811Y-37486D01*
X61837Y-37500D01*
X61876Y-37500D01*
X61902Y-37486D01*
X61916Y-37473D01*
X61929Y-37447D01*
X61929Y-37342D01*
X62060Y-37762D02*
X62060Y-37604D01*
X62060Y-37683D02*
X61784Y-37683D01*
X61824Y-37657D01*
X61850Y-37631D01*
X61863Y-37604D01*
X62060Y-38024D02*
X62060Y-37867D01*
X62060Y-37946D02*
X61784Y-37946D01*
X61824Y-37919D01*
X61850Y-37893D01*
X61863Y-37867D01*
G54D18*
X57903Y-43321D02*
X57753Y-43216D01*
X57903Y-43141D02*
X57588Y-43141D01*
X57588Y-43261D01*
X57603Y-43291D01*
X57618Y-43306D01*
X57648Y-43321D01*
X57693Y-43321D01*
X57723Y-43306D01*
X57738Y-43291D01*
X57753Y-43261D01*
X57753Y-43141D01*
X57903Y-43621D02*
X57903Y-43441D01*
X57903Y-43531D02*
X57588Y-43531D01*
X57633Y-43501D01*
X57663Y-43471D01*
X57678Y-43441D01*
X57588Y-43726D02*
X57588Y-43921D01*
X57708Y-43816D01*
X57708Y-43861D01*
X57723Y-43891D01*
X57738Y-43906D01*
X57768Y-43921D01*
X57843Y-43921D01*
X57873Y-43906D01*
X57888Y-43891D01*
X57903Y-43861D01*
X57903Y-43771D01*
X57888Y-43741D01*
X57873Y-43726D01*
G54D10*
X62480Y-39973D02*
X62572Y-39842D01*
X62637Y-39973D02*
X62637Y-39698D01*
X62532Y-39698D01*
X62506Y-39711D01*
X62493Y-39724D01*
X62480Y-39750D01*
X62480Y-39790D01*
X62493Y-39816D01*
X62506Y-39829D01*
X62532Y-39842D01*
X62637Y-39842D01*
X62322Y-39816D02*
X62349Y-39803D01*
X62362Y-39790D01*
X62375Y-39763D01*
X62375Y-39750D01*
X62362Y-39724D01*
X62349Y-39711D01*
X62322Y-39698D01*
X62270Y-39698D01*
X62244Y-39711D01*
X62230Y-39724D01*
X62217Y-39750D01*
X62217Y-39763D01*
X62230Y-39790D01*
X62244Y-39803D01*
X62270Y-39816D01*
X62322Y-39816D01*
X62349Y-39829D01*
X62362Y-39842D01*
X62375Y-39868D01*
X62375Y-39921D01*
X62362Y-39947D01*
X62349Y-39960D01*
X62322Y-39973D01*
X62270Y-39973D01*
X62244Y-39960D01*
X62230Y-39947D01*
X62217Y-39921D01*
X62217Y-39868D01*
X62230Y-39842D01*
X62244Y-39829D01*
X62270Y-39816D01*
X62125Y-39698D02*
X61942Y-39698D01*
X62060Y-39973D01*
G54D18*
X54871Y-38478D02*
X54721Y-38373D01*
X54871Y-38298D02*
X54556Y-38298D01*
X54556Y-38418D01*
X54571Y-38448D01*
X54586Y-38463D01*
X54616Y-38478D01*
X54661Y-38478D01*
X54691Y-38463D01*
X54706Y-38448D01*
X54721Y-38418D01*
X54721Y-38298D01*
X54661Y-38748D02*
X54871Y-38748D01*
X54541Y-38673D02*
X54766Y-38598D01*
X54766Y-38793D01*
X54586Y-38898D02*
X54571Y-38913D01*
X54556Y-38943D01*
X54556Y-39018D01*
X54571Y-39048D01*
X54586Y-39063D01*
X54616Y-39078D01*
X54646Y-39078D01*
X54691Y-39063D01*
X54871Y-38883D01*
X54871Y-39078D01*
X55836Y-43840D02*
X55686Y-43735D01*
X55836Y-43660D02*
X55521Y-43660D01*
X55521Y-43780D01*
X55536Y-43810D01*
X55551Y-43825D01*
X55581Y-43840D01*
X55626Y-43840D01*
X55656Y-43825D01*
X55671Y-43810D01*
X55686Y-43780D01*
X55686Y-43660D01*
X55836Y-44140D02*
X55836Y-43960D01*
X55836Y-44050D02*
X55521Y-44050D01*
X55566Y-44020D01*
X55596Y-43990D01*
X55611Y-43960D01*
X55521Y-44425D02*
X55521Y-44275D01*
X55671Y-44260D01*
X55656Y-44275D01*
X55641Y-44305D01*
X55641Y-44380D01*
X55656Y-44410D01*
X55671Y-44425D01*
X55701Y-44440D01*
X55776Y-44440D01*
X55806Y-44425D01*
X55821Y-44410D01*
X55836Y-44380D01*
X55836Y-44305D01*
X55821Y-44275D01*
X55806Y-44260D01*
X55521Y-44545D02*
X55521Y-44740D01*
X55641Y-44635D01*
X55641Y-44680D01*
X55656Y-44710D01*
X55671Y-44725D01*
X55701Y-44740D01*
X55776Y-44740D01*
X55806Y-44725D01*
X55821Y-44710D01*
X55836Y-44680D01*
X55836Y-44590D01*
X55821Y-44560D01*
X55806Y-44545D01*
X50615Y-34812D02*
X50720Y-34662D01*
X50795Y-34812D02*
X50795Y-34497D01*
X50675Y-34497D01*
X50645Y-34512D01*
X50630Y-34527D01*
X50615Y-34557D01*
X50615Y-34602D01*
X50630Y-34632D01*
X50645Y-34647D01*
X50675Y-34662D01*
X50795Y-34662D01*
X50435Y-34632D02*
X50465Y-34617D01*
X50480Y-34602D01*
X50495Y-34572D01*
X50495Y-34557D01*
X50480Y-34527D01*
X50465Y-34512D01*
X50435Y-34497D01*
X50375Y-34497D01*
X50345Y-34512D01*
X50330Y-34527D01*
X50315Y-34557D01*
X50315Y-34572D01*
X50330Y-34602D01*
X50345Y-34617D01*
X50375Y-34632D01*
X50435Y-34632D01*
X50465Y-34647D01*
X50480Y-34662D01*
X50495Y-34692D01*
X50495Y-34752D01*
X50480Y-34782D01*
X50465Y-34797D01*
X50435Y-34812D01*
X50375Y-34812D01*
X50345Y-34797D01*
X50330Y-34782D01*
X50315Y-34752D01*
X50315Y-34692D01*
X50330Y-34662D01*
X50345Y-34647D01*
X50375Y-34632D01*
X50210Y-34497D02*
X50015Y-34497D01*
X50120Y-34617D01*
X50075Y-34617D01*
X50045Y-34632D01*
X50030Y-34647D01*
X50015Y-34677D01*
X50015Y-34752D01*
X50030Y-34782D01*
X50045Y-34797D01*
X50075Y-34812D01*
X50165Y-34812D01*
X50195Y-34797D01*
X50210Y-34782D01*
X50615Y-35265D02*
X50720Y-35115D01*
X50795Y-35265D02*
X50795Y-34950D01*
X50675Y-34950D01*
X50645Y-34965D01*
X50630Y-34980D01*
X50615Y-35010D01*
X50615Y-35055D01*
X50630Y-35085D01*
X50645Y-35100D01*
X50675Y-35115D01*
X50795Y-35115D01*
X50495Y-34980D02*
X50480Y-34965D01*
X50450Y-34950D01*
X50375Y-34950D01*
X50345Y-34965D01*
X50330Y-34980D01*
X50315Y-35010D01*
X50315Y-35040D01*
X50330Y-35085D01*
X50510Y-35265D01*
X50315Y-35265D01*
X50045Y-35055D02*
X50045Y-35265D01*
X50120Y-34935D02*
X50195Y-35160D01*
X50000Y-35160D01*
X53115Y-37607D02*
X53220Y-37457D01*
X53295Y-37607D02*
X53295Y-37292D01*
X53175Y-37292D01*
X53145Y-37307D01*
X53130Y-37322D01*
X53115Y-37352D01*
X53115Y-37397D01*
X53130Y-37427D01*
X53145Y-37442D01*
X53175Y-37457D01*
X53295Y-37457D01*
X52935Y-37427D02*
X52965Y-37412D01*
X52980Y-37397D01*
X52995Y-37367D01*
X52995Y-37352D01*
X52980Y-37322D01*
X52965Y-37307D01*
X52935Y-37292D01*
X52875Y-37292D01*
X52845Y-37307D01*
X52830Y-37322D01*
X52815Y-37352D01*
X52815Y-37367D01*
X52830Y-37397D01*
X52845Y-37412D01*
X52875Y-37427D01*
X52935Y-37427D01*
X52965Y-37442D01*
X52980Y-37457D01*
X52995Y-37487D01*
X52995Y-37547D01*
X52980Y-37577D01*
X52965Y-37592D01*
X52935Y-37607D01*
X52875Y-37607D01*
X52845Y-37592D01*
X52830Y-37577D01*
X52815Y-37547D01*
X52815Y-37487D01*
X52830Y-37457D01*
X52845Y-37442D01*
X52875Y-37427D01*
X52530Y-37292D02*
X52680Y-37292D01*
X52695Y-37442D01*
X52680Y-37427D01*
X52650Y-37412D01*
X52575Y-37412D01*
X52545Y-37427D01*
X52530Y-37442D01*
X52515Y-37472D01*
X52515Y-37547D01*
X52530Y-37577D01*
X52545Y-37592D01*
X52575Y-37607D01*
X52650Y-37607D01*
X52680Y-37592D01*
X52695Y-37577D01*
X50726Y-36997D02*
X50831Y-36847D01*
X50906Y-36997D02*
X50906Y-36682D01*
X50786Y-36682D01*
X50756Y-36697D01*
X50741Y-36712D01*
X50726Y-36742D01*
X50726Y-36787D01*
X50741Y-36817D01*
X50756Y-36832D01*
X50786Y-36847D01*
X50906Y-36847D01*
X50426Y-36997D02*
X50606Y-36997D01*
X50516Y-36997D02*
X50516Y-36682D01*
X50546Y-36727D01*
X50576Y-36757D01*
X50606Y-36772D01*
X50321Y-36682D02*
X50126Y-36682D01*
X50231Y-36802D01*
X50186Y-36802D01*
X50156Y-36817D01*
X50141Y-36832D01*
X50126Y-36862D01*
X50126Y-36937D01*
X50141Y-36967D01*
X50156Y-36982D01*
X50186Y-36997D01*
X50276Y-36997D01*
X50306Y-36982D01*
X50321Y-36967D01*
X50021Y-36682D02*
X49826Y-36682D01*
X49931Y-36802D01*
X49886Y-36802D01*
X49856Y-36817D01*
X49841Y-36832D01*
X49826Y-36862D01*
X49826Y-36937D01*
X49841Y-36967D01*
X49856Y-36982D01*
X49886Y-36997D01*
X49976Y-36997D01*
X50006Y-36982D01*
X50021Y-36967D01*
G54D10*
X52927Y-36434D02*
X53006Y-36321D01*
X53062Y-36434D02*
X53062Y-36197D01*
X52972Y-36197D01*
X52949Y-36209D01*
X52938Y-36220D01*
X52927Y-36242D01*
X52927Y-36276D01*
X52938Y-36299D01*
X52949Y-36310D01*
X52972Y-36321D01*
X53062Y-36321D01*
X52814Y-36434D02*
X52769Y-36434D01*
X52747Y-36422D01*
X52736Y-36411D01*
X52713Y-36377D01*
X52702Y-36332D01*
X52702Y-36242D01*
X52713Y-36220D01*
X52724Y-36209D01*
X52747Y-36197D01*
X52792Y-36197D01*
X52814Y-36209D01*
X52826Y-36220D01*
X52837Y-36242D01*
X52837Y-36299D01*
X52826Y-36321D01*
X52814Y-36332D01*
X52792Y-36344D01*
X52747Y-36344D01*
X52724Y-36332D01*
X52713Y-36321D01*
X52702Y-36299D01*
X52500Y-36276D02*
X52500Y-36434D01*
X52556Y-36186D02*
X52612Y-36355D01*
X52466Y-36355D01*
G54D18*
X59060Y-45462D02*
X59165Y-45312D01*
X59240Y-45462D02*
X59240Y-45147D01*
X59120Y-45147D01*
X59090Y-45162D01*
X59075Y-45177D01*
X59060Y-45207D01*
X59060Y-45252D01*
X59075Y-45282D01*
X59090Y-45297D01*
X59120Y-45312D01*
X59240Y-45312D01*
X58955Y-45147D02*
X58760Y-45147D01*
X58865Y-45267D01*
X58820Y-45267D01*
X58790Y-45282D01*
X58775Y-45297D01*
X58760Y-45327D01*
X58760Y-45402D01*
X58775Y-45432D01*
X58790Y-45447D01*
X58820Y-45462D01*
X58910Y-45462D01*
X58940Y-45447D01*
X58955Y-45432D01*
X58475Y-45147D02*
X58625Y-45147D01*
X58640Y-45297D01*
X58625Y-45282D01*
X58595Y-45267D01*
X58520Y-45267D01*
X58490Y-45282D01*
X58475Y-45297D01*
X58460Y-45327D01*
X58460Y-45402D01*
X58475Y-45432D01*
X58490Y-45447D01*
X58520Y-45462D01*
X58595Y-45462D01*
X58625Y-45447D01*
X58640Y-45432D01*
X57371Y-44797D02*
X57221Y-44692D01*
X57371Y-44617D02*
X57056Y-44617D01*
X57056Y-44737D01*
X57071Y-44767D01*
X57086Y-44782D01*
X57116Y-44797D01*
X57161Y-44797D01*
X57191Y-44782D01*
X57206Y-44767D01*
X57221Y-44737D01*
X57221Y-44617D01*
X57056Y-44902D02*
X57056Y-45097D01*
X57176Y-44992D01*
X57176Y-45037D01*
X57191Y-45067D01*
X57206Y-45082D01*
X57236Y-45097D01*
X57311Y-45097D01*
X57341Y-45082D01*
X57356Y-45067D01*
X57371Y-45037D01*
X57371Y-44947D01*
X57356Y-44917D01*
X57341Y-44902D01*
X57056Y-45367D02*
X57056Y-45307D01*
X57071Y-45277D01*
X57086Y-45262D01*
X57131Y-45232D01*
X57191Y-45217D01*
X57311Y-45217D01*
X57341Y-45232D01*
X57356Y-45247D01*
X57371Y-45277D01*
X57371Y-45337D01*
X57356Y-45367D01*
X57341Y-45382D01*
X57311Y-45397D01*
X57236Y-45397D01*
X57206Y-45382D01*
X57191Y-45367D01*
X57176Y-45337D01*
X57176Y-45277D01*
X57191Y-45247D01*
X57206Y-45232D01*
X57236Y-45217D01*
G54D10*
X61745Y-36482D02*
X61758Y-36496D01*
X61797Y-36509D01*
X61824Y-36509D01*
X61863Y-36496D01*
X61889Y-36469D01*
X61902Y-36443D01*
X61916Y-36391D01*
X61916Y-36351D01*
X61902Y-36299D01*
X61889Y-36272D01*
X61863Y-36246D01*
X61824Y-36233D01*
X61797Y-36233D01*
X61758Y-36246D01*
X61745Y-36259D01*
X61640Y-36259D02*
X61627Y-36246D01*
X61601Y-36233D01*
X61535Y-36233D01*
X61509Y-36246D01*
X61496Y-36259D01*
X61482Y-36286D01*
X61482Y-36312D01*
X61496Y-36351D01*
X61653Y-36509D01*
X61482Y-36509D01*
X61377Y-36259D02*
X61364Y-36246D01*
X61338Y-36233D01*
X61272Y-36233D01*
X61246Y-36246D01*
X61233Y-36259D01*
X61220Y-36286D01*
X61220Y-36312D01*
X61233Y-36351D01*
X61391Y-36509D01*
X61220Y-36509D01*
X61128Y-36233D02*
X60958Y-36233D01*
X61049Y-36338D01*
X61010Y-36338D01*
X60984Y-36351D01*
X60971Y-36364D01*
X60958Y-36391D01*
X60958Y-36456D01*
X60971Y-36482D01*
X60984Y-36496D01*
X61010Y-36509D01*
X61089Y-36509D01*
X61115Y-36496D01*
X61128Y-36482D01*
G54D18*
X51560Y-46691D02*
X51575Y-46706D01*
X51620Y-46721D01*
X51650Y-46721D01*
X51695Y-46706D01*
X51725Y-46676D01*
X51740Y-46646D01*
X51755Y-46586D01*
X51755Y-46541D01*
X51740Y-46482D01*
X51725Y-46452D01*
X51695Y-46422D01*
X51650Y-46407D01*
X51620Y-46407D01*
X51575Y-46422D01*
X51560Y-46437D01*
X51275Y-46407D02*
X51425Y-46407D01*
X51440Y-46556D01*
X51425Y-46541D01*
X51395Y-46526D01*
X51320Y-46526D01*
X51290Y-46541D01*
X51275Y-46556D01*
X51260Y-46586D01*
X51260Y-46661D01*
X51275Y-46691D01*
X51290Y-46706D01*
X51320Y-46721D01*
X51395Y-46721D01*
X51425Y-46706D01*
X51440Y-46691D01*
X51140Y-46437D02*
X51125Y-46422D01*
X51095Y-46407D01*
X51020Y-46407D01*
X50990Y-46422D01*
X50975Y-46437D01*
X50960Y-46467D01*
X50960Y-46497D01*
X50975Y-46541D01*
X51155Y-46721D01*
X50960Y-46721D01*
X54887Y-43266D02*
X54902Y-43281D01*
X54947Y-43296D01*
X54977Y-43296D01*
X55022Y-43281D01*
X55052Y-43251D01*
X55067Y-43221D01*
X55082Y-43161D01*
X55082Y-43116D01*
X55067Y-43056D01*
X55052Y-43026D01*
X55022Y-42996D01*
X54977Y-42981D01*
X54947Y-42981D01*
X54902Y-42996D01*
X54887Y-43011D01*
X54767Y-43011D02*
X54752Y-42996D01*
X54722Y-42981D01*
X54647Y-42981D01*
X54617Y-42996D01*
X54602Y-43011D01*
X54587Y-43041D01*
X54587Y-43071D01*
X54602Y-43116D01*
X54782Y-43296D01*
X54587Y-43296D01*
X54317Y-43086D02*
X54317Y-43296D01*
X54392Y-42966D02*
X54467Y-43191D01*
X54272Y-43191D01*
X62635Y-42932D02*
X62650Y-42947D01*
X62695Y-42962D01*
X62725Y-42962D01*
X62770Y-42947D01*
X62800Y-42917D01*
X62815Y-42887D01*
X62830Y-42827D01*
X62830Y-42782D01*
X62815Y-42722D01*
X62800Y-42692D01*
X62770Y-42662D01*
X62725Y-42647D01*
X62695Y-42647D01*
X62650Y-42662D01*
X62635Y-42677D01*
X62515Y-42677D02*
X62500Y-42662D01*
X62470Y-42647D01*
X62395Y-42647D01*
X62365Y-42662D01*
X62350Y-42677D01*
X62335Y-42707D01*
X62335Y-42737D01*
X62350Y-42782D01*
X62530Y-42962D01*
X62335Y-42962D01*
X62215Y-42677D02*
X62200Y-42662D01*
X62170Y-42647D01*
X62095Y-42647D01*
X62065Y-42662D01*
X62050Y-42677D01*
X62035Y-42707D01*
X62035Y-42737D01*
X62050Y-42782D01*
X62230Y-42962D01*
X62035Y-42962D01*
X61916Y-42677D02*
X61901Y-42662D01*
X61871Y-42647D01*
X61796Y-42647D01*
X61766Y-42662D01*
X61751Y-42677D01*
X61736Y-42707D01*
X61736Y-42737D01*
X61751Y-42782D01*
X61931Y-42962D01*
X61736Y-42962D01*
X58227Y-48525D02*
X58242Y-48510D01*
X58257Y-48465D01*
X58257Y-48435D01*
X58242Y-48390D01*
X58212Y-48360D01*
X58182Y-48345D01*
X58122Y-48330D01*
X58077Y-48330D01*
X58017Y-48345D01*
X57987Y-48360D01*
X57957Y-48390D01*
X57942Y-48435D01*
X57942Y-48465D01*
X57957Y-48510D01*
X57972Y-48525D01*
X58257Y-48825D02*
X58257Y-48645D01*
X58257Y-48735D02*
X57942Y-48735D01*
X57987Y-48705D01*
X58017Y-48675D01*
X58032Y-48645D01*
X58047Y-49095D02*
X58257Y-49095D01*
X57927Y-49020D02*
X58152Y-48945D01*
X58152Y-49140D01*
X58047Y-49395D02*
X58257Y-49395D01*
X57927Y-49320D02*
X58152Y-49245D01*
X58152Y-49440D01*
X53922Y-45766D02*
X53937Y-45781D01*
X53982Y-45796D01*
X54012Y-45796D01*
X54057Y-45781D01*
X54087Y-45751D01*
X54102Y-45721D01*
X54117Y-45661D01*
X54117Y-45616D01*
X54102Y-45556D01*
X54087Y-45526D01*
X54057Y-45496D01*
X54012Y-45481D01*
X53982Y-45481D01*
X53937Y-45496D01*
X53922Y-45511D01*
X53802Y-45511D02*
X53787Y-45496D01*
X53757Y-45481D01*
X53682Y-45481D01*
X53652Y-45496D01*
X53637Y-45511D01*
X53622Y-45541D01*
X53622Y-45571D01*
X53637Y-45616D01*
X53817Y-45796D01*
X53622Y-45796D01*
X53517Y-45481D02*
X53323Y-45481D01*
X53428Y-45601D01*
X53383Y-45601D01*
X53353Y-45616D01*
X53338Y-45631D01*
X53323Y-45661D01*
X53323Y-45736D01*
X53338Y-45766D01*
X53353Y-45781D01*
X53383Y-45796D01*
X53473Y-45796D01*
X53502Y-45781D01*
X53517Y-45766D01*
X55491Y-47730D02*
X55506Y-47715D01*
X55521Y-47670D01*
X55521Y-47640D01*
X55506Y-47595D01*
X55476Y-47565D01*
X55446Y-47550D01*
X55386Y-47535D01*
X55341Y-47535D01*
X55281Y-47550D01*
X55251Y-47565D01*
X55221Y-47595D01*
X55206Y-47640D01*
X55206Y-47670D01*
X55221Y-47715D01*
X55236Y-47730D01*
X55236Y-47850D02*
X55221Y-47865D01*
X55206Y-47895D01*
X55206Y-47970D01*
X55221Y-48000D01*
X55236Y-48015D01*
X55266Y-48030D01*
X55296Y-48030D01*
X55341Y-48015D01*
X55521Y-47835D01*
X55521Y-48030D01*
X55236Y-48150D02*
X55221Y-48165D01*
X55206Y-48195D01*
X55206Y-48270D01*
X55221Y-48300D01*
X55236Y-48315D01*
X55266Y-48330D01*
X55296Y-48330D01*
X55341Y-48315D01*
X55521Y-48135D01*
X55521Y-48330D01*
X57419Y-45963D02*
X57434Y-45978D01*
X57479Y-45993D01*
X57509Y-45993D01*
X57554Y-45978D01*
X57584Y-45948D01*
X57599Y-45918D01*
X57614Y-45858D01*
X57614Y-45813D01*
X57599Y-45753D01*
X57584Y-45723D01*
X57554Y-45693D01*
X57509Y-45678D01*
X57479Y-45678D01*
X57434Y-45693D01*
X57419Y-45708D01*
X57119Y-45993D02*
X57299Y-45993D01*
X57209Y-45993D02*
X57209Y-45678D01*
X57239Y-45723D01*
X57269Y-45753D01*
X57299Y-45768D01*
X56819Y-45993D02*
X56999Y-45993D01*
X56909Y-45993D02*
X56909Y-45678D01*
X56939Y-45723D01*
X56969Y-45753D01*
X56999Y-45768D01*
X56714Y-45678D02*
X56504Y-45678D01*
X56639Y-45993D01*
X59210Y-47597D02*
X59225Y-47612D01*
X59270Y-47627D01*
X59300Y-47627D01*
X59345Y-47612D01*
X59375Y-47582D01*
X59390Y-47552D01*
X59405Y-47492D01*
X59405Y-47447D01*
X59390Y-47387D01*
X59375Y-47357D01*
X59345Y-47327D01*
X59300Y-47312D01*
X59270Y-47312D01*
X59225Y-47327D01*
X59210Y-47342D01*
X58910Y-47627D02*
X59090Y-47627D01*
X59000Y-47627D02*
X59000Y-47312D01*
X59030Y-47357D01*
X59060Y-47387D01*
X59090Y-47402D01*
X58790Y-47342D02*
X58775Y-47327D01*
X58745Y-47312D01*
X58670Y-47312D01*
X58640Y-47327D01*
X58625Y-47342D01*
X58610Y-47372D01*
X58610Y-47402D01*
X58625Y-47447D01*
X58805Y-47627D01*
X58610Y-47627D01*
X58490Y-47342D02*
X58475Y-47327D01*
X58445Y-47312D01*
X58370Y-47312D01*
X58340Y-47327D01*
X58325Y-47342D01*
X58310Y-47372D01*
X58310Y-47402D01*
X58325Y-47447D01*
X58505Y-47627D01*
X58310Y-47627D01*
G54D10*
X62171Y-40793D02*
X62185Y-40780D01*
X62198Y-40741D01*
X62198Y-40715D01*
X62185Y-40675D01*
X62158Y-40649D01*
X62132Y-40636D01*
X62080Y-40623D01*
X62040Y-40623D01*
X61988Y-40636D01*
X61961Y-40649D01*
X61935Y-40675D01*
X61922Y-40715D01*
X61922Y-40741D01*
X61935Y-40780D01*
X61948Y-40793D01*
X61948Y-40898D02*
X61935Y-40912D01*
X61922Y-40938D01*
X61922Y-41003D01*
X61935Y-41030D01*
X61948Y-41043D01*
X61975Y-41056D01*
X62001Y-41056D01*
X62040Y-41043D01*
X62198Y-40885D01*
X62198Y-41056D01*
X62198Y-41318D02*
X62198Y-41161D01*
X62198Y-41240D02*
X61922Y-41240D01*
X61961Y-41213D01*
X61988Y-41187D01*
X62001Y-41161D01*
X62198Y-41450D02*
X62198Y-41502D01*
X62185Y-41528D01*
X62171Y-41541D01*
X62132Y-41568D01*
X62080Y-41581D01*
X61975Y-41581D01*
X61948Y-41568D01*
X61935Y-41555D01*
X61922Y-41528D01*
X61922Y-41476D01*
X61935Y-41450D01*
X61948Y-41437D01*
X61975Y-41423D01*
X62040Y-41423D01*
X62066Y-41437D01*
X62080Y-41450D01*
X62093Y-41476D01*
X62093Y-41528D01*
X62080Y-41555D01*
X62066Y-41568D01*
X62040Y-41581D01*
X61155Y-39204D02*
X61167Y-39192D01*
X61178Y-39159D01*
X61178Y-39136D01*
X61167Y-39102D01*
X61144Y-39080D01*
X61122Y-39069D01*
X61077Y-39057D01*
X61043Y-39057D01*
X60998Y-39069D01*
X60975Y-39080D01*
X60953Y-39102D01*
X60942Y-39136D01*
X60942Y-39159D01*
X60953Y-39192D01*
X60964Y-39204D01*
X60964Y-39294D02*
X60953Y-39305D01*
X60942Y-39327D01*
X60942Y-39384D01*
X60953Y-39406D01*
X60964Y-39417D01*
X60987Y-39429D01*
X61009Y-39429D01*
X61043Y-39417D01*
X61178Y-39282D01*
X61178Y-39429D01*
X60964Y-39519D02*
X60953Y-39530D01*
X60942Y-39552D01*
X60942Y-39609D01*
X60953Y-39631D01*
X60964Y-39642D01*
X60987Y-39654D01*
X61009Y-39654D01*
X61043Y-39642D01*
X61178Y-39507D01*
X61178Y-39654D01*
X61020Y-39856D02*
X61178Y-39856D01*
X60930Y-39800D02*
X61099Y-39744D01*
X61099Y-39890D01*
G54D18*
X60648Y-40781D02*
X60663Y-40766D01*
X60678Y-40721D01*
X60678Y-40691D01*
X60663Y-40646D01*
X60633Y-40616D01*
X60603Y-40601D01*
X60543Y-40586D01*
X60498Y-40586D01*
X60438Y-40601D01*
X60408Y-40616D01*
X60378Y-40646D01*
X60363Y-40691D01*
X60363Y-40721D01*
X60378Y-40766D01*
X60393Y-40781D01*
X60363Y-41066D02*
X60363Y-40916D01*
X60513Y-40901D01*
X60498Y-40916D01*
X60483Y-40946D01*
X60483Y-41021D01*
X60498Y-41051D01*
X60513Y-41066D01*
X60543Y-41081D01*
X60618Y-41081D01*
X60648Y-41066D01*
X60663Y-41051D01*
X60678Y-41021D01*
X60678Y-40946D01*
X60663Y-40916D01*
X60648Y-40901D01*
X60363Y-41186D02*
X60363Y-41381D01*
X60483Y-41276D01*
X60483Y-41321D01*
X60498Y-41351D01*
X60513Y-41366D01*
X60543Y-41381D01*
X60618Y-41381D01*
X60648Y-41366D01*
X60663Y-41351D01*
X60678Y-41321D01*
X60678Y-41231D01*
X60663Y-41201D01*
X60648Y-41186D01*
G54D10*
X61732Y-38923D02*
X61745Y-38937D01*
X61784Y-38950D01*
X61811Y-38950D01*
X61850Y-38937D01*
X61876Y-38910D01*
X61889Y-38884D01*
X61902Y-38832D01*
X61902Y-38792D01*
X61889Y-38740D01*
X61876Y-38713D01*
X61850Y-38687D01*
X61811Y-38674D01*
X61784Y-38674D01*
X61745Y-38687D01*
X61732Y-38700D01*
X61482Y-38674D02*
X61614Y-38674D01*
X61627Y-38805D01*
X61614Y-38792D01*
X61587Y-38779D01*
X61522Y-38779D01*
X61496Y-38792D01*
X61482Y-38805D01*
X61469Y-38832D01*
X61469Y-38897D01*
X61482Y-38923D01*
X61496Y-38937D01*
X61522Y-38950D01*
X61587Y-38950D01*
X61614Y-38937D01*
X61627Y-38923D01*
X61220Y-38674D02*
X61351Y-38674D01*
X61364Y-38805D01*
X61351Y-38792D01*
X61325Y-38779D01*
X61259Y-38779D01*
X61233Y-38792D01*
X61220Y-38805D01*
X61207Y-38832D01*
X61207Y-38897D01*
X61220Y-38923D01*
X61233Y-38937D01*
X61259Y-38950D01*
X61325Y-38950D01*
X61351Y-38937D01*
X61364Y-38923D01*
G54D18*
X56317Y-41337D02*
X56332Y-41352D01*
X56377Y-41367D01*
X56407Y-41367D01*
X56452Y-41352D01*
X56482Y-41322D01*
X56497Y-41292D01*
X56511Y-41232D01*
X56511Y-41187D01*
X56497Y-41127D01*
X56482Y-41097D01*
X56452Y-41067D01*
X56407Y-41052D01*
X56377Y-41052D01*
X56332Y-41067D01*
X56317Y-41082D01*
X56197Y-41082D02*
X56182Y-41067D01*
X56152Y-41052D01*
X56077Y-41052D01*
X56047Y-41067D01*
X56032Y-41082D01*
X56017Y-41112D01*
X56017Y-41142D01*
X56032Y-41187D01*
X56212Y-41367D01*
X56017Y-41367D01*
X55717Y-41367D02*
X55897Y-41367D01*
X55807Y-41367D02*
X55807Y-41052D01*
X55837Y-41097D01*
X55867Y-41127D01*
X55897Y-41142D01*
X55537Y-41187D02*
X55567Y-41172D01*
X55582Y-41157D01*
X55597Y-41127D01*
X55597Y-41112D01*
X55582Y-41082D01*
X55567Y-41067D01*
X55537Y-41052D01*
X55477Y-41052D01*
X55447Y-41067D01*
X55432Y-41082D01*
X55417Y-41112D01*
X55417Y-41127D01*
X55432Y-41157D01*
X55447Y-41172D01*
X55477Y-41187D01*
X55537Y-41187D01*
X55567Y-41202D01*
X55582Y-41217D01*
X55597Y-41247D01*
X55597Y-41307D01*
X55582Y-41337D01*
X55567Y-41352D01*
X55537Y-41367D01*
X55477Y-41367D01*
X55447Y-41352D01*
X55432Y-41337D01*
X55417Y-41307D01*
X55417Y-41247D01*
X55432Y-41217D01*
X55447Y-41202D01*
X55477Y-41187D01*
G54D10*
X61981Y-38569D02*
X61994Y-38582D01*
X62034Y-38595D01*
X62060Y-38595D01*
X62099Y-38582D01*
X62125Y-38556D01*
X62139Y-38530D01*
X62152Y-38477D01*
X62152Y-38438D01*
X62139Y-38385D01*
X62125Y-38359D01*
X62099Y-38333D01*
X62060Y-38320D01*
X62034Y-38320D01*
X61994Y-38333D01*
X61981Y-38346D01*
X61876Y-38346D02*
X61863Y-38333D01*
X61837Y-38320D01*
X61771Y-38320D01*
X61745Y-38333D01*
X61732Y-38346D01*
X61719Y-38372D01*
X61719Y-38398D01*
X61732Y-38438D01*
X61889Y-38595D01*
X61719Y-38595D01*
X61614Y-38346D02*
X61601Y-38333D01*
X61574Y-38320D01*
X61509Y-38320D01*
X61482Y-38333D01*
X61469Y-38346D01*
X61456Y-38372D01*
X61456Y-38398D01*
X61469Y-38438D01*
X61627Y-38595D01*
X61456Y-38595D01*
X61286Y-38320D02*
X61259Y-38320D01*
X61233Y-38333D01*
X61220Y-38346D01*
X61207Y-38372D01*
X61194Y-38425D01*
X61194Y-38490D01*
X61207Y-38543D01*
X61220Y-38569D01*
X61233Y-38582D01*
X61259Y-38595D01*
X61286Y-38595D01*
X61312Y-38582D01*
X61325Y-38569D01*
X61338Y-38543D01*
X61351Y-38490D01*
X61351Y-38425D01*
X61338Y-38372D01*
X61325Y-38346D01*
X61312Y-38333D01*
X61286Y-38320D01*
G54D18*
X56706Y-41987D02*
X56721Y-42002D01*
X56766Y-42017D01*
X56796Y-42017D01*
X56841Y-42002D01*
X56871Y-41972D01*
X56886Y-41942D01*
X56901Y-41882D01*
X56901Y-41837D01*
X56886Y-41777D01*
X56871Y-41747D01*
X56841Y-41717D01*
X56796Y-41702D01*
X56766Y-41702D01*
X56721Y-41717D01*
X56706Y-41732D01*
X56406Y-42017D02*
X56586Y-42017D01*
X56496Y-42017D02*
X56496Y-41702D01*
X56526Y-41747D01*
X56556Y-41777D01*
X56586Y-41792D01*
X55943Y-46635D02*
X55958Y-46620D01*
X55973Y-46575D01*
X55973Y-46545D01*
X55958Y-46500D01*
X55928Y-46470D01*
X55898Y-46455D01*
X55838Y-46440D01*
X55793Y-46440D01*
X55733Y-46455D01*
X55703Y-46470D01*
X55673Y-46500D01*
X55658Y-46545D01*
X55658Y-46575D01*
X55673Y-46620D01*
X55688Y-46635D01*
X55973Y-46935D02*
X55973Y-46755D01*
X55973Y-46845D02*
X55658Y-46845D01*
X55703Y-46815D01*
X55733Y-46785D01*
X55748Y-46755D01*
X55658Y-47040D02*
X55658Y-47235D01*
X55778Y-47130D01*
X55778Y-47175D01*
X55793Y-47205D01*
X55808Y-47220D01*
X55838Y-47235D01*
X55913Y-47235D01*
X55943Y-47220D01*
X55958Y-47205D01*
X55973Y-47175D01*
X55973Y-47085D01*
X55958Y-47055D01*
X55943Y-47040D01*
X55658Y-47505D02*
X55658Y-47445D01*
X55673Y-47415D01*
X55688Y-47400D01*
X55733Y-47370D01*
X55793Y-47355D01*
X55913Y-47355D01*
X55943Y-47370D01*
X55958Y-47385D01*
X55973Y-47415D01*
X55973Y-47475D01*
X55958Y-47505D01*
X55943Y-47520D01*
X55913Y-47535D01*
X55838Y-47535D01*
X55808Y-47520D01*
X55793Y-47505D01*
X55778Y-47475D01*
X55778Y-47415D01*
X55793Y-47385D01*
X55808Y-47370D01*
X55838Y-47355D01*
G54D10*
X56548Y-38864D02*
X56561Y-38877D01*
X56601Y-38891D01*
X56627Y-38891D01*
X56666Y-38877D01*
X56692Y-38851D01*
X56706Y-38825D01*
X56719Y-38772D01*
X56719Y-38733D01*
X56706Y-38681D01*
X56692Y-38654D01*
X56666Y-38628D01*
X56627Y-38615D01*
X56601Y-38615D01*
X56561Y-38628D01*
X56548Y-38641D01*
X56286Y-38891D02*
X56443Y-38891D01*
X56364Y-38891D02*
X56364Y-38615D01*
X56391Y-38654D01*
X56417Y-38681D01*
X56443Y-38694D01*
X56023Y-38891D02*
X56181Y-38891D01*
X56102Y-38891D02*
X56102Y-38615D01*
X56128Y-38654D01*
X56154Y-38681D01*
X56181Y-38694D01*
X55853Y-38615D02*
X55826Y-38615D01*
X55800Y-38628D01*
X55787Y-38641D01*
X55774Y-38667D01*
X55761Y-38720D01*
X55761Y-38786D01*
X55774Y-38838D01*
X55787Y-38864D01*
X55800Y-38877D01*
X55826Y-38891D01*
X55853Y-38891D01*
X55879Y-38877D01*
X55892Y-38864D01*
X55905Y-38838D01*
X55918Y-38786D01*
X55918Y-38720D01*
X55905Y-38667D01*
X55892Y-38641D01*
X55879Y-38628D01*
X55853Y-38615D01*
G54D18*
X57459Y-42769D02*
X57474Y-42754D01*
X57489Y-42709D01*
X57489Y-42679D01*
X57474Y-42634D01*
X57444Y-42604D01*
X57414Y-42589D01*
X57354Y-42574D01*
X57309Y-42574D01*
X57249Y-42589D01*
X57219Y-42604D01*
X57189Y-42634D01*
X57174Y-42679D01*
X57174Y-42709D01*
X57189Y-42754D01*
X57204Y-42769D01*
X57489Y-43069D02*
X57489Y-42889D01*
X57489Y-42979D02*
X57174Y-42979D01*
X57219Y-42949D01*
X57249Y-42919D01*
X57264Y-42889D01*
X57489Y-43219D02*
X57489Y-43279D01*
X57474Y-43309D01*
X57459Y-43324D01*
X57414Y-43354D01*
X57354Y-43369D01*
X57234Y-43369D01*
X57204Y-43354D01*
X57189Y-43339D01*
X57174Y-43309D01*
X57174Y-43249D01*
X57189Y-43219D01*
X57204Y-43204D01*
X57234Y-43189D01*
X57309Y-43189D01*
X57339Y-43204D01*
X57354Y-43219D01*
X57369Y-43249D01*
X57369Y-43309D01*
X57354Y-43339D01*
X57339Y-43354D01*
X57309Y-43369D01*
G54D10*
X53517Y-35919D02*
X53529Y-35930D01*
X53562Y-35942D01*
X53585Y-35942D01*
X53619Y-35930D01*
X53641Y-35908D01*
X53652Y-35885D01*
X53664Y-35840D01*
X53664Y-35807D01*
X53652Y-35762D01*
X53641Y-35739D01*
X53619Y-35717D01*
X53585Y-35705D01*
X53562Y-35705D01*
X53529Y-35717D01*
X53517Y-35728D01*
X53293Y-35942D02*
X53428Y-35942D01*
X53360Y-35942D02*
X53360Y-35705D01*
X53383Y-35739D01*
X53405Y-35762D01*
X53428Y-35773D01*
X53203Y-35728D02*
X53191Y-35717D01*
X53169Y-35705D01*
X53113Y-35705D01*
X53090Y-35717D01*
X53079Y-35728D01*
X53068Y-35750D01*
X53068Y-35773D01*
X53079Y-35807D01*
X53214Y-35942D01*
X53068Y-35942D01*
X60774Y-35354D02*
X60787Y-35341D01*
X60800Y-35301D01*
X60800Y-35275D01*
X60787Y-35236D01*
X60761Y-35209D01*
X60734Y-35196D01*
X60682Y-35183D01*
X60643Y-35183D01*
X60590Y-35196D01*
X60564Y-35209D01*
X60538Y-35236D01*
X60524Y-35275D01*
X60524Y-35301D01*
X60538Y-35341D01*
X60551Y-35354D01*
X60524Y-35446D02*
X60524Y-35629D01*
X60800Y-35511D01*
X60524Y-35866D02*
X60524Y-35734D01*
X60656Y-35721D01*
X60643Y-35734D01*
X60629Y-35761D01*
X60629Y-35826D01*
X60643Y-35853D01*
X60656Y-35866D01*
X60682Y-35879D01*
X60748Y-35879D01*
X60774Y-35866D01*
X60787Y-35853D01*
X60800Y-35826D01*
X60800Y-35761D01*
X60787Y-35734D01*
X60774Y-35721D01*
X59836Y-36588D02*
X59848Y-36600D01*
X59881Y-36611D01*
X59904Y-36611D01*
X59938Y-36600D01*
X59960Y-36577D01*
X59971Y-36555D01*
X59983Y-36510D01*
X59983Y-36476D01*
X59971Y-36431D01*
X59960Y-36408D01*
X59938Y-36386D01*
X59904Y-36375D01*
X59881Y-36375D01*
X59848Y-36386D01*
X59836Y-36397D01*
X59758Y-36375D02*
X59600Y-36375D01*
X59701Y-36611D01*
X59409Y-36453D02*
X59409Y-36611D01*
X59465Y-36363D02*
X59521Y-36532D01*
X59375Y-36532D01*
X60604Y-36608D02*
X60615Y-36619D01*
X60649Y-36631D01*
X60672Y-36631D01*
X60705Y-36619D01*
X60728Y-36597D01*
X60739Y-36574D01*
X60750Y-36529D01*
X60750Y-36496D01*
X60739Y-36451D01*
X60728Y-36428D01*
X60705Y-36406D01*
X60672Y-36394D01*
X60649Y-36394D01*
X60615Y-36406D01*
X60604Y-36417D01*
X60525Y-36394D02*
X60368Y-36394D01*
X60469Y-36631D01*
X60177Y-36394D02*
X60222Y-36394D01*
X60244Y-36406D01*
X60255Y-36417D01*
X60278Y-36451D01*
X60289Y-36496D01*
X60289Y-36586D01*
X60278Y-36608D01*
X60267Y-36619D01*
X60244Y-36631D01*
X60199Y-36631D01*
X60177Y-36619D01*
X60165Y-36608D01*
X60154Y-36586D01*
X60154Y-36529D01*
X60165Y-36507D01*
X60177Y-36496D01*
X60199Y-36484D01*
X60244Y-36484D01*
X60267Y-36496D01*
X60278Y-36507D01*
X60289Y-36529D01*
G54D18*
X61777Y-44487D02*
X61792Y-44502D01*
X61837Y-44517D01*
X61867Y-44517D01*
X61912Y-44502D01*
X61942Y-44472D01*
X61957Y-44442D01*
X61972Y-44382D01*
X61972Y-44337D01*
X61957Y-44277D01*
X61942Y-44247D01*
X61912Y-44217D01*
X61867Y-44202D01*
X61837Y-44202D01*
X61792Y-44217D01*
X61777Y-44232D01*
X61597Y-44337D02*
X61627Y-44322D01*
X61642Y-44307D01*
X61657Y-44277D01*
X61657Y-44262D01*
X61642Y-44232D01*
X61627Y-44217D01*
X61597Y-44202D01*
X61537Y-44202D01*
X61507Y-44217D01*
X61492Y-44232D01*
X61477Y-44262D01*
X61477Y-44277D01*
X61492Y-44307D01*
X61507Y-44322D01*
X61537Y-44337D01*
X61597Y-44337D01*
X61627Y-44352D01*
X61642Y-44367D01*
X61657Y-44397D01*
X61657Y-44457D01*
X61642Y-44487D01*
X61627Y-44502D01*
X61597Y-44517D01*
X61537Y-44517D01*
X61507Y-44502D01*
X61492Y-44487D01*
X61477Y-44457D01*
X61477Y-44397D01*
X61492Y-44367D01*
X61507Y-44352D01*
X61537Y-44337D01*
X61192Y-44202D02*
X61342Y-44202D01*
X61357Y-44352D01*
X61342Y-44337D01*
X61312Y-44322D01*
X61237Y-44322D01*
X61207Y-44337D01*
X61192Y-44352D01*
X61177Y-44382D01*
X61177Y-44457D01*
X61192Y-44487D01*
X61207Y-44502D01*
X61237Y-44517D01*
X61312Y-44517D01*
X61342Y-44502D01*
X61357Y-44487D01*
X61029Y-45471D02*
X61044Y-45486D01*
X61089Y-45501D01*
X61119Y-45501D01*
X61164Y-45486D01*
X61194Y-45456D01*
X61209Y-45426D01*
X61224Y-45366D01*
X61224Y-45321D01*
X61209Y-45261D01*
X61194Y-45231D01*
X61164Y-45201D01*
X61119Y-45186D01*
X61089Y-45186D01*
X61044Y-45201D01*
X61029Y-45216D01*
X60849Y-45321D02*
X60879Y-45306D01*
X60894Y-45291D01*
X60909Y-45261D01*
X60909Y-45246D01*
X60894Y-45216D01*
X60879Y-45201D01*
X60849Y-45186D01*
X60789Y-45186D01*
X60759Y-45201D01*
X60744Y-45216D01*
X60729Y-45246D01*
X60729Y-45261D01*
X60744Y-45291D01*
X60759Y-45306D01*
X60789Y-45321D01*
X60849Y-45321D01*
X60879Y-45336D01*
X60894Y-45351D01*
X60909Y-45381D01*
X60909Y-45441D01*
X60894Y-45471D01*
X60879Y-45486D01*
X60849Y-45501D01*
X60789Y-45501D01*
X60759Y-45486D01*
X60744Y-45471D01*
X60729Y-45441D01*
X60729Y-45381D01*
X60744Y-45351D01*
X60759Y-45336D01*
X60789Y-45321D01*
X60459Y-45291D02*
X60459Y-45501D01*
X60534Y-45171D02*
X60609Y-45396D01*
X60414Y-45396D01*
G54D10*
X59364Y-41383D02*
X59375Y-41372D01*
X59386Y-41338D01*
X59386Y-41316D01*
X59375Y-41282D01*
X59353Y-41259D01*
X59330Y-41248D01*
X59285Y-41237D01*
X59251Y-41237D01*
X59206Y-41248D01*
X59184Y-41259D01*
X59161Y-41282D01*
X59150Y-41316D01*
X59150Y-41338D01*
X59161Y-41372D01*
X59173Y-41383D01*
X59386Y-41608D02*
X59386Y-41473D01*
X59386Y-41541D02*
X59150Y-41541D01*
X59184Y-41518D01*
X59206Y-41496D01*
X59218Y-41473D01*
X59150Y-41754D02*
X59150Y-41777D01*
X59161Y-41799D01*
X59173Y-41811D01*
X59195Y-41822D01*
X59240Y-41833D01*
X59296Y-41833D01*
X59341Y-41822D01*
X59364Y-41811D01*
X59375Y-41799D01*
X59386Y-41777D01*
X59386Y-41754D01*
X59375Y-41732D01*
X59364Y-41721D01*
X59341Y-41709D01*
X59296Y-41698D01*
X59240Y-41698D01*
X59195Y-41709D01*
X59173Y-41721D01*
X59161Y-41732D01*
X59150Y-41754D01*
G54D18*
X55235Y-36017D02*
X55250Y-36002D01*
X55265Y-35958D01*
X55265Y-35928D01*
X55250Y-35883D01*
X55220Y-35853D01*
X55190Y-35838D01*
X55130Y-35823D01*
X55085Y-35823D01*
X55025Y-35838D01*
X54995Y-35853D01*
X54965Y-35883D01*
X54950Y-35928D01*
X54950Y-35958D01*
X54965Y-36002D01*
X54980Y-36017D01*
X54980Y-36137D02*
X54965Y-36152D01*
X54950Y-36182D01*
X54950Y-36257D01*
X54965Y-36287D01*
X54980Y-36302D01*
X55010Y-36317D01*
X55040Y-36317D01*
X55085Y-36302D01*
X55265Y-36122D01*
X55265Y-36317D01*
X54950Y-36512D02*
X54950Y-36542D01*
X54965Y-36572D01*
X54980Y-36587D01*
X55010Y-36602D01*
X55070Y-36617D01*
X55145Y-36617D01*
X55205Y-36602D01*
X55235Y-36587D01*
X55250Y-36572D01*
X55265Y-36542D01*
X55265Y-36512D01*
X55250Y-36482D01*
X55235Y-36467D01*
X55205Y-36452D01*
X55145Y-36437D01*
X55070Y-36437D01*
X55010Y-36452D01*
X54980Y-36467D01*
X54965Y-36482D01*
X54950Y-36512D01*
X57912Y-42093D02*
X57927Y-42078D01*
X57942Y-42033D01*
X57942Y-42003D01*
X57927Y-41958D01*
X57897Y-41928D01*
X57867Y-41913D01*
X57807Y-41898D01*
X57762Y-41898D01*
X57702Y-41913D01*
X57672Y-41928D01*
X57642Y-41958D01*
X57627Y-42003D01*
X57627Y-42033D01*
X57642Y-42078D01*
X57657Y-42093D01*
X57657Y-42213D02*
X57642Y-42228D01*
X57627Y-42258D01*
X57627Y-42333D01*
X57642Y-42363D01*
X57657Y-42378D01*
X57687Y-42393D01*
X57717Y-42393D01*
X57762Y-42378D01*
X57942Y-42198D01*
X57942Y-42393D01*
G54D10*
X57238Y-41369D02*
X57249Y-41358D01*
X57260Y-41324D01*
X57260Y-41302D01*
X57249Y-41268D01*
X57227Y-41245D01*
X57204Y-41234D01*
X57159Y-41223D01*
X57125Y-41223D01*
X57080Y-41234D01*
X57058Y-41245D01*
X57035Y-41268D01*
X57024Y-41302D01*
X57024Y-41324D01*
X57035Y-41358D01*
X57047Y-41369D01*
X57260Y-41594D02*
X57260Y-41459D01*
X57260Y-41526D02*
X57024Y-41526D01*
X57058Y-41504D01*
X57080Y-41482D01*
X57092Y-41459D01*
X57260Y-41819D02*
X57260Y-41684D01*
X57260Y-41751D02*
X57024Y-41751D01*
X57058Y-41729D01*
X57080Y-41706D01*
X57092Y-41684D01*
X57260Y-42044D02*
X57260Y-41909D01*
X57260Y-41976D02*
X57024Y-41976D01*
X57058Y-41954D01*
X57080Y-41931D01*
X57092Y-41909D01*
X59699Y-39625D02*
X59710Y-39614D01*
X59721Y-39580D01*
X59721Y-39558D01*
X59710Y-39524D01*
X59687Y-39502D01*
X59665Y-39491D01*
X59620Y-39479D01*
X59586Y-39479D01*
X59541Y-39491D01*
X59519Y-39502D01*
X59496Y-39524D01*
X59485Y-39558D01*
X59485Y-39580D01*
X59496Y-39614D01*
X59507Y-39625D01*
X59485Y-39704D02*
X59485Y-39850D01*
X59575Y-39772D01*
X59575Y-39805D01*
X59586Y-39828D01*
X59597Y-39839D01*
X59620Y-39850D01*
X59676Y-39850D01*
X59699Y-39839D01*
X59710Y-39828D01*
X59721Y-39805D01*
X59721Y-39738D01*
X59710Y-39715D01*
X59699Y-39704D01*
G54D18*
X55589Y-38943D02*
X55604Y-38928D01*
X55619Y-38883D01*
X55619Y-38853D01*
X55604Y-38808D01*
X55574Y-38778D01*
X55544Y-38763D01*
X55484Y-38748D01*
X55439Y-38748D01*
X55379Y-38763D01*
X55349Y-38778D01*
X55319Y-38808D01*
X55304Y-38853D01*
X55304Y-38883D01*
X55319Y-38928D01*
X55334Y-38943D01*
X55409Y-39213D02*
X55619Y-39213D01*
X55289Y-39138D02*
X55514Y-39063D01*
X55514Y-39258D01*
X56219Y-43274D02*
X56234Y-43259D01*
X56249Y-43214D01*
X56249Y-43184D01*
X56234Y-43139D01*
X56204Y-43109D01*
X56174Y-43094D01*
X56114Y-43079D01*
X56069Y-43079D01*
X56009Y-43094D01*
X55979Y-43109D01*
X55949Y-43139D01*
X55934Y-43184D01*
X55934Y-43214D01*
X55949Y-43259D01*
X55964Y-43274D01*
X55934Y-43544D02*
X55934Y-43484D01*
X55949Y-43454D01*
X55964Y-43439D01*
X56009Y-43409D01*
X56069Y-43394D01*
X56189Y-43394D01*
X56219Y-43409D01*
X56234Y-43424D01*
X56249Y-43454D01*
X56249Y-43514D01*
X56234Y-43544D01*
X56219Y-43559D01*
X56189Y-43574D01*
X56114Y-43574D01*
X56084Y-43559D01*
X56069Y-43544D01*
X56054Y-43514D01*
X56054Y-43454D01*
X56069Y-43424D01*
X56084Y-43409D01*
X56114Y-43394D01*
G54D10*
X60303Y-38301D02*
X60314Y-38312D01*
X60348Y-38323D01*
X60371Y-38323D01*
X60404Y-38312D01*
X60427Y-38290D01*
X60438Y-38267D01*
X60449Y-38222D01*
X60449Y-38188D01*
X60438Y-38143D01*
X60427Y-38121D01*
X60404Y-38098D01*
X60371Y-38087D01*
X60348Y-38087D01*
X60314Y-38098D01*
X60303Y-38110D01*
X60213Y-38110D02*
X60202Y-38098D01*
X60179Y-38087D01*
X60123Y-38087D01*
X60101Y-38098D01*
X60089Y-38110D01*
X60078Y-38132D01*
X60078Y-38155D01*
X60089Y-38188D01*
X60224Y-38323D01*
X60078Y-38323D01*
X59853Y-38323D02*
X59988Y-38323D01*
X59921Y-38323D02*
X59921Y-38087D01*
X59943Y-38121D01*
X59966Y-38143D01*
X59988Y-38155D01*
X59775Y-38087D02*
X59617Y-38087D01*
X59718Y-38323D01*
X60323Y-38616D02*
X60334Y-38627D01*
X60368Y-38638D01*
X60390Y-38638D01*
X60424Y-38627D01*
X60447Y-38605D01*
X60458Y-38582D01*
X60469Y-38537D01*
X60469Y-38503D01*
X60458Y-38458D01*
X60447Y-38436D01*
X60424Y-38413D01*
X60390Y-38402D01*
X60368Y-38402D01*
X60334Y-38413D01*
X60323Y-38425D01*
X60098Y-38638D02*
X60233Y-38638D01*
X60165Y-38638D02*
X60165Y-38402D01*
X60188Y-38436D01*
X60210Y-38458D01*
X60233Y-38470D01*
X59873Y-38638D02*
X60008Y-38638D01*
X59940Y-38638D02*
X59940Y-38402D01*
X59963Y-38436D01*
X59985Y-38458D01*
X60008Y-38470D01*
X59659Y-38402D02*
X59772Y-38402D01*
X59783Y-38515D01*
X59772Y-38503D01*
X59749Y-38492D01*
X59693Y-38492D01*
X59670Y-38503D01*
X59659Y-38515D01*
X59648Y-38537D01*
X59648Y-38593D01*
X59659Y-38616D01*
X59670Y-38627D01*
X59693Y-38638D01*
X59749Y-38638D01*
X59772Y-38627D01*
X59783Y-38616D01*
X62670Y-39199D02*
X62683Y-39212D01*
X62723Y-39225D01*
X62749Y-39225D01*
X62788Y-39212D01*
X62814Y-39186D01*
X62828Y-39160D01*
X62841Y-39107D01*
X62841Y-39068D01*
X62828Y-39015D01*
X62814Y-38989D01*
X62788Y-38963D01*
X62749Y-38950D01*
X62723Y-38950D01*
X62683Y-38963D01*
X62670Y-38976D01*
X62565Y-38976D02*
X62552Y-38963D01*
X62526Y-38950D01*
X62460Y-38950D01*
X62434Y-38963D01*
X62421Y-38976D01*
X62408Y-39002D01*
X62408Y-39028D01*
X62421Y-39068D01*
X62578Y-39225D01*
X62408Y-39225D01*
X62145Y-39225D02*
X62303Y-39225D01*
X62224Y-39225D02*
X62224Y-38950D01*
X62250Y-38989D01*
X62276Y-39015D01*
X62303Y-39028D01*
X61909Y-38950D02*
X61961Y-38950D01*
X61988Y-38963D01*
X62001Y-38976D01*
X62027Y-39015D01*
X62040Y-39068D01*
X62040Y-39173D01*
X62027Y-39199D01*
X62014Y-39212D01*
X61988Y-39225D01*
X61935Y-39225D01*
X61909Y-39212D01*
X61896Y-39199D01*
X61883Y-39173D01*
X61883Y-39107D01*
X61896Y-39081D01*
X61909Y-39068D01*
X61935Y-39055D01*
X61988Y-39055D01*
X62014Y-39068D01*
X62027Y-39081D01*
X62040Y-39107D01*
X60407Y-39086D02*
X60419Y-39074D01*
X60430Y-39041D01*
X60430Y-39018D01*
X60419Y-38984D01*
X60396Y-38962D01*
X60374Y-38951D01*
X60329Y-38939D01*
X60295Y-38939D01*
X60250Y-38951D01*
X60227Y-38962D01*
X60205Y-38984D01*
X60194Y-39018D01*
X60194Y-39041D01*
X60205Y-39074D01*
X60216Y-39086D01*
X60430Y-39311D02*
X60430Y-39176D01*
X60430Y-39243D02*
X60194Y-39243D01*
X60227Y-39221D01*
X60250Y-39198D01*
X60261Y-39176D01*
X60430Y-39535D02*
X60430Y-39401D01*
X60430Y-39468D02*
X60194Y-39468D01*
X60227Y-39446D01*
X60250Y-39423D01*
X60261Y-39401D01*
X60272Y-39738D02*
X60430Y-39738D01*
X60182Y-39682D02*
X60351Y-39625D01*
X60351Y-39772D01*
G54D18*
X59231Y-42285D02*
X59246Y-42270D01*
X59261Y-42225D01*
X59261Y-42195D01*
X59246Y-42150D01*
X59216Y-42120D01*
X59186Y-42105D01*
X59126Y-42090D01*
X59081Y-42090D01*
X59021Y-42105D01*
X58991Y-42120D01*
X58961Y-42150D01*
X58946Y-42195D01*
X58946Y-42225D01*
X58961Y-42270D01*
X58976Y-42285D01*
X59261Y-42585D02*
X59261Y-42405D01*
X59261Y-42495D02*
X58946Y-42495D01*
X58991Y-42465D01*
X59021Y-42435D01*
X59036Y-42405D01*
X59261Y-42885D02*
X59261Y-42705D01*
X59261Y-42795D02*
X58946Y-42795D01*
X58991Y-42765D01*
X59021Y-42735D01*
X59036Y-42705D01*
X58976Y-43005D02*
X58961Y-43020D01*
X58946Y-43050D01*
X58946Y-43125D01*
X58961Y-43155D01*
X58976Y-43170D01*
X59006Y-43185D01*
X59036Y-43185D01*
X59081Y-43170D01*
X59261Y-42990D01*
X59261Y-43185D01*
G54D10*
X59829Y-38877D02*
X59842Y-38864D01*
X59855Y-38825D01*
X59855Y-38799D01*
X59842Y-38759D01*
X59816Y-38733D01*
X59790Y-38720D01*
X59737Y-38707D01*
X59698Y-38707D01*
X59645Y-38720D01*
X59619Y-38733D01*
X59593Y-38759D01*
X59580Y-38799D01*
X59580Y-38825D01*
X59593Y-38864D01*
X59606Y-38877D01*
X59580Y-38969D02*
X59580Y-39153D01*
X59855Y-39035D01*
X59580Y-39232D02*
X59580Y-39402D01*
X59685Y-39311D01*
X59685Y-39350D01*
X59698Y-39376D01*
X59711Y-39389D01*
X59737Y-39402D01*
X59803Y-39402D01*
X59829Y-39389D01*
X59842Y-39376D01*
X59855Y-39350D01*
X59855Y-39271D01*
X59842Y-39245D01*
X59829Y-39232D01*
G54D18*
X60038Y-42423D02*
X60053Y-42408D01*
X60068Y-42363D01*
X60068Y-42333D01*
X60053Y-42288D01*
X60023Y-42258D01*
X59993Y-42243D01*
X59933Y-42228D01*
X59888Y-42228D01*
X59828Y-42243D01*
X59798Y-42258D01*
X59768Y-42288D01*
X59753Y-42333D01*
X59753Y-42363D01*
X59768Y-42408D01*
X59783Y-42423D01*
X60068Y-42723D02*
X60068Y-42543D01*
X60068Y-42633D02*
X59753Y-42633D01*
X59798Y-42603D01*
X59828Y-42573D01*
X59843Y-42543D01*
X60068Y-43023D02*
X60068Y-42843D01*
X60068Y-42933D02*
X59753Y-42933D01*
X59798Y-42903D01*
X59828Y-42873D01*
X59843Y-42843D01*
X59753Y-43128D02*
X59753Y-43323D01*
X59873Y-43218D01*
X59873Y-43263D01*
X59888Y-43293D01*
X59903Y-43308D01*
X59933Y-43323D01*
X60008Y-43323D01*
X60038Y-43308D01*
X60053Y-43293D01*
X60068Y-43263D01*
X60068Y-43173D01*
X60053Y-43143D01*
X60038Y-43128D01*
G54D10*
X60636Y-42027D02*
X60649Y-42014D01*
X60662Y-41975D01*
X60662Y-41948D01*
X60649Y-41909D01*
X60623Y-41883D01*
X60597Y-41870D01*
X60544Y-41856D01*
X60505Y-41856D01*
X60452Y-41870D01*
X60426Y-41883D01*
X60400Y-41909D01*
X60387Y-41948D01*
X60387Y-41975D01*
X60400Y-42014D01*
X60413Y-42027D01*
X60662Y-42290D02*
X60662Y-42132D01*
X60662Y-42211D02*
X60387Y-42211D01*
X60426Y-42185D01*
X60452Y-42158D01*
X60465Y-42132D01*
X60662Y-42552D02*
X60662Y-42395D01*
X60662Y-42473D02*
X60387Y-42473D01*
X60426Y-42447D01*
X60452Y-42421D01*
X60465Y-42395D01*
G54D18*
X54658Y-37991D02*
X54673Y-38006D01*
X54718Y-38021D01*
X54748Y-38021D01*
X54793Y-38006D01*
X54823Y-37976D01*
X54838Y-37946D01*
X54853Y-37886D01*
X54853Y-37841D01*
X54838Y-37781D01*
X54823Y-37751D01*
X54793Y-37721D01*
X54748Y-37706D01*
X54718Y-37706D01*
X54673Y-37721D01*
X54658Y-37736D01*
X54553Y-37706D02*
X54343Y-37706D01*
X54478Y-38021D01*
G54D10*
X56456Y-37368D02*
X56469Y-37381D01*
X56509Y-37395D01*
X56535Y-37395D01*
X56574Y-37381D01*
X56601Y-37355D01*
X56614Y-37329D01*
X56627Y-37276D01*
X56627Y-37237D01*
X56614Y-37185D01*
X56601Y-37158D01*
X56574Y-37132D01*
X56535Y-37119D01*
X56509Y-37119D01*
X56469Y-37132D01*
X56456Y-37145D01*
X56299Y-37237D02*
X56325Y-37224D01*
X56338Y-37211D01*
X56351Y-37185D01*
X56351Y-37171D01*
X56338Y-37145D01*
X56325Y-37132D01*
X56299Y-37119D01*
X56246Y-37119D01*
X56220Y-37132D01*
X56207Y-37145D01*
X56194Y-37171D01*
X56194Y-37185D01*
X56207Y-37211D01*
X56220Y-37224D01*
X56246Y-37237D01*
X56299Y-37237D01*
X56325Y-37250D01*
X56338Y-37263D01*
X56351Y-37290D01*
X56351Y-37342D01*
X56338Y-37368D01*
X56325Y-37381D01*
X56299Y-37395D01*
X56246Y-37395D01*
X56220Y-37381D01*
X56207Y-37368D01*
X56194Y-37342D01*
X56194Y-37290D01*
X56207Y-37263D01*
X56220Y-37250D01*
X56246Y-37237D01*
X56089Y-37145D02*
X56076Y-37132D01*
X56049Y-37119D01*
X55984Y-37119D01*
X55958Y-37132D01*
X55944Y-37145D01*
X55931Y-37171D01*
X55931Y-37198D01*
X55944Y-37237D01*
X56102Y-37395D01*
X55931Y-37395D01*
X56922Y-38274D02*
X56935Y-38287D01*
X56975Y-38300D01*
X57001Y-38300D01*
X57040Y-38287D01*
X57066Y-38261D01*
X57080Y-38234D01*
X57093Y-38182D01*
X57093Y-38143D01*
X57080Y-38090D01*
X57066Y-38064D01*
X57040Y-38038D01*
X57001Y-38024D01*
X56975Y-38024D01*
X56935Y-38038D01*
X56922Y-38051D01*
X56660Y-38300D02*
X56817Y-38300D01*
X56738Y-38300D02*
X56738Y-38024D01*
X56765Y-38064D01*
X56791Y-38090D01*
X56817Y-38103D01*
X56489Y-38024D02*
X56463Y-38024D01*
X56437Y-38038D01*
X56423Y-38051D01*
X56410Y-38077D01*
X56397Y-38129D01*
X56397Y-38195D01*
X56410Y-38248D01*
X56423Y-38274D01*
X56437Y-38287D01*
X56463Y-38300D01*
X56489Y-38300D01*
X56515Y-38287D01*
X56528Y-38274D01*
X56541Y-38248D01*
X56555Y-38195D01*
X56555Y-38129D01*
X56541Y-38077D01*
X56528Y-38051D01*
X56515Y-38038D01*
X56489Y-38024D01*
X56266Y-38300D02*
X56213Y-38300D01*
X56187Y-38287D01*
X56174Y-38274D01*
X56148Y-38234D01*
X56135Y-38182D01*
X56135Y-38077D01*
X56148Y-38051D01*
X56161Y-38038D01*
X56187Y-38024D01*
X56240Y-38024D01*
X56266Y-38038D01*
X56279Y-38051D01*
X56292Y-38077D01*
X56292Y-38143D01*
X56279Y-38169D01*
X56266Y-38182D01*
X56240Y-38195D01*
X56187Y-38195D01*
X56161Y-38182D01*
X56148Y-38169D01*
X56135Y-38143D01*
X60006Y-37467D02*
X60019Y-37480D01*
X60059Y-37493D01*
X60085Y-37493D01*
X60124Y-37480D01*
X60150Y-37454D01*
X60164Y-37427D01*
X60177Y-37375D01*
X60177Y-37335D01*
X60164Y-37283D01*
X60150Y-37257D01*
X60124Y-37230D01*
X60085Y-37217D01*
X60059Y-37217D01*
X60019Y-37230D01*
X60006Y-37244D01*
X59849Y-37335D02*
X59875Y-37322D01*
X59888Y-37309D01*
X59901Y-37283D01*
X59901Y-37270D01*
X59888Y-37244D01*
X59875Y-37230D01*
X59849Y-37217D01*
X59796Y-37217D01*
X59770Y-37230D01*
X59757Y-37244D01*
X59744Y-37270D01*
X59744Y-37283D01*
X59757Y-37309D01*
X59770Y-37322D01*
X59796Y-37335D01*
X59849Y-37335D01*
X59875Y-37349D01*
X59888Y-37362D01*
X59901Y-37388D01*
X59901Y-37440D01*
X59888Y-37467D01*
X59875Y-37480D01*
X59849Y-37493D01*
X59796Y-37493D01*
X59770Y-37480D01*
X59757Y-37467D01*
X59744Y-37440D01*
X59744Y-37388D01*
X59757Y-37362D01*
X59770Y-37349D01*
X59796Y-37335D01*
X60524Y-37841D02*
X60538Y-37854D01*
X60577Y-37867D01*
X60603Y-37867D01*
X60643Y-37854D01*
X60669Y-37828D01*
X60682Y-37801D01*
X60695Y-37749D01*
X60695Y-37709D01*
X60682Y-37657D01*
X60669Y-37631D01*
X60643Y-37604D01*
X60603Y-37591D01*
X60577Y-37591D01*
X60538Y-37604D01*
X60524Y-37618D01*
X60262Y-37867D02*
X60419Y-37867D01*
X60341Y-37867D02*
X60341Y-37591D01*
X60367Y-37631D01*
X60393Y-37657D01*
X60419Y-37670D01*
X60091Y-37591D02*
X60065Y-37591D01*
X60039Y-37604D01*
X60026Y-37618D01*
X60013Y-37644D01*
X60000Y-37696D01*
X60000Y-37762D01*
X60013Y-37814D01*
X60026Y-37841D01*
X60039Y-37854D01*
X60065Y-37867D01*
X60091Y-37867D01*
X60118Y-37854D01*
X60131Y-37841D01*
X60144Y-37814D01*
X60157Y-37762D01*
X60157Y-37696D01*
X60144Y-37644D01*
X60131Y-37618D01*
X60118Y-37604D01*
X60091Y-37591D01*
X59763Y-37591D02*
X59816Y-37591D01*
X59842Y-37604D01*
X59855Y-37618D01*
X59881Y-37657D01*
X59895Y-37709D01*
X59895Y-37814D01*
X59881Y-37841D01*
X59868Y-37854D01*
X59842Y-37867D01*
X59790Y-37867D01*
X59763Y-37854D01*
X59750Y-37841D01*
X59737Y-37814D01*
X59737Y-37749D01*
X59750Y-37723D01*
X59763Y-37709D01*
X59790Y-37696D01*
X59842Y-37696D01*
X59868Y-37709D01*
X59881Y-37723D01*
X59895Y-37749D01*
G54D18*
X58339Y-42065D02*
X58354Y-42080D01*
X58399Y-42095D01*
X58429Y-42095D01*
X58474Y-42080D01*
X58504Y-42050D01*
X58519Y-42020D01*
X58534Y-41961D01*
X58534Y-41916D01*
X58519Y-41856D01*
X58504Y-41826D01*
X58474Y-41796D01*
X58429Y-41781D01*
X58399Y-41781D01*
X58354Y-41796D01*
X58339Y-41811D01*
X58189Y-42095D02*
X58129Y-42095D01*
X58099Y-42080D01*
X58084Y-42065D01*
X58054Y-42020D01*
X58039Y-41961D01*
X58039Y-41841D01*
X58054Y-41811D01*
X58069Y-41796D01*
X58099Y-41781D01*
X58159Y-41781D01*
X58189Y-41796D01*
X58204Y-41811D01*
X58219Y-41841D01*
X58219Y-41916D01*
X58204Y-41946D01*
X58189Y-41961D01*
X58159Y-41976D01*
X58099Y-41976D01*
X58069Y-41961D01*
X58054Y-41946D01*
X58039Y-41916D01*
G54D10*
X58689Y-41411D02*
X58700Y-41422D01*
X58734Y-41434D01*
X58757Y-41434D01*
X58790Y-41422D01*
X58813Y-41400D01*
X58824Y-41377D01*
X58835Y-41332D01*
X58835Y-41299D01*
X58824Y-41254D01*
X58813Y-41231D01*
X58790Y-41209D01*
X58757Y-41197D01*
X58734Y-41197D01*
X58700Y-41209D01*
X58689Y-41220D01*
X58464Y-41434D02*
X58599Y-41434D01*
X58532Y-41434D02*
X58532Y-41197D01*
X58554Y-41231D01*
X58577Y-41254D01*
X58599Y-41265D01*
X58318Y-41197D02*
X58295Y-41197D01*
X58273Y-41209D01*
X58262Y-41220D01*
X58250Y-41242D01*
X58239Y-41287D01*
X58239Y-41344D01*
X58250Y-41389D01*
X58262Y-41411D01*
X58273Y-41422D01*
X58295Y-41434D01*
X58318Y-41434D01*
X58340Y-41422D01*
X58352Y-41411D01*
X58363Y-41389D01*
X58374Y-41344D01*
X58374Y-41287D01*
X58363Y-41242D01*
X58352Y-41220D01*
X58340Y-41209D01*
X58318Y-41197D01*
X58025Y-41197D02*
X58138Y-41197D01*
X58149Y-41310D01*
X58138Y-41299D01*
X58115Y-41287D01*
X58059Y-41287D01*
X58037Y-41299D01*
X58025Y-41310D01*
X58014Y-41332D01*
X58014Y-41389D01*
X58025Y-41411D01*
X58037Y-41422D01*
X58059Y-41434D01*
X58115Y-41434D01*
X58138Y-41422D01*
X58149Y-41411D01*
G54D18*
X53325Y-43734D02*
X53340Y-43719D01*
X53355Y-43674D01*
X53355Y-43644D01*
X53340Y-43599D01*
X53310Y-43569D01*
X53280Y-43554D01*
X53220Y-43539D01*
X53175Y-43539D01*
X53115Y-43554D01*
X53085Y-43569D01*
X53055Y-43599D01*
X53040Y-43644D01*
X53040Y-43674D01*
X53055Y-43719D01*
X53070Y-43734D01*
X53070Y-43854D02*
X53055Y-43869D01*
X53040Y-43899D01*
X53040Y-43974D01*
X53055Y-44004D01*
X53070Y-44019D01*
X53100Y-44034D01*
X53130Y-44034D01*
X53175Y-44019D01*
X53355Y-43839D01*
X53355Y-44034D01*
X53040Y-44319D02*
X53040Y-44169D01*
X53190Y-44154D01*
X53175Y-44169D01*
X53160Y-44199D01*
X53160Y-44274D01*
X53175Y-44304D01*
X53190Y-44319D01*
X53220Y-44334D01*
X53295Y-44334D01*
X53325Y-44319D01*
X53340Y-44304D01*
X53355Y-44274D01*
X53355Y-44199D01*
X53340Y-44169D01*
X53325Y-44154D01*
X59730Y-40845D02*
X59745Y-40860D01*
X59790Y-40875D01*
X59820Y-40875D01*
X59865Y-40860D01*
X59895Y-40830D01*
X59910Y-40800D01*
X59925Y-40740D01*
X59925Y-40695D01*
X59910Y-40635D01*
X59895Y-40605D01*
X59865Y-40575D01*
X59820Y-40560D01*
X59790Y-40560D01*
X59745Y-40575D01*
X59730Y-40590D01*
X59625Y-40560D02*
X59415Y-40560D01*
X59550Y-40875D01*
X59250Y-40695D02*
X59280Y-40680D01*
X59295Y-40665D01*
X59310Y-40635D01*
X59310Y-40620D01*
X59295Y-40590D01*
X59280Y-40575D01*
X59250Y-40560D01*
X59190Y-40560D01*
X59160Y-40575D01*
X59145Y-40590D01*
X59130Y-40620D01*
X59130Y-40635D01*
X59145Y-40665D01*
X59160Y-40680D01*
X59190Y-40695D01*
X59250Y-40695D01*
X59280Y-40710D01*
X59295Y-40725D01*
X59310Y-40755D01*
X59310Y-40815D01*
X59295Y-40845D01*
X59280Y-40860D01*
X59250Y-40875D01*
X59190Y-40875D01*
X59160Y-40860D01*
X59145Y-40845D01*
X59130Y-40815D01*
X59130Y-40755D01*
X59145Y-40725D01*
X59160Y-40710D01*
X59190Y-40695D01*
X52627Y-38419D02*
X52477Y-38314D01*
X52627Y-38239D02*
X52312Y-38239D01*
X52312Y-38359D01*
X52327Y-38389D01*
X52342Y-38404D01*
X52372Y-38419D01*
X52417Y-38419D01*
X52447Y-38404D01*
X52462Y-38389D01*
X52477Y-38359D01*
X52477Y-38239D01*
X52417Y-38689D02*
X52627Y-38689D01*
X52297Y-38614D02*
X52522Y-38539D01*
X52522Y-38734D01*
X52447Y-38899D02*
X52432Y-38869D01*
X52417Y-38854D01*
X52387Y-38839D01*
X52372Y-38839D01*
X52342Y-38854D01*
X52327Y-38869D01*
X52312Y-38899D01*
X52312Y-38959D01*
X52327Y-38989D01*
X52342Y-39004D01*
X52372Y-39019D01*
X52387Y-39019D01*
X52417Y-39004D01*
X52432Y-38989D01*
X52447Y-38959D01*
X52447Y-38899D01*
X52462Y-38869D01*
X52477Y-38854D01*
X52507Y-38839D01*
X52567Y-38839D01*
X52597Y-38854D01*
X52612Y-38869D01*
X52627Y-38899D01*
X52627Y-38959D01*
X52612Y-38989D01*
X52597Y-39004D01*
X52567Y-39019D01*
X52507Y-39019D01*
X52477Y-39004D01*
X52462Y-38989D01*
X52447Y-38959D01*
X53434Y-39069D02*
X53284Y-38964D01*
X53434Y-38889D02*
X53119Y-38889D01*
X53119Y-39009D01*
X53134Y-39039D01*
X53149Y-39054D01*
X53179Y-39069D01*
X53224Y-39069D01*
X53254Y-39054D01*
X53269Y-39039D01*
X53284Y-39009D01*
X53284Y-38889D01*
X53224Y-39339D02*
X53434Y-39339D01*
X53104Y-39264D02*
X53329Y-39189D01*
X53329Y-39384D01*
X53119Y-39474D02*
X53119Y-39684D01*
X53434Y-39549D01*
X52647Y-39895D02*
X52497Y-39790D01*
X52647Y-39715D02*
X52332Y-39715D01*
X52332Y-39835D01*
X52347Y-39865D01*
X52362Y-39880D01*
X52392Y-39895D01*
X52437Y-39895D01*
X52467Y-39880D01*
X52482Y-39865D01*
X52497Y-39835D01*
X52497Y-39715D01*
X52437Y-40165D02*
X52647Y-40165D01*
X52317Y-40090D02*
X52542Y-40015D01*
X52542Y-40210D01*
X52332Y-40480D02*
X52332Y-40330D01*
X52482Y-40315D01*
X52467Y-40330D01*
X52452Y-40360D01*
X52452Y-40435D01*
X52467Y-40465D01*
X52482Y-40480D01*
X52512Y-40495D01*
X52587Y-40495D01*
X52617Y-40480D01*
X52632Y-40465D01*
X52647Y-40435D01*
X52647Y-40360D01*
X52632Y-40330D01*
X52617Y-40315D01*
X53277Y-40742D02*
X53127Y-40637D01*
X53277Y-40562D02*
X52962Y-40562D01*
X52962Y-40682D01*
X52977Y-40712D01*
X52992Y-40727D01*
X53022Y-40742D01*
X53067Y-40742D01*
X53097Y-40727D01*
X53112Y-40712D01*
X53127Y-40682D01*
X53127Y-40562D01*
X53277Y-41042D02*
X53277Y-40862D01*
X53277Y-40952D02*
X52962Y-40952D01*
X53007Y-40922D01*
X53037Y-40892D01*
X53052Y-40862D01*
X52962Y-41147D02*
X52962Y-41357D01*
X53277Y-41222D01*
X52548Y-41608D02*
X52398Y-41503D01*
X52548Y-41428D02*
X52233Y-41428D01*
X52233Y-41548D01*
X52248Y-41578D01*
X52263Y-41593D01*
X52293Y-41608D01*
X52338Y-41608D01*
X52368Y-41593D01*
X52383Y-41578D01*
X52398Y-41548D01*
X52398Y-41428D01*
X52233Y-41713D02*
X52233Y-41908D01*
X52353Y-41803D01*
X52353Y-41848D01*
X52368Y-41878D01*
X52383Y-41893D01*
X52413Y-41908D01*
X52488Y-41908D01*
X52518Y-41893D01*
X52533Y-41878D01*
X52548Y-41848D01*
X52548Y-41758D01*
X52533Y-41728D01*
X52518Y-41713D01*
X52368Y-42088D02*
X52353Y-42058D01*
X52338Y-42043D01*
X52308Y-42028D01*
X52293Y-42028D01*
X52263Y-42043D01*
X52248Y-42058D01*
X52233Y-42088D01*
X52233Y-42148D01*
X52248Y-42178D01*
X52263Y-42193D01*
X52293Y-42208D01*
X52308Y-42208D01*
X52338Y-42193D01*
X52353Y-42178D01*
X52368Y-42148D01*
X52368Y-42088D01*
X52383Y-42058D01*
X52398Y-42043D01*
X52428Y-42028D01*
X52488Y-42028D01*
X52518Y-42043D01*
X52533Y-42058D01*
X52548Y-42088D01*
X52548Y-42148D01*
X52533Y-42178D01*
X52518Y-42193D01*
X52488Y-42208D01*
X52428Y-42208D01*
X52398Y-42193D01*
X52383Y-42178D01*
X52368Y-42148D01*
X53454Y-42553D02*
X53304Y-42448D01*
X53454Y-42373D02*
X53139Y-42373D01*
X53139Y-42493D01*
X53154Y-42523D01*
X53169Y-42538D01*
X53199Y-42553D01*
X53244Y-42553D01*
X53274Y-42538D01*
X53289Y-42523D01*
X53304Y-42493D01*
X53304Y-42373D01*
X53139Y-42658D02*
X53139Y-42853D01*
X53259Y-42748D01*
X53259Y-42793D01*
X53274Y-42823D01*
X53289Y-42838D01*
X53319Y-42853D01*
X53394Y-42853D01*
X53424Y-42838D01*
X53439Y-42823D01*
X53454Y-42793D01*
X53454Y-42703D01*
X53439Y-42673D01*
X53424Y-42658D01*
X53454Y-43003D02*
X53454Y-43063D01*
X53439Y-43093D01*
X53424Y-43108D01*
X53379Y-43138D01*
X53319Y-43153D01*
X53199Y-43153D01*
X53169Y-43138D01*
X53154Y-43123D01*
X53139Y-43093D01*
X53139Y-43033D01*
X53154Y-43003D01*
X53169Y-42988D01*
X53199Y-42973D01*
X53274Y-42973D01*
X53304Y-42988D01*
X53319Y-43003D01*
X53334Y-43033D01*
X53334Y-43093D01*
X53319Y-43123D01*
X53304Y-43138D01*
X53274Y-43153D01*
X55332Y-42112D02*
X55437Y-41962D01*
X55512Y-42112D02*
X55512Y-41797D01*
X55392Y-41797D01*
X55362Y-41812D01*
X55347Y-41827D01*
X55332Y-41857D01*
X55332Y-41902D01*
X55347Y-41932D01*
X55362Y-41947D01*
X55392Y-41962D01*
X55512Y-41962D01*
X55032Y-42112D02*
X55212Y-42112D01*
X55122Y-42112D02*
X55122Y-41797D01*
X55152Y-41842D01*
X55182Y-41872D01*
X55212Y-41887D01*
X54762Y-41797D02*
X54822Y-41797D01*
X54852Y-41812D01*
X54867Y-41827D01*
X54897Y-41872D01*
X54912Y-41932D01*
X54912Y-42052D01*
X54897Y-42082D01*
X54882Y-42097D01*
X54852Y-42112D01*
X54792Y-42112D01*
X54762Y-42097D01*
X54747Y-42082D01*
X54732Y-42052D01*
X54732Y-41977D01*
X54747Y-41947D01*
X54762Y-41932D01*
X54792Y-41917D01*
X54852Y-41917D01*
X54882Y-41932D01*
X54897Y-41947D01*
X54912Y-41977D01*
X49178Y-32676D02*
X49193Y-32691D01*
X49238Y-32706D01*
X49268Y-32706D01*
X49313Y-32691D01*
X49343Y-32661D01*
X49358Y-32631D01*
X49373Y-32571D01*
X49373Y-32526D01*
X49358Y-32466D01*
X49343Y-32436D01*
X49313Y-32406D01*
X49268Y-32391D01*
X49238Y-32391D01*
X49193Y-32406D01*
X49178Y-32421D01*
X49058Y-32421D02*
X49043Y-32406D01*
X49013Y-32391D01*
X48938Y-32391D01*
X48908Y-32406D01*
X48893Y-32421D01*
X48878Y-32451D01*
X48878Y-32481D01*
X48893Y-32526D01*
X49073Y-32706D01*
X48878Y-32706D01*
X48698Y-32526D02*
X48728Y-32511D01*
X48743Y-32496D01*
X48758Y-32466D01*
X48758Y-32451D01*
X48743Y-32421D01*
X48728Y-32406D01*
X48698Y-32391D01*
X48638Y-32391D01*
X48608Y-32406D01*
X48593Y-32421D01*
X48578Y-32451D01*
X48578Y-32466D01*
X48593Y-32496D01*
X48608Y-32511D01*
X48638Y-32526D01*
X48698Y-32526D01*
X48728Y-32541D01*
X48743Y-32556D01*
X48758Y-32586D01*
X48758Y-32646D01*
X48743Y-32676D01*
X48728Y-32691D01*
X48698Y-32706D01*
X48638Y-32706D01*
X48608Y-32691D01*
X48593Y-32676D01*
X48578Y-32646D01*
X48578Y-32586D01*
X48593Y-32556D01*
X48608Y-32541D01*
X48638Y-32526D01*
X51514Y-33714D02*
X51529Y-33699D01*
X51544Y-33654D01*
X51544Y-33624D01*
X51529Y-33579D01*
X51499Y-33549D01*
X51469Y-33534D01*
X51409Y-33519D01*
X51364Y-33519D01*
X51304Y-33534D01*
X51274Y-33549D01*
X51244Y-33579D01*
X51229Y-33624D01*
X51229Y-33654D01*
X51244Y-33699D01*
X51259Y-33714D01*
X51259Y-33834D02*
X51244Y-33849D01*
X51229Y-33879D01*
X51229Y-33954D01*
X51244Y-33984D01*
X51259Y-33999D01*
X51289Y-34014D01*
X51319Y-34014D01*
X51364Y-33999D01*
X51544Y-33819D01*
X51544Y-34014D01*
X51544Y-34164D02*
X51544Y-34224D01*
X51529Y-34254D01*
X51514Y-34269D01*
X51469Y-34299D01*
X51409Y-34314D01*
X51289Y-34314D01*
X51259Y-34299D01*
X51244Y-34284D01*
X51229Y-34254D01*
X51229Y-34194D01*
X51244Y-34164D01*
X51259Y-34149D01*
X51289Y-34134D01*
X51364Y-34134D01*
X51394Y-34149D01*
X51409Y-34164D01*
X51424Y-34194D01*
X51424Y-34254D01*
X51409Y-34284D01*
X51394Y-34299D01*
X51364Y-34314D01*
X53765Y-31278D02*
X53780Y-31293D01*
X53825Y-31308D01*
X53855Y-31308D01*
X53900Y-31293D01*
X53930Y-31263D01*
X53945Y-31233D01*
X53960Y-31173D01*
X53960Y-31128D01*
X53945Y-31068D01*
X53930Y-31038D01*
X53900Y-31008D01*
X53855Y-30993D01*
X53825Y-30993D01*
X53780Y-31008D01*
X53765Y-31023D01*
X53660Y-30993D02*
X53465Y-30993D01*
X53570Y-31113D01*
X53525Y-31113D01*
X53495Y-31128D01*
X53480Y-31143D01*
X53465Y-31173D01*
X53465Y-31248D01*
X53480Y-31278D01*
X53495Y-31293D01*
X53525Y-31308D01*
X53615Y-31308D01*
X53645Y-31293D01*
X53660Y-31278D01*
X53270Y-30993D02*
X53240Y-30993D01*
X53210Y-31008D01*
X53195Y-31023D01*
X53180Y-31053D01*
X53165Y-31113D01*
X53165Y-31188D01*
X53180Y-31248D01*
X53195Y-31278D01*
X53210Y-31293D01*
X53240Y-31308D01*
X53270Y-31308D01*
X53300Y-31293D01*
X53315Y-31278D01*
X53330Y-31248D01*
X53345Y-31188D01*
X53345Y-31113D01*
X53330Y-31053D01*
X53315Y-31023D01*
X53300Y-31008D01*
X53270Y-30993D01*
X49178Y-31554D02*
X49193Y-31569D01*
X49238Y-31584D01*
X49268Y-31584D01*
X49313Y-31569D01*
X49343Y-31539D01*
X49358Y-31509D01*
X49373Y-31449D01*
X49373Y-31404D01*
X49358Y-31344D01*
X49343Y-31314D01*
X49313Y-31284D01*
X49268Y-31269D01*
X49238Y-31269D01*
X49193Y-31284D01*
X49178Y-31299D01*
X49073Y-31269D02*
X48878Y-31269D01*
X48983Y-31389D01*
X48938Y-31389D01*
X48908Y-31404D01*
X48893Y-31419D01*
X48878Y-31449D01*
X48878Y-31524D01*
X48893Y-31554D01*
X48908Y-31569D01*
X48938Y-31584D01*
X49028Y-31584D01*
X49058Y-31569D01*
X49073Y-31554D01*
X48758Y-31299D02*
X48743Y-31284D01*
X48713Y-31269D01*
X48638Y-31269D01*
X48608Y-31284D01*
X48593Y-31299D01*
X48578Y-31329D01*
X48578Y-31359D01*
X48593Y-31404D01*
X48773Y-31584D01*
X48578Y-31584D01*
X41246Y-46896D02*
X40983Y-47290D01*
X40983Y-46896D02*
X41246Y-47290D01*
X40627Y-47290D02*
X40852Y-47290D01*
X40740Y-47290D02*
X40740Y-46896D01*
X40777Y-46952D01*
X40814Y-46990D01*
X40852Y-47009D01*
X40383Y-46896D02*
X40346Y-46896D01*
X40308Y-46915D01*
X40290Y-46934D01*
X40271Y-46971D01*
X40252Y-47046D01*
X40252Y-47140D01*
X40271Y-47215D01*
X40290Y-47252D01*
X40308Y-47271D01*
X40346Y-47290D01*
X40383Y-47290D01*
X40421Y-47271D01*
X40440Y-47252D01*
X40458Y-47215D01*
X40477Y-47140D01*
X40477Y-47046D01*
X40458Y-46971D01*
X40440Y-46934D01*
X40421Y-46915D01*
X40383Y-46896D01*
X58896Y-43892D02*
X58911Y-43877D01*
X58926Y-43832D01*
X58926Y-43802D01*
X58911Y-43757D01*
X58881Y-43727D01*
X58851Y-43712D01*
X58791Y-43697D01*
X58746Y-43697D01*
X58686Y-43712D01*
X58656Y-43727D01*
X58626Y-43757D01*
X58611Y-43802D01*
X58611Y-43832D01*
X58626Y-43877D01*
X58641Y-43892D01*
X58611Y-43997D02*
X58611Y-44191D01*
X58731Y-44086D01*
X58731Y-44131D01*
X58746Y-44161D01*
X58761Y-44176D01*
X58791Y-44191D01*
X58866Y-44191D01*
X58896Y-44176D01*
X58911Y-44161D01*
X58926Y-44131D01*
X58926Y-44041D01*
X58911Y-44011D01*
X58896Y-43997D01*
X58746Y-44371D02*
X58731Y-44341D01*
X58716Y-44326D01*
X58686Y-44311D01*
X58671Y-44311D01*
X58641Y-44326D01*
X58626Y-44341D01*
X58611Y-44371D01*
X58611Y-44431D01*
X58626Y-44461D01*
X58641Y-44476D01*
X58671Y-44491D01*
X58686Y-44491D01*
X58716Y-44476D01*
X58731Y-44461D01*
X58746Y-44431D01*
X58746Y-44371D01*
X58761Y-44341D01*
X58776Y-44326D01*
X58806Y-44311D01*
X58866Y-44311D01*
X58896Y-44326D01*
X58911Y-44341D01*
X58926Y-44371D01*
X58926Y-44431D01*
X58911Y-44461D01*
X58896Y-44476D01*
X58866Y-44491D01*
X58806Y-44491D01*
X58776Y-44476D01*
X58761Y-44461D01*
X58746Y-44431D01*
X58345Y-43990D02*
X58360Y-43975D01*
X58375Y-43930D01*
X58375Y-43900D01*
X58360Y-43855D01*
X58330Y-43825D01*
X58300Y-43810D01*
X58240Y-43795D01*
X58195Y-43795D01*
X58135Y-43810D01*
X58105Y-43825D01*
X58075Y-43855D01*
X58060Y-43900D01*
X58060Y-43930D01*
X58075Y-43975D01*
X58090Y-43990D01*
X58060Y-44095D02*
X58060Y-44290D01*
X58180Y-44185D01*
X58180Y-44230D01*
X58195Y-44260D01*
X58210Y-44275D01*
X58240Y-44290D01*
X58315Y-44290D01*
X58345Y-44275D01*
X58360Y-44260D01*
X58375Y-44230D01*
X58375Y-44140D01*
X58360Y-44110D01*
X58345Y-44095D01*
X58060Y-44395D02*
X58060Y-44605D01*
X58375Y-44470D01*
X58871Y-46623D02*
X58871Y-46308D01*
X58796Y-46308D01*
X58751Y-46323D01*
X58721Y-46353D01*
X58706Y-46383D01*
X58691Y-46443D01*
X58691Y-46488D01*
X58706Y-46548D01*
X58721Y-46578D01*
X58751Y-46608D01*
X58796Y-46623D01*
X58871Y-46623D01*
X58571Y-46533D02*
X58421Y-46533D01*
X58601Y-46623D02*
X58496Y-46308D01*
X58391Y-46623D01*
X58301Y-46338D02*
X58286Y-46323D01*
X58256Y-46308D01*
X58181Y-46308D01*
X58151Y-46323D01*
X58136Y-46338D01*
X58121Y-46368D01*
X58121Y-46398D01*
X58136Y-46443D01*
X58316Y-46623D01*
X58121Y-46623D01*
G54D17*
X57848Y-46099D02*
X57941Y-46099D01*
X57904Y-46024D02*
X57941Y-46099D01*
X57904Y-46174D01*
X58016Y-46054D02*
X57941Y-46099D01*
X58016Y-46144D01*
G54D18*
X53670Y-44494D02*
X53355Y-44494D01*
X53355Y-44569D01*
X53370Y-44614D01*
X53400Y-44644D01*
X53430Y-44659D01*
X53490Y-44674D01*
X53535Y-44674D01*
X53595Y-44659D01*
X53625Y-44644D01*
X53655Y-44614D01*
X53670Y-44569D01*
X53670Y-44494D01*
X53580Y-44794D02*
X53580Y-44944D01*
X53670Y-44764D02*
X53355Y-44869D01*
X53670Y-44974D01*
X53355Y-45049D02*
X53355Y-45259D01*
X53670Y-45124D01*
G54D17*
X55081Y-45289D02*
X55081Y-45382D01*
X55156Y-45345D02*
X55081Y-45382D01*
X55006Y-45345D01*
X55126Y-45457D02*
X55081Y-45382D01*
X55036Y-45457D01*
G54D18*
X55052Y-34261D02*
X55052Y-33946D01*
X54977Y-33946D01*
X54932Y-33961D01*
X54902Y-33991D01*
X54887Y-34021D01*
X54872Y-34081D01*
X54872Y-34126D01*
X54887Y-34186D01*
X54902Y-34216D01*
X54932Y-34246D01*
X54977Y-34261D01*
X55052Y-34261D01*
X54752Y-34171D02*
X54602Y-34171D01*
X54782Y-34261D02*
X54677Y-33946D01*
X54572Y-34261D01*
X54332Y-34051D02*
X54332Y-34261D01*
X54407Y-33931D02*
X54482Y-34156D01*
X54287Y-34156D01*
G54D17*
X51904Y-35761D02*
X51997Y-35761D01*
X51960Y-35687D02*
X51997Y-35761D01*
X51960Y-35836D01*
X52072Y-35717D02*
X51997Y-35761D01*
X52072Y-35806D01*
G54D10*
X52312Y-31312D02*
X52627Y-31522D01*
X52312Y-31522D02*
X52627Y-31312D01*
X52312Y-31702D02*
X52312Y-31762D01*
X52327Y-31792D01*
X52357Y-31822D01*
X52417Y-31837D01*
X52522Y-31837D01*
X52582Y-31822D01*
X52612Y-31792D01*
X52627Y-31762D01*
X52627Y-31702D01*
X52612Y-31672D01*
X52582Y-31642D01*
X52522Y-31627D01*
X52417Y-31627D01*
X52357Y-31642D01*
X52327Y-31672D01*
X52312Y-31702D01*
X52342Y-31957D02*
X52327Y-31972D01*
X52312Y-32002D01*
X52312Y-32077D01*
X52327Y-32107D01*
X52342Y-32122D01*
X52372Y-32137D01*
X52402Y-32137D01*
X52447Y-32122D01*
X52627Y-31942D01*
X52627Y-32137D01*
X51827Y-31019D02*
X51884Y-31019D01*
X51861Y-30963D02*
X51884Y-31019D01*
X51861Y-31075D01*
X51929Y-30985D02*
X51884Y-31019D01*
X51929Y-31053D01*
X51666Y-33742D02*
X51404Y-34135D01*
X51404Y-33742D02*
X51666Y-34135D01*
X51179Y-33742D02*
X51104Y-33742D01*
X51066Y-33760D01*
X51029Y-33798D01*
X51010Y-33873D01*
X51010Y-34004D01*
X51029Y-34079D01*
X51066Y-34116D01*
X51104Y-34135D01*
X51179Y-34135D01*
X51216Y-34116D01*
X51254Y-34079D01*
X51272Y-34004D01*
X51272Y-33873D01*
X51254Y-33798D01*
X51216Y-33760D01*
X51179Y-33742D01*
X50635Y-34135D02*
X50860Y-34135D01*
X50748Y-34135D02*
X50748Y-33742D01*
X50785Y-33798D01*
X50823Y-33835D01*
X50860Y-33854D01*
X52619Y-30570D02*
X52713Y-30570D01*
X52676Y-30477D02*
X52713Y-30570D01*
X52676Y-30664D01*
X52788Y-30514D02*
X52713Y-30570D01*
X52788Y-30627D01*
M02*
