G04 (created by PCBNEW (2013-07-07 BZR 4022)-stable) date 2014/8/22 下午 04:39:37*
%MOIN*%
G04 Gerber Fmt 3.4, Leading zero omitted, Abs format*
%FSLAX34Y34*%
G01*
G70*
G90*
G04 APERTURE LIST*
%ADD10C,0.00590551*%
%ADD11C,0.012*%
%ADD12C,0.0077*%
%ADD13C,0.011811*%
%ADD14C,0.0039*%
G04 APERTURE END LIST*
G54D10*
G54D11*
X19378Y-38000D02*
X19416Y-38028D01*
X19454Y-38086D01*
X19454Y-38228D01*
X19416Y-38286D01*
X19378Y-38314D01*
X19301Y-38343D01*
X19225Y-38343D01*
X19111Y-38314D01*
X18654Y-37971D01*
X18654Y-38343D01*
X18730Y-38600D02*
X18692Y-38628D01*
X18654Y-38600D01*
X18692Y-38571D01*
X18730Y-38600D01*
X18654Y-38600D01*
X18654Y-39200D02*
X18654Y-38857D01*
X18654Y-39028D02*
X19454Y-39028D01*
X19340Y-38971D01*
X19263Y-38914D01*
X19225Y-38857D01*
X19454Y-39743D02*
X19454Y-39457D01*
X19073Y-39428D01*
X19111Y-39457D01*
X19149Y-39514D01*
X19149Y-39657D01*
X19111Y-39714D01*
X19073Y-39743D01*
X18997Y-39771D01*
X18806Y-39771D01*
X18730Y-39743D01*
X18692Y-39714D01*
X18654Y-39657D01*
X18654Y-39514D01*
X18692Y-39457D01*
X18730Y-39428D01*
X19454Y-40143D02*
X19454Y-40200D01*
X19416Y-40257D01*
X19378Y-40286D01*
X19301Y-40314D01*
X19149Y-40343D01*
X18959Y-40343D01*
X18806Y-40314D01*
X18730Y-40286D01*
X18692Y-40257D01*
X18654Y-40200D01*
X18654Y-40143D01*
X18692Y-40086D01*
X18730Y-40057D01*
X18806Y-40028D01*
X18959Y-40000D01*
X19149Y-40000D01*
X19301Y-40028D01*
X19378Y-40057D01*
X19416Y-40086D01*
X19454Y-40143D01*
X19454Y-40714D02*
X19454Y-40771D01*
X19416Y-40828D01*
X19378Y-40857D01*
X19301Y-40886D01*
X19149Y-40914D01*
X18959Y-40914D01*
X18806Y-40886D01*
X18730Y-40857D01*
X18692Y-40828D01*
X18654Y-40771D01*
X18654Y-40714D01*
X18692Y-40657D01*
X18730Y-40628D01*
X18806Y-40600D01*
X18959Y-40571D01*
X19149Y-40571D01*
X19301Y-40600D01*
X19378Y-40628D01*
X19416Y-40657D01*
X19454Y-40714D01*
X18654Y-41628D02*
X19187Y-41628D01*
X19454Y-41628D02*
X19416Y-41600D01*
X19378Y-41628D01*
X19416Y-41657D01*
X19454Y-41628D01*
X19378Y-41628D01*
X19187Y-41914D02*
X18654Y-41914D01*
X19111Y-41914D02*
X19149Y-41943D01*
X19187Y-42000D01*
X19187Y-42086D01*
X19149Y-42143D01*
X19073Y-42171D01*
X18654Y-42171D01*
X19618Y-29350D02*
X19618Y-50850D01*
X34811Y-29350D02*
X18338Y-29350D01*
X34811Y-50850D02*
X18338Y-50850D01*
X19618Y-50850D02*
X19387Y-50406D01*
X19618Y-50850D02*
X19848Y-50406D01*
X19618Y-29350D02*
X19387Y-29793D01*
X19618Y-29350D02*
X19848Y-29793D01*
G54D12*
X69000Y-26600D02*
X29500Y-26600D01*
G54D11*
X23266Y-33690D02*
X23266Y-33747D01*
X23228Y-33805D01*
X23190Y-33833D01*
X23113Y-33862D01*
X22961Y-33890D01*
X22770Y-33890D01*
X22618Y-33862D01*
X22542Y-33833D01*
X22504Y-33805D01*
X22466Y-33747D01*
X22466Y-33690D01*
X22504Y-33633D01*
X22542Y-33605D01*
X22618Y-33576D01*
X22770Y-33547D01*
X22961Y-33547D01*
X23113Y-33576D01*
X23190Y-33605D01*
X23228Y-33633D01*
X23266Y-33690D01*
X22542Y-34147D02*
X22504Y-34176D01*
X22466Y-34147D01*
X22504Y-34119D01*
X22542Y-34147D01*
X22466Y-34147D01*
X22923Y-34519D02*
X22961Y-34462D01*
X22999Y-34433D01*
X23075Y-34405D01*
X23113Y-34405D01*
X23190Y-34433D01*
X23228Y-34462D01*
X23266Y-34519D01*
X23266Y-34633D01*
X23228Y-34690D01*
X23190Y-34719D01*
X23113Y-34747D01*
X23075Y-34747D01*
X22999Y-34719D01*
X22961Y-34690D01*
X22923Y-34633D01*
X22923Y-34519D01*
X22885Y-34462D01*
X22847Y-34433D01*
X22770Y-34405D01*
X22618Y-34405D01*
X22542Y-34433D01*
X22504Y-34462D01*
X22466Y-34519D01*
X22466Y-34633D01*
X22504Y-34690D01*
X22542Y-34719D01*
X22618Y-34747D01*
X22770Y-34747D01*
X22847Y-34719D01*
X22885Y-34690D01*
X22923Y-34633D01*
X22466Y-35033D02*
X22466Y-35147D01*
X22504Y-35205D01*
X22542Y-35233D01*
X22656Y-35290D01*
X22809Y-35319D01*
X23113Y-35319D01*
X23190Y-35290D01*
X23228Y-35262D01*
X23266Y-35205D01*
X23266Y-35090D01*
X23228Y-35033D01*
X23190Y-35005D01*
X23113Y-34976D01*
X22923Y-34976D01*
X22847Y-35005D01*
X22809Y-35033D01*
X22770Y-35090D01*
X22770Y-35205D01*
X22809Y-35262D01*
X22847Y-35290D01*
X22923Y-35319D01*
X23266Y-35690D02*
X23266Y-35747D01*
X23228Y-35805D01*
X23190Y-35833D01*
X23113Y-35862D01*
X22961Y-35890D01*
X22770Y-35890D01*
X22618Y-35862D01*
X22542Y-35833D01*
X22504Y-35805D01*
X22466Y-35747D01*
X22466Y-35690D01*
X22504Y-35633D01*
X22542Y-35605D01*
X22618Y-35576D01*
X22770Y-35547D01*
X22961Y-35547D01*
X23113Y-35576D01*
X23190Y-35605D01*
X23228Y-35633D01*
X23266Y-35690D01*
X23266Y-36262D02*
X23266Y-36319D01*
X23228Y-36376D01*
X23190Y-36405D01*
X23113Y-36433D01*
X22961Y-36462D01*
X22770Y-36462D01*
X22618Y-36433D01*
X22542Y-36405D01*
X22504Y-36376D01*
X22466Y-36319D01*
X22466Y-36262D01*
X22504Y-36205D01*
X22542Y-36176D01*
X22618Y-36147D01*
X22770Y-36119D01*
X22961Y-36119D01*
X23113Y-36147D01*
X23190Y-36176D01*
X23228Y-36205D01*
X23266Y-36262D01*
X22466Y-37176D02*
X22999Y-37176D01*
X23266Y-37176D02*
X23228Y-37147D01*
X23190Y-37176D01*
X23228Y-37205D01*
X23266Y-37176D01*
X23190Y-37176D01*
X22999Y-37462D02*
X22466Y-37462D01*
X22923Y-37462D02*
X22961Y-37490D01*
X22999Y-37547D01*
X22999Y-37633D01*
X22961Y-37690D01*
X22885Y-37719D01*
X22466Y-37719D01*
X23430Y-31197D02*
X23430Y-40097D01*
X40732Y-31198D02*
X22150Y-31197D01*
X40732Y-40098D02*
X22150Y-40097D01*
X23430Y-40097D02*
X23199Y-39654D01*
X23430Y-40097D02*
X23660Y-39654D01*
X23430Y-31197D02*
X23199Y-31641D01*
X23430Y-31197D02*
X23660Y-31641D01*
X43024Y-20403D02*
X43082Y-20403D01*
X43139Y-20441D01*
X43167Y-20480D01*
X43196Y-20556D01*
X43224Y-20708D01*
X43224Y-20899D01*
X43196Y-21051D01*
X43167Y-21127D01*
X43139Y-21165D01*
X43082Y-21203D01*
X43024Y-21203D01*
X42967Y-21165D01*
X42939Y-21127D01*
X42910Y-21051D01*
X42882Y-20899D01*
X42882Y-20708D01*
X42910Y-20556D01*
X42939Y-20480D01*
X42967Y-20441D01*
X43024Y-20403D01*
X43482Y-21127D02*
X43510Y-21165D01*
X43482Y-21203D01*
X43453Y-21165D01*
X43482Y-21127D01*
X43482Y-21203D01*
X43853Y-20746D02*
X43796Y-20708D01*
X43767Y-20670D01*
X43739Y-20594D01*
X43739Y-20556D01*
X43767Y-20480D01*
X43796Y-20441D01*
X43853Y-20403D01*
X43967Y-20403D01*
X44024Y-20441D01*
X44053Y-20480D01*
X44082Y-20556D01*
X44082Y-20594D01*
X44053Y-20670D01*
X44024Y-20708D01*
X43967Y-20746D01*
X43853Y-20746D01*
X43796Y-20784D01*
X43767Y-20822D01*
X43739Y-20899D01*
X43739Y-21051D01*
X43767Y-21127D01*
X43796Y-21165D01*
X43853Y-21203D01*
X43967Y-21203D01*
X44024Y-21165D01*
X44053Y-21127D01*
X44082Y-21051D01*
X44082Y-20899D01*
X44053Y-20822D01*
X44024Y-20784D01*
X43967Y-20746D01*
X44624Y-20403D02*
X44339Y-20403D01*
X44310Y-20784D01*
X44339Y-20746D01*
X44396Y-20708D01*
X44539Y-20708D01*
X44596Y-20746D01*
X44624Y-20784D01*
X44653Y-20860D01*
X44653Y-21051D01*
X44624Y-21127D01*
X44596Y-21165D01*
X44539Y-21203D01*
X44396Y-21203D01*
X44339Y-21165D01*
X44310Y-21127D01*
X45024Y-20403D02*
X45082Y-20403D01*
X45139Y-20441D01*
X45167Y-20480D01*
X45196Y-20556D01*
X45224Y-20708D01*
X45224Y-20899D01*
X45196Y-21051D01*
X45167Y-21127D01*
X45139Y-21165D01*
X45082Y-21203D01*
X45024Y-21203D01*
X44967Y-21165D01*
X44939Y-21127D01*
X44910Y-21051D01*
X44882Y-20899D01*
X44882Y-20708D01*
X44910Y-20556D01*
X44939Y-20480D01*
X44967Y-20441D01*
X45024Y-20403D01*
X45596Y-20403D02*
X45653Y-20403D01*
X45710Y-20441D01*
X45739Y-20480D01*
X45767Y-20556D01*
X45796Y-20708D01*
X45796Y-20899D01*
X45767Y-21051D01*
X45739Y-21127D01*
X45710Y-21165D01*
X45653Y-21203D01*
X45596Y-21203D01*
X45539Y-21165D01*
X45510Y-21127D01*
X45482Y-21051D01*
X45453Y-20899D01*
X45453Y-20708D01*
X45482Y-20556D01*
X45510Y-20480D01*
X45539Y-20441D01*
X45596Y-20403D01*
X46510Y-21203D02*
X46510Y-20670D01*
X46510Y-20403D02*
X46482Y-20441D01*
X46510Y-20480D01*
X46539Y-20441D01*
X46510Y-20403D01*
X46510Y-20480D01*
X46796Y-20670D02*
X46796Y-21203D01*
X46796Y-20746D02*
X46824Y-20708D01*
X46882Y-20670D01*
X46967Y-20670D01*
X47024Y-20708D01*
X47053Y-20784D01*
X47053Y-21203D01*
X40732Y-21520D02*
X49232Y-21520D01*
X40732Y-31198D02*
X40732Y-20240D01*
X49232Y-31198D02*
X49232Y-20240D01*
X49232Y-21520D02*
X48788Y-21750D01*
X49232Y-21520D02*
X48788Y-21289D01*
X40732Y-21520D02*
X41175Y-21750D01*
X40732Y-21520D02*
X41175Y-21289D01*
X47098Y-18133D02*
X47469Y-18133D01*
X47269Y-18438D01*
X47355Y-18438D01*
X47412Y-18476D01*
X47441Y-18514D01*
X47469Y-18590D01*
X47469Y-18781D01*
X47441Y-18857D01*
X47412Y-18895D01*
X47355Y-18933D01*
X47184Y-18933D01*
X47127Y-18895D01*
X47098Y-18857D01*
X47727Y-18857D02*
X47755Y-18895D01*
X47727Y-18933D01*
X47698Y-18895D01*
X47727Y-18857D01*
X47727Y-18933D01*
X48269Y-18400D02*
X48269Y-18933D01*
X48127Y-18095D02*
X47984Y-18667D01*
X48355Y-18667D01*
X48698Y-18133D02*
X48755Y-18133D01*
X48812Y-18171D01*
X48841Y-18210D01*
X48869Y-18286D01*
X48898Y-18438D01*
X48898Y-18629D01*
X48869Y-18781D01*
X48841Y-18857D01*
X48812Y-18895D01*
X48755Y-18933D01*
X48698Y-18933D01*
X48641Y-18895D01*
X48612Y-18857D01*
X48584Y-18781D01*
X48555Y-18629D01*
X48555Y-18438D01*
X48584Y-18286D01*
X48612Y-18210D01*
X48641Y-18171D01*
X48698Y-18133D01*
X49269Y-18133D02*
X49327Y-18133D01*
X49384Y-18171D01*
X49412Y-18210D01*
X49441Y-18286D01*
X49469Y-18438D01*
X49469Y-18629D01*
X49441Y-18781D01*
X49412Y-18857D01*
X49384Y-18895D01*
X49327Y-18933D01*
X49269Y-18933D01*
X49212Y-18895D01*
X49184Y-18857D01*
X49155Y-18781D01*
X49127Y-18629D01*
X49127Y-18438D01*
X49155Y-18286D01*
X49184Y-18210D01*
X49212Y-18171D01*
X49269Y-18133D01*
X49841Y-18133D02*
X49898Y-18133D01*
X49955Y-18171D01*
X49984Y-18210D01*
X50012Y-18286D01*
X50041Y-18438D01*
X50041Y-18629D01*
X50012Y-18781D01*
X49984Y-18857D01*
X49955Y-18895D01*
X49898Y-18933D01*
X49841Y-18933D01*
X49784Y-18895D01*
X49755Y-18857D01*
X49727Y-18781D01*
X49698Y-18629D01*
X49698Y-18438D01*
X49727Y-18286D01*
X49755Y-18210D01*
X49784Y-18171D01*
X49841Y-18133D01*
X50755Y-18933D02*
X50755Y-18400D01*
X50755Y-18133D02*
X50727Y-18171D01*
X50755Y-18210D01*
X50784Y-18171D01*
X50755Y-18133D01*
X50755Y-18210D01*
X51041Y-18400D02*
X51041Y-18933D01*
X51041Y-18476D02*
X51069Y-18438D01*
X51127Y-18400D01*
X51212Y-18400D01*
X51269Y-18438D01*
X51298Y-18514D01*
X51298Y-18933D01*
X66227Y-19250D02*
X32227Y-19250D01*
X66227Y-30311D02*
X66227Y-17970D01*
X32227Y-30311D02*
X32227Y-17970D01*
X32227Y-19250D02*
X32670Y-19019D01*
X32227Y-19250D02*
X32670Y-19480D01*
X66227Y-19250D02*
X65783Y-19019D01*
X66227Y-19250D02*
X65783Y-19480D01*
G54D12*
X56384Y-29350D02*
X42862Y-29350D01*
X42862Y-50846D02*
X56386Y-50846D01*
X31444Y-51633D02*
X41484Y-51633D01*
X42862Y-50846D02*
X42862Y-51633D01*
X41484Y-50846D02*
X41484Y-51633D01*
X31444Y-28562D02*
X41484Y-28562D01*
X42862Y-28562D02*
X42862Y-29350D01*
X41484Y-28562D02*
X41484Y-29350D01*
G54D13*
X40440Y-30873D02*
X40384Y-30845D01*
X40300Y-30845D01*
X40215Y-30873D01*
X40159Y-30929D01*
X40131Y-30985D01*
X40103Y-31098D01*
X40103Y-31182D01*
X40131Y-31295D01*
X40159Y-31351D01*
X40215Y-31407D01*
X40300Y-31435D01*
X40356Y-31435D01*
X40440Y-31407D01*
X40469Y-31379D01*
X40469Y-31182D01*
X40356Y-31182D01*
X40722Y-31435D02*
X40722Y-30845D01*
X40947Y-30845D01*
X41003Y-30873D01*
X41031Y-30901D01*
X41059Y-30957D01*
X41059Y-31042D01*
X41031Y-31098D01*
X41003Y-31126D01*
X40947Y-31154D01*
X40722Y-31154D01*
X41312Y-31435D02*
X41312Y-30845D01*
X41706Y-30845D02*
X41818Y-30845D01*
X41875Y-30873D01*
X41931Y-30929D01*
X41959Y-31042D01*
X41959Y-31239D01*
X41931Y-31351D01*
X41875Y-31407D01*
X41818Y-31435D01*
X41706Y-31435D01*
X41650Y-31407D01*
X41593Y-31351D01*
X41565Y-31239D01*
X41565Y-31042D01*
X41593Y-30929D01*
X41650Y-30873D01*
X41706Y-30845D01*
X39830Y-49199D02*
X39830Y-48609D01*
X40055Y-48609D01*
X40111Y-48637D01*
X40140Y-48665D01*
X40168Y-48721D01*
X40168Y-48805D01*
X40140Y-48862D01*
X40111Y-48890D01*
X40055Y-48918D01*
X39830Y-48918D01*
X40365Y-48609D02*
X40505Y-49199D01*
X40618Y-48777D01*
X40730Y-49199D01*
X40871Y-48609D01*
X41433Y-49199D02*
X41236Y-48918D01*
X41096Y-49199D02*
X41096Y-48609D01*
X41321Y-48609D01*
X41377Y-48637D01*
X41405Y-48665D01*
X41433Y-48721D01*
X41433Y-48805D01*
X41405Y-48862D01*
X41377Y-48890D01*
X41321Y-48918D01*
X41096Y-48918D01*
G54D12*
X29500Y-53600D02*
X29500Y-26600D01*
X69000Y-53600D02*
X29500Y-53600D01*
X69000Y-26598D02*
X69000Y-53600D01*
X66228Y-29350D02*
X66228Y-39492D01*
X57764Y-29350D02*
X66228Y-29350D01*
X57764Y-28562D02*
X57764Y-29350D01*
X67016Y-28562D02*
X57764Y-28562D01*
X67016Y-39492D02*
X67016Y-28562D01*
X66228Y-39492D02*
X67016Y-39492D01*
X57795Y-51633D02*
X57795Y-50846D01*
X67016Y-51633D02*
X57795Y-51633D01*
X67016Y-40948D02*
X67016Y-51633D01*
X66228Y-40948D02*
X67016Y-40948D01*
X66228Y-50846D02*
X66228Y-40948D01*
X57795Y-50846D02*
X66228Y-50846D01*
X31444Y-51633D02*
X31444Y-44413D01*
X56386Y-51633D02*
X42862Y-51633D01*
X56386Y-51633D02*
X56386Y-50846D01*
X32232Y-50846D02*
X41484Y-50846D01*
X32232Y-44413D02*
X32232Y-50846D01*
X31444Y-44413D02*
X32232Y-44413D01*
X31444Y-43390D02*
X31444Y-35555D01*
X32232Y-43390D02*
X31444Y-43390D01*
X32232Y-35555D02*
X32232Y-43390D01*
X31444Y-35555D02*
X32232Y-35555D01*
X32232Y-29350D02*
X32232Y-34570D01*
X31444Y-34570D02*
X32232Y-34570D01*
X31444Y-28562D02*
X31444Y-34570D01*
X42862Y-28562D02*
X56384Y-28562D01*
X56384Y-28562D02*
X56384Y-29350D01*
X32232Y-29350D02*
X41484Y-29350D01*
G54D14*
X32409Y-29527D02*
X32409Y-50668D01*
X32409Y-50668D02*
X66089Y-50668D01*
X66089Y-29527D02*
X66089Y-50668D01*
X32409Y-29527D02*
X66089Y-29527D01*
G54D10*
X59394Y-40199D02*
X59394Y-40256D01*
X59511Y-40256D01*
X59511Y-40199D01*
X59394Y-40199D01*
M02*
