G04 (created by PCBNEW (2013-07-07 BZR 4022)-stable) date 2014/8/22 下午 04:39:37*
%MOIN*%
G04 Gerber Fmt 3.4, Leading zero omitted, Abs format*
%FSLAX34Y34*%
G01*
G70*
G90*
G04 APERTURE LIST*
%ADD10C,0.00590551*%
%ADD11C,0.0077*%
%ADD12R,0.0392X0.0392*%
%ADD13R,0.0472X0.051*%
%ADD14R,0.0195X0.0175*%
%ADD15R,0.0175X0.0195*%
%ADD16R,0.0259X0.014*%
%ADD17R,0.014X0.0259*%
%ADD18R,0.0275X0.0314*%
%ADD19R,0.0195X0.0195*%
%ADD20R,0.1417X0.055*%
%ADD21R,0.244X0.2598*%
%ADD22R,0.0314X0.0314*%
%ADD23R,0.0511811X0.0511811*%
%ADD24R,0.0354331X0.0629921*%
%ADD25R,0.1849X0.0589*%
%ADD26R,0.0589X0.0275*%
%ADD27R,0.0299X0.0649*%
%ADD28R,0.0669X0.0669*%
%ADD29O,0.0335X0.0110236*%
%ADD30O,0.0335X0.0122*%
%ADD31O,0.0110236X0.0335*%
%ADD32R,0.0110236X0.0335*%
%ADD33R,0.00984252X0.0216535*%
%ADD34O,0.00984252X0.0216535*%
%ADD35O,0.0216535X0.00984252*%
%ADD36R,0.0216535X0.00984252*%
%ADD37R,0.0433071X0.0433071*%
%ADD38R,0.0117X0.0275*%
%ADD39R,0.0117X0.0117*%
%ADD40R,0.0117X0.0177*%
%ADD41R,0.0177X0.0117*%
%ADD42R,0.0591X0.0299*%
G04 APERTURE END LIST*
G54D10*
G54D11*
X69000Y-26600D02*
X29500Y-26600D01*
X56384Y-29350D02*
X42862Y-29350D01*
X42862Y-50846D02*
X56386Y-50846D01*
X31444Y-51633D02*
X41484Y-51633D01*
X42862Y-50846D02*
X42862Y-51633D01*
X41484Y-50846D02*
X41484Y-51633D01*
X31444Y-28562D02*
X41484Y-28562D01*
X42862Y-28562D02*
X42862Y-29350D01*
X41484Y-28562D02*
X41484Y-29350D01*
X29500Y-53600D02*
X29500Y-26600D01*
X69000Y-53600D02*
X29500Y-53600D01*
X69000Y-26598D02*
X69000Y-53600D01*
X66228Y-29350D02*
X66228Y-39492D01*
X57764Y-29350D02*
X66228Y-29350D01*
X57764Y-28562D02*
X57764Y-29350D01*
X67016Y-28562D02*
X57764Y-28562D01*
X67016Y-39492D02*
X67016Y-28562D01*
X66228Y-39492D02*
X67016Y-39492D01*
X57795Y-51633D02*
X57795Y-50846D01*
X67016Y-51633D02*
X57795Y-51633D01*
X67016Y-40948D02*
X67016Y-51633D01*
X66228Y-40948D02*
X67016Y-40948D01*
X66228Y-50846D02*
X66228Y-40948D01*
X57795Y-50846D02*
X66228Y-50846D01*
X31444Y-51633D02*
X31444Y-44413D01*
X56386Y-51633D02*
X42862Y-51633D01*
X56386Y-51633D02*
X56386Y-50846D01*
X32232Y-50846D02*
X41484Y-50846D01*
X32232Y-44413D02*
X32232Y-50846D01*
X31444Y-44413D02*
X32232Y-44413D01*
X31444Y-43390D02*
X31444Y-35555D01*
X32232Y-43390D02*
X31444Y-43390D01*
X32232Y-35555D02*
X32232Y-43390D01*
X31444Y-35555D02*
X32232Y-35555D01*
X32232Y-29350D02*
X32232Y-34570D01*
X31444Y-34570D02*
X32232Y-34570D01*
X31444Y-28562D02*
X31444Y-34570D01*
X42862Y-28562D02*
X56384Y-28562D01*
X56384Y-28562D02*
X56384Y-29350D01*
X32232Y-29350D02*
X41484Y-29350D01*
G54D12*
X31000Y-52000D03*
X67500Y-52000D03*
X67500Y-28000D03*
G54D13*
X56555Y-48621D03*
X56555Y-47717D03*
G54D14*
X51445Y-35036D03*
X51445Y-35406D03*
X60461Y-41890D03*
X60461Y-41520D03*
X55299Y-38559D03*
X55299Y-38929D03*
X60827Y-41504D03*
X60827Y-41874D03*
X60618Y-38784D03*
X60618Y-38414D03*
X60264Y-38402D03*
X60264Y-38772D03*
G54D15*
X59559Y-37933D03*
X59929Y-37933D03*
G54D16*
X58799Y-43133D03*
X58799Y-42793D03*
X58031Y-36168D03*
X58031Y-36508D03*
X59843Y-43123D03*
X59843Y-42783D03*
X60649Y-36921D03*
X60649Y-36581D03*
G54D17*
X57670Y-36850D03*
X57330Y-36850D03*
G54D16*
X59665Y-36941D03*
X59665Y-36601D03*
G54D17*
X57670Y-35846D03*
X57330Y-35846D03*
X58811Y-37795D03*
X58471Y-37795D03*
X60327Y-37263D03*
X59987Y-37263D03*
G54D16*
X58090Y-43024D03*
X58090Y-42684D03*
X57027Y-43024D03*
X57027Y-42684D03*
G54D17*
X59485Y-44517D03*
X59825Y-44517D03*
G54D16*
X59124Y-44166D03*
X59124Y-43826D03*
G54D17*
X59485Y-43474D03*
X59825Y-43474D03*
X57236Y-37874D03*
X56896Y-37874D03*
G54D16*
X56417Y-36385D03*
X56417Y-36725D03*
X56023Y-36385D03*
X56023Y-36725D03*
G54D17*
X58024Y-37874D03*
X57684Y-37874D03*
G54D18*
X56556Y-47185D03*
X56986Y-47185D03*
X56556Y-49173D03*
X56986Y-49173D03*
G54D19*
X61102Y-37086D03*
X61102Y-36732D03*
X60216Y-43130D03*
X60216Y-43484D03*
X59321Y-44901D03*
X59675Y-44901D03*
X59123Y-44517D03*
X58769Y-44517D03*
X59488Y-43819D03*
X59488Y-44173D03*
X59123Y-43474D03*
X58769Y-43474D03*
X59124Y-42776D03*
X59124Y-43130D03*
X59488Y-42776D03*
X59488Y-43130D03*
X59130Y-42477D03*
X59484Y-42477D03*
X59665Y-37263D03*
X59665Y-37617D03*
X57067Y-45629D03*
X57421Y-45629D03*
X57834Y-35433D03*
X58188Y-35433D03*
X57736Y-42637D03*
X57736Y-42991D03*
X57381Y-42637D03*
X57381Y-42991D03*
X56515Y-43031D03*
X56515Y-43385D03*
X57382Y-42322D03*
X57736Y-42322D03*
X58996Y-37263D03*
X59350Y-37263D03*
X60649Y-37263D03*
X60649Y-37617D03*
X59980Y-36929D03*
X60334Y-36929D03*
X57677Y-36515D03*
X57677Y-36161D03*
X51976Y-36496D03*
X52330Y-36496D03*
X58031Y-35846D03*
X58385Y-35846D03*
X58031Y-37539D03*
X58031Y-37185D03*
X57677Y-37539D03*
X57677Y-37185D03*
X56417Y-37342D03*
X56417Y-36988D03*
X58031Y-36850D03*
X58385Y-36850D03*
X57382Y-34566D03*
X57736Y-34566D03*
X56023Y-37342D03*
X56023Y-36988D03*
X58996Y-36929D03*
X59350Y-36929D03*
X61496Y-35275D03*
X61850Y-35275D03*
X60264Y-38110D03*
X60618Y-38110D03*
X60268Y-39083D03*
X60622Y-39083D03*
X60264Y-39406D03*
X60618Y-39406D03*
X60473Y-40831D03*
X60827Y-40831D03*
X60461Y-42173D03*
X60815Y-42173D03*
X55283Y-39252D03*
X54929Y-39252D03*
X60481Y-41173D03*
X60835Y-41173D03*
G54D20*
X55145Y-49107D03*
G54D21*
X52271Y-48173D03*
G54D20*
X55145Y-47309D03*
G54D15*
X59358Y-47224D03*
X58988Y-47224D03*
G54D22*
X60413Y-47224D03*
X59783Y-47224D03*
G54D12*
X31000Y-28000D03*
G54D19*
X62106Y-44822D03*
X62460Y-44822D03*
G54D23*
X51614Y-31677D03*
G54D24*
X51064Y-32637D03*
X52163Y-32637D03*
G54D25*
X65145Y-34215D03*
X65145Y-36319D03*
G54D26*
X65695Y-35267D03*
G54D25*
X65145Y-43762D03*
X65145Y-45866D03*
G54D26*
X65695Y-44814D03*
G54D27*
X56720Y-35822D03*
X56220Y-35822D03*
X55720Y-35822D03*
X55720Y-34571D03*
X56720Y-34571D03*
X57058Y-43744D03*
X57558Y-43744D03*
X58058Y-43744D03*
X58058Y-44995D03*
X57058Y-44995D03*
G54D28*
X59902Y-35335D03*
G54D29*
X59322Y-35237D03*
G54D30*
X59322Y-35433D03*
G54D29*
X59322Y-35630D03*
X59322Y-35040D03*
X60482Y-35433D03*
X60483Y-35630D03*
X60483Y-35237D03*
X60483Y-35040D03*
G54D31*
X59804Y-35916D03*
G54D32*
X59607Y-35916D03*
G54D31*
X60000Y-35916D03*
X60197Y-35916D03*
X59804Y-34755D03*
X59607Y-34754D03*
X60000Y-34754D03*
X60197Y-34754D03*
G54D33*
X61299Y-45208D03*
G54D34*
X61102Y-45208D03*
X61496Y-45208D03*
X61496Y-44421D03*
G54D33*
X61299Y-44421D03*
G54D34*
X61102Y-44421D03*
G54D35*
X60905Y-45011D03*
G54D36*
X60905Y-44814D03*
G54D35*
X60905Y-44618D03*
G54D36*
X61692Y-44814D03*
G54D35*
X61692Y-44618D03*
X61692Y-45011D03*
G54D37*
X61299Y-44814D03*
G54D38*
X58242Y-40948D03*
X58242Y-40580D03*
X58242Y-40216D03*
X58242Y-39845D03*
X58242Y-39480D03*
X58242Y-39113D03*
X58437Y-39113D03*
X58439Y-39480D03*
X58439Y-39845D03*
X58439Y-40216D03*
X58439Y-40580D03*
X58439Y-40948D03*
X58827Y-40948D03*
X58827Y-40580D03*
X58827Y-40216D03*
X58827Y-39845D03*
X58827Y-39480D03*
X58827Y-39113D03*
X58630Y-39113D03*
X58630Y-39480D03*
X58630Y-39845D03*
X58630Y-40216D03*
X58630Y-40580D03*
X58630Y-40948D03*
X57462Y-40948D03*
X57462Y-40580D03*
X57462Y-40216D03*
X57462Y-39845D03*
X57462Y-39480D03*
X57462Y-39113D03*
X57657Y-39113D03*
X57659Y-39480D03*
X57659Y-39845D03*
X57659Y-40216D03*
X57659Y-40580D03*
X57659Y-40948D03*
X58047Y-40948D03*
X58047Y-40580D03*
X58047Y-40216D03*
X58047Y-39845D03*
X58047Y-39480D03*
X58047Y-39113D03*
X57850Y-39113D03*
X57850Y-39480D03*
X57850Y-39845D03*
X57850Y-40216D03*
X57850Y-40580D03*
X57850Y-40948D03*
X57067Y-40948D03*
X57067Y-40580D03*
X57067Y-40216D03*
X57067Y-39845D03*
X57067Y-39480D03*
X57067Y-39113D03*
X57264Y-39113D03*
X57265Y-39480D03*
X57265Y-39845D03*
X57265Y-40216D03*
X57265Y-40580D03*
X57265Y-40948D03*
X56875Y-40948D03*
X56875Y-40580D03*
X56875Y-40216D03*
X56875Y-39845D03*
X56875Y-39480D03*
X56875Y-39113D03*
G54D39*
X58836Y-38554D03*
X59033Y-38554D03*
X58638Y-38554D03*
X58441Y-38554D03*
X58245Y-38554D03*
X58048Y-38554D03*
X57851Y-38554D03*
X57655Y-38554D03*
X57458Y-38554D03*
X57260Y-38554D03*
X57063Y-38554D03*
X56866Y-38554D03*
X56671Y-38554D03*
G54D40*
X59130Y-38330D03*
X58933Y-38330D03*
X58738Y-38330D03*
X58541Y-38330D03*
X58343Y-38330D03*
X58146Y-38330D03*
X57950Y-38330D03*
X57753Y-38330D03*
X57556Y-38330D03*
X57360Y-38330D03*
X57163Y-38330D03*
X56966Y-38330D03*
X56768Y-38330D03*
X56571Y-38330D03*
G54D39*
X56473Y-38554D03*
G54D41*
X59453Y-38653D03*
G54D39*
X59228Y-38753D03*
G54D41*
X59453Y-38852D03*
X59453Y-39048D03*
X59453Y-39245D03*
X59453Y-39442D03*
X59453Y-39638D03*
X59451Y-39835D03*
X59453Y-40032D03*
X59453Y-40228D03*
X59453Y-40427D03*
X59453Y-40622D03*
X59453Y-40820D03*
X59453Y-41017D03*
X59453Y-41212D03*
X59453Y-41400D03*
G54D39*
X59228Y-38950D03*
X59228Y-39145D03*
X59228Y-39343D03*
X59228Y-39540D03*
X59228Y-39737D03*
X59228Y-39933D03*
X59228Y-40132D03*
X59228Y-40327D03*
X59228Y-40523D03*
X59228Y-40722D03*
X59228Y-40918D03*
X59228Y-41312D03*
X59228Y-41115D03*
X58830Y-41505D03*
X59026Y-41505D03*
X58633Y-41505D03*
X58436Y-41505D03*
X58238Y-41505D03*
X58043Y-41505D03*
X57846Y-41505D03*
X57648Y-41505D03*
X57451Y-41505D03*
X57255Y-41505D03*
X57058Y-41505D03*
X56860Y-41505D03*
X56665Y-41505D03*
G54D40*
X59123Y-41730D03*
X58926Y-41730D03*
X58731Y-41730D03*
X58535Y-41730D03*
X58338Y-41730D03*
X58141Y-41730D03*
X57943Y-41730D03*
X57746Y-41730D03*
X57550Y-41729D03*
X57353Y-41730D03*
X57156Y-41730D03*
X56960Y-41730D03*
X56763Y-41730D03*
X56566Y-41730D03*
G54D39*
X56468Y-41505D03*
G54D40*
X56368Y-41730D03*
X56374Y-38330D03*
G54D41*
X56051Y-38652D03*
G54D39*
X56276Y-38751D03*
G54D41*
X56051Y-38849D03*
X56051Y-39046D03*
X56051Y-39243D03*
X56051Y-39440D03*
X56051Y-39637D03*
X56051Y-39833D03*
X56051Y-40030D03*
X56051Y-40227D03*
X56051Y-40424D03*
X56051Y-40621D03*
X56051Y-40818D03*
X56051Y-41015D03*
X56051Y-41210D03*
X56051Y-41407D03*
G54D39*
X56276Y-38948D03*
X56276Y-39144D03*
X56276Y-39341D03*
X56276Y-39538D03*
X56276Y-39735D03*
X56276Y-39932D03*
X56276Y-40129D03*
X56276Y-40326D03*
X56276Y-40522D03*
X56276Y-40719D03*
X56276Y-40916D03*
X56276Y-41310D03*
X56276Y-41113D03*
G54D38*
X56679Y-39113D03*
X56679Y-39480D03*
X56679Y-39845D03*
X56679Y-40216D03*
X56679Y-40580D03*
X56679Y-40948D03*
G54D42*
X46244Y-49346D03*
X46244Y-49846D03*
X49236Y-49846D03*
X49236Y-49346D03*
M02*
