G04 (created by PCBNEW (2013-07-07 BZR 4022)-stable) date 2014/8/22 下午 04:39:37*
%MOIN*%
G04 Gerber Fmt 3.4, Leading zero omitted, Abs format*
%FSLAX34Y34*%
G01*
G70*
G90*
G04 APERTURE LIST*
%ADD10C,0.00590551*%
%ADD11C,0.00787402*%
%ADD12C,0.0077*%
%ADD13C,0.0078*%
%ADD14C,0.0079*%
%ADD15C,0.0117*%
%ADD16C,0.0039*%
%ADD17C,0.003*%
%ADD18C,0.01*%
%ADD19C,0.0097*%
G04 APERTURE END LIST*
G54D10*
G54D11*
X54844Y-50210D02*
X55144Y-50210D01*
X54994Y-50360D02*
X54994Y-50060D01*
X55519Y-49966D02*
X55331Y-49966D01*
X55312Y-50153D01*
X55331Y-50135D01*
X55369Y-50116D01*
X55462Y-50116D01*
X55500Y-50135D01*
X55519Y-50153D01*
X55537Y-50191D01*
X55537Y-50285D01*
X55519Y-50322D01*
X55500Y-50341D01*
X55462Y-50360D01*
X55369Y-50360D01*
X55331Y-50341D01*
X55312Y-50322D01*
X55650Y-49966D02*
X55781Y-50360D01*
X55912Y-49966D01*
G54D12*
X54803Y-42578D02*
X54803Y-43090D01*
X53602Y-42578D02*
X54803Y-42578D01*
X53602Y-43070D02*
X53602Y-42578D01*
X54803Y-44055D02*
X54803Y-43090D01*
X53602Y-44035D02*
X53602Y-43090D01*
X55196Y-44586D02*
X55196Y-44055D01*
X53248Y-44586D02*
X53248Y-44055D01*
X53031Y-43090D02*
X53031Y-44055D01*
X55334Y-43090D02*
X53031Y-43090D01*
X55334Y-44055D02*
X55334Y-43090D01*
X53031Y-44055D02*
X55334Y-44055D01*
X54783Y-45511D02*
X54783Y-44586D01*
X53700Y-45531D02*
X53700Y-44586D01*
X53248Y-44586D02*
X55196Y-44586D01*
X54251Y-46043D02*
X54251Y-43090D01*
X53248Y-45531D02*
X53248Y-46043D01*
X55196Y-45531D02*
X53248Y-45531D01*
X55196Y-46043D02*
X55196Y-45531D01*
X53248Y-46043D02*
X55196Y-46043D01*
X54881Y-40078D02*
X54370Y-40078D01*
X54881Y-42066D02*
X54881Y-40078D01*
X54370Y-42066D02*
X54881Y-42066D01*
X53425Y-41574D02*
X54370Y-41574D01*
X54370Y-40551D02*
X54370Y-40531D01*
X53425Y-40551D02*
X54370Y-40551D01*
X54370Y-42066D02*
X54370Y-40078D01*
X51968Y-41062D02*
X54881Y-41062D01*
X51968Y-40551D02*
X52933Y-40551D01*
X53425Y-42066D02*
X52933Y-42066D01*
X53425Y-40078D02*
X53425Y-42066D01*
X52933Y-40078D02*
X53425Y-40078D01*
X52933Y-42066D02*
X52933Y-40078D01*
X51968Y-41574D02*
X52933Y-41574D01*
X51968Y-40551D02*
X51968Y-41574D01*
X52204Y-41712D02*
X51279Y-41712D01*
X52204Y-42244D02*
X52204Y-41712D01*
X51279Y-42244D02*
X52204Y-42244D01*
X51279Y-41712D02*
X51279Y-42244D01*
X51062Y-36673D02*
X51062Y-37185D01*
X52972Y-36673D02*
X51062Y-36673D01*
X52972Y-37185D02*
X52972Y-36673D01*
X51062Y-37185D02*
X52972Y-37185D01*
X52519Y-38149D02*
X52519Y-37185D01*
X51476Y-38149D02*
X51476Y-37185D01*
X51988Y-36673D02*
X51968Y-36673D01*
X51988Y-38149D02*
X51988Y-36673D01*
X52500Y-38641D02*
X52519Y-38641D01*
X52500Y-39625D02*
X52500Y-38641D01*
X51476Y-39625D02*
X51476Y-38641D01*
X51988Y-38149D02*
X51988Y-39625D01*
X51023Y-38641D02*
X51043Y-38641D01*
X51023Y-38149D02*
X51023Y-38641D01*
X52992Y-38149D02*
X51023Y-38149D01*
X52992Y-38641D02*
X52992Y-38149D01*
X51023Y-38641D02*
X52992Y-38641D01*
X51476Y-40177D02*
X51476Y-39625D01*
X52500Y-40177D02*
X51476Y-40177D01*
X52500Y-39625D02*
X52500Y-40177D01*
X51476Y-39625D02*
X52500Y-39625D01*
X69000Y-26600D02*
X29500Y-26600D01*
X56384Y-29350D02*
X42862Y-29350D01*
X42862Y-50846D02*
X56386Y-50846D01*
X31444Y-51633D02*
X41484Y-51633D01*
X42862Y-50846D02*
X42862Y-51633D01*
X41484Y-50846D02*
X41484Y-51633D01*
X31444Y-28562D02*
X41484Y-28562D01*
X42862Y-28562D02*
X42862Y-29350D01*
X41484Y-28562D02*
X41484Y-29350D01*
X66126Y-37091D02*
X66126Y-37736D01*
X63813Y-37092D02*
X63813Y-37732D01*
X29500Y-53600D02*
X29500Y-26600D01*
X69000Y-53600D02*
X29500Y-53600D01*
X69000Y-26598D02*
X69000Y-53600D01*
X66228Y-29350D02*
X66228Y-39492D01*
X57764Y-29350D02*
X66228Y-29350D01*
X57764Y-28562D02*
X57764Y-29350D01*
X67016Y-28562D02*
X57764Y-28562D01*
X67016Y-39492D02*
X67016Y-28562D01*
X66228Y-39492D02*
X67016Y-39492D01*
X57795Y-51633D02*
X57795Y-50846D01*
X67016Y-51633D02*
X57795Y-51633D01*
X67016Y-40948D02*
X67016Y-51633D01*
X66228Y-40948D02*
X67016Y-40948D01*
X66228Y-50846D02*
X66228Y-40948D01*
X57795Y-50846D02*
X66228Y-50846D01*
X31444Y-51633D02*
X31444Y-44413D01*
X56386Y-51633D02*
X42862Y-51633D01*
X56386Y-51633D02*
X56386Y-50846D01*
X32232Y-50846D02*
X41484Y-50846D01*
X32232Y-44413D02*
X32232Y-50846D01*
X31444Y-44413D02*
X32232Y-44413D01*
X31444Y-43390D02*
X31444Y-35555D01*
X32232Y-43390D02*
X31444Y-43390D01*
X32232Y-35555D02*
X32232Y-43390D01*
X31444Y-35555D02*
X32232Y-35555D01*
X32232Y-29350D02*
X32232Y-34570D01*
X31444Y-34570D02*
X32232Y-34570D01*
X31444Y-28562D02*
X31444Y-34570D01*
X42862Y-28562D02*
X56384Y-28562D01*
X56384Y-28562D02*
X56384Y-29350D01*
X32232Y-29350D02*
X41484Y-29350D01*
G54D13*
X63815Y-37091D02*
X66125Y-37091D01*
G54D14*
X64168Y-42571D02*
X64392Y-42571D01*
X64280Y-42963D02*
X64280Y-42571D01*
X64485Y-42571D02*
X64746Y-42963D01*
X64746Y-42571D02*
X64485Y-42963D01*
X65418Y-42963D02*
X65288Y-42777D01*
X65194Y-42963D02*
X65194Y-42571D01*
X65344Y-42571D01*
X65381Y-42590D01*
X65400Y-42609D01*
X65418Y-42646D01*
X65418Y-42702D01*
X65400Y-42739D01*
X65381Y-42758D01*
X65344Y-42777D01*
X65194Y-42777D01*
X65717Y-42758D02*
X65586Y-42758D01*
X65586Y-42963D02*
X65586Y-42571D01*
X65773Y-42571D01*
G54D13*
X63850Y-43075D02*
X66162Y-43075D01*
G54D12*
X63849Y-42447D02*
X63849Y-43075D01*
G54D13*
X63850Y-42449D02*
X66162Y-42449D01*
G54D12*
X66165Y-42447D02*
X66165Y-43075D01*
G54D13*
X63815Y-37737D02*
X66125Y-37737D01*
G54D14*
X64366Y-37606D02*
X64235Y-37420D01*
X64142Y-37606D02*
X64142Y-37214D01*
X64291Y-37214D01*
X64329Y-37233D01*
X64347Y-37252D01*
X64366Y-37289D01*
X64366Y-37345D01*
X64347Y-37382D01*
X64329Y-37401D01*
X64291Y-37420D01*
X64142Y-37420D01*
X64497Y-37214D02*
X64758Y-37606D01*
X64758Y-37214D02*
X64497Y-37606D01*
X65430Y-37606D02*
X65299Y-37420D01*
X65206Y-37606D02*
X65206Y-37214D01*
X65355Y-37214D01*
X65393Y-37233D01*
X65411Y-37252D01*
X65430Y-37289D01*
X65430Y-37345D01*
X65411Y-37382D01*
X65393Y-37401D01*
X65355Y-37420D01*
X65206Y-37420D01*
X65729Y-37401D02*
X65598Y-37401D01*
X65598Y-37606D02*
X65598Y-37214D01*
X65785Y-37214D01*
G54D15*
X56359Y-48169D02*
X56751Y-48169D01*
G54D12*
X51523Y-35221D02*
X51367Y-35221D01*
X60383Y-41705D02*
X60539Y-41705D01*
X55377Y-38744D02*
X55221Y-38744D01*
X60905Y-41689D02*
X60749Y-41689D01*
X60540Y-38599D02*
X60696Y-38599D01*
X60342Y-38587D02*
X60186Y-38587D01*
X59744Y-37855D02*
X59744Y-38011D01*
X58701Y-42963D02*
X58897Y-42963D01*
X58129Y-36338D02*
X57933Y-36338D01*
X59745Y-42953D02*
X59941Y-42953D01*
X60551Y-36751D02*
X60747Y-36751D01*
X57500Y-36948D02*
X57500Y-36752D01*
X59567Y-36771D02*
X59763Y-36771D01*
X57500Y-35944D02*
X57500Y-35748D01*
X58641Y-37893D02*
X58641Y-37697D01*
X60157Y-37361D02*
X60157Y-37165D01*
X57992Y-42854D02*
X58188Y-42854D01*
X56929Y-42854D02*
X57125Y-42854D01*
X59655Y-44419D02*
X59655Y-44615D01*
X59026Y-43996D02*
X59222Y-43996D01*
X59655Y-43376D02*
X59655Y-43572D01*
X57066Y-37972D02*
X57066Y-37776D01*
X56515Y-36555D02*
X56319Y-36555D01*
X56121Y-36555D02*
X55925Y-36555D01*
X57854Y-37972D02*
X57854Y-37776D01*
X56771Y-47048D02*
X56771Y-47322D01*
X56771Y-49036D02*
X56771Y-49310D01*
X61024Y-36909D02*
X61180Y-36909D01*
X60294Y-43307D02*
X60138Y-43307D01*
X59498Y-44823D02*
X59498Y-44979D01*
X58946Y-44595D02*
X58946Y-44439D01*
X59566Y-43996D02*
X59410Y-43996D01*
X58946Y-43552D02*
X58946Y-43396D01*
X59202Y-42953D02*
X59046Y-42953D01*
X59566Y-42953D02*
X59410Y-42953D01*
X59307Y-42399D02*
X59307Y-42555D01*
X59743Y-37440D02*
X59587Y-37440D01*
X57244Y-45551D02*
X57244Y-45707D01*
X58011Y-35355D02*
X58011Y-35511D01*
X57814Y-42814D02*
X57658Y-42814D01*
X57459Y-42814D02*
X57303Y-42814D01*
X56593Y-43208D02*
X56437Y-43208D01*
X57559Y-42244D02*
X57559Y-42400D01*
X59173Y-37185D02*
X59173Y-37341D01*
X60727Y-37440D02*
X60571Y-37440D01*
X60157Y-36851D02*
X60157Y-37007D01*
X57599Y-36338D02*
X57755Y-36338D01*
X52153Y-36418D02*
X52153Y-36574D01*
X58208Y-35768D02*
X58208Y-35924D01*
X57953Y-37362D02*
X58109Y-37362D01*
X57599Y-37362D02*
X57755Y-37362D01*
X56339Y-37165D02*
X56495Y-37165D01*
X58208Y-36772D02*
X58208Y-36928D01*
X57559Y-34488D02*
X57559Y-34644D01*
X55945Y-37165D02*
X56101Y-37165D01*
X59173Y-36851D02*
X59173Y-37007D01*
X61673Y-35197D02*
X61673Y-35353D01*
X60441Y-38032D02*
X60441Y-38188D01*
X60445Y-39005D02*
X60445Y-39161D01*
X60441Y-39328D02*
X60441Y-39484D01*
X60650Y-40753D02*
X60650Y-40909D01*
X60638Y-42095D02*
X60638Y-42251D01*
X55106Y-39330D02*
X55106Y-39174D01*
X60658Y-41095D02*
X60658Y-41251D01*
X53688Y-46914D02*
X53923Y-46914D01*
X53923Y-46914D02*
X53923Y-49432D01*
X53688Y-49432D02*
X53923Y-49432D01*
X59173Y-47302D02*
X59173Y-47146D01*
X62283Y-44744D02*
X62283Y-44900D01*
G54D15*
X50807Y-31358D02*
X52421Y-31358D01*
X52421Y-31358D02*
X52421Y-33031D01*
X52421Y-33031D02*
X50807Y-33031D01*
X50807Y-33031D02*
X50807Y-31358D01*
G54D16*
X66720Y-33928D02*
X66720Y-36606D01*
X66720Y-36606D02*
X66247Y-36606D01*
X66247Y-33928D02*
X66719Y-33928D01*
X66720Y-43475D02*
X66720Y-46153D01*
X66720Y-46153D02*
X66247Y-46153D01*
X66247Y-43475D02*
X66719Y-43475D01*
G54D13*
X57076Y-34322D02*
X57014Y-34322D01*
X57014Y-35822D02*
X57076Y-35822D01*
X55344Y-35822D02*
X55422Y-35822D01*
X55344Y-35822D02*
X55344Y-34322D01*
X55344Y-34322D02*
X55422Y-34322D01*
X57076Y-35822D02*
X57076Y-34322D01*
X56702Y-45244D02*
X56764Y-45244D01*
X56764Y-43744D02*
X56702Y-43744D01*
X58434Y-43744D02*
X58356Y-43744D01*
X58434Y-43744D02*
X58434Y-45244D01*
X58434Y-45244D02*
X58356Y-45244D01*
X56702Y-43744D02*
X56702Y-45244D01*
G54D15*
X59273Y-34706D02*
X59410Y-34706D01*
X59273Y-34706D02*
X59273Y-34843D01*
X60531Y-34843D02*
X60531Y-34706D01*
X60531Y-34706D02*
X60394Y-34706D01*
X60394Y-35964D02*
X60531Y-35964D01*
X60531Y-35827D02*
X60531Y-35964D01*
X59273Y-35827D02*
X59410Y-35964D01*
G54D11*
X60984Y-45161D02*
G75*
G03X60984Y-45161I-39J0D01*
G74*
G01*
G54D15*
X60708Y-45129D02*
X60708Y-44224D01*
X60708Y-44224D02*
X61889Y-44224D01*
X61889Y-44224D02*
X61889Y-45405D01*
X61889Y-45405D02*
X60984Y-45405D01*
X60984Y-45405D02*
X60708Y-45129D01*
G54D17*
X59603Y-38180D02*
X59603Y-41880D01*
X55901Y-38180D02*
X55901Y-41880D01*
X55901Y-38180D02*
X59603Y-38180D01*
X59603Y-41880D02*
X55901Y-41880D01*
G54D13*
X56051Y-41580D02*
X56051Y-41742D01*
X56051Y-41742D02*
X56208Y-41742D01*
X59446Y-41739D02*
X59290Y-41739D01*
X59446Y-41577D02*
X59446Y-41739D01*
X59278Y-38330D02*
X59441Y-38330D01*
X59441Y-38330D02*
X59441Y-38487D01*
X56012Y-38502D02*
X56223Y-38291D01*
X58096Y-50590D02*
X58096Y-49646D01*
X58096Y-50590D02*
X56062Y-50590D01*
X56062Y-50590D02*
X56062Y-49646D01*
X58096Y-49646D02*
X56062Y-49646D01*
X58553Y-48976D02*
X58553Y-49960D01*
X58553Y-48976D02*
X63513Y-48976D01*
X63513Y-48976D02*
X63513Y-49960D01*
X58553Y-49960D02*
X63513Y-49960D01*
X58897Y-30039D02*
X58897Y-31023D01*
X58897Y-30039D02*
X63857Y-30039D01*
X63857Y-30039D02*
X63857Y-31023D01*
X58897Y-31023D02*
X63857Y-31023D01*
X52895Y-30039D02*
X52895Y-31023D01*
X52895Y-30039D02*
X58879Y-30039D01*
X58879Y-30039D02*
X58879Y-31023D01*
X52895Y-31023D02*
X58879Y-31023D01*
G54D18*
X45811Y-48755D02*
X45811Y-50448D01*
X45811Y-50448D02*
X49669Y-50448D01*
X49669Y-50448D02*
X49669Y-48755D01*
X49669Y-48755D02*
X45811Y-48755D01*
G54D19*
G54D11*
X57214Y-48354D02*
X57064Y-48459D01*
X57214Y-48534D02*
X56899Y-48534D01*
X56899Y-48414D01*
X56914Y-48384D01*
X56929Y-48369D01*
X56959Y-48354D01*
X57004Y-48354D01*
X57034Y-48369D01*
X57049Y-48384D01*
X57064Y-48414D01*
X57064Y-48534D01*
X56929Y-48234D02*
X56914Y-48219D01*
X56899Y-48189D01*
X56899Y-48114D01*
X56914Y-48084D01*
X56929Y-48069D01*
X56959Y-48054D01*
X56989Y-48054D01*
X57034Y-48069D01*
X57214Y-48249D01*
X57214Y-48054D01*
X57214Y-47754D02*
X57214Y-47934D01*
X57214Y-47844D02*
X56899Y-47844D01*
X56944Y-47874D01*
X56974Y-47904D01*
X56989Y-47934D01*
X56899Y-47469D02*
X56899Y-47619D01*
X57049Y-47634D01*
X57034Y-47619D01*
X57019Y-47589D01*
X57019Y-47514D01*
X57034Y-47484D01*
X57049Y-47469D01*
X57079Y-47454D01*
X57154Y-47454D01*
X57184Y-47469D01*
X57199Y-47484D01*
X57214Y-47514D01*
X57214Y-47589D01*
X57199Y-47619D01*
X57184Y-47634D01*
X51968Y-35419D02*
X51818Y-35523D01*
X51968Y-35598D02*
X51653Y-35598D01*
X51653Y-35479D01*
X51668Y-35449D01*
X51683Y-35434D01*
X51713Y-35419D01*
X51758Y-35419D01*
X51788Y-35434D01*
X51803Y-35449D01*
X51818Y-35479D01*
X51818Y-35598D01*
X51788Y-35239D02*
X51773Y-35269D01*
X51758Y-35284D01*
X51728Y-35299D01*
X51713Y-35299D01*
X51683Y-35284D01*
X51668Y-35269D01*
X51653Y-35239D01*
X51653Y-35179D01*
X51668Y-35149D01*
X51683Y-35134D01*
X51713Y-35119D01*
X51728Y-35119D01*
X51758Y-35134D01*
X51773Y-35149D01*
X51788Y-35179D01*
X51788Y-35239D01*
X51803Y-35269D01*
X51818Y-35284D01*
X51848Y-35299D01*
X51908Y-35299D01*
X51938Y-35284D01*
X51953Y-35269D01*
X51968Y-35239D01*
X51968Y-35179D01*
X51953Y-35149D01*
X51938Y-35134D01*
X51908Y-35119D01*
X51848Y-35119D01*
X51818Y-35134D01*
X51803Y-35149D01*
X51788Y-35179D01*
X51758Y-34849D02*
X51968Y-34849D01*
X51638Y-34924D02*
X51863Y-34999D01*
X51863Y-34804D01*
X60284Y-41895D02*
X60134Y-42000D01*
X60284Y-42075D02*
X59970Y-42075D01*
X59970Y-41955D01*
X59985Y-41925D01*
X60000Y-41910D01*
X60029Y-41895D01*
X60074Y-41895D01*
X60104Y-41910D01*
X60119Y-41925D01*
X60134Y-41955D01*
X60134Y-42075D01*
X59970Y-41790D02*
X59970Y-41595D01*
X60089Y-41700D01*
X60089Y-41655D01*
X60104Y-41625D01*
X60119Y-41610D01*
X60149Y-41595D01*
X60224Y-41595D01*
X60254Y-41610D01*
X60269Y-41625D01*
X60284Y-41655D01*
X60284Y-41745D01*
X60269Y-41775D01*
X60254Y-41790D01*
X59970Y-41400D02*
X59970Y-41370D01*
X59985Y-41340D01*
X60000Y-41325D01*
X60029Y-41310D01*
X60089Y-41295D01*
X60164Y-41295D01*
X60224Y-41310D01*
X60254Y-41325D01*
X60269Y-41340D01*
X60284Y-41370D01*
X60284Y-41400D01*
X60269Y-41430D01*
X60254Y-41445D01*
X60224Y-41460D01*
X60164Y-41475D01*
X60089Y-41475D01*
X60029Y-41460D01*
X60000Y-41445D01*
X59985Y-41430D01*
X59970Y-41400D01*
X55107Y-38834D02*
X54957Y-38939D01*
X55107Y-39014D02*
X54792Y-39014D01*
X54792Y-38894D01*
X54807Y-38864D01*
X54822Y-38849D01*
X54852Y-38834D01*
X54897Y-38834D01*
X54927Y-38849D01*
X54942Y-38864D01*
X54957Y-38894D01*
X54957Y-39014D01*
X55107Y-38534D02*
X55107Y-38714D01*
X55107Y-38624D02*
X54792Y-38624D01*
X54837Y-38654D01*
X54867Y-38684D01*
X54882Y-38714D01*
X54897Y-38264D02*
X55107Y-38264D01*
X54777Y-38339D02*
X55002Y-38414D01*
X55002Y-38219D01*
X61347Y-41895D02*
X61197Y-42000D01*
X61347Y-42075D02*
X61032Y-42075D01*
X61032Y-41955D01*
X61047Y-41925D01*
X61062Y-41910D01*
X61092Y-41895D01*
X61137Y-41895D01*
X61167Y-41910D01*
X61182Y-41925D01*
X61197Y-41955D01*
X61197Y-42075D01*
X61032Y-41790D02*
X61032Y-41595D01*
X61152Y-41700D01*
X61152Y-41655D01*
X61167Y-41625D01*
X61182Y-41610D01*
X61212Y-41595D01*
X61287Y-41595D01*
X61317Y-41610D01*
X61332Y-41625D01*
X61347Y-41655D01*
X61347Y-41745D01*
X61332Y-41775D01*
X61317Y-41790D01*
X61347Y-41295D02*
X61347Y-41475D01*
X61347Y-41385D02*
X61032Y-41385D01*
X61077Y-41415D01*
X61107Y-41445D01*
X61122Y-41475D01*
X61131Y-38922D02*
X60981Y-39027D01*
X61131Y-39102D02*
X60816Y-39102D01*
X60816Y-38982D01*
X60831Y-38952D01*
X60846Y-38937D01*
X60876Y-38922D01*
X60921Y-38922D01*
X60951Y-38937D01*
X60966Y-38952D01*
X60981Y-38982D01*
X60981Y-39102D01*
X60816Y-38817D02*
X60816Y-38622D01*
X60936Y-38727D01*
X60936Y-38682D01*
X60951Y-38652D01*
X60966Y-38637D01*
X60996Y-38622D01*
X61071Y-38622D01*
X61101Y-38637D01*
X61116Y-38652D01*
X61131Y-38682D01*
X61131Y-38772D01*
X61116Y-38802D01*
X61101Y-38817D01*
X60816Y-38517D02*
X60816Y-38323D01*
X60936Y-38428D01*
X60936Y-38383D01*
X60951Y-38353D01*
X60966Y-38338D01*
X60996Y-38323D01*
X61071Y-38323D01*
X61101Y-38338D01*
X61116Y-38353D01*
X61131Y-38383D01*
X61131Y-38473D01*
X61116Y-38502D01*
X61101Y-38517D01*
X60068Y-38726D02*
X59918Y-38831D01*
X60068Y-38906D02*
X59753Y-38906D01*
X59753Y-38786D01*
X59768Y-38756D01*
X59783Y-38741D01*
X59813Y-38726D01*
X59858Y-38726D01*
X59888Y-38741D01*
X59903Y-38756D01*
X59918Y-38786D01*
X59918Y-38906D01*
X59753Y-38621D02*
X59753Y-38426D01*
X59873Y-38531D01*
X59873Y-38486D01*
X59888Y-38456D01*
X59903Y-38441D01*
X59933Y-38426D01*
X60008Y-38426D01*
X60038Y-38441D01*
X60053Y-38456D01*
X60068Y-38486D01*
X60068Y-38576D01*
X60053Y-38606D01*
X60038Y-38621D01*
X59783Y-38306D02*
X59768Y-38291D01*
X59753Y-38261D01*
X59753Y-38186D01*
X59768Y-38156D01*
X59783Y-38141D01*
X59813Y-38126D01*
X59843Y-38126D01*
X59888Y-38141D01*
X60068Y-38321D01*
X60068Y-38126D01*
X61234Y-37824D02*
X61129Y-37674D01*
X61054Y-37824D02*
X61054Y-37509D01*
X61174Y-37509D01*
X61204Y-37524D01*
X61219Y-37539D01*
X61234Y-37569D01*
X61234Y-37614D01*
X61219Y-37644D01*
X61204Y-37659D01*
X61174Y-37674D01*
X61054Y-37674D01*
X61339Y-37509D02*
X61534Y-37509D01*
X61429Y-37629D01*
X61474Y-37629D01*
X61504Y-37644D01*
X61519Y-37659D01*
X61534Y-37689D01*
X61534Y-37764D01*
X61519Y-37794D01*
X61504Y-37809D01*
X61474Y-37824D01*
X61384Y-37824D01*
X61354Y-37809D01*
X61339Y-37794D01*
X61804Y-37614D02*
X61804Y-37824D01*
X61729Y-37494D02*
X61654Y-37719D01*
X61849Y-37719D01*
X53454Y-43785D02*
X53454Y-43935D01*
X53139Y-43935D01*
X53454Y-43515D02*
X53454Y-43695D01*
X53454Y-43605D02*
X53139Y-43605D01*
X53184Y-43635D01*
X53214Y-43665D01*
X53229Y-43695D01*
X53169Y-43395D02*
X53154Y-43380D01*
X53139Y-43350D01*
X53139Y-43275D01*
X53154Y-43245D01*
X53169Y-43230D01*
X53199Y-43215D01*
X53229Y-43215D01*
X53274Y-43230D01*
X53454Y-43410D01*
X53454Y-43215D01*
X52410Y-37859D02*
X52410Y-38009D01*
X52095Y-38009D01*
X52125Y-37769D02*
X52110Y-37754D01*
X52095Y-37724D01*
X52095Y-37649D01*
X52110Y-37619D01*
X52125Y-37604D01*
X52155Y-37589D01*
X52185Y-37589D01*
X52230Y-37604D01*
X52410Y-37784D01*
X52410Y-37589D01*
X52095Y-37485D02*
X52095Y-37275D01*
X52410Y-37410D01*
X55225Y-43785D02*
X55225Y-43935D01*
X54910Y-43935D01*
X55225Y-43515D02*
X55225Y-43695D01*
X55225Y-43605D02*
X54910Y-43605D01*
X54955Y-43635D01*
X54985Y-43665D01*
X55000Y-43695D01*
X55225Y-43215D02*
X55225Y-43395D01*
X55225Y-43305D02*
X54910Y-43305D01*
X54955Y-43335D01*
X54985Y-43365D01*
X55000Y-43395D01*
X54773Y-40733D02*
X54773Y-40883D01*
X54458Y-40883D01*
X54458Y-40658D02*
X54458Y-40464D01*
X54578Y-40568D01*
X54578Y-40523D01*
X54593Y-40494D01*
X54608Y-40479D01*
X54638Y-40464D01*
X54713Y-40464D01*
X54743Y-40479D01*
X54758Y-40494D01*
X54773Y-40523D01*
X54773Y-40613D01*
X54758Y-40643D01*
X54743Y-40658D01*
X54458Y-40359D02*
X54458Y-40149D01*
X54773Y-40284D01*
X51293Y-38552D02*
X51143Y-38552D01*
X51143Y-38237D01*
X51383Y-38267D02*
X51398Y-38252D01*
X51428Y-38237D01*
X51503Y-38237D01*
X51533Y-38252D01*
X51548Y-38267D01*
X51563Y-38297D01*
X51563Y-38327D01*
X51548Y-38372D01*
X51368Y-38552D01*
X51563Y-38552D01*
X51743Y-38372D02*
X51713Y-38357D01*
X51698Y-38342D01*
X51683Y-38312D01*
X51683Y-38297D01*
X51698Y-38267D01*
X51713Y-38252D01*
X51743Y-38237D01*
X51803Y-38237D01*
X51833Y-38252D01*
X51848Y-38267D01*
X51863Y-38297D01*
X51863Y-38312D01*
X51848Y-38342D01*
X51833Y-38357D01*
X51803Y-38372D01*
X51743Y-38372D01*
X51713Y-38387D01*
X51698Y-38402D01*
X51683Y-38432D01*
X51683Y-38492D01*
X51698Y-38522D01*
X51713Y-38537D01*
X51743Y-38552D01*
X51803Y-38552D01*
X51833Y-38537D01*
X51848Y-38522D01*
X51863Y-38492D01*
X51863Y-38432D01*
X51848Y-38402D01*
X51833Y-38387D01*
X51803Y-38372D01*
X53336Y-40753D02*
X53336Y-40903D01*
X53021Y-40903D01*
X53021Y-40678D02*
X53021Y-40483D01*
X53141Y-40588D01*
X53141Y-40543D01*
X53156Y-40513D01*
X53171Y-40498D01*
X53201Y-40483D01*
X53276Y-40483D01*
X53306Y-40498D01*
X53321Y-40513D01*
X53336Y-40543D01*
X53336Y-40633D01*
X53321Y-40663D01*
X53306Y-40678D01*
X53021Y-40213D02*
X53021Y-40273D01*
X53036Y-40303D01*
X53051Y-40318D01*
X53096Y-40348D01*
X53156Y-40363D01*
X53276Y-40363D01*
X53306Y-40348D01*
X53321Y-40333D01*
X53336Y-40303D01*
X53336Y-40243D01*
X53321Y-40213D01*
X53306Y-40198D01*
X53276Y-40183D01*
X53201Y-40183D01*
X53171Y-40198D01*
X53156Y-40213D01*
X53141Y-40243D01*
X53141Y-40303D01*
X53156Y-40333D01*
X53171Y-40348D01*
X53201Y-40363D01*
X51293Y-37076D02*
X51143Y-37076D01*
X51143Y-36761D01*
X51383Y-36791D02*
X51398Y-36776D01*
X51428Y-36761D01*
X51503Y-36761D01*
X51533Y-36776D01*
X51548Y-36791D01*
X51563Y-36821D01*
X51563Y-36851D01*
X51548Y-36896D01*
X51368Y-37076D01*
X51563Y-37076D01*
X51713Y-37076D02*
X51773Y-37076D01*
X51803Y-37061D01*
X51818Y-37046D01*
X51848Y-37001D01*
X51863Y-36941D01*
X51863Y-36821D01*
X51848Y-36791D01*
X51833Y-36776D01*
X51803Y-36761D01*
X51743Y-36761D01*
X51713Y-36776D01*
X51698Y-36791D01*
X51683Y-36821D01*
X51683Y-36896D01*
X51698Y-36926D01*
X51713Y-36941D01*
X51743Y-36956D01*
X51803Y-36956D01*
X51833Y-36941D01*
X51848Y-36926D01*
X51863Y-36896D01*
X51529Y-42135D02*
X51379Y-42135D01*
X51379Y-41820D01*
X51769Y-41925D02*
X51769Y-42135D01*
X51694Y-41805D02*
X51619Y-42030D01*
X51814Y-42030D01*
X51919Y-41850D02*
X51934Y-41835D01*
X51964Y-41820D01*
X52039Y-41820D01*
X52069Y-41835D01*
X52084Y-41850D01*
X52099Y-41880D01*
X52099Y-41910D01*
X52084Y-41955D01*
X51904Y-42135D01*
X52099Y-42135D01*
X53714Y-41446D02*
X53564Y-41446D01*
X53564Y-41131D01*
X53789Y-41131D02*
X53984Y-41131D01*
X53879Y-41251D01*
X53924Y-41251D01*
X53954Y-41266D01*
X53969Y-41281D01*
X53984Y-41311D01*
X53984Y-41386D01*
X53969Y-41416D01*
X53954Y-41431D01*
X53924Y-41446D01*
X53834Y-41446D01*
X53804Y-41431D01*
X53789Y-41416D01*
X54104Y-41161D02*
X54119Y-41146D01*
X54149Y-41131D01*
X54224Y-41131D01*
X54254Y-41146D01*
X54269Y-41161D01*
X54284Y-41191D01*
X54284Y-41221D01*
X54269Y-41266D01*
X54089Y-41446D01*
X54284Y-41446D01*
G54D10*
X58576Y-43031D02*
X58576Y-43162D01*
X58300Y-43162D01*
X58576Y-42795D02*
X58576Y-42952D01*
X58576Y-42874D02*
X58300Y-42874D01*
X58339Y-42900D01*
X58366Y-42926D01*
X58379Y-42952D01*
X58300Y-42703D02*
X58300Y-42532D01*
X58405Y-42624D01*
X58405Y-42585D01*
X58418Y-42559D01*
X58431Y-42545D01*
X58458Y-42532D01*
X58523Y-42532D01*
X58549Y-42545D01*
X58562Y-42559D01*
X58576Y-42585D01*
X58576Y-42664D01*
X58562Y-42690D01*
X58549Y-42703D01*
G54D11*
X56367Y-42643D02*
X56367Y-42793D01*
X56052Y-42793D01*
X56052Y-42568D02*
X56052Y-42373D01*
X56172Y-42478D01*
X56172Y-42433D01*
X56187Y-42403D01*
X56202Y-42388D01*
X56232Y-42373D01*
X56307Y-42373D01*
X56337Y-42388D01*
X56352Y-42403D01*
X56367Y-42433D01*
X56367Y-42523D01*
X56352Y-42553D01*
X56337Y-42568D01*
X56052Y-42268D02*
X56052Y-42073D01*
X56172Y-42178D01*
X56172Y-42133D01*
X56187Y-42103D01*
X56202Y-42088D01*
X56232Y-42073D01*
X56307Y-42073D01*
X56337Y-42088D01*
X56352Y-42103D01*
X56367Y-42133D01*
X56367Y-42223D01*
X56352Y-42253D01*
X56337Y-42268D01*
X54541Y-45934D02*
X54391Y-45934D01*
X54391Y-45619D01*
X54631Y-45649D02*
X54646Y-45634D01*
X54676Y-45619D01*
X54751Y-45619D01*
X54781Y-45634D01*
X54796Y-45649D01*
X54811Y-45679D01*
X54811Y-45709D01*
X54796Y-45754D01*
X54616Y-45934D01*
X54811Y-45934D01*
X55081Y-45619D02*
X55021Y-45619D01*
X54991Y-45634D01*
X54976Y-45649D01*
X54946Y-45694D01*
X54931Y-45754D01*
X54931Y-45874D01*
X54946Y-45904D01*
X54961Y-45919D01*
X54991Y-45934D01*
X55051Y-45934D01*
X55081Y-45919D01*
X55096Y-45904D01*
X55111Y-45874D01*
X55111Y-45799D01*
X55096Y-45769D01*
X55081Y-45754D01*
X55051Y-45739D01*
X54991Y-45739D01*
X54961Y-45754D01*
X54946Y-45769D01*
X54931Y-45799D01*
X54103Y-45261D02*
X54103Y-45411D01*
X53788Y-45411D01*
X54103Y-44991D02*
X54103Y-45171D01*
X54103Y-45081D02*
X53788Y-45081D01*
X53833Y-45111D01*
X53863Y-45141D01*
X53878Y-45171D01*
X53788Y-44886D02*
X53788Y-44676D01*
X54103Y-44811D01*
X54521Y-44477D02*
X54371Y-44477D01*
X54371Y-44162D01*
X54611Y-44192D02*
X54626Y-44177D01*
X54656Y-44162D01*
X54731Y-44162D01*
X54761Y-44177D01*
X54776Y-44192D01*
X54791Y-44222D01*
X54791Y-44252D01*
X54776Y-44297D01*
X54596Y-44477D01*
X54791Y-44477D01*
X54911Y-44192D02*
X54926Y-44177D01*
X54956Y-44162D01*
X55031Y-44162D01*
X55061Y-44177D01*
X55076Y-44192D01*
X55091Y-44222D01*
X55091Y-44252D01*
X55076Y-44297D01*
X54896Y-44477D01*
X55091Y-44477D01*
X56175Y-38040D02*
X56025Y-38040D01*
X56025Y-37725D01*
X56250Y-37725D02*
X56445Y-37725D01*
X56340Y-37845D01*
X56385Y-37845D01*
X56415Y-37860D01*
X56430Y-37875D01*
X56445Y-37905D01*
X56445Y-37980D01*
X56430Y-38010D01*
X56415Y-38025D01*
X56385Y-38040D01*
X56295Y-38040D01*
X56265Y-38025D01*
X56250Y-38010D01*
X56625Y-37860D02*
X56595Y-37845D01*
X56580Y-37830D01*
X56565Y-37800D01*
X56565Y-37785D01*
X56580Y-37755D01*
X56595Y-37740D01*
X56625Y-37725D01*
X56685Y-37725D01*
X56715Y-37740D01*
X56730Y-37755D01*
X56745Y-37785D01*
X56745Y-37800D01*
X56730Y-37830D01*
X56715Y-37845D01*
X56685Y-37860D01*
X56625Y-37860D01*
X56595Y-37875D01*
X56580Y-37890D01*
X56565Y-37920D01*
X56565Y-37980D01*
X56580Y-38010D01*
X56595Y-38025D01*
X56625Y-38040D01*
X56685Y-38040D01*
X56715Y-38025D01*
X56730Y-38010D01*
X56745Y-37980D01*
X56745Y-37920D01*
X56730Y-37890D01*
X56715Y-37875D01*
X56685Y-37860D01*
X57155Y-36678D02*
X57155Y-36828D01*
X56840Y-36828D01*
X56840Y-36603D02*
X56840Y-36408D01*
X56960Y-36513D01*
X56960Y-36468D01*
X56975Y-36438D01*
X56990Y-36423D01*
X57020Y-36408D01*
X57095Y-36408D01*
X57125Y-36423D01*
X57140Y-36438D01*
X57155Y-36468D01*
X57155Y-36558D01*
X57140Y-36588D01*
X57125Y-36603D01*
X56945Y-36138D02*
X57155Y-36138D01*
X56825Y-36213D02*
X57050Y-36288D01*
X57050Y-36093D01*
X55816Y-36796D02*
X55816Y-36946D01*
X55501Y-36946D01*
X55501Y-36721D02*
X55501Y-36526D01*
X55621Y-36631D01*
X55621Y-36586D01*
X55636Y-36556D01*
X55651Y-36541D01*
X55681Y-36526D01*
X55756Y-36526D01*
X55786Y-36541D01*
X55801Y-36556D01*
X55816Y-36586D01*
X55816Y-36676D01*
X55801Y-36706D01*
X55786Y-36721D01*
X55501Y-36242D02*
X55501Y-36392D01*
X55651Y-36407D01*
X55636Y-36392D01*
X55621Y-36362D01*
X55621Y-36287D01*
X55636Y-36257D01*
X55651Y-36242D01*
X55681Y-36227D01*
X55756Y-36227D01*
X55786Y-36242D01*
X55801Y-36257D01*
X55816Y-36287D01*
X55816Y-36362D01*
X55801Y-36392D01*
X55786Y-36407D01*
X51805Y-40048D02*
X51655Y-40048D01*
X51655Y-39733D01*
X52045Y-39838D02*
X52045Y-40048D01*
X51970Y-39718D02*
X51895Y-39943D01*
X52090Y-39943D01*
X52270Y-39733D02*
X52300Y-39733D01*
X52330Y-39748D01*
X52345Y-39763D01*
X52360Y-39793D01*
X52375Y-39853D01*
X52375Y-39928D01*
X52360Y-39988D01*
X52345Y-40018D01*
X52330Y-40033D01*
X52300Y-40048D01*
X52270Y-40048D01*
X52240Y-40033D01*
X52225Y-40018D01*
X52210Y-39988D01*
X52195Y-39928D01*
X52195Y-39853D01*
X52210Y-39793D01*
X52225Y-39763D01*
X52240Y-39748D01*
X52270Y-39733D01*
X56372Y-46888D02*
X56357Y-46903D01*
X56312Y-46918D01*
X56282Y-46918D01*
X56237Y-46903D01*
X56207Y-46873D01*
X56192Y-46843D01*
X56177Y-46783D01*
X56177Y-46738D01*
X56192Y-46678D01*
X56207Y-46648D01*
X56237Y-46618D01*
X56282Y-46603D01*
X56312Y-46603D01*
X56357Y-46618D01*
X56372Y-46633D01*
X56552Y-46738D02*
X56522Y-46723D01*
X56507Y-46708D01*
X56492Y-46678D01*
X56492Y-46663D01*
X56507Y-46633D01*
X56522Y-46618D01*
X56552Y-46603D01*
X56612Y-46603D01*
X56642Y-46618D01*
X56657Y-46633D01*
X56672Y-46663D01*
X56672Y-46678D01*
X56657Y-46708D01*
X56642Y-46723D01*
X56612Y-46738D01*
X56552Y-46738D01*
X56522Y-46753D01*
X56507Y-46768D01*
X56492Y-46798D01*
X56492Y-46858D01*
X56507Y-46888D01*
X56522Y-46903D01*
X56552Y-46918D01*
X56612Y-46918D01*
X56642Y-46903D01*
X56657Y-46888D01*
X56672Y-46858D01*
X56672Y-46798D01*
X56657Y-46768D01*
X56642Y-46753D01*
X56612Y-46738D01*
X56972Y-46918D02*
X56792Y-46918D01*
X56882Y-46918D02*
X56882Y-46603D01*
X56852Y-46648D01*
X56822Y-46678D01*
X56792Y-46693D01*
X57140Y-48916D02*
X57125Y-48931D01*
X57080Y-48946D01*
X57050Y-48946D01*
X57005Y-48931D01*
X56975Y-48901D01*
X56960Y-48871D01*
X56945Y-48811D01*
X56945Y-48766D01*
X56960Y-48706D01*
X56975Y-48676D01*
X57005Y-48646D01*
X57050Y-48631D01*
X57080Y-48631D01*
X57125Y-48646D01*
X57140Y-48661D01*
X57320Y-48766D02*
X57290Y-48751D01*
X57275Y-48736D01*
X57260Y-48706D01*
X57260Y-48691D01*
X57275Y-48661D01*
X57290Y-48646D01*
X57320Y-48631D01*
X57380Y-48631D01*
X57410Y-48646D01*
X57425Y-48661D01*
X57440Y-48691D01*
X57440Y-48706D01*
X57425Y-48736D01*
X57410Y-48751D01*
X57380Y-48766D01*
X57320Y-48766D01*
X57290Y-48781D01*
X57275Y-48796D01*
X57260Y-48826D01*
X57260Y-48886D01*
X57275Y-48916D01*
X57290Y-48931D01*
X57320Y-48946D01*
X57380Y-48946D01*
X57410Y-48931D01*
X57425Y-48916D01*
X57440Y-48886D01*
X57440Y-48826D01*
X57425Y-48796D01*
X57410Y-48781D01*
X57380Y-48766D01*
X57619Y-48766D02*
X57589Y-48751D01*
X57574Y-48736D01*
X57559Y-48706D01*
X57559Y-48691D01*
X57574Y-48661D01*
X57589Y-48646D01*
X57619Y-48631D01*
X57679Y-48631D01*
X57709Y-48646D01*
X57724Y-48661D01*
X57739Y-48691D01*
X57739Y-48706D01*
X57724Y-48736D01*
X57709Y-48751D01*
X57679Y-48766D01*
X57619Y-48766D01*
X57589Y-48781D01*
X57574Y-48796D01*
X57559Y-48826D01*
X57559Y-48886D01*
X57574Y-48916D01*
X57589Y-48931D01*
X57619Y-48946D01*
X57679Y-48946D01*
X57709Y-48931D01*
X57724Y-48916D01*
X57739Y-48886D01*
X57739Y-48826D01*
X57724Y-48796D01*
X57709Y-48781D01*
X57679Y-48766D01*
X61593Y-37111D02*
X61608Y-37126D01*
X61623Y-37171D01*
X61623Y-37201D01*
X61608Y-37246D01*
X61578Y-37276D01*
X61548Y-37291D01*
X61488Y-37306D01*
X61443Y-37306D01*
X61383Y-37291D01*
X61353Y-37276D01*
X61323Y-37246D01*
X61308Y-37201D01*
X61308Y-37171D01*
X61323Y-37126D01*
X61338Y-37111D01*
X61308Y-36826D02*
X61308Y-36976D01*
X61458Y-36991D01*
X61443Y-36976D01*
X61428Y-36946D01*
X61428Y-36871D01*
X61443Y-36841D01*
X61458Y-36826D01*
X61488Y-36811D01*
X61563Y-36811D01*
X61593Y-36826D01*
X61608Y-36841D01*
X61623Y-36871D01*
X61623Y-36946D01*
X61608Y-36976D01*
X61593Y-36991D01*
X61308Y-36706D02*
X61308Y-36497D01*
X61623Y-36631D01*
X60707Y-43509D02*
X60722Y-43524D01*
X60737Y-43569D01*
X60737Y-43599D01*
X60722Y-43644D01*
X60692Y-43674D01*
X60662Y-43689D01*
X60602Y-43704D01*
X60557Y-43704D01*
X60497Y-43689D01*
X60467Y-43674D01*
X60437Y-43644D01*
X60422Y-43599D01*
X60422Y-43569D01*
X60437Y-43524D01*
X60452Y-43509D01*
X60422Y-43404D02*
X60422Y-43209D01*
X60542Y-43314D01*
X60542Y-43269D01*
X60557Y-43239D01*
X60572Y-43224D01*
X60602Y-43209D01*
X60677Y-43209D01*
X60707Y-43224D01*
X60722Y-43239D01*
X60737Y-43269D01*
X60737Y-43359D01*
X60722Y-43389D01*
X60707Y-43404D01*
X60422Y-42924D02*
X60422Y-43074D01*
X60572Y-43089D01*
X60557Y-43074D01*
X60542Y-43044D01*
X60542Y-42969D01*
X60557Y-42939D01*
X60572Y-42924D01*
X60602Y-42909D01*
X60677Y-42909D01*
X60707Y-42924D01*
X60722Y-42939D01*
X60737Y-42969D01*
X60737Y-43044D01*
X60722Y-43074D01*
X60707Y-43089D01*
X59155Y-45373D02*
X59140Y-45388D01*
X59095Y-45403D01*
X59065Y-45403D01*
X59020Y-45388D01*
X58990Y-45358D01*
X58975Y-45328D01*
X58960Y-45268D01*
X58960Y-45223D01*
X58975Y-45163D01*
X58990Y-45133D01*
X59020Y-45103D01*
X59065Y-45088D01*
X59095Y-45088D01*
X59140Y-45103D01*
X59155Y-45118D01*
X59455Y-45403D02*
X59275Y-45403D01*
X59365Y-45403D02*
X59365Y-45088D01*
X59335Y-45133D01*
X59305Y-45163D01*
X59275Y-45178D01*
X59650Y-45088D02*
X59680Y-45088D01*
X59710Y-45103D01*
X59725Y-45118D01*
X59740Y-45148D01*
X59755Y-45208D01*
X59755Y-45283D01*
X59740Y-45343D01*
X59725Y-45373D01*
X59710Y-45388D01*
X59680Y-45403D01*
X59650Y-45403D01*
X59620Y-45388D01*
X59605Y-45373D01*
X59590Y-45343D01*
X59575Y-45283D01*
X59575Y-45208D01*
X59590Y-45148D01*
X59605Y-45118D01*
X59620Y-45103D01*
X59650Y-45088D01*
X60055Y-45403D02*
X59875Y-45403D01*
X59965Y-45403D02*
X59965Y-45088D01*
X59935Y-45133D01*
X59905Y-45163D01*
X59875Y-45178D01*
X53517Y-45904D02*
X53502Y-45919D01*
X53458Y-45934D01*
X53428Y-45934D01*
X53383Y-45919D01*
X53353Y-45889D01*
X53338Y-45859D01*
X53323Y-45799D01*
X53323Y-45754D01*
X53338Y-45694D01*
X53353Y-45664D01*
X53383Y-45634D01*
X53428Y-45619D01*
X53458Y-45619D01*
X53502Y-45634D01*
X53517Y-45649D01*
X53622Y-45619D02*
X53817Y-45619D01*
X53712Y-45739D01*
X53757Y-45739D01*
X53787Y-45754D01*
X53802Y-45769D01*
X53817Y-45799D01*
X53817Y-45874D01*
X53802Y-45904D01*
X53787Y-45919D01*
X53757Y-45934D01*
X53667Y-45934D01*
X53637Y-45919D01*
X53622Y-45904D01*
X53922Y-45619D02*
X54117Y-45619D01*
X54012Y-45739D01*
X54057Y-45739D01*
X54087Y-45754D01*
X54102Y-45769D01*
X54117Y-45799D01*
X54117Y-45874D01*
X54102Y-45904D01*
X54087Y-45919D01*
X54057Y-45934D01*
X53967Y-45934D01*
X53937Y-45919D01*
X53922Y-45904D01*
X54684Y-45261D02*
X54699Y-45276D01*
X54714Y-45321D01*
X54714Y-45351D01*
X54699Y-45396D01*
X54669Y-45426D01*
X54639Y-45441D01*
X54579Y-45456D01*
X54534Y-45456D01*
X54474Y-45441D01*
X54444Y-45426D01*
X54414Y-45396D01*
X54399Y-45351D01*
X54399Y-45321D01*
X54414Y-45276D01*
X54429Y-45261D01*
X54399Y-45156D02*
X54399Y-44961D01*
X54519Y-45066D01*
X54519Y-45021D01*
X54534Y-44991D01*
X54549Y-44976D01*
X54579Y-44961D01*
X54654Y-44961D01*
X54684Y-44976D01*
X54699Y-44991D01*
X54714Y-45021D01*
X54714Y-45111D01*
X54699Y-45141D01*
X54684Y-45156D01*
X54504Y-44691D02*
X54714Y-44691D01*
X54384Y-44766D02*
X54609Y-44841D01*
X54609Y-44646D01*
X53517Y-44447D02*
X53502Y-44462D01*
X53458Y-44477D01*
X53428Y-44477D01*
X53383Y-44462D01*
X53353Y-44432D01*
X53338Y-44402D01*
X53323Y-44342D01*
X53323Y-44297D01*
X53338Y-44237D01*
X53353Y-44207D01*
X53383Y-44177D01*
X53428Y-44162D01*
X53458Y-44162D01*
X53502Y-44177D01*
X53517Y-44192D01*
X53622Y-44162D02*
X53832Y-44162D01*
X53697Y-44477D01*
X53937Y-44192D02*
X53952Y-44177D01*
X53982Y-44162D01*
X54057Y-44162D01*
X54087Y-44177D01*
X54102Y-44192D01*
X54117Y-44222D01*
X54117Y-44252D01*
X54102Y-44297D01*
X53922Y-44477D01*
X54117Y-44477D01*
X54014Y-43785D02*
X54029Y-43800D01*
X54044Y-43845D01*
X54044Y-43875D01*
X54029Y-43920D01*
X53999Y-43950D01*
X53969Y-43965D01*
X53909Y-43980D01*
X53864Y-43980D01*
X53804Y-43965D01*
X53774Y-43950D01*
X53744Y-43920D01*
X53729Y-43875D01*
X53729Y-43845D01*
X53744Y-43800D01*
X53759Y-43785D01*
X53729Y-43500D02*
X53729Y-43650D01*
X53879Y-43665D01*
X53864Y-43650D01*
X53849Y-43620D01*
X53849Y-43545D01*
X53864Y-43515D01*
X53879Y-43500D01*
X53909Y-43485D01*
X53984Y-43485D01*
X54014Y-43500D01*
X54029Y-43515D01*
X54044Y-43545D01*
X54044Y-43620D01*
X54029Y-43650D01*
X54014Y-43665D01*
X53834Y-43215D02*
X54044Y-43215D01*
X53714Y-43290D02*
X53939Y-43365D01*
X53939Y-43170D01*
X54644Y-43765D02*
X54659Y-43780D01*
X54674Y-43825D01*
X54674Y-43855D01*
X54659Y-43900D01*
X54629Y-43930D01*
X54599Y-43945D01*
X54539Y-43960D01*
X54494Y-43960D01*
X54434Y-43945D01*
X54404Y-43930D01*
X54374Y-43900D01*
X54359Y-43855D01*
X54359Y-43825D01*
X54374Y-43780D01*
X54389Y-43765D01*
X54359Y-43480D02*
X54359Y-43630D01*
X54509Y-43645D01*
X54494Y-43630D01*
X54479Y-43600D01*
X54479Y-43525D01*
X54494Y-43495D01*
X54509Y-43480D01*
X54539Y-43465D01*
X54614Y-43465D01*
X54644Y-43480D01*
X54659Y-43495D01*
X54674Y-43525D01*
X54674Y-43600D01*
X54659Y-43630D01*
X54644Y-43645D01*
X54674Y-43165D02*
X54674Y-43345D01*
X54674Y-43255D02*
X54359Y-43255D01*
X54404Y-43285D01*
X54434Y-43315D01*
X54449Y-43345D01*
X53860Y-42951D02*
X53845Y-42966D01*
X53800Y-42981D01*
X53770Y-42981D01*
X53725Y-42966D01*
X53695Y-42936D01*
X53680Y-42906D01*
X53665Y-42846D01*
X53665Y-42801D01*
X53680Y-42741D01*
X53695Y-42711D01*
X53725Y-42681D01*
X53770Y-42666D01*
X53800Y-42666D01*
X53845Y-42681D01*
X53860Y-42696D01*
X54160Y-42981D02*
X53980Y-42981D01*
X54070Y-42981D02*
X54070Y-42666D01*
X54040Y-42711D01*
X54010Y-42741D01*
X53980Y-42756D01*
X54280Y-42696D02*
X54295Y-42681D01*
X54325Y-42666D01*
X54400Y-42666D01*
X54430Y-42681D01*
X54445Y-42696D01*
X54460Y-42726D01*
X54460Y-42756D01*
X54445Y-42801D01*
X54265Y-42981D01*
X54460Y-42981D01*
X54655Y-42666D02*
X54685Y-42666D01*
X54715Y-42681D01*
X54730Y-42696D01*
X54745Y-42726D01*
X54760Y-42786D01*
X54760Y-42861D01*
X54745Y-42921D01*
X54730Y-42951D01*
X54715Y-42966D01*
X54685Y-42981D01*
X54655Y-42981D01*
X54625Y-42966D01*
X54610Y-42951D01*
X54595Y-42921D01*
X54580Y-42861D01*
X54580Y-42786D01*
X54595Y-42726D01*
X54610Y-42696D01*
X54625Y-42681D01*
X54655Y-42666D01*
X53325Y-41757D02*
X53340Y-41772D01*
X53355Y-41817D01*
X53355Y-41847D01*
X53340Y-41892D01*
X53310Y-41922D01*
X53280Y-41937D01*
X53220Y-41952D01*
X53175Y-41952D01*
X53115Y-41937D01*
X53085Y-41922D01*
X53055Y-41892D01*
X53040Y-41847D01*
X53040Y-41817D01*
X53055Y-41772D01*
X53070Y-41757D01*
X53355Y-41607D02*
X53355Y-41547D01*
X53340Y-41517D01*
X53325Y-41502D01*
X53280Y-41472D01*
X53220Y-41457D01*
X53100Y-41457D01*
X53070Y-41472D01*
X53055Y-41487D01*
X53040Y-41517D01*
X53040Y-41577D01*
X53055Y-41607D01*
X53070Y-41622D01*
X53100Y-41637D01*
X53175Y-41637D01*
X53205Y-41622D01*
X53220Y-41607D01*
X53235Y-41577D01*
X53235Y-41517D01*
X53220Y-41487D01*
X53205Y-41472D01*
X53175Y-41457D01*
X53355Y-41157D02*
X53355Y-41337D01*
X53355Y-41247D02*
X53040Y-41247D01*
X53085Y-41277D01*
X53115Y-41307D01*
X53130Y-41337D01*
X56234Y-45727D02*
X56219Y-45742D01*
X56174Y-45757D01*
X56144Y-45757D01*
X56099Y-45742D01*
X56069Y-45712D01*
X56054Y-45682D01*
X56039Y-45622D01*
X56039Y-45577D01*
X56054Y-45517D01*
X56069Y-45487D01*
X56099Y-45457D01*
X56144Y-45442D01*
X56174Y-45442D01*
X56219Y-45457D01*
X56234Y-45472D01*
X56519Y-45442D02*
X56369Y-45442D01*
X56354Y-45592D01*
X56369Y-45577D01*
X56399Y-45562D01*
X56474Y-45562D01*
X56504Y-45577D01*
X56519Y-45592D01*
X56534Y-45622D01*
X56534Y-45697D01*
X56519Y-45727D01*
X56504Y-45742D01*
X56474Y-45757D01*
X56399Y-45757D01*
X56369Y-45742D01*
X56354Y-45727D01*
X56684Y-45757D02*
X56744Y-45757D01*
X56774Y-45742D01*
X56789Y-45727D01*
X56819Y-45682D01*
X56834Y-45622D01*
X56834Y-45502D01*
X56819Y-45472D01*
X56804Y-45457D01*
X56774Y-45442D01*
X56714Y-45442D01*
X56684Y-45457D01*
X56669Y-45472D01*
X56654Y-45502D01*
X56654Y-45577D01*
X56669Y-45607D01*
X56684Y-45622D01*
X56714Y-45637D01*
X56774Y-45637D01*
X56804Y-45622D01*
X56819Y-45607D01*
X56834Y-45577D01*
X57809Y-35215D02*
X57794Y-35230D01*
X57749Y-35245D01*
X57719Y-35245D01*
X57674Y-35230D01*
X57644Y-35200D01*
X57629Y-35170D01*
X57614Y-35110D01*
X57614Y-35065D01*
X57629Y-35005D01*
X57644Y-34975D01*
X57674Y-34945D01*
X57719Y-34930D01*
X57749Y-34930D01*
X57794Y-34945D01*
X57809Y-34960D01*
X57929Y-34960D02*
X57944Y-34945D01*
X57974Y-34930D01*
X58049Y-34930D01*
X58079Y-34945D01*
X58094Y-34960D01*
X58109Y-34990D01*
X58109Y-35020D01*
X58094Y-35065D01*
X57914Y-35245D01*
X58109Y-35245D01*
X58214Y-34930D02*
X58424Y-34930D01*
X58289Y-35245D01*
G54D10*
X58195Y-42401D02*
X58208Y-42414D01*
X58221Y-42454D01*
X58221Y-42480D01*
X58208Y-42519D01*
X58182Y-42545D01*
X58156Y-42559D01*
X58103Y-42572D01*
X58064Y-42572D01*
X58011Y-42559D01*
X57985Y-42545D01*
X57959Y-42519D01*
X57946Y-42480D01*
X57946Y-42454D01*
X57959Y-42414D01*
X57972Y-42401D01*
X57946Y-42165D02*
X57946Y-42217D01*
X57959Y-42244D01*
X57972Y-42257D01*
X58011Y-42283D01*
X58064Y-42296D01*
X58169Y-42296D01*
X58195Y-42283D01*
X58208Y-42270D01*
X58221Y-42244D01*
X58221Y-42191D01*
X58208Y-42165D01*
X58195Y-42152D01*
X58169Y-42139D01*
X58103Y-42139D01*
X58077Y-42152D01*
X58064Y-42165D01*
X58051Y-42191D01*
X58051Y-42244D01*
X58064Y-42270D01*
X58077Y-42283D01*
X58103Y-42296D01*
X58221Y-41876D02*
X58221Y-42034D01*
X58221Y-41955D02*
X57946Y-41955D01*
X57985Y-41981D01*
X58011Y-42007D01*
X58024Y-42034D01*
G54D11*
X56770Y-42623D02*
X56785Y-42638D01*
X56800Y-42683D01*
X56800Y-42713D01*
X56785Y-42758D01*
X56755Y-42788D01*
X56725Y-42803D01*
X56665Y-42818D01*
X56620Y-42818D01*
X56560Y-42803D01*
X56530Y-42788D01*
X56500Y-42758D01*
X56485Y-42713D01*
X56485Y-42683D01*
X56500Y-42638D01*
X56515Y-42623D01*
X56485Y-42353D02*
X56485Y-42413D01*
X56500Y-42443D01*
X56515Y-42458D01*
X56560Y-42488D01*
X56620Y-42503D01*
X56740Y-42503D01*
X56770Y-42488D01*
X56785Y-42473D01*
X56800Y-42443D01*
X56800Y-42383D01*
X56785Y-42353D01*
X56770Y-42338D01*
X56740Y-42323D01*
X56665Y-42323D01*
X56635Y-42338D01*
X56620Y-42353D01*
X56605Y-42383D01*
X56605Y-42443D01*
X56620Y-42473D01*
X56635Y-42488D01*
X56665Y-42503D01*
X56485Y-42218D02*
X56485Y-42023D01*
X56605Y-42128D01*
X56605Y-42083D01*
X56620Y-42053D01*
X56635Y-42038D01*
X56665Y-42023D01*
X56740Y-42023D01*
X56770Y-42038D01*
X56785Y-42053D01*
X56800Y-42083D01*
X56800Y-42173D01*
X56785Y-42203D01*
X56770Y-42218D01*
X56298Y-43529D02*
X56313Y-43544D01*
X56328Y-43589D01*
X56328Y-43619D01*
X56313Y-43664D01*
X56283Y-43694D01*
X56253Y-43709D01*
X56193Y-43724D01*
X56148Y-43724D01*
X56088Y-43709D01*
X56058Y-43694D01*
X56028Y-43664D01*
X56013Y-43619D01*
X56013Y-43589D01*
X56028Y-43544D01*
X56043Y-43529D01*
X56328Y-43379D02*
X56328Y-43319D01*
X56313Y-43289D01*
X56298Y-43274D01*
X56253Y-43244D01*
X56193Y-43229D01*
X56073Y-43229D01*
X56043Y-43244D01*
X56028Y-43259D01*
X56013Y-43289D01*
X56013Y-43349D01*
X56028Y-43379D01*
X56043Y-43394D01*
X56073Y-43409D01*
X56148Y-43409D01*
X56178Y-43394D01*
X56193Y-43379D01*
X56208Y-43349D01*
X56208Y-43289D01*
X56193Y-43259D01*
X56178Y-43244D01*
X56148Y-43229D01*
X56013Y-43034D02*
X56013Y-43004D01*
X56028Y-42974D01*
X56043Y-42959D01*
X56073Y-42944D01*
X56133Y-42929D01*
X56208Y-42929D01*
X56268Y-42944D01*
X56298Y-42959D01*
X56313Y-42974D01*
X56328Y-43004D01*
X56328Y-43034D01*
X56313Y-43064D01*
X56298Y-43079D01*
X56268Y-43094D01*
X56208Y-43109D01*
X56133Y-43109D01*
X56073Y-43094D01*
X56043Y-43079D01*
X56028Y-43064D01*
X56013Y-43034D01*
G54D10*
X57407Y-42140D02*
X57395Y-42151D01*
X57362Y-42162D01*
X57339Y-42162D01*
X57305Y-42151D01*
X57283Y-42128D01*
X57272Y-42106D01*
X57260Y-42061D01*
X57260Y-42027D01*
X57272Y-41982D01*
X57283Y-41960D01*
X57305Y-41937D01*
X57339Y-41926D01*
X57362Y-41926D01*
X57395Y-41937D01*
X57407Y-41948D01*
X57497Y-41948D02*
X57508Y-41937D01*
X57530Y-41926D01*
X57587Y-41926D01*
X57609Y-41937D01*
X57620Y-41948D01*
X57632Y-41971D01*
X57632Y-41993D01*
X57620Y-42027D01*
X57485Y-42162D01*
X57632Y-42162D01*
X57857Y-42162D02*
X57722Y-42162D01*
X57789Y-42162D02*
X57789Y-41926D01*
X57767Y-41960D01*
X57744Y-41982D01*
X57722Y-41993D01*
G54D11*
X52258Y-41416D02*
X52243Y-41431D01*
X52198Y-41446D01*
X52168Y-41446D01*
X52123Y-41431D01*
X52093Y-41401D01*
X52078Y-41371D01*
X52063Y-41311D01*
X52063Y-41266D01*
X52078Y-41206D01*
X52093Y-41176D01*
X52123Y-41146D01*
X52168Y-41131D01*
X52198Y-41131D01*
X52243Y-41146D01*
X52258Y-41161D01*
X52408Y-41446D02*
X52468Y-41446D01*
X52498Y-41431D01*
X52513Y-41416D01*
X52543Y-41371D01*
X52558Y-41311D01*
X52558Y-41191D01*
X52543Y-41161D01*
X52528Y-41146D01*
X52498Y-41131D01*
X52438Y-41131D01*
X52408Y-41146D01*
X52393Y-41161D01*
X52378Y-41191D01*
X52378Y-41266D01*
X52393Y-41296D01*
X52408Y-41311D01*
X52438Y-41326D01*
X52498Y-41326D01*
X52528Y-41311D01*
X52543Y-41296D01*
X52558Y-41266D01*
X52828Y-41236D02*
X52828Y-41446D01*
X52753Y-41116D02*
X52678Y-41341D01*
X52873Y-41341D01*
X54743Y-41757D02*
X54758Y-41772D01*
X54773Y-41817D01*
X54773Y-41847D01*
X54758Y-41892D01*
X54728Y-41922D01*
X54698Y-41937D01*
X54638Y-41952D01*
X54593Y-41952D01*
X54533Y-41937D01*
X54503Y-41922D01*
X54473Y-41892D01*
X54458Y-41847D01*
X54458Y-41817D01*
X54473Y-41772D01*
X54488Y-41757D01*
X54773Y-41607D02*
X54773Y-41547D01*
X54758Y-41517D01*
X54743Y-41502D01*
X54698Y-41472D01*
X54638Y-41457D01*
X54518Y-41457D01*
X54488Y-41472D01*
X54473Y-41487D01*
X54458Y-41517D01*
X54458Y-41577D01*
X54473Y-41607D01*
X54488Y-41622D01*
X54518Y-41637D01*
X54593Y-41637D01*
X54623Y-41622D01*
X54638Y-41607D01*
X54653Y-41577D01*
X54653Y-41517D01*
X54638Y-41487D01*
X54623Y-41472D01*
X54593Y-41457D01*
X54488Y-41337D02*
X54473Y-41322D01*
X54458Y-41292D01*
X54458Y-41217D01*
X54473Y-41187D01*
X54488Y-41172D01*
X54518Y-41157D01*
X54548Y-41157D01*
X54593Y-41172D01*
X54773Y-41352D01*
X54773Y-41157D01*
X53695Y-40943D02*
X53680Y-40958D01*
X53635Y-40973D01*
X53605Y-40973D01*
X53560Y-40958D01*
X53530Y-40928D01*
X53515Y-40898D01*
X53500Y-40838D01*
X53500Y-40793D01*
X53515Y-40733D01*
X53530Y-40703D01*
X53560Y-40673D01*
X53605Y-40658D01*
X53635Y-40658D01*
X53680Y-40673D01*
X53695Y-40688D01*
X53845Y-40973D02*
X53905Y-40973D01*
X53935Y-40958D01*
X53950Y-40943D01*
X53980Y-40898D01*
X53995Y-40838D01*
X53995Y-40718D01*
X53980Y-40688D01*
X53965Y-40673D01*
X53935Y-40658D01*
X53875Y-40658D01*
X53845Y-40673D01*
X53830Y-40688D01*
X53815Y-40718D01*
X53815Y-40793D01*
X53830Y-40823D01*
X53845Y-40838D01*
X53875Y-40853D01*
X53935Y-40853D01*
X53965Y-40838D01*
X53980Y-40823D01*
X53995Y-40793D01*
X54100Y-40658D02*
X54295Y-40658D01*
X54190Y-40778D01*
X54235Y-40778D01*
X54265Y-40793D01*
X54280Y-40808D01*
X54295Y-40838D01*
X54295Y-40913D01*
X54280Y-40943D01*
X54265Y-40958D01*
X54235Y-40973D01*
X54145Y-40973D01*
X54115Y-40958D01*
X54100Y-40943D01*
X51849Y-37879D02*
X51864Y-37894D01*
X51879Y-37939D01*
X51879Y-37969D01*
X51864Y-38014D01*
X51834Y-38044D01*
X51804Y-38059D01*
X51744Y-38074D01*
X51699Y-38074D01*
X51639Y-38059D01*
X51609Y-38044D01*
X51579Y-38014D01*
X51564Y-37969D01*
X51564Y-37939D01*
X51579Y-37894D01*
X51594Y-37879D01*
X51669Y-37609D02*
X51879Y-37609D01*
X51549Y-37684D02*
X51774Y-37759D01*
X51774Y-37564D01*
X51879Y-37429D02*
X51879Y-37369D01*
X51864Y-37339D01*
X51849Y-37324D01*
X51804Y-37294D01*
X51744Y-37279D01*
X51624Y-37279D01*
X51594Y-37294D01*
X51579Y-37309D01*
X51564Y-37339D01*
X51564Y-37399D01*
X51579Y-37429D01*
X51594Y-37444D01*
X51624Y-37459D01*
X51699Y-37459D01*
X51729Y-37444D01*
X51744Y-37429D01*
X51759Y-37399D01*
X51759Y-37339D01*
X51744Y-37309D01*
X51729Y-37294D01*
X51699Y-37279D01*
X51803Y-36249D02*
X51788Y-36264D01*
X51743Y-36279D01*
X51713Y-36279D01*
X51668Y-36264D01*
X51638Y-36234D01*
X51623Y-36204D01*
X51608Y-36144D01*
X51608Y-36099D01*
X51623Y-36039D01*
X51638Y-36009D01*
X51668Y-35979D01*
X51713Y-35964D01*
X51743Y-35964D01*
X51788Y-35979D01*
X51803Y-35994D01*
X51923Y-35994D02*
X51938Y-35979D01*
X51968Y-35964D01*
X52043Y-35964D01*
X52073Y-35979D01*
X52088Y-35994D01*
X52103Y-36024D01*
X52103Y-36054D01*
X52088Y-36099D01*
X51908Y-36279D01*
X52103Y-36279D01*
X52223Y-35994D02*
X52238Y-35979D01*
X52267Y-35964D01*
X52342Y-35964D01*
X52372Y-35979D01*
X52387Y-35994D01*
X52402Y-36024D01*
X52402Y-36054D01*
X52387Y-36099D01*
X52208Y-36279D01*
X52402Y-36279D01*
X52702Y-36279D02*
X52522Y-36279D01*
X52612Y-36279D02*
X52612Y-35964D01*
X52582Y-36009D01*
X52552Y-36039D01*
X52522Y-36054D01*
X52277Y-37046D02*
X52262Y-37061D01*
X52217Y-37076D01*
X52187Y-37076D01*
X52142Y-37061D01*
X52112Y-37031D01*
X52097Y-37001D01*
X52082Y-36941D01*
X52082Y-36896D01*
X52097Y-36836D01*
X52112Y-36806D01*
X52142Y-36776D01*
X52187Y-36761D01*
X52217Y-36761D01*
X52262Y-36776D01*
X52277Y-36791D01*
X52547Y-36866D02*
X52547Y-37076D01*
X52472Y-36746D02*
X52397Y-36971D01*
X52592Y-36971D01*
X52847Y-36866D02*
X52847Y-37076D01*
X52772Y-36746D02*
X52697Y-36971D01*
X52892Y-36971D01*
X52361Y-39336D02*
X52376Y-39351D01*
X52391Y-39396D01*
X52391Y-39426D01*
X52376Y-39471D01*
X52346Y-39501D01*
X52316Y-39516D01*
X52256Y-39531D01*
X52211Y-39531D01*
X52151Y-39516D01*
X52121Y-39501D01*
X52091Y-39471D01*
X52076Y-39426D01*
X52076Y-39396D01*
X52091Y-39351D01*
X52106Y-39336D01*
X52076Y-39231D02*
X52076Y-39036D01*
X52196Y-39141D01*
X52196Y-39096D01*
X52211Y-39066D01*
X52226Y-39051D01*
X52256Y-39036D01*
X52331Y-39036D01*
X52361Y-39051D01*
X52376Y-39066D01*
X52391Y-39096D01*
X52391Y-39186D01*
X52376Y-39216D01*
X52361Y-39231D01*
X52391Y-38736D02*
X52391Y-38916D01*
X52391Y-38826D02*
X52076Y-38826D01*
X52121Y-38856D01*
X52151Y-38886D01*
X52166Y-38916D01*
X51869Y-39336D02*
X51884Y-39351D01*
X51899Y-39396D01*
X51899Y-39426D01*
X51884Y-39471D01*
X51854Y-39501D01*
X51824Y-39516D01*
X51764Y-39531D01*
X51719Y-39531D01*
X51659Y-39516D01*
X51629Y-39501D01*
X51599Y-39471D01*
X51584Y-39426D01*
X51584Y-39396D01*
X51599Y-39351D01*
X51614Y-39336D01*
X51584Y-39066D02*
X51584Y-39126D01*
X51599Y-39156D01*
X51614Y-39171D01*
X51659Y-39201D01*
X51719Y-39216D01*
X51839Y-39216D01*
X51869Y-39201D01*
X51884Y-39186D01*
X51899Y-39156D01*
X51899Y-39096D01*
X51884Y-39066D01*
X51869Y-39051D01*
X51839Y-39036D01*
X51764Y-39036D01*
X51734Y-39051D01*
X51719Y-39066D01*
X51704Y-39096D01*
X51704Y-39156D01*
X51719Y-39186D01*
X51734Y-39201D01*
X51764Y-39216D01*
X51719Y-38856D02*
X51704Y-38886D01*
X51689Y-38901D01*
X51659Y-38916D01*
X51644Y-38916D01*
X51614Y-38901D01*
X51599Y-38886D01*
X51584Y-38856D01*
X51584Y-38796D01*
X51599Y-38766D01*
X51614Y-38751D01*
X51644Y-38736D01*
X51659Y-38736D01*
X51689Y-38751D01*
X51704Y-38766D01*
X51719Y-38796D01*
X51719Y-38856D01*
X51734Y-38886D01*
X51749Y-38901D01*
X51779Y-38916D01*
X51839Y-38916D01*
X51869Y-38901D01*
X51884Y-38886D01*
X51899Y-38856D01*
X51899Y-38796D01*
X51884Y-38766D01*
X51869Y-38751D01*
X51839Y-38736D01*
X51779Y-38736D01*
X51749Y-38751D01*
X51734Y-38766D01*
X51719Y-38796D01*
X56908Y-37466D02*
X56923Y-37481D01*
X56938Y-37526D01*
X56938Y-37556D01*
X56923Y-37601D01*
X56893Y-37631D01*
X56863Y-37646D01*
X56803Y-37661D01*
X56758Y-37661D01*
X56698Y-37646D01*
X56668Y-37631D01*
X56638Y-37601D01*
X56623Y-37556D01*
X56623Y-37526D01*
X56638Y-37481D01*
X56653Y-37466D01*
X56623Y-37196D02*
X56623Y-37256D01*
X56638Y-37286D01*
X56653Y-37301D01*
X56698Y-37331D01*
X56758Y-37346D01*
X56878Y-37346D01*
X56908Y-37331D01*
X56923Y-37316D01*
X56938Y-37286D01*
X56938Y-37226D01*
X56923Y-37196D01*
X56908Y-37181D01*
X56878Y-37166D01*
X56803Y-37166D01*
X56773Y-37181D01*
X56758Y-37196D01*
X56743Y-37226D01*
X56743Y-37286D01*
X56758Y-37316D01*
X56773Y-37331D01*
X56803Y-37346D01*
X56623Y-36971D02*
X56623Y-36941D01*
X56638Y-36911D01*
X56653Y-36896D01*
X56683Y-36881D01*
X56743Y-36866D01*
X56818Y-36866D01*
X56878Y-36881D01*
X56908Y-36896D01*
X56923Y-36911D01*
X56938Y-36941D01*
X56938Y-36971D01*
X56923Y-37001D01*
X56908Y-37016D01*
X56878Y-37031D01*
X56818Y-37046D01*
X56743Y-37046D01*
X56683Y-37031D01*
X56653Y-37016D01*
X56638Y-37001D01*
X56623Y-36971D01*
X52297Y-38542D02*
X52282Y-38557D01*
X52237Y-38572D01*
X52207Y-38572D01*
X52162Y-38557D01*
X52132Y-38527D01*
X52117Y-38497D01*
X52102Y-38437D01*
X52102Y-38392D01*
X52117Y-38332D01*
X52132Y-38302D01*
X52162Y-38272D01*
X52207Y-38257D01*
X52237Y-38257D01*
X52282Y-38272D01*
X52297Y-38287D01*
X52402Y-38257D02*
X52597Y-38257D01*
X52492Y-38377D01*
X52537Y-38377D01*
X52567Y-38392D01*
X52582Y-38407D01*
X52597Y-38437D01*
X52597Y-38512D01*
X52582Y-38542D01*
X52567Y-38557D01*
X52537Y-38572D01*
X52447Y-38572D01*
X52417Y-38557D01*
X52402Y-38542D01*
X52867Y-38257D02*
X52807Y-38257D01*
X52777Y-38272D01*
X52762Y-38287D01*
X52732Y-38332D01*
X52717Y-38392D01*
X52717Y-38512D01*
X52732Y-38542D01*
X52747Y-38557D01*
X52777Y-38572D01*
X52837Y-38572D01*
X52867Y-38557D01*
X52882Y-38542D01*
X52897Y-38512D01*
X52897Y-38437D01*
X52882Y-38407D01*
X52867Y-38392D01*
X52837Y-38377D01*
X52777Y-38377D01*
X52747Y-38392D01*
X52732Y-38407D01*
X52717Y-38437D01*
X57336Y-34369D02*
X57321Y-34384D01*
X57276Y-34399D01*
X57246Y-34399D01*
X57201Y-34384D01*
X57171Y-34354D01*
X57156Y-34324D01*
X57141Y-34264D01*
X57141Y-34219D01*
X57156Y-34159D01*
X57171Y-34129D01*
X57201Y-34099D01*
X57246Y-34084D01*
X57276Y-34084D01*
X57321Y-34099D01*
X57336Y-34114D01*
X57606Y-34084D02*
X57546Y-34084D01*
X57516Y-34099D01*
X57501Y-34114D01*
X57471Y-34159D01*
X57456Y-34219D01*
X57456Y-34339D01*
X57471Y-34369D01*
X57486Y-34384D01*
X57516Y-34399D01*
X57576Y-34399D01*
X57606Y-34384D01*
X57621Y-34369D01*
X57636Y-34339D01*
X57636Y-34264D01*
X57621Y-34234D01*
X57606Y-34219D01*
X57576Y-34204D01*
X57516Y-34204D01*
X57486Y-34219D01*
X57471Y-34234D01*
X57456Y-34264D01*
X57786Y-34399D02*
X57846Y-34399D01*
X57876Y-34384D01*
X57891Y-34369D01*
X57921Y-34324D01*
X57936Y-34264D01*
X57936Y-34144D01*
X57921Y-34114D01*
X57906Y-34099D01*
X57876Y-34084D01*
X57816Y-34084D01*
X57786Y-34099D01*
X57771Y-34114D01*
X57756Y-34144D01*
X57756Y-34219D01*
X57771Y-34249D01*
X57786Y-34264D01*
X57816Y-34279D01*
X57876Y-34279D01*
X57906Y-34264D01*
X57921Y-34249D01*
X57936Y-34219D01*
X55806Y-37702D02*
X55821Y-37717D01*
X55836Y-37762D01*
X55836Y-37792D01*
X55821Y-37837D01*
X55791Y-37867D01*
X55761Y-37882D01*
X55701Y-37897D01*
X55656Y-37897D01*
X55596Y-37882D01*
X55566Y-37867D01*
X55536Y-37837D01*
X55521Y-37792D01*
X55521Y-37762D01*
X55536Y-37717D01*
X55551Y-37702D01*
X55521Y-37417D02*
X55521Y-37567D01*
X55671Y-37582D01*
X55656Y-37567D01*
X55641Y-37537D01*
X55641Y-37462D01*
X55656Y-37432D01*
X55671Y-37417D01*
X55701Y-37402D01*
X55776Y-37402D01*
X55806Y-37417D01*
X55821Y-37432D01*
X55836Y-37462D01*
X55836Y-37537D01*
X55821Y-37567D01*
X55806Y-37582D01*
X55521Y-37132D02*
X55521Y-37192D01*
X55536Y-37222D01*
X55551Y-37237D01*
X55596Y-37267D01*
X55656Y-37282D01*
X55776Y-37282D01*
X55806Y-37267D01*
X55821Y-37252D01*
X55836Y-37222D01*
X55836Y-37162D01*
X55821Y-37132D01*
X55806Y-37117D01*
X55776Y-37102D01*
X55701Y-37102D01*
X55671Y-37117D01*
X55656Y-37132D01*
X55641Y-37162D01*
X55641Y-37222D01*
X55656Y-37252D01*
X55671Y-37267D01*
X55701Y-37282D01*
X52258Y-40943D02*
X52243Y-40958D01*
X52198Y-40973D01*
X52168Y-40973D01*
X52123Y-40958D01*
X52093Y-40928D01*
X52078Y-40898D01*
X52063Y-40838D01*
X52063Y-40793D01*
X52078Y-40733D01*
X52093Y-40703D01*
X52123Y-40673D01*
X52168Y-40658D01*
X52198Y-40658D01*
X52243Y-40673D01*
X52258Y-40688D01*
X52408Y-40973D02*
X52468Y-40973D01*
X52498Y-40958D01*
X52513Y-40943D01*
X52543Y-40898D01*
X52558Y-40838D01*
X52558Y-40718D01*
X52543Y-40688D01*
X52528Y-40673D01*
X52498Y-40658D01*
X52438Y-40658D01*
X52408Y-40673D01*
X52393Y-40688D01*
X52378Y-40718D01*
X52378Y-40793D01*
X52393Y-40823D01*
X52408Y-40838D01*
X52438Y-40853D01*
X52498Y-40853D01*
X52528Y-40838D01*
X52543Y-40823D01*
X52558Y-40793D01*
X52843Y-40658D02*
X52693Y-40658D01*
X52678Y-40808D01*
X52693Y-40793D01*
X52723Y-40778D01*
X52798Y-40778D01*
X52828Y-40793D01*
X52843Y-40808D01*
X52858Y-40838D01*
X52858Y-40913D01*
X52843Y-40943D01*
X52828Y-40958D01*
X52798Y-40973D01*
X52723Y-40973D01*
X52693Y-40958D01*
X52678Y-40943D01*
X61470Y-35038D02*
X61455Y-35053D01*
X61410Y-35068D01*
X61380Y-35068D01*
X61335Y-35053D01*
X61305Y-35023D01*
X61290Y-34993D01*
X61275Y-34933D01*
X61275Y-34888D01*
X61290Y-34828D01*
X61305Y-34798D01*
X61335Y-34768D01*
X61380Y-34753D01*
X61410Y-34753D01*
X61455Y-34768D01*
X61470Y-34783D01*
X61575Y-34753D02*
X61785Y-34753D01*
X61650Y-35068D01*
X61875Y-34753D02*
X62085Y-34753D01*
X61950Y-35068D01*
X61037Y-38207D02*
X61022Y-38222D01*
X60977Y-38237D01*
X60947Y-38237D01*
X60902Y-38222D01*
X60872Y-38192D01*
X60857Y-38162D01*
X60842Y-38102D01*
X60842Y-38057D01*
X60857Y-37997D01*
X60872Y-37967D01*
X60902Y-37937D01*
X60947Y-37922D01*
X60977Y-37922D01*
X61022Y-37937D01*
X61037Y-37952D01*
X61337Y-38237D02*
X61157Y-38237D01*
X61247Y-38237D02*
X61247Y-37922D01*
X61217Y-37967D01*
X61187Y-37997D01*
X61157Y-38012D01*
X61517Y-38057D02*
X61487Y-38042D01*
X61472Y-38027D01*
X61457Y-37997D01*
X61457Y-37982D01*
X61472Y-37952D01*
X61487Y-37937D01*
X61517Y-37922D01*
X61577Y-37922D01*
X61607Y-37937D01*
X61622Y-37952D01*
X61637Y-37982D01*
X61637Y-37997D01*
X61622Y-38027D01*
X61607Y-38042D01*
X61577Y-38057D01*
X61517Y-38057D01*
X61487Y-38072D01*
X61472Y-38087D01*
X61457Y-38117D01*
X61457Y-38177D01*
X61472Y-38207D01*
X61487Y-38222D01*
X61517Y-38237D01*
X61577Y-38237D01*
X61607Y-38222D01*
X61622Y-38207D01*
X61637Y-38177D01*
X61637Y-38117D01*
X61622Y-38087D01*
X61607Y-38072D01*
X61577Y-38057D01*
X61017Y-39487D02*
X61002Y-39502D01*
X60958Y-39517D01*
X60928Y-39517D01*
X60883Y-39502D01*
X60853Y-39472D01*
X60838Y-39442D01*
X60823Y-39382D01*
X60823Y-39337D01*
X60838Y-39277D01*
X60853Y-39247D01*
X60883Y-39217D01*
X60928Y-39202D01*
X60958Y-39202D01*
X61002Y-39217D01*
X61017Y-39232D01*
X61317Y-39517D02*
X61137Y-39517D01*
X61227Y-39517D02*
X61227Y-39202D01*
X61197Y-39247D01*
X61167Y-39277D01*
X61137Y-39292D01*
X61422Y-39202D02*
X61632Y-39202D01*
X61497Y-39517D01*
X60250Y-39861D02*
X60235Y-39876D01*
X60190Y-39891D01*
X60160Y-39891D01*
X60115Y-39876D01*
X60085Y-39846D01*
X60070Y-39816D01*
X60055Y-39756D01*
X60055Y-39711D01*
X60070Y-39651D01*
X60085Y-39621D01*
X60115Y-39591D01*
X60160Y-39576D01*
X60190Y-39576D01*
X60235Y-39591D01*
X60250Y-39606D01*
X60550Y-39891D02*
X60370Y-39891D01*
X60460Y-39891D02*
X60460Y-39576D01*
X60430Y-39621D01*
X60400Y-39651D01*
X60370Y-39666D01*
X60820Y-39576D02*
X60760Y-39576D01*
X60730Y-39591D01*
X60715Y-39606D01*
X60685Y-39651D01*
X60670Y-39711D01*
X60670Y-39831D01*
X60685Y-39861D01*
X60700Y-39876D01*
X60730Y-39891D01*
X60790Y-39891D01*
X60820Y-39876D01*
X60835Y-39861D01*
X60850Y-39831D01*
X60850Y-39756D01*
X60835Y-39726D01*
X60820Y-39711D01*
X60790Y-39696D01*
X60730Y-39696D01*
X60700Y-39711D01*
X60685Y-39726D01*
X60670Y-39756D01*
X60447Y-40589D02*
X60432Y-40604D01*
X60387Y-40619D01*
X60357Y-40619D01*
X60312Y-40604D01*
X60282Y-40574D01*
X60267Y-40544D01*
X60252Y-40484D01*
X60252Y-40439D01*
X60267Y-40379D01*
X60282Y-40349D01*
X60312Y-40319D01*
X60357Y-40304D01*
X60387Y-40304D01*
X60432Y-40319D01*
X60447Y-40334D01*
X60747Y-40619D02*
X60567Y-40619D01*
X60657Y-40619D02*
X60657Y-40304D01*
X60627Y-40349D01*
X60597Y-40379D01*
X60567Y-40394D01*
X60852Y-40304D02*
X61047Y-40304D01*
X60942Y-40424D01*
X60987Y-40424D01*
X61017Y-40439D01*
X61032Y-40454D01*
X61047Y-40484D01*
X61047Y-40559D01*
X61032Y-40589D01*
X61017Y-40604D01*
X60987Y-40619D01*
X60897Y-40619D01*
X60867Y-40604D01*
X60852Y-40589D01*
X61214Y-42459D02*
X61199Y-42474D01*
X61154Y-42489D01*
X61124Y-42489D01*
X61079Y-42474D01*
X61049Y-42444D01*
X61034Y-42414D01*
X61019Y-42354D01*
X61019Y-42309D01*
X61034Y-42249D01*
X61049Y-42219D01*
X61079Y-42189D01*
X61124Y-42174D01*
X61154Y-42174D01*
X61199Y-42189D01*
X61214Y-42204D01*
X61514Y-42489D02*
X61334Y-42489D01*
X61424Y-42489D02*
X61424Y-42174D01*
X61394Y-42219D01*
X61364Y-42249D01*
X61334Y-42264D01*
X61799Y-42174D02*
X61649Y-42174D01*
X61634Y-42324D01*
X61649Y-42309D01*
X61679Y-42294D01*
X61754Y-42294D01*
X61784Y-42309D01*
X61799Y-42324D01*
X61814Y-42354D01*
X61814Y-42429D01*
X61799Y-42459D01*
X61784Y-42474D01*
X61754Y-42489D01*
X61679Y-42489D01*
X61649Y-42474D01*
X61634Y-42459D01*
X54406Y-39359D02*
X54391Y-39374D01*
X54346Y-39389D01*
X54316Y-39389D01*
X54271Y-39374D01*
X54241Y-39344D01*
X54226Y-39314D01*
X54211Y-39254D01*
X54211Y-39209D01*
X54226Y-39149D01*
X54241Y-39119D01*
X54271Y-39089D01*
X54316Y-39074D01*
X54346Y-39074D01*
X54391Y-39089D01*
X54406Y-39104D01*
X54691Y-39074D02*
X54541Y-39074D01*
X54526Y-39224D01*
X54541Y-39209D01*
X54571Y-39194D01*
X54646Y-39194D01*
X54676Y-39209D01*
X54691Y-39224D01*
X54706Y-39254D01*
X54706Y-39329D01*
X54691Y-39359D01*
X54676Y-39374D01*
X54646Y-39389D01*
X54571Y-39389D01*
X54541Y-39374D01*
X54526Y-39359D01*
X61234Y-41140D02*
X61219Y-41155D01*
X61174Y-41170D01*
X61144Y-41170D01*
X61099Y-41155D01*
X61069Y-41125D01*
X61054Y-41095D01*
X61039Y-41035D01*
X61039Y-40990D01*
X61054Y-40930D01*
X61069Y-40900D01*
X61099Y-40870D01*
X61144Y-40855D01*
X61174Y-40855D01*
X61219Y-40870D01*
X61234Y-40885D01*
X61534Y-41170D02*
X61354Y-41170D01*
X61444Y-41170D02*
X61444Y-40855D01*
X61414Y-40900D01*
X61384Y-40930D01*
X61354Y-40945D01*
X61804Y-40960D02*
X61804Y-41170D01*
X61729Y-40840D02*
X61654Y-41065D01*
X61849Y-41065D01*
G54D19*
G54D11*
X50767Y-49855D02*
X50452Y-49855D01*
X50452Y-49780D01*
X50467Y-49735D01*
X50497Y-49705D01*
X50527Y-49690D01*
X50587Y-49675D01*
X50632Y-49675D01*
X50692Y-49690D01*
X50722Y-49705D01*
X50752Y-49735D01*
X50767Y-49780D01*
X50767Y-49855D01*
X50677Y-49555D02*
X50677Y-49405D01*
X50767Y-49585D02*
X50452Y-49480D01*
X50767Y-49375D01*
X50767Y-49105D02*
X50767Y-49285D01*
X50767Y-49195D02*
X50452Y-49195D01*
X50497Y-49225D01*
X50527Y-49255D01*
X50542Y-49285D01*
G54D19*
G54D11*
X58882Y-47036D02*
X58777Y-46886D01*
X58702Y-47036D02*
X58702Y-46721D01*
X58822Y-46721D01*
X58852Y-46736D01*
X58867Y-46751D01*
X58882Y-46781D01*
X58882Y-46826D01*
X58867Y-46856D01*
X58852Y-46871D01*
X58822Y-46886D01*
X58702Y-46886D01*
X59152Y-46826D02*
X59152Y-47036D01*
X59077Y-46706D02*
X59002Y-46931D01*
X59197Y-46931D01*
X59287Y-46721D02*
X59482Y-46721D01*
X59377Y-46841D01*
X59422Y-46841D01*
X59452Y-46856D01*
X59467Y-46871D01*
X59482Y-46901D01*
X59482Y-46976D01*
X59467Y-47006D01*
X59452Y-47021D01*
X59422Y-47036D01*
X59332Y-47036D01*
X59302Y-47021D01*
X59287Y-47006D01*
X60971Y-47391D02*
X60821Y-47391D01*
X60821Y-47076D01*
X61076Y-47391D02*
X61076Y-47076D01*
X61151Y-47076D01*
X61196Y-47091D01*
X61226Y-47121D01*
X61241Y-47151D01*
X61256Y-47211D01*
X61256Y-47256D01*
X61241Y-47316D01*
X61226Y-47346D01*
X61196Y-47376D01*
X61151Y-47391D01*
X61076Y-47391D01*
X61556Y-47391D02*
X61376Y-47391D01*
X61466Y-47391D02*
X61466Y-47076D01*
X61436Y-47121D01*
X61406Y-47151D01*
X61376Y-47166D01*
X62218Y-44585D02*
X62203Y-44600D01*
X62158Y-44615D01*
X62128Y-44615D01*
X62083Y-44600D01*
X62053Y-44570D01*
X62038Y-44540D01*
X62023Y-44480D01*
X62023Y-44435D01*
X62038Y-44375D01*
X62053Y-44345D01*
X62083Y-44315D01*
X62128Y-44300D01*
X62158Y-44300D01*
X62203Y-44315D01*
X62218Y-44330D01*
X62338Y-44330D02*
X62353Y-44315D01*
X62383Y-44300D01*
X62458Y-44300D01*
X62488Y-44315D01*
X62503Y-44330D01*
X62518Y-44360D01*
X62518Y-44390D01*
X62503Y-44435D01*
X62323Y-44615D01*
X62518Y-44615D01*
X62788Y-44300D02*
X62728Y-44300D01*
X62698Y-44315D01*
X62683Y-44330D01*
X62653Y-44375D01*
X62638Y-44435D01*
X62638Y-44555D01*
X62653Y-44585D01*
X62668Y-44600D01*
X62698Y-44615D01*
X62758Y-44615D01*
X62788Y-44600D01*
X62803Y-44585D01*
X62818Y-44555D01*
X62818Y-44480D01*
X62803Y-44450D01*
X62788Y-44435D01*
X62758Y-44420D01*
X62698Y-44420D01*
X62668Y-44435D01*
X62653Y-44450D01*
X62638Y-44480D01*
X51825Y-31210D02*
X51720Y-31060D01*
X51645Y-31210D02*
X51645Y-30895D01*
X51765Y-30895D01*
X51795Y-30910D01*
X51810Y-30925D01*
X51825Y-30955D01*
X51825Y-31000D01*
X51810Y-31030D01*
X51795Y-31045D01*
X51765Y-31060D01*
X51645Y-31060D01*
X51915Y-30895D02*
X52095Y-30895D01*
X52005Y-31210D02*
X52005Y-30895D01*
X52365Y-31210D02*
X52185Y-31210D01*
X52275Y-31210D02*
X52275Y-30895D01*
X52245Y-30940D01*
X52215Y-30970D01*
X52185Y-30985D01*
X64754Y-33178D02*
X64964Y-33493D01*
X64964Y-33178D02*
X64754Y-33493D01*
X65219Y-33178D02*
X65159Y-33178D01*
X65129Y-33193D01*
X65114Y-33208D01*
X65084Y-33253D01*
X65069Y-33313D01*
X65069Y-33433D01*
X65084Y-33463D01*
X65099Y-33478D01*
X65129Y-33493D01*
X65189Y-33493D01*
X65219Y-33478D01*
X65234Y-33463D01*
X65249Y-33433D01*
X65249Y-33358D01*
X65234Y-33328D01*
X65219Y-33313D01*
X65189Y-33298D01*
X65129Y-33298D01*
X65099Y-33313D01*
X65084Y-33328D01*
X65069Y-33358D01*
X64804Y-46584D02*
X65014Y-46899D01*
X65014Y-46584D02*
X64804Y-46899D01*
X65104Y-46584D02*
X65314Y-46584D01*
X65179Y-46899D01*
X54779Y-34635D02*
X54959Y-34635D01*
X54869Y-34950D02*
X54869Y-34635D01*
X55049Y-34665D02*
X55064Y-34650D01*
X55094Y-34635D01*
X55169Y-34635D01*
X55199Y-34650D01*
X55214Y-34665D01*
X55229Y-34695D01*
X55229Y-34725D01*
X55214Y-34770D01*
X55034Y-34950D01*
X55229Y-34950D01*
G54D13*
X56797Y-35967D02*
X56797Y-36061D01*
X56722Y-36023D02*
X56797Y-36061D01*
X56872Y-36023D01*
X56752Y-36136D02*
X56797Y-36061D01*
X56842Y-36136D01*
G54D11*
X56137Y-44379D02*
X56317Y-44379D01*
X56227Y-44694D02*
X56227Y-44379D01*
X56587Y-44694D02*
X56407Y-44694D01*
X56497Y-44694D02*
X56497Y-44379D01*
X56467Y-44424D01*
X56437Y-44454D01*
X56407Y-44469D01*
G54D13*
X56981Y-43131D02*
X56981Y-43224D01*
X56907Y-43187D02*
X56981Y-43224D01*
X57056Y-43187D01*
X56937Y-43299D02*
X56981Y-43224D01*
X57026Y-43299D01*
G54D11*
X59005Y-35032D02*
X58690Y-35032D01*
X58690Y-34957D01*
X58705Y-34912D01*
X58735Y-34882D01*
X58765Y-34867D01*
X58825Y-34852D01*
X58870Y-34852D01*
X58930Y-34867D01*
X58960Y-34882D01*
X58990Y-34912D01*
X59005Y-34957D01*
X59005Y-35032D01*
X58915Y-34732D02*
X58915Y-34582D01*
X59005Y-34762D02*
X58690Y-34657D01*
X59005Y-34552D01*
X58690Y-34297D02*
X58690Y-34447D01*
X58840Y-34462D01*
X58825Y-34447D01*
X58810Y-34417D01*
X58810Y-34342D01*
X58825Y-34312D01*
X58840Y-34297D01*
X58870Y-34282D01*
X58945Y-34282D01*
X58975Y-34297D01*
X58990Y-34312D01*
X59005Y-34342D01*
X59005Y-34417D01*
X58990Y-34447D01*
X58975Y-34462D01*
G54D13*
X59348Y-36279D02*
X59442Y-36279D01*
X59404Y-36354D02*
X59442Y-36279D01*
X59404Y-36204D01*
X59516Y-36324D02*
X59442Y-36279D01*
X59516Y-36234D01*
G54D11*
X60580Y-45741D02*
X60265Y-45741D01*
X60265Y-45666D01*
X60280Y-45621D01*
X60310Y-45591D01*
X60340Y-45576D01*
X60400Y-45561D01*
X60445Y-45561D01*
X60505Y-45576D01*
X60535Y-45591D01*
X60565Y-45621D01*
X60580Y-45666D01*
X60580Y-45741D01*
X60490Y-45441D02*
X60490Y-45291D01*
X60580Y-45471D02*
X60265Y-45366D01*
X60580Y-45261D01*
X60265Y-45021D02*
X60265Y-45081D01*
X60280Y-45111D01*
X60295Y-45126D01*
X60340Y-45156D01*
X60400Y-45171D01*
X60520Y-45171D01*
X60550Y-45156D01*
X60565Y-45141D01*
X60580Y-45111D01*
X60580Y-45051D01*
X60565Y-45021D01*
X60550Y-45006D01*
X60520Y-44991D01*
X60445Y-44991D01*
X60415Y-45006D01*
X60400Y-45021D01*
X60385Y-45051D01*
X60385Y-45111D01*
X60400Y-45141D01*
X60415Y-45156D01*
X60445Y-45171D01*
X60994Y-45586D02*
X61087Y-45586D01*
X61050Y-45661D02*
X61087Y-45586D01*
X61050Y-45511D01*
X61162Y-45631D02*
X61087Y-45586D01*
X61162Y-45541D01*
X54698Y-39923D02*
X54698Y-39529D01*
X54791Y-39529D01*
X54848Y-39548D01*
X54885Y-39585D01*
X54904Y-39623D01*
X54923Y-39698D01*
X54923Y-39754D01*
X54904Y-39829D01*
X54885Y-39866D01*
X54848Y-39904D01*
X54791Y-39923D01*
X54698Y-39923D01*
X55073Y-39810D02*
X55260Y-39810D01*
X55035Y-39923D02*
X55166Y-39529D01*
X55298Y-39923D01*
X55391Y-39529D02*
X55635Y-39529D01*
X55504Y-39679D01*
X55560Y-39679D01*
X55598Y-39698D01*
X55616Y-39716D01*
X55635Y-39754D01*
X55635Y-39848D01*
X55616Y-39885D01*
X55598Y-39904D01*
X55560Y-39923D01*
X55448Y-39923D01*
X55410Y-39904D01*
X55391Y-39885D01*
X57397Y-49135D02*
X57660Y-49529D01*
X57660Y-49135D02*
X57397Y-49529D01*
X57791Y-49173D02*
X57810Y-49154D01*
X57847Y-49135D01*
X57941Y-49135D01*
X57979Y-49154D01*
X57997Y-49173D01*
X58016Y-49210D01*
X58016Y-49248D01*
X57997Y-49304D01*
X57772Y-49529D01*
X58016Y-49529D01*
X62264Y-48513D02*
X62474Y-48828D01*
X62474Y-48513D02*
X62264Y-48828D01*
X62729Y-48618D02*
X62729Y-48828D01*
X62654Y-48498D02*
X62579Y-48723D01*
X62774Y-48723D01*
X59137Y-48832D02*
X58957Y-48832D01*
X59047Y-48832D02*
X59047Y-48517D01*
X59017Y-48562D01*
X58987Y-48592D01*
X58957Y-48607D01*
X62161Y-31192D02*
X62424Y-31586D01*
X62424Y-31192D02*
X62161Y-31586D01*
X62761Y-31192D02*
X62574Y-31192D01*
X62555Y-31380D01*
X62574Y-31361D01*
X62611Y-31342D01*
X62705Y-31342D01*
X62742Y-31361D01*
X62761Y-31380D01*
X62780Y-31417D01*
X62780Y-31511D01*
X62761Y-31549D01*
X62742Y-31567D01*
X62705Y-31586D01*
X62611Y-31586D01*
X62574Y-31567D01*
X62555Y-31549D01*
G54D13*
X59463Y-31525D02*
X59283Y-31525D01*
X59373Y-31525D02*
X59373Y-31132D01*
X59343Y-31188D01*
X59313Y-31226D01*
X59283Y-31244D01*
G54D11*
X55260Y-31210D02*
X55522Y-31604D01*
X55522Y-31210D02*
X55260Y-31604D01*
X55691Y-31604D02*
X55766Y-31604D01*
X55803Y-31585D01*
X55822Y-31566D01*
X55859Y-31510D01*
X55878Y-31435D01*
X55878Y-31285D01*
X55859Y-31248D01*
X55841Y-31229D01*
X55803Y-31210D01*
X55728Y-31210D01*
X55691Y-31229D01*
X55672Y-31248D01*
X55653Y-31285D01*
X55653Y-31379D01*
X55672Y-31416D01*
X55691Y-31435D01*
X55728Y-31454D01*
X55803Y-31454D01*
X55841Y-31435D01*
X55859Y-31416D01*
X55878Y-31379D01*
G54D13*
X53457Y-31544D02*
X53277Y-31544D01*
X53367Y-31544D02*
X53367Y-31151D01*
X53337Y-31207D01*
X53307Y-31245D01*
X53277Y-31263D01*
G54D11*
X45797Y-48556D02*
X45869Y-48580D01*
X45988Y-48580D01*
X46035Y-48556D01*
X46059Y-48532D01*
X46083Y-48485D01*
X46083Y-48437D01*
X46059Y-48389D01*
X46035Y-48366D01*
X45988Y-48342D01*
X45893Y-48318D01*
X45845Y-48294D01*
X45821Y-48270D01*
X45797Y-48223D01*
X45797Y-48175D01*
X45821Y-48127D01*
X45845Y-48104D01*
X45893Y-48080D01*
X46012Y-48080D01*
X46083Y-48104D01*
X46250Y-48080D02*
X46369Y-48580D01*
X46464Y-48223D01*
X46559Y-48580D01*
X46678Y-48080D01*
X47131Y-48580D02*
X46845Y-48580D01*
X46988Y-48580D02*
X46988Y-48080D01*
X46940Y-48151D01*
X46893Y-48199D01*
X46845Y-48223D01*
G54D14*
X45726Y-49505D02*
X45501Y-49505D01*
X45614Y-49505D02*
X45614Y-49111D01*
X45576Y-49168D01*
X45539Y-49205D01*
X45501Y-49224D01*
M02*
