G04 (created by PCBNEW (2013-07-07 BZR 4022)-stable) date 2014/8/22 下午 04:39:36*
%MOIN*%
G04 Gerber Fmt 3.4, Leading zero omitted, Abs format*
%FSLAX34Y34*%
G01*
G70*
G90*
G04 APERTURE LIST*
%ADD10C,0.00590551*%
%ADD11C,0.0077*%
%ADD12C,0.04*%
%ADD13C,0.0354*%
%ADD14C,0.0157*%
%ADD15C,0.0195*%
%ADD16C,0.16*%
%ADD17R,0.0597X0.0597*%
%ADD18C,0.0597*%
%ADD19C,0.0138*%
%ADD20C,0.0039*%
%ADD21C,0.00787402*%
G04 APERTURE END LIST*
G54D10*
G54D11*
X69000Y-26600D02*
X29500Y-26600D01*
X56384Y-29350D02*
X42862Y-29350D01*
X42862Y-50846D02*
X56386Y-50846D01*
X31444Y-51633D02*
X41484Y-51633D01*
X42862Y-50846D02*
X42862Y-51633D01*
X41484Y-50846D02*
X41484Y-51633D01*
X31444Y-28562D02*
X41484Y-28562D01*
X42862Y-28562D02*
X42862Y-29350D01*
X41484Y-28562D02*
X41484Y-29350D01*
X29500Y-53600D02*
X29500Y-26600D01*
X69000Y-53600D02*
X29500Y-53600D01*
X69000Y-26598D02*
X69000Y-53600D01*
X66228Y-29350D02*
X66228Y-39492D01*
X57764Y-29350D02*
X66228Y-29350D01*
X57764Y-28562D02*
X57764Y-29350D01*
X67016Y-28562D02*
X57764Y-28562D01*
X67016Y-39492D02*
X67016Y-28562D01*
X66228Y-39492D02*
X67016Y-39492D01*
X57795Y-51633D02*
X57795Y-50846D01*
X67016Y-51633D02*
X57795Y-51633D01*
X67016Y-40948D02*
X67016Y-51633D01*
X66228Y-40948D02*
X67016Y-40948D01*
X66228Y-50846D02*
X66228Y-40948D01*
X57795Y-50846D02*
X66228Y-50846D01*
X31444Y-51633D02*
X31444Y-44413D01*
X56386Y-51633D02*
X42862Y-51633D01*
X56386Y-51633D02*
X56386Y-50846D01*
X32232Y-50846D02*
X41484Y-50846D01*
X32232Y-44413D02*
X32232Y-50846D01*
X31444Y-44413D02*
X32232Y-44413D01*
X31444Y-43390D02*
X31444Y-35555D01*
X32232Y-43390D02*
X31444Y-43390D01*
X32232Y-35555D02*
X32232Y-43390D01*
X31444Y-35555D02*
X32232Y-35555D01*
X32232Y-29350D02*
X32232Y-34570D01*
X31444Y-34570D02*
X32232Y-34570D01*
X31444Y-28562D02*
X31444Y-34570D01*
X42862Y-28562D02*
X56384Y-28562D01*
X56384Y-28562D02*
X56384Y-29350D01*
X32232Y-29350D02*
X41484Y-29350D01*
G54D12*
X37095Y-30398D03*
X44369Y-30398D03*
G54D13*
X57292Y-50846D03*
G54D14*
X63956Y-46102D03*
X63956Y-45708D03*
X63937Y-43543D03*
X48464Y-50157D03*
X50047Y-45244D03*
X46535Y-43661D03*
X46850Y-43976D03*
X37874Y-48897D03*
X38188Y-49212D03*
X37559Y-49212D03*
X36023Y-49212D03*
X35393Y-49212D03*
X35708Y-48897D03*
X37204Y-47204D03*
X36574Y-47204D03*
X36889Y-46889D03*
X34645Y-46889D03*
X34330Y-47204D03*
X34960Y-47204D03*
X33858Y-45669D03*
X33228Y-45669D03*
X33543Y-45354D03*
X35708Y-45354D03*
X35393Y-45669D03*
X36023Y-45669D03*
X39251Y-43661D03*
X38937Y-43976D03*
X39566Y-43976D03*
X37204Y-43976D03*
X36574Y-43976D03*
X36889Y-43661D03*
X34645Y-43661D03*
X34330Y-43976D03*
X34960Y-43976D03*
X33858Y-42362D03*
X33228Y-42362D03*
X33543Y-42047D03*
X35708Y-42047D03*
X35314Y-42362D03*
X36023Y-42362D03*
X38188Y-42362D03*
X37559Y-42362D03*
X37874Y-42047D03*
X40708Y-42047D03*
X40393Y-42362D03*
X41023Y-42362D03*
X39566Y-40787D03*
X38937Y-40787D03*
X39251Y-40472D03*
X42204Y-40787D03*
X41574Y-40787D03*
X41889Y-40472D03*
X36889Y-40472D03*
X36574Y-40787D03*
X37204Y-40787D03*
X34960Y-40787D03*
X34330Y-40787D03*
X34645Y-40472D03*
X33464Y-38818D03*
X33149Y-39133D03*
X33779Y-39133D03*
X36023Y-39133D03*
X35393Y-39133D03*
X35708Y-38818D03*
X40708Y-38818D03*
X40393Y-39133D03*
X41023Y-39133D03*
X38070Y-38818D03*
X37755Y-39133D03*
X38385Y-39133D03*
X37283Y-37519D03*
X36653Y-37519D03*
X36968Y-37204D03*
X39921Y-37519D03*
X39291Y-37519D03*
X39606Y-37204D03*
X34606Y-37204D03*
X34291Y-37519D03*
X34921Y-37519D03*
X33779Y-35944D03*
X33149Y-35944D03*
X33464Y-35629D03*
X38464Y-35629D03*
X38149Y-35944D03*
X38779Y-35944D03*
X35826Y-35629D03*
X35511Y-35944D03*
X36141Y-35944D03*
X35944Y-30629D03*
X35314Y-30629D03*
X35629Y-30314D03*
X36102Y-32598D03*
X35787Y-32913D03*
X36417Y-32913D03*
X33464Y-32598D03*
X33149Y-32913D03*
X33779Y-32913D03*
X34960Y-34606D03*
X34330Y-34606D03*
X34645Y-34291D03*
X37598Y-34606D03*
X36968Y-34606D03*
X37283Y-34291D03*
X50157Y-30275D03*
X49842Y-29960D03*
X45944Y-29960D03*
X48858Y-31614D03*
X47244Y-29960D03*
X46929Y-31614D03*
X48228Y-31614D03*
X47913Y-31299D03*
X46220Y-43976D03*
X48543Y-47204D03*
X49173Y-47204D03*
X48858Y-46889D03*
X47519Y-48110D03*
X48149Y-48110D03*
X47834Y-47795D03*
X44645Y-50472D03*
X45157Y-50472D03*
X44133Y-50472D03*
X42952Y-45669D03*
X38188Y-45669D03*
X44212Y-43661D03*
X37559Y-45669D03*
X43897Y-43976D03*
X41574Y-43976D03*
X37874Y-45354D03*
X42204Y-43976D03*
X45196Y-45669D03*
X43267Y-45354D03*
X45511Y-45354D03*
X38937Y-47204D03*
X41023Y-45669D03*
X41889Y-43661D03*
X43582Y-45669D03*
X44527Y-43976D03*
X41574Y-47204D03*
X39566Y-47204D03*
X47244Y-32637D03*
X46929Y-32952D03*
X54685Y-34409D03*
X54251Y-34409D03*
X52165Y-34291D03*
X50846Y-30291D03*
X51460Y-30870D03*
X50590Y-48464D03*
X50590Y-48976D03*
X50590Y-47913D03*
X50590Y-47401D03*
X50590Y-46850D03*
X43070Y-42047D03*
X51212Y-45275D03*
X51259Y-43503D03*
X51196Y-45751D03*
X40708Y-45354D03*
X43385Y-42362D03*
X50661Y-40838D03*
X46492Y-50157D03*
X50570Y-44838D03*
X50031Y-45657D03*
X45437Y-50157D03*
X44401Y-50157D03*
X47485Y-50157D03*
X55275Y-45984D03*
X52913Y-45984D03*
X53543Y-45984D03*
X54173Y-46614D03*
X53543Y-46614D03*
X52913Y-46614D03*
X55472Y-48346D03*
X57086Y-46771D03*
X61889Y-47047D03*
X62519Y-47047D03*
X60433Y-46771D03*
X60078Y-46771D03*
X62362Y-50157D03*
X61062Y-50157D03*
X59763Y-50157D03*
X58267Y-48661D03*
X58267Y-48267D03*
X58267Y-49212D03*
X58267Y-49606D03*
X59055Y-50157D03*
X58740Y-50472D03*
X59370Y-50472D03*
X60748Y-50472D03*
X60118Y-50472D03*
X60433Y-50157D03*
X61692Y-50157D03*
X61377Y-50472D03*
X62007Y-50472D03*
X63346Y-50472D03*
X62716Y-50472D03*
X63031Y-50157D03*
X61062Y-48503D03*
X60748Y-48818D03*
X61377Y-48818D03*
X61062Y-47795D03*
X60748Y-48110D03*
X61377Y-48110D03*
X59291Y-46299D03*
X60078Y-46299D03*
X61456Y-46299D03*
X63425Y-45708D03*
X63425Y-46102D03*
X63543Y-47559D03*
X62913Y-47559D03*
X63228Y-47244D03*
X64842Y-47244D03*
X64527Y-47559D03*
X65157Y-47559D03*
X58740Y-31850D03*
X59055Y-31535D03*
X58031Y-31535D03*
X57716Y-31850D03*
X56771Y-31850D03*
X57086Y-31535D03*
X56062Y-31535D03*
X55748Y-31850D03*
X54763Y-31850D03*
X55078Y-31535D03*
X52755Y-30275D03*
X52125Y-30275D03*
X52440Y-29960D03*
X51141Y-29960D03*
X51456Y-30275D03*
X65196Y-32283D03*
X64881Y-32598D03*
X65511Y-32598D03*
X64055Y-32598D03*
X63425Y-32598D03*
X63740Y-32283D03*
X60944Y-31417D03*
X60629Y-31732D03*
X61259Y-31732D03*
X61732Y-32283D03*
X61417Y-32598D03*
X62047Y-32598D03*
X60314Y-32598D03*
X59685Y-32598D03*
X60000Y-32283D03*
X56338Y-32992D03*
X56023Y-33307D03*
X56653Y-33307D03*
X54881Y-33307D03*
X54251Y-33307D03*
X54566Y-32992D03*
X63307Y-33779D03*
X62874Y-33779D03*
X62440Y-33779D03*
X61968Y-33779D03*
X59724Y-33779D03*
X60196Y-33779D03*
X60629Y-33779D03*
X61062Y-33779D03*
X56456Y-33779D03*
X57952Y-33779D03*
X56023Y-33779D03*
X55590Y-33779D03*
X55118Y-33779D03*
X53779Y-33779D03*
X52165Y-33661D03*
X54251Y-33779D03*
G54D15*
X53226Y-49012D03*
X53226Y-48353D03*
X53206Y-48018D03*
X53216Y-47329D03*
X53206Y-47644D03*
X53226Y-48678D03*
G54D14*
X58740Y-41279D03*
X65433Y-46377D03*
X64251Y-46377D03*
G54D15*
X52891Y-48678D03*
X52872Y-47644D03*
X52881Y-47329D03*
X52872Y-48018D03*
X52891Y-48353D03*
X52891Y-49012D03*
X51326Y-49002D03*
X52566Y-49012D03*
X52242Y-49012D03*
X51631Y-49012D03*
X51927Y-49012D03*
X52251Y-48353D03*
X51936Y-48353D03*
X51936Y-48018D03*
X52251Y-48018D03*
X51622Y-48018D03*
X51326Y-48018D03*
X51326Y-48353D03*
X51622Y-48353D03*
X51927Y-48678D03*
X51631Y-48678D03*
X52566Y-48353D03*
X52547Y-48018D03*
X52557Y-47329D03*
X52547Y-47644D03*
X52242Y-48678D03*
X52566Y-48678D03*
X52261Y-47644D03*
X51946Y-47644D03*
X51927Y-47329D03*
X52232Y-47329D03*
X51622Y-47329D03*
X51326Y-47329D03*
X51326Y-47644D03*
X51631Y-47644D03*
X51326Y-48668D03*
G54D14*
X63523Y-29940D03*
X64842Y-30866D03*
X56574Y-29940D03*
X60118Y-29940D03*
X57440Y-29940D03*
X59173Y-29940D03*
X62716Y-29940D03*
X61850Y-29940D03*
X58307Y-29940D03*
X54803Y-29940D03*
X55669Y-29940D03*
X53937Y-29940D03*
X64488Y-49370D03*
X64881Y-49370D03*
X65039Y-46377D03*
X65354Y-49370D03*
X62992Y-46614D03*
X63385Y-46614D03*
X62519Y-46614D03*
X62125Y-46614D03*
X65826Y-47952D03*
X63937Y-43858D03*
X63543Y-43543D03*
X63543Y-43858D03*
X63543Y-34409D03*
X63543Y-34094D03*
X63937Y-34094D03*
X63937Y-34409D03*
X63937Y-36535D03*
X63937Y-36220D03*
X63543Y-36220D03*
X63543Y-36535D03*
X64170Y-33706D03*
X64330Y-36850D03*
X64724Y-36850D03*
X64574Y-33716D03*
X65424Y-33714D03*
X65590Y-36850D03*
X65196Y-36850D03*
X65038Y-33716D03*
X65110Y-43267D03*
X65511Y-43263D03*
X64649Y-43263D03*
X64255Y-43259D03*
X65826Y-47559D03*
X65826Y-46771D03*
X65826Y-46377D03*
X65826Y-47165D03*
X65826Y-48346D03*
X65826Y-48740D03*
X54409Y-48661D03*
X54803Y-48661D03*
X55669Y-48661D03*
X55275Y-48661D03*
X53937Y-48661D03*
X37401Y-50452D03*
X36346Y-50452D03*
X32618Y-48704D03*
X35791Y-50452D03*
X54173Y-48346D03*
X54566Y-48346D03*
X53779Y-47795D03*
X55039Y-48346D03*
X53779Y-47244D03*
X54251Y-47795D03*
X46299Y-31614D03*
X41023Y-49212D03*
X40393Y-45669D03*
X47598Y-31614D03*
X45826Y-45669D03*
X35098Y-50452D03*
X40393Y-49212D03*
X32618Y-48232D03*
X42755Y-42362D03*
X32618Y-47759D03*
X32618Y-47149D03*
X39251Y-46889D03*
X36842Y-50452D03*
X48543Y-29960D03*
X65826Y-33700D03*
X65826Y-38425D03*
X65826Y-41181D03*
X65826Y-40787D03*
X65826Y-38031D03*
X65826Y-39763D03*
X54685Y-33779D03*
X56889Y-33779D03*
X65826Y-40157D03*
X65826Y-39291D03*
X65826Y-42047D03*
X65826Y-41653D03*
X65826Y-38897D03*
X65905Y-36850D03*
X63622Y-40393D03*
X63543Y-38267D03*
X63543Y-38661D03*
X63622Y-40787D03*
X63622Y-41653D03*
X63543Y-39527D03*
X63543Y-39133D03*
X63622Y-41259D03*
X63622Y-42992D03*
X63149Y-42204D03*
X63070Y-39842D03*
X63149Y-42598D03*
X63622Y-42519D03*
X65893Y-43259D03*
X63543Y-40000D03*
X63622Y-42125D03*
X63070Y-40236D03*
X63543Y-37401D03*
X63070Y-37480D03*
X63070Y-37874D03*
X63543Y-37795D03*
X63543Y-36929D03*
X61496Y-33779D03*
X59212Y-33779D03*
X63937Y-36850D03*
X61889Y-46299D03*
X58346Y-47795D03*
X58267Y-50472D03*
X64645Y-46377D03*
X58267Y-50078D03*
G54D15*
X56102Y-43975D03*
G54D14*
X60086Y-35500D03*
X59724Y-35496D03*
X59724Y-35158D03*
X60094Y-35153D03*
G54D13*
X32232Y-34630D03*
X32232Y-35496D03*
X32232Y-44335D03*
X32232Y-43902D03*
X32232Y-43469D03*
X66268Y-39571D03*
X66268Y-40004D03*
X66268Y-40437D03*
X66268Y-40870D03*
G54D14*
X58299Y-40354D03*
X58299Y-39921D03*
X58082Y-40138D03*
X58515Y-40138D03*
X61192Y-44708D03*
X61389Y-44901D03*
X58732Y-40354D03*
X57866Y-40354D03*
X57433Y-40354D03*
X57000Y-40354D03*
X56783Y-40571D03*
X57216Y-40571D03*
X57653Y-40571D03*
X58082Y-40571D03*
X58515Y-40571D03*
X58515Y-41004D03*
X58082Y-41004D03*
X57653Y-41004D03*
X57216Y-41004D03*
X56783Y-41004D03*
X57000Y-40787D03*
X57433Y-40787D03*
X58299Y-40787D03*
X57866Y-40787D03*
X58732Y-40787D03*
X58732Y-39921D03*
X57866Y-39921D03*
X57433Y-39921D03*
X57000Y-39921D03*
X56783Y-40138D03*
X57216Y-40138D03*
X57653Y-40138D03*
X58515Y-39705D03*
X58082Y-39705D03*
X57653Y-39705D03*
X57216Y-39705D03*
X56783Y-39705D03*
X57000Y-39488D03*
X57433Y-39488D03*
X58299Y-39488D03*
X57866Y-39488D03*
X58732Y-39488D03*
X58732Y-39055D03*
X57866Y-39055D03*
X58299Y-39055D03*
X57433Y-39055D03*
X57000Y-39055D03*
X56783Y-39272D03*
X57216Y-39272D03*
X57653Y-39272D03*
X58082Y-39272D03*
X58515Y-39272D03*
G54D15*
X52054Y-44900D03*
X52763Y-45215D03*
X52763Y-44900D03*
G54D16*
X33482Y-30598D03*
X64982Y-30598D03*
X64982Y-49598D03*
G54D15*
X56378Y-43975D03*
X52054Y-45215D03*
G54D13*
X56426Y-50846D03*
X56859Y-50846D03*
X57726Y-50846D03*
X56425Y-29350D03*
X56858Y-29350D03*
X57291Y-29350D03*
X57725Y-29350D03*
G54D12*
X37095Y-48198D03*
X44369Y-48198D03*
G54D16*
X33482Y-49598D03*
G54D14*
X32618Y-46708D03*
X32618Y-46177D03*
X32618Y-45681D03*
X32618Y-44925D03*
X32618Y-44460D03*
X32618Y-43799D03*
X32618Y-43299D03*
X32618Y-42771D03*
X32618Y-42240D03*
X32618Y-41629D03*
X32618Y-41090D03*
X32618Y-40551D03*
X32618Y-40059D03*
X32618Y-39598D03*
X32618Y-39078D03*
X32618Y-38578D03*
X32618Y-38039D03*
X32618Y-37480D03*
X32618Y-36968D03*
X32618Y-36421D03*
X32618Y-35811D03*
X32618Y-35208D03*
X32618Y-34649D03*
X32618Y-34098D03*
X32618Y-33622D03*
X32618Y-33066D03*
X32618Y-32456D03*
X32618Y-31842D03*
X40708Y-48897D03*
X42559Y-49212D03*
X42874Y-48897D03*
X37476Y-30956D03*
X34484Y-50452D03*
G54D13*
X41525Y-29350D03*
X41958Y-29350D03*
X42389Y-29350D03*
X42823Y-29350D03*
X42389Y-50846D03*
X41958Y-50846D03*
X41525Y-50846D03*
G54D14*
X36917Y-31759D03*
X37177Y-31409D03*
G54D13*
X32232Y-35063D03*
G54D17*
X57566Y-50118D03*
G54D18*
X56566Y-50118D03*
X63045Y-49468D03*
X62045Y-49468D03*
X61045Y-49468D03*
G54D17*
X59045Y-49448D03*
G54D18*
X60045Y-49468D03*
G54D14*
X60984Y-31023D03*
G54D18*
X63389Y-30531D03*
X62389Y-30531D03*
X61389Y-30531D03*
G54D17*
X59389Y-30511D03*
G54D18*
X60389Y-30531D03*
X58387Y-30531D03*
X57387Y-30531D03*
X56387Y-30531D03*
X55387Y-30531D03*
G54D17*
X53387Y-30511D03*
G54D18*
X54387Y-30531D03*
G54D14*
X45944Y-48976D03*
X46259Y-48976D03*
X46574Y-48976D03*
X45629Y-48976D03*
X45629Y-49291D03*
X45629Y-49606D03*
X45314Y-48976D03*
X45314Y-49291D03*
X45314Y-49606D03*
X45000Y-49291D03*
X45000Y-49606D03*
X45000Y-48976D03*
X42204Y-47204D03*
X41889Y-46889D03*
X44527Y-47204D03*
X44212Y-46889D03*
X43897Y-47204D03*
X46850Y-47204D03*
X46535Y-46889D03*
X46220Y-47204D03*
X48149Y-45669D03*
X47519Y-45669D03*
X47834Y-45354D03*
X45629Y-30275D03*
X46614Y-31299D03*
X48858Y-30275D03*
X49527Y-30275D03*
X47559Y-30275D03*
X48228Y-30275D03*
X46259Y-30275D03*
X46929Y-30275D03*
X47559Y-32952D03*
X48543Y-32598D03*
X48228Y-32913D03*
X48858Y-32913D03*
X49173Y-33858D03*
X48858Y-34173D03*
X49488Y-34173D03*
X44803Y-33897D03*
X45275Y-34370D03*
X45433Y-42047D03*
X45118Y-42362D03*
X45748Y-42362D03*
X44251Y-40433D03*
X43937Y-40787D03*
X44566Y-40787D03*
X43188Y-49212D03*
X45669Y-50472D03*
X46181Y-50472D03*
X46692Y-50472D03*
X47204Y-50472D03*
X47716Y-50472D03*
X48228Y-50472D03*
X48740Y-50472D03*
X49251Y-50472D03*
X49850Y-42779D03*
X47559Y-35944D03*
X48503Y-35944D03*
X47559Y-36692D03*
X48503Y-36692D03*
X45748Y-34842D03*
G54D13*
X42823Y-50846D03*
G54D14*
X48027Y-34173D03*
X51177Y-44826D03*
X49531Y-42488D03*
X51763Y-45779D03*
X50027Y-43507D03*
X48582Y-43976D03*
X61712Y-41161D03*
X61948Y-40354D03*
X61594Y-38083D03*
X61594Y-38326D03*
X61685Y-43255D03*
X50500Y-32102D03*
X58976Y-47007D03*
X61496Y-35708D03*
X61929Y-39507D03*
X61929Y-39803D03*
X61338Y-41692D03*
X60413Y-43129D03*
X56299Y-43031D03*
X59015Y-36555D03*
X52646Y-37508D03*
X53562Y-37509D03*
X54822Y-37480D03*
X59803Y-36220D03*
X60649Y-45157D03*
X58562Y-43129D03*
X58326Y-43031D03*
X55299Y-38228D03*
G54D15*
X51169Y-34244D03*
G54D14*
X54051Y-36417D03*
X42011Y-32952D03*
X49299Y-31417D03*
X49318Y-32559D03*
X52610Y-32637D03*
X52874Y-32992D03*
X38665Y-49724D03*
X39649Y-49724D03*
X40633Y-49724D03*
X41618Y-49724D03*
X42602Y-49724D03*
X38665Y-48267D03*
X39649Y-48267D03*
X40633Y-48267D03*
X41618Y-48267D03*
X42602Y-48267D03*
X38665Y-30590D03*
X39649Y-30425D03*
X40633Y-30590D03*
X41618Y-30590D03*
X42602Y-30425D03*
X59429Y-35925D03*
X59429Y-34744D03*
X52012Y-34799D03*
X57972Y-46771D03*
X57362Y-46771D03*
X61062Y-42165D03*
X60807Y-42421D03*
X55393Y-46653D03*
X54114Y-45767D03*
X53582Y-43562D03*
X54094Y-43543D03*
X57716Y-49468D03*
X56988Y-49448D03*
X56141Y-46614D03*
X55570Y-45866D03*
X51712Y-46574D03*
X53720Y-31496D03*
X52598Y-36732D03*
X52598Y-36476D03*
X52598Y-36200D03*
X56023Y-43090D03*
X60688Y-47224D03*
X61496Y-42578D03*
X61102Y-41437D03*
X60216Y-41437D03*
X61102Y-40835D03*
X59881Y-42263D03*
X60826Y-40610D03*
X60216Y-40610D03*
X61181Y-40059D03*
X61692Y-38976D03*
X61181Y-38937D03*
X61181Y-38641D03*
X59822Y-39488D03*
X60413Y-36574D03*
X61889Y-36771D03*
X59881Y-38188D03*
X59311Y-37972D03*
X55098Y-36574D03*
X55925Y-37893D03*
X54822Y-37775D03*
X55885Y-38287D03*
X55610Y-38031D03*
X60314Y-42425D03*
X54724Y-39251D03*
X55925Y-41751D03*
X57086Y-42421D03*
X58326Y-45000D03*
X63051Y-48129D03*
X61830Y-48346D03*
X60039Y-48129D03*
X59035Y-48129D03*
X58444Y-42637D03*
X60846Y-37618D03*
X59429Y-36594D03*
X59862Y-37618D03*
X55728Y-34133D03*
X55452Y-34566D03*
X52972Y-36082D03*
X55728Y-35019D03*
X55984Y-34566D03*
X56220Y-35374D03*
X58385Y-36614D03*
X57322Y-36614D03*
X58582Y-35846D03*
X57165Y-35846D03*
X60629Y-36003D03*
X59015Y-36220D03*
X60492Y-34055D03*
X61692Y-45196D03*
X61692Y-44429D03*
X60649Y-43543D03*
X58444Y-43700D03*
X58779Y-43700D03*
X56515Y-43582D03*
X60216Y-43700D03*
X60000Y-43474D03*
X58051Y-44547D03*
X57795Y-45000D03*
X57559Y-44192D03*
X58572Y-44517D03*
X60000Y-44517D03*
X58572Y-43474D03*
X60882Y-38087D03*
X60780Y-39406D03*
X57224Y-47185D03*
X54409Y-45433D03*
X48708Y-37728D03*
X42405Y-30590D03*
X60059Y-36220D03*
X48708Y-37503D03*
X42799Y-30590D03*
X60374Y-35925D03*
X37877Y-30590D03*
X60649Y-44606D03*
X55394Y-39638D03*
G54D19*
X56437Y-41112D03*
G54D14*
X53650Y-41536D03*
X53583Y-40201D03*
G54D19*
X56437Y-39931D03*
G54D14*
X55831Y-39047D03*
X53503Y-41909D03*
G54D19*
X56437Y-40915D03*
G54D14*
X54212Y-40649D03*
G54D19*
X56437Y-40128D03*
G54D14*
X55303Y-40032D03*
X53662Y-38355D03*
G54D19*
X56437Y-38750D03*
G54D14*
X55709Y-39445D03*
X52193Y-35890D03*
X59740Y-40740D03*
X59783Y-39842D03*
X54453Y-37319D03*
X51721Y-37508D03*
X54721Y-36075D03*
X55555Y-39028D03*
G54D19*
X59055Y-40128D03*
G54D14*
X53503Y-38562D03*
G54D19*
X56437Y-38947D03*
G54D14*
X54370Y-39625D03*
G54D19*
X56437Y-39537D03*
X56437Y-39341D03*
G54D14*
X54370Y-39370D03*
X59272Y-41807D03*
X53579Y-42122D03*
G54D19*
X56437Y-40719D03*
G54D14*
X55772Y-40232D03*
X55890Y-41016D03*
X55260Y-41209D03*
X55815Y-41406D03*
X55610Y-41574D03*
X56303Y-41937D03*
X54370Y-38976D03*
G54D19*
X56437Y-39144D03*
X56437Y-40522D03*
G54D14*
X54212Y-41043D03*
G54D19*
X59065Y-38750D03*
G54D14*
X55288Y-40421D03*
X55701Y-40618D03*
X55366Y-40819D03*
X55748Y-41929D03*
G54D19*
X59065Y-40325D03*
G54D14*
X51732Y-36461D03*
X53976Y-41417D03*
G54D19*
X56447Y-41309D03*
G54D14*
X51728Y-36957D03*
X59980Y-40649D03*
G54D19*
X59065Y-40522D03*
G54D14*
X52870Y-37327D03*
X51728Y-37240D03*
X52870Y-36752D03*
X59669Y-40425D03*
X55736Y-39831D03*
X59748Y-39020D03*
X50728Y-37952D03*
X41421Y-32952D03*
X53897Y-34606D03*
X43389Y-32917D03*
X53129Y-32381D03*
G54D19*
X57057Y-41339D03*
G54D14*
X52906Y-35095D03*
X52543Y-37827D03*
X60492Y-34842D03*
X57204Y-41968D03*
X60473Y-41000D03*
G54D19*
X59065Y-40915D03*
X59065Y-39341D03*
G54D14*
X60339Y-39244D03*
G54D19*
X57254Y-41339D03*
G54D14*
X57559Y-44606D03*
X60030Y-41211D03*
X55826Y-38582D03*
X56023Y-42303D03*
G54D19*
X56437Y-39734D03*
X56437Y-40325D03*
G54D14*
X59094Y-37972D03*
G54D19*
X57854Y-38720D03*
X58238Y-41339D03*
X59065Y-39931D03*
G54D14*
X55610Y-37775D03*
G54D19*
X56870Y-38720D03*
X59075Y-41112D03*
G54D14*
X59645Y-41417D03*
G54D19*
X59065Y-39144D03*
X59065Y-38947D03*
G54D14*
X56948Y-41968D03*
G54D19*
X56663Y-41339D03*
X57067Y-38720D03*
G54D14*
X60570Y-42716D03*
G54D19*
X59065Y-41309D03*
X56860Y-41339D03*
G54D14*
X60000Y-39921D03*
X54736Y-36331D03*
X59646Y-40225D03*
X49354Y-37402D03*
X53208Y-40846D03*
X53071Y-34862D03*
X40437Y-30425D03*
X52381Y-40204D03*
X42208Y-30425D03*
X52618Y-38169D03*
X40830Y-30425D03*
X52232Y-40016D03*
X41421Y-30425D03*
X53503Y-39370D03*
X41814Y-30425D03*
X53503Y-38976D03*
X52618Y-38562D03*
X42011Y-30590D03*
G54D19*
X59065Y-39734D03*
G54D14*
X51445Y-35929D03*
X40240Y-30590D03*
X53346Y-40649D03*
X56181Y-38326D03*
X56338Y-38129D03*
X56575Y-38130D03*
G54D19*
X56673Y-38711D03*
G54D14*
X50019Y-36421D03*
X49634Y-37205D03*
X49917Y-37012D03*
X49748Y-36225D03*
X51717Y-37992D03*
X52535Y-41732D03*
X38862Y-30425D03*
X54964Y-43051D03*
X38074Y-30425D03*
X55453Y-43067D03*
X39452Y-30590D03*
X52283Y-41925D03*
X39846Y-30590D03*
X52307Y-41532D03*
X40043Y-30425D03*
X53287Y-41240D03*
X39059Y-30590D03*
X54721Y-43055D03*
X38271Y-30590D03*
X55225Y-43067D03*
X51669Y-35288D03*
G54D19*
X59065Y-40719D03*
X58435Y-41339D03*
G54D14*
X58536Y-41973D03*
X59281Y-42067D03*
X58740Y-41969D03*
G54D11*
X42645Y-32669D02*
X42645Y-33244D01*
X47129Y-37728D02*
X47704Y-37728D01*
X42645Y-33244D02*
X47129Y-37728D01*
G54D20*
X48708Y-37728D02*
X48775Y-37795D01*
X48775Y-37795D02*
X49280Y-37795D01*
G54D11*
X47704Y-37728D02*
X48708Y-37728D01*
X42405Y-30590D02*
X42405Y-32429D01*
X42405Y-32429D02*
X42645Y-32669D01*
G54D20*
X57440Y-35637D02*
X58826Y-35637D01*
X59862Y-36417D02*
X60059Y-36220D01*
X59606Y-36417D02*
X59862Y-36417D01*
X58826Y-35637D02*
X59606Y-36417D01*
X49276Y-37791D02*
X49280Y-37795D01*
X49280Y-37795D02*
X51098Y-37795D01*
X52594Y-35634D02*
X57440Y-35637D01*
X52000Y-35043D02*
X52594Y-35634D01*
X51355Y-35043D02*
X52000Y-35043D01*
X51185Y-35213D02*
X51355Y-35043D01*
X51185Y-37708D02*
X51185Y-35213D01*
X51098Y-37795D02*
X51185Y-37708D01*
X57440Y-35637D02*
X57965Y-35638D01*
G54D11*
X42866Y-32704D02*
X42866Y-33192D01*
X47177Y-37503D02*
X47665Y-37503D01*
X42866Y-33192D02*
X47177Y-37503D01*
X42799Y-30590D02*
X42799Y-32637D01*
G54D20*
X57559Y-35547D02*
X52681Y-35547D01*
G54D11*
X48708Y-37503D02*
X47665Y-37503D01*
G54D20*
X48842Y-37637D02*
X48708Y-37503D01*
X49326Y-37637D02*
X48842Y-37637D01*
X49327Y-37638D02*
X49326Y-37637D01*
X49327Y-37638D02*
X50677Y-37638D01*
X50677Y-37638D02*
X50843Y-37472D01*
X50843Y-37472D02*
X50843Y-35397D01*
X50843Y-35397D02*
X51291Y-34949D01*
X51291Y-34949D02*
X52083Y-34949D01*
X52083Y-34949D02*
X52681Y-35547D01*
G54D11*
X42799Y-32637D02*
X42866Y-32704D01*
G54D20*
X57559Y-35547D02*
X59365Y-35547D01*
X59744Y-35925D02*
X60374Y-35925D01*
X59365Y-35547D02*
X59744Y-35925D01*
X57559Y-35547D02*
X57852Y-35547D01*
G54D11*
X60649Y-44606D02*
X59685Y-45570D01*
X49744Y-44177D02*
X37877Y-32311D01*
X54204Y-44177D02*
X49744Y-44177D01*
X55598Y-45570D02*
X54204Y-44177D01*
X59685Y-45570D02*
X55598Y-45570D01*
X37877Y-30590D02*
X37877Y-32311D01*
G54D20*
X53602Y-42303D02*
X53326Y-42303D01*
X53188Y-41791D02*
X53444Y-41536D01*
X53188Y-42165D02*
X53188Y-41791D01*
X53326Y-42303D02*
X53188Y-42165D01*
X55137Y-42303D02*
X56102Y-41338D01*
X53602Y-42303D02*
X55137Y-42303D01*
X56328Y-41112D02*
X56437Y-41112D01*
X56102Y-41338D02*
X56328Y-41112D01*
X56075Y-41365D02*
X56102Y-41338D01*
X53650Y-41536D02*
X53444Y-41536D01*
X53583Y-40201D02*
X55547Y-40205D01*
X55913Y-39933D02*
X56437Y-39931D01*
X55547Y-40205D02*
X55913Y-39933D01*
X55015Y-41909D02*
X53503Y-41909D01*
X55826Y-41201D02*
X56003Y-41201D01*
X56289Y-40915D02*
X56437Y-40915D01*
X56003Y-41201D02*
X56289Y-40915D01*
X55724Y-41201D02*
X55826Y-41201D01*
X55015Y-41909D02*
X55724Y-41201D01*
X54212Y-40649D02*
X55414Y-40649D01*
X55414Y-40649D02*
X55670Y-40394D01*
X56118Y-40130D02*
X56437Y-40128D01*
X55854Y-40394D02*
X56118Y-40130D01*
X55670Y-40394D02*
X55854Y-40394D01*
X55505Y-40559D02*
X55670Y-40394D01*
X53662Y-38355D02*
X55194Y-38355D01*
X55587Y-38748D02*
X56437Y-38750D01*
X55194Y-38355D02*
X55587Y-38748D01*
X57553Y-37250D02*
X59946Y-37250D01*
X60374Y-38681D02*
X60161Y-38894D01*
X60374Y-37677D02*
X60374Y-38681D01*
X59946Y-37250D02*
X60374Y-37677D01*
X60161Y-38894D02*
X60161Y-40186D01*
X59740Y-40740D02*
X59740Y-40607D01*
X56193Y-35890D02*
X52193Y-35890D01*
X57553Y-37250D02*
X56193Y-35890D01*
X59740Y-40607D02*
X60161Y-40186D01*
X60051Y-39429D02*
X60051Y-39574D01*
X60051Y-39574D02*
X59783Y-39842D01*
X60051Y-38661D02*
X60051Y-39429D01*
X57511Y-37369D02*
X59889Y-37369D01*
X60051Y-37531D02*
X60051Y-38661D01*
X59889Y-37369D02*
X60051Y-37531D01*
X52178Y-37508D02*
X52336Y-37666D01*
X52336Y-37666D02*
X52799Y-37666D01*
X52799Y-37666D02*
X53146Y-37319D01*
X53146Y-37319D02*
X54453Y-37319D01*
X51721Y-37508D02*
X52178Y-37508D01*
X56217Y-36075D02*
X54721Y-36075D01*
X57511Y-37369D02*
X56217Y-36075D01*
X53503Y-38562D02*
X55098Y-38562D01*
X55378Y-38843D02*
X56205Y-38843D01*
X55098Y-38562D02*
X55378Y-38843D01*
X55866Y-38843D02*
X56205Y-38843D01*
X56309Y-38947D02*
X56437Y-38947D01*
X56205Y-38843D02*
X56309Y-38947D01*
X55539Y-38843D02*
X55866Y-38843D01*
X55137Y-39803D02*
X54547Y-39803D01*
X54547Y-39803D02*
X54370Y-39625D01*
X56437Y-39537D02*
X55896Y-39537D01*
X55511Y-39803D02*
X55137Y-39803D01*
X55669Y-39645D02*
X55511Y-39803D01*
X55787Y-39645D02*
X55669Y-39645D01*
X55896Y-39537D02*
X55787Y-39645D01*
X55374Y-39448D02*
X54448Y-39448D01*
X56083Y-39343D02*
X56437Y-39341D01*
X56032Y-39292D02*
X56083Y-39343D01*
X55374Y-39448D02*
X55530Y-39292D01*
X55530Y-39292D02*
X56032Y-39292D01*
X54448Y-39448D02*
X54370Y-39370D01*
X54527Y-41744D02*
X54948Y-41744D01*
X54948Y-41744D02*
X55975Y-40717D01*
X53579Y-42122D02*
X53401Y-42122D01*
X55975Y-40717D02*
X56437Y-40719D01*
X53421Y-41744D02*
X54527Y-41744D01*
X53307Y-41858D02*
X53421Y-41744D01*
X53307Y-42028D02*
X53307Y-41858D01*
X53401Y-42122D02*
X53307Y-42028D01*
X54370Y-38976D02*
X55078Y-38976D01*
X55303Y-39201D02*
X56048Y-39201D01*
X55078Y-38976D02*
X55303Y-39201D01*
X56111Y-39138D02*
X56437Y-39144D01*
X56048Y-39201D02*
X56111Y-39138D01*
X55528Y-39201D02*
X56048Y-39201D01*
X54212Y-41043D02*
X55484Y-41043D01*
X55488Y-41040D02*
X56004Y-40524D01*
X56004Y-40524D02*
X56437Y-40522D01*
X55484Y-41043D02*
X55488Y-41040D01*
X53031Y-37161D02*
X52062Y-37161D01*
X51909Y-36638D02*
X51732Y-36461D01*
X51909Y-37007D02*
X51909Y-36638D01*
X52062Y-37161D02*
X51909Y-37007D01*
X54645Y-37161D02*
X56555Y-37161D01*
X56555Y-37161D02*
X56555Y-37161D01*
X56555Y-37161D02*
X56555Y-37165D01*
X56555Y-37165D02*
X56555Y-37161D01*
X57490Y-38888D02*
X57197Y-38563D01*
X58819Y-38888D02*
X57490Y-38888D01*
X58878Y-38947D02*
X58819Y-38888D01*
X58878Y-40167D02*
X58878Y-38947D01*
X59087Y-40327D02*
X58878Y-40167D01*
X59065Y-40325D02*
X59087Y-40327D01*
X57197Y-37803D02*
X56555Y-37161D01*
X57197Y-38563D02*
X57197Y-37803D01*
X54645Y-37161D02*
X53031Y-37161D01*
X53523Y-42460D02*
X53326Y-42460D01*
X53090Y-41692D02*
X53405Y-41377D01*
X53090Y-42224D02*
X53090Y-41692D01*
X53326Y-42460D02*
X53090Y-42224D01*
X53937Y-41377D02*
X53976Y-41417D01*
X53405Y-41377D02*
X53937Y-41377D01*
X56220Y-41417D02*
X56328Y-41309D01*
X56328Y-41309D02*
X56447Y-41309D01*
X56220Y-41732D02*
X56220Y-41417D01*
X55492Y-42460D02*
X56220Y-41732D01*
X53523Y-42460D02*
X55492Y-42460D01*
X59980Y-40649D02*
X59980Y-40551D01*
X59980Y-40551D02*
X60510Y-40021D01*
X57578Y-37145D02*
X60059Y-37145D01*
X51555Y-36961D02*
X51728Y-36957D01*
X60508Y-38756D02*
X60510Y-39645D01*
X52499Y-35720D02*
X55905Y-35720D01*
X51921Y-35142D02*
X52499Y-35720D01*
X51429Y-35142D02*
X51921Y-35142D01*
X51287Y-35263D02*
X51429Y-35142D01*
X51287Y-36693D02*
X51287Y-35263D01*
X51555Y-36961D02*
X51287Y-36693D01*
X56153Y-35720D02*
X57578Y-37145D01*
X55905Y-35720D02*
X56153Y-35720D01*
X60510Y-39645D02*
X60510Y-40021D01*
X60059Y-37145D02*
X60508Y-37594D01*
X60508Y-37594D02*
X60508Y-38756D01*
X52870Y-37327D02*
X51815Y-37327D01*
X51815Y-37327D02*
X51728Y-37240D01*
X57535Y-37740D02*
X57535Y-38283D01*
X59409Y-40287D02*
X59547Y-40425D01*
X59409Y-38543D02*
X59409Y-40287D01*
X59212Y-38346D02*
X59409Y-38543D01*
X57598Y-38346D02*
X59212Y-38346D01*
X57535Y-38283D02*
X57598Y-38346D01*
X59547Y-40425D02*
X59669Y-40425D01*
X54625Y-36752D02*
X56547Y-36752D01*
X52870Y-36752D02*
X54625Y-36752D01*
X59547Y-40425D02*
X59669Y-40425D01*
X56547Y-36752D02*
X57535Y-37740D01*
G54D11*
X57716Y-37755D02*
X57716Y-38071D01*
X59527Y-40106D02*
X59646Y-40225D01*
X59527Y-38503D02*
X59527Y-40106D01*
X59251Y-38228D02*
X59527Y-38503D01*
X57874Y-38228D02*
X59251Y-38228D01*
X57716Y-38071D02*
X57874Y-38228D01*
X56166Y-36205D02*
X54862Y-36205D01*
X54862Y-36205D02*
X54736Y-36331D01*
X57716Y-37755D02*
X56166Y-36205D01*
G54D20*
X54387Y-30531D02*
X54387Y-31753D01*
X54387Y-31753D02*
X54389Y-31751D01*
X54389Y-31751D02*
X54314Y-31826D01*
X49354Y-36324D02*
X49709Y-35969D01*
X49709Y-35969D02*
X50027Y-35969D01*
X50027Y-35969D02*
X50264Y-35732D01*
X50264Y-35732D02*
X50264Y-34716D01*
X50264Y-34716D02*
X51130Y-33850D01*
X51130Y-33850D02*
X52291Y-33850D01*
X52291Y-33850D02*
X54307Y-31834D01*
X49354Y-37402D02*
X49354Y-36324D01*
X54314Y-31826D02*
X54307Y-31834D01*
G54D11*
X40437Y-30425D02*
X40437Y-32574D01*
X48066Y-40204D02*
X50842Y-40204D01*
X40437Y-32574D02*
X48066Y-40204D01*
X52381Y-40204D02*
X50842Y-40204D01*
X42462Y-32718D02*
X42462Y-33305D01*
X47440Y-38283D02*
X48027Y-38283D01*
X42462Y-33305D02*
X47440Y-38283D01*
X42208Y-30425D02*
X42208Y-32464D01*
X48027Y-38283D02*
X51102Y-38283D01*
X42208Y-32464D02*
X42462Y-32718D01*
X51102Y-38283D02*
X52503Y-38283D01*
X52503Y-38283D02*
X52618Y-38169D01*
X52394Y-38283D02*
X51102Y-38283D01*
X40830Y-30425D02*
X40830Y-32716D01*
X48130Y-40016D02*
X50716Y-40016D01*
X40830Y-32716D02*
X48130Y-40016D01*
X52232Y-40016D02*
X50716Y-40016D01*
X41421Y-30425D02*
X41421Y-32362D01*
X41610Y-33232D02*
X47748Y-39370D01*
X41610Y-32551D02*
X41610Y-33232D01*
X41421Y-32362D02*
X41610Y-32551D01*
X47748Y-39370D02*
X48078Y-39370D01*
X48078Y-39370D02*
X51039Y-39370D01*
X53503Y-39370D02*
X51039Y-39370D01*
X41814Y-30425D02*
X41814Y-33173D01*
X47618Y-38976D02*
X51082Y-38976D01*
X41814Y-33173D02*
X47618Y-38976D01*
X51988Y-38976D02*
X53503Y-38976D01*
X51082Y-38976D02*
X51082Y-38976D01*
X52232Y-38976D02*
X51988Y-38976D01*
X51988Y-38976D02*
X51082Y-38976D01*
X42011Y-32484D02*
X42228Y-32700D01*
X42011Y-31484D02*
X42011Y-32484D01*
X48090Y-38562D02*
X52618Y-38562D01*
X47456Y-38562D02*
X48090Y-38562D01*
X42228Y-33334D02*
X47456Y-38562D01*
X42228Y-32700D02*
X42228Y-33334D01*
X42011Y-30590D02*
X42011Y-31484D01*
X42011Y-31484D02*
X42011Y-31484D01*
G54D20*
X52814Y-37008D02*
X52145Y-37008D01*
X52007Y-36870D02*
X52007Y-36491D01*
X52145Y-37008D02*
X52007Y-36870D01*
X57319Y-38110D02*
X57319Y-38421D01*
X59212Y-39586D02*
X59065Y-39734D01*
X59212Y-38641D02*
X59212Y-39586D01*
X59114Y-38543D02*
X59212Y-38641D01*
X57440Y-38543D02*
X59114Y-38543D01*
X57319Y-38421D02*
X57440Y-38543D01*
X56240Y-37008D02*
X56543Y-37008D01*
X56543Y-37008D02*
X57319Y-37784D01*
X54606Y-37008D02*
X56240Y-37008D01*
X56542Y-37007D02*
X56535Y-37007D01*
X56543Y-37008D02*
X56542Y-37007D01*
X52007Y-36491D02*
X51445Y-35929D01*
X54606Y-37008D02*
X52814Y-37008D01*
X57319Y-38110D02*
X57319Y-37784D01*
G54D11*
X40240Y-30590D02*
X40240Y-32625D01*
X48268Y-40654D02*
X50720Y-40654D01*
X40240Y-32625D02*
X48268Y-40654D01*
X52027Y-40654D02*
X53342Y-40654D01*
X53342Y-40654D02*
X53346Y-40649D01*
X52213Y-40654D02*
X52027Y-40654D01*
X52027Y-40654D02*
X50720Y-40654D01*
G54D20*
X56387Y-30531D02*
X56387Y-31753D01*
X56387Y-31753D02*
X56389Y-31751D01*
X56314Y-31826D02*
X56307Y-31834D01*
X50019Y-36421D02*
X50251Y-36421D01*
X50248Y-36425D02*
X50484Y-36189D01*
X50484Y-36189D02*
X50484Y-35213D01*
X50484Y-35213D02*
X51545Y-34123D01*
X51545Y-34123D02*
X52385Y-34121D01*
X56307Y-31834D02*
X55758Y-32421D01*
X54094Y-32421D02*
X55758Y-32421D01*
X52385Y-34121D02*
X54094Y-32421D01*
X50251Y-36421D02*
X50248Y-36425D01*
X56389Y-31751D02*
X56314Y-31826D01*
X57387Y-30531D02*
X57387Y-31753D01*
X57387Y-31753D02*
X57389Y-31751D01*
X57314Y-31826D02*
X57307Y-31834D01*
X49634Y-36995D02*
X49634Y-37205D01*
X56555Y-32569D02*
X57307Y-31834D01*
X54124Y-32569D02*
X56555Y-32569D01*
X52165Y-34528D02*
X54124Y-32569D01*
X51335Y-34528D02*
X52165Y-34528D01*
X50606Y-35257D02*
X51335Y-34528D01*
X50606Y-36650D02*
X50606Y-35257D01*
X50433Y-36823D02*
X50606Y-36650D01*
X49806Y-36823D02*
X50433Y-36823D01*
X49634Y-36995D02*
X49806Y-36823D01*
X57389Y-31751D02*
X57314Y-31826D01*
X58387Y-30531D02*
X58387Y-31691D01*
X56141Y-32746D02*
X57332Y-32746D01*
X57332Y-32746D02*
X58387Y-31691D01*
X50531Y-37012D02*
X50713Y-36830D01*
X50713Y-36830D02*
X50713Y-35306D01*
X50713Y-35306D02*
X51358Y-34661D01*
X51358Y-34661D02*
X52283Y-34656D01*
X54193Y-32746D02*
X56141Y-32746D01*
X52283Y-34656D02*
X54193Y-32746D01*
X50531Y-37012D02*
X49917Y-37012D01*
X55387Y-30531D02*
X55387Y-31753D01*
X55387Y-31753D02*
X55381Y-31759D01*
X55381Y-31759D02*
X55314Y-31826D01*
X50086Y-36225D02*
X50386Y-35925D01*
X50386Y-35925D02*
X50386Y-34728D01*
X50386Y-34728D02*
X51149Y-33965D01*
X51149Y-33965D02*
X52366Y-33965D01*
X54866Y-32276D02*
X55307Y-31834D01*
X54055Y-32276D02*
X54866Y-32276D01*
X52366Y-33965D02*
X54055Y-32276D01*
X50086Y-36225D02*
X49748Y-36225D01*
X55314Y-31826D02*
X55307Y-31834D01*
G54D11*
X53212Y-43267D02*
X49629Y-43267D01*
X38862Y-30425D02*
X38862Y-32500D01*
X38862Y-32500D02*
X49629Y-43267D01*
X54748Y-43267D02*
X54964Y-43051D01*
X53208Y-43267D02*
X53212Y-43267D01*
X53212Y-43267D02*
X54748Y-43267D01*
G54D20*
X54964Y-43051D02*
X54956Y-43051D01*
G54D11*
X49787Y-43956D02*
X54563Y-43956D01*
X55453Y-43067D02*
X54563Y-43956D01*
X38074Y-30425D02*
X38074Y-32244D01*
X38074Y-32244D02*
X49787Y-43956D01*
G54D20*
X55453Y-43067D02*
X55436Y-43067D01*
G54D11*
X39452Y-30590D02*
X39452Y-32598D01*
X48779Y-41925D02*
X50417Y-41925D01*
X39452Y-32598D02*
X48779Y-41925D01*
X52283Y-41925D02*
X50417Y-41925D01*
X39846Y-30590D02*
X39846Y-32744D01*
X48633Y-41531D02*
X50500Y-41531D01*
X39846Y-32744D02*
X48633Y-41531D01*
X50500Y-41531D02*
X52307Y-41531D01*
X40043Y-30425D02*
X40043Y-32685D01*
X48606Y-41248D02*
X50452Y-41248D01*
X40043Y-32685D02*
X48606Y-41248D01*
X51397Y-41248D02*
X53279Y-41248D01*
X53279Y-41248D02*
X53287Y-41240D01*
X51622Y-41248D02*
X51397Y-41248D01*
X51397Y-41248D02*
X50452Y-41248D01*
X39059Y-30590D02*
X39059Y-32448D01*
X49665Y-43055D02*
X49618Y-43055D01*
X39059Y-32448D02*
X49665Y-43055D01*
X54721Y-43055D02*
X49618Y-43055D01*
X49905Y-43787D02*
X54504Y-43787D01*
X54968Y-43323D02*
X54504Y-43787D01*
X38271Y-32153D02*
X49905Y-43787D01*
X38271Y-30590D02*
X38271Y-32153D01*
X54969Y-43323D02*
X54968Y-43323D01*
X54968Y-43323D02*
X55225Y-43067D01*
G54D20*
X53051Y-36902D02*
X52216Y-36902D01*
X52125Y-36811D02*
X52125Y-36358D01*
X52216Y-36902D02*
X52125Y-36811D01*
X57441Y-37933D02*
X57441Y-38385D01*
X59162Y-40719D02*
X59065Y-40719D01*
X59212Y-40669D02*
X59162Y-40719D01*
X59212Y-39803D02*
X59212Y-40669D01*
X59311Y-39704D02*
X59212Y-39803D01*
X59311Y-38582D02*
X59311Y-39704D01*
X59173Y-38444D02*
X59311Y-38582D01*
X57500Y-38444D02*
X59173Y-38444D01*
X57441Y-38385D02*
X57500Y-38444D01*
X54665Y-36902D02*
X56583Y-36902D01*
X51669Y-35902D02*
X51669Y-35288D01*
X52125Y-36358D02*
X51669Y-35902D01*
X54665Y-36902D02*
X53051Y-36902D01*
X57441Y-37760D02*
X56584Y-36903D01*
X57441Y-37933D02*
X57441Y-37760D01*
G54D10*
G36*
X52238Y-34259D02*
X52107Y-34390D01*
X51475Y-34390D01*
X51602Y-34260D01*
X52238Y-34259D01*
X52238Y-34259D01*
G37*
G54D21*
X52238Y-34259D02*
X52107Y-34390D01*
X51475Y-34390D01*
X51602Y-34260D01*
X52238Y-34259D01*
G54D10*
G36*
X54646Y-43424D02*
X54439Y-43630D01*
X49970Y-43630D01*
X49763Y-43424D01*
X53208Y-43424D01*
X53212Y-43424D01*
X54646Y-43424D01*
X54646Y-43424D01*
G37*
G54D21*
X54646Y-43424D02*
X54439Y-43630D01*
X49970Y-43630D01*
X49763Y-43424D01*
X53208Y-43424D01*
X53212Y-43424D01*
X54646Y-43424D01*
G54D10*
G36*
X56082Y-41675D02*
X55922Y-41835D01*
X55914Y-41817D01*
X55866Y-41769D01*
X56082Y-41552D01*
X56082Y-41675D01*
X56082Y-41675D01*
G37*
G54D21*
X56082Y-41675D02*
X55922Y-41835D01*
X55914Y-41817D01*
X55866Y-41769D01*
X56082Y-41552D01*
X56082Y-41675D01*
G54D10*
G36*
X56353Y-36614D02*
X54625Y-36614D01*
X54247Y-36614D01*
X54247Y-36378D01*
X54217Y-36306D01*
X54162Y-36250D01*
X54090Y-36220D01*
X54012Y-36220D01*
X53939Y-36250D01*
X53884Y-36305D01*
X53854Y-36378D01*
X53854Y-36456D01*
X53884Y-36528D01*
X53939Y-36583D01*
X54011Y-36613D01*
X54090Y-36613D01*
X54162Y-36584D01*
X54217Y-36528D01*
X54247Y-36456D01*
X54247Y-36378D01*
X54247Y-36614D01*
X53010Y-36614D01*
X52981Y-36585D01*
X52909Y-36555D01*
X52831Y-36555D01*
X52758Y-36585D01*
X52703Y-36640D01*
X52673Y-36712D01*
X52673Y-36764D01*
X52273Y-36764D01*
X52263Y-36754D01*
X52263Y-36358D01*
X52253Y-36306D01*
X52253Y-36306D01*
X52223Y-36261D01*
X51806Y-35845D01*
X51806Y-35428D01*
X51835Y-35399D01*
X51865Y-35327D01*
X51865Y-35281D01*
X52336Y-35752D01*
X52333Y-35752D01*
X52304Y-35723D01*
X52232Y-35693D01*
X52154Y-35693D01*
X52081Y-35723D01*
X52026Y-35778D01*
X51996Y-35850D01*
X51996Y-35928D01*
X52026Y-36001D01*
X52081Y-36056D01*
X52153Y-36086D01*
X52231Y-36086D01*
X52304Y-36056D01*
X52333Y-36027D01*
X54527Y-36027D01*
X54524Y-36035D01*
X54524Y-36113D01*
X54554Y-36186D01*
X54578Y-36210D01*
X54569Y-36219D01*
X54539Y-36291D01*
X54539Y-36369D01*
X54569Y-36442D01*
X54624Y-36497D01*
X54696Y-36527D01*
X54774Y-36527D01*
X54847Y-36497D01*
X54902Y-36442D01*
X54932Y-36370D01*
X54932Y-36361D01*
X56101Y-36361D01*
X56353Y-36614D01*
X56353Y-36614D01*
G37*
G54D21*
X56353Y-36614D02*
X54625Y-36614D01*
X54247Y-36614D01*
X54247Y-36378D01*
X54217Y-36306D01*
X54162Y-36250D01*
X54090Y-36220D01*
X54012Y-36220D01*
X53939Y-36250D01*
X53884Y-36305D01*
X53854Y-36378D01*
X53854Y-36456D01*
X53884Y-36528D01*
X53939Y-36583D01*
X54011Y-36613D01*
X54090Y-36613D01*
X54162Y-36584D01*
X54217Y-36528D01*
X54247Y-36456D01*
X54247Y-36378D01*
X54247Y-36614D01*
X53010Y-36614D01*
X52981Y-36585D01*
X52909Y-36555D01*
X52831Y-36555D01*
X52758Y-36585D01*
X52703Y-36640D01*
X52673Y-36712D01*
X52673Y-36764D01*
X52273Y-36764D01*
X52263Y-36754D01*
X52263Y-36358D01*
X52253Y-36306D01*
X52253Y-36306D01*
X52223Y-36261D01*
X51806Y-35845D01*
X51806Y-35428D01*
X51835Y-35399D01*
X51865Y-35327D01*
X51865Y-35281D01*
X52336Y-35752D01*
X52333Y-35752D01*
X52304Y-35723D01*
X52232Y-35693D01*
X52154Y-35693D01*
X52081Y-35723D01*
X52026Y-35778D01*
X51996Y-35850D01*
X51996Y-35928D01*
X52026Y-36001D01*
X52081Y-36056D01*
X52153Y-36086D01*
X52231Y-36086D01*
X52304Y-36056D01*
X52333Y-36027D01*
X54527Y-36027D01*
X54524Y-36035D01*
X54524Y-36113D01*
X54554Y-36186D01*
X54578Y-36210D01*
X54569Y-36219D01*
X54539Y-36291D01*
X54539Y-36369D01*
X54569Y-36442D01*
X54624Y-36497D01*
X54696Y-36527D01*
X54774Y-36527D01*
X54847Y-36497D01*
X54902Y-36442D01*
X54932Y-36370D01*
X54932Y-36361D01*
X56101Y-36361D01*
X56353Y-36614D01*
G54D10*
G36*
X57059Y-38532D02*
X57029Y-38532D01*
X56968Y-38558D01*
X56907Y-38532D01*
X56832Y-38532D01*
X56780Y-38554D01*
X56779Y-38552D01*
X56771Y-38549D01*
X56771Y-38091D01*
X56741Y-38018D01*
X56686Y-37963D01*
X56614Y-37933D01*
X56536Y-37933D01*
X56463Y-37963D01*
X56456Y-37970D01*
X56450Y-37963D01*
X56377Y-37933D01*
X56299Y-37933D01*
X56227Y-37963D01*
X56172Y-38018D01*
X56142Y-38090D01*
X56141Y-38130D01*
X56069Y-38159D01*
X56014Y-38215D01*
X55984Y-38287D01*
X55984Y-38365D01*
X56014Y-38437D01*
X56069Y-38493D01*
X56141Y-38523D01*
X56220Y-38523D01*
X56292Y-38493D01*
X56347Y-38438D01*
X56377Y-38366D01*
X56377Y-38326D01*
X56449Y-38296D01*
X56456Y-38289D01*
X56463Y-38296D01*
X56535Y-38326D01*
X56613Y-38326D01*
X56686Y-38296D01*
X56741Y-38241D01*
X56771Y-38169D01*
X56771Y-38091D01*
X56771Y-38549D01*
X56710Y-38523D01*
X56635Y-38523D01*
X56567Y-38552D01*
X56532Y-38587D01*
X56474Y-38562D01*
X56399Y-38562D01*
X56331Y-38591D01*
X56310Y-38611D01*
X56023Y-38611D01*
X56023Y-38543D01*
X55993Y-38471D01*
X55938Y-38416D01*
X55866Y-38386D01*
X55806Y-38386D01*
X55806Y-37736D01*
X55777Y-37664D01*
X55721Y-37609D01*
X55649Y-37579D01*
X55571Y-37578D01*
X55499Y-37608D01*
X55443Y-37664D01*
X55413Y-37736D01*
X55413Y-37814D01*
X55443Y-37886D01*
X55498Y-37942D01*
X55570Y-37972D01*
X55649Y-37972D01*
X55721Y-37942D01*
X55776Y-37887D01*
X55806Y-37814D01*
X55806Y-37736D01*
X55806Y-38386D01*
X55787Y-38386D01*
X55715Y-38415D01*
X55660Y-38471D01*
X55630Y-38543D01*
X55630Y-38596D01*
X55419Y-38385D01*
X55465Y-38339D01*
X55495Y-38267D01*
X55495Y-38189D01*
X55465Y-38116D01*
X55410Y-38061D01*
X55338Y-38031D01*
X55260Y-38031D01*
X55187Y-38061D01*
X55132Y-38116D01*
X55102Y-38188D01*
X55102Y-38217D01*
X53802Y-38217D01*
X53773Y-38188D01*
X53701Y-38158D01*
X53623Y-38158D01*
X53550Y-38188D01*
X53495Y-38243D01*
X53465Y-38315D01*
X53465Y-38366D01*
X53465Y-38366D01*
X53392Y-38396D01*
X53337Y-38451D01*
X53307Y-38523D01*
X53307Y-38601D01*
X53337Y-38674D01*
X53392Y-38729D01*
X53464Y-38759D01*
X53542Y-38759D01*
X53615Y-38729D01*
X53644Y-38700D01*
X55041Y-38700D01*
X55281Y-38940D01*
X55281Y-38940D01*
X55303Y-38955D01*
X55325Y-38970D01*
X55325Y-38970D01*
X55363Y-38977D01*
X55358Y-38988D01*
X55358Y-39061D01*
X55176Y-38879D01*
X55131Y-38849D01*
X55078Y-38838D01*
X54510Y-38838D01*
X54481Y-38809D01*
X54409Y-38779D01*
X54331Y-38779D01*
X54258Y-38809D01*
X54203Y-38864D01*
X54173Y-38937D01*
X54173Y-39015D01*
X54203Y-39087D01*
X54258Y-39142D01*
X54330Y-39172D01*
X54409Y-39173D01*
X54481Y-39143D01*
X54510Y-39113D01*
X55021Y-39113D01*
X55206Y-39298D01*
X55225Y-39311D01*
X54558Y-39311D01*
X54536Y-39258D01*
X54481Y-39203D01*
X54409Y-39173D01*
X54331Y-39173D01*
X54258Y-39203D01*
X54203Y-39258D01*
X54173Y-39330D01*
X54173Y-39409D01*
X54203Y-39481D01*
X54219Y-39498D01*
X54203Y-39514D01*
X54173Y-39586D01*
X54173Y-39664D01*
X54203Y-39737D01*
X54258Y-39792D01*
X54330Y-39822D01*
X54372Y-39822D01*
X54449Y-39900D01*
X54494Y-39930D01*
X54494Y-39930D01*
X54547Y-39940D01*
X55127Y-39940D01*
X55106Y-39992D01*
X55106Y-40066D01*
X53723Y-40063D01*
X53694Y-40034D01*
X53622Y-40004D01*
X53544Y-40004D01*
X53471Y-40034D01*
X53416Y-40089D01*
X53386Y-40161D01*
X53386Y-40239D01*
X53416Y-40312D01*
X53471Y-40367D01*
X53543Y-40397D01*
X53621Y-40397D01*
X53694Y-40367D01*
X53723Y-40338D01*
X55108Y-40341D01*
X55091Y-40381D01*
X55091Y-40459D01*
X55112Y-40511D01*
X54353Y-40511D01*
X54324Y-40483D01*
X54251Y-40453D01*
X54173Y-40452D01*
X54101Y-40482D01*
X54046Y-40538D01*
X54016Y-40610D01*
X54015Y-40688D01*
X54045Y-40760D01*
X54101Y-40816D01*
X54173Y-40846D01*
X54251Y-40846D01*
X54323Y-40816D01*
X54353Y-40787D01*
X55169Y-40787D01*
X55169Y-40857D01*
X55189Y-40905D01*
X54353Y-40905D01*
X54324Y-40876D01*
X54251Y-40846D01*
X54173Y-40846D01*
X54101Y-40876D01*
X54046Y-40931D01*
X54016Y-41004D01*
X54015Y-41082D01*
X54045Y-41154D01*
X54101Y-41209D01*
X54173Y-41239D01*
X54251Y-41239D01*
X54323Y-41210D01*
X54353Y-41180D01*
X55063Y-41180D01*
X55063Y-41247D01*
X55093Y-41320D01*
X55135Y-41362D01*
X54891Y-41606D01*
X54527Y-41606D01*
X54033Y-41606D01*
X54087Y-41584D01*
X54142Y-41528D01*
X54172Y-41456D01*
X54173Y-41378D01*
X54143Y-41306D01*
X54087Y-41250D01*
X54015Y-41220D01*
X53937Y-41220D01*
X53889Y-41240D01*
X53484Y-41240D01*
X53484Y-41201D01*
X53454Y-41128D01*
X53398Y-41073D01*
X53326Y-41043D01*
X53248Y-41043D01*
X53176Y-41073D01*
X53158Y-41091D01*
X51622Y-41091D01*
X51397Y-41091D01*
X50452Y-41091D01*
X48671Y-41091D01*
X48390Y-40810D01*
X50720Y-40810D01*
X52027Y-40810D01*
X52213Y-40810D01*
X53012Y-40810D01*
X53012Y-40885D01*
X53041Y-40957D01*
X53097Y-41013D01*
X53169Y-41043D01*
X53247Y-41043D01*
X53319Y-41013D01*
X53375Y-40957D01*
X53405Y-40885D01*
X53405Y-40838D01*
X53457Y-40816D01*
X53513Y-40761D01*
X53543Y-40688D01*
X53543Y-40610D01*
X53513Y-40538D01*
X53457Y-40483D01*
X53385Y-40453D01*
X53307Y-40452D01*
X53235Y-40482D01*
X53220Y-40497D01*
X52213Y-40497D01*
X52027Y-40497D01*
X50720Y-40497D01*
X48333Y-40497D01*
X48196Y-40361D01*
X50842Y-40361D01*
X52260Y-40361D01*
X52270Y-40371D01*
X52342Y-40401D01*
X52420Y-40401D01*
X52493Y-40371D01*
X52548Y-40316D01*
X52578Y-40244D01*
X52578Y-40165D01*
X52548Y-40093D01*
X52493Y-40038D01*
X52428Y-40011D01*
X52428Y-39977D01*
X52398Y-39904D01*
X52343Y-39849D01*
X52271Y-39819D01*
X52193Y-39819D01*
X52120Y-39849D01*
X52110Y-39859D01*
X50716Y-39859D01*
X48195Y-39859D01*
X47862Y-39526D01*
X48078Y-39526D01*
X51039Y-39526D01*
X53382Y-39526D01*
X53392Y-39536D01*
X53464Y-39566D01*
X53542Y-39566D01*
X53615Y-39536D01*
X53670Y-39481D01*
X53700Y-39409D01*
X53700Y-39331D01*
X53670Y-39258D01*
X53615Y-39203D01*
X53543Y-39173D01*
X53465Y-39173D01*
X53392Y-39203D01*
X53382Y-39213D01*
X51039Y-39213D01*
X48078Y-39213D01*
X47812Y-39213D01*
X47732Y-39132D01*
X51082Y-39132D01*
X51988Y-39132D01*
X52232Y-39132D01*
X53382Y-39132D01*
X53392Y-39142D01*
X53464Y-39172D01*
X53542Y-39173D01*
X53615Y-39143D01*
X53670Y-39087D01*
X53700Y-39015D01*
X53700Y-38937D01*
X53670Y-38865D01*
X53615Y-38809D01*
X53543Y-38779D01*
X53465Y-38779D01*
X53392Y-38809D01*
X53382Y-38819D01*
X52232Y-38819D01*
X51988Y-38819D01*
X51082Y-38819D01*
X47682Y-38819D01*
X47582Y-38719D01*
X48090Y-38719D01*
X52496Y-38719D01*
X52506Y-38729D01*
X52578Y-38759D01*
X52657Y-38759D01*
X52729Y-38729D01*
X52784Y-38674D01*
X52814Y-38602D01*
X52814Y-38524D01*
X52784Y-38451D01*
X52729Y-38396D01*
X52657Y-38366D01*
X52642Y-38366D01*
X52642Y-38365D01*
X52657Y-38365D01*
X52729Y-38336D01*
X52784Y-38280D01*
X52814Y-38208D01*
X52814Y-38130D01*
X52784Y-38058D01*
X52729Y-38002D01*
X52670Y-37977D01*
X52709Y-37938D01*
X52739Y-37866D01*
X52739Y-37803D01*
X52799Y-37803D01*
X52851Y-37793D01*
X52851Y-37793D01*
X52896Y-37763D01*
X53203Y-37456D01*
X53372Y-37456D01*
X53366Y-37470D01*
X53366Y-37548D01*
X53396Y-37621D01*
X53451Y-37676D01*
X53523Y-37706D01*
X53601Y-37706D01*
X53674Y-37676D01*
X53729Y-37621D01*
X53759Y-37549D01*
X53759Y-37470D01*
X53753Y-37456D01*
X54312Y-37456D01*
X54341Y-37485D01*
X54413Y-37515D01*
X54491Y-37515D01*
X54564Y-37485D01*
X54619Y-37430D01*
X54649Y-37358D01*
X54649Y-37298D01*
X54747Y-37298D01*
X54711Y-37313D01*
X54656Y-37368D01*
X54626Y-37441D01*
X54626Y-37519D01*
X54656Y-37591D01*
X54711Y-37646D01*
X54783Y-37676D01*
X54861Y-37676D01*
X54934Y-37647D01*
X54989Y-37591D01*
X55019Y-37519D01*
X55019Y-37441D01*
X54989Y-37369D01*
X54934Y-37313D01*
X54897Y-37298D01*
X56498Y-37298D01*
X57059Y-37860D01*
X57059Y-38532D01*
X57059Y-38532D01*
G37*
G54D21*
X57059Y-38532D02*
X57029Y-38532D01*
X56968Y-38558D01*
X56907Y-38532D01*
X56832Y-38532D01*
X56780Y-38554D01*
X56779Y-38552D01*
X56771Y-38549D01*
X56771Y-38091D01*
X56741Y-38018D01*
X56686Y-37963D01*
X56614Y-37933D01*
X56536Y-37933D01*
X56463Y-37963D01*
X56456Y-37970D01*
X56450Y-37963D01*
X56377Y-37933D01*
X56299Y-37933D01*
X56227Y-37963D01*
X56172Y-38018D01*
X56142Y-38090D01*
X56141Y-38130D01*
X56069Y-38159D01*
X56014Y-38215D01*
X55984Y-38287D01*
X55984Y-38365D01*
X56014Y-38437D01*
X56069Y-38493D01*
X56141Y-38523D01*
X56220Y-38523D01*
X56292Y-38493D01*
X56347Y-38438D01*
X56377Y-38366D01*
X56377Y-38326D01*
X56449Y-38296D01*
X56456Y-38289D01*
X56463Y-38296D01*
X56535Y-38326D01*
X56613Y-38326D01*
X56686Y-38296D01*
X56741Y-38241D01*
X56771Y-38169D01*
X56771Y-38091D01*
X56771Y-38549D01*
X56710Y-38523D01*
X56635Y-38523D01*
X56567Y-38552D01*
X56532Y-38587D01*
X56474Y-38562D01*
X56399Y-38562D01*
X56331Y-38591D01*
X56310Y-38611D01*
X56023Y-38611D01*
X56023Y-38543D01*
X55993Y-38471D01*
X55938Y-38416D01*
X55866Y-38386D01*
X55806Y-38386D01*
X55806Y-37736D01*
X55777Y-37664D01*
X55721Y-37609D01*
X55649Y-37579D01*
X55571Y-37578D01*
X55499Y-37608D01*
X55443Y-37664D01*
X55413Y-37736D01*
X55413Y-37814D01*
X55443Y-37886D01*
X55498Y-37942D01*
X55570Y-37972D01*
X55649Y-37972D01*
X55721Y-37942D01*
X55776Y-37887D01*
X55806Y-37814D01*
X55806Y-37736D01*
X55806Y-38386D01*
X55787Y-38386D01*
X55715Y-38415D01*
X55660Y-38471D01*
X55630Y-38543D01*
X55630Y-38596D01*
X55419Y-38385D01*
X55465Y-38339D01*
X55495Y-38267D01*
X55495Y-38189D01*
X55465Y-38116D01*
X55410Y-38061D01*
X55338Y-38031D01*
X55260Y-38031D01*
X55187Y-38061D01*
X55132Y-38116D01*
X55102Y-38188D01*
X55102Y-38217D01*
X53802Y-38217D01*
X53773Y-38188D01*
X53701Y-38158D01*
X53623Y-38158D01*
X53550Y-38188D01*
X53495Y-38243D01*
X53465Y-38315D01*
X53465Y-38366D01*
X53465Y-38366D01*
X53392Y-38396D01*
X53337Y-38451D01*
X53307Y-38523D01*
X53307Y-38601D01*
X53337Y-38674D01*
X53392Y-38729D01*
X53464Y-38759D01*
X53542Y-38759D01*
X53615Y-38729D01*
X53644Y-38700D01*
X55041Y-38700D01*
X55281Y-38940D01*
X55281Y-38940D01*
X55303Y-38955D01*
X55325Y-38970D01*
X55325Y-38970D01*
X55363Y-38977D01*
X55358Y-38988D01*
X55358Y-39061D01*
X55176Y-38879D01*
X55131Y-38849D01*
X55078Y-38838D01*
X54510Y-38838D01*
X54481Y-38809D01*
X54409Y-38779D01*
X54331Y-38779D01*
X54258Y-38809D01*
X54203Y-38864D01*
X54173Y-38937D01*
X54173Y-39015D01*
X54203Y-39087D01*
X54258Y-39142D01*
X54330Y-39172D01*
X54409Y-39173D01*
X54481Y-39143D01*
X54510Y-39113D01*
X55021Y-39113D01*
X55206Y-39298D01*
X55225Y-39311D01*
X54558Y-39311D01*
X54536Y-39258D01*
X54481Y-39203D01*
X54409Y-39173D01*
X54331Y-39173D01*
X54258Y-39203D01*
X54203Y-39258D01*
X54173Y-39330D01*
X54173Y-39409D01*
X54203Y-39481D01*
X54219Y-39498D01*
X54203Y-39514D01*
X54173Y-39586D01*
X54173Y-39664D01*
X54203Y-39737D01*
X54258Y-39792D01*
X54330Y-39822D01*
X54372Y-39822D01*
X54449Y-39900D01*
X54494Y-39930D01*
X54494Y-39930D01*
X54547Y-39940D01*
X55127Y-39940D01*
X55106Y-39992D01*
X55106Y-40066D01*
X53723Y-40063D01*
X53694Y-40034D01*
X53622Y-40004D01*
X53544Y-40004D01*
X53471Y-40034D01*
X53416Y-40089D01*
X53386Y-40161D01*
X53386Y-40239D01*
X53416Y-40312D01*
X53471Y-40367D01*
X53543Y-40397D01*
X53621Y-40397D01*
X53694Y-40367D01*
X53723Y-40338D01*
X55108Y-40341D01*
X55091Y-40381D01*
X55091Y-40459D01*
X55112Y-40511D01*
X54353Y-40511D01*
X54324Y-40483D01*
X54251Y-40453D01*
X54173Y-40452D01*
X54101Y-40482D01*
X54046Y-40538D01*
X54016Y-40610D01*
X54015Y-40688D01*
X54045Y-40760D01*
X54101Y-40816D01*
X54173Y-40846D01*
X54251Y-40846D01*
X54323Y-40816D01*
X54353Y-40787D01*
X55169Y-40787D01*
X55169Y-40857D01*
X55189Y-40905D01*
X54353Y-40905D01*
X54324Y-40876D01*
X54251Y-40846D01*
X54173Y-40846D01*
X54101Y-40876D01*
X54046Y-40931D01*
X54016Y-41004D01*
X54015Y-41082D01*
X54045Y-41154D01*
X54101Y-41209D01*
X54173Y-41239D01*
X54251Y-41239D01*
X54323Y-41210D01*
X54353Y-41180D01*
X55063Y-41180D01*
X55063Y-41247D01*
X55093Y-41320D01*
X55135Y-41362D01*
X54891Y-41606D01*
X54527Y-41606D01*
X54033Y-41606D01*
X54087Y-41584D01*
X54142Y-41528D01*
X54172Y-41456D01*
X54173Y-41378D01*
X54143Y-41306D01*
X54087Y-41250D01*
X54015Y-41220D01*
X53937Y-41220D01*
X53889Y-41240D01*
X53484Y-41240D01*
X53484Y-41201D01*
X53454Y-41128D01*
X53398Y-41073D01*
X53326Y-41043D01*
X53248Y-41043D01*
X53176Y-41073D01*
X53158Y-41091D01*
X51622Y-41091D01*
X51397Y-41091D01*
X50452Y-41091D01*
X48671Y-41091D01*
X48390Y-40810D01*
X50720Y-40810D01*
X52027Y-40810D01*
X52213Y-40810D01*
X53012Y-40810D01*
X53012Y-40885D01*
X53041Y-40957D01*
X53097Y-41013D01*
X53169Y-41043D01*
X53247Y-41043D01*
X53319Y-41013D01*
X53375Y-40957D01*
X53405Y-40885D01*
X53405Y-40838D01*
X53457Y-40816D01*
X53513Y-40761D01*
X53543Y-40688D01*
X53543Y-40610D01*
X53513Y-40538D01*
X53457Y-40483D01*
X53385Y-40453D01*
X53307Y-40452D01*
X53235Y-40482D01*
X53220Y-40497D01*
X52213Y-40497D01*
X52027Y-40497D01*
X50720Y-40497D01*
X48333Y-40497D01*
X48196Y-40361D01*
X50842Y-40361D01*
X52260Y-40361D01*
X52270Y-40371D01*
X52342Y-40401D01*
X52420Y-40401D01*
X52493Y-40371D01*
X52548Y-40316D01*
X52578Y-40244D01*
X52578Y-40165D01*
X52548Y-40093D01*
X52493Y-40038D01*
X52428Y-40011D01*
X52428Y-39977D01*
X52398Y-39904D01*
X52343Y-39849D01*
X52271Y-39819D01*
X52193Y-39819D01*
X52120Y-39849D01*
X52110Y-39859D01*
X50716Y-39859D01*
X48195Y-39859D01*
X47862Y-39526D01*
X48078Y-39526D01*
X51039Y-39526D01*
X53382Y-39526D01*
X53392Y-39536D01*
X53464Y-39566D01*
X53542Y-39566D01*
X53615Y-39536D01*
X53670Y-39481D01*
X53700Y-39409D01*
X53700Y-39331D01*
X53670Y-39258D01*
X53615Y-39203D01*
X53543Y-39173D01*
X53465Y-39173D01*
X53392Y-39203D01*
X53382Y-39213D01*
X51039Y-39213D01*
X48078Y-39213D01*
X47812Y-39213D01*
X47732Y-39132D01*
X51082Y-39132D01*
X51988Y-39132D01*
X52232Y-39132D01*
X53382Y-39132D01*
X53392Y-39142D01*
X53464Y-39172D01*
X53542Y-39173D01*
X53615Y-39143D01*
X53670Y-39087D01*
X53700Y-39015D01*
X53700Y-38937D01*
X53670Y-38865D01*
X53615Y-38809D01*
X53543Y-38779D01*
X53465Y-38779D01*
X53392Y-38809D01*
X53382Y-38819D01*
X52232Y-38819D01*
X51988Y-38819D01*
X51082Y-38819D01*
X47682Y-38819D01*
X47582Y-38719D01*
X48090Y-38719D01*
X52496Y-38719D01*
X52506Y-38729D01*
X52578Y-38759D01*
X52657Y-38759D01*
X52729Y-38729D01*
X52784Y-38674D01*
X52814Y-38602D01*
X52814Y-38524D01*
X52784Y-38451D01*
X52729Y-38396D01*
X52657Y-38366D01*
X52642Y-38366D01*
X52642Y-38365D01*
X52657Y-38365D01*
X52729Y-38336D01*
X52784Y-38280D01*
X52814Y-38208D01*
X52814Y-38130D01*
X52784Y-38058D01*
X52729Y-38002D01*
X52670Y-37977D01*
X52709Y-37938D01*
X52739Y-37866D01*
X52739Y-37803D01*
X52799Y-37803D01*
X52851Y-37793D01*
X52851Y-37793D01*
X52896Y-37763D01*
X53203Y-37456D01*
X53372Y-37456D01*
X53366Y-37470D01*
X53366Y-37548D01*
X53396Y-37621D01*
X53451Y-37676D01*
X53523Y-37706D01*
X53601Y-37706D01*
X53674Y-37676D01*
X53729Y-37621D01*
X53759Y-37549D01*
X53759Y-37470D01*
X53753Y-37456D01*
X54312Y-37456D01*
X54341Y-37485D01*
X54413Y-37515D01*
X54491Y-37515D01*
X54564Y-37485D01*
X54619Y-37430D01*
X54649Y-37358D01*
X54649Y-37298D01*
X54747Y-37298D01*
X54711Y-37313D01*
X54656Y-37368D01*
X54626Y-37441D01*
X54626Y-37519D01*
X54656Y-37591D01*
X54711Y-37646D01*
X54783Y-37676D01*
X54861Y-37676D01*
X54934Y-37647D01*
X54989Y-37591D01*
X55019Y-37519D01*
X55019Y-37441D01*
X54989Y-37369D01*
X54934Y-37313D01*
X54897Y-37298D01*
X56498Y-37298D01*
X57059Y-37860D01*
X57059Y-38532D01*
G54D10*
G36*
X59693Y-36052D02*
X59691Y-36053D01*
X59636Y-36108D01*
X59606Y-36181D01*
X59606Y-36222D01*
X59068Y-35684D01*
X59308Y-35684D01*
X59646Y-36022D01*
X59646Y-36022D01*
X59691Y-36052D01*
X59691Y-36052D01*
X59693Y-36052D01*
X59693Y-36052D01*
G37*
G54D21*
X59693Y-36052D02*
X59691Y-36053D01*
X59636Y-36108D01*
X59606Y-36181D01*
X59606Y-36222D01*
X59068Y-35684D01*
X59308Y-35684D01*
X59646Y-36022D01*
X59646Y-36022D01*
X59691Y-36052D01*
X59691Y-36052D01*
X59693Y-36052D01*
G54D10*
G36*
X59913Y-38907D02*
X59859Y-38853D01*
X59787Y-38823D01*
X59709Y-38823D01*
X59684Y-38833D01*
X59684Y-38503D01*
X59672Y-38444D01*
X59638Y-38393D01*
X59362Y-38117D01*
X59311Y-38083D01*
X59265Y-38074D01*
X59291Y-38011D01*
X59291Y-37933D01*
X59261Y-37861D01*
X59206Y-37805D01*
X59133Y-37775D01*
X59055Y-37775D01*
X58983Y-37805D01*
X58927Y-37860D01*
X58897Y-37933D01*
X58897Y-38011D01*
X58922Y-38071D01*
X57938Y-38071D01*
X57873Y-38006D01*
X57873Y-37755D01*
X57873Y-37755D01*
X57861Y-37695D01*
X57827Y-37644D01*
X57827Y-37644D01*
X57690Y-37507D01*
X59832Y-37507D01*
X59913Y-37588D01*
X59913Y-38661D01*
X59913Y-38907D01*
X59913Y-38907D01*
G37*
G54D21*
X59913Y-38907D02*
X59859Y-38853D01*
X59787Y-38823D01*
X59709Y-38823D01*
X59684Y-38833D01*
X59684Y-38503D01*
X59672Y-38444D01*
X59638Y-38393D01*
X59362Y-38117D01*
X59311Y-38083D01*
X59265Y-38074D01*
X59291Y-38011D01*
X59291Y-37933D01*
X59261Y-37861D01*
X59206Y-37805D01*
X59133Y-37775D01*
X59055Y-37775D01*
X58983Y-37805D01*
X58927Y-37860D01*
X58897Y-37933D01*
X58897Y-38011D01*
X58922Y-38071D01*
X57938Y-38071D01*
X57873Y-38006D01*
X57873Y-37755D01*
X57873Y-37755D01*
X57861Y-37695D01*
X57827Y-37644D01*
X57827Y-37644D01*
X57690Y-37507D01*
X59832Y-37507D01*
X59913Y-37588D01*
X59913Y-38661D01*
X59913Y-38907D01*
G54D10*
G36*
X59913Y-39517D02*
X59785Y-39645D01*
X59744Y-39645D01*
X59684Y-39670D01*
X59684Y-39206D01*
X59708Y-39216D01*
X59786Y-39216D01*
X59859Y-39186D01*
X59913Y-39132D01*
X59913Y-39429D01*
X59913Y-39517D01*
X59913Y-39517D01*
G37*
G54D21*
X59913Y-39517D02*
X59785Y-39645D01*
X59744Y-39645D01*
X59684Y-39670D01*
X59684Y-39206D01*
X59708Y-39216D01*
X59786Y-39216D01*
X59859Y-39186D01*
X59913Y-39132D01*
X59913Y-39429D01*
X59913Y-39517D01*
G54D10*
G36*
X65984Y-49527D02*
X65984Y-49527D01*
X65984Y-50570D01*
X63806Y-50570D01*
X63806Y-30448D01*
X63743Y-30295D01*
X63625Y-30178D01*
X63472Y-30114D01*
X63307Y-30114D01*
X63153Y-30177D01*
X63036Y-30295D01*
X62973Y-30448D01*
X62972Y-30613D01*
X63036Y-30767D01*
X63153Y-30884D01*
X63306Y-30947D01*
X63472Y-30948D01*
X63625Y-30884D01*
X63742Y-30767D01*
X63806Y-30614D01*
X63806Y-30448D01*
X63806Y-50570D01*
X63461Y-50570D01*
X63461Y-49385D01*
X63398Y-49232D01*
X63281Y-49115D01*
X63128Y-49051D01*
X62962Y-49051D01*
X62809Y-49114D01*
X62806Y-49118D01*
X62806Y-30448D01*
X62743Y-30295D01*
X62625Y-30178D01*
X62472Y-30114D01*
X62307Y-30114D01*
X62153Y-30177D01*
X62036Y-30295D01*
X61973Y-30448D01*
X61972Y-30613D01*
X62036Y-30767D01*
X62153Y-30884D01*
X62306Y-30947D01*
X62472Y-30948D01*
X62625Y-30884D01*
X62742Y-30767D01*
X62806Y-30614D01*
X62806Y-30448D01*
X62806Y-49118D01*
X62692Y-49232D01*
X62628Y-49385D01*
X62628Y-49550D01*
X62691Y-49704D01*
X62808Y-49821D01*
X62961Y-49884D01*
X63127Y-49885D01*
X63280Y-49821D01*
X63398Y-49704D01*
X63461Y-49551D01*
X63461Y-49385D01*
X63461Y-50570D01*
X62461Y-50570D01*
X62461Y-49385D01*
X62398Y-49232D01*
X62281Y-49115D01*
X62145Y-49058D01*
X62145Y-40315D01*
X62125Y-40267D01*
X62125Y-39764D01*
X62095Y-39691D01*
X62059Y-39655D01*
X62095Y-39619D01*
X62125Y-39547D01*
X62125Y-39468D01*
X62095Y-39396D01*
X62040Y-39341D01*
X61968Y-39311D01*
X61890Y-39311D01*
X61817Y-39341D01*
X61791Y-39367D01*
X61791Y-38287D01*
X61761Y-38215D01*
X61750Y-38204D01*
X61760Y-38194D01*
X61790Y-38122D01*
X61790Y-38044D01*
X61760Y-37971D01*
X61705Y-37916D01*
X61692Y-37911D01*
X61692Y-35669D01*
X61662Y-35597D01*
X61607Y-35542D01*
X61535Y-35512D01*
X61457Y-35512D01*
X61384Y-35541D01*
X61329Y-35597D01*
X61299Y-35669D01*
X61299Y-35747D01*
X61329Y-35819D01*
X61384Y-35875D01*
X61456Y-35905D01*
X61534Y-35905D01*
X61607Y-35875D01*
X61662Y-35820D01*
X61692Y-35747D01*
X61692Y-35669D01*
X61692Y-37911D01*
X61633Y-37886D01*
X61555Y-37886D01*
X61482Y-37916D01*
X61427Y-37971D01*
X61397Y-38043D01*
X61397Y-38121D01*
X61427Y-38194D01*
X61438Y-38205D01*
X61427Y-38215D01*
X61397Y-38287D01*
X61397Y-38365D01*
X61427Y-38437D01*
X61482Y-38493D01*
X61555Y-38523D01*
X61633Y-38523D01*
X61705Y-38493D01*
X61761Y-38438D01*
X61791Y-38366D01*
X61791Y-38287D01*
X61791Y-39367D01*
X61762Y-39396D01*
X61732Y-39468D01*
X61732Y-39546D01*
X61762Y-39619D01*
X61798Y-39655D01*
X61762Y-39691D01*
X61732Y-39763D01*
X61732Y-39842D01*
X61762Y-39914D01*
X61817Y-39969D01*
X61889Y-39999D01*
X61968Y-39999D01*
X62040Y-39969D01*
X62095Y-39914D01*
X62125Y-39842D01*
X62125Y-39764D01*
X62125Y-40267D01*
X62115Y-40243D01*
X62060Y-40187D01*
X61988Y-40157D01*
X61909Y-40157D01*
X61837Y-40187D01*
X61782Y-40242D01*
X61752Y-40315D01*
X61752Y-40393D01*
X61782Y-40465D01*
X61837Y-40520D01*
X61909Y-40550D01*
X61987Y-40550D01*
X62060Y-40521D01*
X62115Y-40465D01*
X62145Y-40393D01*
X62145Y-40315D01*
X62145Y-49058D01*
X62128Y-49051D01*
X61962Y-49051D01*
X61909Y-49073D01*
X61909Y-41122D01*
X61879Y-41050D01*
X61824Y-40994D01*
X61751Y-40964D01*
X61673Y-40964D01*
X61601Y-40994D01*
X61546Y-41049D01*
X61516Y-41122D01*
X61515Y-41200D01*
X61545Y-41272D01*
X61601Y-41327D01*
X61673Y-41357D01*
X61751Y-41358D01*
X61823Y-41328D01*
X61879Y-41272D01*
X61909Y-41200D01*
X61909Y-41122D01*
X61909Y-49073D01*
X61881Y-49085D01*
X61881Y-43216D01*
X61851Y-43144D01*
X61796Y-43089D01*
X61724Y-43059D01*
X61646Y-43059D01*
X61573Y-43089D01*
X61535Y-43127D01*
X61535Y-41653D01*
X61505Y-41581D01*
X61450Y-41526D01*
X61377Y-41496D01*
X61299Y-41496D01*
X61227Y-41526D01*
X61172Y-41581D01*
X61142Y-41653D01*
X61141Y-41731D01*
X61171Y-41804D01*
X61227Y-41859D01*
X61299Y-41889D01*
X61377Y-41889D01*
X61449Y-41859D01*
X61505Y-41804D01*
X61535Y-41732D01*
X61535Y-41653D01*
X61535Y-43127D01*
X61518Y-43144D01*
X61488Y-43216D01*
X61488Y-43294D01*
X61518Y-43367D01*
X61573Y-43422D01*
X61645Y-43452D01*
X61723Y-43452D01*
X61796Y-43422D01*
X61851Y-43367D01*
X61881Y-43295D01*
X61881Y-43216D01*
X61881Y-49085D01*
X61809Y-49114D01*
X61692Y-49232D01*
X61628Y-49385D01*
X61628Y-49550D01*
X61691Y-49704D01*
X61808Y-49821D01*
X61961Y-49884D01*
X62127Y-49885D01*
X62280Y-49821D01*
X62398Y-49704D01*
X62461Y-49551D01*
X62461Y-49385D01*
X62461Y-50570D01*
X60846Y-50570D01*
X60846Y-45118D01*
X60846Y-44567D01*
X60816Y-44495D01*
X60806Y-44484D01*
X60806Y-30448D01*
X60743Y-30295D01*
X60625Y-30178D01*
X60472Y-30114D01*
X60307Y-30114D01*
X60153Y-30177D01*
X60036Y-30295D01*
X59973Y-30448D01*
X59972Y-30613D01*
X60036Y-30767D01*
X60153Y-30884D01*
X60306Y-30947D01*
X60472Y-30948D01*
X60625Y-30884D01*
X60742Y-30767D01*
X60806Y-30614D01*
X60806Y-30448D01*
X60806Y-44484D01*
X60767Y-44446D01*
X60767Y-42677D01*
X60737Y-42605D01*
X60688Y-42556D01*
X60688Y-34803D01*
X60658Y-34731D01*
X60603Y-34675D01*
X60531Y-34645D01*
X60453Y-34645D01*
X60380Y-34675D01*
X60325Y-34731D01*
X60295Y-34803D01*
X60295Y-34881D01*
X60325Y-34953D01*
X60380Y-35009D01*
X60452Y-35039D01*
X60531Y-35039D01*
X60603Y-35009D01*
X60658Y-34954D01*
X60688Y-34881D01*
X60688Y-34803D01*
X60688Y-42556D01*
X60682Y-42549D01*
X60669Y-42544D01*
X60669Y-40961D01*
X60639Y-40888D01*
X60584Y-40833D01*
X60512Y-40803D01*
X60434Y-40803D01*
X60361Y-40833D01*
X60306Y-40888D01*
X60276Y-40960D01*
X60276Y-41038D01*
X60306Y-41111D01*
X60361Y-41166D01*
X60433Y-41196D01*
X60511Y-41196D01*
X60584Y-41166D01*
X60639Y-41111D01*
X60669Y-41039D01*
X60669Y-40961D01*
X60669Y-42544D01*
X60610Y-42519D01*
X60531Y-42519D01*
X60459Y-42549D01*
X60404Y-42605D01*
X60374Y-42677D01*
X60374Y-42755D01*
X60404Y-42827D01*
X60459Y-42883D01*
X60531Y-42913D01*
X60609Y-42913D01*
X60682Y-42883D01*
X60737Y-42828D01*
X60767Y-42755D01*
X60767Y-42677D01*
X60767Y-44446D01*
X60761Y-44439D01*
X60688Y-44409D01*
X60610Y-44409D01*
X60610Y-44409D01*
X60610Y-43090D01*
X60580Y-43018D01*
X60524Y-42963D01*
X60452Y-42933D01*
X60374Y-42933D01*
X60302Y-42963D01*
X60246Y-43018D01*
X60226Y-43066D01*
X60226Y-41172D01*
X60196Y-41099D01*
X60141Y-41044D01*
X60069Y-41014D01*
X59991Y-41014D01*
X59918Y-41044D01*
X59863Y-41099D01*
X59833Y-41171D01*
X59833Y-41249D01*
X59863Y-41322D01*
X59918Y-41377D01*
X59990Y-41407D01*
X60068Y-41407D01*
X60141Y-41377D01*
X60196Y-41322D01*
X60226Y-41250D01*
X60226Y-41172D01*
X60226Y-43066D01*
X60216Y-43090D01*
X60216Y-43168D01*
X60246Y-43241D01*
X60301Y-43296D01*
X60374Y-43326D01*
X60452Y-43326D01*
X60524Y-43296D01*
X60579Y-43241D01*
X60609Y-43169D01*
X60610Y-43090D01*
X60610Y-44409D01*
X60538Y-44439D01*
X60483Y-44494D01*
X60453Y-44567D01*
X60453Y-44581D01*
X59842Y-45192D01*
X59842Y-41378D01*
X59812Y-41306D01*
X59757Y-41250D01*
X59684Y-41220D01*
X59606Y-41220D01*
X59534Y-41250D01*
X59479Y-41305D01*
X59449Y-41378D01*
X59449Y-41456D01*
X59478Y-41528D01*
X59534Y-41583D01*
X59606Y-41613D01*
X59684Y-41613D01*
X59756Y-41584D01*
X59812Y-41528D01*
X59842Y-41456D01*
X59842Y-41378D01*
X59842Y-45192D01*
X59620Y-45414D01*
X59477Y-45414D01*
X59477Y-42028D01*
X59447Y-41955D01*
X59424Y-41932D01*
X59438Y-41918D01*
X59468Y-41846D01*
X59468Y-41768D01*
X59438Y-41695D01*
X59383Y-41640D01*
X59311Y-41610D01*
X59233Y-41610D01*
X59160Y-41640D01*
X59105Y-41695D01*
X59075Y-41767D01*
X59075Y-41845D01*
X59105Y-41918D01*
X59128Y-41941D01*
X59114Y-41955D01*
X59084Y-42027D01*
X59084Y-42105D01*
X59114Y-42178D01*
X59169Y-42233D01*
X59241Y-42263D01*
X59319Y-42263D01*
X59392Y-42233D01*
X59447Y-42178D01*
X59477Y-42106D01*
X59477Y-42028D01*
X59477Y-45414D01*
X58936Y-45414D01*
X58936Y-41930D01*
X58906Y-41857D01*
X58851Y-41802D01*
X58779Y-41772D01*
X58701Y-41772D01*
X58633Y-41800D01*
X58622Y-41795D01*
X58622Y-41301D01*
X58593Y-41233D01*
X58541Y-41180D01*
X58472Y-41151D01*
X58397Y-41151D01*
X58336Y-41177D01*
X58275Y-41151D01*
X58200Y-41151D01*
X58132Y-41180D01*
X58079Y-41232D01*
X58050Y-41301D01*
X58050Y-41376D01*
X58079Y-41444D01*
X58131Y-41497D01*
X58200Y-41526D01*
X58275Y-41526D01*
X58336Y-41500D01*
X58397Y-41526D01*
X58472Y-41526D01*
X58540Y-41497D01*
X58593Y-41445D01*
X58622Y-41376D01*
X58622Y-41301D01*
X58622Y-41795D01*
X58575Y-41776D01*
X58497Y-41776D01*
X58424Y-41806D01*
X58369Y-41861D01*
X58339Y-41933D01*
X58339Y-42011D01*
X58369Y-42084D01*
X58424Y-42139D01*
X58496Y-42169D01*
X58574Y-42169D01*
X58642Y-42141D01*
X58700Y-42165D01*
X58778Y-42165D01*
X58851Y-42135D01*
X58906Y-42080D01*
X58936Y-42008D01*
X58936Y-41930D01*
X58936Y-45414D01*
X58759Y-45414D01*
X58759Y-43090D01*
X58729Y-43018D01*
X58674Y-42963D01*
X58602Y-42933D01*
X58524Y-42933D01*
X58502Y-42942D01*
X58493Y-42920D01*
X58438Y-42864D01*
X58366Y-42834D01*
X58287Y-42834D01*
X58215Y-42864D01*
X58160Y-42919D01*
X58130Y-42992D01*
X58130Y-43070D01*
X58159Y-43142D01*
X58215Y-43198D01*
X58287Y-43228D01*
X58365Y-43228D01*
X58387Y-43219D01*
X58396Y-43241D01*
X58451Y-43296D01*
X58523Y-43326D01*
X58601Y-43326D01*
X58674Y-43296D01*
X58729Y-43241D01*
X58759Y-43169D01*
X58759Y-43090D01*
X58759Y-45414D01*
X57755Y-45414D01*
X57755Y-44567D01*
X57725Y-44495D01*
X57670Y-44439D01*
X57598Y-44409D01*
X57520Y-44409D01*
X57447Y-44439D01*
X57401Y-44485D01*
X57401Y-41929D01*
X57371Y-41857D01*
X57316Y-41801D01*
X57244Y-41771D01*
X57165Y-41771D01*
X57093Y-41801D01*
X57076Y-41818D01*
X57060Y-41801D01*
X56988Y-41771D01*
X56909Y-41771D01*
X56837Y-41801D01*
X56782Y-41856D01*
X56752Y-41929D01*
X56752Y-42007D01*
X56782Y-42079D01*
X56837Y-42135D01*
X56909Y-42165D01*
X56987Y-42165D01*
X57060Y-42135D01*
X57076Y-42118D01*
X57093Y-42135D01*
X57165Y-42165D01*
X57243Y-42165D01*
X57315Y-42135D01*
X57371Y-42080D01*
X57401Y-42007D01*
X57401Y-41929D01*
X57401Y-44485D01*
X57392Y-44494D01*
X57362Y-44567D01*
X57362Y-44645D01*
X57392Y-44717D01*
X57447Y-44772D01*
X57519Y-44802D01*
X57597Y-44802D01*
X57670Y-44773D01*
X57725Y-44717D01*
X57755Y-44645D01*
X57755Y-44567D01*
X57755Y-45414D01*
X56593Y-45414D01*
X56593Y-43932D01*
X56560Y-43853D01*
X56500Y-43792D01*
X56495Y-43790D01*
X56495Y-42992D01*
X56465Y-42920D01*
X56410Y-42864D01*
X56338Y-42834D01*
X56260Y-42834D01*
X56187Y-42864D01*
X56132Y-42919D01*
X56102Y-42992D01*
X56102Y-43070D01*
X56132Y-43142D01*
X56187Y-43198D01*
X56259Y-43228D01*
X56338Y-43228D01*
X56410Y-43198D01*
X56465Y-43143D01*
X56495Y-43070D01*
X56495Y-42992D01*
X56495Y-43790D01*
X56421Y-43759D01*
X56335Y-43759D01*
X56256Y-43792D01*
X56240Y-43808D01*
X56224Y-43792D01*
X56145Y-43759D01*
X56059Y-43759D01*
X55980Y-43792D01*
X55919Y-43852D01*
X55886Y-43931D01*
X55886Y-44017D01*
X55919Y-44096D01*
X55979Y-44157D01*
X56058Y-44190D01*
X56144Y-44190D01*
X56223Y-44157D01*
X56239Y-44141D01*
X56255Y-44157D01*
X56334Y-44190D01*
X56420Y-44190D01*
X56499Y-44157D01*
X56560Y-44097D01*
X56593Y-44018D01*
X56593Y-43932D01*
X56593Y-45414D01*
X55663Y-45414D01*
X54362Y-44113D01*
X54563Y-44113D01*
X54623Y-44101D01*
X54623Y-44101D01*
X54674Y-44067D01*
X55477Y-43263D01*
X55491Y-43263D01*
X55564Y-43233D01*
X55619Y-43178D01*
X55649Y-43106D01*
X55649Y-43028D01*
X55619Y-42955D01*
X55564Y-42900D01*
X55492Y-42870D01*
X55414Y-42870D01*
X55341Y-42900D01*
X55339Y-42902D01*
X55336Y-42900D01*
X55264Y-42870D01*
X55186Y-42870D01*
X55113Y-42900D01*
X55102Y-42911D01*
X55076Y-42884D01*
X55003Y-42854D01*
X54925Y-42854D01*
X54853Y-42884D01*
X54840Y-42896D01*
X54832Y-42888D01*
X54760Y-42858D01*
X54682Y-42858D01*
X54609Y-42888D01*
X54599Y-42898D01*
X49730Y-42898D01*
X48913Y-42081D01*
X50417Y-42081D01*
X52162Y-42081D01*
X52172Y-42091D01*
X52244Y-42121D01*
X52322Y-42121D01*
X52394Y-42091D01*
X52450Y-42036D01*
X52480Y-41964D01*
X52480Y-41922D01*
X52495Y-41928D01*
X52573Y-41928D01*
X52646Y-41898D01*
X52701Y-41843D01*
X52731Y-41771D01*
X52731Y-41693D01*
X52701Y-41620D01*
X52646Y-41565D01*
X52574Y-41535D01*
X52504Y-41535D01*
X52504Y-41493D01*
X52474Y-41420D01*
X52458Y-41404D01*
X53173Y-41404D01*
X53175Y-41406D01*
X53180Y-41408D01*
X52993Y-41595D01*
X52963Y-41640D01*
X52952Y-41692D01*
X52952Y-42224D01*
X52963Y-42277D01*
X52993Y-42321D01*
X53229Y-42557D01*
X53274Y-42587D01*
X53274Y-42587D01*
X53326Y-42598D01*
X53523Y-42598D01*
X55492Y-42598D01*
X55544Y-42587D01*
X55544Y-42587D01*
X55589Y-42557D01*
X55826Y-42320D01*
X55826Y-42342D01*
X55856Y-42414D01*
X55912Y-42469D01*
X55984Y-42499D01*
X56062Y-42499D01*
X56134Y-42469D01*
X56190Y-42414D01*
X56220Y-42342D01*
X56220Y-42264D01*
X56190Y-42191D01*
X56135Y-42136D01*
X56062Y-42106D01*
X56040Y-42106D01*
X56125Y-42021D01*
X56136Y-42048D01*
X56191Y-42103D01*
X56263Y-42133D01*
X56341Y-42133D01*
X56414Y-42103D01*
X56469Y-42048D01*
X56499Y-41976D01*
X56499Y-41898D01*
X56469Y-41825D01*
X56414Y-41770D01*
X56355Y-41745D01*
X56358Y-41732D01*
X56358Y-41474D01*
X56409Y-41496D01*
X56484Y-41496D01*
X56534Y-41475D01*
X56556Y-41497D01*
X56625Y-41526D01*
X56700Y-41526D01*
X56761Y-41500D01*
X56822Y-41526D01*
X56897Y-41526D01*
X56958Y-41500D01*
X57019Y-41526D01*
X57094Y-41526D01*
X57155Y-41500D01*
X57216Y-41526D01*
X57291Y-41526D01*
X57359Y-41497D01*
X57412Y-41445D01*
X57441Y-41376D01*
X57441Y-41301D01*
X57412Y-41233D01*
X57360Y-41180D01*
X57291Y-41151D01*
X57216Y-41151D01*
X57155Y-41177D01*
X57094Y-41151D01*
X57019Y-41151D01*
X56958Y-41177D01*
X56897Y-41151D01*
X56822Y-41151D01*
X56761Y-41177D01*
X56700Y-41151D01*
X56625Y-41151D01*
X56622Y-41153D01*
X56624Y-41149D01*
X56624Y-41074D01*
X56598Y-41013D01*
X56624Y-40952D01*
X56624Y-40877D01*
X56598Y-40816D01*
X56624Y-40756D01*
X56624Y-40681D01*
X56598Y-40620D01*
X56624Y-40559D01*
X56624Y-40484D01*
X56598Y-40423D01*
X56624Y-40362D01*
X56624Y-40287D01*
X56598Y-40226D01*
X56624Y-40165D01*
X56624Y-40090D01*
X56598Y-40029D01*
X56624Y-39968D01*
X56624Y-39893D01*
X56598Y-39832D01*
X56624Y-39771D01*
X56624Y-39696D01*
X56598Y-39635D01*
X56624Y-39574D01*
X56624Y-39499D01*
X56598Y-39438D01*
X56624Y-39378D01*
X56624Y-39303D01*
X56598Y-39242D01*
X56624Y-39181D01*
X56624Y-39106D01*
X56598Y-39045D01*
X56624Y-38984D01*
X56624Y-38909D01*
X56615Y-38889D01*
X56635Y-38898D01*
X56710Y-38898D01*
X56762Y-38876D01*
X56763Y-38878D01*
X56832Y-38907D01*
X56907Y-38907D01*
X56968Y-38881D01*
X57029Y-38907D01*
X57104Y-38907D01*
X57172Y-38878D01*
X57225Y-38826D01*
X57232Y-38808D01*
X57387Y-38980D01*
X57391Y-38982D01*
X57392Y-38985D01*
X57407Y-38995D01*
X57430Y-39012D01*
X57434Y-39013D01*
X57437Y-39015D01*
X57455Y-39018D01*
X57482Y-39025D01*
X57486Y-39024D01*
X57490Y-39025D01*
X58740Y-39025D01*
X58740Y-40167D01*
X58742Y-40176D01*
X58741Y-40185D01*
X58747Y-40202D01*
X58750Y-40219D01*
X58755Y-40227D01*
X58758Y-40236D01*
X58770Y-40249D01*
X58780Y-40264D01*
X58788Y-40269D01*
X58794Y-40276D01*
X58877Y-40340D01*
X58877Y-40362D01*
X58903Y-40423D01*
X58877Y-40484D01*
X58877Y-40559D01*
X58903Y-40620D01*
X58877Y-40681D01*
X58877Y-40756D01*
X58903Y-40817D01*
X58877Y-40877D01*
X58877Y-40952D01*
X58906Y-41020D01*
X58909Y-41023D01*
X58887Y-41074D01*
X58887Y-41149D01*
X58909Y-41200D01*
X58906Y-41202D01*
X58877Y-41271D01*
X58877Y-41346D01*
X58906Y-41414D01*
X58958Y-41467D01*
X59027Y-41496D01*
X59102Y-41496D01*
X59170Y-41467D01*
X59223Y-41415D01*
X59252Y-41346D01*
X59252Y-41271D01*
X59230Y-41220D01*
X59233Y-41218D01*
X59262Y-41149D01*
X59262Y-41074D01*
X59233Y-41006D01*
X59230Y-41003D01*
X59252Y-40952D01*
X59252Y-40877D01*
X59233Y-40833D01*
X59233Y-40833D01*
X59260Y-40816D01*
X59309Y-40766D01*
X59339Y-40721D01*
X59339Y-40721D01*
X59350Y-40669D01*
X59350Y-40422D01*
X59449Y-40522D01*
X59449Y-40522D01*
X59471Y-40537D01*
X59494Y-40552D01*
X59494Y-40552D01*
X59523Y-40558D01*
X59557Y-40591D01*
X59594Y-40607D01*
X59573Y-40628D01*
X59543Y-40700D01*
X59543Y-40778D01*
X59573Y-40851D01*
X59628Y-40906D01*
X59700Y-40936D01*
X59778Y-40936D01*
X59851Y-40906D01*
X59906Y-40851D01*
X59913Y-40834D01*
X59941Y-40846D01*
X60019Y-40846D01*
X60091Y-40816D01*
X60146Y-40761D01*
X60176Y-40688D01*
X60176Y-40610D01*
X60158Y-40567D01*
X60607Y-40118D01*
X60637Y-40073D01*
X60637Y-40073D01*
X60647Y-40021D01*
X60647Y-39645D01*
X60647Y-39641D01*
X60645Y-38756D01*
X60645Y-38755D01*
X60645Y-37594D01*
X60635Y-37541D01*
X60635Y-37541D01*
X60605Y-37497D01*
X60156Y-37048D01*
X60111Y-37018D01*
X60059Y-37008D01*
X59212Y-37008D01*
X59212Y-36516D01*
X59182Y-36443D01*
X59127Y-36388D01*
X59055Y-36358D01*
X58976Y-36358D01*
X58904Y-36388D01*
X58849Y-36443D01*
X58819Y-36515D01*
X58819Y-36594D01*
X58848Y-36666D01*
X58904Y-36721D01*
X58976Y-36751D01*
X59054Y-36751D01*
X59126Y-36721D01*
X59182Y-36666D01*
X59212Y-36594D01*
X59212Y-36516D01*
X59212Y-37008D01*
X57635Y-37008D01*
X56399Y-35771D01*
X57422Y-35771D01*
X57440Y-35775D01*
X57965Y-35775D01*
X58769Y-35775D01*
X59508Y-36514D01*
X59508Y-36514D01*
X59531Y-36529D01*
X59553Y-36544D01*
X59553Y-36544D01*
X59606Y-36554D01*
X59606Y-36554D01*
X59862Y-36554D01*
X59914Y-36544D01*
X59914Y-36544D01*
X59959Y-36514D01*
X60057Y-36417D01*
X60097Y-36417D01*
X60170Y-36387D01*
X60225Y-36331D01*
X60255Y-36259D01*
X60255Y-36181D01*
X60225Y-36109D01*
X60179Y-36062D01*
X60233Y-36062D01*
X60262Y-36091D01*
X60334Y-36121D01*
X60412Y-36121D01*
X60485Y-36091D01*
X60540Y-36036D01*
X60570Y-35964D01*
X60570Y-35886D01*
X60540Y-35813D01*
X60485Y-35758D01*
X60413Y-35728D01*
X60335Y-35728D01*
X60262Y-35758D01*
X60233Y-35787D01*
X59806Y-35787D01*
X59806Y-30786D01*
X59806Y-30189D01*
X59788Y-30146D01*
X59755Y-30112D01*
X59711Y-30094D01*
X59664Y-30094D01*
X59067Y-30094D01*
X59024Y-30112D01*
X58991Y-30145D01*
X58973Y-30189D01*
X58973Y-30236D01*
X58973Y-30833D01*
X58990Y-30876D01*
X59024Y-30909D01*
X59067Y-30927D01*
X59114Y-30928D01*
X59711Y-30928D01*
X59754Y-30910D01*
X59788Y-30876D01*
X59806Y-30833D01*
X59806Y-30786D01*
X59806Y-35787D01*
X59801Y-35787D01*
X59463Y-35449D01*
X59418Y-35419D01*
X59365Y-35409D01*
X57852Y-35409D01*
X57559Y-35409D01*
X54094Y-35409D01*
X54094Y-34567D01*
X54064Y-34495D01*
X54009Y-34439D01*
X53936Y-34409D01*
X53858Y-34409D01*
X53786Y-34439D01*
X53731Y-34494D01*
X53701Y-34567D01*
X53700Y-34645D01*
X53730Y-34717D01*
X53786Y-34772D01*
X53858Y-34802D01*
X53936Y-34802D01*
X54008Y-34773D01*
X54064Y-34717D01*
X54094Y-34645D01*
X54094Y-34567D01*
X54094Y-35409D01*
X53267Y-35409D01*
X53267Y-34823D01*
X53237Y-34750D01*
X53182Y-34695D01*
X53110Y-34665D01*
X53032Y-34665D01*
X52959Y-34695D01*
X52904Y-34750D01*
X52874Y-34822D01*
X52874Y-34898D01*
X52867Y-34898D01*
X52794Y-34928D01*
X52739Y-34983D01*
X52709Y-35055D01*
X52709Y-35133D01*
X52739Y-35206D01*
X52794Y-35261D01*
X52866Y-35291D01*
X52944Y-35291D01*
X53017Y-35261D01*
X53072Y-35206D01*
X53102Y-35134D01*
X53102Y-35058D01*
X53109Y-35058D01*
X53182Y-35028D01*
X53237Y-34973D01*
X53267Y-34901D01*
X53267Y-34823D01*
X53267Y-35409D01*
X52737Y-35409D01*
X52180Y-34851D01*
X52135Y-34821D01*
X52083Y-34811D01*
X51402Y-34811D01*
X51415Y-34798D01*
X52283Y-34793D01*
X52336Y-34783D01*
X52378Y-34754D01*
X52380Y-34753D01*
X52380Y-34753D01*
X52380Y-34752D01*
X52381Y-34752D01*
X54250Y-32883D01*
X56141Y-32883D01*
X57332Y-32883D01*
X57385Y-32873D01*
X57385Y-32873D01*
X57430Y-32843D01*
X58484Y-31788D01*
X58514Y-31743D01*
X58514Y-31743D01*
X58525Y-31691D01*
X58525Y-30925D01*
X58623Y-30884D01*
X58740Y-30767D01*
X58804Y-30614D01*
X58804Y-30448D01*
X58741Y-30295D01*
X58623Y-30178D01*
X58470Y-30114D01*
X58305Y-30114D01*
X58151Y-30177D01*
X58034Y-30295D01*
X57971Y-30448D01*
X57970Y-30613D01*
X58034Y-30767D01*
X58151Y-30884D01*
X58250Y-30925D01*
X58250Y-31634D01*
X57275Y-32608D01*
X56711Y-32608D01*
X57403Y-31933D01*
X57406Y-31929D01*
X57412Y-31923D01*
X57412Y-31923D01*
X57412Y-31923D01*
X57484Y-31850D01*
X57486Y-31849D01*
X57486Y-31849D01*
X57498Y-31831D01*
X57516Y-31804D01*
X57516Y-31804D01*
X57526Y-31751D01*
X57526Y-31751D01*
X57525Y-31745D01*
X57525Y-31745D01*
X57525Y-30925D01*
X57623Y-30884D01*
X57740Y-30767D01*
X57804Y-30614D01*
X57804Y-30448D01*
X57741Y-30295D01*
X57623Y-30178D01*
X57470Y-30114D01*
X57305Y-30114D01*
X57151Y-30177D01*
X57034Y-30295D01*
X56971Y-30448D01*
X56970Y-30613D01*
X57034Y-30767D01*
X57151Y-30884D01*
X57250Y-30925D01*
X57250Y-31696D01*
X57217Y-31728D01*
X57217Y-31728D01*
X57217Y-31728D01*
X57209Y-31736D01*
X57207Y-31739D01*
X56498Y-32431D01*
X55936Y-32431D01*
X56407Y-31928D01*
X56407Y-31927D01*
X56412Y-31923D01*
X56412Y-31923D01*
X56412Y-31923D01*
X56484Y-31850D01*
X56487Y-31848D01*
X56516Y-31803D01*
X56516Y-31803D01*
X56527Y-31751D01*
X56525Y-31740D01*
X56525Y-31740D01*
X56525Y-30925D01*
X56623Y-30884D01*
X56740Y-30767D01*
X56804Y-30614D01*
X56804Y-30448D01*
X56741Y-30295D01*
X56623Y-30178D01*
X56470Y-30114D01*
X56305Y-30114D01*
X56151Y-30177D01*
X56034Y-30295D01*
X55971Y-30448D01*
X55970Y-30613D01*
X56034Y-30767D01*
X56151Y-30884D01*
X56250Y-30925D01*
X56250Y-31696D01*
X56217Y-31728D01*
X56217Y-31728D01*
X56217Y-31728D01*
X56209Y-31736D01*
X56208Y-31739D01*
X56206Y-31740D01*
X55698Y-32283D01*
X55052Y-32283D01*
X55402Y-31932D01*
X55404Y-31931D01*
X55412Y-31923D01*
X55412Y-31923D01*
X55412Y-31923D01*
X55479Y-31856D01*
X55479Y-31856D01*
X55479Y-31856D01*
X55484Y-31850D01*
X55514Y-31805D01*
X55514Y-31805D01*
X55525Y-31753D01*
X55525Y-31753D01*
X55525Y-30925D01*
X55623Y-30884D01*
X55740Y-30767D01*
X55804Y-30614D01*
X55804Y-30448D01*
X55741Y-30295D01*
X55623Y-30178D01*
X55470Y-30114D01*
X55305Y-30114D01*
X55151Y-30177D01*
X55034Y-30295D01*
X54971Y-30448D01*
X54970Y-30613D01*
X55034Y-30767D01*
X55151Y-30884D01*
X55250Y-30925D01*
X55250Y-31696D01*
X55217Y-31728D01*
X55217Y-31728D01*
X55217Y-31728D01*
X55210Y-31735D01*
X55209Y-31736D01*
X54808Y-32138D01*
X54197Y-32138D01*
X54404Y-31931D01*
X54412Y-31923D01*
X54412Y-31923D01*
X54412Y-31923D01*
X54484Y-31850D01*
X54486Y-31849D01*
X54486Y-31849D01*
X54498Y-31831D01*
X54516Y-31804D01*
X54516Y-31804D01*
X54526Y-31751D01*
X54526Y-31751D01*
X54525Y-31745D01*
X54525Y-31745D01*
X54525Y-30925D01*
X54623Y-30884D01*
X54740Y-30767D01*
X54804Y-30614D01*
X54804Y-30448D01*
X54741Y-30295D01*
X54623Y-30178D01*
X54470Y-30114D01*
X54305Y-30114D01*
X54151Y-30177D01*
X54034Y-30295D01*
X53971Y-30448D01*
X53970Y-30613D01*
X54034Y-30767D01*
X54151Y-30884D01*
X54250Y-30925D01*
X54250Y-31696D01*
X54217Y-31728D01*
X54217Y-31728D01*
X54217Y-31728D01*
X54209Y-31736D01*
X53326Y-32619D01*
X53326Y-32342D01*
X53296Y-32270D01*
X53241Y-32215D01*
X53169Y-32185D01*
X53090Y-32185D01*
X53018Y-32215D01*
X52963Y-32270D01*
X52933Y-32342D01*
X52933Y-32420D01*
X52963Y-32493D01*
X53018Y-32548D01*
X53090Y-32578D01*
X53168Y-32578D01*
X53241Y-32548D01*
X53296Y-32493D01*
X53326Y-32421D01*
X53326Y-32342D01*
X53326Y-32619D01*
X52234Y-33712D01*
X51130Y-33712D01*
X51077Y-33722D01*
X51062Y-33732D01*
X51032Y-33752D01*
X50696Y-34088D01*
X50696Y-32063D01*
X50666Y-31991D01*
X50611Y-31935D01*
X50539Y-31905D01*
X50461Y-31905D01*
X50388Y-31935D01*
X50333Y-31990D01*
X50303Y-32063D01*
X50303Y-32141D01*
X50333Y-32213D01*
X50388Y-32268D01*
X50460Y-32298D01*
X50538Y-32299D01*
X50611Y-32269D01*
X50666Y-32213D01*
X50696Y-32141D01*
X50696Y-32063D01*
X50696Y-34088D01*
X50166Y-34618D01*
X50136Y-34663D01*
X50126Y-34716D01*
X50126Y-35675D01*
X49970Y-35831D01*
X49709Y-35831D01*
X49656Y-35841D01*
X49611Y-35871D01*
X49256Y-36226D01*
X49226Y-36271D01*
X49216Y-36324D01*
X49216Y-37261D01*
X49187Y-37290D01*
X49157Y-37362D01*
X49157Y-37440D01*
X49181Y-37500D01*
X48905Y-37500D01*
X48905Y-37465D01*
X48875Y-37392D01*
X48820Y-37337D01*
X48747Y-37307D01*
X48669Y-37307D01*
X48597Y-37337D01*
X48587Y-37347D01*
X47665Y-37347D01*
X47242Y-37347D01*
X44687Y-34792D01*
X44687Y-30335D01*
X44639Y-30218D01*
X44549Y-30129D01*
X44432Y-30080D01*
X44306Y-30080D01*
X44189Y-30128D01*
X44099Y-30218D01*
X44051Y-30335D01*
X44051Y-30461D01*
X44099Y-30578D01*
X44188Y-30668D01*
X44305Y-30716D01*
X44432Y-30716D01*
X44549Y-30668D01*
X44638Y-30579D01*
X44687Y-30462D01*
X44687Y-30335D01*
X44687Y-34792D01*
X43586Y-33691D01*
X43586Y-32878D01*
X43556Y-32806D01*
X43501Y-32750D01*
X43429Y-32720D01*
X43350Y-32720D01*
X43278Y-32750D01*
X43223Y-32805D01*
X43193Y-32878D01*
X43193Y-32956D01*
X43222Y-33028D01*
X43278Y-33083D01*
X43350Y-33113D01*
X43428Y-33113D01*
X43500Y-33084D01*
X43556Y-33028D01*
X43586Y-32956D01*
X43586Y-32878D01*
X43586Y-33691D01*
X43022Y-33128D01*
X43022Y-32704D01*
X43010Y-32644D01*
X42976Y-32593D01*
X42955Y-32572D01*
X42955Y-30712D01*
X42965Y-30702D01*
X42995Y-30629D01*
X42995Y-30551D01*
X42965Y-30479D01*
X42910Y-30423D01*
X42838Y-30393D01*
X42760Y-30393D01*
X42687Y-30423D01*
X42632Y-30479D01*
X42602Y-30551D01*
X42602Y-30629D01*
X42632Y-30701D01*
X42642Y-30711D01*
X42642Y-32444D01*
X42562Y-32364D01*
X42562Y-30712D01*
X42572Y-30702D01*
X42602Y-30629D01*
X42602Y-30551D01*
X42572Y-30479D01*
X42517Y-30423D01*
X42444Y-30393D01*
X42405Y-30393D01*
X42405Y-30386D01*
X42375Y-30313D01*
X42320Y-30258D01*
X42247Y-30228D01*
X42169Y-30228D01*
X42097Y-30258D01*
X42042Y-30313D01*
X42012Y-30385D01*
X42012Y-30393D01*
X42011Y-30393D01*
X42011Y-30386D01*
X41981Y-30313D01*
X41926Y-30258D01*
X41854Y-30228D01*
X41776Y-30228D01*
X41703Y-30258D01*
X41648Y-30313D01*
X41618Y-30385D01*
X41618Y-30464D01*
X41648Y-30536D01*
X41658Y-30546D01*
X41658Y-32377D01*
X41577Y-32297D01*
X41577Y-30546D01*
X41587Y-30536D01*
X41617Y-30464D01*
X41617Y-30386D01*
X41588Y-30313D01*
X41532Y-30258D01*
X41460Y-30228D01*
X41382Y-30228D01*
X41310Y-30258D01*
X41254Y-30313D01*
X41224Y-30385D01*
X41224Y-30464D01*
X41254Y-30536D01*
X41264Y-30546D01*
X41264Y-32362D01*
X41276Y-32422D01*
X41310Y-32472D01*
X41453Y-32616D01*
X41453Y-32756D01*
X41382Y-32756D01*
X41310Y-32785D01*
X41254Y-32841D01*
X41231Y-32896D01*
X40987Y-32651D01*
X40987Y-30546D01*
X40997Y-30536D01*
X41027Y-30464D01*
X41027Y-30386D01*
X40997Y-30313D01*
X40942Y-30258D01*
X40869Y-30228D01*
X40791Y-30228D01*
X40719Y-30258D01*
X40664Y-30313D01*
X40634Y-30385D01*
X40634Y-30464D01*
X40663Y-30536D01*
X40674Y-30546D01*
X40674Y-32590D01*
X40593Y-32509D01*
X40593Y-30546D01*
X40603Y-30536D01*
X40633Y-30464D01*
X40633Y-30386D01*
X40603Y-30313D01*
X40548Y-30258D01*
X40476Y-30228D01*
X40398Y-30228D01*
X40325Y-30258D01*
X40270Y-30313D01*
X40240Y-30385D01*
X40240Y-30393D01*
X40239Y-30393D01*
X40239Y-30386D01*
X40210Y-30313D01*
X40154Y-30258D01*
X40082Y-30228D01*
X40004Y-30228D01*
X39932Y-30258D01*
X39876Y-30313D01*
X39846Y-30385D01*
X39846Y-30393D01*
X39807Y-30393D01*
X39735Y-30423D01*
X39679Y-30479D01*
X39649Y-30551D01*
X39649Y-30629D01*
X39679Y-30701D01*
X39689Y-30711D01*
X39689Y-32614D01*
X39609Y-32533D01*
X39609Y-30712D01*
X39619Y-30702D01*
X39649Y-30629D01*
X39649Y-30551D01*
X39619Y-30479D01*
X39564Y-30423D01*
X39492Y-30393D01*
X39413Y-30393D01*
X39341Y-30423D01*
X39286Y-30479D01*
X39256Y-30551D01*
X39256Y-30629D01*
X39285Y-30701D01*
X39296Y-30711D01*
X39296Y-32464D01*
X39215Y-32383D01*
X39215Y-30712D01*
X39225Y-30702D01*
X39255Y-30629D01*
X39255Y-30551D01*
X39225Y-30479D01*
X39170Y-30423D01*
X39098Y-30393D01*
X39058Y-30393D01*
X39058Y-30386D01*
X39028Y-30313D01*
X38973Y-30258D01*
X38901Y-30228D01*
X38823Y-30228D01*
X38750Y-30258D01*
X38695Y-30313D01*
X38665Y-30385D01*
X38665Y-30464D01*
X38695Y-30536D01*
X38705Y-30546D01*
X38705Y-32366D01*
X38428Y-32088D01*
X38428Y-30712D01*
X38438Y-30702D01*
X38468Y-30629D01*
X38468Y-30551D01*
X38438Y-30479D01*
X38383Y-30423D01*
X38310Y-30393D01*
X38271Y-30393D01*
X38271Y-30386D01*
X38241Y-30313D01*
X38186Y-30258D01*
X38114Y-30228D01*
X38035Y-30228D01*
X37963Y-30258D01*
X37908Y-30313D01*
X37878Y-30385D01*
X37878Y-30393D01*
X37839Y-30393D01*
X37766Y-30423D01*
X37711Y-30479D01*
X37681Y-30551D01*
X37681Y-30629D01*
X37711Y-30701D01*
X37721Y-30711D01*
X37721Y-32311D01*
X37733Y-32370D01*
X37767Y-32421D01*
X49633Y-44287D01*
X49633Y-44287D01*
X49684Y-44321D01*
X49744Y-44333D01*
X49744Y-44333D01*
X54139Y-44333D01*
X55487Y-45681D01*
X55538Y-45715D01*
X55538Y-45715D01*
X55598Y-45727D01*
X59685Y-45727D01*
X59744Y-45715D01*
X59744Y-45715D01*
X59795Y-45681D01*
X60674Y-44802D01*
X60688Y-44802D01*
X60760Y-44773D01*
X60816Y-44717D01*
X60846Y-44645D01*
X60846Y-44567D01*
X60846Y-45118D01*
X60816Y-45046D01*
X60761Y-44990D01*
X60688Y-44960D01*
X60610Y-44960D01*
X60538Y-44990D01*
X60483Y-45045D01*
X60453Y-45118D01*
X60452Y-45196D01*
X60482Y-45268D01*
X60538Y-45324D01*
X60610Y-45354D01*
X60688Y-45354D01*
X60760Y-45324D01*
X60816Y-45268D01*
X60846Y-45196D01*
X60846Y-45118D01*
X60846Y-50570D01*
X60461Y-50570D01*
X60461Y-49385D01*
X60398Y-49232D01*
X60281Y-49115D01*
X60128Y-49051D01*
X59962Y-49051D01*
X59809Y-49114D01*
X59692Y-49232D01*
X59628Y-49385D01*
X59628Y-49550D01*
X59691Y-49704D01*
X59808Y-49821D01*
X59961Y-49884D01*
X60127Y-49885D01*
X60280Y-49821D01*
X60398Y-49704D01*
X60461Y-49551D01*
X60461Y-49385D01*
X60461Y-50570D01*
X59461Y-50570D01*
X59461Y-49723D01*
X59461Y-49126D01*
X59443Y-49083D01*
X59410Y-49049D01*
X59367Y-49031D01*
X59320Y-49031D01*
X59173Y-49031D01*
X59173Y-46968D01*
X59143Y-46896D01*
X59087Y-46841D01*
X59015Y-46811D01*
X58937Y-46811D01*
X58865Y-46841D01*
X58809Y-46896D01*
X58779Y-46968D01*
X58779Y-47046D01*
X58809Y-47119D01*
X58864Y-47174D01*
X58937Y-47204D01*
X59015Y-47204D01*
X59087Y-47174D01*
X59142Y-47119D01*
X59172Y-47047D01*
X59173Y-46968D01*
X59173Y-49031D01*
X58723Y-49031D01*
X58679Y-49049D01*
X58646Y-49082D01*
X58628Y-49126D01*
X58628Y-49173D01*
X58628Y-49770D01*
X58646Y-49813D01*
X58679Y-49846D01*
X58723Y-49864D01*
X58770Y-49865D01*
X59367Y-49865D01*
X59410Y-49847D01*
X59443Y-49813D01*
X59461Y-49770D01*
X59461Y-49723D01*
X59461Y-50570D01*
X57832Y-50570D01*
X57784Y-50551D01*
X57667Y-50550D01*
X57619Y-50570D01*
X57398Y-50570D01*
X57350Y-50551D01*
X57233Y-50550D01*
X57185Y-50570D01*
X56983Y-50570D01*
X56983Y-50036D01*
X56919Y-49882D01*
X56802Y-49765D01*
X56649Y-49702D01*
X56483Y-49701D01*
X56330Y-49765D01*
X56213Y-49882D01*
X56149Y-50035D01*
X56149Y-50201D01*
X56213Y-50354D01*
X56330Y-50471D01*
X56483Y-50535D01*
X56648Y-50535D01*
X56802Y-50471D01*
X56919Y-50354D01*
X56982Y-50201D01*
X56983Y-50036D01*
X56983Y-50570D01*
X56965Y-50570D01*
X56917Y-50551D01*
X56800Y-50550D01*
X56752Y-50570D01*
X56532Y-50570D01*
X56484Y-50551D01*
X56367Y-50550D01*
X56319Y-50570D01*
X53441Y-50570D01*
X53441Y-48970D01*
X53409Y-48890D01*
X53363Y-48845D01*
X53409Y-48800D01*
X53441Y-48721D01*
X53441Y-48635D01*
X53409Y-48556D01*
X53368Y-48515D01*
X53409Y-48475D01*
X53441Y-48396D01*
X53441Y-48310D01*
X53409Y-48231D01*
X53354Y-48176D01*
X53389Y-48140D01*
X53422Y-48061D01*
X53422Y-47975D01*
X53389Y-47896D01*
X53328Y-47835D01*
X53318Y-47831D01*
X53328Y-47827D01*
X53389Y-47766D01*
X53422Y-47687D01*
X53422Y-47601D01*
X53389Y-47522D01*
X53359Y-47492D01*
X53399Y-47451D01*
X53432Y-47372D01*
X53432Y-47286D01*
X53399Y-47207D01*
X53338Y-47146D01*
X53259Y-47114D01*
X53173Y-47114D01*
X53094Y-47146D01*
X53049Y-47192D01*
X53004Y-47146D01*
X52979Y-47136D01*
X52979Y-45172D01*
X52946Y-45093D01*
X52910Y-45057D01*
X52945Y-45022D01*
X52978Y-44943D01*
X52978Y-44857D01*
X52946Y-44778D01*
X52885Y-44717D01*
X52806Y-44684D01*
X52720Y-44684D01*
X52641Y-44717D01*
X52580Y-44778D01*
X52547Y-44857D01*
X52547Y-44943D01*
X52580Y-45022D01*
X52615Y-45058D01*
X52581Y-45093D01*
X52548Y-45172D01*
X52548Y-45258D01*
X52580Y-45337D01*
X52641Y-45398D01*
X52720Y-45430D01*
X52806Y-45430D01*
X52885Y-45398D01*
X52946Y-45337D01*
X52979Y-45258D01*
X52979Y-45172D01*
X52979Y-47136D01*
X52924Y-47114D01*
X52839Y-47114D01*
X52759Y-47146D01*
X52719Y-47187D01*
X52679Y-47146D01*
X52600Y-47114D01*
X52514Y-47114D01*
X52435Y-47146D01*
X52394Y-47187D01*
X52354Y-47146D01*
X52275Y-47114D01*
X52270Y-47114D01*
X52270Y-45172D01*
X52237Y-45093D01*
X52201Y-45057D01*
X52237Y-45022D01*
X52269Y-44943D01*
X52270Y-44857D01*
X52237Y-44778D01*
X52176Y-44717D01*
X52097Y-44684D01*
X52011Y-44684D01*
X51932Y-44717D01*
X51871Y-44778D01*
X51838Y-44857D01*
X51838Y-44943D01*
X51871Y-45022D01*
X51907Y-45058D01*
X51872Y-45093D01*
X51839Y-45172D01*
X51839Y-45258D01*
X51871Y-45337D01*
X51932Y-45398D01*
X52011Y-45431D01*
X52097Y-45431D01*
X52176Y-45398D01*
X52237Y-45337D01*
X52270Y-45258D01*
X52270Y-45172D01*
X52270Y-47114D01*
X52189Y-47114D01*
X52110Y-47146D01*
X52079Y-47177D01*
X52049Y-47146D01*
X51970Y-47114D01*
X51884Y-47114D01*
X51805Y-47146D01*
X51774Y-47177D01*
X51744Y-47146D01*
X51665Y-47114D01*
X51579Y-47114D01*
X51500Y-47146D01*
X51474Y-47172D01*
X51449Y-47146D01*
X51369Y-47114D01*
X51284Y-47114D01*
X51204Y-47146D01*
X51144Y-47207D01*
X51111Y-47286D01*
X51111Y-47372D01*
X51143Y-47451D01*
X51179Y-47487D01*
X51144Y-47522D01*
X51111Y-47601D01*
X51111Y-47687D01*
X51143Y-47766D01*
X51204Y-47827D01*
X51214Y-47831D01*
X51204Y-47835D01*
X51144Y-47896D01*
X51111Y-47975D01*
X51111Y-48061D01*
X51143Y-48140D01*
X51189Y-48186D01*
X51144Y-48231D01*
X51111Y-48310D01*
X51111Y-48395D01*
X51143Y-48475D01*
X51179Y-48510D01*
X51144Y-48545D01*
X51111Y-48625D01*
X51111Y-48710D01*
X51143Y-48790D01*
X51189Y-48835D01*
X51144Y-48880D01*
X51111Y-48959D01*
X51111Y-49045D01*
X51143Y-49124D01*
X51204Y-49185D01*
X51283Y-49218D01*
X51369Y-49218D01*
X51448Y-49185D01*
X51474Y-49160D01*
X51509Y-49195D01*
X51588Y-49228D01*
X51674Y-49228D01*
X51753Y-49195D01*
X51779Y-49170D01*
X51804Y-49195D01*
X51884Y-49228D01*
X51969Y-49228D01*
X52049Y-49195D01*
X52084Y-49160D01*
X52119Y-49195D01*
X52199Y-49228D01*
X52284Y-49228D01*
X52364Y-49195D01*
X52404Y-49155D01*
X52444Y-49195D01*
X52523Y-49228D01*
X52609Y-49228D01*
X52688Y-49195D01*
X52729Y-49155D01*
X52769Y-49195D01*
X52848Y-49228D01*
X52934Y-49228D01*
X53013Y-49195D01*
X53059Y-49150D01*
X53104Y-49195D01*
X53183Y-49228D01*
X53269Y-49228D01*
X53348Y-49195D01*
X53409Y-49135D01*
X53441Y-49055D01*
X53441Y-48970D01*
X53441Y-50570D01*
X46771Y-50570D01*
X46771Y-48937D01*
X46741Y-48865D01*
X46686Y-48809D01*
X46614Y-48779D01*
X46535Y-48779D01*
X46463Y-48809D01*
X46417Y-48855D01*
X46371Y-48809D01*
X46299Y-48779D01*
X46220Y-48779D01*
X46148Y-48809D01*
X46102Y-48855D01*
X46056Y-48809D01*
X45984Y-48779D01*
X45905Y-48779D01*
X45833Y-48809D01*
X45787Y-48855D01*
X45741Y-48809D01*
X45669Y-48779D01*
X45590Y-48779D01*
X45518Y-48809D01*
X45472Y-48855D01*
X45426Y-48809D01*
X45354Y-48779D01*
X45276Y-48779D01*
X45203Y-48809D01*
X45157Y-48855D01*
X45111Y-48809D01*
X45039Y-48779D01*
X44961Y-48779D01*
X44888Y-48809D01*
X44833Y-48864D01*
X44803Y-48937D01*
X44803Y-49015D01*
X44833Y-49087D01*
X44879Y-49133D01*
X44833Y-49179D01*
X44803Y-49252D01*
X44803Y-49330D01*
X44833Y-49402D01*
X44879Y-49448D01*
X44833Y-49494D01*
X44803Y-49567D01*
X44803Y-49645D01*
X44833Y-49717D01*
X44888Y-49772D01*
X44960Y-49802D01*
X45038Y-49802D01*
X45111Y-49773D01*
X45157Y-49726D01*
X45203Y-49772D01*
X45275Y-49802D01*
X45353Y-49802D01*
X45426Y-49773D01*
X45472Y-49726D01*
X45518Y-49772D01*
X45590Y-49802D01*
X45668Y-49802D01*
X45741Y-49773D01*
X45796Y-49717D01*
X45826Y-49645D01*
X45826Y-49567D01*
X45796Y-49495D01*
X45750Y-49448D01*
X45796Y-49402D01*
X45826Y-49330D01*
X45826Y-49252D01*
X45796Y-49180D01*
X45750Y-49133D01*
X45787Y-49096D01*
X45833Y-49142D01*
X45905Y-49172D01*
X45983Y-49173D01*
X46056Y-49143D01*
X46102Y-49096D01*
X46148Y-49142D01*
X46220Y-49172D01*
X46298Y-49173D01*
X46371Y-49143D01*
X46417Y-49096D01*
X46463Y-49142D01*
X46535Y-49172D01*
X46613Y-49173D01*
X46686Y-49143D01*
X46741Y-49087D01*
X46771Y-49015D01*
X46771Y-48937D01*
X46771Y-50570D01*
X44687Y-50570D01*
X44687Y-48135D01*
X44639Y-48018D01*
X44549Y-47928D01*
X44432Y-47880D01*
X44306Y-47880D01*
X44189Y-47928D01*
X44099Y-48017D01*
X44051Y-48134D01*
X44051Y-48261D01*
X44099Y-48378D01*
X44188Y-48467D01*
X44305Y-48516D01*
X44432Y-48516D01*
X44549Y-48468D01*
X44638Y-48378D01*
X44687Y-48261D01*
X44687Y-48135D01*
X44687Y-50570D01*
X42929Y-50570D01*
X42882Y-50551D01*
X42764Y-50550D01*
X42716Y-50570D01*
X42495Y-50570D01*
X42448Y-50551D01*
X42330Y-50550D01*
X42282Y-50570D01*
X42064Y-50570D01*
X42017Y-50551D01*
X41899Y-50550D01*
X41851Y-50570D01*
X41631Y-50570D01*
X41584Y-50551D01*
X41466Y-50550D01*
X41418Y-50570D01*
X37413Y-50570D01*
X37413Y-48135D01*
X37413Y-30335D01*
X37365Y-30218D01*
X37275Y-30129D01*
X37158Y-30080D01*
X37032Y-30080D01*
X36915Y-30128D01*
X36825Y-30218D01*
X36777Y-30335D01*
X36777Y-30461D01*
X36825Y-30578D01*
X36914Y-30668D01*
X37031Y-30716D01*
X37158Y-30716D01*
X37275Y-30668D01*
X37364Y-30579D01*
X37413Y-30462D01*
X37413Y-30335D01*
X37413Y-48135D01*
X37365Y-48018D01*
X37275Y-47928D01*
X37158Y-47880D01*
X37032Y-47880D01*
X36915Y-47928D01*
X36825Y-48017D01*
X36777Y-48134D01*
X36777Y-48261D01*
X36825Y-48378D01*
X36914Y-48467D01*
X37031Y-48516D01*
X37158Y-48516D01*
X37275Y-48468D01*
X37364Y-48378D01*
X37413Y-48261D01*
X37413Y-48135D01*
X37413Y-50570D01*
X32503Y-50570D01*
X32503Y-44450D01*
X32527Y-44393D01*
X32527Y-44276D01*
X32503Y-44219D01*
X32503Y-44017D01*
X32527Y-43960D01*
X32527Y-43843D01*
X32503Y-43786D01*
X32503Y-43584D01*
X32527Y-43527D01*
X32527Y-43410D01*
X32503Y-43353D01*
X32503Y-35611D01*
X32527Y-35554D01*
X32527Y-35437D01*
X32503Y-35380D01*
X32503Y-35178D01*
X32527Y-35121D01*
X32527Y-35004D01*
X32503Y-34947D01*
X32503Y-34745D01*
X32527Y-34688D01*
X32527Y-34571D01*
X32503Y-34514D01*
X32503Y-29625D01*
X41419Y-29625D01*
X41466Y-29645D01*
X41583Y-29645D01*
X41631Y-29625D01*
X41852Y-29625D01*
X41899Y-29645D01*
X42016Y-29645D01*
X42064Y-29625D01*
X42283Y-29625D01*
X42330Y-29645D01*
X42447Y-29645D01*
X42494Y-29625D01*
X42717Y-29625D01*
X42764Y-29645D01*
X42881Y-29645D01*
X42928Y-29625D01*
X56319Y-29625D01*
X56366Y-29645D01*
X56483Y-29645D01*
X56530Y-29625D01*
X56752Y-29625D01*
X56799Y-29645D01*
X56916Y-29645D01*
X56963Y-29625D01*
X57185Y-29625D01*
X57232Y-29645D01*
X57349Y-29645D01*
X57396Y-29625D01*
X57619Y-29625D01*
X57666Y-29645D01*
X57783Y-29645D01*
X57830Y-29625D01*
X65984Y-29625D01*
X65984Y-30708D01*
X65984Y-30708D01*
X65984Y-39483D01*
X65972Y-39512D01*
X65972Y-39629D01*
X65984Y-39657D01*
X65984Y-39916D01*
X65972Y-39945D01*
X65972Y-40062D01*
X65984Y-40090D01*
X65984Y-40349D01*
X65972Y-40378D01*
X65972Y-40495D01*
X65984Y-40523D01*
X65984Y-40782D01*
X65972Y-40811D01*
X65972Y-40928D01*
X65984Y-40956D01*
X65984Y-49527D01*
X65984Y-49527D01*
G37*
G54D21*
X65984Y-49527D02*
X65984Y-49527D01*
X65984Y-50570D01*
X63806Y-50570D01*
X63806Y-30448D01*
X63743Y-30295D01*
X63625Y-30178D01*
X63472Y-30114D01*
X63307Y-30114D01*
X63153Y-30177D01*
X63036Y-30295D01*
X62973Y-30448D01*
X62972Y-30613D01*
X63036Y-30767D01*
X63153Y-30884D01*
X63306Y-30947D01*
X63472Y-30948D01*
X63625Y-30884D01*
X63742Y-30767D01*
X63806Y-30614D01*
X63806Y-30448D01*
X63806Y-50570D01*
X63461Y-50570D01*
X63461Y-49385D01*
X63398Y-49232D01*
X63281Y-49115D01*
X63128Y-49051D01*
X62962Y-49051D01*
X62809Y-49114D01*
X62806Y-49118D01*
X62806Y-30448D01*
X62743Y-30295D01*
X62625Y-30178D01*
X62472Y-30114D01*
X62307Y-30114D01*
X62153Y-30177D01*
X62036Y-30295D01*
X61973Y-30448D01*
X61972Y-30613D01*
X62036Y-30767D01*
X62153Y-30884D01*
X62306Y-30947D01*
X62472Y-30948D01*
X62625Y-30884D01*
X62742Y-30767D01*
X62806Y-30614D01*
X62806Y-30448D01*
X62806Y-49118D01*
X62692Y-49232D01*
X62628Y-49385D01*
X62628Y-49550D01*
X62691Y-49704D01*
X62808Y-49821D01*
X62961Y-49884D01*
X63127Y-49885D01*
X63280Y-49821D01*
X63398Y-49704D01*
X63461Y-49551D01*
X63461Y-49385D01*
X63461Y-50570D01*
X62461Y-50570D01*
X62461Y-49385D01*
X62398Y-49232D01*
X62281Y-49115D01*
X62145Y-49058D01*
X62145Y-40315D01*
X62125Y-40267D01*
X62125Y-39764D01*
X62095Y-39691D01*
X62059Y-39655D01*
X62095Y-39619D01*
X62125Y-39547D01*
X62125Y-39468D01*
X62095Y-39396D01*
X62040Y-39341D01*
X61968Y-39311D01*
X61890Y-39311D01*
X61817Y-39341D01*
X61791Y-39367D01*
X61791Y-38287D01*
X61761Y-38215D01*
X61750Y-38204D01*
X61760Y-38194D01*
X61790Y-38122D01*
X61790Y-38044D01*
X61760Y-37971D01*
X61705Y-37916D01*
X61692Y-37911D01*
X61692Y-35669D01*
X61662Y-35597D01*
X61607Y-35542D01*
X61535Y-35512D01*
X61457Y-35512D01*
X61384Y-35541D01*
X61329Y-35597D01*
X61299Y-35669D01*
X61299Y-35747D01*
X61329Y-35819D01*
X61384Y-35875D01*
X61456Y-35905D01*
X61534Y-35905D01*
X61607Y-35875D01*
X61662Y-35820D01*
X61692Y-35747D01*
X61692Y-35669D01*
X61692Y-37911D01*
X61633Y-37886D01*
X61555Y-37886D01*
X61482Y-37916D01*
X61427Y-37971D01*
X61397Y-38043D01*
X61397Y-38121D01*
X61427Y-38194D01*
X61438Y-38205D01*
X61427Y-38215D01*
X61397Y-38287D01*
X61397Y-38365D01*
X61427Y-38437D01*
X61482Y-38493D01*
X61555Y-38523D01*
X61633Y-38523D01*
X61705Y-38493D01*
X61761Y-38438D01*
X61791Y-38366D01*
X61791Y-38287D01*
X61791Y-39367D01*
X61762Y-39396D01*
X61732Y-39468D01*
X61732Y-39546D01*
X61762Y-39619D01*
X61798Y-39655D01*
X61762Y-39691D01*
X61732Y-39763D01*
X61732Y-39842D01*
X61762Y-39914D01*
X61817Y-39969D01*
X61889Y-39999D01*
X61968Y-39999D01*
X62040Y-39969D01*
X62095Y-39914D01*
X62125Y-39842D01*
X62125Y-39764D01*
X62125Y-40267D01*
X62115Y-40243D01*
X62060Y-40187D01*
X61988Y-40157D01*
X61909Y-40157D01*
X61837Y-40187D01*
X61782Y-40242D01*
X61752Y-40315D01*
X61752Y-40393D01*
X61782Y-40465D01*
X61837Y-40520D01*
X61909Y-40550D01*
X61987Y-40550D01*
X62060Y-40521D01*
X62115Y-40465D01*
X62145Y-40393D01*
X62145Y-40315D01*
X62145Y-49058D01*
X62128Y-49051D01*
X61962Y-49051D01*
X61909Y-49073D01*
X61909Y-41122D01*
X61879Y-41050D01*
X61824Y-40994D01*
X61751Y-40964D01*
X61673Y-40964D01*
X61601Y-40994D01*
X61546Y-41049D01*
X61516Y-41122D01*
X61515Y-41200D01*
X61545Y-41272D01*
X61601Y-41327D01*
X61673Y-41357D01*
X61751Y-41358D01*
X61823Y-41328D01*
X61879Y-41272D01*
X61909Y-41200D01*
X61909Y-41122D01*
X61909Y-49073D01*
X61881Y-49085D01*
X61881Y-43216D01*
X61851Y-43144D01*
X61796Y-43089D01*
X61724Y-43059D01*
X61646Y-43059D01*
X61573Y-43089D01*
X61535Y-43127D01*
X61535Y-41653D01*
X61505Y-41581D01*
X61450Y-41526D01*
X61377Y-41496D01*
X61299Y-41496D01*
X61227Y-41526D01*
X61172Y-41581D01*
X61142Y-41653D01*
X61141Y-41731D01*
X61171Y-41804D01*
X61227Y-41859D01*
X61299Y-41889D01*
X61377Y-41889D01*
X61449Y-41859D01*
X61505Y-41804D01*
X61535Y-41732D01*
X61535Y-41653D01*
X61535Y-43127D01*
X61518Y-43144D01*
X61488Y-43216D01*
X61488Y-43294D01*
X61518Y-43367D01*
X61573Y-43422D01*
X61645Y-43452D01*
X61723Y-43452D01*
X61796Y-43422D01*
X61851Y-43367D01*
X61881Y-43295D01*
X61881Y-43216D01*
X61881Y-49085D01*
X61809Y-49114D01*
X61692Y-49232D01*
X61628Y-49385D01*
X61628Y-49550D01*
X61691Y-49704D01*
X61808Y-49821D01*
X61961Y-49884D01*
X62127Y-49885D01*
X62280Y-49821D01*
X62398Y-49704D01*
X62461Y-49551D01*
X62461Y-49385D01*
X62461Y-50570D01*
X60846Y-50570D01*
X60846Y-45118D01*
X60846Y-44567D01*
X60816Y-44495D01*
X60806Y-44484D01*
X60806Y-30448D01*
X60743Y-30295D01*
X60625Y-30178D01*
X60472Y-30114D01*
X60307Y-30114D01*
X60153Y-30177D01*
X60036Y-30295D01*
X59973Y-30448D01*
X59972Y-30613D01*
X60036Y-30767D01*
X60153Y-30884D01*
X60306Y-30947D01*
X60472Y-30948D01*
X60625Y-30884D01*
X60742Y-30767D01*
X60806Y-30614D01*
X60806Y-30448D01*
X60806Y-44484D01*
X60767Y-44446D01*
X60767Y-42677D01*
X60737Y-42605D01*
X60688Y-42556D01*
X60688Y-34803D01*
X60658Y-34731D01*
X60603Y-34675D01*
X60531Y-34645D01*
X60453Y-34645D01*
X60380Y-34675D01*
X60325Y-34731D01*
X60295Y-34803D01*
X60295Y-34881D01*
X60325Y-34953D01*
X60380Y-35009D01*
X60452Y-35039D01*
X60531Y-35039D01*
X60603Y-35009D01*
X60658Y-34954D01*
X60688Y-34881D01*
X60688Y-34803D01*
X60688Y-42556D01*
X60682Y-42549D01*
X60669Y-42544D01*
X60669Y-40961D01*
X60639Y-40888D01*
X60584Y-40833D01*
X60512Y-40803D01*
X60434Y-40803D01*
X60361Y-40833D01*
X60306Y-40888D01*
X60276Y-40960D01*
X60276Y-41038D01*
X60306Y-41111D01*
X60361Y-41166D01*
X60433Y-41196D01*
X60511Y-41196D01*
X60584Y-41166D01*
X60639Y-41111D01*
X60669Y-41039D01*
X60669Y-40961D01*
X60669Y-42544D01*
X60610Y-42519D01*
X60531Y-42519D01*
X60459Y-42549D01*
X60404Y-42605D01*
X60374Y-42677D01*
X60374Y-42755D01*
X60404Y-42827D01*
X60459Y-42883D01*
X60531Y-42913D01*
X60609Y-42913D01*
X60682Y-42883D01*
X60737Y-42828D01*
X60767Y-42755D01*
X60767Y-42677D01*
X60767Y-44446D01*
X60761Y-44439D01*
X60688Y-44409D01*
X60610Y-44409D01*
X60610Y-44409D01*
X60610Y-43090D01*
X60580Y-43018D01*
X60524Y-42963D01*
X60452Y-42933D01*
X60374Y-42933D01*
X60302Y-42963D01*
X60246Y-43018D01*
X60226Y-43066D01*
X60226Y-41172D01*
X60196Y-41099D01*
X60141Y-41044D01*
X60069Y-41014D01*
X59991Y-41014D01*
X59918Y-41044D01*
X59863Y-41099D01*
X59833Y-41171D01*
X59833Y-41249D01*
X59863Y-41322D01*
X59918Y-41377D01*
X59990Y-41407D01*
X60068Y-41407D01*
X60141Y-41377D01*
X60196Y-41322D01*
X60226Y-41250D01*
X60226Y-41172D01*
X60226Y-43066D01*
X60216Y-43090D01*
X60216Y-43168D01*
X60246Y-43241D01*
X60301Y-43296D01*
X60374Y-43326D01*
X60452Y-43326D01*
X60524Y-43296D01*
X60579Y-43241D01*
X60609Y-43169D01*
X60610Y-43090D01*
X60610Y-44409D01*
X60538Y-44439D01*
X60483Y-44494D01*
X60453Y-44567D01*
X60453Y-44581D01*
X59842Y-45192D01*
X59842Y-41378D01*
X59812Y-41306D01*
X59757Y-41250D01*
X59684Y-41220D01*
X59606Y-41220D01*
X59534Y-41250D01*
X59479Y-41305D01*
X59449Y-41378D01*
X59449Y-41456D01*
X59478Y-41528D01*
X59534Y-41583D01*
X59606Y-41613D01*
X59684Y-41613D01*
X59756Y-41584D01*
X59812Y-41528D01*
X59842Y-41456D01*
X59842Y-41378D01*
X59842Y-45192D01*
X59620Y-45414D01*
X59477Y-45414D01*
X59477Y-42028D01*
X59447Y-41955D01*
X59424Y-41932D01*
X59438Y-41918D01*
X59468Y-41846D01*
X59468Y-41768D01*
X59438Y-41695D01*
X59383Y-41640D01*
X59311Y-41610D01*
X59233Y-41610D01*
X59160Y-41640D01*
X59105Y-41695D01*
X59075Y-41767D01*
X59075Y-41845D01*
X59105Y-41918D01*
X59128Y-41941D01*
X59114Y-41955D01*
X59084Y-42027D01*
X59084Y-42105D01*
X59114Y-42178D01*
X59169Y-42233D01*
X59241Y-42263D01*
X59319Y-42263D01*
X59392Y-42233D01*
X59447Y-42178D01*
X59477Y-42106D01*
X59477Y-42028D01*
X59477Y-45414D01*
X58936Y-45414D01*
X58936Y-41930D01*
X58906Y-41857D01*
X58851Y-41802D01*
X58779Y-41772D01*
X58701Y-41772D01*
X58633Y-41800D01*
X58622Y-41795D01*
X58622Y-41301D01*
X58593Y-41233D01*
X58541Y-41180D01*
X58472Y-41151D01*
X58397Y-41151D01*
X58336Y-41177D01*
X58275Y-41151D01*
X58200Y-41151D01*
X58132Y-41180D01*
X58079Y-41232D01*
X58050Y-41301D01*
X58050Y-41376D01*
X58079Y-41444D01*
X58131Y-41497D01*
X58200Y-41526D01*
X58275Y-41526D01*
X58336Y-41500D01*
X58397Y-41526D01*
X58472Y-41526D01*
X58540Y-41497D01*
X58593Y-41445D01*
X58622Y-41376D01*
X58622Y-41301D01*
X58622Y-41795D01*
X58575Y-41776D01*
X58497Y-41776D01*
X58424Y-41806D01*
X58369Y-41861D01*
X58339Y-41933D01*
X58339Y-42011D01*
X58369Y-42084D01*
X58424Y-42139D01*
X58496Y-42169D01*
X58574Y-42169D01*
X58642Y-42141D01*
X58700Y-42165D01*
X58778Y-42165D01*
X58851Y-42135D01*
X58906Y-42080D01*
X58936Y-42008D01*
X58936Y-41930D01*
X58936Y-45414D01*
X58759Y-45414D01*
X58759Y-43090D01*
X58729Y-43018D01*
X58674Y-42963D01*
X58602Y-42933D01*
X58524Y-42933D01*
X58502Y-42942D01*
X58493Y-42920D01*
X58438Y-42864D01*
X58366Y-42834D01*
X58287Y-42834D01*
X58215Y-42864D01*
X58160Y-42919D01*
X58130Y-42992D01*
X58130Y-43070D01*
X58159Y-43142D01*
X58215Y-43198D01*
X58287Y-43228D01*
X58365Y-43228D01*
X58387Y-43219D01*
X58396Y-43241D01*
X58451Y-43296D01*
X58523Y-43326D01*
X58601Y-43326D01*
X58674Y-43296D01*
X58729Y-43241D01*
X58759Y-43169D01*
X58759Y-43090D01*
X58759Y-45414D01*
X57755Y-45414D01*
X57755Y-44567D01*
X57725Y-44495D01*
X57670Y-44439D01*
X57598Y-44409D01*
X57520Y-44409D01*
X57447Y-44439D01*
X57401Y-44485D01*
X57401Y-41929D01*
X57371Y-41857D01*
X57316Y-41801D01*
X57244Y-41771D01*
X57165Y-41771D01*
X57093Y-41801D01*
X57076Y-41818D01*
X57060Y-41801D01*
X56988Y-41771D01*
X56909Y-41771D01*
X56837Y-41801D01*
X56782Y-41856D01*
X56752Y-41929D01*
X56752Y-42007D01*
X56782Y-42079D01*
X56837Y-42135D01*
X56909Y-42165D01*
X56987Y-42165D01*
X57060Y-42135D01*
X57076Y-42118D01*
X57093Y-42135D01*
X57165Y-42165D01*
X57243Y-42165D01*
X57315Y-42135D01*
X57371Y-42080D01*
X57401Y-42007D01*
X57401Y-41929D01*
X57401Y-44485D01*
X57392Y-44494D01*
X57362Y-44567D01*
X57362Y-44645D01*
X57392Y-44717D01*
X57447Y-44772D01*
X57519Y-44802D01*
X57597Y-44802D01*
X57670Y-44773D01*
X57725Y-44717D01*
X57755Y-44645D01*
X57755Y-44567D01*
X57755Y-45414D01*
X56593Y-45414D01*
X56593Y-43932D01*
X56560Y-43853D01*
X56500Y-43792D01*
X56495Y-43790D01*
X56495Y-42992D01*
X56465Y-42920D01*
X56410Y-42864D01*
X56338Y-42834D01*
X56260Y-42834D01*
X56187Y-42864D01*
X56132Y-42919D01*
X56102Y-42992D01*
X56102Y-43070D01*
X56132Y-43142D01*
X56187Y-43198D01*
X56259Y-43228D01*
X56338Y-43228D01*
X56410Y-43198D01*
X56465Y-43143D01*
X56495Y-43070D01*
X56495Y-42992D01*
X56495Y-43790D01*
X56421Y-43759D01*
X56335Y-43759D01*
X56256Y-43792D01*
X56240Y-43808D01*
X56224Y-43792D01*
X56145Y-43759D01*
X56059Y-43759D01*
X55980Y-43792D01*
X55919Y-43852D01*
X55886Y-43931D01*
X55886Y-44017D01*
X55919Y-44096D01*
X55979Y-44157D01*
X56058Y-44190D01*
X56144Y-44190D01*
X56223Y-44157D01*
X56239Y-44141D01*
X56255Y-44157D01*
X56334Y-44190D01*
X56420Y-44190D01*
X56499Y-44157D01*
X56560Y-44097D01*
X56593Y-44018D01*
X56593Y-43932D01*
X56593Y-45414D01*
X55663Y-45414D01*
X54362Y-44113D01*
X54563Y-44113D01*
X54623Y-44101D01*
X54623Y-44101D01*
X54674Y-44067D01*
X55477Y-43263D01*
X55491Y-43263D01*
X55564Y-43233D01*
X55619Y-43178D01*
X55649Y-43106D01*
X55649Y-43028D01*
X55619Y-42955D01*
X55564Y-42900D01*
X55492Y-42870D01*
X55414Y-42870D01*
X55341Y-42900D01*
X55339Y-42902D01*
X55336Y-42900D01*
X55264Y-42870D01*
X55186Y-42870D01*
X55113Y-42900D01*
X55102Y-42911D01*
X55076Y-42884D01*
X55003Y-42854D01*
X54925Y-42854D01*
X54853Y-42884D01*
X54840Y-42896D01*
X54832Y-42888D01*
X54760Y-42858D01*
X54682Y-42858D01*
X54609Y-42888D01*
X54599Y-42898D01*
X49730Y-42898D01*
X48913Y-42081D01*
X50417Y-42081D01*
X52162Y-42081D01*
X52172Y-42091D01*
X52244Y-42121D01*
X52322Y-42121D01*
X52394Y-42091D01*
X52450Y-42036D01*
X52480Y-41964D01*
X52480Y-41922D01*
X52495Y-41928D01*
X52573Y-41928D01*
X52646Y-41898D01*
X52701Y-41843D01*
X52731Y-41771D01*
X52731Y-41693D01*
X52701Y-41620D01*
X52646Y-41565D01*
X52574Y-41535D01*
X52504Y-41535D01*
X52504Y-41493D01*
X52474Y-41420D01*
X52458Y-41404D01*
X53173Y-41404D01*
X53175Y-41406D01*
X53180Y-41408D01*
X52993Y-41595D01*
X52963Y-41640D01*
X52952Y-41692D01*
X52952Y-42224D01*
X52963Y-42277D01*
X52993Y-42321D01*
X53229Y-42557D01*
X53274Y-42587D01*
X53274Y-42587D01*
X53326Y-42598D01*
X53523Y-42598D01*
X55492Y-42598D01*
X55544Y-42587D01*
X55544Y-42587D01*
X55589Y-42557D01*
X55826Y-42320D01*
X55826Y-42342D01*
X55856Y-42414D01*
X55912Y-42469D01*
X55984Y-42499D01*
X56062Y-42499D01*
X56134Y-42469D01*
X56190Y-42414D01*
X56220Y-42342D01*
X56220Y-42264D01*
X56190Y-42191D01*
X56135Y-42136D01*
X56062Y-42106D01*
X56040Y-42106D01*
X56125Y-42021D01*
X56136Y-42048D01*
X56191Y-42103D01*
X56263Y-42133D01*
X56341Y-42133D01*
X56414Y-42103D01*
X56469Y-42048D01*
X56499Y-41976D01*
X56499Y-41898D01*
X56469Y-41825D01*
X56414Y-41770D01*
X56355Y-41745D01*
X56358Y-41732D01*
X56358Y-41474D01*
X56409Y-41496D01*
X56484Y-41496D01*
X56534Y-41475D01*
X56556Y-41497D01*
X56625Y-41526D01*
X56700Y-41526D01*
X56761Y-41500D01*
X56822Y-41526D01*
X56897Y-41526D01*
X56958Y-41500D01*
X57019Y-41526D01*
X57094Y-41526D01*
X57155Y-41500D01*
X57216Y-41526D01*
X57291Y-41526D01*
X57359Y-41497D01*
X57412Y-41445D01*
X57441Y-41376D01*
X57441Y-41301D01*
X57412Y-41233D01*
X57360Y-41180D01*
X57291Y-41151D01*
X57216Y-41151D01*
X57155Y-41177D01*
X57094Y-41151D01*
X57019Y-41151D01*
X56958Y-41177D01*
X56897Y-41151D01*
X56822Y-41151D01*
X56761Y-41177D01*
X56700Y-41151D01*
X56625Y-41151D01*
X56622Y-41153D01*
X56624Y-41149D01*
X56624Y-41074D01*
X56598Y-41013D01*
X56624Y-40952D01*
X56624Y-40877D01*
X56598Y-40816D01*
X56624Y-40756D01*
X56624Y-40681D01*
X56598Y-40620D01*
X56624Y-40559D01*
X56624Y-40484D01*
X56598Y-40423D01*
X56624Y-40362D01*
X56624Y-40287D01*
X56598Y-40226D01*
X56624Y-40165D01*
X56624Y-40090D01*
X56598Y-40029D01*
X56624Y-39968D01*
X56624Y-39893D01*
X56598Y-39832D01*
X56624Y-39771D01*
X56624Y-39696D01*
X56598Y-39635D01*
X56624Y-39574D01*
X56624Y-39499D01*
X56598Y-39438D01*
X56624Y-39378D01*
X56624Y-39303D01*
X56598Y-39242D01*
X56624Y-39181D01*
X56624Y-39106D01*
X56598Y-39045D01*
X56624Y-38984D01*
X56624Y-38909D01*
X56615Y-38889D01*
X56635Y-38898D01*
X56710Y-38898D01*
X56762Y-38876D01*
X56763Y-38878D01*
X56832Y-38907D01*
X56907Y-38907D01*
X56968Y-38881D01*
X57029Y-38907D01*
X57104Y-38907D01*
X57172Y-38878D01*
X57225Y-38826D01*
X57232Y-38808D01*
X57387Y-38980D01*
X57391Y-38982D01*
X57392Y-38985D01*
X57407Y-38995D01*
X57430Y-39012D01*
X57434Y-39013D01*
X57437Y-39015D01*
X57455Y-39018D01*
X57482Y-39025D01*
X57486Y-39024D01*
X57490Y-39025D01*
X58740Y-39025D01*
X58740Y-40167D01*
X58742Y-40176D01*
X58741Y-40185D01*
X58747Y-40202D01*
X58750Y-40219D01*
X58755Y-40227D01*
X58758Y-40236D01*
X58770Y-40249D01*
X58780Y-40264D01*
X58788Y-40269D01*
X58794Y-40276D01*
X58877Y-40340D01*
X58877Y-40362D01*
X58903Y-40423D01*
X58877Y-40484D01*
X58877Y-40559D01*
X58903Y-40620D01*
X58877Y-40681D01*
X58877Y-40756D01*
X58903Y-40817D01*
X58877Y-40877D01*
X58877Y-40952D01*
X58906Y-41020D01*
X58909Y-41023D01*
X58887Y-41074D01*
X58887Y-41149D01*
X58909Y-41200D01*
X58906Y-41202D01*
X58877Y-41271D01*
X58877Y-41346D01*
X58906Y-41414D01*
X58958Y-41467D01*
X59027Y-41496D01*
X59102Y-41496D01*
X59170Y-41467D01*
X59223Y-41415D01*
X59252Y-41346D01*
X59252Y-41271D01*
X59230Y-41220D01*
X59233Y-41218D01*
X59262Y-41149D01*
X59262Y-41074D01*
X59233Y-41006D01*
X59230Y-41003D01*
X59252Y-40952D01*
X59252Y-40877D01*
X59233Y-40833D01*
X59233Y-40833D01*
X59260Y-40816D01*
X59309Y-40766D01*
X59339Y-40721D01*
X59339Y-40721D01*
X59350Y-40669D01*
X59350Y-40422D01*
X59449Y-40522D01*
X59449Y-40522D01*
X59471Y-40537D01*
X59494Y-40552D01*
X59494Y-40552D01*
X59523Y-40558D01*
X59557Y-40591D01*
X59594Y-40607D01*
X59573Y-40628D01*
X59543Y-40700D01*
X59543Y-40778D01*
X59573Y-40851D01*
X59628Y-40906D01*
X59700Y-40936D01*
X59778Y-40936D01*
X59851Y-40906D01*
X59906Y-40851D01*
X59913Y-40834D01*
X59941Y-40846D01*
X60019Y-40846D01*
X60091Y-40816D01*
X60146Y-40761D01*
X60176Y-40688D01*
X60176Y-40610D01*
X60158Y-40567D01*
X60607Y-40118D01*
X60637Y-40073D01*
X60637Y-40073D01*
X60647Y-40021D01*
X60647Y-39645D01*
X60647Y-39641D01*
X60645Y-38756D01*
X60645Y-38755D01*
X60645Y-37594D01*
X60635Y-37541D01*
X60635Y-37541D01*
X60605Y-37497D01*
X60156Y-37048D01*
X60111Y-37018D01*
X60059Y-37008D01*
X59212Y-37008D01*
X59212Y-36516D01*
X59182Y-36443D01*
X59127Y-36388D01*
X59055Y-36358D01*
X58976Y-36358D01*
X58904Y-36388D01*
X58849Y-36443D01*
X58819Y-36515D01*
X58819Y-36594D01*
X58848Y-36666D01*
X58904Y-36721D01*
X58976Y-36751D01*
X59054Y-36751D01*
X59126Y-36721D01*
X59182Y-36666D01*
X59212Y-36594D01*
X59212Y-36516D01*
X59212Y-37008D01*
X57635Y-37008D01*
X56399Y-35771D01*
X57422Y-35771D01*
X57440Y-35775D01*
X57965Y-35775D01*
X58769Y-35775D01*
X59508Y-36514D01*
X59508Y-36514D01*
X59531Y-36529D01*
X59553Y-36544D01*
X59553Y-36544D01*
X59606Y-36554D01*
X59606Y-36554D01*
X59862Y-36554D01*
X59914Y-36544D01*
X59914Y-36544D01*
X59959Y-36514D01*
X60057Y-36417D01*
X60097Y-36417D01*
X60170Y-36387D01*
X60225Y-36331D01*
X60255Y-36259D01*
X60255Y-36181D01*
X60225Y-36109D01*
X60179Y-36062D01*
X60233Y-36062D01*
X60262Y-36091D01*
X60334Y-36121D01*
X60412Y-36121D01*
X60485Y-36091D01*
X60540Y-36036D01*
X60570Y-35964D01*
X60570Y-35886D01*
X60540Y-35813D01*
X60485Y-35758D01*
X60413Y-35728D01*
X60335Y-35728D01*
X60262Y-35758D01*
X60233Y-35787D01*
X59806Y-35787D01*
X59806Y-30786D01*
X59806Y-30189D01*
X59788Y-30146D01*
X59755Y-30112D01*
X59711Y-30094D01*
X59664Y-30094D01*
X59067Y-30094D01*
X59024Y-30112D01*
X58991Y-30145D01*
X58973Y-30189D01*
X58973Y-30236D01*
X58973Y-30833D01*
X58990Y-30876D01*
X59024Y-30909D01*
X59067Y-30927D01*
X59114Y-30928D01*
X59711Y-30928D01*
X59754Y-30910D01*
X59788Y-30876D01*
X59806Y-30833D01*
X59806Y-30786D01*
X59806Y-35787D01*
X59801Y-35787D01*
X59463Y-35449D01*
X59418Y-35419D01*
X59365Y-35409D01*
X57852Y-35409D01*
X57559Y-35409D01*
X54094Y-35409D01*
X54094Y-34567D01*
X54064Y-34495D01*
X54009Y-34439D01*
X53936Y-34409D01*
X53858Y-34409D01*
X53786Y-34439D01*
X53731Y-34494D01*
X53701Y-34567D01*
X53700Y-34645D01*
X53730Y-34717D01*
X53786Y-34772D01*
X53858Y-34802D01*
X53936Y-34802D01*
X54008Y-34773D01*
X54064Y-34717D01*
X54094Y-34645D01*
X54094Y-34567D01*
X54094Y-35409D01*
X53267Y-35409D01*
X53267Y-34823D01*
X53237Y-34750D01*
X53182Y-34695D01*
X53110Y-34665D01*
X53032Y-34665D01*
X52959Y-34695D01*
X52904Y-34750D01*
X52874Y-34822D01*
X52874Y-34898D01*
X52867Y-34898D01*
X52794Y-34928D01*
X52739Y-34983D01*
X52709Y-35055D01*
X52709Y-35133D01*
X52739Y-35206D01*
X52794Y-35261D01*
X52866Y-35291D01*
X52944Y-35291D01*
X53017Y-35261D01*
X53072Y-35206D01*
X53102Y-35134D01*
X53102Y-35058D01*
X53109Y-35058D01*
X53182Y-35028D01*
X53237Y-34973D01*
X53267Y-34901D01*
X53267Y-34823D01*
X53267Y-35409D01*
X52737Y-35409D01*
X52180Y-34851D01*
X52135Y-34821D01*
X52083Y-34811D01*
X51402Y-34811D01*
X51415Y-34798D01*
X52283Y-34793D01*
X52336Y-34783D01*
X52378Y-34754D01*
X52380Y-34753D01*
X52380Y-34753D01*
X52380Y-34752D01*
X52381Y-34752D01*
X54250Y-32883D01*
X56141Y-32883D01*
X57332Y-32883D01*
X57385Y-32873D01*
X57385Y-32873D01*
X57430Y-32843D01*
X58484Y-31788D01*
X58514Y-31743D01*
X58514Y-31743D01*
X58525Y-31691D01*
X58525Y-30925D01*
X58623Y-30884D01*
X58740Y-30767D01*
X58804Y-30614D01*
X58804Y-30448D01*
X58741Y-30295D01*
X58623Y-30178D01*
X58470Y-30114D01*
X58305Y-30114D01*
X58151Y-30177D01*
X58034Y-30295D01*
X57971Y-30448D01*
X57970Y-30613D01*
X58034Y-30767D01*
X58151Y-30884D01*
X58250Y-30925D01*
X58250Y-31634D01*
X57275Y-32608D01*
X56711Y-32608D01*
X57403Y-31933D01*
X57406Y-31929D01*
X57412Y-31923D01*
X57412Y-31923D01*
X57412Y-31923D01*
X57484Y-31850D01*
X57486Y-31849D01*
X57486Y-31849D01*
X57498Y-31831D01*
X57516Y-31804D01*
X57516Y-31804D01*
X57526Y-31751D01*
X57526Y-31751D01*
X57525Y-31745D01*
X57525Y-31745D01*
X57525Y-30925D01*
X57623Y-30884D01*
X57740Y-30767D01*
X57804Y-30614D01*
X57804Y-30448D01*
X57741Y-30295D01*
X57623Y-30178D01*
X57470Y-30114D01*
X57305Y-30114D01*
X57151Y-30177D01*
X57034Y-30295D01*
X56971Y-30448D01*
X56970Y-30613D01*
X57034Y-30767D01*
X57151Y-30884D01*
X57250Y-30925D01*
X57250Y-31696D01*
X57217Y-31728D01*
X57217Y-31728D01*
X57217Y-31728D01*
X57209Y-31736D01*
X57207Y-31739D01*
X56498Y-32431D01*
X55936Y-32431D01*
X56407Y-31928D01*
X56407Y-31927D01*
X56412Y-31923D01*
X56412Y-31923D01*
X56412Y-31923D01*
X56484Y-31850D01*
X56487Y-31848D01*
X56516Y-31803D01*
X56516Y-31803D01*
X56527Y-31751D01*
X56525Y-31740D01*
X56525Y-31740D01*
X56525Y-30925D01*
X56623Y-30884D01*
X56740Y-30767D01*
X56804Y-30614D01*
X56804Y-30448D01*
X56741Y-30295D01*
X56623Y-30178D01*
X56470Y-30114D01*
X56305Y-30114D01*
X56151Y-30177D01*
X56034Y-30295D01*
X55971Y-30448D01*
X55970Y-30613D01*
X56034Y-30767D01*
X56151Y-30884D01*
X56250Y-30925D01*
X56250Y-31696D01*
X56217Y-31728D01*
X56217Y-31728D01*
X56217Y-31728D01*
X56209Y-31736D01*
X56208Y-31739D01*
X56206Y-31740D01*
X55698Y-32283D01*
X55052Y-32283D01*
X55402Y-31932D01*
X55404Y-31931D01*
X55412Y-31923D01*
X55412Y-31923D01*
X55412Y-31923D01*
X55479Y-31856D01*
X55479Y-31856D01*
X55479Y-31856D01*
X55484Y-31850D01*
X55514Y-31805D01*
X55514Y-31805D01*
X55525Y-31753D01*
X55525Y-31753D01*
X55525Y-30925D01*
X55623Y-30884D01*
X55740Y-30767D01*
X55804Y-30614D01*
X55804Y-30448D01*
X55741Y-30295D01*
X55623Y-30178D01*
X55470Y-30114D01*
X55305Y-30114D01*
X55151Y-30177D01*
X55034Y-30295D01*
X54971Y-30448D01*
X54970Y-30613D01*
X55034Y-30767D01*
X55151Y-30884D01*
X55250Y-30925D01*
X55250Y-31696D01*
X55217Y-31728D01*
X55217Y-31728D01*
X55217Y-31728D01*
X55210Y-31735D01*
X55209Y-31736D01*
X54808Y-32138D01*
X54197Y-32138D01*
X54404Y-31931D01*
X54412Y-31923D01*
X54412Y-31923D01*
X54412Y-31923D01*
X54484Y-31850D01*
X54486Y-31849D01*
X54486Y-31849D01*
X54498Y-31831D01*
X54516Y-31804D01*
X54516Y-31804D01*
X54526Y-31751D01*
X54526Y-31751D01*
X54525Y-31745D01*
X54525Y-31745D01*
X54525Y-30925D01*
X54623Y-30884D01*
X54740Y-30767D01*
X54804Y-30614D01*
X54804Y-30448D01*
X54741Y-30295D01*
X54623Y-30178D01*
X54470Y-30114D01*
X54305Y-30114D01*
X54151Y-30177D01*
X54034Y-30295D01*
X53971Y-30448D01*
X53970Y-30613D01*
X54034Y-30767D01*
X54151Y-30884D01*
X54250Y-30925D01*
X54250Y-31696D01*
X54217Y-31728D01*
X54217Y-31728D01*
X54217Y-31728D01*
X54209Y-31736D01*
X53326Y-32619D01*
X53326Y-32342D01*
X53296Y-32270D01*
X53241Y-32215D01*
X53169Y-32185D01*
X53090Y-32185D01*
X53018Y-32215D01*
X52963Y-32270D01*
X52933Y-32342D01*
X52933Y-32420D01*
X52963Y-32493D01*
X53018Y-32548D01*
X53090Y-32578D01*
X53168Y-32578D01*
X53241Y-32548D01*
X53296Y-32493D01*
X53326Y-32421D01*
X53326Y-32342D01*
X53326Y-32619D01*
X52234Y-33712D01*
X51130Y-33712D01*
X51077Y-33722D01*
X51062Y-33732D01*
X51032Y-33752D01*
X50696Y-34088D01*
X50696Y-32063D01*
X50666Y-31991D01*
X50611Y-31935D01*
X50539Y-31905D01*
X50461Y-31905D01*
X50388Y-31935D01*
X50333Y-31990D01*
X50303Y-32063D01*
X50303Y-32141D01*
X50333Y-32213D01*
X50388Y-32268D01*
X50460Y-32298D01*
X50538Y-32299D01*
X50611Y-32269D01*
X50666Y-32213D01*
X50696Y-32141D01*
X50696Y-32063D01*
X50696Y-34088D01*
X50166Y-34618D01*
X50136Y-34663D01*
X50126Y-34716D01*
X50126Y-35675D01*
X49970Y-35831D01*
X49709Y-35831D01*
X49656Y-35841D01*
X49611Y-35871D01*
X49256Y-36226D01*
X49226Y-36271D01*
X49216Y-36324D01*
X49216Y-37261D01*
X49187Y-37290D01*
X49157Y-37362D01*
X49157Y-37440D01*
X49181Y-37500D01*
X48905Y-37500D01*
X48905Y-37465D01*
X48875Y-37392D01*
X48820Y-37337D01*
X48747Y-37307D01*
X48669Y-37307D01*
X48597Y-37337D01*
X48587Y-37347D01*
X47665Y-37347D01*
X47242Y-37347D01*
X44687Y-34792D01*
X44687Y-30335D01*
X44639Y-30218D01*
X44549Y-30129D01*
X44432Y-30080D01*
X44306Y-30080D01*
X44189Y-30128D01*
X44099Y-30218D01*
X44051Y-30335D01*
X44051Y-30461D01*
X44099Y-30578D01*
X44188Y-30668D01*
X44305Y-30716D01*
X44432Y-30716D01*
X44549Y-30668D01*
X44638Y-30579D01*
X44687Y-30462D01*
X44687Y-30335D01*
X44687Y-34792D01*
X43586Y-33691D01*
X43586Y-32878D01*
X43556Y-32806D01*
X43501Y-32750D01*
X43429Y-32720D01*
X43350Y-32720D01*
X43278Y-32750D01*
X43223Y-32805D01*
X43193Y-32878D01*
X43193Y-32956D01*
X43222Y-33028D01*
X43278Y-33083D01*
X43350Y-33113D01*
X43428Y-33113D01*
X43500Y-33084D01*
X43556Y-33028D01*
X43586Y-32956D01*
X43586Y-32878D01*
X43586Y-33691D01*
X43022Y-33128D01*
X43022Y-32704D01*
X43010Y-32644D01*
X42976Y-32593D01*
X42955Y-32572D01*
X42955Y-30712D01*
X42965Y-30702D01*
X42995Y-30629D01*
X42995Y-30551D01*
X42965Y-30479D01*
X42910Y-30423D01*
X42838Y-30393D01*
X42760Y-30393D01*
X42687Y-30423D01*
X42632Y-30479D01*
X42602Y-30551D01*
X42602Y-30629D01*
X42632Y-30701D01*
X42642Y-30711D01*
X42642Y-32444D01*
X42562Y-32364D01*
X42562Y-30712D01*
X42572Y-30702D01*
X42602Y-30629D01*
X42602Y-30551D01*
X42572Y-30479D01*
X42517Y-30423D01*
X42444Y-30393D01*
X42405Y-30393D01*
X42405Y-30386D01*
X42375Y-30313D01*
X42320Y-30258D01*
X42247Y-30228D01*
X42169Y-30228D01*
X42097Y-30258D01*
X42042Y-30313D01*
X42012Y-30385D01*
X42012Y-30393D01*
X42011Y-30393D01*
X42011Y-30386D01*
X41981Y-30313D01*
X41926Y-30258D01*
X41854Y-30228D01*
X41776Y-30228D01*
X41703Y-30258D01*
X41648Y-30313D01*
X41618Y-30385D01*
X41618Y-30464D01*
X41648Y-30536D01*
X41658Y-30546D01*
X41658Y-32377D01*
X41577Y-32297D01*
X41577Y-30546D01*
X41587Y-30536D01*
X41617Y-30464D01*
X41617Y-30386D01*
X41588Y-30313D01*
X41532Y-30258D01*
X41460Y-30228D01*
X41382Y-30228D01*
X41310Y-30258D01*
X41254Y-30313D01*
X41224Y-30385D01*
X41224Y-30464D01*
X41254Y-30536D01*
X41264Y-30546D01*
X41264Y-32362D01*
X41276Y-32422D01*
X41310Y-32472D01*
X41453Y-32616D01*
X41453Y-32756D01*
X41382Y-32756D01*
X41310Y-32785D01*
X41254Y-32841D01*
X41231Y-32896D01*
X40987Y-32651D01*
X40987Y-30546D01*
X40997Y-30536D01*
X41027Y-30464D01*
X41027Y-30386D01*
X40997Y-30313D01*
X40942Y-30258D01*
X40869Y-30228D01*
X40791Y-30228D01*
X40719Y-30258D01*
X40664Y-30313D01*
X40634Y-30385D01*
X40634Y-30464D01*
X40663Y-30536D01*
X40674Y-30546D01*
X40674Y-32590D01*
X40593Y-32509D01*
X40593Y-30546D01*
X40603Y-30536D01*
X40633Y-30464D01*
X40633Y-30386D01*
X40603Y-30313D01*
X40548Y-30258D01*
X40476Y-30228D01*
X40398Y-30228D01*
X40325Y-30258D01*
X40270Y-30313D01*
X40240Y-30385D01*
X40240Y-30393D01*
X40239Y-30393D01*
X40239Y-30386D01*
X40210Y-30313D01*
X40154Y-30258D01*
X40082Y-30228D01*
X40004Y-30228D01*
X39932Y-30258D01*
X39876Y-30313D01*
X39846Y-30385D01*
X39846Y-30393D01*
X39807Y-30393D01*
X39735Y-30423D01*
X39679Y-30479D01*
X39649Y-30551D01*
X39649Y-30629D01*
X39679Y-30701D01*
X39689Y-30711D01*
X39689Y-32614D01*
X39609Y-32533D01*
X39609Y-30712D01*
X39619Y-30702D01*
X39649Y-30629D01*
X39649Y-30551D01*
X39619Y-30479D01*
X39564Y-30423D01*
X39492Y-30393D01*
X39413Y-30393D01*
X39341Y-30423D01*
X39286Y-30479D01*
X39256Y-30551D01*
X39256Y-30629D01*
X39285Y-30701D01*
X39296Y-30711D01*
X39296Y-32464D01*
X39215Y-32383D01*
X39215Y-30712D01*
X39225Y-30702D01*
X39255Y-30629D01*
X39255Y-30551D01*
X39225Y-30479D01*
X39170Y-30423D01*
X39098Y-30393D01*
X39058Y-30393D01*
X39058Y-30386D01*
X39028Y-30313D01*
X38973Y-30258D01*
X38901Y-30228D01*
X38823Y-30228D01*
X38750Y-30258D01*
X38695Y-30313D01*
X38665Y-30385D01*
X38665Y-30464D01*
X38695Y-30536D01*
X38705Y-30546D01*
X38705Y-32366D01*
X38428Y-32088D01*
X38428Y-30712D01*
X38438Y-30702D01*
X38468Y-30629D01*
X38468Y-30551D01*
X38438Y-30479D01*
X38383Y-30423D01*
X38310Y-30393D01*
X38271Y-30393D01*
X38271Y-30386D01*
X38241Y-30313D01*
X38186Y-30258D01*
X38114Y-30228D01*
X38035Y-30228D01*
X37963Y-30258D01*
X37908Y-30313D01*
X37878Y-30385D01*
X37878Y-30393D01*
X37839Y-30393D01*
X37766Y-30423D01*
X37711Y-30479D01*
X37681Y-30551D01*
X37681Y-30629D01*
X37711Y-30701D01*
X37721Y-30711D01*
X37721Y-32311D01*
X37733Y-32370D01*
X37767Y-32421D01*
X49633Y-44287D01*
X49633Y-44287D01*
X49684Y-44321D01*
X49744Y-44333D01*
X49744Y-44333D01*
X54139Y-44333D01*
X55487Y-45681D01*
X55538Y-45715D01*
X55538Y-45715D01*
X55598Y-45727D01*
X59685Y-45727D01*
X59744Y-45715D01*
X59744Y-45715D01*
X59795Y-45681D01*
X60674Y-44802D01*
X60688Y-44802D01*
X60760Y-44773D01*
X60816Y-44717D01*
X60846Y-44645D01*
X60846Y-44567D01*
X60846Y-45118D01*
X60816Y-45046D01*
X60761Y-44990D01*
X60688Y-44960D01*
X60610Y-44960D01*
X60538Y-44990D01*
X60483Y-45045D01*
X60453Y-45118D01*
X60452Y-45196D01*
X60482Y-45268D01*
X60538Y-45324D01*
X60610Y-45354D01*
X60688Y-45354D01*
X60760Y-45324D01*
X60816Y-45268D01*
X60846Y-45196D01*
X60846Y-45118D01*
X60846Y-50570D01*
X60461Y-50570D01*
X60461Y-49385D01*
X60398Y-49232D01*
X60281Y-49115D01*
X60128Y-49051D01*
X59962Y-49051D01*
X59809Y-49114D01*
X59692Y-49232D01*
X59628Y-49385D01*
X59628Y-49550D01*
X59691Y-49704D01*
X59808Y-49821D01*
X59961Y-49884D01*
X60127Y-49885D01*
X60280Y-49821D01*
X60398Y-49704D01*
X60461Y-49551D01*
X60461Y-49385D01*
X60461Y-50570D01*
X59461Y-50570D01*
X59461Y-49723D01*
X59461Y-49126D01*
X59443Y-49083D01*
X59410Y-49049D01*
X59367Y-49031D01*
X59320Y-49031D01*
X59173Y-49031D01*
X59173Y-46968D01*
X59143Y-46896D01*
X59087Y-46841D01*
X59015Y-46811D01*
X58937Y-46811D01*
X58865Y-46841D01*
X58809Y-46896D01*
X58779Y-46968D01*
X58779Y-47046D01*
X58809Y-47119D01*
X58864Y-47174D01*
X58937Y-47204D01*
X59015Y-47204D01*
X59087Y-47174D01*
X59142Y-47119D01*
X59172Y-47047D01*
X59173Y-46968D01*
X59173Y-49031D01*
X58723Y-49031D01*
X58679Y-49049D01*
X58646Y-49082D01*
X58628Y-49126D01*
X58628Y-49173D01*
X58628Y-49770D01*
X58646Y-49813D01*
X58679Y-49846D01*
X58723Y-49864D01*
X58770Y-49865D01*
X59367Y-49865D01*
X59410Y-49847D01*
X59443Y-49813D01*
X59461Y-49770D01*
X59461Y-49723D01*
X59461Y-50570D01*
X57832Y-50570D01*
X57784Y-50551D01*
X57667Y-50550D01*
X57619Y-50570D01*
X57398Y-50570D01*
X57350Y-50551D01*
X57233Y-50550D01*
X57185Y-50570D01*
X56983Y-50570D01*
X56983Y-50036D01*
X56919Y-49882D01*
X56802Y-49765D01*
X56649Y-49702D01*
X56483Y-49701D01*
X56330Y-49765D01*
X56213Y-49882D01*
X56149Y-50035D01*
X56149Y-50201D01*
X56213Y-50354D01*
X56330Y-50471D01*
X56483Y-50535D01*
X56648Y-50535D01*
X56802Y-50471D01*
X56919Y-50354D01*
X56982Y-50201D01*
X56983Y-50036D01*
X56983Y-50570D01*
X56965Y-50570D01*
X56917Y-50551D01*
X56800Y-50550D01*
X56752Y-50570D01*
X56532Y-50570D01*
X56484Y-50551D01*
X56367Y-50550D01*
X56319Y-50570D01*
X53441Y-50570D01*
X53441Y-48970D01*
X53409Y-48890D01*
X53363Y-48845D01*
X53409Y-48800D01*
X53441Y-48721D01*
X53441Y-48635D01*
X53409Y-48556D01*
X53368Y-48515D01*
X53409Y-48475D01*
X53441Y-48396D01*
X53441Y-48310D01*
X53409Y-48231D01*
X53354Y-48176D01*
X53389Y-48140D01*
X53422Y-48061D01*
X53422Y-47975D01*
X53389Y-47896D01*
X53328Y-47835D01*
X53318Y-47831D01*
X53328Y-47827D01*
X53389Y-47766D01*
X53422Y-47687D01*
X53422Y-47601D01*
X53389Y-47522D01*
X53359Y-47492D01*
X53399Y-47451D01*
X53432Y-47372D01*
X53432Y-47286D01*
X53399Y-47207D01*
X53338Y-47146D01*
X53259Y-47114D01*
X53173Y-47114D01*
X53094Y-47146D01*
X53049Y-47192D01*
X53004Y-47146D01*
X52979Y-47136D01*
X52979Y-45172D01*
X52946Y-45093D01*
X52910Y-45057D01*
X52945Y-45022D01*
X52978Y-44943D01*
X52978Y-44857D01*
X52946Y-44778D01*
X52885Y-44717D01*
X52806Y-44684D01*
X52720Y-44684D01*
X52641Y-44717D01*
X52580Y-44778D01*
X52547Y-44857D01*
X52547Y-44943D01*
X52580Y-45022D01*
X52615Y-45058D01*
X52581Y-45093D01*
X52548Y-45172D01*
X52548Y-45258D01*
X52580Y-45337D01*
X52641Y-45398D01*
X52720Y-45430D01*
X52806Y-45430D01*
X52885Y-45398D01*
X52946Y-45337D01*
X52979Y-45258D01*
X52979Y-45172D01*
X52979Y-47136D01*
X52924Y-47114D01*
X52839Y-47114D01*
X52759Y-47146D01*
X52719Y-47187D01*
X52679Y-47146D01*
X52600Y-47114D01*
X52514Y-47114D01*
X52435Y-47146D01*
X52394Y-47187D01*
X52354Y-47146D01*
X52275Y-47114D01*
X52270Y-47114D01*
X52270Y-45172D01*
X52237Y-45093D01*
X52201Y-45057D01*
X52237Y-45022D01*
X52269Y-44943D01*
X52270Y-44857D01*
X52237Y-44778D01*
X52176Y-44717D01*
X52097Y-44684D01*
X52011Y-44684D01*
X51932Y-44717D01*
X51871Y-44778D01*
X51838Y-44857D01*
X51838Y-44943D01*
X51871Y-45022D01*
X51907Y-45058D01*
X51872Y-45093D01*
X51839Y-45172D01*
X51839Y-45258D01*
X51871Y-45337D01*
X51932Y-45398D01*
X52011Y-45431D01*
X52097Y-45431D01*
X52176Y-45398D01*
X52237Y-45337D01*
X52270Y-45258D01*
X52270Y-45172D01*
X52270Y-47114D01*
X52189Y-47114D01*
X52110Y-47146D01*
X52079Y-47177D01*
X52049Y-47146D01*
X51970Y-47114D01*
X51884Y-47114D01*
X51805Y-47146D01*
X51774Y-47177D01*
X51744Y-47146D01*
X51665Y-47114D01*
X51579Y-47114D01*
X51500Y-47146D01*
X51474Y-47172D01*
X51449Y-47146D01*
X51369Y-47114D01*
X51284Y-47114D01*
X51204Y-47146D01*
X51144Y-47207D01*
X51111Y-47286D01*
X51111Y-47372D01*
X51143Y-47451D01*
X51179Y-47487D01*
X51144Y-47522D01*
X51111Y-47601D01*
X51111Y-47687D01*
X51143Y-47766D01*
X51204Y-47827D01*
X51214Y-47831D01*
X51204Y-47835D01*
X51144Y-47896D01*
X51111Y-47975D01*
X51111Y-48061D01*
X51143Y-48140D01*
X51189Y-48186D01*
X51144Y-48231D01*
X51111Y-48310D01*
X51111Y-48395D01*
X51143Y-48475D01*
X51179Y-48510D01*
X51144Y-48545D01*
X51111Y-48625D01*
X51111Y-48710D01*
X51143Y-48790D01*
X51189Y-48835D01*
X51144Y-48880D01*
X51111Y-48959D01*
X51111Y-49045D01*
X51143Y-49124D01*
X51204Y-49185D01*
X51283Y-49218D01*
X51369Y-49218D01*
X51448Y-49185D01*
X51474Y-49160D01*
X51509Y-49195D01*
X51588Y-49228D01*
X51674Y-49228D01*
X51753Y-49195D01*
X51779Y-49170D01*
X51804Y-49195D01*
X51884Y-49228D01*
X51969Y-49228D01*
X52049Y-49195D01*
X52084Y-49160D01*
X52119Y-49195D01*
X52199Y-49228D01*
X52284Y-49228D01*
X52364Y-49195D01*
X52404Y-49155D01*
X52444Y-49195D01*
X52523Y-49228D01*
X52609Y-49228D01*
X52688Y-49195D01*
X52729Y-49155D01*
X52769Y-49195D01*
X52848Y-49228D01*
X52934Y-49228D01*
X53013Y-49195D01*
X53059Y-49150D01*
X53104Y-49195D01*
X53183Y-49228D01*
X53269Y-49228D01*
X53348Y-49195D01*
X53409Y-49135D01*
X53441Y-49055D01*
X53441Y-48970D01*
X53441Y-50570D01*
X46771Y-50570D01*
X46771Y-48937D01*
X46741Y-48865D01*
X46686Y-48809D01*
X46614Y-48779D01*
X46535Y-48779D01*
X46463Y-48809D01*
X46417Y-48855D01*
X46371Y-48809D01*
X46299Y-48779D01*
X46220Y-48779D01*
X46148Y-48809D01*
X46102Y-48855D01*
X46056Y-48809D01*
X45984Y-48779D01*
X45905Y-48779D01*
X45833Y-48809D01*
X45787Y-48855D01*
X45741Y-48809D01*
X45669Y-48779D01*
X45590Y-48779D01*
X45518Y-48809D01*
X45472Y-48855D01*
X45426Y-48809D01*
X45354Y-48779D01*
X45276Y-48779D01*
X45203Y-48809D01*
X45157Y-48855D01*
X45111Y-48809D01*
X45039Y-48779D01*
X44961Y-48779D01*
X44888Y-48809D01*
X44833Y-48864D01*
X44803Y-48937D01*
X44803Y-49015D01*
X44833Y-49087D01*
X44879Y-49133D01*
X44833Y-49179D01*
X44803Y-49252D01*
X44803Y-49330D01*
X44833Y-49402D01*
X44879Y-49448D01*
X44833Y-49494D01*
X44803Y-49567D01*
X44803Y-49645D01*
X44833Y-49717D01*
X44888Y-49772D01*
X44960Y-49802D01*
X45038Y-49802D01*
X45111Y-49773D01*
X45157Y-49726D01*
X45203Y-49772D01*
X45275Y-49802D01*
X45353Y-49802D01*
X45426Y-49773D01*
X45472Y-49726D01*
X45518Y-49772D01*
X45590Y-49802D01*
X45668Y-49802D01*
X45741Y-49773D01*
X45796Y-49717D01*
X45826Y-49645D01*
X45826Y-49567D01*
X45796Y-49495D01*
X45750Y-49448D01*
X45796Y-49402D01*
X45826Y-49330D01*
X45826Y-49252D01*
X45796Y-49180D01*
X45750Y-49133D01*
X45787Y-49096D01*
X45833Y-49142D01*
X45905Y-49172D01*
X45983Y-49173D01*
X46056Y-49143D01*
X46102Y-49096D01*
X46148Y-49142D01*
X46220Y-49172D01*
X46298Y-49173D01*
X46371Y-49143D01*
X46417Y-49096D01*
X46463Y-49142D01*
X46535Y-49172D01*
X46613Y-49173D01*
X46686Y-49143D01*
X46741Y-49087D01*
X46771Y-49015D01*
X46771Y-48937D01*
X46771Y-50570D01*
X44687Y-50570D01*
X44687Y-48135D01*
X44639Y-48018D01*
X44549Y-47928D01*
X44432Y-47880D01*
X44306Y-47880D01*
X44189Y-47928D01*
X44099Y-48017D01*
X44051Y-48134D01*
X44051Y-48261D01*
X44099Y-48378D01*
X44188Y-48467D01*
X44305Y-48516D01*
X44432Y-48516D01*
X44549Y-48468D01*
X44638Y-48378D01*
X44687Y-48261D01*
X44687Y-48135D01*
X44687Y-50570D01*
X42929Y-50570D01*
X42882Y-50551D01*
X42764Y-50550D01*
X42716Y-50570D01*
X42495Y-50570D01*
X42448Y-50551D01*
X42330Y-50550D01*
X42282Y-50570D01*
X42064Y-50570D01*
X42017Y-50551D01*
X41899Y-50550D01*
X41851Y-50570D01*
X41631Y-50570D01*
X41584Y-50551D01*
X41466Y-50550D01*
X41418Y-50570D01*
X37413Y-50570D01*
X37413Y-48135D01*
X37413Y-30335D01*
X37365Y-30218D01*
X37275Y-30129D01*
X37158Y-30080D01*
X37032Y-30080D01*
X36915Y-30128D01*
X36825Y-30218D01*
X36777Y-30335D01*
X36777Y-30461D01*
X36825Y-30578D01*
X36914Y-30668D01*
X37031Y-30716D01*
X37158Y-30716D01*
X37275Y-30668D01*
X37364Y-30579D01*
X37413Y-30462D01*
X37413Y-30335D01*
X37413Y-48135D01*
X37365Y-48018D01*
X37275Y-47928D01*
X37158Y-47880D01*
X37032Y-47880D01*
X36915Y-47928D01*
X36825Y-48017D01*
X36777Y-48134D01*
X36777Y-48261D01*
X36825Y-48378D01*
X36914Y-48467D01*
X37031Y-48516D01*
X37158Y-48516D01*
X37275Y-48468D01*
X37364Y-48378D01*
X37413Y-48261D01*
X37413Y-48135D01*
X37413Y-50570D01*
X32503Y-50570D01*
X32503Y-44450D01*
X32527Y-44393D01*
X32527Y-44276D01*
X32503Y-44219D01*
X32503Y-44017D01*
X32527Y-43960D01*
X32527Y-43843D01*
X32503Y-43786D01*
X32503Y-43584D01*
X32527Y-43527D01*
X32527Y-43410D01*
X32503Y-43353D01*
X32503Y-35611D01*
X32527Y-35554D01*
X32527Y-35437D01*
X32503Y-35380D01*
X32503Y-35178D01*
X32527Y-35121D01*
X32527Y-35004D01*
X32503Y-34947D01*
X32503Y-34745D01*
X32527Y-34688D01*
X32527Y-34571D01*
X32503Y-34514D01*
X32503Y-29625D01*
X41419Y-29625D01*
X41466Y-29645D01*
X41583Y-29645D01*
X41631Y-29625D01*
X41852Y-29625D01*
X41899Y-29645D01*
X42016Y-29645D01*
X42064Y-29625D01*
X42283Y-29625D01*
X42330Y-29645D01*
X42447Y-29645D01*
X42494Y-29625D01*
X42717Y-29625D01*
X42764Y-29645D01*
X42881Y-29645D01*
X42928Y-29625D01*
X56319Y-29625D01*
X56366Y-29645D01*
X56483Y-29645D01*
X56530Y-29625D01*
X56752Y-29625D01*
X56799Y-29645D01*
X56916Y-29645D01*
X56963Y-29625D01*
X57185Y-29625D01*
X57232Y-29645D01*
X57349Y-29645D01*
X57396Y-29625D01*
X57619Y-29625D01*
X57666Y-29645D01*
X57783Y-29645D01*
X57830Y-29625D01*
X65984Y-29625D01*
X65984Y-30708D01*
X65984Y-30708D01*
X65984Y-39483D01*
X65972Y-39512D01*
X65972Y-39629D01*
X65984Y-39657D01*
X65984Y-39916D01*
X65972Y-39945D01*
X65972Y-40062D01*
X65984Y-40090D01*
X65984Y-40349D01*
X65972Y-40378D01*
X65972Y-40495D01*
X65984Y-40523D01*
X65984Y-40782D01*
X65972Y-40811D01*
X65972Y-40928D01*
X65984Y-40956D01*
X65984Y-49527D01*
M02*
