G04 (created by PCBNEW (2013-07-07 BZR 4022)-stable) date 2014/8/22 下午 04:39:36*
%MOIN*%
G04 Gerber Fmt 3.4, Leading zero omitted, Abs format*
%FSLAX34Y34*%
G01*
G70*
G90*
G04 APERTURE LIST*
%ADD10C,0.00590551*%
%ADD11C,0.0077*%
%ADD12C,0.04*%
%ADD13C,0.0354*%
%ADD14C,0.0157*%
%ADD15C,0.0195*%
%ADD16C,0.16*%
%ADD17R,0.0597X0.0597*%
%ADD18C,0.0597*%
%ADD19C,0.0138*%
%ADD20C,0.0122*%
%ADD21C,0.00787402*%
G04 APERTURE END LIST*
G54D10*
G54D11*
X69000Y-26600D02*
X29500Y-26600D01*
X56384Y-29350D02*
X42862Y-29350D01*
X42862Y-50846D02*
X56386Y-50846D01*
X31444Y-51633D02*
X41484Y-51633D01*
X42862Y-50846D02*
X42862Y-51633D01*
X41484Y-50846D02*
X41484Y-51633D01*
X31444Y-28562D02*
X41484Y-28562D01*
X42862Y-28562D02*
X42862Y-29350D01*
X41484Y-28562D02*
X41484Y-29350D01*
X29500Y-53600D02*
X29500Y-26600D01*
X69000Y-53600D02*
X29500Y-53600D01*
X69000Y-26598D02*
X69000Y-53600D01*
X66228Y-29350D02*
X66228Y-39492D01*
X57764Y-29350D02*
X66228Y-29350D01*
X57764Y-28562D02*
X57764Y-29350D01*
X67016Y-28562D02*
X57764Y-28562D01*
X67016Y-39492D02*
X67016Y-28562D01*
X66228Y-39492D02*
X67016Y-39492D01*
X57795Y-51633D02*
X57795Y-50846D01*
X67016Y-51633D02*
X57795Y-51633D01*
X67016Y-40948D02*
X67016Y-51633D01*
X66228Y-40948D02*
X67016Y-40948D01*
X66228Y-50846D02*
X66228Y-40948D01*
X57795Y-50846D02*
X66228Y-50846D01*
X31444Y-51633D02*
X31444Y-44413D01*
X56386Y-51633D02*
X42862Y-51633D01*
X56386Y-51633D02*
X56386Y-50846D01*
X32232Y-50846D02*
X41484Y-50846D01*
X32232Y-44413D02*
X32232Y-50846D01*
X31444Y-44413D02*
X32232Y-44413D01*
X31444Y-43390D02*
X31444Y-35555D01*
X32232Y-43390D02*
X31444Y-43390D01*
X32232Y-35555D02*
X32232Y-43390D01*
X31444Y-35555D02*
X32232Y-35555D01*
X32232Y-29350D02*
X32232Y-34570D01*
X31444Y-34570D02*
X32232Y-34570D01*
X31444Y-28562D02*
X31444Y-34570D01*
X42862Y-28562D02*
X56384Y-28562D01*
X56384Y-28562D02*
X56384Y-29350D01*
X32232Y-29350D02*
X41484Y-29350D01*
G54D12*
X37095Y-30398D03*
X44369Y-30398D03*
G54D13*
X57292Y-50846D03*
G54D14*
X63956Y-46102D03*
X63956Y-45708D03*
X63937Y-43543D03*
X48464Y-50157D03*
X50047Y-45244D03*
X46535Y-43661D03*
X46850Y-43976D03*
X37874Y-48897D03*
X38188Y-49212D03*
X37559Y-49212D03*
X36023Y-49212D03*
X35393Y-49212D03*
X35708Y-48897D03*
X37204Y-47204D03*
X36574Y-47204D03*
X36889Y-46889D03*
X34645Y-46889D03*
X34330Y-47204D03*
X34960Y-47204D03*
X33858Y-45669D03*
X33228Y-45669D03*
X33543Y-45354D03*
X35708Y-45354D03*
X35393Y-45669D03*
X36023Y-45669D03*
X39251Y-43661D03*
X38937Y-43976D03*
X39566Y-43976D03*
X37204Y-43976D03*
X36574Y-43976D03*
X36889Y-43661D03*
X34645Y-43661D03*
X34330Y-43976D03*
X34960Y-43976D03*
X33858Y-42362D03*
X33228Y-42362D03*
X33543Y-42047D03*
X35708Y-42047D03*
X35314Y-42362D03*
X36023Y-42362D03*
X38188Y-42362D03*
X37559Y-42362D03*
X37874Y-42047D03*
X40708Y-42047D03*
X40393Y-42362D03*
X41023Y-42362D03*
X39566Y-40787D03*
X38937Y-40787D03*
X39251Y-40472D03*
X42204Y-40787D03*
X41574Y-40787D03*
X41889Y-40472D03*
X36889Y-40472D03*
X36574Y-40787D03*
X37204Y-40787D03*
X34960Y-40787D03*
X34330Y-40787D03*
X34645Y-40472D03*
X33464Y-38818D03*
X33149Y-39133D03*
X33779Y-39133D03*
X36023Y-39133D03*
X35393Y-39133D03*
X35708Y-38818D03*
X40708Y-38818D03*
X40393Y-39133D03*
X41023Y-39133D03*
X38070Y-38818D03*
X37755Y-39133D03*
X38385Y-39133D03*
X37283Y-37519D03*
X36653Y-37519D03*
X36968Y-37204D03*
X39921Y-37519D03*
X39291Y-37519D03*
X39606Y-37204D03*
X34606Y-37204D03*
X34291Y-37519D03*
X34921Y-37519D03*
X33779Y-35944D03*
X33149Y-35944D03*
X33464Y-35629D03*
X38464Y-35629D03*
X38149Y-35944D03*
X38779Y-35944D03*
X35826Y-35629D03*
X35511Y-35944D03*
X36141Y-35944D03*
X35944Y-30629D03*
X35314Y-30629D03*
X35629Y-30314D03*
X36102Y-32598D03*
X35787Y-32913D03*
X36417Y-32913D03*
X33464Y-32598D03*
X33149Y-32913D03*
X33779Y-32913D03*
X34960Y-34606D03*
X34330Y-34606D03*
X34645Y-34291D03*
X37598Y-34606D03*
X36968Y-34606D03*
X37283Y-34291D03*
X50157Y-30275D03*
X49842Y-29960D03*
X45944Y-29960D03*
X48858Y-31614D03*
X47244Y-29960D03*
X46929Y-31614D03*
X48228Y-31614D03*
X47913Y-31299D03*
X46220Y-43976D03*
X48543Y-47204D03*
X49173Y-47204D03*
X48858Y-46889D03*
X47519Y-48110D03*
X48149Y-48110D03*
X47834Y-47795D03*
X44645Y-50472D03*
X45157Y-50472D03*
X44133Y-50472D03*
X42952Y-45669D03*
X38188Y-45669D03*
X44212Y-43661D03*
X37559Y-45669D03*
X43897Y-43976D03*
X41574Y-43976D03*
X37874Y-45354D03*
X42204Y-43976D03*
X45196Y-45669D03*
X43267Y-45354D03*
X45511Y-45354D03*
X38937Y-47204D03*
X41023Y-45669D03*
X41889Y-43661D03*
X43582Y-45669D03*
X44527Y-43976D03*
X41574Y-47204D03*
X39566Y-47204D03*
X47244Y-32637D03*
X46929Y-32952D03*
X54685Y-34409D03*
X54251Y-34409D03*
X52165Y-34291D03*
X50846Y-30291D03*
X51460Y-30870D03*
X50590Y-48464D03*
X50590Y-48976D03*
X50590Y-47913D03*
X50590Y-47401D03*
X50590Y-46850D03*
X43070Y-42047D03*
X51212Y-45275D03*
X51259Y-43503D03*
X51196Y-45751D03*
X40708Y-45354D03*
X43385Y-42362D03*
X50661Y-40838D03*
X46492Y-50157D03*
X50570Y-44838D03*
X50031Y-45657D03*
X45437Y-50157D03*
X44401Y-50157D03*
X47485Y-50157D03*
X55275Y-45984D03*
X52913Y-45984D03*
X53543Y-45984D03*
X54173Y-46614D03*
X53543Y-46614D03*
X52913Y-46614D03*
X55472Y-48346D03*
X57086Y-46771D03*
X61889Y-47047D03*
X62519Y-47047D03*
X60433Y-46771D03*
X60078Y-46771D03*
X62362Y-50157D03*
X61062Y-50157D03*
X59763Y-50157D03*
X58267Y-48661D03*
X58267Y-48267D03*
X58267Y-49212D03*
X58267Y-49606D03*
X59055Y-50157D03*
X58740Y-50472D03*
X59370Y-50472D03*
X60748Y-50472D03*
X60118Y-50472D03*
X60433Y-50157D03*
X61692Y-50157D03*
X61377Y-50472D03*
X62007Y-50472D03*
X63346Y-50472D03*
X62716Y-50472D03*
X63031Y-50157D03*
X61062Y-48503D03*
X60748Y-48818D03*
X61377Y-48818D03*
X61062Y-47795D03*
X60748Y-48110D03*
X61377Y-48110D03*
X59291Y-46299D03*
X60078Y-46299D03*
X61456Y-46299D03*
X63425Y-45708D03*
X63425Y-46102D03*
X63543Y-47559D03*
X62913Y-47559D03*
X63228Y-47244D03*
X64842Y-47244D03*
X64527Y-47559D03*
X65157Y-47559D03*
X58740Y-31850D03*
X59055Y-31535D03*
X58031Y-31535D03*
X57716Y-31850D03*
X56771Y-31850D03*
X57086Y-31535D03*
X56062Y-31535D03*
X55748Y-31850D03*
X54763Y-31850D03*
X55078Y-31535D03*
X52755Y-30275D03*
X52125Y-30275D03*
X52440Y-29960D03*
X51141Y-29960D03*
X51456Y-30275D03*
X65196Y-32283D03*
X64881Y-32598D03*
X65511Y-32598D03*
X64055Y-32598D03*
X63425Y-32598D03*
X63740Y-32283D03*
X60944Y-31417D03*
X60629Y-31732D03*
X61259Y-31732D03*
X61732Y-32283D03*
X61417Y-32598D03*
X62047Y-32598D03*
X60314Y-32598D03*
X59685Y-32598D03*
X60000Y-32283D03*
X56338Y-32992D03*
X56023Y-33307D03*
X56653Y-33307D03*
X54881Y-33307D03*
X54251Y-33307D03*
X54566Y-32992D03*
X63307Y-33779D03*
X62874Y-33779D03*
X62440Y-33779D03*
X61968Y-33779D03*
X59724Y-33779D03*
X60196Y-33779D03*
X60629Y-33779D03*
X61062Y-33779D03*
X56456Y-33779D03*
X57952Y-33779D03*
X56023Y-33779D03*
X55590Y-33779D03*
X55118Y-33779D03*
X53779Y-33779D03*
X52165Y-33661D03*
X54251Y-33779D03*
G54D15*
X53226Y-49012D03*
X53226Y-48353D03*
X53206Y-48018D03*
X53216Y-47329D03*
X53206Y-47644D03*
X53226Y-48678D03*
G54D14*
X58740Y-41279D03*
X65433Y-46377D03*
X64251Y-46377D03*
G54D15*
X52891Y-48678D03*
X52872Y-47644D03*
X52881Y-47329D03*
X52872Y-48018D03*
X52891Y-48353D03*
X52891Y-49012D03*
X51326Y-49002D03*
X52566Y-49012D03*
X52242Y-49012D03*
X51631Y-49012D03*
X51927Y-49012D03*
X52251Y-48353D03*
X51936Y-48353D03*
X51936Y-48018D03*
X52251Y-48018D03*
X51622Y-48018D03*
X51326Y-48018D03*
X51326Y-48353D03*
X51622Y-48353D03*
X51927Y-48678D03*
X51631Y-48678D03*
X52566Y-48353D03*
X52547Y-48018D03*
X52557Y-47329D03*
X52547Y-47644D03*
X52242Y-48678D03*
X52566Y-48678D03*
X52261Y-47644D03*
X51946Y-47644D03*
X51927Y-47329D03*
X52232Y-47329D03*
X51622Y-47329D03*
X51326Y-47329D03*
X51326Y-47644D03*
X51631Y-47644D03*
X51326Y-48668D03*
G54D14*
X63523Y-29940D03*
X64842Y-30866D03*
X56574Y-29940D03*
X60118Y-29940D03*
X57440Y-29940D03*
X59173Y-29940D03*
X62716Y-29940D03*
X61850Y-29940D03*
X58307Y-29940D03*
X54803Y-29940D03*
X55669Y-29940D03*
X53937Y-29940D03*
X64488Y-49370D03*
X64881Y-49370D03*
X65039Y-46377D03*
X65354Y-49370D03*
X62992Y-46614D03*
X63385Y-46614D03*
X62519Y-46614D03*
X62125Y-46614D03*
X65826Y-47952D03*
X63937Y-43858D03*
X63543Y-43543D03*
X63543Y-43858D03*
X63543Y-34409D03*
X63543Y-34094D03*
X63937Y-34094D03*
X63937Y-34409D03*
X63937Y-36535D03*
X63937Y-36220D03*
X63543Y-36220D03*
X63543Y-36535D03*
X64170Y-33706D03*
X64330Y-36850D03*
X64724Y-36850D03*
X64574Y-33716D03*
X65424Y-33714D03*
X65590Y-36850D03*
X65196Y-36850D03*
X65038Y-33716D03*
X65110Y-43267D03*
X65511Y-43263D03*
X64649Y-43263D03*
X64255Y-43259D03*
X65826Y-47559D03*
X65826Y-46771D03*
X65826Y-46377D03*
X65826Y-47165D03*
X65826Y-48346D03*
X65826Y-48740D03*
X54409Y-48661D03*
X54803Y-48661D03*
X55669Y-48661D03*
X55275Y-48661D03*
X53937Y-48661D03*
X37401Y-50452D03*
X36346Y-50452D03*
X32618Y-48704D03*
X35791Y-50452D03*
X54173Y-48346D03*
X54566Y-48346D03*
X53779Y-47795D03*
X55039Y-48346D03*
X53779Y-47244D03*
X54251Y-47795D03*
X46299Y-31614D03*
X41023Y-49212D03*
X40393Y-45669D03*
X47598Y-31614D03*
X45826Y-45669D03*
X35098Y-50452D03*
X40393Y-49212D03*
X32618Y-48232D03*
X42755Y-42362D03*
X32618Y-47759D03*
X32618Y-47149D03*
X39251Y-46889D03*
X36842Y-50452D03*
X48543Y-29960D03*
X65826Y-33700D03*
X65826Y-38425D03*
X65826Y-41181D03*
X65826Y-40787D03*
X65826Y-38031D03*
X65826Y-39763D03*
X54685Y-33779D03*
X56889Y-33779D03*
X65826Y-40157D03*
X65826Y-39291D03*
X65826Y-42047D03*
X65826Y-41653D03*
X65826Y-38897D03*
X65905Y-36850D03*
X63622Y-40393D03*
X63543Y-38267D03*
X63543Y-38661D03*
X63622Y-40787D03*
X63622Y-41653D03*
X63543Y-39527D03*
X63543Y-39133D03*
X63622Y-41259D03*
X63622Y-42992D03*
X63149Y-42204D03*
X63070Y-39842D03*
X63149Y-42598D03*
X63622Y-42519D03*
X65893Y-43259D03*
X63543Y-40000D03*
X63622Y-42125D03*
X63070Y-40236D03*
X63543Y-37401D03*
X63070Y-37480D03*
X63070Y-37874D03*
X63543Y-37795D03*
X63543Y-36929D03*
X61496Y-33779D03*
X59212Y-33779D03*
X63937Y-36850D03*
X61889Y-46299D03*
X58346Y-47795D03*
X58267Y-50472D03*
X64645Y-46377D03*
X58267Y-50078D03*
G54D15*
X56102Y-43975D03*
G54D14*
X60086Y-35500D03*
X59724Y-35496D03*
X59724Y-35158D03*
X60094Y-35153D03*
G54D13*
X32232Y-34630D03*
X32232Y-35496D03*
X32232Y-44335D03*
X32232Y-43902D03*
X32232Y-43469D03*
X66268Y-39571D03*
X66268Y-40004D03*
X66268Y-40437D03*
X66268Y-40870D03*
G54D14*
X58299Y-40354D03*
X58299Y-39921D03*
X58082Y-40138D03*
X58515Y-40138D03*
X61192Y-44708D03*
X61389Y-44901D03*
X58732Y-40354D03*
X57866Y-40354D03*
X57433Y-40354D03*
X57000Y-40354D03*
X56783Y-40571D03*
X57216Y-40571D03*
X57653Y-40571D03*
X58082Y-40571D03*
X58515Y-40571D03*
X58515Y-41004D03*
X58082Y-41004D03*
X57653Y-41004D03*
X57216Y-41004D03*
X56783Y-41004D03*
X57000Y-40787D03*
X57433Y-40787D03*
X58299Y-40787D03*
X57866Y-40787D03*
X58732Y-40787D03*
X58732Y-39921D03*
X57866Y-39921D03*
X57433Y-39921D03*
X57000Y-39921D03*
X56783Y-40138D03*
X57216Y-40138D03*
X57653Y-40138D03*
X58515Y-39705D03*
X58082Y-39705D03*
X57653Y-39705D03*
X57216Y-39705D03*
X56783Y-39705D03*
X57000Y-39488D03*
X57433Y-39488D03*
X58299Y-39488D03*
X57866Y-39488D03*
X58732Y-39488D03*
X58732Y-39055D03*
X57866Y-39055D03*
X58299Y-39055D03*
X57433Y-39055D03*
X57000Y-39055D03*
X56783Y-39272D03*
X57216Y-39272D03*
X57653Y-39272D03*
X58082Y-39272D03*
X58515Y-39272D03*
G54D15*
X52054Y-44900D03*
X52763Y-45215D03*
X52763Y-44900D03*
G54D16*
X33482Y-30598D03*
X64982Y-30598D03*
X64982Y-49598D03*
G54D15*
X56378Y-43975D03*
X52054Y-45215D03*
G54D13*
X56426Y-50846D03*
X56859Y-50846D03*
X57726Y-50846D03*
X56425Y-29350D03*
X56858Y-29350D03*
X57291Y-29350D03*
X57725Y-29350D03*
G54D12*
X37095Y-48198D03*
X44369Y-48198D03*
G54D16*
X33482Y-49598D03*
G54D14*
X32618Y-46708D03*
X32618Y-46177D03*
X32618Y-45681D03*
X32618Y-44925D03*
X32618Y-44460D03*
X32618Y-43799D03*
X32618Y-43299D03*
X32618Y-42771D03*
X32618Y-42240D03*
X32618Y-41629D03*
X32618Y-41090D03*
X32618Y-40551D03*
X32618Y-40059D03*
X32618Y-39598D03*
X32618Y-39078D03*
X32618Y-38578D03*
X32618Y-38039D03*
X32618Y-37480D03*
X32618Y-36968D03*
X32618Y-36421D03*
X32618Y-35811D03*
X32618Y-35208D03*
X32618Y-34649D03*
X32618Y-34098D03*
X32618Y-33622D03*
X32618Y-33066D03*
X32618Y-32456D03*
X32618Y-31842D03*
X40708Y-48897D03*
X42559Y-49212D03*
X42874Y-48897D03*
X37476Y-30956D03*
X34484Y-50452D03*
G54D13*
X41525Y-29350D03*
X41958Y-29350D03*
X42389Y-29350D03*
X42823Y-29350D03*
X42389Y-50846D03*
X41958Y-50846D03*
X41525Y-50846D03*
G54D14*
X36917Y-31759D03*
X37177Y-31409D03*
G54D13*
X32232Y-35063D03*
G54D17*
X57566Y-50118D03*
G54D18*
X56566Y-50118D03*
X63045Y-49468D03*
X62045Y-49468D03*
X61045Y-49468D03*
G54D17*
X59045Y-49448D03*
G54D18*
X60045Y-49468D03*
G54D14*
X60984Y-31023D03*
G54D18*
X63389Y-30531D03*
X62389Y-30531D03*
X61389Y-30531D03*
G54D17*
X59389Y-30511D03*
G54D18*
X60389Y-30531D03*
X58387Y-30531D03*
X57387Y-30531D03*
X56387Y-30531D03*
X55387Y-30531D03*
G54D17*
X53387Y-30511D03*
G54D18*
X54387Y-30531D03*
G54D14*
X45944Y-48976D03*
X46259Y-48976D03*
X46574Y-48976D03*
X45629Y-48976D03*
X45629Y-49291D03*
X45629Y-49606D03*
X45314Y-48976D03*
X45314Y-49291D03*
X45314Y-49606D03*
X45000Y-49291D03*
X45000Y-49606D03*
X45000Y-48976D03*
X42204Y-47204D03*
X41889Y-46889D03*
X44527Y-47204D03*
X44212Y-46889D03*
X43897Y-47204D03*
X46850Y-47204D03*
X46535Y-46889D03*
X46220Y-47204D03*
X48149Y-45669D03*
X47519Y-45669D03*
X47834Y-45354D03*
X45629Y-30275D03*
X46614Y-31299D03*
X48858Y-30275D03*
X49527Y-30275D03*
X47559Y-30275D03*
X48228Y-30275D03*
X46259Y-30275D03*
X46929Y-30275D03*
X47559Y-32952D03*
X48543Y-32598D03*
X48228Y-32913D03*
X48858Y-32913D03*
X49173Y-33858D03*
X48858Y-34173D03*
X49488Y-34173D03*
X44803Y-33897D03*
X45275Y-34370D03*
X45433Y-42047D03*
X45118Y-42362D03*
X45748Y-42362D03*
X44251Y-40433D03*
X43937Y-40787D03*
X44566Y-40787D03*
X43188Y-49212D03*
X45669Y-50472D03*
X46181Y-50472D03*
X46692Y-50472D03*
X47204Y-50472D03*
X47716Y-50472D03*
X48228Y-50472D03*
X48740Y-50472D03*
X49251Y-50472D03*
X49850Y-42779D03*
X47559Y-35944D03*
X48503Y-35944D03*
X47559Y-36692D03*
X48503Y-36692D03*
X45748Y-34842D03*
G54D13*
X42823Y-50846D03*
G54D14*
X48027Y-34173D03*
X51177Y-44826D03*
X49531Y-42488D03*
X51763Y-45779D03*
X50027Y-43507D03*
X48582Y-43976D03*
X61712Y-41161D03*
X61948Y-40354D03*
X61594Y-38083D03*
X61594Y-38326D03*
X61685Y-43255D03*
X50500Y-32102D03*
X58976Y-47007D03*
X61496Y-35708D03*
X61929Y-39507D03*
X61929Y-39803D03*
X61338Y-41692D03*
X60413Y-43129D03*
X56299Y-43031D03*
X59015Y-36555D03*
X52646Y-37508D03*
X53562Y-37509D03*
X54822Y-37480D03*
X59803Y-36220D03*
X60649Y-45157D03*
X58562Y-43129D03*
X58326Y-43031D03*
X55299Y-38228D03*
G54D15*
X51169Y-34244D03*
G54D14*
X54051Y-36417D03*
X42011Y-32952D03*
X49299Y-31417D03*
X49318Y-32559D03*
X52610Y-32637D03*
X52874Y-32992D03*
X38665Y-49724D03*
X39649Y-49724D03*
X40633Y-49724D03*
X41618Y-49724D03*
X42602Y-49724D03*
X38665Y-48267D03*
X39649Y-48267D03*
X40633Y-48267D03*
X41618Y-48267D03*
X42602Y-48267D03*
X38665Y-30590D03*
X39649Y-30425D03*
X40633Y-30590D03*
X41618Y-30590D03*
X42602Y-30425D03*
X59429Y-35925D03*
X59429Y-34744D03*
X52012Y-34799D03*
X57972Y-46771D03*
X57362Y-46771D03*
X61062Y-42165D03*
X60807Y-42421D03*
X55393Y-46653D03*
X54114Y-45767D03*
X53582Y-43562D03*
X54094Y-43543D03*
X57716Y-49468D03*
X56988Y-49448D03*
X56141Y-46614D03*
X55570Y-45866D03*
X51712Y-46574D03*
X53720Y-31496D03*
X52598Y-36732D03*
X52598Y-36476D03*
X52598Y-36200D03*
X56023Y-43090D03*
X60688Y-47224D03*
X61496Y-42578D03*
X61102Y-41437D03*
X60216Y-41437D03*
X61102Y-40835D03*
X59881Y-42263D03*
X60826Y-40610D03*
X60216Y-40610D03*
X61181Y-40059D03*
X61692Y-38976D03*
X61181Y-38937D03*
X61181Y-38641D03*
X59822Y-39488D03*
X60413Y-36574D03*
X61889Y-36771D03*
X59881Y-38188D03*
X59311Y-37972D03*
X55098Y-36574D03*
X55925Y-37893D03*
X54822Y-37775D03*
X55885Y-38287D03*
X55610Y-38031D03*
X60314Y-42425D03*
X54724Y-39251D03*
X55925Y-41751D03*
X57086Y-42421D03*
X58326Y-45000D03*
X63051Y-48129D03*
X61830Y-48346D03*
X60039Y-48129D03*
X59035Y-48129D03*
X58444Y-42637D03*
X60846Y-37618D03*
X59429Y-36594D03*
X59862Y-37618D03*
X55728Y-34133D03*
X55452Y-34566D03*
X52972Y-36082D03*
X55728Y-35019D03*
X55984Y-34566D03*
X56220Y-35374D03*
X58385Y-36614D03*
X57322Y-36614D03*
X58582Y-35846D03*
X57165Y-35846D03*
X60629Y-36003D03*
X59015Y-36220D03*
X60492Y-34055D03*
X61692Y-45196D03*
X61692Y-44429D03*
X60649Y-43543D03*
X58444Y-43700D03*
X58779Y-43700D03*
X56515Y-43582D03*
X60216Y-43700D03*
X60000Y-43474D03*
X58051Y-44547D03*
X57795Y-45000D03*
X57559Y-44192D03*
X58572Y-44517D03*
X60000Y-44517D03*
X58572Y-43474D03*
X60882Y-38087D03*
X60780Y-39406D03*
X57224Y-47185D03*
X54409Y-45433D03*
X48708Y-37728D03*
X42405Y-30590D03*
X60059Y-36220D03*
X48708Y-37503D03*
X42799Y-30590D03*
X60374Y-35925D03*
X37877Y-30590D03*
X60649Y-44606D03*
X55394Y-39638D03*
G54D19*
X56437Y-41112D03*
G54D14*
X53650Y-41536D03*
X53583Y-40201D03*
G54D19*
X56437Y-39931D03*
G54D14*
X55831Y-39047D03*
X53503Y-41909D03*
G54D19*
X56437Y-40915D03*
G54D14*
X54212Y-40649D03*
G54D19*
X56437Y-40128D03*
G54D14*
X55303Y-40032D03*
X53662Y-38355D03*
G54D19*
X56437Y-38750D03*
G54D14*
X55709Y-39445D03*
X52193Y-35890D03*
X59740Y-40740D03*
X59783Y-39842D03*
X54453Y-37319D03*
X51721Y-37508D03*
X54721Y-36075D03*
X55555Y-39028D03*
G54D19*
X59055Y-40128D03*
G54D14*
X53503Y-38562D03*
G54D19*
X56437Y-38947D03*
G54D14*
X54370Y-39625D03*
G54D19*
X56437Y-39537D03*
X56437Y-39341D03*
G54D14*
X54370Y-39370D03*
X59272Y-41807D03*
X53579Y-42122D03*
G54D19*
X56437Y-40719D03*
G54D14*
X55772Y-40232D03*
X55890Y-41016D03*
X55260Y-41209D03*
X55815Y-41406D03*
X55610Y-41574D03*
X56303Y-41937D03*
X54370Y-38976D03*
G54D19*
X56437Y-39144D03*
X56437Y-40522D03*
G54D14*
X54212Y-41043D03*
G54D19*
X59065Y-38750D03*
G54D14*
X55288Y-40421D03*
X55701Y-40618D03*
X55366Y-40819D03*
X55748Y-41929D03*
G54D19*
X59065Y-40325D03*
G54D14*
X51732Y-36461D03*
X53976Y-41417D03*
G54D19*
X56447Y-41309D03*
G54D14*
X51728Y-36957D03*
X59980Y-40649D03*
G54D19*
X59065Y-40522D03*
G54D14*
X52870Y-37327D03*
X51728Y-37240D03*
X52870Y-36752D03*
X59669Y-40425D03*
X55736Y-39831D03*
X59748Y-39020D03*
X50728Y-37952D03*
X41421Y-32952D03*
X53897Y-34606D03*
X43389Y-32917D03*
X53129Y-32381D03*
G54D19*
X57057Y-41339D03*
G54D14*
X52906Y-35095D03*
X52543Y-37827D03*
X60492Y-34842D03*
X57204Y-41968D03*
X60473Y-41000D03*
G54D19*
X59065Y-40915D03*
X59065Y-39341D03*
G54D14*
X60339Y-39244D03*
G54D19*
X57254Y-41339D03*
G54D14*
X57559Y-44606D03*
X60030Y-41211D03*
X55826Y-38582D03*
X56023Y-42303D03*
G54D19*
X56437Y-39734D03*
X56437Y-40325D03*
G54D14*
X59094Y-37972D03*
G54D19*
X57854Y-38720D03*
X58238Y-41339D03*
X59065Y-39931D03*
G54D14*
X55610Y-37775D03*
G54D19*
X56870Y-38720D03*
X59075Y-41112D03*
G54D14*
X59645Y-41417D03*
G54D19*
X59065Y-39144D03*
X59065Y-38947D03*
G54D14*
X56948Y-41968D03*
G54D19*
X56663Y-41339D03*
X57067Y-38720D03*
G54D14*
X60570Y-42716D03*
G54D19*
X59065Y-41309D03*
X56860Y-41339D03*
G54D14*
X60000Y-39921D03*
X54736Y-36331D03*
X59646Y-40225D03*
X49354Y-37402D03*
X53208Y-40846D03*
X53071Y-34862D03*
X40437Y-30425D03*
X52381Y-40204D03*
X42208Y-30425D03*
X52618Y-38169D03*
X40830Y-30425D03*
X52232Y-40016D03*
X41421Y-30425D03*
X53503Y-39370D03*
X41814Y-30425D03*
X53503Y-38976D03*
X52618Y-38562D03*
X42011Y-30590D03*
G54D19*
X59065Y-39734D03*
G54D14*
X51445Y-35929D03*
X40240Y-30590D03*
X53346Y-40649D03*
X56181Y-38326D03*
X56338Y-38129D03*
X56575Y-38130D03*
G54D19*
X56673Y-38711D03*
G54D14*
X50019Y-36421D03*
X49634Y-37205D03*
X49917Y-37012D03*
X49748Y-36225D03*
X51717Y-37992D03*
X52535Y-41732D03*
X38862Y-30425D03*
X54964Y-43051D03*
X38074Y-30425D03*
X55453Y-43067D03*
X39452Y-30590D03*
X52283Y-41925D03*
X39846Y-30590D03*
X52307Y-41532D03*
X40043Y-30425D03*
X53287Y-41240D03*
X39059Y-30590D03*
X54721Y-43055D03*
X38271Y-30590D03*
X55225Y-43067D03*
X51669Y-35288D03*
G54D19*
X59065Y-40719D03*
X58435Y-41339D03*
G54D14*
X58536Y-41973D03*
X59281Y-42067D03*
X58740Y-41969D03*
G54D20*
X61821Y-42018D02*
X61821Y-42167D01*
X61821Y-42167D02*
X61834Y-42181D01*
X61771Y-43169D02*
X61685Y-43255D01*
X61771Y-43169D02*
X61685Y-43255D01*
G54D10*
G36*
X65984Y-49527D02*
X65984Y-49527D01*
X65984Y-50570D01*
X63806Y-50570D01*
X63806Y-30448D01*
X63743Y-30295D01*
X63625Y-30178D01*
X63472Y-30114D01*
X63307Y-30114D01*
X63153Y-30177D01*
X63036Y-30295D01*
X62973Y-30448D01*
X62972Y-30613D01*
X63036Y-30767D01*
X63153Y-30884D01*
X63306Y-30947D01*
X63472Y-30948D01*
X63625Y-30884D01*
X63742Y-30767D01*
X63806Y-30614D01*
X63806Y-30448D01*
X63806Y-50570D01*
X63461Y-50570D01*
X63461Y-49385D01*
X63398Y-49232D01*
X63281Y-49115D01*
X63128Y-49051D01*
X62962Y-49051D01*
X62809Y-49114D01*
X62806Y-49118D01*
X62806Y-30448D01*
X62743Y-30295D01*
X62625Y-30178D01*
X62472Y-30114D01*
X62307Y-30114D01*
X62153Y-30177D01*
X62036Y-30295D01*
X61973Y-30448D01*
X61972Y-30613D01*
X62036Y-30767D01*
X62153Y-30884D01*
X62306Y-30947D01*
X62472Y-30948D01*
X62625Y-30884D01*
X62742Y-30767D01*
X62806Y-30614D01*
X62806Y-30448D01*
X62806Y-49118D01*
X62692Y-49232D01*
X62628Y-49385D01*
X62628Y-49550D01*
X62691Y-49704D01*
X62808Y-49821D01*
X62961Y-49884D01*
X63127Y-49885D01*
X63280Y-49821D01*
X63398Y-49704D01*
X63461Y-49551D01*
X63461Y-49385D01*
X63461Y-50570D01*
X62461Y-50570D01*
X62461Y-49385D01*
X62398Y-49232D01*
X62281Y-49115D01*
X62145Y-49058D01*
X62145Y-40315D01*
X62125Y-40267D01*
X62125Y-39764D01*
X62095Y-39691D01*
X62059Y-39655D01*
X62095Y-39619D01*
X62125Y-39547D01*
X62125Y-39468D01*
X62095Y-39396D01*
X62040Y-39341D01*
X61968Y-39311D01*
X61890Y-39311D01*
X61817Y-39341D01*
X61791Y-39367D01*
X61791Y-38287D01*
X61761Y-38215D01*
X61750Y-38204D01*
X61760Y-38194D01*
X61790Y-38122D01*
X61790Y-38044D01*
X61760Y-37971D01*
X61705Y-37916D01*
X61692Y-37911D01*
X61692Y-35669D01*
X61662Y-35597D01*
X61607Y-35542D01*
X61535Y-35512D01*
X61457Y-35512D01*
X61384Y-35541D01*
X61329Y-35597D01*
X61299Y-35669D01*
X61299Y-35747D01*
X61329Y-35819D01*
X61384Y-35875D01*
X61456Y-35905D01*
X61534Y-35905D01*
X61607Y-35875D01*
X61662Y-35820D01*
X61692Y-35747D01*
X61692Y-35669D01*
X61692Y-37911D01*
X61633Y-37886D01*
X61555Y-37886D01*
X61482Y-37916D01*
X61427Y-37971D01*
X61397Y-38043D01*
X61397Y-38121D01*
X61427Y-38194D01*
X61438Y-38205D01*
X61427Y-38215D01*
X61397Y-38287D01*
X61397Y-38365D01*
X61427Y-38437D01*
X61482Y-38493D01*
X61555Y-38523D01*
X61633Y-38523D01*
X61705Y-38493D01*
X61761Y-38438D01*
X61791Y-38366D01*
X61791Y-38287D01*
X61791Y-39367D01*
X61762Y-39396D01*
X61732Y-39468D01*
X61732Y-39546D01*
X61762Y-39619D01*
X61798Y-39655D01*
X61762Y-39691D01*
X61732Y-39763D01*
X61732Y-39842D01*
X61762Y-39914D01*
X61817Y-39969D01*
X61889Y-39999D01*
X61968Y-39999D01*
X62040Y-39969D01*
X62095Y-39914D01*
X62125Y-39842D01*
X62125Y-39764D01*
X62125Y-40267D01*
X62115Y-40243D01*
X62060Y-40187D01*
X61988Y-40157D01*
X61909Y-40157D01*
X61837Y-40187D01*
X61782Y-40242D01*
X61752Y-40315D01*
X61752Y-40393D01*
X61782Y-40465D01*
X61837Y-40520D01*
X61909Y-40550D01*
X61987Y-40550D01*
X62060Y-40521D01*
X62115Y-40465D01*
X62145Y-40393D01*
X62145Y-40315D01*
X62145Y-49058D01*
X62128Y-49051D01*
X62013Y-49051D01*
X62013Y-42181D01*
X62000Y-42112D01*
X62000Y-42112D01*
X62000Y-42018D01*
X61986Y-41949D01*
X61947Y-41891D01*
X61909Y-41865D01*
X61909Y-41122D01*
X61879Y-41050D01*
X61824Y-40994D01*
X61751Y-40964D01*
X61673Y-40964D01*
X61601Y-40994D01*
X61546Y-41049D01*
X61516Y-41122D01*
X61515Y-41200D01*
X61545Y-41272D01*
X61601Y-41327D01*
X61673Y-41357D01*
X61751Y-41358D01*
X61823Y-41328D01*
X61879Y-41272D01*
X61909Y-41200D01*
X61909Y-41122D01*
X61909Y-41865D01*
X61889Y-41852D01*
X61821Y-41838D01*
X61752Y-41852D01*
X61694Y-41891D01*
X61655Y-41949D01*
X61641Y-42018D01*
X61641Y-42167D01*
X61655Y-42235D01*
X61694Y-42294D01*
X61707Y-42307D01*
X61766Y-42346D01*
X61834Y-42360D01*
X61903Y-42346D01*
X61961Y-42307D01*
X62000Y-42249D01*
X62013Y-42181D01*
X62013Y-49051D01*
X61962Y-49051D01*
X61950Y-49056D01*
X61950Y-43169D01*
X61937Y-43100D01*
X61898Y-43042D01*
X61840Y-43003D01*
X61771Y-42990D01*
X61703Y-43003D01*
X61645Y-43042D01*
X61615Y-43071D01*
X61573Y-43089D01*
X61535Y-43127D01*
X61535Y-41653D01*
X61505Y-41581D01*
X61450Y-41526D01*
X61377Y-41496D01*
X61299Y-41496D01*
X61227Y-41526D01*
X61172Y-41581D01*
X61142Y-41653D01*
X61141Y-41731D01*
X61171Y-41804D01*
X61227Y-41859D01*
X61299Y-41889D01*
X61377Y-41889D01*
X61449Y-41859D01*
X61505Y-41804D01*
X61535Y-41732D01*
X61535Y-41653D01*
X61535Y-43127D01*
X61518Y-43144D01*
X61488Y-43216D01*
X61488Y-43294D01*
X61518Y-43367D01*
X61573Y-43422D01*
X61645Y-43452D01*
X61723Y-43452D01*
X61796Y-43422D01*
X61851Y-43367D01*
X61869Y-43325D01*
X61898Y-43295D01*
X61937Y-43237D01*
X61950Y-43169D01*
X61950Y-49056D01*
X61809Y-49114D01*
X61692Y-49232D01*
X61628Y-49385D01*
X61628Y-49550D01*
X61691Y-49704D01*
X61808Y-49821D01*
X61961Y-49884D01*
X62127Y-49885D01*
X62280Y-49821D01*
X62398Y-49704D01*
X62461Y-49551D01*
X62461Y-49385D01*
X62461Y-50570D01*
X60846Y-50570D01*
X60846Y-45118D01*
X60846Y-44567D01*
X60816Y-44495D01*
X60806Y-44484D01*
X60806Y-30448D01*
X60743Y-30295D01*
X60625Y-30178D01*
X60472Y-30114D01*
X60307Y-30114D01*
X60153Y-30177D01*
X60036Y-30295D01*
X59973Y-30448D01*
X59972Y-30613D01*
X60036Y-30767D01*
X60153Y-30884D01*
X60306Y-30947D01*
X60472Y-30948D01*
X60625Y-30884D01*
X60742Y-30767D01*
X60806Y-30614D01*
X60806Y-30448D01*
X60806Y-44484D01*
X60767Y-44446D01*
X60767Y-42677D01*
X60737Y-42605D01*
X60688Y-42556D01*
X60688Y-34803D01*
X60658Y-34731D01*
X60603Y-34675D01*
X60531Y-34645D01*
X60453Y-34645D01*
X60380Y-34675D01*
X60325Y-34731D01*
X60295Y-34803D01*
X60295Y-34881D01*
X60325Y-34953D01*
X60380Y-35009D01*
X60452Y-35039D01*
X60531Y-35039D01*
X60603Y-35009D01*
X60658Y-34954D01*
X60688Y-34881D01*
X60688Y-34803D01*
X60688Y-42556D01*
X60682Y-42549D01*
X60669Y-42544D01*
X60669Y-40961D01*
X60639Y-40888D01*
X60584Y-40833D01*
X60570Y-40827D01*
X60570Y-35886D01*
X60540Y-35813D01*
X60485Y-35758D01*
X60413Y-35728D01*
X60335Y-35728D01*
X60262Y-35758D01*
X60207Y-35813D01*
X60177Y-35885D01*
X60177Y-35964D01*
X60207Y-36036D01*
X60262Y-36091D01*
X60334Y-36121D01*
X60412Y-36121D01*
X60485Y-36091D01*
X60540Y-36036D01*
X60570Y-35964D01*
X60570Y-35886D01*
X60570Y-40827D01*
X60535Y-40813D01*
X60535Y-39205D01*
X60505Y-39132D01*
X60450Y-39077D01*
X60378Y-39047D01*
X60300Y-39047D01*
X60255Y-39065D01*
X60255Y-36181D01*
X60225Y-36109D01*
X60170Y-36053D01*
X60098Y-36023D01*
X60020Y-36023D01*
X59947Y-36053D01*
X59931Y-36070D01*
X59914Y-36053D01*
X59842Y-36023D01*
X59806Y-36023D01*
X59806Y-30786D01*
X59806Y-30189D01*
X59788Y-30146D01*
X59755Y-30112D01*
X59711Y-30094D01*
X59664Y-30094D01*
X59067Y-30094D01*
X59024Y-30112D01*
X58991Y-30145D01*
X58973Y-30189D01*
X58973Y-30236D01*
X58973Y-30833D01*
X58990Y-30876D01*
X59024Y-30909D01*
X59067Y-30927D01*
X59114Y-30928D01*
X59711Y-30928D01*
X59754Y-30910D01*
X59788Y-30876D01*
X59806Y-30833D01*
X59806Y-30786D01*
X59806Y-36023D01*
X59764Y-36023D01*
X59691Y-36053D01*
X59636Y-36108D01*
X59606Y-36181D01*
X59606Y-36259D01*
X59636Y-36331D01*
X59691Y-36387D01*
X59763Y-36417D01*
X59842Y-36417D01*
X59914Y-36387D01*
X59931Y-36370D01*
X59947Y-36387D01*
X60019Y-36417D01*
X60097Y-36417D01*
X60170Y-36387D01*
X60225Y-36331D01*
X60255Y-36259D01*
X60255Y-36181D01*
X60255Y-39065D01*
X60227Y-39077D01*
X60172Y-39132D01*
X60142Y-39204D01*
X60142Y-39282D01*
X60172Y-39355D01*
X60227Y-39410D01*
X60299Y-39440D01*
X60377Y-39440D01*
X60450Y-39410D01*
X60505Y-39355D01*
X60535Y-39283D01*
X60535Y-39205D01*
X60535Y-40813D01*
X60512Y-40803D01*
X60434Y-40803D01*
X60361Y-40833D01*
X60306Y-40888D01*
X60276Y-40960D01*
X60276Y-41038D01*
X60306Y-41111D01*
X60361Y-41166D01*
X60433Y-41196D01*
X60511Y-41196D01*
X60584Y-41166D01*
X60639Y-41111D01*
X60669Y-41039D01*
X60669Y-40961D01*
X60669Y-42544D01*
X60610Y-42519D01*
X60531Y-42519D01*
X60459Y-42549D01*
X60404Y-42605D01*
X60374Y-42677D01*
X60374Y-42755D01*
X60404Y-42827D01*
X60459Y-42883D01*
X60531Y-42913D01*
X60609Y-42913D01*
X60682Y-42883D01*
X60737Y-42828D01*
X60767Y-42755D01*
X60767Y-42677D01*
X60767Y-44446D01*
X60761Y-44439D01*
X60688Y-44409D01*
X60610Y-44409D01*
X60610Y-44409D01*
X60610Y-43090D01*
X60580Y-43018D01*
X60524Y-42963D01*
X60452Y-42933D01*
X60374Y-42933D01*
X60302Y-42963D01*
X60246Y-43018D01*
X60226Y-43066D01*
X60226Y-41172D01*
X60196Y-41099D01*
X60196Y-41099D01*
X60196Y-39882D01*
X60166Y-39810D01*
X60111Y-39754D01*
X60039Y-39724D01*
X59961Y-39724D01*
X59948Y-39729D01*
X59944Y-39725D01*
X59944Y-38981D01*
X59914Y-38908D01*
X59859Y-38853D01*
X59787Y-38823D01*
X59709Y-38823D01*
X59636Y-38853D01*
X59581Y-38908D01*
X59551Y-38980D01*
X59551Y-39058D01*
X59581Y-39131D01*
X59636Y-39186D01*
X59708Y-39216D01*
X59786Y-39216D01*
X59859Y-39186D01*
X59914Y-39131D01*
X59944Y-39059D01*
X59944Y-38981D01*
X59944Y-39725D01*
X59894Y-39675D01*
X59822Y-39645D01*
X59744Y-39645D01*
X59672Y-39675D01*
X59616Y-39731D01*
X59586Y-39803D01*
X59586Y-39881D01*
X59616Y-39953D01*
X59671Y-40009D01*
X59744Y-40039D01*
X59822Y-40039D01*
X59834Y-40034D01*
X59888Y-40087D01*
X59960Y-40117D01*
X60038Y-40117D01*
X60111Y-40088D01*
X60166Y-40032D01*
X60196Y-39960D01*
X60196Y-39882D01*
X60196Y-41099D01*
X60176Y-41079D01*
X60176Y-40610D01*
X60147Y-40538D01*
X60091Y-40483D01*
X60019Y-40453D01*
X59941Y-40452D01*
X59869Y-40482D01*
X59849Y-40501D01*
X59865Y-40464D01*
X59865Y-40386D01*
X59835Y-40313D01*
X59826Y-40304D01*
X59842Y-40264D01*
X59842Y-40186D01*
X59812Y-40113D01*
X59757Y-40058D01*
X59685Y-40028D01*
X59607Y-40028D01*
X59534Y-40058D01*
X59479Y-40113D01*
X59449Y-40185D01*
X59449Y-40263D01*
X59479Y-40336D01*
X59488Y-40345D01*
X59472Y-40385D01*
X59472Y-40463D01*
X59502Y-40536D01*
X59557Y-40591D01*
X59594Y-40607D01*
X59573Y-40628D01*
X59543Y-40700D01*
X59543Y-40778D01*
X59573Y-40851D01*
X59628Y-40906D01*
X59700Y-40936D01*
X59778Y-40936D01*
X59851Y-40906D01*
X59906Y-40851D01*
X59913Y-40834D01*
X59941Y-40846D01*
X60019Y-40846D01*
X60091Y-40816D01*
X60146Y-40761D01*
X60176Y-40688D01*
X60176Y-40610D01*
X60176Y-41079D01*
X60141Y-41044D01*
X60069Y-41014D01*
X59991Y-41014D01*
X59918Y-41044D01*
X59863Y-41099D01*
X59833Y-41171D01*
X59833Y-41249D01*
X59863Y-41322D01*
X59918Y-41377D01*
X59990Y-41407D01*
X60068Y-41407D01*
X60141Y-41377D01*
X60196Y-41322D01*
X60226Y-41250D01*
X60226Y-41172D01*
X60226Y-43066D01*
X60216Y-43090D01*
X60216Y-43168D01*
X60246Y-43241D01*
X60301Y-43296D01*
X60374Y-43326D01*
X60452Y-43326D01*
X60524Y-43296D01*
X60579Y-43241D01*
X60609Y-43169D01*
X60610Y-43090D01*
X60610Y-44409D01*
X60538Y-44439D01*
X60483Y-44494D01*
X60453Y-44567D01*
X60452Y-44645D01*
X60482Y-44717D01*
X60538Y-44772D01*
X60610Y-44802D01*
X60688Y-44802D01*
X60760Y-44773D01*
X60816Y-44717D01*
X60846Y-44645D01*
X60846Y-44567D01*
X60846Y-45118D01*
X60816Y-45046D01*
X60761Y-44990D01*
X60688Y-44960D01*
X60610Y-44960D01*
X60538Y-44990D01*
X60483Y-45045D01*
X60453Y-45118D01*
X60452Y-45196D01*
X60482Y-45268D01*
X60538Y-45324D01*
X60610Y-45354D01*
X60688Y-45354D01*
X60760Y-45324D01*
X60816Y-45268D01*
X60846Y-45196D01*
X60846Y-45118D01*
X60846Y-50570D01*
X60461Y-50570D01*
X60461Y-49385D01*
X60398Y-49232D01*
X60281Y-49115D01*
X60128Y-49051D01*
X59962Y-49051D01*
X59842Y-49101D01*
X59842Y-41378D01*
X59812Y-41306D01*
X59757Y-41250D01*
X59684Y-41220D01*
X59606Y-41220D01*
X59534Y-41250D01*
X59479Y-41305D01*
X59449Y-41378D01*
X59449Y-41456D01*
X59478Y-41528D01*
X59534Y-41583D01*
X59606Y-41613D01*
X59684Y-41613D01*
X59756Y-41584D01*
X59812Y-41528D01*
X59842Y-41456D01*
X59842Y-41378D01*
X59842Y-49101D01*
X59809Y-49114D01*
X59692Y-49232D01*
X59628Y-49385D01*
X59628Y-49550D01*
X59691Y-49704D01*
X59808Y-49821D01*
X59961Y-49884D01*
X60127Y-49885D01*
X60280Y-49821D01*
X60398Y-49704D01*
X60461Y-49551D01*
X60461Y-49385D01*
X60461Y-50570D01*
X59477Y-50570D01*
X59477Y-42028D01*
X59447Y-41955D01*
X59424Y-41932D01*
X59438Y-41918D01*
X59468Y-41846D01*
X59468Y-41768D01*
X59438Y-41695D01*
X59383Y-41640D01*
X59311Y-41610D01*
X59291Y-41610D01*
X59291Y-37933D01*
X59261Y-37861D01*
X59212Y-37812D01*
X59212Y-36516D01*
X59182Y-36443D01*
X59127Y-36388D01*
X59055Y-36358D01*
X58976Y-36358D01*
X58904Y-36388D01*
X58849Y-36443D01*
X58819Y-36515D01*
X58819Y-36594D01*
X58848Y-36666D01*
X58904Y-36721D01*
X58976Y-36751D01*
X59054Y-36751D01*
X59126Y-36721D01*
X59182Y-36666D01*
X59212Y-36594D01*
X59212Y-36516D01*
X59212Y-37812D01*
X59206Y-37805D01*
X59133Y-37775D01*
X59055Y-37775D01*
X58983Y-37805D01*
X58927Y-37860D01*
X58897Y-37933D01*
X58897Y-38011D01*
X58927Y-38083D01*
X58982Y-38139D01*
X59055Y-38169D01*
X59133Y-38169D01*
X59205Y-38139D01*
X59261Y-38083D01*
X59291Y-38011D01*
X59291Y-37933D01*
X59291Y-41610D01*
X59262Y-41610D01*
X59262Y-41074D01*
X59233Y-41006D01*
X59230Y-41003D01*
X59252Y-40952D01*
X59252Y-40877D01*
X59226Y-40816D01*
X59252Y-40756D01*
X59252Y-40681D01*
X59226Y-40620D01*
X59252Y-40559D01*
X59252Y-40484D01*
X59226Y-40423D01*
X59252Y-40362D01*
X59252Y-40287D01*
X59223Y-40219D01*
X59220Y-40216D01*
X59242Y-40165D01*
X59242Y-40090D01*
X59220Y-40039D01*
X59223Y-40037D01*
X59252Y-39968D01*
X59252Y-39893D01*
X59226Y-39832D01*
X59252Y-39771D01*
X59252Y-39696D01*
X59252Y-39303D01*
X59226Y-39242D01*
X59252Y-39181D01*
X59252Y-39106D01*
X59226Y-39045D01*
X59252Y-38984D01*
X59252Y-38909D01*
X59226Y-38848D01*
X59252Y-38787D01*
X59252Y-38712D01*
X59223Y-38644D01*
X59171Y-38591D01*
X59102Y-38562D01*
X59027Y-38562D01*
X58959Y-38591D01*
X58906Y-38643D01*
X58877Y-38712D01*
X58877Y-38787D01*
X58903Y-38848D01*
X58877Y-38909D01*
X58877Y-38984D01*
X58903Y-39045D01*
X58877Y-39106D01*
X58877Y-39181D01*
X58903Y-39242D01*
X58877Y-39303D01*
X58877Y-39378D01*
X58906Y-39446D01*
X58958Y-39499D01*
X59027Y-39528D01*
X59102Y-39528D01*
X59170Y-39499D01*
X59223Y-39447D01*
X59252Y-39378D01*
X59252Y-39303D01*
X59252Y-39696D01*
X59223Y-39628D01*
X59171Y-39575D01*
X59102Y-39546D01*
X59027Y-39546D01*
X58959Y-39575D01*
X58906Y-39627D01*
X58877Y-39696D01*
X58877Y-39771D01*
X58903Y-39832D01*
X58877Y-39893D01*
X58877Y-39968D01*
X58899Y-40019D01*
X58896Y-40021D01*
X58867Y-40090D01*
X58867Y-40165D01*
X58896Y-40233D01*
X58899Y-40236D01*
X58877Y-40287D01*
X58877Y-40362D01*
X58903Y-40423D01*
X58877Y-40484D01*
X58877Y-40559D01*
X58903Y-40620D01*
X58877Y-40681D01*
X58877Y-40756D01*
X58903Y-40817D01*
X58877Y-40877D01*
X58877Y-40952D01*
X58906Y-41020D01*
X58909Y-41023D01*
X58887Y-41074D01*
X58887Y-41149D01*
X58909Y-41200D01*
X58906Y-41202D01*
X58877Y-41271D01*
X58877Y-41346D01*
X58906Y-41414D01*
X58958Y-41467D01*
X59027Y-41496D01*
X59102Y-41496D01*
X59170Y-41467D01*
X59223Y-41415D01*
X59252Y-41346D01*
X59252Y-41271D01*
X59230Y-41220D01*
X59233Y-41218D01*
X59262Y-41149D01*
X59262Y-41074D01*
X59262Y-41610D01*
X59233Y-41610D01*
X59160Y-41640D01*
X59105Y-41695D01*
X59075Y-41767D01*
X59075Y-41845D01*
X59105Y-41918D01*
X59128Y-41941D01*
X59114Y-41955D01*
X59084Y-42027D01*
X59084Y-42105D01*
X59114Y-42178D01*
X59169Y-42233D01*
X59241Y-42263D01*
X59319Y-42263D01*
X59392Y-42233D01*
X59447Y-42178D01*
X59477Y-42106D01*
X59477Y-42028D01*
X59477Y-50570D01*
X59461Y-50570D01*
X59461Y-49723D01*
X59461Y-49126D01*
X59443Y-49083D01*
X59410Y-49049D01*
X59367Y-49031D01*
X59320Y-49031D01*
X59173Y-49031D01*
X59173Y-46968D01*
X59143Y-46896D01*
X59087Y-46841D01*
X59015Y-46811D01*
X58937Y-46811D01*
X58936Y-46811D01*
X58936Y-41930D01*
X58906Y-41857D01*
X58851Y-41802D01*
X58804Y-41782D01*
X58804Y-30448D01*
X58741Y-30295D01*
X58623Y-30178D01*
X58470Y-30114D01*
X58305Y-30114D01*
X58151Y-30177D01*
X58034Y-30295D01*
X57971Y-30448D01*
X57970Y-30613D01*
X58034Y-30767D01*
X58151Y-30884D01*
X58304Y-30947D01*
X58470Y-30948D01*
X58623Y-30884D01*
X58740Y-30767D01*
X58804Y-30614D01*
X58804Y-30448D01*
X58804Y-41782D01*
X58779Y-41772D01*
X58701Y-41772D01*
X58633Y-41800D01*
X58622Y-41795D01*
X58622Y-41301D01*
X58593Y-41233D01*
X58541Y-41180D01*
X58472Y-41151D01*
X58397Y-41151D01*
X58336Y-41177D01*
X58275Y-41151D01*
X58200Y-41151D01*
X58132Y-41180D01*
X58079Y-41232D01*
X58050Y-41301D01*
X58050Y-41376D01*
X58079Y-41444D01*
X58131Y-41497D01*
X58200Y-41526D01*
X58275Y-41526D01*
X58336Y-41500D01*
X58397Y-41526D01*
X58472Y-41526D01*
X58540Y-41497D01*
X58593Y-41445D01*
X58622Y-41376D01*
X58622Y-41301D01*
X58622Y-41795D01*
X58575Y-41776D01*
X58497Y-41776D01*
X58424Y-41806D01*
X58369Y-41861D01*
X58339Y-41933D01*
X58339Y-42011D01*
X58369Y-42084D01*
X58424Y-42139D01*
X58496Y-42169D01*
X58574Y-42169D01*
X58642Y-42141D01*
X58700Y-42165D01*
X58778Y-42165D01*
X58851Y-42135D01*
X58906Y-42080D01*
X58936Y-42008D01*
X58936Y-41930D01*
X58936Y-46811D01*
X58865Y-46841D01*
X58809Y-46896D01*
X58779Y-46968D01*
X58779Y-47046D01*
X58809Y-47119D01*
X58864Y-47174D01*
X58937Y-47204D01*
X59015Y-47204D01*
X59087Y-47174D01*
X59142Y-47119D01*
X59172Y-47047D01*
X59173Y-46968D01*
X59173Y-49031D01*
X58759Y-49031D01*
X58759Y-43090D01*
X58729Y-43018D01*
X58674Y-42963D01*
X58602Y-42933D01*
X58524Y-42933D01*
X58502Y-42942D01*
X58493Y-42920D01*
X58438Y-42864D01*
X58366Y-42834D01*
X58287Y-42834D01*
X58215Y-42864D01*
X58160Y-42919D01*
X58130Y-42992D01*
X58130Y-43070D01*
X58159Y-43142D01*
X58215Y-43198D01*
X58287Y-43228D01*
X58365Y-43228D01*
X58387Y-43219D01*
X58396Y-43241D01*
X58451Y-43296D01*
X58523Y-43326D01*
X58601Y-43326D01*
X58674Y-43296D01*
X58729Y-43241D01*
X58759Y-43169D01*
X58759Y-43090D01*
X58759Y-49031D01*
X58723Y-49031D01*
X58679Y-49049D01*
X58646Y-49082D01*
X58628Y-49126D01*
X58628Y-49173D01*
X58628Y-49770D01*
X58646Y-49813D01*
X58679Y-49846D01*
X58723Y-49864D01*
X58770Y-49865D01*
X59367Y-49865D01*
X59410Y-49847D01*
X59443Y-49813D01*
X59461Y-49770D01*
X59461Y-49723D01*
X59461Y-50570D01*
X58041Y-50570D01*
X58041Y-38682D01*
X58012Y-38614D01*
X57960Y-38561D01*
X57891Y-38532D01*
X57816Y-38532D01*
X57804Y-38538D01*
X57804Y-30448D01*
X57741Y-30295D01*
X57623Y-30178D01*
X57470Y-30114D01*
X57305Y-30114D01*
X57151Y-30177D01*
X57034Y-30295D01*
X56971Y-30448D01*
X56970Y-30613D01*
X57034Y-30767D01*
X57151Y-30884D01*
X57304Y-30947D01*
X57470Y-30948D01*
X57623Y-30884D01*
X57740Y-30767D01*
X57804Y-30614D01*
X57804Y-30448D01*
X57804Y-38538D01*
X57748Y-38561D01*
X57695Y-38613D01*
X57666Y-38682D01*
X57666Y-38757D01*
X57695Y-38825D01*
X57747Y-38878D01*
X57816Y-38907D01*
X57891Y-38907D01*
X57959Y-38878D01*
X58012Y-38826D01*
X58041Y-38757D01*
X58041Y-38682D01*
X58041Y-50570D01*
X57832Y-50570D01*
X57784Y-50551D01*
X57755Y-50551D01*
X57755Y-44567D01*
X57725Y-44495D01*
X57670Y-44439D01*
X57598Y-44409D01*
X57520Y-44409D01*
X57447Y-44439D01*
X57441Y-44446D01*
X57441Y-41301D01*
X57412Y-41233D01*
X57360Y-41180D01*
X57291Y-41151D01*
X57216Y-41151D01*
X57155Y-41177D01*
X57094Y-41151D01*
X57019Y-41151D01*
X56958Y-41177D01*
X56897Y-41151D01*
X56822Y-41151D01*
X56761Y-41177D01*
X56700Y-41151D01*
X56625Y-41151D01*
X56622Y-41153D01*
X56624Y-41149D01*
X56624Y-41074D01*
X56598Y-41013D01*
X56624Y-40952D01*
X56624Y-40877D01*
X56598Y-40816D01*
X56624Y-40756D01*
X56624Y-40681D01*
X56598Y-40620D01*
X56624Y-40559D01*
X56624Y-40484D01*
X56598Y-40423D01*
X56624Y-40362D01*
X56624Y-40287D01*
X56598Y-40226D01*
X56624Y-40165D01*
X56624Y-40090D01*
X56598Y-40029D01*
X56624Y-39968D01*
X56624Y-39893D01*
X56598Y-39832D01*
X56624Y-39771D01*
X56624Y-39696D01*
X56598Y-39635D01*
X56624Y-39574D01*
X56624Y-39499D01*
X56598Y-39438D01*
X56624Y-39378D01*
X56624Y-39303D01*
X56598Y-39242D01*
X56624Y-39181D01*
X56624Y-39106D01*
X56598Y-39045D01*
X56624Y-38984D01*
X56624Y-38909D01*
X56615Y-38889D01*
X56635Y-38898D01*
X56710Y-38898D01*
X56762Y-38876D01*
X56763Y-38878D01*
X56832Y-38907D01*
X56907Y-38907D01*
X56968Y-38881D01*
X57029Y-38907D01*
X57104Y-38907D01*
X57172Y-38878D01*
X57225Y-38826D01*
X57254Y-38757D01*
X57254Y-38682D01*
X57225Y-38614D01*
X57173Y-38561D01*
X57104Y-38532D01*
X57029Y-38532D01*
X56968Y-38558D01*
X56907Y-38532D01*
X56832Y-38532D01*
X56804Y-38544D01*
X56804Y-30448D01*
X56741Y-30295D01*
X56623Y-30178D01*
X56470Y-30114D01*
X56305Y-30114D01*
X56151Y-30177D01*
X56034Y-30295D01*
X55971Y-30448D01*
X55970Y-30613D01*
X56034Y-30767D01*
X56151Y-30884D01*
X56304Y-30947D01*
X56470Y-30948D01*
X56623Y-30884D01*
X56740Y-30767D01*
X56804Y-30614D01*
X56804Y-30448D01*
X56804Y-38544D01*
X56780Y-38554D01*
X56779Y-38552D01*
X56771Y-38549D01*
X56771Y-38091D01*
X56741Y-38018D01*
X56686Y-37963D01*
X56614Y-37933D01*
X56536Y-37933D01*
X56463Y-37963D01*
X56456Y-37970D01*
X56450Y-37963D01*
X56377Y-37933D01*
X56299Y-37933D01*
X56227Y-37963D01*
X56172Y-38018D01*
X56142Y-38090D01*
X56141Y-38130D01*
X56069Y-38159D01*
X56014Y-38215D01*
X55984Y-38287D01*
X55984Y-38365D01*
X56014Y-38437D01*
X56069Y-38493D01*
X56141Y-38523D01*
X56220Y-38523D01*
X56292Y-38493D01*
X56347Y-38438D01*
X56377Y-38366D01*
X56377Y-38326D01*
X56449Y-38296D01*
X56456Y-38289D01*
X56463Y-38296D01*
X56535Y-38326D01*
X56613Y-38326D01*
X56686Y-38296D01*
X56741Y-38241D01*
X56771Y-38169D01*
X56771Y-38091D01*
X56771Y-38549D01*
X56710Y-38523D01*
X56635Y-38523D01*
X56567Y-38552D01*
X56532Y-38587D01*
X56474Y-38562D01*
X56399Y-38562D01*
X56331Y-38591D01*
X56278Y-38643D01*
X56249Y-38712D01*
X56249Y-38787D01*
X56275Y-38848D01*
X56249Y-38909D01*
X56249Y-38984D01*
X56275Y-39045D01*
X56249Y-39106D01*
X56249Y-39181D01*
X56275Y-39242D01*
X56249Y-39303D01*
X56249Y-39378D01*
X56275Y-39439D01*
X56249Y-39499D01*
X56249Y-39574D01*
X56275Y-39635D01*
X56249Y-39696D01*
X56249Y-39771D01*
X56275Y-39832D01*
X56249Y-39893D01*
X56249Y-39968D01*
X56275Y-40029D01*
X56249Y-40090D01*
X56249Y-40165D01*
X56275Y-40226D01*
X56249Y-40287D01*
X56249Y-40362D01*
X56275Y-40423D01*
X56249Y-40484D01*
X56249Y-40559D01*
X56275Y-40620D01*
X56249Y-40681D01*
X56249Y-40756D01*
X56275Y-40817D01*
X56249Y-40877D01*
X56249Y-40952D01*
X56275Y-41013D01*
X56249Y-41074D01*
X56249Y-41149D01*
X56278Y-41217D01*
X56281Y-41220D01*
X56259Y-41271D01*
X56259Y-41346D01*
X56288Y-41414D01*
X56340Y-41467D01*
X56409Y-41496D01*
X56484Y-41496D01*
X56534Y-41475D01*
X56556Y-41497D01*
X56625Y-41526D01*
X56700Y-41526D01*
X56761Y-41500D01*
X56822Y-41526D01*
X56897Y-41526D01*
X56958Y-41500D01*
X57019Y-41526D01*
X57094Y-41526D01*
X57155Y-41500D01*
X57216Y-41526D01*
X57291Y-41526D01*
X57359Y-41497D01*
X57412Y-41445D01*
X57441Y-41376D01*
X57441Y-41301D01*
X57441Y-44446D01*
X57401Y-44485D01*
X57401Y-41929D01*
X57371Y-41857D01*
X57316Y-41801D01*
X57244Y-41771D01*
X57165Y-41771D01*
X57093Y-41801D01*
X57076Y-41818D01*
X57060Y-41801D01*
X56988Y-41771D01*
X56909Y-41771D01*
X56837Y-41801D01*
X56782Y-41856D01*
X56752Y-41929D01*
X56752Y-42007D01*
X56782Y-42079D01*
X56837Y-42135D01*
X56909Y-42165D01*
X56987Y-42165D01*
X57060Y-42135D01*
X57076Y-42118D01*
X57093Y-42135D01*
X57165Y-42165D01*
X57243Y-42165D01*
X57315Y-42135D01*
X57371Y-42080D01*
X57401Y-42007D01*
X57401Y-41929D01*
X57401Y-44485D01*
X57392Y-44494D01*
X57362Y-44567D01*
X57362Y-44645D01*
X57392Y-44717D01*
X57447Y-44772D01*
X57519Y-44802D01*
X57597Y-44802D01*
X57670Y-44773D01*
X57725Y-44717D01*
X57755Y-44645D01*
X57755Y-44567D01*
X57755Y-50551D01*
X57667Y-50550D01*
X57619Y-50570D01*
X57398Y-50570D01*
X57350Y-50551D01*
X57233Y-50550D01*
X57185Y-50570D01*
X56983Y-50570D01*
X56983Y-50036D01*
X56919Y-49882D01*
X56802Y-49765D01*
X56649Y-49702D01*
X56593Y-49701D01*
X56593Y-43932D01*
X56560Y-43853D01*
X56500Y-43792D01*
X56499Y-43792D01*
X56499Y-41898D01*
X56469Y-41825D01*
X56414Y-41770D01*
X56342Y-41740D01*
X56264Y-41740D01*
X56191Y-41770D01*
X56136Y-41825D01*
X56106Y-41897D01*
X56106Y-41975D01*
X56136Y-42048D01*
X56191Y-42103D01*
X56263Y-42133D01*
X56341Y-42133D01*
X56414Y-42103D01*
X56469Y-42048D01*
X56499Y-41976D01*
X56499Y-41898D01*
X56499Y-43792D01*
X56495Y-43790D01*
X56495Y-42992D01*
X56465Y-42920D01*
X56410Y-42864D01*
X56338Y-42834D01*
X56260Y-42834D01*
X56220Y-42851D01*
X56220Y-42264D01*
X56190Y-42191D01*
X56135Y-42136D01*
X56086Y-42116D01*
X56086Y-40977D01*
X56056Y-40904D01*
X56027Y-40875D01*
X56027Y-39008D01*
X56023Y-38997D01*
X56023Y-38543D01*
X55993Y-38471D01*
X55938Y-38416D01*
X55866Y-38386D01*
X55806Y-38386D01*
X55806Y-37736D01*
X55804Y-37730D01*
X55804Y-30448D01*
X55741Y-30295D01*
X55623Y-30178D01*
X55470Y-30114D01*
X55305Y-30114D01*
X55151Y-30177D01*
X55034Y-30295D01*
X54971Y-30448D01*
X54970Y-30613D01*
X55034Y-30767D01*
X55151Y-30884D01*
X55304Y-30947D01*
X55470Y-30948D01*
X55623Y-30884D01*
X55740Y-30767D01*
X55804Y-30614D01*
X55804Y-30448D01*
X55804Y-37730D01*
X55777Y-37664D01*
X55721Y-37609D01*
X55649Y-37579D01*
X55571Y-37578D01*
X55499Y-37608D01*
X55443Y-37664D01*
X55413Y-37736D01*
X55413Y-37814D01*
X55443Y-37886D01*
X55498Y-37942D01*
X55570Y-37972D01*
X55649Y-37972D01*
X55721Y-37942D01*
X55776Y-37887D01*
X55806Y-37814D01*
X55806Y-37736D01*
X55806Y-38386D01*
X55787Y-38386D01*
X55715Y-38415D01*
X55660Y-38471D01*
X55630Y-38543D01*
X55630Y-38621D01*
X55659Y-38693D01*
X55715Y-38749D01*
X55787Y-38779D01*
X55865Y-38779D01*
X55937Y-38749D01*
X55993Y-38694D01*
X56023Y-38621D01*
X56023Y-38543D01*
X56023Y-38997D01*
X55997Y-38935D01*
X55942Y-38880D01*
X55870Y-38850D01*
X55792Y-38850D01*
X55719Y-38880D01*
X55702Y-38897D01*
X55666Y-38861D01*
X55594Y-38831D01*
X55516Y-38831D01*
X55495Y-38839D01*
X55495Y-38189D01*
X55465Y-38116D01*
X55410Y-38061D01*
X55338Y-38031D01*
X55260Y-38031D01*
X55187Y-38061D01*
X55132Y-38116D01*
X55102Y-38188D01*
X55102Y-38266D01*
X55132Y-38339D01*
X55187Y-38394D01*
X55259Y-38424D01*
X55337Y-38424D01*
X55410Y-38394D01*
X55465Y-38339D01*
X55495Y-38267D01*
X55495Y-38189D01*
X55495Y-38839D01*
X55443Y-38861D01*
X55388Y-38916D01*
X55358Y-38988D01*
X55358Y-39066D01*
X55388Y-39139D01*
X55443Y-39194D01*
X55515Y-39224D01*
X55593Y-39224D01*
X55666Y-39194D01*
X55683Y-39177D01*
X55719Y-39213D01*
X55791Y-39243D01*
X55869Y-39243D01*
X55942Y-39213D01*
X55997Y-39158D01*
X56027Y-39086D01*
X56027Y-39008D01*
X56027Y-40875D01*
X56001Y-40849D01*
X55968Y-40835D01*
X55968Y-40193D01*
X55938Y-40120D01*
X55932Y-40114D01*
X55932Y-39792D01*
X55902Y-39719D01*
X55847Y-39664D01*
X55775Y-39634D01*
X55765Y-39634D01*
X55820Y-39611D01*
X55875Y-39556D01*
X55905Y-39484D01*
X55905Y-39406D01*
X55875Y-39333D01*
X55820Y-39278D01*
X55748Y-39248D01*
X55670Y-39248D01*
X55597Y-39278D01*
X55542Y-39333D01*
X55512Y-39405D01*
X55512Y-39478D01*
X55505Y-39471D01*
X55433Y-39441D01*
X55355Y-39441D01*
X55282Y-39471D01*
X55227Y-39526D01*
X55197Y-39598D01*
X55197Y-39676D01*
X55227Y-39749D01*
X55282Y-39804D01*
X55354Y-39834D01*
X55432Y-39834D01*
X55505Y-39804D01*
X55554Y-39755D01*
X55539Y-39791D01*
X55539Y-39869D01*
X55569Y-39942D01*
X55624Y-39997D01*
X55696Y-40027D01*
X55774Y-40027D01*
X55847Y-39997D01*
X55902Y-39942D01*
X55932Y-39870D01*
X55932Y-39792D01*
X55932Y-40114D01*
X55883Y-40065D01*
X55811Y-40035D01*
X55733Y-40035D01*
X55660Y-40065D01*
X55605Y-40120D01*
X55575Y-40192D01*
X55575Y-40270D01*
X55605Y-40343D01*
X55660Y-40398D01*
X55715Y-40421D01*
X55662Y-40421D01*
X55589Y-40451D01*
X55534Y-40506D01*
X55504Y-40578D01*
X55504Y-40656D01*
X55520Y-40695D01*
X55499Y-40674D01*
X55499Y-39993D01*
X55469Y-39920D01*
X55414Y-39865D01*
X55342Y-39835D01*
X55264Y-39835D01*
X55191Y-39865D01*
X55136Y-39920D01*
X55106Y-39992D01*
X55106Y-40070D01*
X55136Y-40143D01*
X55191Y-40198D01*
X55253Y-40224D01*
X55249Y-40224D01*
X55176Y-40254D01*
X55121Y-40309D01*
X55091Y-40381D01*
X55091Y-40459D01*
X55121Y-40532D01*
X55176Y-40587D01*
X55248Y-40617D01*
X55326Y-40617D01*
X55399Y-40587D01*
X55454Y-40532D01*
X55484Y-40460D01*
X55484Y-40382D01*
X55454Y-40309D01*
X55399Y-40254D01*
X55337Y-40228D01*
X55341Y-40228D01*
X55414Y-40198D01*
X55469Y-40143D01*
X55499Y-40071D01*
X55499Y-39993D01*
X55499Y-40674D01*
X55477Y-40652D01*
X55405Y-40622D01*
X55327Y-40622D01*
X55254Y-40652D01*
X55199Y-40707D01*
X55169Y-40779D01*
X55169Y-40857D01*
X55199Y-40930D01*
X55254Y-40985D01*
X55326Y-41015D01*
X55404Y-41015D01*
X55477Y-40985D01*
X55532Y-40930D01*
X55562Y-40858D01*
X55562Y-40780D01*
X55546Y-40741D01*
X55589Y-40784D01*
X55661Y-40814D01*
X55739Y-40814D01*
X55812Y-40784D01*
X55867Y-40729D01*
X55897Y-40657D01*
X55897Y-40579D01*
X55867Y-40506D01*
X55812Y-40451D01*
X55757Y-40428D01*
X55810Y-40428D01*
X55883Y-40398D01*
X55938Y-40343D01*
X55968Y-40271D01*
X55968Y-40193D01*
X55968Y-40835D01*
X55929Y-40819D01*
X55851Y-40819D01*
X55778Y-40849D01*
X55723Y-40904D01*
X55693Y-40976D01*
X55693Y-41054D01*
X55723Y-41127D01*
X55778Y-41182D01*
X55843Y-41209D01*
X55776Y-41209D01*
X55703Y-41239D01*
X55648Y-41294D01*
X55618Y-41366D01*
X55618Y-41378D01*
X55571Y-41378D01*
X55499Y-41408D01*
X55456Y-41450D01*
X55456Y-41170D01*
X55426Y-41097D01*
X55371Y-41042D01*
X55299Y-41012D01*
X55221Y-41012D01*
X55148Y-41042D01*
X55093Y-41097D01*
X55063Y-41169D01*
X55063Y-41247D01*
X55093Y-41320D01*
X55148Y-41375D01*
X55220Y-41405D01*
X55298Y-41405D01*
X55371Y-41375D01*
X55426Y-41320D01*
X55456Y-41248D01*
X55456Y-41170D01*
X55456Y-41450D01*
X55443Y-41463D01*
X55413Y-41535D01*
X55413Y-41613D01*
X55443Y-41686D01*
X55498Y-41741D01*
X55570Y-41771D01*
X55627Y-41771D01*
X55581Y-41817D01*
X55551Y-41889D01*
X55551Y-41968D01*
X55581Y-42040D01*
X55636Y-42095D01*
X55708Y-42125D01*
X55786Y-42125D01*
X55859Y-42095D01*
X55914Y-42040D01*
X55944Y-41968D01*
X55944Y-41890D01*
X55914Y-41817D01*
X55859Y-41762D01*
X55787Y-41732D01*
X55730Y-41732D01*
X55776Y-41686D01*
X55806Y-41614D01*
X55806Y-41602D01*
X55853Y-41602D01*
X55926Y-41572D01*
X55981Y-41517D01*
X56011Y-41445D01*
X56011Y-41367D01*
X55981Y-41294D01*
X55926Y-41239D01*
X55861Y-41212D01*
X55928Y-41212D01*
X56001Y-41182D01*
X56056Y-41127D01*
X56086Y-41055D01*
X56086Y-40977D01*
X56086Y-42116D01*
X56062Y-42106D01*
X55984Y-42106D01*
X55912Y-42136D01*
X55857Y-42191D01*
X55827Y-42263D01*
X55826Y-42342D01*
X55856Y-42414D01*
X55912Y-42469D01*
X55984Y-42499D01*
X56062Y-42499D01*
X56134Y-42469D01*
X56190Y-42414D01*
X56220Y-42342D01*
X56220Y-42264D01*
X56220Y-42851D01*
X56187Y-42864D01*
X56132Y-42919D01*
X56102Y-42992D01*
X56102Y-43070D01*
X56132Y-43142D01*
X56187Y-43198D01*
X56259Y-43228D01*
X56338Y-43228D01*
X56410Y-43198D01*
X56465Y-43143D01*
X56495Y-43070D01*
X56495Y-42992D01*
X56495Y-43790D01*
X56421Y-43759D01*
X56335Y-43759D01*
X56256Y-43792D01*
X56240Y-43808D01*
X56224Y-43792D01*
X56145Y-43759D01*
X56059Y-43759D01*
X55980Y-43792D01*
X55919Y-43852D01*
X55886Y-43931D01*
X55886Y-44017D01*
X55919Y-44096D01*
X55979Y-44157D01*
X56058Y-44190D01*
X56144Y-44190D01*
X56223Y-44157D01*
X56239Y-44141D01*
X56255Y-44157D01*
X56334Y-44190D01*
X56420Y-44190D01*
X56499Y-44157D01*
X56560Y-44097D01*
X56593Y-44018D01*
X56593Y-43932D01*
X56593Y-49701D01*
X56483Y-49701D01*
X56330Y-49765D01*
X56213Y-49882D01*
X56149Y-50035D01*
X56149Y-50201D01*
X56213Y-50354D01*
X56330Y-50471D01*
X56483Y-50535D01*
X56648Y-50535D01*
X56802Y-50471D01*
X56919Y-50354D01*
X56982Y-50201D01*
X56983Y-50036D01*
X56983Y-50570D01*
X56965Y-50570D01*
X56917Y-50551D01*
X56800Y-50550D01*
X56752Y-50570D01*
X56532Y-50570D01*
X56484Y-50551D01*
X56367Y-50550D01*
X56319Y-50570D01*
X55649Y-50570D01*
X55649Y-43028D01*
X55619Y-42955D01*
X55564Y-42900D01*
X55492Y-42870D01*
X55414Y-42870D01*
X55341Y-42900D01*
X55339Y-42902D01*
X55336Y-42900D01*
X55264Y-42870D01*
X55186Y-42870D01*
X55113Y-42900D01*
X55102Y-42911D01*
X55076Y-42884D01*
X55019Y-42861D01*
X55019Y-37441D01*
X54989Y-37369D01*
X54934Y-37313D01*
X54932Y-37313D01*
X54932Y-36292D01*
X54902Y-36219D01*
X54878Y-36195D01*
X54887Y-36186D01*
X54917Y-36114D01*
X54917Y-36036D01*
X54887Y-35963D01*
X54832Y-35908D01*
X54804Y-35896D01*
X54804Y-30448D01*
X54741Y-30295D01*
X54623Y-30178D01*
X54470Y-30114D01*
X54305Y-30114D01*
X54151Y-30177D01*
X54034Y-30295D01*
X53971Y-30448D01*
X53970Y-30613D01*
X54034Y-30767D01*
X54151Y-30884D01*
X54304Y-30947D01*
X54470Y-30948D01*
X54623Y-30884D01*
X54740Y-30767D01*
X54804Y-30614D01*
X54804Y-30448D01*
X54804Y-35896D01*
X54760Y-35878D01*
X54682Y-35878D01*
X54609Y-35908D01*
X54554Y-35963D01*
X54524Y-36035D01*
X54524Y-36113D01*
X54554Y-36186D01*
X54578Y-36210D01*
X54569Y-36219D01*
X54539Y-36291D01*
X54539Y-36369D01*
X54569Y-36442D01*
X54624Y-36497D01*
X54696Y-36527D01*
X54774Y-36527D01*
X54847Y-36497D01*
X54902Y-36442D01*
X54932Y-36370D01*
X54932Y-36292D01*
X54932Y-37313D01*
X54862Y-37283D01*
X54783Y-37283D01*
X54711Y-37313D01*
X54656Y-37368D01*
X54649Y-37384D01*
X54649Y-37280D01*
X54619Y-37207D01*
X54564Y-37152D01*
X54492Y-37122D01*
X54414Y-37122D01*
X54341Y-37152D01*
X54286Y-37207D01*
X54256Y-37279D01*
X54256Y-37357D01*
X54286Y-37430D01*
X54341Y-37485D01*
X54413Y-37515D01*
X54491Y-37515D01*
X54564Y-37485D01*
X54619Y-37430D01*
X54649Y-37358D01*
X54649Y-37280D01*
X54649Y-37384D01*
X54626Y-37441D01*
X54626Y-37519D01*
X54656Y-37591D01*
X54711Y-37646D01*
X54783Y-37676D01*
X54861Y-37676D01*
X54934Y-37647D01*
X54989Y-37591D01*
X55019Y-37519D01*
X55019Y-37441D01*
X55019Y-42861D01*
X55003Y-42854D01*
X54925Y-42854D01*
X54853Y-42884D01*
X54840Y-42896D01*
X54832Y-42888D01*
X54760Y-42858D01*
X54682Y-42858D01*
X54609Y-42888D01*
X54566Y-42931D01*
X54566Y-39587D01*
X54536Y-39514D01*
X54520Y-39498D01*
X54536Y-39481D01*
X54566Y-39409D01*
X54566Y-39331D01*
X54566Y-38937D01*
X54536Y-38865D01*
X54481Y-38809D01*
X54409Y-38779D01*
X54331Y-38779D01*
X54258Y-38809D01*
X54247Y-38820D01*
X54247Y-36378D01*
X54217Y-36306D01*
X54162Y-36250D01*
X54094Y-36222D01*
X54094Y-34567D01*
X54064Y-34495D01*
X54009Y-34439D01*
X53936Y-34409D01*
X53858Y-34409D01*
X53786Y-34439D01*
X53731Y-34494D01*
X53701Y-34567D01*
X53700Y-34645D01*
X53730Y-34717D01*
X53786Y-34772D01*
X53858Y-34802D01*
X53936Y-34802D01*
X54008Y-34773D01*
X54064Y-34717D01*
X54094Y-34645D01*
X54094Y-34567D01*
X54094Y-36222D01*
X54090Y-36220D01*
X54012Y-36220D01*
X53939Y-36250D01*
X53884Y-36305D01*
X53854Y-36378D01*
X53854Y-36456D01*
X53884Y-36528D01*
X53939Y-36583D01*
X54011Y-36613D01*
X54090Y-36613D01*
X54162Y-36584D01*
X54217Y-36528D01*
X54247Y-36456D01*
X54247Y-36378D01*
X54247Y-38820D01*
X54203Y-38864D01*
X54173Y-38937D01*
X54173Y-39015D01*
X54203Y-39087D01*
X54258Y-39142D01*
X54330Y-39172D01*
X54409Y-39173D01*
X54481Y-39143D01*
X54536Y-39087D01*
X54566Y-39015D01*
X54566Y-38937D01*
X54566Y-39331D01*
X54536Y-39258D01*
X54481Y-39203D01*
X54409Y-39173D01*
X54331Y-39173D01*
X54258Y-39203D01*
X54203Y-39258D01*
X54173Y-39330D01*
X54173Y-39409D01*
X54203Y-39481D01*
X54219Y-39498D01*
X54203Y-39514D01*
X54173Y-39586D01*
X54173Y-39664D01*
X54203Y-39737D01*
X54258Y-39792D01*
X54330Y-39822D01*
X54409Y-39822D01*
X54481Y-39792D01*
X54536Y-39737D01*
X54566Y-39665D01*
X54566Y-39587D01*
X54566Y-42931D01*
X54554Y-42943D01*
X54524Y-43015D01*
X54524Y-43093D01*
X54554Y-43166D01*
X54609Y-43221D01*
X54681Y-43251D01*
X54759Y-43251D01*
X54832Y-43221D01*
X54844Y-43209D01*
X54853Y-43217D01*
X54925Y-43247D01*
X55003Y-43247D01*
X55075Y-43217D01*
X55086Y-43206D01*
X55113Y-43233D01*
X55185Y-43263D01*
X55263Y-43263D01*
X55336Y-43233D01*
X55338Y-43231D01*
X55341Y-43233D01*
X55413Y-43263D01*
X55491Y-43263D01*
X55564Y-43233D01*
X55619Y-43178D01*
X55649Y-43106D01*
X55649Y-43028D01*
X55649Y-50570D01*
X54409Y-50570D01*
X54409Y-41004D01*
X54409Y-40610D01*
X54379Y-40538D01*
X54324Y-40483D01*
X54251Y-40453D01*
X54173Y-40452D01*
X54101Y-40482D01*
X54046Y-40538D01*
X54016Y-40610D01*
X54015Y-40688D01*
X54045Y-40760D01*
X54101Y-40816D01*
X54173Y-40846D01*
X54251Y-40846D01*
X54323Y-40816D01*
X54379Y-40761D01*
X54409Y-40688D01*
X54409Y-40610D01*
X54409Y-41004D01*
X54379Y-40932D01*
X54324Y-40876D01*
X54251Y-40846D01*
X54173Y-40846D01*
X54101Y-40876D01*
X54046Y-40931D01*
X54016Y-41004D01*
X54015Y-41082D01*
X54045Y-41154D01*
X54101Y-41209D01*
X54173Y-41239D01*
X54251Y-41239D01*
X54323Y-41210D01*
X54379Y-41154D01*
X54409Y-41082D01*
X54409Y-41004D01*
X54409Y-50570D01*
X54173Y-50570D01*
X54173Y-41378D01*
X54143Y-41306D01*
X54087Y-41250D01*
X54015Y-41220D01*
X53937Y-41220D01*
X53865Y-41250D01*
X53858Y-41257D01*
X53858Y-38316D01*
X53828Y-38243D01*
X53773Y-38188D01*
X53759Y-38182D01*
X53759Y-37470D01*
X53729Y-37398D01*
X53674Y-37343D01*
X53602Y-37313D01*
X53524Y-37313D01*
X53451Y-37343D01*
X53396Y-37398D01*
X53366Y-37470D01*
X53366Y-37548D01*
X53396Y-37621D01*
X53451Y-37676D01*
X53523Y-37706D01*
X53601Y-37706D01*
X53674Y-37676D01*
X53729Y-37621D01*
X53759Y-37549D01*
X53759Y-37470D01*
X53759Y-38182D01*
X53701Y-38158D01*
X53623Y-38158D01*
X53550Y-38188D01*
X53495Y-38243D01*
X53465Y-38315D01*
X53465Y-38366D01*
X53465Y-38366D01*
X53392Y-38396D01*
X53337Y-38451D01*
X53326Y-38477D01*
X53326Y-32342D01*
X53296Y-32270D01*
X53241Y-32215D01*
X53169Y-32185D01*
X53090Y-32185D01*
X53018Y-32215D01*
X52963Y-32270D01*
X52933Y-32342D01*
X52933Y-32420D01*
X52963Y-32493D01*
X53018Y-32548D01*
X53090Y-32578D01*
X53168Y-32578D01*
X53241Y-32548D01*
X53296Y-32493D01*
X53326Y-32421D01*
X53326Y-32342D01*
X53326Y-38477D01*
X53307Y-38523D01*
X53307Y-38601D01*
X53337Y-38674D01*
X53392Y-38729D01*
X53464Y-38759D01*
X53542Y-38759D01*
X53615Y-38729D01*
X53670Y-38674D01*
X53700Y-38602D01*
X53700Y-38551D01*
X53700Y-38551D01*
X53773Y-38521D01*
X53828Y-38466D01*
X53858Y-38394D01*
X53858Y-38316D01*
X53858Y-41257D01*
X53809Y-41305D01*
X53779Y-41378D01*
X53779Y-41387D01*
X53779Y-41387D01*
X53779Y-40162D01*
X53749Y-40089D01*
X53700Y-40040D01*
X53700Y-39331D01*
X53700Y-38937D01*
X53670Y-38865D01*
X53615Y-38809D01*
X53543Y-38779D01*
X53465Y-38779D01*
X53392Y-38809D01*
X53337Y-38864D01*
X53307Y-38937D01*
X53307Y-39015D01*
X53337Y-39087D01*
X53392Y-39142D01*
X53464Y-39172D01*
X53542Y-39173D01*
X53615Y-39143D01*
X53670Y-39087D01*
X53700Y-39015D01*
X53700Y-38937D01*
X53700Y-39331D01*
X53670Y-39258D01*
X53615Y-39203D01*
X53543Y-39173D01*
X53465Y-39173D01*
X53392Y-39203D01*
X53337Y-39258D01*
X53307Y-39330D01*
X53307Y-39409D01*
X53337Y-39481D01*
X53392Y-39536D01*
X53464Y-39566D01*
X53542Y-39566D01*
X53615Y-39536D01*
X53670Y-39481D01*
X53700Y-39409D01*
X53700Y-39331D01*
X53700Y-40040D01*
X53694Y-40034D01*
X53622Y-40004D01*
X53544Y-40004D01*
X53471Y-40034D01*
X53416Y-40089D01*
X53386Y-40161D01*
X53386Y-40239D01*
X53416Y-40312D01*
X53471Y-40367D01*
X53543Y-40397D01*
X53621Y-40397D01*
X53694Y-40367D01*
X53749Y-40312D01*
X53779Y-40240D01*
X53779Y-40162D01*
X53779Y-41387D01*
X53761Y-41369D01*
X53689Y-41339D01*
X53611Y-41339D01*
X53543Y-41367D01*
X53543Y-40610D01*
X53513Y-40538D01*
X53457Y-40483D01*
X53385Y-40453D01*
X53307Y-40452D01*
X53267Y-40469D01*
X53267Y-34823D01*
X53237Y-34750D01*
X53182Y-34695D01*
X53110Y-34665D01*
X53032Y-34665D01*
X52959Y-34695D01*
X52904Y-34750D01*
X52874Y-34822D01*
X52874Y-34898D01*
X52867Y-34898D01*
X52794Y-34928D01*
X52739Y-34983D01*
X52709Y-35055D01*
X52709Y-35133D01*
X52739Y-35206D01*
X52794Y-35261D01*
X52866Y-35291D01*
X52944Y-35291D01*
X53017Y-35261D01*
X53072Y-35206D01*
X53102Y-35134D01*
X53102Y-35058D01*
X53109Y-35058D01*
X53182Y-35028D01*
X53237Y-34973D01*
X53267Y-34901D01*
X53267Y-34823D01*
X53267Y-40469D01*
X53235Y-40482D01*
X53179Y-40538D01*
X53149Y-40610D01*
X53149Y-40658D01*
X53097Y-40679D01*
X53066Y-40710D01*
X53066Y-37288D01*
X53066Y-36713D01*
X53036Y-36640D01*
X52981Y-36585D01*
X52909Y-36555D01*
X52831Y-36555D01*
X52758Y-36585D01*
X52703Y-36640D01*
X52673Y-36712D01*
X52673Y-36790D01*
X52703Y-36863D01*
X52758Y-36918D01*
X52830Y-36948D01*
X52908Y-36948D01*
X52981Y-36918D01*
X53036Y-36863D01*
X53066Y-36791D01*
X53066Y-36713D01*
X53066Y-37288D01*
X53036Y-37215D01*
X52981Y-37160D01*
X52909Y-37130D01*
X52831Y-37130D01*
X52758Y-37160D01*
X52703Y-37215D01*
X52673Y-37287D01*
X52673Y-37311D01*
X52607Y-37311D01*
X52534Y-37341D01*
X52479Y-37396D01*
X52449Y-37468D01*
X52449Y-37546D01*
X52479Y-37619D01*
X52494Y-37634D01*
X52431Y-37660D01*
X52389Y-37702D01*
X52389Y-35851D01*
X52359Y-35778D01*
X52304Y-35723D01*
X52232Y-35693D01*
X52154Y-35693D01*
X52081Y-35723D01*
X52026Y-35778D01*
X51996Y-35850D01*
X51996Y-35928D01*
X52026Y-36001D01*
X52081Y-36056D01*
X52153Y-36086D01*
X52231Y-36086D01*
X52304Y-36056D01*
X52359Y-36001D01*
X52389Y-35929D01*
X52389Y-35851D01*
X52389Y-37702D01*
X52376Y-37715D01*
X52346Y-37787D01*
X52346Y-37865D01*
X52376Y-37938D01*
X52431Y-37993D01*
X52491Y-38018D01*
X52451Y-38057D01*
X52421Y-38130D01*
X52421Y-38208D01*
X52451Y-38280D01*
X52506Y-38335D01*
X52578Y-38365D01*
X52657Y-38365D01*
X52729Y-38336D01*
X52784Y-38280D01*
X52814Y-38208D01*
X52814Y-38130D01*
X52784Y-38058D01*
X52729Y-38002D01*
X52670Y-37977D01*
X52709Y-37938D01*
X52739Y-37866D01*
X52739Y-37788D01*
X52709Y-37715D01*
X52694Y-37700D01*
X52757Y-37674D01*
X52812Y-37619D01*
X52842Y-37547D01*
X52842Y-37523D01*
X52908Y-37523D01*
X52981Y-37493D01*
X53036Y-37438D01*
X53066Y-37366D01*
X53066Y-37288D01*
X53066Y-40710D01*
X53042Y-40734D01*
X53012Y-40807D01*
X53012Y-40885D01*
X53041Y-40957D01*
X53097Y-41013D01*
X53169Y-41043D01*
X53247Y-41043D01*
X53319Y-41013D01*
X53375Y-40957D01*
X53405Y-40885D01*
X53405Y-40838D01*
X53457Y-40816D01*
X53513Y-40761D01*
X53543Y-40688D01*
X53543Y-40610D01*
X53543Y-41367D01*
X53538Y-41369D01*
X53484Y-41423D01*
X53484Y-41201D01*
X53454Y-41128D01*
X53398Y-41073D01*
X53326Y-41043D01*
X53248Y-41043D01*
X53176Y-41073D01*
X53120Y-41128D01*
X53090Y-41200D01*
X53090Y-41279D01*
X53120Y-41351D01*
X53175Y-41406D01*
X53248Y-41436D01*
X53326Y-41436D01*
X53398Y-41406D01*
X53453Y-41351D01*
X53483Y-41279D01*
X53484Y-41201D01*
X53484Y-41423D01*
X53483Y-41424D01*
X53453Y-41496D01*
X53453Y-41574D01*
X53483Y-41647D01*
X53538Y-41702D01*
X53610Y-41732D01*
X53688Y-41732D01*
X53761Y-41702D01*
X53816Y-41647D01*
X53846Y-41575D01*
X53846Y-41565D01*
X53864Y-41583D01*
X53937Y-41613D01*
X54015Y-41613D01*
X54087Y-41584D01*
X54142Y-41528D01*
X54172Y-41456D01*
X54173Y-41378D01*
X54173Y-50570D01*
X53775Y-50570D01*
X53775Y-42083D01*
X53745Y-42010D01*
X53695Y-41960D01*
X53700Y-41948D01*
X53700Y-41870D01*
X53670Y-41798D01*
X53615Y-41742D01*
X53543Y-41712D01*
X53465Y-41712D01*
X53392Y-41742D01*
X53337Y-41797D01*
X53307Y-41870D01*
X53307Y-41948D01*
X53337Y-42020D01*
X53387Y-42070D01*
X53382Y-42082D01*
X53382Y-42160D01*
X53412Y-42233D01*
X53467Y-42288D01*
X53539Y-42318D01*
X53617Y-42318D01*
X53690Y-42288D01*
X53745Y-42233D01*
X53775Y-42161D01*
X53775Y-42083D01*
X53775Y-50570D01*
X53441Y-50570D01*
X53441Y-48970D01*
X53409Y-48890D01*
X53363Y-48845D01*
X53409Y-48800D01*
X53441Y-48721D01*
X53441Y-48635D01*
X53409Y-48556D01*
X53368Y-48515D01*
X53409Y-48475D01*
X53441Y-48396D01*
X53441Y-48310D01*
X53409Y-48231D01*
X53354Y-48176D01*
X53389Y-48140D01*
X53422Y-48061D01*
X53422Y-47975D01*
X53389Y-47896D01*
X53328Y-47835D01*
X53318Y-47831D01*
X53328Y-47827D01*
X53389Y-47766D01*
X53422Y-47687D01*
X53422Y-47601D01*
X53389Y-47522D01*
X53359Y-47492D01*
X53399Y-47451D01*
X53432Y-47372D01*
X53432Y-47286D01*
X53399Y-47207D01*
X53338Y-47146D01*
X53259Y-47114D01*
X53173Y-47114D01*
X53094Y-47146D01*
X53049Y-47192D01*
X53004Y-47146D01*
X52979Y-47136D01*
X52979Y-45172D01*
X52946Y-45093D01*
X52910Y-45057D01*
X52945Y-45022D01*
X52978Y-44943D01*
X52978Y-44857D01*
X52946Y-44778D01*
X52885Y-44717D01*
X52814Y-44688D01*
X52814Y-38524D01*
X52784Y-38451D01*
X52729Y-38396D01*
X52657Y-38366D01*
X52579Y-38366D01*
X52506Y-38396D01*
X52451Y-38451D01*
X52421Y-38523D01*
X52421Y-38601D01*
X52451Y-38674D01*
X52506Y-38729D01*
X52578Y-38759D01*
X52657Y-38759D01*
X52729Y-38729D01*
X52784Y-38674D01*
X52814Y-38602D01*
X52814Y-38524D01*
X52814Y-44688D01*
X52806Y-44684D01*
X52731Y-44684D01*
X52731Y-41693D01*
X52701Y-41620D01*
X52646Y-41565D01*
X52578Y-41537D01*
X52578Y-40165D01*
X52548Y-40093D01*
X52493Y-40038D01*
X52428Y-40011D01*
X52428Y-39977D01*
X52398Y-39904D01*
X52343Y-39849D01*
X52271Y-39819D01*
X52193Y-39819D01*
X52120Y-39849D01*
X52065Y-39904D01*
X52035Y-39976D01*
X52035Y-40054D01*
X52065Y-40127D01*
X52120Y-40182D01*
X52185Y-40209D01*
X52185Y-40243D01*
X52215Y-40315D01*
X52270Y-40371D01*
X52342Y-40401D01*
X52420Y-40401D01*
X52493Y-40371D01*
X52548Y-40316D01*
X52578Y-40244D01*
X52578Y-40165D01*
X52578Y-41537D01*
X52574Y-41535D01*
X52504Y-41535D01*
X52504Y-41493D01*
X52474Y-41420D01*
X52419Y-41365D01*
X52346Y-41335D01*
X52268Y-41335D01*
X52196Y-41365D01*
X52141Y-41420D01*
X52111Y-41492D01*
X52110Y-41570D01*
X52140Y-41643D01*
X52196Y-41698D01*
X52267Y-41728D01*
X52244Y-41728D01*
X52172Y-41758D01*
X52117Y-41813D01*
X52087Y-41885D01*
X52087Y-41963D01*
X52116Y-42036D01*
X52172Y-42091D01*
X52244Y-42121D01*
X52322Y-42121D01*
X52394Y-42091D01*
X52450Y-42036D01*
X52480Y-41964D01*
X52480Y-41922D01*
X52495Y-41928D01*
X52573Y-41928D01*
X52646Y-41898D01*
X52701Y-41843D01*
X52731Y-41771D01*
X52731Y-41693D01*
X52731Y-44684D01*
X52720Y-44684D01*
X52641Y-44717D01*
X52580Y-44778D01*
X52547Y-44857D01*
X52547Y-44943D01*
X52580Y-45022D01*
X52615Y-45058D01*
X52581Y-45093D01*
X52548Y-45172D01*
X52548Y-45258D01*
X52580Y-45337D01*
X52641Y-45398D01*
X52720Y-45430D01*
X52806Y-45430D01*
X52885Y-45398D01*
X52946Y-45337D01*
X52979Y-45258D01*
X52979Y-45172D01*
X52979Y-47136D01*
X52924Y-47114D01*
X52839Y-47114D01*
X52759Y-47146D01*
X52719Y-47187D01*
X52679Y-47146D01*
X52600Y-47114D01*
X52514Y-47114D01*
X52435Y-47146D01*
X52394Y-47187D01*
X52354Y-47146D01*
X52275Y-47114D01*
X52270Y-47114D01*
X52270Y-45172D01*
X52237Y-45093D01*
X52201Y-45057D01*
X52237Y-45022D01*
X52269Y-44943D01*
X52270Y-44857D01*
X52237Y-44778D01*
X52176Y-44717D01*
X52097Y-44684D01*
X52011Y-44684D01*
X51932Y-44717D01*
X51928Y-44721D01*
X51928Y-36422D01*
X51898Y-36349D01*
X51865Y-36316D01*
X51865Y-35249D01*
X51835Y-35176D01*
X51780Y-35121D01*
X51708Y-35091D01*
X51630Y-35091D01*
X51557Y-35121D01*
X51502Y-35176D01*
X51472Y-35248D01*
X51472Y-35326D01*
X51502Y-35399D01*
X51557Y-35454D01*
X51629Y-35484D01*
X51707Y-35484D01*
X51780Y-35454D01*
X51835Y-35399D01*
X51865Y-35327D01*
X51865Y-35249D01*
X51865Y-36316D01*
X51843Y-36294D01*
X51771Y-36264D01*
X51693Y-36264D01*
X51641Y-36285D01*
X51641Y-35890D01*
X51611Y-35817D01*
X51556Y-35762D01*
X51484Y-35732D01*
X51406Y-35732D01*
X51384Y-35741D01*
X51384Y-34201D01*
X51351Y-34122D01*
X51291Y-34061D01*
X51212Y-34028D01*
X51126Y-34028D01*
X51047Y-34061D01*
X50986Y-34121D01*
X50953Y-34200D01*
X50953Y-34286D01*
X50986Y-34365D01*
X51046Y-34426D01*
X51125Y-34459D01*
X51211Y-34459D01*
X51290Y-34426D01*
X51351Y-34366D01*
X51384Y-34287D01*
X51384Y-34201D01*
X51384Y-35741D01*
X51333Y-35762D01*
X51278Y-35817D01*
X51248Y-35889D01*
X51248Y-35967D01*
X51278Y-36040D01*
X51333Y-36095D01*
X51405Y-36125D01*
X51483Y-36125D01*
X51556Y-36095D01*
X51611Y-36040D01*
X51641Y-35968D01*
X51641Y-35890D01*
X51641Y-36285D01*
X51620Y-36294D01*
X51565Y-36349D01*
X51535Y-36421D01*
X51535Y-36499D01*
X51565Y-36572D01*
X51620Y-36627D01*
X51692Y-36657D01*
X51770Y-36657D01*
X51843Y-36627D01*
X51898Y-36572D01*
X51928Y-36500D01*
X51928Y-36422D01*
X51928Y-44721D01*
X51924Y-44725D01*
X51924Y-37201D01*
X51894Y-37128D01*
X51864Y-37098D01*
X51894Y-37068D01*
X51924Y-36996D01*
X51924Y-36918D01*
X51894Y-36845D01*
X51839Y-36790D01*
X51767Y-36760D01*
X51689Y-36760D01*
X51616Y-36790D01*
X51561Y-36845D01*
X51531Y-36917D01*
X51531Y-36995D01*
X51561Y-37068D01*
X51591Y-37098D01*
X51561Y-37128D01*
X51531Y-37200D01*
X51531Y-37278D01*
X51561Y-37351D01*
X51580Y-37370D01*
X51554Y-37396D01*
X51524Y-37468D01*
X51524Y-37546D01*
X51554Y-37619D01*
X51609Y-37674D01*
X51681Y-37704D01*
X51759Y-37704D01*
X51832Y-37674D01*
X51887Y-37619D01*
X51917Y-37547D01*
X51917Y-37469D01*
X51887Y-37396D01*
X51868Y-37377D01*
X51894Y-37351D01*
X51924Y-37279D01*
X51924Y-37201D01*
X51924Y-44725D01*
X51913Y-44736D01*
X51913Y-37953D01*
X51883Y-37880D01*
X51828Y-37825D01*
X51756Y-37795D01*
X51678Y-37795D01*
X51605Y-37825D01*
X51550Y-37880D01*
X51520Y-37952D01*
X51520Y-38030D01*
X51550Y-38103D01*
X51605Y-38158D01*
X51677Y-38188D01*
X51755Y-38188D01*
X51828Y-38158D01*
X51883Y-38103D01*
X51913Y-38031D01*
X51913Y-37953D01*
X51913Y-44736D01*
X51871Y-44778D01*
X51838Y-44857D01*
X51838Y-44943D01*
X51871Y-45022D01*
X51907Y-45058D01*
X51872Y-45093D01*
X51839Y-45172D01*
X51839Y-45258D01*
X51871Y-45337D01*
X51932Y-45398D01*
X52011Y-45431D01*
X52097Y-45431D01*
X52176Y-45398D01*
X52237Y-45337D01*
X52270Y-45258D01*
X52270Y-45172D01*
X52270Y-47114D01*
X52189Y-47114D01*
X52110Y-47146D01*
X52079Y-47177D01*
X52049Y-47146D01*
X51970Y-47114D01*
X51884Y-47114D01*
X51805Y-47146D01*
X51774Y-47177D01*
X51744Y-47146D01*
X51665Y-47114D01*
X51579Y-47114D01*
X51500Y-47146D01*
X51474Y-47172D01*
X51449Y-47146D01*
X51369Y-47114D01*
X51284Y-47114D01*
X51204Y-47146D01*
X51144Y-47207D01*
X51111Y-47286D01*
X51111Y-47372D01*
X51143Y-47451D01*
X51179Y-47487D01*
X51144Y-47522D01*
X51111Y-47601D01*
X51111Y-47687D01*
X51143Y-47766D01*
X51204Y-47827D01*
X51214Y-47831D01*
X51204Y-47835D01*
X51144Y-47896D01*
X51111Y-47975D01*
X51111Y-48061D01*
X51143Y-48140D01*
X51189Y-48186D01*
X51144Y-48231D01*
X51111Y-48310D01*
X51111Y-48395D01*
X51143Y-48475D01*
X51179Y-48510D01*
X51144Y-48545D01*
X51111Y-48625D01*
X51111Y-48710D01*
X51143Y-48790D01*
X51189Y-48835D01*
X51144Y-48880D01*
X51111Y-48959D01*
X51111Y-49045D01*
X51143Y-49124D01*
X51204Y-49185D01*
X51283Y-49218D01*
X51369Y-49218D01*
X51448Y-49185D01*
X51474Y-49160D01*
X51509Y-49195D01*
X51588Y-49228D01*
X51674Y-49228D01*
X51753Y-49195D01*
X51779Y-49170D01*
X51804Y-49195D01*
X51884Y-49228D01*
X51969Y-49228D01*
X52049Y-49195D01*
X52084Y-49160D01*
X52119Y-49195D01*
X52199Y-49228D01*
X52284Y-49228D01*
X52364Y-49195D01*
X52404Y-49155D01*
X52444Y-49195D01*
X52523Y-49228D01*
X52609Y-49228D01*
X52688Y-49195D01*
X52729Y-49155D01*
X52769Y-49195D01*
X52848Y-49228D01*
X52934Y-49228D01*
X53013Y-49195D01*
X53059Y-49150D01*
X53104Y-49195D01*
X53183Y-49228D01*
X53269Y-49228D01*
X53348Y-49195D01*
X53409Y-49135D01*
X53441Y-49055D01*
X53441Y-48970D01*
X53441Y-50570D01*
X50924Y-50570D01*
X50924Y-37913D01*
X50895Y-37841D01*
X50839Y-37786D01*
X50767Y-37756D01*
X50696Y-37756D01*
X50696Y-32063D01*
X50666Y-31991D01*
X50611Y-31935D01*
X50539Y-31905D01*
X50461Y-31905D01*
X50388Y-31935D01*
X50333Y-31990D01*
X50303Y-32063D01*
X50303Y-32141D01*
X50333Y-32213D01*
X50388Y-32268D01*
X50460Y-32298D01*
X50538Y-32299D01*
X50611Y-32269D01*
X50666Y-32213D01*
X50696Y-32141D01*
X50696Y-32063D01*
X50696Y-37756D01*
X50689Y-37756D01*
X50617Y-37785D01*
X50561Y-37841D01*
X50531Y-37913D01*
X50531Y-37991D01*
X50561Y-38063D01*
X50616Y-38119D01*
X50689Y-38149D01*
X50767Y-38149D01*
X50839Y-38119D01*
X50894Y-38064D01*
X50924Y-37992D01*
X50924Y-37913D01*
X50924Y-50570D01*
X50216Y-50570D01*
X50216Y-36382D01*
X50186Y-36310D01*
X50131Y-36254D01*
X50058Y-36224D01*
X49980Y-36224D01*
X49944Y-36239D01*
X49944Y-36186D01*
X49914Y-36113D01*
X49859Y-36058D01*
X49787Y-36028D01*
X49709Y-36028D01*
X49636Y-36058D01*
X49581Y-36113D01*
X49551Y-36185D01*
X49551Y-36263D01*
X49581Y-36336D01*
X49636Y-36391D01*
X49708Y-36421D01*
X49786Y-36421D01*
X49823Y-36406D01*
X49823Y-36460D01*
X49852Y-36532D01*
X49908Y-36587D01*
X49980Y-36617D01*
X50058Y-36617D01*
X50130Y-36588D01*
X50186Y-36532D01*
X50216Y-36460D01*
X50216Y-36382D01*
X50216Y-50570D01*
X50113Y-50570D01*
X50113Y-36973D01*
X50083Y-36900D01*
X50028Y-36845D01*
X49956Y-36815D01*
X49878Y-36815D01*
X49805Y-36845D01*
X49750Y-36900D01*
X49720Y-36972D01*
X49720Y-37027D01*
X49673Y-37008D01*
X49595Y-37008D01*
X49522Y-37038D01*
X49467Y-37093D01*
X49437Y-37165D01*
X49437Y-37223D01*
X49393Y-37205D01*
X49315Y-37205D01*
X49242Y-37235D01*
X49187Y-37290D01*
X49157Y-37362D01*
X49157Y-37440D01*
X49187Y-37513D01*
X49242Y-37568D01*
X49314Y-37598D01*
X49392Y-37598D01*
X49465Y-37568D01*
X49520Y-37513D01*
X49550Y-37441D01*
X49550Y-37383D01*
X49594Y-37401D01*
X49672Y-37401D01*
X49745Y-37371D01*
X49800Y-37316D01*
X49830Y-37244D01*
X49830Y-37189D01*
X49877Y-37208D01*
X49955Y-37208D01*
X50028Y-37178D01*
X50083Y-37123D01*
X50113Y-37051D01*
X50113Y-36973D01*
X50113Y-50570D01*
X48905Y-50570D01*
X48905Y-37689D01*
X48875Y-37617D01*
X48874Y-37616D01*
X48875Y-37615D01*
X48905Y-37543D01*
X48905Y-37465D01*
X48875Y-37392D01*
X48820Y-37337D01*
X48747Y-37307D01*
X48669Y-37307D01*
X48597Y-37337D01*
X48542Y-37392D01*
X48512Y-37464D01*
X48512Y-37542D01*
X48541Y-37615D01*
X48542Y-37616D01*
X48542Y-37616D01*
X48512Y-37689D01*
X48512Y-37767D01*
X48541Y-37839D01*
X48597Y-37894D01*
X48669Y-37924D01*
X48747Y-37924D01*
X48819Y-37895D01*
X48875Y-37839D01*
X48905Y-37767D01*
X48905Y-37689D01*
X48905Y-50570D01*
X46771Y-50570D01*
X46771Y-48937D01*
X46741Y-48865D01*
X46686Y-48809D01*
X46614Y-48779D01*
X46535Y-48779D01*
X46463Y-48809D01*
X46417Y-48855D01*
X46371Y-48809D01*
X46299Y-48779D01*
X46220Y-48779D01*
X46148Y-48809D01*
X46102Y-48855D01*
X46056Y-48809D01*
X45984Y-48779D01*
X45905Y-48779D01*
X45833Y-48809D01*
X45787Y-48855D01*
X45741Y-48809D01*
X45669Y-48779D01*
X45590Y-48779D01*
X45518Y-48809D01*
X45472Y-48855D01*
X45426Y-48809D01*
X45354Y-48779D01*
X45276Y-48779D01*
X45203Y-48809D01*
X45157Y-48855D01*
X45111Y-48809D01*
X45039Y-48779D01*
X44961Y-48779D01*
X44888Y-48809D01*
X44833Y-48864D01*
X44803Y-48937D01*
X44803Y-49015D01*
X44833Y-49087D01*
X44879Y-49133D01*
X44833Y-49179D01*
X44803Y-49252D01*
X44803Y-49330D01*
X44833Y-49402D01*
X44879Y-49448D01*
X44833Y-49494D01*
X44803Y-49567D01*
X44803Y-49645D01*
X44833Y-49717D01*
X44888Y-49772D01*
X44960Y-49802D01*
X45038Y-49802D01*
X45111Y-49773D01*
X45157Y-49726D01*
X45203Y-49772D01*
X45275Y-49802D01*
X45353Y-49802D01*
X45426Y-49773D01*
X45472Y-49726D01*
X45518Y-49772D01*
X45590Y-49802D01*
X45668Y-49802D01*
X45741Y-49773D01*
X45796Y-49717D01*
X45826Y-49645D01*
X45826Y-49567D01*
X45796Y-49495D01*
X45750Y-49448D01*
X45796Y-49402D01*
X45826Y-49330D01*
X45826Y-49252D01*
X45796Y-49180D01*
X45750Y-49133D01*
X45787Y-49096D01*
X45833Y-49142D01*
X45905Y-49172D01*
X45983Y-49173D01*
X46056Y-49143D01*
X46102Y-49096D01*
X46148Y-49142D01*
X46220Y-49172D01*
X46298Y-49173D01*
X46371Y-49143D01*
X46417Y-49096D01*
X46463Y-49142D01*
X46535Y-49172D01*
X46613Y-49173D01*
X46686Y-49143D01*
X46741Y-49087D01*
X46771Y-49015D01*
X46771Y-48937D01*
X46771Y-50570D01*
X44687Y-50570D01*
X44687Y-48135D01*
X44687Y-30335D01*
X44639Y-30218D01*
X44549Y-30129D01*
X44432Y-30080D01*
X44306Y-30080D01*
X44189Y-30128D01*
X44099Y-30218D01*
X44051Y-30335D01*
X44051Y-30461D01*
X44099Y-30578D01*
X44188Y-30668D01*
X44305Y-30716D01*
X44432Y-30716D01*
X44549Y-30668D01*
X44638Y-30579D01*
X44687Y-30462D01*
X44687Y-30335D01*
X44687Y-48135D01*
X44639Y-48018D01*
X44549Y-47928D01*
X44432Y-47880D01*
X44306Y-47880D01*
X44189Y-47928D01*
X44099Y-48017D01*
X44051Y-48134D01*
X44051Y-48261D01*
X44099Y-48378D01*
X44188Y-48467D01*
X44305Y-48516D01*
X44432Y-48516D01*
X44549Y-48468D01*
X44638Y-48378D01*
X44687Y-48261D01*
X44687Y-48135D01*
X44687Y-50570D01*
X43586Y-50570D01*
X43586Y-32878D01*
X43556Y-32806D01*
X43501Y-32750D01*
X43429Y-32720D01*
X43350Y-32720D01*
X43278Y-32750D01*
X43223Y-32805D01*
X43193Y-32878D01*
X43193Y-32956D01*
X43222Y-33028D01*
X43278Y-33083D01*
X43350Y-33113D01*
X43428Y-33113D01*
X43500Y-33084D01*
X43556Y-33028D01*
X43586Y-32956D01*
X43586Y-32878D01*
X43586Y-50570D01*
X42995Y-50570D01*
X42995Y-30551D01*
X42965Y-30479D01*
X42910Y-30423D01*
X42838Y-30393D01*
X42760Y-30393D01*
X42687Y-30423D01*
X42632Y-30479D01*
X42602Y-30551D01*
X42602Y-30629D01*
X42632Y-30701D01*
X42687Y-30757D01*
X42759Y-30787D01*
X42838Y-30787D01*
X42910Y-30757D01*
X42965Y-30702D01*
X42995Y-30629D01*
X42995Y-30551D01*
X42995Y-50570D01*
X42929Y-50570D01*
X42882Y-50551D01*
X42764Y-50550D01*
X42716Y-50570D01*
X42602Y-50570D01*
X42602Y-30551D01*
X42572Y-30479D01*
X42517Y-30423D01*
X42444Y-30393D01*
X42405Y-30393D01*
X42405Y-30386D01*
X42375Y-30313D01*
X42320Y-30258D01*
X42247Y-30228D01*
X42169Y-30228D01*
X42097Y-30258D01*
X42042Y-30313D01*
X42012Y-30385D01*
X42012Y-30393D01*
X42011Y-30393D01*
X42011Y-30386D01*
X41981Y-30313D01*
X41926Y-30258D01*
X41854Y-30228D01*
X41776Y-30228D01*
X41703Y-30258D01*
X41648Y-30313D01*
X41618Y-30385D01*
X41618Y-30464D01*
X41648Y-30536D01*
X41703Y-30591D01*
X41775Y-30621D01*
X41815Y-30621D01*
X41815Y-30629D01*
X41845Y-30701D01*
X41900Y-30757D01*
X41972Y-30787D01*
X42050Y-30787D01*
X42123Y-30757D01*
X42178Y-30702D01*
X42208Y-30629D01*
X42208Y-30621D01*
X42208Y-30621D01*
X42208Y-30629D01*
X42238Y-30701D01*
X42293Y-30757D01*
X42366Y-30787D01*
X42444Y-30787D01*
X42516Y-30757D01*
X42572Y-30702D01*
X42602Y-30629D01*
X42602Y-30551D01*
X42602Y-50570D01*
X42495Y-50570D01*
X42448Y-50551D01*
X42330Y-50550D01*
X42282Y-50570D01*
X42208Y-50570D01*
X42208Y-32913D01*
X42178Y-32841D01*
X42123Y-32786D01*
X42051Y-32756D01*
X41972Y-32756D01*
X41900Y-32785D01*
X41845Y-32841D01*
X41815Y-32913D01*
X41815Y-32991D01*
X41845Y-33063D01*
X41900Y-33119D01*
X41972Y-33149D01*
X42050Y-33149D01*
X42123Y-33119D01*
X42178Y-33064D01*
X42208Y-32992D01*
X42208Y-32913D01*
X42208Y-50570D01*
X42064Y-50570D01*
X42017Y-50551D01*
X41899Y-50550D01*
X41851Y-50570D01*
X41631Y-50570D01*
X41617Y-50565D01*
X41617Y-32913D01*
X41617Y-30386D01*
X41588Y-30313D01*
X41532Y-30258D01*
X41460Y-30228D01*
X41382Y-30228D01*
X41310Y-30258D01*
X41254Y-30313D01*
X41224Y-30385D01*
X41224Y-30464D01*
X41254Y-30536D01*
X41309Y-30591D01*
X41381Y-30621D01*
X41460Y-30621D01*
X41532Y-30591D01*
X41587Y-30536D01*
X41617Y-30464D01*
X41617Y-30386D01*
X41617Y-32913D01*
X41588Y-32841D01*
X41532Y-32786D01*
X41460Y-32756D01*
X41382Y-32756D01*
X41310Y-32785D01*
X41254Y-32841D01*
X41224Y-32913D01*
X41224Y-32991D01*
X41254Y-33063D01*
X41309Y-33119D01*
X41381Y-33149D01*
X41460Y-33149D01*
X41532Y-33119D01*
X41587Y-33064D01*
X41617Y-32992D01*
X41617Y-32913D01*
X41617Y-50565D01*
X41584Y-50551D01*
X41466Y-50550D01*
X41418Y-50570D01*
X41027Y-50570D01*
X41027Y-30386D01*
X40997Y-30313D01*
X40942Y-30258D01*
X40869Y-30228D01*
X40791Y-30228D01*
X40719Y-30258D01*
X40664Y-30313D01*
X40634Y-30385D01*
X40634Y-30464D01*
X40663Y-30536D01*
X40719Y-30591D01*
X40791Y-30621D01*
X40869Y-30621D01*
X40941Y-30591D01*
X40997Y-30536D01*
X41027Y-30464D01*
X41027Y-30386D01*
X41027Y-50570D01*
X40633Y-50570D01*
X40633Y-30386D01*
X40603Y-30313D01*
X40548Y-30258D01*
X40476Y-30228D01*
X40398Y-30228D01*
X40325Y-30258D01*
X40270Y-30313D01*
X40240Y-30385D01*
X40240Y-30393D01*
X40239Y-30393D01*
X40239Y-30386D01*
X40210Y-30313D01*
X40154Y-30258D01*
X40082Y-30228D01*
X40004Y-30228D01*
X39932Y-30258D01*
X39876Y-30313D01*
X39846Y-30385D01*
X39846Y-30393D01*
X39807Y-30393D01*
X39735Y-30423D01*
X39679Y-30479D01*
X39649Y-30551D01*
X39649Y-30629D01*
X39679Y-30701D01*
X39734Y-30757D01*
X39807Y-30787D01*
X39885Y-30787D01*
X39957Y-30757D01*
X40013Y-30702D01*
X40043Y-30629D01*
X40043Y-30621D01*
X40043Y-30621D01*
X40043Y-30629D01*
X40073Y-30701D01*
X40128Y-30757D01*
X40200Y-30787D01*
X40279Y-30787D01*
X40351Y-30757D01*
X40406Y-30702D01*
X40436Y-30629D01*
X40436Y-30621D01*
X40475Y-30621D01*
X40548Y-30591D01*
X40603Y-30536D01*
X40633Y-30464D01*
X40633Y-30386D01*
X40633Y-50570D01*
X39649Y-50570D01*
X39649Y-30551D01*
X39619Y-30479D01*
X39564Y-30423D01*
X39492Y-30393D01*
X39413Y-30393D01*
X39341Y-30423D01*
X39286Y-30479D01*
X39256Y-30551D01*
X39256Y-30629D01*
X39285Y-30701D01*
X39341Y-30757D01*
X39413Y-30787D01*
X39491Y-30787D01*
X39563Y-30757D01*
X39619Y-30702D01*
X39649Y-30629D01*
X39649Y-30551D01*
X39649Y-50570D01*
X39255Y-50570D01*
X39255Y-30551D01*
X39225Y-30479D01*
X39170Y-30423D01*
X39098Y-30393D01*
X39058Y-30393D01*
X39058Y-30386D01*
X39028Y-30313D01*
X38973Y-30258D01*
X38901Y-30228D01*
X38823Y-30228D01*
X38750Y-30258D01*
X38695Y-30313D01*
X38665Y-30385D01*
X38665Y-30464D01*
X38695Y-30536D01*
X38750Y-30591D01*
X38822Y-30621D01*
X38862Y-30621D01*
X38862Y-30629D01*
X38892Y-30701D01*
X38947Y-30757D01*
X39019Y-30787D01*
X39097Y-30787D01*
X39170Y-30757D01*
X39225Y-30702D01*
X39255Y-30629D01*
X39255Y-30551D01*
X39255Y-50570D01*
X38468Y-50570D01*
X38468Y-30551D01*
X38438Y-30479D01*
X38383Y-30423D01*
X38310Y-30393D01*
X38271Y-30393D01*
X38271Y-30386D01*
X38241Y-30313D01*
X38186Y-30258D01*
X38114Y-30228D01*
X38035Y-30228D01*
X37963Y-30258D01*
X37908Y-30313D01*
X37878Y-30385D01*
X37878Y-30393D01*
X37839Y-30393D01*
X37766Y-30423D01*
X37711Y-30479D01*
X37681Y-30551D01*
X37681Y-30629D01*
X37711Y-30701D01*
X37766Y-30757D01*
X37838Y-30787D01*
X37916Y-30787D01*
X37989Y-30757D01*
X38044Y-30702D01*
X38074Y-30629D01*
X38074Y-30621D01*
X38075Y-30621D01*
X38075Y-30629D01*
X38104Y-30701D01*
X38160Y-30757D01*
X38232Y-30787D01*
X38310Y-30787D01*
X38382Y-30757D01*
X38438Y-30702D01*
X38468Y-30629D01*
X38468Y-30551D01*
X38468Y-50570D01*
X37413Y-50570D01*
X37413Y-48135D01*
X37413Y-30335D01*
X37365Y-30218D01*
X37275Y-30129D01*
X37158Y-30080D01*
X37032Y-30080D01*
X36915Y-30128D01*
X36825Y-30218D01*
X36777Y-30335D01*
X36777Y-30461D01*
X36825Y-30578D01*
X36914Y-30668D01*
X37031Y-30716D01*
X37158Y-30716D01*
X37275Y-30668D01*
X37364Y-30579D01*
X37413Y-30462D01*
X37413Y-30335D01*
X37413Y-48135D01*
X37365Y-48018D01*
X37275Y-47928D01*
X37158Y-47880D01*
X37032Y-47880D01*
X36915Y-47928D01*
X36825Y-48017D01*
X36777Y-48134D01*
X36777Y-48261D01*
X36825Y-48378D01*
X36914Y-48467D01*
X37031Y-48516D01*
X37158Y-48516D01*
X37275Y-48468D01*
X37364Y-48378D01*
X37413Y-48261D01*
X37413Y-48135D01*
X37413Y-50570D01*
X32503Y-50570D01*
X32503Y-44450D01*
X32527Y-44393D01*
X32527Y-44276D01*
X32503Y-44219D01*
X32503Y-44017D01*
X32527Y-43960D01*
X32527Y-43843D01*
X32503Y-43786D01*
X32503Y-43584D01*
X32527Y-43527D01*
X32527Y-43410D01*
X32503Y-43353D01*
X32503Y-35611D01*
X32527Y-35554D01*
X32527Y-35437D01*
X32503Y-35380D01*
X32503Y-35178D01*
X32527Y-35121D01*
X32527Y-35004D01*
X32503Y-34947D01*
X32503Y-34745D01*
X32527Y-34688D01*
X32527Y-34571D01*
X32503Y-34514D01*
X32503Y-29625D01*
X41419Y-29625D01*
X41466Y-29645D01*
X41583Y-29645D01*
X41631Y-29625D01*
X41852Y-29625D01*
X41899Y-29645D01*
X42016Y-29645D01*
X42064Y-29625D01*
X42283Y-29625D01*
X42330Y-29645D01*
X42447Y-29645D01*
X42494Y-29625D01*
X42717Y-29625D01*
X42764Y-29645D01*
X42881Y-29645D01*
X42928Y-29625D01*
X56319Y-29625D01*
X56366Y-29645D01*
X56483Y-29645D01*
X56530Y-29625D01*
X56752Y-29625D01*
X56799Y-29645D01*
X56916Y-29645D01*
X56963Y-29625D01*
X57185Y-29625D01*
X57232Y-29645D01*
X57349Y-29645D01*
X57396Y-29625D01*
X57619Y-29625D01*
X57666Y-29645D01*
X57783Y-29645D01*
X57830Y-29625D01*
X65984Y-29625D01*
X65984Y-30708D01*
X65984Y-30708D01*
X65984Y-39483D01*
X65972Y-39512D01*
X65972Y-39629D01*
X65984Y-39657D01*
X65984Y-39916D01*
X65972Y-39945D01*
X65972Y-40062D01*
X65984Y-40090D01*
X65984Y-40349D01*
X65972Y-40378D01*
X65972Y-40495D01*
X65984Y-40523D01*
X65984Y-40782D01*
X65972Y-40811D01*
X65972Y-40928D01*
X65984Y-40956D01*
X65984Y-49527D01*
X65984Y-49527D01*
G37*
G54D21*
X65984Y-49527D02*
X65984Y-49527D01*
X65984Y-50570D01*
X63806Y-50570D01*
X63806Y-30448D01*
X63743Y-30295D01*
X63625Y-30178D01*
X63472Y-30114D01*
X63307Y-30114D01*
X63153Y-30177D01*
X63036Y-30295D01*
X62973Y-30448D01*
X62972Y-30613D01*
X63036Y-30767D01*
X63153Y-30884D01*
X63306Y-30947D01*
X63472Y-30948D01*
X63625Y-30884D01*
X63742Y-30767D01*
X63806Y-30614D01*
X63806Y-30448D01*
X63806Y-50570D01*
X63461Y-50570D01*
X63461Y-49385D01*
X63398Y-49232D01*
X63281Y-49115D01*
X63128Y-49051D01*
X62962Y-49051D01*
X62809Y-49114D01*
X62806Y-49118D01*
X62806Y-30448D01*
X62743Y-30295D01*
X62625Y-30178D01*
X62472Y-30114D01*
X62307Y-30114D01*
X62153Y-30177D01*
X62036Y-30295D01*
X61973Y-30448D01*
X61972Y-30613D01*
X62036Y-30767D01*
X62153Y-30884D01*
X62306Y-30947D01*
X62472Y-30948D01*
X62625Y-30884D01*
X62742Y-30767D01*
X62806Y-30614D01*
X62806Y-30448D01*
X62806Y-49118D01*
X62692Y-49232D01*
X62628Y-49385D01*
X62628Y-49550D01*
X62691Y-49704D01*
X62808Y-49821D01*
X62961Y-49884D01*
X63127Y-49885D01*
X63280Y-49821D01*
X63398Y-49704D01*
X63461Y-49551D01*
X63461Y-49385D01*
X63461Y-50570D01*
X62461Y-50570D01*
X62461Y-49385D01*
X62398Y-49232D01*
X62281Y-49115D01*
X62145Y-49058D01*
X62145Y-40315D01*
X62125Y-40267D01*
X62125Y-39764D01*
X62095Y-39691D01*
X62059Y-39655D01*
X62095Y-39619D01*
X62125Y-39547D01*
X62125Y-39468D01*
X62095Y-39396D01*
X62040Y-39341D01*
X61968Y-39311D01*
X61890Y-39311D01*
X61817Y-39341D01*
X61791Y-39367D01*
X61791Y-38287D01*
X61761Y-38215D01*
X61750Y-38204D01*
X61760Y-38194D01*
X61790Y-38122D01*
X61790Y-38044D01*
X61760Y-37971D01*
X61705Y-37916D01*
X61692Y-37911D01*
X61692Y-35669D01*
X61662Y-35597D01*
X61607Y-35542D01*
X61535Y-35512D01*
X61457Y-35512D01*
X61384Y-35541D01*
X61329Y-35597D01*
X61299Y-35669D01*
X61299Y-35747D01*
X61329Y-35819D01*
X61384Y-35875D01*
X61456Y-35905D01*
X61534Y-35905D01*
X61607Y-35875D01*
X61662Y-35820D01*
X61692Y-35747D01*
X61692Y-35669D01*
X61692Y-37911D01*
X61633Y-37886D01*
X61555Y-37886D01*
X61482Y-37916D01*
X61427Y-37971D01*
X61397Y-38043D01*
X61397Y-38121D01*
X61427Y-38194D01*
X61438Y-38205D01*
X61427Y-38215D01*
X61397Y-38287D01*
X61397Y-38365D01*
X61427Y-38437D01*
X61482Y-38493D01*
X61555Y-38523D01*
X61633Y-38523D01*
X61705Y-38493D01*
X61761Y-38438D01*
X61791Y-38366D01*
X61791Y-38287D01*
X61791Y-39367D01*
X61762Y-39396D01*
X61732Y-39468D01*
X61732Y-39546D01*
X61762Y-39619D01*
X61798Y-39655D01*
X61762Y-39691D01*
X61732Y-39763D01*
X61732Y-39842D01*
X61762Y-39914D01*
X61817Y-39969D01*
X61889Y-39999D01*
X61968Y-39999D01*
X62040Y-39969D01*
X62095Y-39914D01*
X62125Y-39842D01*
X62125Y-39764D01*
X62125Y-40267D01*
X62115Y-40243D01*
X62060Y-40187D01*
X61988Y-40157D01*
X61909Y-40157D01*
X61837Y-40187D01*
X61782Y-40242D01*
X61752Y-40315D01*
X61752Y-40393D01*
X61782Y-40465D01*
X61837Y-40520D01*
X61909Y-40550D01*
X61987Y-40550D01*
X62060Y-40521D01*
X62115Y-40465D01*
X62145Y-40393D01*
X62145Y-40315D01*
X62145Y-49058D01*
X62128Y-49051D01*
X62013Y-49051D01*
X62013Y-42181D01*
X62000Y-42112D01*
X62000Y-42112D01*
X62000Y-42018D01*
X61986Y-41949D01*
X61947Y-41891D01*
X61909Y-41865D01*
X61909Y-41122D01*
X61879Y-41050D01*
X61824Y-40994D01*
X61751Y-40964D01*
X61673Y-40964D01*
X61601Y-40994D01*
X61546Y-41049D01*
X61516Y-41122D01*
X61515Y-41200D01*
X61545Y-41272D01*
X61601Y-41327D01*
X61673Y-41357D01*
X61751Y-41358D01*
X61823Y-41328D01*
X61879Y-41272D01*
X61909Y-41200D01*
X61909Y-41122D01*
X61909Y-41865D01*
X61889Y-41852D01*
X61821Y-41838D01*
X61752Y-41852D01*
X61694Y-41891D01*
X61655Y-41949D01*
X61641Y-42018D01*
X61641Y-42167D01*
X61655Y-42235D01*
X61694Y-42294D01*
X61707Y-42307D01*
X61766Y-42346D01*
X61834Y-42360D01*
X61903Y-42346D01*
X61961Y-42307D01*
X62000Y-42249D01*
X62013Y-42181D01*
X62013Y-49051D01*
X61962Y-49051D01*
X61950Y-49056D01*
X61950Y-43169D01*
X61937Y-43100D01*
X61898Y-43042D01*
X61840Y-43003D01*
X61771Y-42990D01*
X61703Y-43003D01*
X61645Y-43042D01*
X61615Y-43071D01*
X61573Y-43089D01*
X61535Y-43127D01*
X61535Y-41653D01*
X61505Y-41581D01*
X61450Y-41526D01*
X61377Y-41496D01*
X61299Y-41496D01*
X61227Y-41526D01*
X61172Y-41581D01*
X61142Y-41653D01*
X61141Y-41731D01*
X61171Y-41804D01*
X61227Y-41859D01*
X61299Y-41889D01*
X61377Y-41889D01*
X61449Y-41859D01*
X61505Y-41804D01*
X61535Y-41732D01*
X61535Y-41653D01*
X61535Y-43127D01*
X61518Y-43144D01*
X61488Y-43216D01*
X61488Y-43294D01*
X61518Y-43367D01*
X61573Y-43422D01*
X61645Y-43452D01*
X61723Y-43452D01*
X61796Y-43422D01*
X61851Y-43367D01*
X61869Y-43325D01*
X61898Y-43295D01*
X61937Y-43237D01*
X61950Y-43169D01*
X61950Y-49056D01*
X61809Y-49114D01*
X61692Y-49232D01*
X61628Y-49385D01*
X61628Y-49550D01*
X61691Y-49704D01*
X61808Y-49821D01*
X61961Y-49884D01*
X62127Y-49885D01*
X62280Y-49821D01*
X62398Y-49704D01*
X62461Y-49551D01*
X62461Y-49385D01*
X62461Y-50570D01*
X60846Y-50570D01*
X60846Y-45118D01*
X60846Y-44567D01*
X60816Y-44495D01*
X60806Y-44484D01*
X60806Y-30448D01*
X60743Y-30295D01*
X60625Y-30178D01*
X60472Y-30114D01*
X60307Y-30114D01*
X60153Y-30177D01*
X60036Y-30295D01*
X59973Y-30448D01*
X59972Y-30613D01*
X60036Y-30767D01*
X60153Y-30884D01*
X60306Y-30947D01*
X60472Y-30948D01*
X60625Y-30884D01*
X60742Y-30767D01*
X60806Y-30614D01*
X60806Y-30448D01*
X60806Y-44484D01*
X60767Y-44446D01*
X60767Y-42677D01*
X60737Y-42605D01*
X60688Y-42556D01*
X60688Y-34803D01*
X60658Y-34731D01*
X60603Y-34675D01*
X60531Y-34645D01*
X60453Y-34645D01*
X60380Y-34675D01*
X60325Y-34731D01*
X60295Y-34803D01*
X60295Y-34881D01*
X60325Y-34953D01*
X60380Y-35009D01*
X60452Y-35039D01*
X60531Y-35039D01*
X60603Y-35009D01*
X60658Y-34954D01*
X60688Y-34881D01*
X60688Y-34803D01*
X60688Y-42556D01*
X60682Y-42549D01*
X60669Y-42544D01*
X60669Y-40961D01*
X60639Y-40888D01*
X60584Y-40833D01*
X60570Y-40827D01*
X60570Y-35886D01*
X60540Y-35813D01*
X60485Y-35758D01*
X60413Y-35728D01*
X60335Y-35728D01*
X60262Y-35758D01*
X60207Y-35813D01*
X60177Y-35885D01*
X60177Y-35964D01*
X60207Y-36036D01*
X60262Y-36091D01*
X60334Y-36121D01*
X60412Y-36121D01*
X60485Y-36091D01*
X60540Y-36036D01*
X60570Y-35964D01*
X60570Y-35886D01*
X60570Y-40827D01*
X60535Y-40813D01*
X60535Y-39205D01*
X60505Y-39132D01*
X60450Y-39077D01*
X60378Y-39047D01*
X60300Y-39047D01*
X60255Y-39065D01*
X60255Y-36181D01*
X60225Y-36109D01*
X60170Y-36053D01*
X60098Y-36023D01*
X60020Y-36023D01*
X59947Y-36053D01*
X59931Y-36070D01*
X59914Y-36053D01*
X59842Y-36023D01*
X59806Y-36023D01*
X59806Y-30786D01*
X59806Y-30189D01*
X59788Y-30146D01*
X59755Y-30112D01*
X59711Y-30094D01*
X59664Y-30094D01*
X59067Y-30094D01*
X59024Y-30112D01*
X58991Y-30145D01*
X58973Y-30189D01*
X58973Y-30236D01*
X58973Y-30833D01*
X58990Y-30876D01*
X59024Y-30909D01*
X59067Y-30927D01*
X59114Y-30928D01*
X59711Y-30928D01*
X59754Y-30910D01*
X59788Y-30876D01*
X59806Y-30833D01*
X59806Y-30786D01*
X59806Y-36023D01*
X59764Y-36023D01*
X59691Y-36053D01*
X59636Y-36108D01*
X59606Y-36181D01*
X59606Y-36259D01*
X59636Y-36331D01*
X59691Y-36387D01*
X59763Y-36417D01*
X59842Y-36417D01*
X59914Y-36387D01*
X59931Y-36370D01*
X59947Y-36387D01*
X60019Y-36417D01*
X60097Y-36417D01*
X60170Y-36387D01*
X60225Y-36331D01*
X60255Y-36259D01*
X60255Y-36181D01*
X60255Y-39065D01*
X60227Y-39077D01*
X60172Y-39132D01*
X60142Y-39204D01*
X60142Y-39282D01*
X60172Y-39355D01*
X60227Y-39410D01*
X60299Y-39440D01*
X60377Y-39440D01*
X60450Y-39410D01*
X60505Y-39355D01*
X60535Y-39283D01*
X60535Y-39205D01*
X60535Y-40813D01*
X60512Y-40803D01*
X60434Y-40803D01*
X60361Y-40833D01*
X60306Y-40888D01*
X60276Y-40960D01*
X60276Y-41038D01*
X60306Y-41111D01*
X60361Y-41166D01*
X60433Y-41196D01*
X60511Y-41196D01*
X60584Y-41166D01*
X60639Y-41111D01*
X60669Y-41039D01*
X60669Y-40961D01*
X60669Y-42544D01*
X60610Y-42519D01*
X60531Y-42519D01*
X60459Y-42549D01*
X60404Y-42605D01*
X60374Y-42677D01*
X60374Y-42755D01*
X60404Y-42827D01*
X60459Y-42883D01*
X60531Y-42913D01*
X60609Y-42913D01*
X60682Y-42883D01*
X60737Y-42828D01*
X60767Y-42755D01*
X60767Y-42677D01*
X60767Y-44446D01*
X60761Y-44439D01*
X60688Y-44409D01*
X60610Y-44409D01*
X60610Y-44409D01*
X60610Y-43090D01*
X60580Y-43018D01*
X60524Y-42963D01*
X60452Y-42933D01*
X60374Y-42933D01*
X60302Y-42963D01*
X60246Y-43018D01*
X60226Y-43066D01*
X60226Y-41172D01*
X60196Y-41099D01*
X60196Y-41099D01*
X60196Y-39882D01*
X60166Y-39810D01*
X60111Y-39754D01*
X60039Y-39724D01*
X59961Y-39724D01*
X59948Y-39729D01*
X59944Y-39725D01*
X59944Y-38981D01*
X59914Y-38908D01*
X59859Y-38853D01*
X59787Y-38823D01*
X59709Y-38823D01*
X59636Y-38853D01*
X59581Y-38908D01*
X59551Y-38980D01*
X59551Y-39058D01*
X59581Y-39131D01*
X59636Y-39186D01*
X59708Y-39216D01*
X59786Y-39216D01*
X59859Y-39186D01*
X59914Y-39131D01*
X59944Y-39059D01*
X59944Y-38981D01*
X59944Y-39725D01*
X59894Y-39675D01*
X59822Y-39645D01*
X59744Y-39645D01*
X59672Y-39675D01*
X59616Y-39731D01*
X59586Y-39803D01*
X59586Y-39881D01*
X59616Y-39953D01*
X59671Y-40009D01*
X59744Y-40039D01*
X59822Y-40039D01*
X59834Y-40034D01*
X59888Y-40087D01*
X59960Y-40117D01*
X60038Y-40117D01*
X60111Y-40088D01*
X60166Y-40032D01*
X60196Y-39960D01*
X60196Y-39882D01*
X60196Y-41099D01*
X60176Y-41079D01*
X60176Y-40610D01*
X60147Y-40538D01*
X60091Y-40483D01*
X60019Y-40453D01*
X59941Y-40452D01*
X59869Y-40482D01*
X59849Y-40501D01*
X59865Y-40464D01*
X59865Y-40386D01*
X59835Y-40313D01*
X59826Y-40304D01*
X59842Y-40264D01*
X59842Y-40186D01*
X59812Y-40113D01*
X59757Y-40058D01*
X59685Y-40028D01*
X59607Y-40028D01*
X59534Y-40058D01*
X59479Y-40113D01*
X59449Y-40185D01*
X59449Y-40263D01*
X59479Y-40336D01*
X59488Y-40345D01*
X59472Y-40385D01*
X59472Y-40463D01*
X59502Y-40536D01*
X59557Y-40591D01*
X59594Y-40607D01*
X59573Y-40628D01*
X59543Y-40700D01*
X59543Y-40778D01*
X59573Y-40851D01*
X59628Y-40906D01*
X59700Y-40936D01*
X59778Y-40936D01*
X59851Y-40906D01*
X59906Y-40851D01*
X59913Y-40834D01*
X59941Y-40846D01*
X60019Y-40846D01*
X60091Y-40816D01*
X60146Y-40761D01*
X60176Y-40688D01*
X60176Y-40610D01*
X60176Y-41079D01*
X60141Y-41044D01*
X60069Y-41014D01*
X59991Y-41014D01*
X59918Y-41044D01*
X59863Y-41099D01*
X59833Y-41171D01*
X59833Y-41249D01*
X59863Y-41322D01*
X59918Y-41377D01*
X59990Y-41407D01*
X60068Y-41407D01*
X60141Y-41377D01*
X60196Y-41322D01*
X60226Y-41250D01*
X60226Y-41172D01*
X60226Y-43066D01*
X60216Y-43090D01*
X60216Y-43168D01*
X60246Y-43241D01*
X60301Y-43296D01*
X60374Y-43326D01*
X60452Y-43326D01*
X60524Y-43296D01*
X60579Y-43241D01*
X60609Y-43169D01*
X60610Y-43090D01*
X60610Y-44409D01*
X60538Y-44439D01*
X60483Y-44494D01*
X60453Y-44567D01*
X60452Y-44645D01*
X60482Y-44717D01*
X60538Y-44772D01*
X60610Y-44802D01*
X60688Y-44802D01*
X60760Y-44773D01*
X60816Y-44717D01*
X60846Y-44645D01*
X60846Y-44567D01*
X60846Y-45118D01*
X60816Y-45046D01*
X60761Y-44990D01*
X60688Y-44960D01*
X60610Y-44960D01*
X60538Y-44990D01*
X60483Y-45045D01*
X60453Y-45118D01*
X60452Y-45196D01*
X60482Y-45268D01*
X60538Y-45324D01*
X60610Y-45354D01*
X60688Y-45354D01*
X60760Y-45324D01*
X60816Y-45268D01*
X60846Y-45196D01*
X60846Y-45118D01*
X60846Y-50570D01*
X60461Y-50570D01*
X60461Y-49385D01*
X60398Y-49232D01*
X60281Y-49115D01*
X60128Y-49051D01*
X59962Y-49051D01*
X59842Y-49101D01*
X59842Y-41378D01*
X59812Y-41306D01*
X59757Y-41250D01*
X59684Y-41220D01*
X59606Y-41220D01*
X59534Y-41250D01*
X59479Y-41305D01*
X59449Y-41378D01*
X59449Y-41456D01*
X59478Y-41528D01*
X59534Y-41583D01*
X59606Y-41613D01*
X59684Y-41613D01*
X59756Y-41584D01*
X59812Y-41528D01*
X59842Y-41456D01*
X59842Y-41378D01*
X59842Y-49101D01*
X59809Y-49114D01*
X59692Y-49232D01*
X59628Y-49385D01*
X59628Y-49550D01*
X59691Y-49704D01*
X59808Y-49821D01*
X59961Y-49884D01*
X60127Y-49885D01*
X60280Y-49821D01*
X60398Y-49704D01*
X60461Y-49551D01*
X60461Y-49385D01*
X60461Y-50570D01*
X59477Y-50570D01*
X59477Y-42028D01*
X59447Y-41955D01*
X59424Y-41932D01*
X59438Y-41918D01*
X59468Y-41846D01*
X59468Y-41768D01*
X59438Y-41695D01*
X59383Y-41640D01*
X59311Y-41610D01*
X59291Y-41610D01*
X59291Y-37933D01*
X59261Y-37861D01*
X59212Y-37812D01*
X59212Y-36516D01*
X59182Y-36443D01*
X59127Y-36388D01*
X59055Y-36358D01*
X58976Y-36358D01*
X58904Y-36388D01*
X58849Y-36443D01*
X58819Y-36515D01*
X58819Y-36594D01*
X58848Y-36666D01*
X58904Y-36721D01*
X58976Y-36751D01*
X59054Y-36751D01*
X59126Y-36721D01*
X59182Y-36666D01*
X59212Y-36594D01*
X59212Y-36516D01*
X59212Y-37812D01*
X59206Y-37805D01*
X59133Y-37775D01*
X59055Y-37775D01*
X58983Y-37805D01*
X58927Y-37860D01*
X58897Y-37933D01*
X58897Y-38011D01*
X58927Y-38083D01*
X58982Y-38139D01*
X59055Y-38169D01*
X59133Y-38169D01*
X59205Y-38139D01*
X59261Y-38083D01*
X59291Y-38011D01*
X59291Y-37933D01*
X59291Y-41610D01*
X59262Y-41610D01*
X59262Y-41074D01*
X59233Y-41006D01*
X59230Y-41003D01*
X59252Y-40952D01*
X59252Y-40877D01*
X59226Y-40816D01*
X59252Y-40756D01*
X59252Y-40681D01*
X59226Y-40620D01*
X59252Y-40559D01*
X59252Y-40484D01*
X59226Y-40423D01*
X59252Y-40362D01*
X59252Y-40287D01*
X59223Y-40219D01*
X59220Y-40216D01*
X59242Y-40165D01*
X59242Y-40090D01*
X59220Y-40039D01*
X59223Y-40037D01*
X59252Y-39968D01*
X59252Y-39893D01*
X59226Y-39832D01*
X59252Y-39771D01*
X59252Y-39696D01*
X59252Y-39303D01*
X59226Y-39242D01*
X59252Y-39181D01*
X59252Y-39106D01*
X59226Y-39045D01*
X59252Y-38984D01*
X59252Y-38909D01*
X59226Y-38848D01*
X59252Y-38787D01*
X59252Y-38712D01*
X59223Y-38644D01*
X59171Y-38591D01*
X59102Y-38562D01*
X59027Y-38562D01*
X58959Y-38591D01*
X58906Y-38643D01*
X58877Y-38712D01*
X58877Y-38787D01*
X58903Y-38848D01*
X58877Y-38909D01*
X58877Y-38984D01*
X58903Y-39045D01*
X58877Y-39106D01*
X58877Y-39181D01*
X58903Y-39242D01*
X58877Y-39303D01*
X58877Y-39378D01*
X58906Y-39446D01*
X58958Y-39499D01*
X59027Y-39528D01*
X59102Y-39528D01*
X59170Y-39499D01*
X59223Y-39447D01*
X59252Y-39378D01*
X59252Y-39303D01*
X59252Y-39696D01*
X59223Y-39628D01*
X59171Y-39575D01*
X59102Y-39546D01*
X59027Y-39546D01*
X58959Y-39575D01*
X58906Y-39627D01*
X58877Y-39696D01*
X58877Y-39771D01*
X58903Y-39832D01*
X58877Y-39893D01*
X58877Y-39968D01*
X58899Y-40019D01*
X58896Y-40021D01*
X58867Y-40090D01*
X58867Y-40165D01*
X58896Y-40233D01*
X58899Y-40236D01*
X58877Y-40287D01*
X58877Y-40362D01*
X58903Y-40423D01*
X58877Y-40484D01*
X58877Y-40559D01*
X58903Y-40620D01*
X58877Y-40681D01*
X58877Y-40756D01*
X58903Y-40817D01*
X58877Y-40877D01*
X58877Y-40952D01*
X58906Y-41020D01*
X58909Y-41023D01*
X58887Y-41074D01*
X58887Y-41149D01*
X58909Y-41200D01*
X58906Y-41202D01*
X58877Y-41271D01*
X58877Y-41346D01*
X58906Y-41414D01*
X58958Y-41467D01*
X59027Y-41496D01*
X59102Y-41496D01*
X59170Y-41467D01*
X59223Y-41415D01*
X59252Y-41346D01*
X59252Y-41271D01*
X59230Y-41220D01*
X59233Y-41218D01*
X59262Y-41149D01*
X59262Y-41074D01*
X59262Y-41610D01*
X59233Y-41610D01*
X59160Y-41640D01*
X59105Y-41695D01*
X59075Y-41767D01*
X59075Y-41845D01*
X59105Y-41918D01*
X59128Y-41941D01*
X59114Y-41955D01*
X59084Y-42027D01*
X59084Y-42105D01*
X59114Y-42178D01*
X59169Y-42233D01*
X59241Y-42263D01*
X59319Y-42263D01*
X59392Y-42233D01*
X59447Y-42178D01*
X59477Y-42106D01*
X59477Y-42028D01*
X59477Y-50570D01*
X59461Y-50570D01*
X59461Y-49723D01*
X59461Y-49126D01*
X59443Y-49083D01*
X59410Y-49049D01*
X59367Y-49031D01*
X59320Y-49031D01*
X59173Y-49031D01*
X59173Y-46968D01*
X59143Y-46896D01*
X59087Y-46841D01*
X59015Y-46811D01*
X58937Y-46811D01*
X58936Y-46811D01*
X58936Y-41930D01*
X58906Y-41857D01*
X58851Y-41802D01*
X58804Y-41782D01*
X58804Y-30448D01*
X58741Y-30295D01*
X58623Y-30178D01*
X58470Y-30114D01*
X58305Y-30114D01*
X58151Y-30177D01*
X58034Y-30295D01*
X57971Y-30448D01*
X57970Y-30613D01*
X58034Y-30767D01*
X58151Y-30884D01*
X58304Y-30947D01*
X58470Y-30948D01*
X58623Y-30884D01*
X58740Y-30767D01*
X58804Y-30614D01*
X58804Y-30448D01*
X58804Y-41782D01*
X58779Y-41772D01*
X58701Y-41772D01*
X58633Y-41800D01*
X58622Y-41795D01*
X58622Y-41301D01*
X58593Y-41233D01*
X58541Y-41180D01*
X58472Y-41151D01*
X58397Y-41151D01*
X58336Y-41177D01*
X58275Y-41151D01*
X58200Y-41151D01*
X58132Y-41180D01*
X58079Y-41232D01*
X58050Y-41301D01*
X58050Y-41376D01*
X58079Y-41444D01*
X58131Y-41497D01*
X58200Y-41526D01*
X58275Y-41526D01*
X58336Y-41500D01*
X58397Y-41526D01*
X58472Y-41526D01*
X58540Y-41497D01*
X58593Y-41445D01*
X58622Y-41376D01*
X58622Y-41301D01*
X58622Y-41795D01*
X58575Y-41776D01*
X58497Y-41776D01*
X58424Y-41806D01*
X58369Y-41861D01*
X58339Y-41933D01*
X58339Y-42011D01*
X58369Y-42084D01*
X58424Y-42139D01*
X58496Y-42169D01*
X58574Y-42169D01*
X58642Y-42141D01*
X58700Y-42165D01*
X58778Y-42165D01*
X58851Y-42135D01*
X58906Y-42080D01*
X58936Y-42008D01*
X58936Y-41930D01*
X58936Y-46811D01*
X58865Y-46841D01*
X58809Y-46896D01*
X58779Y-46968D01*
X58779Y-47046D01*
X58809Y-47119D01*
X58864Y-47174D01*
X58937Y-47204D01*
X59015Y-47204D01*
X59087Y-47174D01*
X59142Y-47119D01*
X59172Y-47047D01*
X59173Y-46968D01*
X59173Y-49031D01*
X58759Y-49031D01*
X58759Y-43090D01*
X58729Y-43018D01*
X58674Y-42963D01*
X58602Y-42933D01*
X58524Y-42933D01*
X58502Y-42942D01*
X58493Y-42920D01*
X58438Y-42864D01*
X58366Y-42834D01*
X58287Y-42834D01*
X58215Y-42864D01*
X58160Y-42919D01*
X58130Y-42992D01*
X58130Y-43070D01*
X58159Y-43142D01*
X58215Y-43198D01*
X58287Y-43228D01*
X58365Y-43228D01*
X58387Y-43219D01*
X58396Y-43241D01*
X58451Y-43296D01*
X58523Y-43326D01*
X58601Y-43326D01*
X58674Y-43296D01*
X58729Y-43241D01*
X58759Y-43169D01*
X58759Y-43090D01*
X58759Y-49031D01*
X58723Y-49031D01*
X58679Y-49049D01*
X58646Y-49082D01*
X58628Y-49126D01*
X58628Y-49173D01*
X58628Y-49770D01*
X58646Y-49813D01*
X58679Y-49846D01*
X58723Y-49864D01*
X58770Y-49865D01*
X59367Y-49865D01*
X59410Y-49847D01*
X59443Y-49813D01*
X59461Y-49770D01*
X59461Y-49723D01*
X59461Y-50570D01*
X58041Y-50570D01*
X58041Y-38682D01*
X58012Y-38614D01*
X57960Y-38561D01*
X57891Y-38532D01*
X57816Y-38532D01*
X57804Y-38538D01*
X57804Y-30448D01*
X57741Y-30295D01*
X57623Y-30178D01*
X57470Y-30114D01*
X57305Y-30114D01*
X57151Y-30177D01*
X57034Y-30295D01*
X56971Y-30448D01*
X56970Y-30613D01*
X57034Y-30767D01*
X57151Y-30884D01*
X57304Y-30947D01*
X57470Y-30948D01*
X57623Y-30884D01*
X57740Y-30767D01*
X57804Y-30614D01*
X57804Y-30448D01*
X57804Y-38538D01*
X57748Y-38561D01*
X57695Y-38613D01*
X57666Y-38682D01*
X57666Y-38757D01*
X57695Y-38825D01*
X57747Y-38878D01*
X57816Y-38907D01*
X57891Y-38907D01*
X57959Y-38878D01*
X58012Y-38826D01*
X58041Y-38757D01*
X58041Y-38682D01*
X58041Y-50570D01*
X57832Y-50570D01*
X57784Y-50551D01*
X57755Y-50551D01*
X57755Y-44567D01*
X57725Y-44495D01*
X57670Y-44439D01*
X57598Y-44409D01*
X57520Y-44409D01*
X57447Y-44439D01*
X57441Y-44446D01*
X57441Y-41301D01*
X57412Y-41233D01*
X57360Y-41180D01*
X57291Y-41151D01*
X57216Y-41151D01*
X57155Y-41177D01*
X57094Y-41151D01*
X57019Y-41151D01*
X56958Y-41177D01*
X56897Y-41151D01*
X56822Y-41151D01*
X56761Y-41177D01*
X56700Y-41151D01*
X56625Y-41151D01*
X56622Y-41153D01*
X56624Y-41149D01*
X56624Y-41074D01*
X56598Y-41013D01*
X56624Y-40952D01*
X56624Y-40877D01*
X56598Y-40816D01*
X56624Y-40756D01*
X56624Y-40681D01*
X56598Y-40620D01*
X56624Y-40559D01*
X56624Y-40484D01*
X56598Y-40423D01*
X56624Y-40362D01*
X56624Y-40287D01*
X56598Y-40226D01*
X56624Y-40165D01*
X56624Y-40090D01*
X56598Y-40029D01*
X56624Y-39968D01*
X56624Y-39893D01*
X56598Y-39832D01*
X56624Y-39771D01*
X56624Y-39696D01*
X56598Y-39635D01*
X56624Y-39574D01*
X56624Y-39499D01*
X56598Y-39438D01*
X56624Y-39378D01*
X56624Y-39303D01*
X56598Y-39242D01*
X56624Y-39181D01*
X56624Y-39106D01*
X56598Y-39045D01*
X56624Y-38984D01*
X56624Y-38909D01*
X56615Y-38889D01*
X56635Y-38898D01*
X56710Y-38898D01*
X56762Y-38876D01*
X56763Y-38878D01*
X56832Y-38907D01*
X56907Y-38907D01*
X56968Y-38881D01*
X57029Y-38907D01*
X57104Y-38907D01*
X57172Y-38878D01*
X57225Y-38826D01*
X57254Y-38757D01*
X57254Y-38682D01*
X57225Y-38614D01*
X57173Y-38561D01*
X57104Y-38532D01*
X57029Y-38532D01*
X56968Y-38558D01*
X56907Y-38532D01*
X56832Y-38532D01*
X56804Y-38544D01*
X56804Y-30448D01*
X56741Y-30295D01*
X56623Y-30178D01*
X56470Y-30114D01*
X56305Y-30114D01*
X56151Y-30177D01*
X56034Y-30295D01*
X55971Y-30448D01*
X55970Y-30613D01*
X56034Y-30767D01*
X56151Y-30884D01*
X56304Y-30947D01*
X56470Y-30948D01*
X56623Y-30884D01*
X56740Y-30767D01*
X56804Y-30614D01*
X56804Y-30448D01*
X56804Y-38544D01*
X56780Y-38554D01*
X56779Y-38552D01*
X56771Y-38549D01*
X56771Y-38091D01*
X56741Y-38018D01*
X56686Y-37963D01*
X56614Y-37933D01*
X56536Y-37933D01*
X56463Y-37963D01*
X56456Y-37970D01*
X56450Y-37963D01*
X56377Y-37933D01*
X56299Y-37933D01*
X56227Y-37963D01*
X56172Y-38018D01*
X56142Y-38090D01*
X56141Y-38130D01*
X56069Y-38159D01*
X56014Y-38215D01*
X55984Y-38287D01*
X55984Y-38365D01*
X56014Y-38437D01*
X56069Y-38493D01*
X56141Y-38523D01*
X56220Y-38523D01*
X56292Y-38493D01*
X56347Y-38438D01*
X56377Y-38366D01*
X56377Y-38326D01*
X56449Y-38296D01*
X56456Y-38289D01*
X56463Y-38296D01*
X56535Y-38326D01*
X56613Y-38326D01*
X56686Y-38296D01*
X56741Y-38241D01*
X56771Y-38169D01*
X56771Y-38091D01*
X56771Y-38549D01*
X56710Y-38523D01*
X56635Y-38523D01*
X56567Y-38552D01*
X56532Y-38587D01*
X56474Y-38562D01*
X56399Y-38562D01*
X56331Y-38591D01*
X56278Y-38643D01*
X56249Y-38712D01*
X56249Y-38787D01*
X56275Y-38848D01*
X56249Y-38909D01*
X56249Y-38984D01*
X56275Y-39045D01*
X56249Y-39106D01*
X56249Y-39181D01*
X56275Y-39242D01*
X56249Y-39303D01*
X56249Y-39378D01*
X56275Y-39439D01*
X56249Y-39499D01*
X56249Y-39574D01*
X56275Y-39635D01*
X56249Y-39696D01*
X56249Y-39771D01*
X56275Y-39832D01*
X56249Y-39893D01*
X56249Y-39968D01*
X56275Y-40029D01*
X56249Y-40090D01*
X56249Y-40165D01*
X56275Y-40226D01*
X56249Y-40287D01*
X56249Y-40362D01*
X56275Y-40423D01*
X56249Y-40484D01*
X56249Y-40559D01*
X56275Y-40620D01*
X56249Y-40681D01*
X56249Y-40756D01*
X56275Y-40817D01*
X56249Y-40877D01*
X56249Y-40952D01*
X56275Y-41013D01*
X56249Y-41074D01*
X56249Y-41149D01*
X56278Y-41217D01*
X56281Y-41220D01*
X56259Y-41271D01*
X56259Y-41346D01*
X56288Y-41414D01*
X56340Y-41467D01*
X56409Y-41496D01*
X56484Y-41496D01*
X56534Y-41475D01*
X56556Y-41497D01*
X56625Y-41526D01*
X56700Y-41526D01*
X56761Y-41500D01*
X56822Y-41526D01*
X56897Y-41526D01*
X56958Y-41500D01*
X57019Y-41526D01*
X57094Y-41526D01*
X57155Y-41500D01*
X57216Y-41526D01*
X57291Y-41526D01*
X57359Y-41497D01*
X57412Y-41445D01*
X57441Y-41376D01*
X57441Y-41301D01*
X57441Y-44446D01*
X57401Y-44485D01*
X57401Y-41929D01*
X57371Y-41857D01*
X57316Y-41801D01*
X57244Y-41771D01*
X57165Y-41771D01*
X57093Y-41801D01*
X57076Y-41818D01*
X57060Y-41801D01*
X56988Y-41771D01*
X56909Y-41771D01*
X56837Y-41801D01*
X56782Y-41856D01*
X56752Y-41929D01*
X56752Y-42007D01*
X56782Y-42079D01*
X56837Y-42135D01*
X56909Y-42165D01*
X56987Y-42165D01*
X57060Y-42135D01*
X57076Y-42118D01*
X57093Y-42135D01*
X57165Y-42165D01*
X57243Y-42165D01*
X57315Y-42135D01*
X57371Y-42080D01*
X57401Y-42007D01*
X57401Y-41929D01*
X57401Y-44485D01*
X57392Y-44494D01*
X57362Y-44567D01*
X57362Y-44645D01*
X57392Y-44717D01*
X57447Y-44772D01*
X57519Y-44802D01*
X57597Y-44802D01*
X57670Y-44773D01*
X57725Y-44717D01*
X57755Y-44645D01*
X57755Y-44567D01*
X57755Y-50551D01*
X57667Y-50550D01*
X57619Y-50570D01*
X57398Y-50570D01*
X57350Y-50551D01*
X57233Y-50550D01*
X57185Y-50570D01*
X56983Y-50570D01*
X56983Y-50036D01*
X56919Y-49882D01*
X56802Y-49765D01*
X56649Y-49702D01*
X56593Y-49701D01*
X56593Y-43932D01*
X56560Y-43853D01*
X56500Y-43792D01*
X56499Y-43792D01*
X56499Y-41898D01*
X56469Y-41825D01*
X56414Y-41770D01*
X56342Y-41740D01*
X56264Y-41740D01*
X56191Y-41770D01*
X56136Y-41825D01*
X56106Y-41897D01*
X56106Y-41975D01*
X56136Y-42048D01*
X56191Y-42103D01*
X56263Y-42133D01*
X56341Y-42133D01*
X56414Y-42103D01*
X56469Y-42048D01*
X56499Y-41976D01*
X56499Y-41898D01*
X56499Y-43792D01*
X56495Y-43790D01*
X56495Y-42992D01*
X56465Y-42920D01*
X56410Y-42864D01*
X56338Y-42834D01*
X56260Y-42834D01*
X56220Y-42851D01*
X56220Y-42264D01*
X56190Y-42191D01*
X56135Y-42136D01*
X56086Y-42116D01*
X56086Y-40977D01*
X56056Y-40904D01*
X56027Y-40875D01*
X56027Y-39008D01*
X56023Y-38997D01*
X56023Y-38543D01*
X55993Y-38471D01*
X55938Y-38416D01*
X55866Y-38386D01*
X55806Y-38386D01*
X55806Y-37736D01*
X55804Y-37730D01*
X55804Y-30448D01*
X55741Y-30295D01*
X55623Y-30178D01*
X55470Y-30114D01*
X55305Y-30114D01*
X55151Y-30177D01*
X55034Y-30295D01*
X54971Y-30448D01*
X54970Y-30613D01*
X55034Y-30767D01*
X55151Y-30884D01*
X55304Y-30947D01*
X55470Y-30948D01*
X55623Y-30884D01*
X55740Y-30767D01*
X55804Y-30614D01*
X55804Y-30448D01*
X55804Y-37730D01*
X55777Y-37664D01*
X55721Y-37609D01*
X55649Y-37579D01*
X55571Y-37578D01*
X55499Y-37608D01*
X55443Y-37664D01*
X55413Y-37736D01*
X55413Y-37814D01*
X55443Y-37886D01*
X55498Y-37942D01*
X55570Y-37972D01*
X55649Y-37972D01*
X55721Y-37942D01*
X55776Y-37887D01*
X55806Y-37814D01*
X55806Y-37736D01*
X55806Y-38386D01*
X55787Y-38386D01*
X55715Y-38415D01*
X55660Y-38471D01*
X55630Y-38543D01*
X55630Y-38621D01*
X55659Y-38693D01*
X55715Y-38749D01*
X55787Y-38779D01*
X55865Y-38779D01*
X55937Y-38749D01*
X55993Y-38694D01*
X56023Y-38621D01*
X56023Y-38543D01*
X56023Y-38997D01*
X55997Y-38935D01*
X55942Y-38880D01*
X55870Y-38850D01*
X55792Y-38850D01*
X55719Y-38880D01*
X55702Y-38897D01*
X55666Y-38861D01*
X55594Y-38831D01*
X55516Y-38831D01*
X55495Y-38839D01*
X55495Y-38189D01*
X55465Y-38116D01*
X55410Y-38061D01*
X55338Y-38031D01*
X55260Y-38031D01*
X55187Y-38061D01*
X55132Y-38116D01*
X55102Y-38188D01*
X55102Y-38266D01*
X55132Y-38339D01*
X55187Y-38394D01*
X55259Y-38424D01*
X55337Y-38424D01*
X55410Y-38394D01*
X55465Y-38339D01*
X55495Y-38267D01*
X55495Y-38189D01*
X55495Y-38839D01*
X55443Y-38861D01*
X55388Y-38916D01*
X55358Y-38988D01*
X55358Y-39066D01*
X55388Y-39139D01*
X55443Y-39194D01*
X55515Y-39224D01*
X55593Y-39224D01*
X55666Y-39194D01*
X55683Y-39177D01*
X55719Y-39213D01*
X55791Y-39243D01*
X55869Y-39243D01*
X55942Y-39213D01*
X55997Y-39158D01*
X56027Y-39086D01*
X56027Y-39008D01*
X56027Y-40875D01*
X56001Y-40849D01*
X55968Y-40835D01*
X55968Y-40193D01*
X55938Y-40120D01*
X55932Y-40114D01*
X55932Y-39792D01*
X55902Y-39719D01*
X55847Y-39664D01*
X55775Y-39634D01*
X55765Y-39634D01*
X55820Y-39611D01*
X55875Y-39556D01*
X55905Y-39484D01*
X55905Y-39406D01*
X55875Y-39333D01*
X55820Y-39278D01*
X55748Y-39248D01*
X55670Y-39248D01*
X55597Y-39278D01*
X55542Y-39333D01*
X55512Y-39405D01*
X55512Y-39478D01*
X55505Y-39471D01*
X55433Y-39441D01*
X55355Y-39441D01*
X55282Y-39471D01*
X55227Y-39526D01*
X55197Y-39598D01*
X55197Y-39676D01*
X55227Y-39749D01*
X55282Y-39804D01*
X55354Y-39834D01*
X55432Y-39834D01*
X55505Y-39804D01*
X55554Y-39755D01*
X55539Y-39791D01*
X55539Y-39869D01*
X55569Y-39942D01*
X55624Y-39997D01*
X55696Y-40027D01*
X55774Y-40027D01*
X55847Y-39997D01*
X55902Y-39942D01*
X55932Y-39870D01*
X55932Y-39792D01*
X55932Y-40114D01*
X55883Y-40065D01*
X55811Y-40035D01*
X55733Y-40035D01*
X55660Y-40065D01*
X55605Y-40120D01*
X55575Y-40192D01*
X55575Y-40270D01*
X55605Y-40343D01*
X55660Y-40398D01*
X55715Y-40421D01*
X55662Y-40421D01*
X55589Y-40451D01*
X55534Y-40506D01*
X55504Y-40578D01*
X55504Y-40656D01*
X55520Y-40695D01*
X55499Y-40674D01*
X55499Y-39993D01*
X55469Y-39920D01*
X55414Y-39865D01*
X55342Y-39835D01*
X55264Y-39835D01*
X55191Y-39865D01*
X55136Y-39920D01*
X55106Y-39992D01*
X55106Y-40070D01*
X55136Y-40143D01*
X55191Y-40198D01*
X55253Y-40224D01*
X55249Y-40224D01*
X55176Y-40254D01*
X55121Y-40309D01*
X55091Y-40381D01*
X55091Y-40459D01*
X55121Y-40532D01*
X55176Y-40587D01*
X55248Y-40617D01*
X55326Y-40617D01*
X55399Y-40587D01*
X55454Y-40532D01*
X55484Y-40460D01*
X55484Y-40382D01*
X55454Y-40309D01*
X55399Y-40254D01*
X55337Y-40228D01*
X55341Y-40228D01*
X55414Y-40198D01*
X55469Y-40143D01*
X55499Y-40071D01*
X55499Y-39993D01*
X55499Y-40674D01*
X55477Y-40652D01*
X55405Y-40622D01*
X55327Y-40622D01*
X55254Y-40652D01*
X55199Y-40707D01*
X55169Y-40779D01*
X55169Y-40857D01*
X55199Y-40930D01*
X55254Y-40985D01*
X55326Y-41015D01*
X55404Y-41015D01*
X55477Y-40985D01*
X55532Y-40930D01*
X55562Y-40858D01*
X55562Y-40780D01*
X55546Y-40741D01*
X55589Y-40784D01*
X55661Y-40814D01*
X55739Y-40814D01*
X55812Y-40784D01*
X55867Y-40729D01*
X55897Y-40657D01*
X55897Y-40579D01*
X55867Y-40506D01*
X55812Y-40451D01*
X55757Y-40428D01*
X55810Y-40428D01*
X55883Y-40398D01*
X55938Y-40343D01*
X55968Y-40271D01*
X55968Y-40193D01*
X55968Y-40835D01*
X55929Y-40819D01*
X55851Y-40819D01*
X55778Y-40849D01*
X55723Y-40904D01*
X55693Y-40976D01*
X55693Y-41054D01*
X55723Y-41127D01*
X55778Y-41182D01*
X55843Y-41209D01*
X55776Y-41209D01*
X55703Y-41239D01*
X55648Y-41294D01*
X55618Y-41366D01*
X55618Y-41378D01*
X55571Y-41378D01*
X55499Y-41408D01*
X55456Y-41450D01*
X55456Y-41170D01*
X55426Y-41097D01*
X55371Y-41042D01*
X55299Y-41012D01*
X55221Y-41012D01*
X55148Y-41042D01*
X55093Y-41097D01*
X55063Y-41169D01*
X55063Y-41247D01*
X55093Y-41320D01*
X55148Y-41375D01*
X55220Y-41405D01*
X55298Y-41405D01*
X55371Y-41375D01*
X55426Y-41320D01*
X55456Y-41248D01*
X55456Y-41170D01*
X55456Y-41450D01*
X55443Y-41463D01*
X55413Y-41535D01*
X55413Y-41613D01*
X55443Y-41686D01*
X55498Y-41741D01*
X55570Y-41771D01*
X55627Y-41771D01*
X55581Y-41817D01*
X55551Y-41889D01*
X55551Y-41968D01*
X55581Y-42040D01*
X55636Y-42095D01*
X55708Y-42125D01*
X55786Y-42125D01*
X55859Y-42095D01*
X55914Y-42040D01*
X55944Y-41968D01*
X55944Y-41890D01*
X55914Y-41817D01*
X55859Y-41762D01*
X55787Y-41732D01*
X55730Y-41732D01*
X55776Y-41686D01*
X55806Y-41614D01*
X55806Y-41602D01*
X55853Y-41602D01*
X55926Y-41572D01*
X55981Y-41517D01*
X56011Y-41445D01*
X56011Y-41367D01*
X55981Y-41294D01*
X55926Y-41239D01*
X55861Y-41212D01*
X55928Y-41212D01*
X56001Y-41182D01*
X56056Y-41127D01*
X56086Y-41055D01*
X56086Y-40977D01*
X56086Y-42116D01*
X56062Y-42106D01*
X55984Y-42106D01*
X55912Y-42136D01*
X55857Y-42191D01*
X55827Y-42263D01*
X55826Y-42342D01*
X55856Y-42414D01*
X55912Y-42469D01*
X55984Y-42499D01*
X56062Y-42499D01*
X56134Y-42469D01*
X56190Y-42414D01*
X56220Y-42342D01*
X56220Y-42264D01*
X56220Y-42851D01*
X56187Y-42864D01*
X56132Y-42919D01*
X56102Y-42992D01*
X56102Y-43070D01*
X56132Y-43142D01*
X56187Y-43198D01*
X56259Y-43228D01*
X56338Y-43228D01*
X56410Y-43198D01*
X56465Y-43143D01*
X56495Y-43070D01*
X56495Y-42992D01*
X56495Y-43790D01*
X56421Y-43759D01*
X56335Y-43759D01*
X56256Y-43792D01*
X56240Y-43808D01*
X56224Y-43792D01*
X56145Y-43759D01*
X56059Y-43759D01*
X55980Y-43792D01*
X55919Y-43852D01*
X55886Y-43931D01*
X55886Y-44017D01*
X55919Y-44096D01*
X55979Y-44157D01*
X56058Y-44190D01*
X56144Y-44190D01*
X56223Y-44157D01*
X56239Y-44141D01*
X56255Y-44157D01*
X56334Y-44190D01*
X56420Y-44190D01*
X56499Y-44157D01*
X56560Y-44097D01*
X56593Y-44018D01*
X56593Y-43932D01*
X56593Y-49701D01*
X56483Y-49701D01*
X56330Y-49765D01*
X56213Y-49882D01*
X56149Y-50035D01*
X56149Y-50201D01*
X56213Y-50354D01*
X56330Y-50471D01*
X56483Y-50535D01*
X56648Y-50535D01*
X56802Y-50471D01*
X56919Y-50354D01*
X56982Y-50201D01*
X56983Y-50036D01*
X56983Y-50570D01*
X56965Y-50570D01*
X56917Y-50551D01*
X56800Y-50550D01*
X56752Y-50570D01*
X56532Y-50570D01*
X56484Y-50551D01*
X56367Y-50550D01*
X56319Y-50570D01*
X55649Y-50570D01*
X55649Y-43028D01*
X55619Y-42955D01*
X55564Y-42900D01*
X55492Y-42870D01*
X55414Y-42870D01*
X55341Y-42900D01*
X55339Y-42902D01*
X55336Y-42900D01*
X55264Y-42870D01*
X55186Y-42870D01*
X55113Y-42900D01*
X55102Y-42911D01*
X55076Y-42884D01*
X55019Y-42861D01*
X55019Y-37441D01*
X54989Y-37369D01*
X54934Y-37313D01*
X54932Y-37313D01*
X54932Y-36292D01*
X54902Y-36219D01*
X54878Y-36195D01*
X54887Y-36186D01*
X54917Y-36114D01*
X54917Y-36036D01*
X54887Y-35963D01*
X54832Y-35908D01*
X54804Y-35896D01*
X54804Y-30448D01*
X54741Y-30295D01*
X54623Y-30178D01*
X54470Y-30114D01*
X54305Y-30114D01*
X54151Y-30177D01*
X54034Y-30295D01*
X53971Y-30448D01*
X53970Y-30613D01*
X54034Y-30767D01*
X54151Y-30884D01*
X54304Y-30947D01*
X54470Y-30948D01*
X54623Y-30884D01*
X54740Y-30767D01*
X54804Y-30614D01*
X54804Y-30448D01*
X54804Y-35896D01*
X54760Y-35878D01*
X54682Y-35878D01*
X54609Y-35908D01*
X54554Y-35963D01*
X54524Y-36035D01*
X54524Y-36113D01*
X54554Y-36186D01*
X54578Y-36210D01*
X54569Y-36219D01*
X54539Y-36291D01*
X54539Y-36369D01*
X54569Y-36442D01*
X54624Y-36497D01*
X54696Y-36527D01*
X54774Y-36527D01*
X54847Y-36497D01*
X54902Y-36442D01*
X54932Y-36370D01*
X54932Y-36292D01*
X54932Y-37313D01*
X54862Y-37283D01*
X54783Y-37283D01*
X54711Y-37313D01*
X54656Y-37368D01*
X54649Y-37384D01*
X54649Y-37280D01*
X54619Y-37207D01*
X54564Y-37152D01*
X54492Y-37122D01*
X54414Y-37122D01*
X54341Y-37152D01*
X54286Y-37207D01*
X54256Y-37279D01*
X54256Y-37357D01*
X54286Y-37430D01*
X54341Y-37485D01*
X54413Y-37515D01*
X54491Y-37515D01*
X54564Y-37485D01*
X54619Y-37430D01*
X54649Y-37358D01*
X54649Y-37280D01*
X54649Y-37384D01*
X54626Y-37441D01*
X54626Y-37519D01*
X54656Y-37591D01*
X54711Y-37646D01*
X54783Y-37676D01*
X54861Y-37676D01*
X54934Y-37647D01*
X54989Y-37591D01*
X55019Y-37519D01*
X55019Y-37441D01*
X55019Y-42861D01*
X55003Y-42854D01*
X54925Y-42854D01*
X54853Y-42884D01*
X54840Y-42896D01*
X54832Y-42888D01*
X54760Y-42858D01*
X54682Y-42858D01*
X54609Y-42888D01*
X54566Y-42931D01*
X54566Y-39587D01*
X54536Y-39514D01*
X54520Y-39498D01*
X54536Y-39481D01*
X54566Y-39409D01*
X54566Y-39331D01*
X54566Y-38937D01*
X54536Y-38865D01*
X54481Y-38809D01*
X54409Y-38779D01*
X54331Y-38779D01*
X54258Y-38809D01*
X54247Y-38820D01*
X54247Y-36378D01*
X54217Y-36306D01*
X54162Y-36250D01*
X54094Y-36222D01*
X54094Y-34567D01*
X54064Y-34495D01*
X54009Y-34439D01*
X53936Y-34409D01*
X53858Y-34409D01*
X53786Y-34439D01*
X53731Y-34494D01*
X53701Y-34567D01*
X53700Y-34645D01*
X53730Y-34717D01*
X53786Y-34772D01*
X53858Y-34802D01*
X53936Y-34802D01*
X54008Y-34773D01*
X54064Y-34717D01*
X54094Y-34645D01*
X54094Y-34567D01*
X54094Y-36222D01*
X54090Y-36220D01*
X54012Y-36220D01*
X53939Y-36250D01*
X53884Y-36305D01*
X53854Y-36378D01*
X53854Y-36456D01*
X53884Y-36528D01*
X53939Y-36583D01*
X54011Y-36613D01*
X54090Y-36613D01*
X54162Y-36584D01*
X54217Y-36528D01*
X54247Y-36456D01*
X54247Y-36378D01*
X54247Y-38820D01*
X54203Y-38864D01*
X54173Y-38937D01*
X54173Y-39015D01*
X54203Y-39087D01*
X54258Y-39142D01*
X54330Y-39172D01*
X54409Y-39173D01*
X54481Y-39143D01*
X54536Y-39087D01*
X54566Y-39015D01*
X54566Y-38937D01*
X54566Y-39331D01*
X54536Y-39258D01*
X54481Y-39203D01*
X54409Y-39173D01*
X54331Y-39173D01*
X54258Y-39203D01*
X54203Y-39258D01*
X54173Y-39330D01*
X54173Y-39409D01*
X54203Y-39481D01*
X54219Y-39498D01*
X54203Y-39514D01*
X54173Y-39586D01*
X54173Y-39664D01*
X54203Y-39737D01*
X54258Y-39792D01*
X54330Y-39822D01*
X54409Y-39822D01*
X54481Y-39792D01*
X54536Y-39737D01*
X54566Y-39665D01*
X54566Y-39587D01*
X54566Y-42931D01*
X54554Y-42943D01*
X54524Y-43015D01*
X54524Y-43093D01*
X54554Y-43166D01*
X54609Y-43221D01*
X54681Y-43251D01*
X54759Y-43251D01*
X54832Y-43221D01*
X54844Y-43209D01*
X54853Y-43217D01*
X54925Y-43247D01*
X55003Y-43247D01*
X55075Y-43217D01*
X55086Y-43206D01*
X55113Y-43233D01*
X55185Y-43263D01*
X55263Y-43263D01*
X55336Y-43233D01*
X55338Y-43231D01*
X55341Y-43233D01*
X55413Y-43263D01*
X55491Y-43263D01*
X55564Y-43233D01*
X55619Y-43178D01*
X55649Y-43106D01*
X55649Y-43028D01*
X55649Y-50570D01*
X54409Y-50570D01*
X54409Y-41004D01*
X54409Y-40610D01*
X54379Y-40538D01*
X54324Y-40483D01*
X54251Y-40453D01*
X54173Y-40452D01*
X54101Y-40482D01*
X54046Y-40538D01*
X54016Y-40610D01*
X54015Y-40688D01*
X54045Y-40760D01*
X54101Y-40816D01*
X54173Y-40846D01*
X54251Y-40846D01*
X54323Y-40816D01*
X54379Y-40761D01*
X54409Y-40688D01*
X54409Y-40610D01*
X54409Y-41004D01*
X54379Y-40932D01*
X54324Y-40876D01*
X54251Y-40846D01*
X54173Y-40846D01*
X54101Y-40876D01*
X54046Y-40931D01*
X54016Y-41004D01*
X54015Y-41082D01*
X54045Y-41154D01*
X54101Y-41209D01*
X54173Y-41239D01*
X54251Y-41239D01*
X54323Y-41210D01*
X54379Y-41154D01*
X54409Y-41082D01*
X54409Y-41004D01*
X54409Y-50570D01*
X54173Y-50570D01*
X54173Y-41378D01*
X54143Y-41306D01*
X54087Y-41250D01*
X54015Y-41220D01*
X53937Y-41220D01*
X53865Y-41250D01*
X53858Y-41257D01*
X53858Y-38316D01*
X53828Y-38243D01*
X53773Y-38188D01*
X53759Y-38182D01*
X53759Y-37470D01*
X53729Y-37398D01*
X53674Y-37343D01*
X53602Y-37313D01*
X53524Y-37313D01*
X53451Y-37343D01*
X53396Y-37398D01*
X53366Y-37470D01*
X53366Y-37548D01*
X53396Y-37621D01*
X53451Y-37676D01*
X53523Y-37706D01*
X53601Y-37706D01*
X53674Y-37676D01*
X53729Y-37621D01*
X53759Y-37549D01*
X53759Y-37470D01*
X53759Y-38182D01*
X53701Y-38158D01*
X53623Y-38158D01*
X53550Y-38188D01*
X53495Y-38243D01*
X53465Y-38315D01*
X53465Y-38366D01*
X53465Y-38366D01*
X53392Y-38396D01*
X53337Y-38451D01*
X53326Y-38477D01*
X53326Y-32342D01*
X53296Y-32270D01*
X53241Y-32215D01*
X53169Y-32185D01*
X53090Y-32185D01*
X53018Y-32215D01*
X52963Y-32270D01*
X52933Y-32342D01*
X52933Y-32420D01*
X52963Y-32493D01*
X53018Y-32548D01*
X53090Y-32578D01*
X53168Y-32578D01*
X53241Y-32548D01*
X53296Y-32493D01*
X53326Y-32421D01*
X53326Y-32342D01*
X53326Y-38477D01*
X53307Y-38523D01*
X53307Y-38601D01*
X53337Y-38674D01*
X53392Y-38729D01*
X53464Y-38759D01*
X53542Y-38759D01*
X53615Y-38729D01*
X53670Y-38674D01*
X53700Y-38602D01*
X53700Y-38551D01*
X53700Y-38551D01*
X53773Y-38521D01*
X53828Y-38466D01*
X53858Y-38394D01*
X53858Y-38316D01*
X53858Y-41257D01*
X53809Y-41305D01*
X53779Y-41378D01*
X53779Y-41387D01*
X53779Y-41387D01*
X53779Y-40162D01*
X53749Y-40089D01*
X53700Y-40040D01*
X53700Y-39331D01*
X53700Y-38937D01*
X53670Y-38865D01*
X53615Y-38809D01*
X53543Y-38779D01*
X53465Y-38779D01*
X53392Y-38809D01*
X53337Y-38864D01*
X53307Y-38937D01*
X53307Y-39015D01*
X53337Y-39087D01*
X53392Y-39142D01*
X53464Y-39172D01*
X53542Y-39173D01*
X53615Y-39143D01*
X53670Y-39087D01*
X53700Y-39015D01*
X53700Y-38937D01*
X53700Y-39331D01*
X53670Y-39258D01*
X53615Y-39203D01*
X53543Y-39173D01*
X53465Y-39173D01*
X53392Y-39203D01*
X53337Y-39258D01*
X53307Y-39330D01*
X53307Y-39409D01*
X53337Y-39481D01*
X53392Y-39536D01*
X53464Y-39566D01*
X53542Y-39566D01*
X53615Y-39536D01*
X53670Y-39481D01*
X53700Y-39409D01*
X53700Y-39331D01*
X53700Y-40040D01*
X53694Y-40034D01*
X53622Y-40004D01*
X53544Y-40004D01*
X53471Y-40034D01*
X53416Y-40089D01*
X53386Y-40161D01*
X53386Y-40239D01*
X53416Y-40312D01*
X53471Y-40367D01*
X53543Y-40397D01*
X53621Y-40397D01*
X53694Y-40367D01*
X53749Y-40312D01*
X53779Y-40240D01*
X53779Y-40162D01*
X53779Y-41387D01*
X53761Y-41369D01*
X53689Y-41339D01*
X53611Y-41339D01*
X53543Y-41367D01*
X53543Y-40610D01*
X53513Y-40538D01*
X53457Y-40483D01*
X53385Y-40453D01*
X53307Y-40452D01*
X53267Y-40469D01*
X53267Y-34823D01*
X53237Y-34750D01*
X53182Y-34695D01*
X53110Y-34665D01*
X53032Y-34665D01*
X52959Y-34695D01*
X52904Y-34750D01*
X52874Y-34822D01*
X52874Y-34898D01*
X52867Y-34898D01*
X52794Y-34928D01*
X52739Y-34983D01*
X52709Y-35055D01*
X52709Y-35133D01*
X52739Y-35206D01*
X52794Y-35261D01*
X52866Y-35291D01*
X52944Y-35291D01*
X53017Y-35261D01*
X53072Y-35206D01*
X53102Y-35134D01*
X53102Y-35058D01*
X53109Y-35058D01*
X53182Y-35028D01*
X53237Y-34973D01*
X53267Y-34901D01*
X53267Y-34823D01*
X53267Y-40469D01*
X53235Y-40482D01*
X53179Y-40538D01*
X53149Y-40610D01*
X53149Y-40658D01*
X53097Y-40679D01*
X53066Y-40710D01*
X53066Y-37288D01*
X53066Y-36713D01*
X53036Y-36640D01*
X52981Y-36585D01*
X52909Y-36555D01*
X52831Y-36555D01*
X52758Y-36585D01*
X52703Y-36640D01*
X52673Y-36712D01*
X52673Y-36790D01*
X52703Y-36863D01*
X52758Y-36918D01*
X52830Y-36948D01*
X52908Y-36948D01*
X52981Y-36918D01*
X53036Y-36863D01*
X53066Y-36791D01*
X53066Y-36713D01*
X53066Y-37288D01*
X53036Y-37215D01*
X52981Y-37160D01*
X52909Y-37130D01*
X52831Y-37130D01*
X52758Y-37160D01*
X52703Y-37215D01*
X52673Y-37287D01*
X52673Y-37311D01*
X52607Y-37311D01*
X52534Y-37341D01*
X52479Y-37396D01*
X52449Y-37468D01*
X52449Y-37546D01*
X52479Y-37619D01*
X52494Y-37634D01*
X52431Y-37660D01*
X52389Y-37702D01*
X52389Y-35851D01*
X52359Y-35778D01*
X52304Y-35723D01*
X52232Y-35693D01*
X52154Y-35693D01*
X52081Y-35723D01*
X52026Y-35778D01*
X51996Y-35850D01*
X51996Y-35928D01*
X52026Y-36001D01*
X52081Y-36056D01*
X52153Y-36086D01*
X52231Y-36086D01*
X52304Y-36056D01*
X52359Y-36001D01*
X52389Y-35929D01*
X52389Y-35851D01*
X52389Y-37702D01*
X52376Y-37715D01*
X52346Y-37787D01*
X52346Y-37865D01*
X52376Y-37938D01*
X52431Y-37993D01*
X52491Y-38018D01*
X52451Y-38057D01*
X52421Y-38130D01*
X52421Y-38208D01*
X52451Y-38280D01*
X52506Y-38335D01*
X52578Y-38365D01*
X52657Y-38365D01*
X52729Y-38336D01*
X52784Y-38280D01*
X52814Y-38208D01*
X52814Y-38130D01*
X52784Y-38058D01*
X52729Y-38002D01*
X52670Y-37977D01*
X52709Y-37938D01*
X52739Y-37866D01*
X52739Y-37788D01*
X52709Y-37715D01*
X52694Y-37700D01*
X52757Y-37674D01*
X52812Y-37619D01*
X52842Y-37547D01*
X52842Y-37523D01*
X52908Y-37523D01*
X52981Y-37493D01*
X53036Y-37438D01*
X53066Y-37366D01*
X53066Y-37288D01*
X53066Y-40710D01*
X53042Y-40734D01*
X53012Y-40807D01*
X53012Y-40885D01*
X53041Y-40957D01*
X53097Y-41013D01*
X53169Y-41043D01*
X53247Y-41043D01*
X53319Y-41013D01*
X53375Y-40957D01*
X53405Y-40885D01*
X53405Y-40838D01*
X53457Y-40816D01*
X53513Y-40761D01*
X53543Y-40688D01*
X53543Y-40610D01*
X53543Y-41367D01*
X53538Y-41369D01*
X53484Y-41423D01*
X53484Y-41201D01*
X53454Y-41128D01*
X53398Y-41073D01*
X53326Y-41043D01*
X53248Y-41043D01*
X53176Y-41073D01*
X53120Y-41128D01*
X53090Y-41200D01*
X53090Y-41279D01*
X53120Y-41351D01*
X53175Y-41406D01*
X53248Y-41436D01*
X53326Y-41436D01*
X53398Y-41406D01*
X53453Y-41351D01*
X53483Y-41279D01*
X53484Y-41201D01*
X53484Y-41423D01*
X53483Y-41424D01*
X53453Y-41496D01*
X53453Y-41574D01*
X53483Y-41647D01*
X53538Y-41702D01*
X53610Y-41732D01*
X53688Y-41732D01*
X53761Y-41702D01*
X53816Y-41647D01*
X53846Y-41575D01*
X53846Y-41565D01*
X53864Y-41583D01*
X53937Y-41613D01*
X54015Y-41613D01*
X54087Y-41584D01*
X54142Y-41528D01*
X54172Y-41456D01*
X54173Y-41378D01*
X54173Y-50570D01*
X53775Y-50570D01*
X53775Y-42083D01*
X53745Y-42010D01*
X53695Y-41960D01*
X53700Y-41948D01*
X53700Y-41870D01*
X53670Y-41798D01*
X53615Y-41742D01*
X53543Y-41712D01*
X53465Y-41712D01*
X53392Y-41742D01*
X53337Y-41797D01*
X53307Y-41870D01*
X53307Y-41948D01*
X53337Y-42020D01*
X53387Y-42070D01*
X53382Y-42082D01*
X53382Y-42160D01*
X53412Y-42233D01*
X53467Y-42288D01*
X53539Y-42318D01*
X53617Y-42318D01*
X53690Y-42288D01*
X53745Y-42233D01*
X53775Y-42161D01*
X53775Y-42083D01*
X53775Y-50570D01*
X53441Y-50570D01*
X53441Y-48970D01*
X53409Y-48890D01*
X53363Y-48845D01*
X53409Y-48800D01*
X53441Y-48721D01*
X53441Y-48635D01*
X53409Y-48556D01*
X53368Y-48515D01*
X53409Y-48475D01*
X53441Y-48396D01*
X53441Y-48310D01*
X53409Y-48231D01*
X53354Y-48176D01*
X53389Y-48140D01*
X53422Y-48061D01*
X53422Y-47975D01*
X53389Y-47896D01*
X53328Y-47835D01*
X53318Y-47831D01*
X53328Y-47827D01*
X53389Y-47766D01*
X53422Y-47687D01*
X53422Y-47601D01*
X53389Y-47522D01*
X53359Y-47492D01*
X53399Y-47451D01*
X53432Y-47372D01*
X53432Y-47286D01*
X53399Y-47207D01*
X53338Y-47146D01*
X53259Y-47114D01*
X53173Y-47114D01*
X53094Y-47146D01*
X53049Y-47192D01*
X53004Y-47146D01*
X52979Y-47136D01*
X52979Y-45172D01*
X52946Y-45093D01*
X52910Y-45057D01*
X52945Y-45022D01*
X52978Y-44943D01*
X52978Y-44857D01*
X52946Y-44778D01*
X52885Y-44717D01*
X52814Y-44688D01*
X52814Y-38524D01*
X52784Y-38451D01*
X52729Y-38396D01*
X52657Y-38366D01*
X52579Y-38366D01*
X52506Y-38396D01*
X52451Y-38451D01*
X52421Y-38523D01*
X52421Y-38601D01*
X52451Y-38674D01*
X52506Y-38729D01*
X52578Y-38759D01*
X52657Y-38759D01*
X52729Y-38729D01*
X52784Y-38674D01*
X52814Y-38602D01*
X52814Y-38524D01*
X52814Y-44688D01*
X52806Y-44684D01*
X52731Y-44684D01*
X52731Y-41693D01*
X52701Y-41620D01*
X52646Y-41565D01*
X52578Y-41537D01*
X52578Y-40165D01*
X52548Y-40093D01*
X52493Y-40038D01*
X52428Y-40011D01*
X52428Y-39977D01*
X52398Y-39904D01*
X52343Y-39849D01*
X52271Y-39819D01*
X52193Y-39819D01*
X52120Y-39849D01*
X52065Y-39904D01*
X52035Y-39976D01*
X52035Y-40054D01*
X52065Y-40127D01*
X52120Y-40182D01*
X52185Y-40209D01*
X52185Y-40243D01*
X52215Y-40315D01*
X52270Y-40371D01*
X52342Y-40401D01*
X52420Y-40401D01*
X52493Y-40371D01*
X52548Y-40316D01*
X52578Y-40244D01*
X52578Y-40165D01*
X52578Y-41537D01*
X52574Y-41535D01*
X52504Y-41535D01*
X52504Y-41493D01*
X52474Y-41420D01*
X52419Y-41365D01*
X52346Y-41335D01*
X52268Y-41335D01*
X52196Y-41365D01*
X52141Y-41420D01*
X52111Y-41492D01*
X52110Y-41570D01*
X52140Y-41643D01*
X52196Y-41698D01*
X52267Y-41728D01*
X52244Y-41728D01*
X52172Y-41758D01*
X52117Y-41813D01*
X52087Y-41885D01*
X52087Y-41963D01*
X52116Y-42036D01*
X52172Y-42091D01*
X52244Y-42121D01*
X52322Y-42121D01*
X52394Y-42091D01*
X52450Y-42036D01*
X52480Y-41964D01*
X52480Y-41922D01*
X52495Y-41928D01*
X52573Y-41928D01*
X52646Y-41898D01*
X52701Y-41843D01*
X52731Y-41771D01*
X52731Y-41693D01*
X52731Y-44684D01*
X52720Y-44684D01*
X52641Y-44717D01*
X52580Y-44778D01*
X52547Y-44857D01*
X52547Y-44943D01*
X52580Y-45022D01*
X52615Y-45058D01*
X52581Y-45093D01*
X52548Y-45172D01*
X52548Y-45258D01*
X52580Y-45337D01*
X52641Y-45398D01*
X52720Y-45430D01*
X52806Y-45430D01*
X52885Y-45398D01*
X52946Y-45337D01*
X52979Y-45258D01*
X52979Y-45172D01*
X52979Y-47136D01*
X52924Y-47114D01*
X52839Y-47114D01*
X52759Y-47146D01*
X52719Y-47187D01*
X52679Y-47146D01*
X52600Y-47114D01*
X52514Y-47114D01*
X52435Y-47146D01*
X52394Y-47187D01*
X52354Y-47146D01*
X52275Y-47114D01*
X52270Y-47114D01*
X52270Y-45172D01*
X52237Y-45093D01*
X52201Y-45057D01*
X52237Y-45022D01*
X52269Y-44943D01*
X52270Y-44857D01*
X52237Y-44778D01*
X52176Y-44717D01*
X52097Y-44684D01*
X52011Y-44684D01*
X51932Y-44717D01*
X51928Y-44721D01*
X51928Y-36422D01*
X51898Y-36349D01*
X51865Y-36316D01*
X51865Y-35249D01*
X51835Y-35176D01*
X51780Y-35121D01*
X51708Y-35091D01*
X51630Y-35091D01*
X51557Y-35121D01*
X51502Y-35176D01*
X51472Y-35248D01*
X51472Y-35326D01*
X51502Y-35399D01*
X51557Y-35454D01*
X51629Y-35484D01*
X51707Y-35484D01*
X51780Y-35454D01*
X51835Y-35399D01*
X51865Y-35327D01*
X51865Y-35249D01*
X51865Y-36316D01*
X51843Y-36294D01*
X51771Y-36264D01*
X51693Y-36264D01*
X51641Y-36285D01*
X51641Y-35890D01*
X51611Y-35817D01*
X51556Y-35762D01*
X51484Y-35732D01*
X51406Y-35732D01*
X51384Y-35741D01*
X51384Y-34201D01*
X51351Y-34122D01*
X51291Y-34061D01*
X51212Y-34028D01*
X51126Y-34028D01*
X51047Y-34061D01*
X50986Y-34121D01*
X50953Y-34200D01*
X50953Y-34286D01*
X50986Y-34365D01*
X51046Y-34426D01*
X51125Y-34459D01*
X51211Y-34459D01*
X51290Y-34426D01*
X51351Y-34366D01*
X51384Y-34287D01*
X51384Y-34201D01*
X51384Y-35741D01*
X51333Y-35762D01*
X51278Y-35817D01*
X51248Y-35889D01*
X51248Y-35967D01*
X51278Y-36040D01*
X51333Y-36095D01*
X51405Y-36125D01*
X51483Y-36125D01*
X51556Y-36095D01*
X51611Y-36040D01*
X51641Y-35968D01*
X51641Y-35890D01*
X51641Y-36285D01*
X51620Y-36294D01*
X51565Y-36349D01*
X51535Y-36421D01*
X51535Y-36499D01*
X51565Y-36572D01*
X51620Y-36627D01*
X51692Y-36657D01*
X51770Y-36657D01*
X51843Y-36627D01*
X51898Y-36572D01*
X51928Y-36500D01*
X51928Y-36422D01*
X51928Y-44721D01*
X51924Y-44725D01*
X51924Y-37201D01*
X51894Y-37128D01*
X51864Y-37098D01*
X51894Y-37068D01*
X51924Y-36996D01*
X51924Y-36918D01*
X51894Y-36845D01*
X51839Y-36790D01*
X51767Y-36760D01*
X51689Y-36760D01*
X51616Y-36790D01*
X51561Y-36845D01*
X51531Y-36917D01*
X51531Y-36995D01*
X51561Y-37068D01*
X51591Y-37098D01*
X51561Y-37128D01*
X51531Y-37200D01*
X51531Y-37278D01*
X51561Y-37351D01*
X51580Y-37370D01*
X51554Y-37396D01*
X51524Y-37468D01*
X51524Y-37546D01*
X51554Y-37619D01*
X51609Y-37674D01*
X51681Y-37704D01*
X51759Y-37704D01*
X51832Y-37674D01*
X51887Y-37619D01*
X51917Y-37547D01*
X51917Y-37469D01*
X51887Y-37396D01*
X51868Y-37377D01*
X51894Y-37351D01*
X51924Y-37279D01*
X51924Y-37201D01*
X51924Y-44725D01*
X51913Y-44736D01*
X51913Y-37953D01*
X51883Y-37880D01*
X51828Y-37825D01*
X51756Y-37795D01*
X51678Y-37795D01*
X51605Y-37825D01*
X51550Y-37880D01*
X51520Y-37952D01*
X51520Y-38030D01*
X51550Y-38103D01*
X51605Y-38158D01*
X51677Y-38188D01*
X51755Y-38188D01*
X51828Y-38158D01*
X51883Y-38103D01*
X51913Y-38031D01*
X51913Y-37953D01*
X51913Y-44736D01*
X51871Y-44778D01*
X51838Y-44857D01*
X51838Y-44943D01*
X51871Y-45022D01*
X51907Y-45058D01*
X51872Y-45093D01*
X51839Y-45172D01*
X51839Y-45258D01*
X51871Y-45337D01*
X51932Y-45398D01*
X52011Y-45431D01*
X52097Y-45431D01*
X52176Y-45398D01*
X52237Y-45337D01*
X52270Y-45258D01*
X52270Y-45172D01*
X52270Y-47114D01*
X52189Y-47114D01*
X52110Y-47146D01*
X52079Y-47177D01*
X52049Y-47146D01*
X51970Y-47114D01*
X51884Y-47114D01*
X51805Y-47146D01*
X51774Y-47177D01*
X51744Y-47146D01*
X51665Y-47114D01*
X51579Y-47114D01*
X51500Y-47146D01*
X51474Y-47172D01*
X51449Y-47146D01*
X51369Y-47114D01*
X51284Y-47114D01*
X51204Y-47146D01*
X51144Y-47207D01*
X51111Y-47286D01*
X51111Y-47372D01*
X51143Y-47451D01*
X51179Y-47487D01*
X51144Y-47522D01*
X51111Y-47601D01*
X51111Y-47687D01*
X51143Y-47766D01*
X51204Y-47827D01*
X51214Y-47831D01*
X51204Y-47835D01*
X51144Y-47896D01*
X51111Y-47975D01*
X51111Y-48061D01*
X51143Y-48140D01*
X51189Y-48186D01*
X51144Y-48231D01*
X51111Y-48310D01*
X51111Y-48395D01*
X51143Y-48475D01*
X51179Y-48510D01*
X51144Y-48545D01*
X51111Y-48625D01*
X51111Y-48710D01*
X51143Y-48790D01*
X51189Y-48835D01*
X51144Y-48880D01*
X51111Y-48959D01*
X51111Y-49045D01*
X51143Y-49124D01*
X51204Y-49185D01*
X51283Y-49218D01*
X51369Y-49218D01*
X51448Y-49185D01*
X51474Y-49160D01*
X51509Y-49195D01*
X51588Y-49228D01*
X51674Y-49228D01*
X51753Y-49195D01*
X51779Y-49170D01*
X51804Y-49195D01*
X51884Y-49228D01*
X51969Y-49228D01*
X52049Y-49195D01*
X52084Y-49160D01*
X52119Y-49195D01*
X52199Y-49228D01*
X52284Y-49228D01*
X52364Y-49195D01*
X52404Y-49155D01*
X52444Y-49195D01*
X52523Y-49228D01*
X52609Y-49228D01*
X52688Y-49195D01*
X52729Y-49155D01*
X52769Y-49195D01*
X52848Y-49228D01*
X52934Y-49228D01*
X53013Y-49195D01*
X53059Y-49150D01*
X53104Y-49195D01*
X53183Y-49228D01*
X53269Y-49228D01*
X53348Y-49195D01*
X53409Y-49135D01*
X53441Y-49055D01*
X53441Y-48970D01*
X53441Y-50570D01*
X50924Y-50570D01*
X50924Y-37913D01*
X50895Y-37841D01*
X50839Y-37786D01*
X50767Y-37756D01*
X50696Y-37756D01*
X50696Y-32063D01*
X50666Y-31991D01*
X50611Y-31935D01*
X50539Y-31905D01*
X50461Y-31905D01*
X50388Y-31935D01*
X50333Y-31990D01*
X50303Y-32063D01*
X50303Y-32141D01*
X50333Y-32213D01*
X50388Y-32268D01*
X50460Y-32298D01*
X50538Y-32299D01*
X50611Y-32269D01*
X50666Y-32213D01*
X50696Y-32141D01*
X50696Y-32063D01*
X50696Y-37756D01*
X50689Y-37756D01*
X50617Y-37785D01*
X50561Y-37841D01*
X50531Y-37913D01*
X50531Y-37991D01*
X50561Y-38063D01*
X50616Y-38119D01*
X50689Y-38149D01*
X50767Y-38149D01*
X50839Y-38119D01*
X50894Y-38064D01*
X50924Y-37992D01*
X50924Y-37913D01*
X50924Y-50570D01*
X50216Y-50570D01*
X50216Y-36382D01*
X50186Y-36310D01*
X50131Y-36254D01*
X50058Y-36224D01*
X49980Y-36224D01*
X49944Y-36239D01*
X49944Y-36186D01*
X49914Y-36113D01*
X49859Y-36058D01*
X49787Y-36028D01*
X49709Y-36028D01*
X49636Y-36058D01*
X49581Y-36113D01*
X49551Y-36185D01*
X49551Y-36263D01*
X49581Y-36336D01*
X49636Y-36391D01*
X49708Y-36421D01*
X49786Y-36421D01*
X49823Y-36406D01*
X49823Y-36460D01*
X49852Y-36532D01*
X49908Y-36587D01*
X49980Y-36617D01*
X50058Y-36617D01*
X50130Y-36588D01*
X50186Y-36532D01*
X50216Y-36460D01*
X50216Y-36382D01*
X50216Y-50570D01*
X50113Y-50570D01*
X50113Y-36973D01*
X50083Y-36900D01*
X50028Y-36845D01*
X49956Y-36815D01*
X49878Y-36815D01*
X49805Y-36845D01*
X49750Y-36900D01*
X49720Y-36972D01*
X49720Y-37027D01*
X49673Y-37008D01*
X49595Y-37008D01*
X49522Y-37038D01*
X49467Y-37093D01*
X49437Y-37165D01*
X49437Y-37223D01*
X49393Y-37205D01*
X49315Y-37205D01*
X49242Y-37235D01*
X49187Y-37290D01*
X49157Y-37362D01*
X49157Y-37440D01*
X49187Y-37513D01*
X49242Y-37568D01*
X49314Y-37598D01*
X49392Y-37598D01*
X49465Y-37568D01*
X49520Y-37513D01*
X49550Y-37441D01*
X49550Y-37383D01*
X49594Y-37401D01*
X49672Y-37401D01*
X49745Y-37371D01*
X49800Y-37316D01*
X49830Y-37244D01*
X49830Y-37189D01*
X49877Y-37208D01*
X49955Y-37208D01*
X50028Y-37178D01*
X50083Y-37123D01*
X50113Y-37051D01*
X50113Y-36973D01*
X50113Y-50570D01*
X48905Y-50570D01*
X48905Y-37689D01*
X48875Y-37617D01*
X48874Y-37616D01*
X48875Y-37615D01*
X48905Y-37543D01*
X48905Y-37465D01*
X48875Y-37392D01*
X48820Y-37337D01*
X48747Y-37307D01*
X48669Y-37307D01*
X48597Y-37337D01*
X48542Y-37392D01*
X48512Y-37464D01*
X48512Y-37542D01*
X48541Y-37615D01*
X48542Y-37616D01*
X48542Y-37616D01*
X48512Y-37689D01*
X48512Y-37767D01*
X48541Y-37839D01*
X48597Y-37894D01*
X48669Y-37924D01*
X48747Y-37924D01*
X48819Y-37895D01*
X48875Y-37839D01*
X48905Y-37767D01*
X48905Y-37689D01*
X48905Y-50570D01*
X46771Y-50570D01*
X46771Y-48937D01*
X46741Y-48865D01*
X46686Y-48809D01*
X46614Y-48779D01*
X46535Y-48779D01*
X46463Y-48809D01*
X46417Y-48855D01*
X46371Y-48809D01*
X46299Y-48779D01*
X46220Y-48779D01*
X46148Y-48809D01*
X46102Y-48855D01*
X46056Y-48809D01*
X45984Y-48779D01*
X45905Y-48779D01*
X45833Y-48809D01*
X45787Y-48855D01*
X45741Y-48809D01*
X45669Y-48779D01*
X45590Y-48779D01*
X45518Y-48809D01*
X45472Y-48855D01*
X45426Y-48809D01*
X45354Y-48779D01*
X45276Y-48779D01*
X45203Y-48809D01*
X45157Y-48855D01*
X45111Y-48809D01*
X45039Y-48779D01*
X44961Y-48779D01*
X44888Y-48809D01*
X44833Y-48864D01*
X44803Y-48937D01*
X44803Y-49015D01*
X44833Y-49087D01*
X44879Y-49133D01*
X44833Y-49179D01*
X44803Y-49252D01*
X44803Y-49330D01*
X44833Y-49402D01*
X44879Y-49448D01*
X44833Y-49494D01*
X44803Y-49567D01*
X44803Y-49645D01*
X44833Y-49717D01*
X44888Y-49772D01*
X44960Y-49802D01*
X45038Y-49802D01*
X45111Y-49773D01*
X45157Y-49726D01*
X45203Y-49772D01*
X45275Y-49802D01*
X45353Y-49802D01*
X45426Y-49773D01*
X45472Y-49726D01*
X45518Y-49772D01*
X45590Y-49802D01*
X45668Y-49802D01*
X45741Y-49773D01*
X45796Y-49717D01*
X45826Y-49645D01*
X45826Y-49567D01*
X45796Y-49495D01*
X45750Y-49448D01*
X45796Y-49402D01*
X45826Y-49330D01*
X45826Y-49252D01*
X45796Y-49180D01*
X45750Y-49133D01*
X45787Y-49096D01*
X45833Y-49142D01*
X45905Y-49172D01*
X45983Y-49173D01*
X46056Y-49143D01*
X46102Y-49096D01*
X46148Y-49142D01*
X46220Y-49172D01*
X46298Y-49173D01*
X46371Y-49143D01*
X46417Y-49096D01*
X46463Y-49142D01*
X46535Y-49172D01*
X46613Y-49173D01*
X46686Y-49143D01*
X46741Y-49087D01*
X46771Y-49015D01*
X46771Y-48937D01*
X46771Y-50570D01*
X44687Y-50570D01*
X44687Y-48135D01*
X44687Y-30335D01*
X44639Y-30218D01*
X44549Y-30129D01*
X44432Y-30080D01*
X44306Y-30080D01*
X44189Y-30128D01*
X44099Y-30218D01*
X44051Y-30335D01*
X44051Y-30461D01*
X44099Y-30578D01*
X44188Y-30668D01*
X44305Y-30716D01*
X44432Y-30716D01*
X44549Y-30668D01*
X44638Y-30579D01*
X44687Y-30462D01*
X44687Y-30335D01*
X44687Y-48135D01*
X44639Y-48018D01*
X44549Y-47928D01*
X44432Y-47880D01*
X44306Y-47880D01*
X44189Y-47928D01*
X44099Y-48017D01*
X44051Y-48134D01*
X44051Y-48261D01*
X44099Y-48378D01*
X44188Y-48467D01*
X44305Y-48516D01*
X44432Y-48516D01*
X44549Y-48468D01*
X44638Y-48378D01*
X44687Y-48261D01*
X44687Y-48135D01*
X44687Y-50570D01*
X43586Y-50570D01*
X43586Y-32878D01*
X43556Y-32806D01*
X43501Y-32750D01*
X43429Y-32720D01*
X43350Y-32720D01*
X43278Y-32750D01*
X43223Y-32805D01*
X43193Y-32878D01*
X43193Y-32956D01*
X43222Y-33028D01*
X43278Y-33083D01*
X43350Y-33113D01*
X43428Y-33113D01*
X43500Y-33084D01*
X43556Y-33028D01*
X43586Y-32956D01*
X43586Y-32878D01*
X43586Y-50570D01*
X42995Y-50570D01*
X42995Y-30551D01*
X42965Y-30479D01*
X42910Y-30423D01*
X42838Y-30393D01*
X42760Y-30393D01*
X42687Y-30423D01*
X42632Y-30479D01*
X42602Y-30551D01*
X42602Y-30629D01*
X42632Y-30701D01*
X42687Y-30757D01*
X42759Y-30787D01*
X42838Y-30787D01*
X42910Y-30757D01*
X42965Y-30702D01*
X42995Y-30629D01*
X42995Y-30551D01*
X42995Y-50570D01*
X42929Y-50570D01*
X42882Y-50551D01*
X42764Y-50550D01*
X42716Y-50570D01*
X42602Y-50570D01*
X42602Y-30551D01*
X42572Y-30479D01*
X42517Y-30423D01*
X42444Y-30393D01*
X42405Y-30393D01*
X42405Y-30386D01*
X42375Y-30313D01*
X42320Y-30258D01*
X42247Y-30228D01*
X42169Y-30228D01*
X42097Y-30258D01*
X42042Y-30313D01*
X42012Y-30385D01*
X42012Y-30393D01*
X42011Y-30393D01*
X42011Y-30386D01*
X41981Y-30313D01*
X41926Y-30258D01*
X41854Y-30228D01*
X41776Y-30228D01*
X41703Y-30258D01*
X41648Y-30313D01*
X41618Y-30385D01*
X41618Y-30464D01*
X41648Y-30536D01*
X41703Y-30591D01*
X41775Y-30621D01*
X41815Y-30621D01*
X41815Y-30629D01*
X41845Y-30701D01*
X41900Y-30757D01*
X41972Y-30787D01*
X42050Y-30787D01*
X42123Y-30757D01*
X42178Y-30702D01*
X42208Y-30629D01*
X42208Y-30621D01*
X42208Y-30621D01*
X42208Y-30629D01*
X42238Y-30701D01*
X42293Y-30757D01*
X42366Y-30787D01*
X42444Y-30787D01*
X42516Y-30757D01*
X42572Y-30702D01*
X42602Y-30629D01*
X42602Y-30551D01*
X42602Y-50570D01*
X42495Y-50570D01*
X42448Y-50551D01*
X42330Y-50550D01*
X42282Y-50570D01*
X42208Y-50570D01*
X42208Y-32913D01*
X42178Y-32841D01*
X42123Y-32786D01*
X42051Y-32756D01*
X41972Y-32756D01*
X41900Y-32785D01*
X41845Y-32841D01*
X41815Y-32913D01*
X41815Y-32991D01*
X41845Y-33063D01*
X41900Y-33119D01*
X41972Y-33149D01*
X42050Y-33149D01*
X42123Y-33119D01*
X42178Y-33064D01*
X42208Y-32992D01*
X42208Y-32913D01*
X42208Y-50570D01*
X42064Y-50570D01*
X42017Y-50551D01*
X41899Y-50550D01*
X41851Y-50570D01*
X41631Y-50570D01*
X41617Y-50565D01*
X41617Y-32913D01*
X41617Y-30386D01*
X41588Y-30313D01*
X41532Y-30258D01*
X41460Y-30228D01*
X41382Y-30228D01*
X41310Y-30258D01*
X41254Y-30313D01*
X41224Y-30385D01*
X41224Y-30464D01*
X41254Y-30536D01*
X41309Y-30591D01*
X41381Y-30621D01*
X41460Y-30621D01*
X41532Y-30591D01*
X41587Y-30536D01*
X41617Y-30464D01*
X41617Y-30386D01*
X41617Y-32913D01*
X41588Y-32841D01*
X41532Y-32786D01*
X41460Y-32756D01*
X41382Y-32756D01*
X41310Y-32785D01*
X41254Y-32841D01*
X41224Y-32913D01*
X41224Y-32991D01*
X41254Y-33063D01*
X41309Y-33119D01*
X41381Y-33149D01*
X41460Y-33149D01*
X41532Y-33119D01*
X41587Y-33064D01*
X41617Y-32992D01*
X41617Y-32913D01*
X41617Y-50565D01*
X41584Y-50551D01*
X41466Y-50550D01*
X41418Y-50570D01*
X41027Y-50570D01*
X41027Y-30386D01*
X40997Y-30313D01*
X40942Y-30258D01*
X40869Y-30228D01*
X40791Y-30228D01*
X40719Y-30258D01*
X40664Y-30313D01*
X40634Y-30385D01*
X40634Y-30464D01*
X40663Y-30536D01*
X40719Y-30591D01*
X40791Y-30621D01*
X40869Y-30621D01*
X40941Y-30591D01*
X40997Y-30536D01*
X41027Y-30464D01*
X41027Y-30386D01*
X41027Y-50570D01*
X40633Y-50570D01*
X40633Y-30386D01*
X40603Y-30313D01*
X40548Y-30258D01*
X40476Y-30228D01*
X40398Y-30228D01*
X40325Y-30258D01*
X40270Y-30313D01*
X40240Y-30385D01*
X40240Y-30393D01*
X40239Y-30393D01*
X40239Y-30386D01*
X40210Y-30313D01*
X40154Y-30258D01*
X40082Y-30228D01*
X40004Y-30228D01*
X39932Y-30258D01*
X39876Y-30313D01*
X39846Y-30385D01*
X39846Y-30393D01*
X39807Y-30393D01*
X39735Y-30423D01*
X39679Y-30479D01*
X39649Y-30551D01*
X39649Y-30629D01*
X39679Y-30701D01*
X39734Y-30757D01*
X39807Y-30787D01*
X39885Y-30787D01*
X39957Y-30757D01*
X40013Y-30702D01*
X40043Y-30629D01*
X40043Y-30621D01*
X40043Y-30621D01*
X40043Y-30629D01*
X40073Y-30701D01*
X40128Y-30757D01*
X40200Y-30787D01*
X40279Y-30787D01*
X40351Y-30757D01*
X40406Y-30702D01*
X40436Y-30629D01*
X40436Y-30621D01*
X40475Y-30621D01*
X40548Y-30591D01*
X40603Y-30536D01*
X40633Y-30464D01*
X40633Y-30386D01*
X40633Y-50570D01*
X39649Y-50570D01*
X39649Y-30551D01*
X39619Y-30479D01*
X39564Y-30423D01*
X39492Y-30393D01*
X39413Y-30393D01*
X39341Y-30423D01*
X39286Y-30479D01*
X39256Y-30551D01*
X39256Y-30629D01*
X39285Y-30701D01*
X39341Y-30757D01*
X39413Y-30787D01*
X39491Y-30787D01*
X39563Y-30757D01*
X39619Y-30702D01*
X39649Y-30629D01*
X39649Y-30551D01*
X39649Y-50570D01*
X39255Y-50570D01*
X39255Y-30551D01*
X39225Y-30479D01*
X39170Y-30423D01*
X39098Y-30393D01*
X39058Y-30393D01*
X39058Y-30386D01*
X39028Y-30313D01*
X38973Y-30258D01*
X38901Y-30228D01*
X38823Y-30228D01*
X38750Y-30258D01*
X38695Y-30313D01*
X38665Y-30385D01*
X38665Y-30464D01*
X38695Y-30536D01*
X38750Y-30591D01*
X38822Y-30621D01*
X38862Y-30621D01*
X38862Y-30629D01*
X38892Y-30701D01*
X38947Y-30757D01*
X39019Y-30787D01*
X39097Y-30787D01*
X39170Y-30757D01*
X39225Y-30702D01*
X39255Y-30629D01*
X39255Y-30551D01*
X39255Y-50570D01*
X38468Y-50570D01*
X38468Y-30551D01*
X38438Y-30479D01*
X38383Y-30423D01*
X38310Y-30393D01*
X38271Y-30393D01*
X38271Y-30386D01*
X38241Y-30313D01*
X38186Y-30258D01*
X38114Y-30228D01*
X38035Y-30228D01*
X37963Y-30258D01*
X37908Y-30313D01*
X37878Y-30385D01*
X37878Y-30393D01*
X37839Y-30393D01*
X37766Y-30423D01*
X37711Y-30479D01*
X37681Y-30551D01*
X37681Y-30629D01*
X37711Y-30701D01*
X37766Y-30757D01*
X37838Y-30787D01*
X37916Y-30787D01*
X37989Y-30757D01*
X38044Y-30702D01*
X38074Y-30629D01*
X38074Y-30621D01*
X38075Y-30621D01*
X38075Y-30629D01*
X38104Y-30701D01*
X38160Y-30757D01*
X38232Y-30787D01*
X38310Y-30787D01*
X38382Y-30757D01*
X38438Y-30702D01*
X38468Y-30629D01*
X38468Y-30551D01*
X38468Y-50570D01*
X37413Y-50570D01*
X37413Y-48135D01*
X37413Y-30335D01*
X37365Y-30218D01*
X37275Y-30129D01*
X37158Y-30080D01*
X37032Y-30080D01*
X36915Y-30128D01*
X36825Y-30218D01*
X36777Y-30335D01*
X36777Y-30461D01*
X36825Y-30578D01*
X36914Y-30668D01*
X37031Y-30716D01*
X37158Y-30716D01*
X37275Y-30668D01*
X37364Y-30579D01*
X37413Y-30462D01*
X37413Y-30335D01*
X37413Y-48135D01*
X37365Y-48018D01*
X37275Y-47928D01*
X37158Y-47880D01*
X37032Y-47880D01*
X36915Y-47928D01*
X36825Y-48017D01*
X36777Y-48134D01*
X36777Y-48261D01*
X36825Y-48378D01*
X36914Y-48467D01*
X37031Y-48516D01*
X37158Y-48516D01*
X37275Y-48468D01*
X37364Y-48378D01*
X37413Y-48261D01*
X37413Y-48135D01*
X37413Y-50570D01*
X32503Y-50570D01*
X32503Y-44450D01*
X32527Y-44393D01*
X32527Y-44276D01*
X32503Y-44219D01*
X32503Y-44017D01*
X32527Y-43960D01*
X32527Y-43843D01*
X32503Y-43786D01*
X32503Y-43584D01*
X32527Y-43527D01*
X32527Y-43410D01*
X32503Y-43353D01*
X32503Y-35611D01*
X32527Y-35554D01*
X32527Y-35437D01*
X32503Y-35380D01*
X32503Y-35178D01*
X32527Y-35121D01*
X32527Y-35004D01*
X32503Y-34947D01*
X32503Y-34745D01*
X32527Y-34688D01*
X32527Y-34571D01*
X32503Y-34514D01*
X32503Y-29625D01*
X41419Y-29625D01*
X41466Y-29645D01*
X41583Y-29645D01*
X41631Y-29625D01*
X41852Y-29625D01*
X41899Y-29645D01*
X42016Y-29645D01*
X42064Y-29625D01*
X42283Y-29625D01*
X42330Y-29645D01*
X42447Y-29645D01*
X42494Y-29625D01*
X42717Y-29625D01*
X42764Y-29645D01*
X42881Y-29645D01*
X42928Y-29625D01*
X56319Y-29625D01*
X56366Y-29645D01*
X56483Y-29645D01*
X56530Y-29625D01*
X56752Y-29625D01*
X56799Y-29645D01*
X56916Y-29645D01*
X56963Y-29625D01*
X57185Y-29625D01*
X57232Y-29645D01*
X57349Y-29645D01*
X57396Y-29625D01*
X57619Y-29625D01*
X57666Y-29645D01*
X57783Y-29645D01*
X57830Y-29625D01*
X65984Y-29625D01*
X65984Y-30708D01*
X65984Y-30708D01*
X65984Y-39483D01*
X65972Y-39512D01*
X65972Y-39629D01*
X65984Y-39657D01*
X65984Y-39916D01*
X65972Y-39945D01*
X65972Y-40062D01*
X65984Y-40090D01*
X65984Y-40349D01*
X65972Y-40378D01*
X65972Y-40495D01*
X65984Y-40523D01*
X65984Y-40782D01*
X65972Y-40811D01*
X65972Y-40928D01*
X65984Y-40956D01*
X65984Y-49527D01*
M02*
