G04 (created by PCBNEW (2013-07-07 BZR 4022)-stable) date 2014/8/22 下午 04:39:40*
%MOIN*%
G04 Gerber Fmt 3.4, Leading zero omitted, Abs format*
%FSLAX34Y34*%
G01*
G70*
G90*
G04 APERTURE LIST*
%ADD10C,0.005*%
%ADD11C,0.0077*%
%ADD12C,0.00787402*%
%ADD13C,0.011811*%
G04 APERTURE END LIST*
G54D10*
G54D11*
X69000Y-26600D02*
X29500Y-26600D01*
X56384Y-29350D02*
X42862Y-29350D01*
X42862Y-50846D02*
X56386Y-50846D01*
X31444Y-51633D02*
X41484Y-51633D01*
X42862Y-50846D02*
X42862Y-51633D01*
X41484Y-50846D02*
X41484Y-51633D01*
X31444Y-28562D02*
X41484Y-28562D01*
X42862Y-28562D02*
X42862Y-29350D01*
X41484Y-28562D02*
X41484Y-29350D01*
X29500Y-53600D02*
X29500Y-26600D01*
X69000Y-53600D02*
X29500Y-53600D01*
X69000Y-26598D02*
X69000Y-53600D01*
X66228Y-29350D02*
X66228Y-39492D01*
X57764Y-29350D02*
X66228Y-29350D01*
X57764Y-28562D02*
X57764Y-29350D01*
X67016Y-28562D02*
X57764Y-28562D01*
X67016Y-39492D02*
X67016Y-28562D01*
X66228Y-39492D02*
X67016Y-39492D01*
X57795Y-51633D02*
X57795Y-50846D01*
X67016Y-51633D02*
X57795Y-51633D01*
X67016Y-40948D02*
X67016Y-51633D01*
X66228Y-40948D02*
X67016Y-40948D01*
X66228Y-50846D02*
X66228Y-40948D01*
X57795Y-50846D02*
X66228Y-50846D01*
X31444Y-51633D02*
X31444Y-44413D01*
X56386Y-51633D02*
X42862Y-51633D01*
X56386Y-51633D02*
X56386Y-50846D01*
X32232Y-50846D02*
X41484Y-50846D01*
X32232Y-44413D02*
X32232Y-50846D01*
X31444Y-44413D02*
X32232Y-44413D01*
X31444Y-43390D02*
X31444Y-35555D01*
X32232Y-43390D02*
X31444Y-43390D01*
X32232Y-35555D02*
X32232Y-43390D01*
X31444Y-35555D02*
X32232Y-35555D01*
X32232Y-29350D02*
X32232Y-34570D01*
X31444Y-34570D02*
X32232Y-34570D01*
X31444Y-28562D02*
X31444Y-34570D01*
X42862Y-28562D02*
X56384Y-28562D01*
X56384Y-28562D02*
X56384Y-29350D01*
X32232Y-29350D02*
X41484Y-29350D01*
G54D12*
X32579Y-31804D02*
X32656Y-31881D01*
X32656Y-31804D02*
X32579Y-31881D01*
X32579Y-32418D02*
X32656Y-32495D01*
X32656Y-32418D02*
X32579Y-32495D01*
X32579Y-33028D02*
X32656Y-33105D01*
X32656Y-33028D02*
X32579Y-33105D01*
X32579Y-33583D02*
X32656Y-33660D01*
X32656Y-33583D02*
X32579Y-33660D01*
X32579Y-34059D02*
X32656Y-34136D01*
X32656Y-34059D02*
X32579Y-34136D01*
X32579Y-34611D02*
X32656Y-34688D01*
X32656Y-34611D02*
X32579Y-34688D01*
X32579Y-35170D02*
X32656Y-35247D01*
X32656Y-35170D02*
X32579Y-35247D01*
X32579Y-35772D02*
X32656Y-35849D01*
X32656Y-35772D02*
X32579Y-35849D01*
X32579Y-36382D02*
X32656Y-36459D01*
X32656Y-36382D02*
X32579Y-36459D01*
X32579Y-36930D02*
X32656Y-37007D01*
X32656Y-36930D02*
X32579Y-37007D01*
X32579Y-37441D02*
X32656Y-37518D01*
X32656Y-37441D02*
X32579Y-37518D01*
X32579Y-38000D02*
X32656Y-38077D01*
X32656Y-38000D02*
X32579Y-38077D01*
X32579Y-38540D02*
X32656Y-38617D01*
X32656Y-38540D02*
X32579Y-38617D01*
X32579Y-39040D02*
X32656Y-39117D01*
X32656Y-39040D02*
X32579Y-39117D01*
X32579Y-39559D02*
X32656Y-39636D01*
X32656Y-39559D02*
X32579Y-39636D01*
X32579Y-40020D02*
X32656Y-40097D01*
X32656Y-40020D02*
X32579Y-40097D01*
X32579Y-40512D02*
X32656Y-40589D01*
X32656Y-40512D02*
X32579Y-40589D01*
X32579Y-41052D02*
X32656Y-41129D01*
X32656Y-41052D02*
X32579Y-41129D01*
X32579Y-41591D02*
X32656Y-41668D01*
X32656Y-41591D02*
X32579Y-41668D01*
X32579Y-42201D02*
X32656Y-42278D01*
X32656Y-42201D02*
X32579Y-42278D01*
X32579Y-42733D02*
X32656Y-42810D01*
X32656Y-42733D02*
X32579Y-42810D01*
X32579Y-43260D02*
X32656Y-43337D01*
X32656Y-43260D02*
X32579Y-43337D01*
X32579Y-43760D02*
X32656Y-43837D01*
X32656Y-43760D02*
X32579Y-43837D01*
X32579Y-44422D02*
X32656Y-44499D01*
X32656Y-44422D02*
X32579Y-44499D01*
X32579Y-44886D02*
X32656Y-44963D01*
X32656Y-44886D02*
X32579Y-44963D01*
X32579Y-45642D02*
X32656Y-45719D01*
X32656Y-45642D02*
X32579Y-45719D01*
X32579Y-46138D02*
X32656Y-46215D01*
X32656Y-46138D02*
X32579Y-46215D01*
X32579Y-46670D02*
X32656Y-46747D01*
X32656Y-46670D02*
X32579Y-46747D01*
X32579Y-47111D02*
X32656Y-47188D01*
X32656Y-47111D02*
X32579Y-47188D01*
X32579Y-47721D02*
X32656Y-47798D01*
X32656Y-47721D02*
X32579Y-47798D01*
X32579Y-48193D02*
X32656Y-48270D01*
X32656Y-48193D02*
X32579Y-48270D01*
X32579Y-48666D02*
X32656Y-48743D01*
X32656Y-48666D02*
X32579Y-48743D01*
X33111Y-32874D02*
X33188Y-32951D01*
X33188Y-32874D02*
X33111Y-32951D01*
X33111Y-35906D02*
X33188Y-35983D01*
X33188Y-35906D02*
X33111Y-35983D01*
X33111Y-39095D02*
X33188Y-39172D01*
X33188Y-39095D02*
X33111Y-39172D01*
X33189Y-42323D02*
X33266Y-42400D01*
X33266Y-42323D02*
X33189Y-42400D01*
X33189Y-45630D02*
X33266Y-45707D01*
X33266Y-45630D02*
X33189Y-45707D01*
X33426Y-32559D02*
X33503Y-32636D01*
X33503Y-32559D02*
X33426Y-32636D01*
X33426Y-35591D02*
X33503Y-35668D01*
X33503Y-35591D02*
X33426Y-35668D01*
X33426Y-38780D02*
X33503Y-38857D01*
X33503Y-38780D02*
X33426Y-38857D01*
X33504Y-42008D02*
X33581Y-42085D01*
X33581Y-42008D02*
X33504Y-42085D01*
X33504Y-45315D02*
X33581Y-45392D01*
X33581Y-45315D02*
X33504Y-45392D01*
X33741Y-32874D02*
X33818Y-32951D01*
X33818Y-32874D02*
X33741Y-32951D01*
X33741Y-35906D02*
X33818Y-35983D01*
X33818Y-35906D02*
X33741Y-35983D01*
X33741Y-39095D02*
X33818Y-39172D01*
X33818Y-39095D02*
X33741Y-39172D01*
X33819Y-42323D02*
X33896Y-42400D01*
X33896Y-42323D02*
X33819Y-42400D01*
X33819Y-45630D02*
X33896Y-45707D01*
X33896Y-45630D02*
X33819Y-45707D01*
X34252Y-37481D02*
X34329Y-37558D01*
X34329Y-37481D02*
X34252Y-37558D01*
X34292Y-34567D02*
X34369Y-34644D01*
X34369Y-34567D02*
X34292Y-34644D01*
X34292Y-40748D02*
X34369Y-40825D01*
X34369Y-40748D02*
X34292Y-40825D01*
X34292Y-43937D02*
X34369Y-44014D01*
X34369Y-43937D02*
X34292Y-44014D01*
X34292Y-47166D02*
X34369Y-47243D01*
X34369Y-47166D02*
X34292Y-47243D01*
X34445Y-50414D02*
X34522Y-50491D01*
X34522Y-50414D02*
X34445Y-50491D01*
X34567Y-37166D02*
X34644Y-37243D01*
X34644Y-37166D02*
X34567Y-37243D01*
X34607Y-34252D02*
X34684Y-34329D01*
X34684Y-34252D02*
X34607Y-34329D01*
X34607Y-40433D02*
X34684Y-40510D01*
X34684Y-40433D02*
X34607Y-40510D01*
X34607Y-43622D02*
X34684Y-43699D01*
X34684Y-43622D02*
X34607Y-43699D01*
X34607Y-46851D02*
X34684Y-46928D01*
X34684Y-46851D02*
X34607Y-46928D01*
X34882Y-37481D02*
X34959Y-37558D01*
X34959Y-37481D02*
X34882Y-37558D01*
X34922Y-34567D02*
X34999Y-34644D01*
X34999Y-34567D02*
X34922Y-34644D01*
X34922Y-40748D02*
X34999Y-40825D01*
X34999Y-40748D02*
X34922Y-40825D01*
X34922Y-43937D02*
X34999Y-44014D01*
X34999Y-43937D02*
X34922Y-44014D01*
X34922Y-47166D02*
X34999Y-47243D01*
X34999Y-47166D02*
X34922Y-47243D01*
X35059Y-50414D02*
X35136Y-50491D01*
X35136Y-50414D02*
X35059Y-50491D01*
X35276Y-30591D02*
X35353Y-30668D01*
X35353Y-30591D02*
X35276Y-30668D01*
X35276Y-42323D02*
X35353Y-42400D01*
X35353Y-42323D02*
X35276Y-42400D01*
X35355Y-39095D02*
X35432Y-39172D01*
X35432Y-39095D02*
X35355Y-39172D01*
X35355Y-45630D02*
X35432Y-45707D01*
X35432Y-45630D02*
X35355Y-45707D01*
X35355Y-49174D02*
X35432Y-49251D01*
X35432Y-49174D02*
X35355Y-49251D01*
X35473Y-35906D02*
X35550Y-35983D01*
X35550Y-35906D02*
X35473Y-35983D01*
X35591Y-30276D02*
X35668Y-30353D01*
X35668Y-30276D02*
X35591Y-30353D01*
X35670Y-38780D02*
X35747Y-38857D01*
X35747Y-38780D02*
X35670Y-38857D01*
X35670Y-42008D02*
X35747Y-42085D01*
X35747Y-42008D02*
X35670Y-42085D01*
X35670Y-45315D02*
X35747Y-45392D01*
X35747Y-45315D02*
X35670Y-45392D01*
X35670Y-48859D02*
X35747Y-48936D01*
X35747Y-48859D02*
X35670Y-48936D01*
X35748Y-32874D02*
X35825Y-32951D01*
X35825Y-32874D02*
X35748Y-32951D01*
X35752Y-50414D02*
X35829Y-50491D01*
X35829Y-50414D02*
X35752Y-50491D01*
X35788Y-35591D02*
X35865Y-35668D01*
X35865Y-35591D02*
X35788Y-35668D01*
X35906Y-30591D02*
X35983Y-30668D01*
X35983Y-30591D02*
X35906Y-30668D01*
X35985Y-39095D02*
X36062Y-39172D01*
X36062Y-39095D02*
X35985Y-39172D01*
X35985Y-42323D02*
X36062Y-42400D01*
X36062Y-42323D02*
X35985Y-42400D01*
X35985Y-45630D02*
X36062Y-45707D01*
X36062Y-45630D02*
X35985Y-45707D01*
X35985Y-49174D02*
X36062Y-49251D01*
X36062Y-49174D02*
X35985Y-49251D01*
X36063Y-32559D02*
X36140Y-32636D01*
X36140Y-32559D02*
X36063Y-32636D01*
X36103Y-35906D02*
X36180Y-35983D01*
X36180Y-35906D02*
X36103Y-35983D01*
X36307Y-50414D02*
X36384Y-50491D01*
X36384Y-50414D02*
X36307Y-50491D01*
X36378Y-32874D02*
X36455Y-32951D01*
X36455Y-32874D02*
X36378Y-32951D01*
X36536Y-40748D02*
X36613Y-40825D01*
X36613Y-40748D02*
X36536Y-40825D01*
X36536Y-43937D02*
X36613Y-44014D01*
X36613Y-43937D02*
X36536Y-44014D01*
X36536Y-47166D02*
X36613Y-47243D01*
X36613Y-47166D02*
X36536Y-47243D01*
X36615Y-37481D02*
X36692Y-37558D01*
X36692Y-37481D02*
X36615Y-37558D01*
X36804Y-50414D02*
X36881Y-50491D01*
X36881Y-50414D02*
X36804Y-50491D01*
X36851Y-40433D02*
X36928Y-40510D01*
X36928Y-40433D02*
X36851Y-40510D01*
X36851Y-43622D02*
X36928Y-43699D01*
X36928Y-43622D02*
X36851Y-43699D01*
X36851Y-46851D02*
X36928Y-46928D01*
X36928Y-46851D02*
X36851Y-46928D01*
X36878Y-31721D02*
X36955Y-31798D01*
X36955Y-31721D02*
X36878Y-31798D01*
X36930Y-34567D02*
X37007Y-34644D01*
X37007Y-34567D02*
X36930Y-34644D01*
X36930Y-37166D02*
X37007Y-37243D01*
X37007Y-37166D02*
X36930Y-37243D01*
X37138Y-31370D02*
X37215Y-31447D01*
X37215Y-31370D02*
X37138Y-31447D01*
X37166Y-40748D02*
X37243Y-40825D01*
X37243Y-40748D02*
X37166Y-40825D01*
X37166Y-43937D02*
X37243Y-44014D01*
X37243Y-43937D02*
X37166Y-44014D01*
X37166Y-47166D02*
X37243Y-47243D01*
X37243Y-47166D02*
X37166Y-47243D01*
X37244Y-34252D02*
X37321Y-34329D01*
X37321Y-34252D02*
X37244Y-34329D01*
X37244Y-37481D02*
X37321Y-37558D01*
X37321Y-37481D02*
X37244Y-37558D01*
X37363Y-50414D02*
X37440Y-50491D01*
X37440Y-50414D02*
X37363Y-50491D01*
X37437Y-30918D02*
X37514Y-30995D01*
X37514Y-30918D02*
X37437Y-30995D01*
X37520Y-42323D02*
X37597Y-42400D01*
X37597Y-42323D02*
X37520Y-42400D01*
X37520Y-45630D02*
X37597Y-45707D01*
X37597Y-45630D02*
X37520Y-45707D01*
X37520Y-49174D02*
X37597Y-49251D01*
X37597Y-49174D02*
X37520Y-49251D01*
X37559Y-34567D02*
X37636Y-34644D01*
X37636Y-34567D02*
X37559Y-34644D01*
X37717Y-39095D02*
X37794Y-39172D01*
X37794Y-39095D02*
X37717Y-39172D01*
X37835Y-42008D02*
X37912Y-42085D01*
X37912Y-42008D02*
X37835Y-42085D01*
X37835Y-45315D02*
X37912Y-45392D01*
X37912Y-45315D02*
X37835Y-45392D01*
X37835Y-48859D02*
X37912Y-48936D01*
X37912Y-48859D02*
X37835Y-48936D01*
X37839Y-30552D02*
X37916Y-30629D01*
X37916Y-30552D02*
X37839Y-30629D01*
X38032Y-38780D02*
X38109Y-38857D01*
X38109Y-38780D02*
X38032Y-38857D01*
X38036Y-30386D02*
X38113Y-30463D01*
X38113Y-30386D02*
X38036Y-30463D01*
X38111Y-35906D02*
X38188Y-35983D01*
X38188Y-35906D02*
X38111Y-35983D01*
X38150Y-42323D02*
X38227Y-42400D01*
X38227Y-42323D02*
X38150Y-42400D01*
X38150Y-45630D02*
X38227Y-45707D01*
X38227Y-45630D02*
X38150Y-45707D01*
X38150Y-49174D02*
X38227Y-49251D01*
X38227Y-49174D02*
X38150Y-49251D01*
X38233Y-30552D02*
X38310Y-30629D01*
X38310Y-30552D02*
X38233Y-30629D01*
X38347Y-39095D02*
X38424Y-39172D01*
X38424Y-39095D02*
X38347Y-39172D01*
X38426Y-35591D02*
X38503Y-35668D01*
X38503Y-35591D02*
X38426Y-35668D01*
X38626Y-30552D02*
X38703Y-30629D01*
X38703Y-30552D02*
X38626Y-30629D01*
X38626Y-48229D02*
X38703Y-48306D01*
X38703Y-48229D02*
X38626Y-48306D01*
X38626Y-49685D02*
X38703Y-49762D01*
X38703Y-49685D02*
X38626Y-49762D01*
X38741Y-35906D02*
X38818Y-35983D01*
X38818Y-35906D02*
X38741Y-35983D01*
X38823Y-30386D02*
X38900Y-30463D01*
X38900Y-30386D02*
X38823Y-30463D01*
X38898Y-40748D02*
X38975Y-40825D01*
X38975Y-40748D02*
X38898Y-40825D01*
X38898Y-43937D02*
X38975Y-44014D01*
X38975Y-43937D02*
X38898Y-44014D01*
X38898Y-47166D02*
X38975Y-47243D01*
X38975Y-47166D02*
X38898Y-47243D01*
X39020Y-30552D02*
X39097Y-30629D01*
X39097Y-30552D02*
X39020Y-30629D01*
X39213Y-40433D02*
X39290Y-40510D01*
X39290Y-40433D02*
X39213Y-40510D01*
X39213Y-43622D02*
X39290Y-43699D01*
X39290Y-43622D02*
X39213Y-43699D01*
X39213Y-46851D02*
X39290Y-46928D01*
X39290Y-46851D02*
X39213Y-46928D01*
X39252Y-37481D02*
X39329Y-37558D01*
X39329Y-37481D02*
X39252Y-37558D01*
X39414Y-30552D02*
X39491Y-30629D01*
X39491Y-30552D02*
X39414Y-30629D01*
X39528Y-40748D02*
X39605Y-40825D01*
X39605Y-40748D02*
X39528Y-40825D01*
X39528Y-43937D02*
X39605Y-44014D01*
X39605Y-43937D02*
X39528Y-44014D01*
X39528Y-47166D02*
X39605Y-47243D01*
X39605Y-47166D02*
X39528Y-47243D01*
X39567Y-37166D02*
X39644Y-37243D01*
X39644Y-37166D02*
X39567Y-37243D01*
X39611Y-30386D02*
X39688Y-30463D01*
X39688Y-30386D02*
X39611Y-30463D01*
X39611Y-48229D02*
X39688Y-48306D01*
X39688Y-48229D02*
X39611Y-48306D01*
X39611Y-49685D02*
X39688Y-49762D01*
X39688Y-49685D02*
X39611Y-49762D01*
X39807Y-30552D02*
X39884Y-30629D01*
X39884Y-30552D02*
X39807Y-30629D01*
X39882Y-37481D02*
X39959Y-37558D01*
X39959Y-37481D02*
X39882Y-37558D01*
X40004Y-30386D02*
X40081Y-30463D01*
X40081Y-30386D02*
X40004Y-30463D01*
X40201Y-30552D02*
X40278Y-30629D01*
X40278Y-30552D02*
X40201Y-30629D01*
X40355Y-39095D02*
X40432Y-39172D01*
X40432Y-39095D02*
X40355Y-39172D01*
X40355Y-42323D02*
X40432Y-42400D01*
X40432Y-42323D02*
X40355Y-42400D01*
X40355Y-45630D02*
X40432Y-45707D01*
X40432Y-45630D02*
X40355Y-45707D01*
X40355Y-49174D02*
X40432Y-49251D01*
X40432Y-49174D02*
X40355Y-49251D01*
X40398Y-30386D02*
X40475Y-30463D01*
X40475Y-30386D02*
X40398Y-30463D01*
X40595Y-30552D02*
X40672Y-30629D01*
X40672Y-30552D02*
X40595Y-30629D01*
X40595Y-48229D02*
X40672Y-48306D01*
X40672Y-48229D02*
X40595Y-48306D01*
X40595Y-49685D02*
X40672Y-49762D01*
X40672Y-49685D02*
X40595Y-49762D01*
X40670Y-38780D02*
X40747Y-38857D01*
X40747Y-38780D02*
X40670Y-38857D01*
X40670Y-42008D02*
X40747Y-42085D01*
X40747Y-42008D02*
X40670Y-42085D01*
X40670Y-45315D02*
X40747Y-45392D01*
X40747Y-45315D02*
X40670Y-45392D01*
X40670Y-48859D02*
X40747Y-48936D01*
X40747Y-48859D02*
X40670Y-48936D01*
X40792Y-30386D02*
X40869Y-30463D01*
X40869Y-30386D02*
X40792Y-30463D01*
X40985Y-39095D02*
X41062Y-39172D01*
X41062Y-39095D02*
X40985Y-39172D01*
X40985Y-42323D02*
X41062Y-42400D01*
X41062Y-42323D02*
X40985Y-42400D01*
X40985Y-45630D02*
X41062Y-45707D01*
X41062Y-45630D02*
X40985Y-45707D01*
X40985Y-49174D02*
X41062Y-49251D01*
X41062Y-49174D02*
X40985Y-49251D01*
X41382Y-30386D02*
X41459Y-30463D01*
X41459Y-30386D02*
X41382Y-30463D01*
X41382Y-32914D02*
X41459Y-32991D01*
X41459Y-32914D02*
X41382Y-32991D01*
X41536Y-40748D02*
X41613Y-40825D01*
X41613Y-40748D02*
X41536Y-40825D01*
X41536Y-43937D02*
X41613Y-44014D01*
X41613Y-43937D02*
X41536Y-44014D01*
X41536Y-47166D02*
X41613Y-47243D01*
X41613Y-47166D02*
X41536Y-47243D01*
X41579Y-30552D02*
X41656Y-30629D01*
X41656Y-30552D02*
X41579Y-30629D01*
X41579Y-48229D02*
X41656Y-48306D01*
X41656Y-48229D02*
X41579Y-48306D01*
X41579Y-49685D02*
X41656Y-49762D01*
X41656Y-49685D02*
X41579Y-49762D01*
X41776Y-30386D02*
X41853Y-30463D01*
X41853Y-30386D02*
X41776Y-30463D01*
X41851Y-40433D02*
X41928Y-40510D01*
X41928Y-40433D02*
X41851Y-40510D01*
X41851Y-43622D02*
X41928Y-43699D01*
X41928Y-43622D02*
X41851Y-43699D01*
X41851Y-46851D02*
X41928Y-46928D01*
X41928Y-46851D02*
X41851Y-46928D01*
X41973Y-30552D02*
X42050Y-30629D01*
X42050Y-30552D02*
X41973Y-30629D01*
X41973Y-32914D02*
X42050Y-32991D01*
X42050Y-32914D02*
X41973Y-32991D01*
X42166Y-40748D02*
X42243Y-40825D01*
X42243Y-40748D02*
X42166Y-40825D01*
X42166Y-43937D02*
X42243Y-44014D01*
X42243Y-43937D02*
X42166Y-44014D01*
X42166Y-47166D02*
X42243Y-47243D01*
X42243Y-47166D02*
X42166Y-47243D01*
X42170Y-30386D02*
X42247Y-30463D01*
X42247Y-30386D02*
X42170Y-30463D01*
X42367Y-30552D02*
X42444Y-30629D01*
X42444Y-30552D02*
X42367Y-30629D01*
X42520Y-49174D02*
X42597Y-49251D01*
X42597Y-49174D02*
X42520Y-49251D01*
X42563Y-30386D02*
X42640Y-30463D01*
X42640Y-30386D02*
X42563Y-30463D01*
X42563Y-48229D02*
X42640Y-48306D01*
X42640Y-48229D02*
X42563Y-48306D01*
X42563Y-49685D02*
X42640Y-49762D01*
X42640Y-49685D02*
X42563Y-49762D01*
X42717Y-42323D02*
X42794Y-42400D01*
X42794Y-42323D02*
X42717Y-42400D01*
X42760Y-30552D02*
X42837Y-30629D01*
X42837Y-30552D02*
X42760Y-30629D01*
X42835Y-48859D02*
X42912Y-48936D01*
X42912Y-48859D02*
X42835Y-48936D01*
X42914Y-45630D02*
X42991Y-45707D01*
X42991Y-45630D02*
X42914Y-45707D01*
X43032Y-42008D02*
X43109Y-42085D01*
X43109Y-42008D02*
X43032Y-42085D01*
X43150Y-49174D02*
X43227Y-49251D01*
X43227Y-49174D02*
X43150Y-49251D01*
X43229Y-45315D02*
X43306Y-45392D01*
X43306Y-45315D02*
X43229Y-45392D01*
X43347Y-42323D02*
X43424Y-42400D01*
X43424Y-42323D02*
X43347Y-42400D01*
X43351Y-32878D02*
X43428Y-32955D01*
X43428Y-32878D02*
X43351Y-32955D01*
X43544Y-45630D02*
X43621Y-45707D01*
X43621Y-45630D02*
X43544Y-45707D01*
X43859Y-43937D02*
X43936Y-44014D01*
X43936Y-43937D02*
X43859Y-44014D01*
X43859Y-47166D02*
X43936Y-47243D01*
X43936Y-47166D02*
X43859Y-47243D01*
X43898Y-40748D02*
X43975Y-40825D01*
X43975Y-40748D02*
X43898Y-40825D01*
X44095Y-50433D02*
X44172Y-50510D01*
X44172Y-50433D02*
X44095Y-50510D01*
X44174Y-43622D02*
X44251Y-43699D01*
X44251Y-43622D02*
X44174Y-43699D01*
X44174Y-46851D02*
X44251Y-46928D01*
X44251Y-46851D02*
X44174Y-46928D01*
X44213Y-40394D02*
X44290Y-40471D01*
X44290Y-40394D02*
X44213Y-40471D01*
X44363Y-50118D02*
X44440Y-50195D01*
X44440Y-50118D02*
X44363Y-50195D01*
X44489Y-43937D02*
X44566Y-44014D01*
X44566Y-43937D02*
X44489Y-44014D01*
X44489Y-47166D02*
X44566Y-47243D01*
X44566Y-47166D02*
X44489Y-47243D01*
X44528Y-40748D02*
X44605Y-40825D01*
X44605Y-40748D02*
X44528Y-40825D01*
X44607Y-50433D02*
X44684Y-50510D01*
X44684Y-50433D02*
X44607Y-50510D01*
X44764Y-33859D02*
X44841Y-33936D01*
X44841Y-33859D02*
X44764Y-33936D01*
X44961Y-48937D02*
X45038Y-49014D01*
X45038Y-48937D02*
X44961Y-49014D01*
X44961Y-49252D02*
X45038Y-49329D01*
X45038Y-49252D02*
X44961Y-49329D01*
X44961Y-49567D02*
X45038Y-49644D01*
X45038Y-49567D02*
X44961Y-49644D01*
X45079Y-42323D02*
X45156Y-42400D01*
X45156Y-42323D02*
X45079Y-42400D01*
X45118Y-50433D02*
X45195Y-50510D01*
X45195Y-50433D02*
X45118Y-50510D01*
X45158Y-45630D02*
X45235Y-45707D01*
X45235Y-45630D02*
X45158Y-45707D01*
X45237Y-34331D02*
X45314Y-34408D01*
X45314Y-34331D02*
X45237Y-34408D01*
X45276Y-48937D02*
X45353Y-49014D01*
X45353Y-48937D02*
X45276Y-49014D01*
X45276Y-49252D02*
X45353Y-49329D01*
X45353Y-49252D02*
X45276Y-49329D01*
X45276Y-49567D02*
X45353Y-49644D01*
X45353Y-49567D02*
X45276Y-49644D01*
X45394Y-42008D02*
X45471Y-42085D01*
X45471Y-42008D02*
X45394Y-42085D01*
X45398Y-50118D02*
X45475Y-50195D01*
X45475Y-50118D02*
X45398Y-50195D01*
X45473Y-45315D02*
X45550Y-45392D01*
X45550Y-45315D02*
X45473Y-45392D01*
X45591Y-30237D02*
X45668Y-30314D01*
X45668Y-30237D02*
X45591Y-30314D01*
X45591Y-48937D02*
X45668Y-49014D01*
X45668Y-48937D02*
X45591Y-49014D01*
X45591Y-49252D02*
X45668Y-49329D01*
X45668Y-49252D02*
X45591Y-49329D01*
X45591Y-49567D02*
X45668Y-49644D01*
X45668Y-49567D02*
X45591Y-49644D01*
X45630Y-50433D02*
X45707Y-50510D01*
X45707Y-50433D02*
X45630Y-50510D01*
X45709Y-34804D02*
X45786Y-34881D01*
X45786Y-34804D02*
X45709Y-34881D01*
X45709Y-42323D02*
X45786Y-42400D01*
X45786Y-42323D02*
X45709Y-42400D01*
X45788Y-45630D02*
X45865Y-45707D01*
X45865Y-45630D02*
X45788Y-45707D01*
X45906Y-29922D02*
X45983Y-29999D01*
X45983Y-29922D02*
X45906Y-29999D01*
X45906Y-48937D02*
X45983Y-49014D01*
X45983Y-48937D02*
X45906Y-49014D01*
X46142Y-50433D02*
X46219Y-50510D01*
X46219Y-50433D02*
X46142Y-50510D01*
X46181Y-43937D02*
X46258Y-44014D01*
X46258Y-43937D02*
X46181Y-44014D01*
X46181Y-47166D02*
X46258Y-47243D01*
X46258Y-47166D02*
X46181Y-47243D01*
X46221Y-30237D02*
X46298Y-30314D01*
X46298Y-30237D02*
X46221Y-30314D01*
X46221Y-48937D02*
X46298Y-49014D01*
X46298Y-48937D02*
X46221Y-49014D01*
X46260Y-31575D02*
X46337Y-31652D01*
X46337Y-31575D02*
X46260Y-31652D01*
X46453Y-50118D02*
X46530Y-50195D01*
X46530Y-50118D02*
X46453Y-50195D01*
X46496Y-43622D02*
X46573Y-43699D01*
X46573Y-43622D02*
X46496Y-43699D01*
X46496Y-46851D02*
X46573Y-46928D01*
X46573Y-46851D02*
X46496Y-46928D01*
X46536Y-48937D02*
X46613Y-49014D01*
X46613Y-48937D02*
X46536Y-49014D01*
X46575Y-31260D02*
X46652Y-31337D01*
X46652Y-31260D02*
X46575Y-31337D01*
X46654Y-50433D02*
X46731Y-50510D01*
X46731Y-50433D02*
X46654Y-50510D01*
X46811Y-43937D02*
X46888Y-44014D01*
X46888Y-43937D02*
X46811Y-44014D01*
X46811Y-47166D02*
X46888Y-47243D01*
X46888Y-47166D02*
X46811Y-47243D01*
X46890Y-30237D02*
X46967Y-30314D01*
X46967Y-30237D02*
X46890Y-30314D01*
X46890Y-31575D02*
X46967Y-31652D01*
X46967Y-31575D02*
X46890Y-31652D01*
X46890Y-32914D02*
X46967Y-32991D01*
X46967Y-32914D02*
X46890Y-32991D01*
X47166Y-50433D02*
X47243Y-50510D01*
X47243Y-50433D02*
X47166Y-50510D01*
X47205Y-29922D02*
X47282Y-29999D01*
X47282Y-29922D02*
X47205Y-29999D01*
X47205Y-32599D02*
X47282Y-32676D01*
X47282Y-32599D02*
X47205Y-32676D01*
X47446Y-50118D02*
X47523Y-50195D01*
X47523Y-50118D02*
X47446Y-50195D01*
X47481Y-45630D02*
X47558Y-45707D01*
X47558Y-45630D02*
X47481Y-45707D01*
X47481Y-48071D02*
X47558Y-48148D01*
X47558Y-48071D02*
X47481Y-48148D01*
X47520Y-30237D02*
X47597Y-30314D01*
X47597Y-30237D02*
X47520Y-30314D01*
X47520Y-32914D02*
X47597Y-32991D01*
X47597Y-32914D02*
X47520Y-32991D01*
X47520Y-35906D02*
X47597Y-35983D01*
X47597Y-35906D02*
X47520Y-35983D01*
X47520Y-36654D02*
X47597Y-36731D01*
X47597Y-36654D02*
X47520Y-36731D01*
X47559Y-31575D02*
X47636Y-31652D01*
X47636Y-31575D02*
X47559Y-31652D01*
X47678Y-50433D02*
X47755Y-50510D01*
X47755Y-50433D02*
X47678Y-50510D01*
X47796Y-45315D02*
X47873Y-45392D01*
X47873Y-45315D02*
X47796Y-45392D01*
X47796Y-47756D02*
X47873Y-47833D01*
X47873Y-47756D02*
X47796Y-47833D01*
X47874Y-31260D02*
X47951Y-31337D01*
X47951Y-31260D02*
X47874Y-31337D01*
X47989Y-34134D02*
X48066Y-34211D01*
X48066Y-34134D02*
X47989Y-34211D01*
X48111Y-45630D02*
X48188Y-45707D01*
X48188Y-45630D02*
X48111Y-45707D01*
X48111Y-48071D02*
X48188Y-48148D01*
X48188Y-48071D02*
X48111Y-48148D01*
X48189Y-30237D02*
X48266Y-30314D01*
X48266Y-30237D02*
X48189Y-30314D01*
X48189Y-31575D02*
X48266Y-31652D01*
X48266Y-31575D02*
X48189Y-31652D01*
X48189Y-32874D02*
X48266Y-32951D01*
X48266Y-32874D02*
X48189Y-32951D01*
X48189Y-50433D02*
X48266Y-50510D01*
X48266Y-50433D02*
X48189Y-50510D01*
X48426Y-50118D02*
X48503Y-50195D01*
X48503Y-50118D02*
X48426Y-50195D01*
X48465Y-35906D02*
X48542Y-35983D01*
X48542Y-35906D02*
X48465Y-35983D01*
X48465Y-36654D02*
X48542Y-36731D01*
X48542Y-36654D02*
X48465Y-36731D01*
X48504Y-29922D02*
X48581Y-29999D01*
X48581Y-29922D02*
X48504Y-29999D01*
X48504Y-32559D02*
X48581Y-32636D01*
X48581Y-32559D02*
X48504Y-32636D01*
X48504Y-47166D02*
X48581Y-47243D01*
X48581Y-47166D02*
X48504Y-47243D01*
X48544Y-43937D02*
X48621Y-44014D01*
X48621Y-43937D02*
X48544Y-44014D01*
X48670Y-37465D02*
X48747Y-37542D01*
X48747Y-37465D02*
X48670Y-37542D01*
X48670Y-37689D02*
X48747Y-37766D01*
X48747Y-37689D02*
X48670Y-37766D01*
X48701Y-50433D02*
X48778Y-50510D01*
X48778Y-50433D02*
X48701Y-50510D01*
X48819Y-30237D02*
X48896Y-30314D01*
X48896Y-30237D02*
X48819Y-30314D01*
X48819Y-31575D02*
X48896Y-31652D01*
X48896Y-31575D02*
X48819Y-31652D01*
X48819Y-32874D02*
X48896Y-32951D01*
X48896Y-32874D02*
X48819Y-32951D01*
X48819Y-34134D02*
X48896Y-34211D01*
X48896Y-34134D02*
X48819Y-34211D01*
X48819Y-46851D02*
X48896Y-46928D01*
X48896Y-46851D02*
X48819Y-46928D01*
X49134Y-33819D02*
X49211Y-33896D01*
X49211Y-33819D02*
X49134Y-33896D01*
X49134Y-47166D02*
X49211Y-47243D01*
X49211Y-47166D02*
X49134Y-47243D01*
X49213Y-50433D02*
X49290Y-50510D01*
X49290Y-50433D02*
X49213Y-50510D01*
X49260Y-31378D02*
X49337Y-31455D01*
X49337Y-31378D02*
X49260Y-31455D01*
X49280Y-32520D02*
X49357Y-32597D01*
X49357Y-32520D02*
X49280Y-32597D01*
X49315Y-37363D02*
X49392Y-37440D01*
X49392Y-37363D02*
X49315Y-37440D01*
X49449Y-34134D02*
X49526Y-34211D01*
X49526Y-34134D02*
X49449Y-34211D01*
X49489Y-30237D02*
X49566Y-30314D01*
X49566Y-30237D02*
X49489Y-30314D01*
X49492Y-42449D02*
X49569Y-42526D01*
X49569Y-42449D02*
X49492Y-42526D01*
X49595Y-37166D02*
X49672Y-37243D01*
X49672Y-37166D02*
X49595Y-37243D01*
X49709Y-36186D02*
X49786Y-36263D01*
X49786Y-36186D02*
X49709Y-36263D01*
X49804Y-29922D02*
X49881Y-29999D01*
X49881Y-29922D02*
X49804Y-29999D01*
X49811Y-42741D02*
X49888Y-42818D01*
X49888Y-42741D02*
X49811Y-42818D01*
X49878Y-36973D02*
X49955Y-37050D01*
X49955Y-36973D02*
X49878Y-37050D01*
X49981Y-36382D02*
X50058Y-36459D01*
X50058Y-36382D02*
X49981Y-36459D01*
X49989Y-43469D02*
X50066Y-43546D01*
X50066Y-43469D02*
X49989Y-43546D01*
X49992Y-45618D02*
X50069Y-45695D01*
X50069Y-45618D02*
X49992Y-45695D01*
X50008Y-45205D02*
X50085Y-45282D01*
X50085Y-45205D02*
X50008Y-45282D01*
X50118Y-30237D02*
X50195Y-30314D01*
X50195Y-30237D02*
X50118Y-30314D01*
X50461Y-32063D02*
X50538Y-32140D01*
X50538Y-32063D02*
X50461Y-32140D01*
X50532Y-44800D02*
X50609Y-44877D01*
X50609Y-44800D02*
X50532Y-44877D01*
X50552Y-46811D02*
X50629Y-46888D01*
X50629Y-46811D02*
X50552Y-46888D01*
X50552Y-47363D02*
X50629Y-47440D01*
X50629Y-47363D02*
X50552Y-47440D01*
X50552Y-47874D02*
X50629Y-47951D01*
X50629Y-47874D02*
X50552Y-47951D01*
X50552Y-48426D02*
X50629Y-48503D01*
X50629Y-48426D02*
X50552Y-48503D01*
X50552Y-48937D02*
X50629Y-49014D01*
X50629Y-48937D02*
X50552Y-49014D01*
X50622Y-40800D02*
X50699Y-40877D01*
X50699Y-40800D02*
X50622Y-40877D01*
X50689Y-37914D02*
X50766Y-37991D01*
X50766Y-37914D02*
X50689Y-37991D01*
X50807Y-30252D02*
X50884Y-30329D01*
X50884Y-30252D02*
X50807Y-30329D01*
X51103Y-29922D02*
X51180Y-29999D01*
X51180Y-29922D02*
X51103Y-29999D01*
X51138Y-44788D02*
X51215Y-44865D01*
X51215Y-44788D02*
X51138Y-44865D01*
X51158Y-45713D02*
X51235Y-45790D01*
X51235Y-45713D02*
X51158Y-45790D01*
X51174Y-45237D02*
X51251Y-45314D01*
X51251Y-45237D02*
X51174Y-45314D01*
X51221Y-43465D02*
X51298Y-43542D01*
X51298Y-43465D02*
X51221Y-43542D01*
X51406Y-35890D02*
X51483Y-35967D01*
X51483Y-35890D02*
X51406Y-35967D01*
X51418Y-30237D02*
X51495Y-30314D01*
X51495Y-30237D02*
X51418Y-30314D01*
X51422Y-30831D02*
X51499Y-30908D01*
X51499Y-30831D02*
X51422Y-30908D01*
X51630Y-35249D02*
X51707Y-35326D01*
X51707Y-35249D02*
X51630Y-35326D01*
X51674Y-46536D02*
X51751Y-46613D01*
X51751Y-46536D02*
X51674Y-46613D01*
X51678Y-37953D02*
X51755Y-38030D01*
X51755Y-37953D02*
X51678Y-38030D01*
X51682Y-37469D02*
X51759Y-37546D01*
X51759Y-37469D02*
X51682Y-37546D01*
X51689Y-36918D02*
X51766Y-36995D01*
X51766Y-36918D02*
X51689Y-36995D01*
X51689Y-37201D02*
X51766Y-37278D01*
X51766Y-37201D02*
X51689Y-37278D01*
X51693Y-36422D02*
X51770Y-36499D01*
X51770Y-36422D02*
X51693Y-36499D01*
X51725Y-45741D02*
X51802Y-45818D01*
X51802Y-45741D02*
X51725Y-45818D01*
X51973Y-34760D02*
X52050Y-34837D01*
X52050Y-34760D02*
X51973Y-34837D01*
X52087Y-30237D02*
X52164Y-30314D01*
X52164Y-30237D02*
X52087Y-30314D01*
X52126Y-33622D02*
X52203Y-33699D01*
X52203Y-33622D02*
X52126Y-33699D01*
X52126Y-34252D02*
X52203Y-34329D01*
X52203Y-34252D02*
X52126Y-34329D01*
X52154Y-35851D02*
X52231Y-35928D01*
X52231Y-35851D02*
X52154Y-35928D01*
X52193Y-39977D02*
X52270Y-40054D01*
X52270Y-39977D02*
X52193Y-40054D01*
X52245Y-41886D02*
X52322Y-41963D01*
X52322Y-41886D02*
X52245Y-41963D01*
X52269Y-41493D02*
X52346Y-41570D01*
X52346Y-41493D02*
X52269Y-41570D01*
X52343Y-40166D02*
X52420Y-40243D01*
X52420Y-40166D02*
X52343Y-40243D01*
X52402Y-29922D02*
X52479Y-29999D01*
X52479Y-29922D02*
X52402Y-29999D01*
X52496Y-41693D02*
X52573Y-41770D01*
X52573Y-41693D02*
X52496Y-41770D01*
X52504Y-37788D02*
X52581Y-37865D01*
X52581Y-37788D02*
X52504Y-37865D01*
X52559Y-36162D02*
X52636Y-36239D01*
X52636Y-36162D02*
X52559Y-36239D01*
X52559Y-36437D02*
X52636Y-36514D01*
X52636Y-36437D02*
X52559Y-36514D01*
X52559Y-36693D02*
X52636Y-36770D01*
X52636Y-36693D02*
X52559Y-36770D01*
X52571Y-32599D02*
X52648Y-32676D01*
X52648Y-32599D02*
X52571Y-32676D01*
X52579Y-38130D02*
X52656Y-38207D01*
X52656Y-38130D02*
X52579Y-38207D01*
X52579Y-38524D02*
X52656Y-38601D01*
X52656Y-38524D02*
X52579Y-38601D01*
X52607Y-37469D02*
X52684Y-37546D01*
X52684Y-37469D02*
X52607Y-37546D01*
X52717Y-30237D02*
X52794Y-30314D01*
X52794Y-30237D02*
X52717Y-30314D01*
X52831Y-36713D02*
X52908Y-36790D01*
X52908Y-36713D02*
X52831Y-36790D01*
X52831Y-37288D02*
X52908Y-37365D01*
X52908Y-37288D02*
X52831Y-37365D01*
X52835Y-32953D02*
X52912Y-33030D01*
X52912Y-32953D02*
X52835Y-33030D01*
X52867Y-35056D02*
X52944Y-35133D01*
X52944Y-35056D02*
X52867Y-35133D01*
X52874Y-45945D02*
X52951Y-46022D01*
X52951Y-45945D02*
X52874Y-46022D01*
X52874Y-46575D02*
X52951Y-46652D01*
X52951Y-46575D02*
X52874Y-46652D01*
X52933Y-36044D02*
X53010Y-36121D01*
X53010Y-36044D02*
X52933Y-36121D01*
X53032Y-34823D02*
X53109Y-34900D01*
X53109Y-34823D02*
X53032Y-34900D01*
X53091Y-32343D02*
X53168Y-32420D01*
X53168Y-32343D02*
X53091Y-32420D01*
X53170Y-40807D02*
X53247Y-40884D01*
X53247Y-40807D02*
X53170Y-40884D01*
X53248Y-41201D02*
X53325Y-41278D01*
X53325Y-41201D02*
X53248Y-41278D01*
X53307Y-40611D02*
X53384Y-40688D01*
X53384Y-40611D02*
X53307Y-40688D01*
X53465Y-38524D02*
X53542Y-38601D01*
X53542Y-38524D02*
X53465Y-38601D01*
X53465Y-38937D02*
X53542Y-39014D01*
X53542Y-38937D02*
X53465Y-39014D01*
X53465Y-39331D02*
X53542Y-39408D01*
X53542Y-39331D02*
X53465Y-39408D01*
X53465Y-41870D02*
X53542Y-41947D01*
X53542Y-41870D02*
X53465Y-41947D01*
X53504Y-45945D02*
X53581Y-46022D01*
X53581Y-45945D02*
X53504Y-46022D01*
X53504Y-46575D02*
X53581Y-46652D01*
X53581Y-46575D02*
X53504Y-46652D01*
X53524Y-37471D02*
X53601Y-37548D01*
X53601Y-37471D02*
X53524Y-37548D01*
X53540Y-42083D02*
X53617Y-42160D01*
X53617Y-42083D02*
X53540Y-42160D01*
X53544Y-43524D02*
X53621Y-43601D01*
X53621Y-43524D02*
X53544Y-43601D01*
X53544Y-40162D02*
X53621Y-40239D01*
X53621Y-40162D02*
X53544Y-40239D01*
X53611Y-41497D02*
X53688Y-41574D01*
X53688Y-41497D02*
X53611Y-41574D01*
X53623Y-38316D02*
X53700Y-38393D01*
X53700Y-38316D02*
X53623Y-38393D01*
X53681Y-31457D02*
X53758Y-31534D01*
X53758Y-31457D02*
X53681Y-31534D01*
X53741Y-33741D02*
X53818Y-33818D01*
X53818Y-33741D02*
X53741Y-33818D01*
X53741Y-47205D02*
X53818Y-47282D01*
X53818Y-47205D02*
X53741Y-47282D01*
X53741Y-47756D02*
X53818Y-47833D01*
X53818Y-47756D02*
X53741Y-47833D01*
X53859Y-34567D02*
X53936Y-34644D01*
X53936Y-34567D02*
X53859Y-34644D01*
X53898Y-29902D02*
X53975Y-29979D01*
X53975Y-29902D02*
X53898Y-29979D01*
X53898Y-48622D02*
X53975Y-48699D01*
X53975Y-48622D02*
X53898Y-48699D01*
X53937Y-41378D02*
X54014Y-41455D01*
X54014Y-41378D02*
X53937Y-41455D01*
X54012Y-36378D02*
X54089Y-36455D01*
X54089Y-36378D02*
X54012Y-36455D01*
X54055Y-43504D02*
X54132Y-43581D01*
X54132Y-43504D02*
X54055Y-43581D01*
X54075Y-45729D02*
X54152Y-45806D01*
X54152Y-45729D02*
X54075Y-45806D01*
X54134Y-46575D02*
X54211Y-46652D01*
X54211Y-46575D02*
X54134Y-46652D01*
X54134Y-48307D02*
X54211Y-48384D01*
X54211Y-48307D02*
X54134Y-48384D01*
X54174Y-40611D02*
X54251Y-40688D01*
X54251Y-40611D02*
X54174Y-40688D01*
X54174Y-41004D02*
X54251Y-41081D01*
X54251Y-41004D02*
X54174Y-41081D01*
X54213Y-33268D02*
X54290Y-33345D01*
X54290Y-33268D02*
X54213Y-33345D01*
X54213Y-33741D02*
X54290Y-33818D01*
X54290Y-33741D02*
X54213Y-33818D01*
X54213Y-34370D02*
X54290Y-34447D01*
X54290Y-34370D02*
X54213Y-34447D01*
X54213Y-47756D02*
X54290Y-47833D01*
X54290Y-47756D02*
X54213Y-47833D01*
X54331Y-38937D02*
X54408Y-39014D01*
X54408Y-38937D02*
X54331Y-39014D01*
X54331Y-39331D02*
X54408Y-39408D01*
X54408Y-39331D02*
X54331Y-39408D01*
X54331Y-39587D02*
X54408Y-39664D01*
X54408Y-39587D02*
X54331Y-39664D01*
X54370Y-45394D02*
X54447Y-45471D01*
X54447Y-45394D02*
X54370Y-45471D01*
X54370Y-48622D02*
X54447Y-48699D01*
X54447Y-48622D02*
X54370Y-48699D01*
X54414Y-37280D02*
X54491Y-37357D01*
X54491Y-37280D02*
X54414Y-37357D01*
X54528Y-32953D02*
X54605Y-33030D01*
X54605Y-32953D02*
X54528Y-33030D01*
X54528Y-48307D02*
X54605Y-48384D01*
X54605Y-48307D02*
X54528Y-48384D01*
X54646Y-33741D02*
X54723Y-33818D01*
X54723Y-33741D02*
X54646Y-33818D01*
X54646Y-34370D02*
X54723Y-34447D01*
X54723Y-34370D02*
X54646Y-34447D01*
X54682Y-36036D02*
X54759Y-36113D01*
X54759Y-36036D02*
X54682Y-36113D01*
X54682Y-43016D02*
X54759Y-43093D01*
X54759Y-43016D02*
X54682Y-43093D01*
X54685Y-39213D02*
X54762Y-39290D01*
X54762Y-39213D02*
X54685Y-39290D01*
X54697Y-36292D02*
X54774Y-36369D01*
X54774Y-36292D02*
X54697Y-36369D01*
X54725Y-31811D02*
X54802Y-31888D01*
X54802Y-31811D02*
X54725Y-31888D01*
X54764Y-29902D02*
X54841Y-29979D01*
X54841Y-29902D02*
X54764Y-29979D01*
X54764Y-48622D02*
X54841Y-48699D01*
X54841Y-48622D02*
X54764Y-48699D01*
X54784Y-37441D02*
X54861Y-37518D01*
X54861Y-37441D02*
X54784Y-37518D01*
X54784Y-37737D02*
X54861Y-37814D01*
X54861Y-37737D02*
X54784Y-37814D01*
X54843Y-33268D02*
X54920Y-33345D01*
X54920Y-33268D02*
X54843Y-33345D01*
X54926Y-43012D02*
X55003Y-43089D01*
X55003Y-43012D02*
X54926Y-43089D01*
X55000Y-48307D02*
X55077Y-48384D01*
X55077Y-48307D02*
X55000Y-48384D01*
X55040Y-31496D02*
X55117Y-31573D01*
X55117Y-31496D02*
X55040Y-31573D01*
X55059Y-36536D02*
X55136Y-36613D01*
X55136Y-36536D02*
X55059Y-36613D01*
X55079Y-33741D02*
X55156Y-33818D01*
X55156Y-33741D02*
X55079Y-33818D01*
X55186Y-43028D02*
X55263Y-43105D01*
X55263Y-43028D02*
X55186Y-43105D01*
X55221Y-41170D02*
X55298Y-41247D01*
X55298Y-41170D02*
X55221Y-41247D01*
X55237Y-45945D02*
X55314Y-46022D01*
X55314Y-45945D02*
X55237Y-46022D01*
X55237Y-48622D02*
X55314Y-48699D01*
X55314Y-48622D02*
X55237Y-48699D01*
X55249Y-40382D02*
X55326Y-40459D01*
X55326Y-40382D02*
X55249Y-40459D01*
X55260Y-38189D02*
X55337Y-38266D01*
X55337Y-38189D02*
X55260Y-38266D01*
X55264Y-39993D02*
X55341Y-40070D01*
X55341Y-39993D02*
X55264Y-40070D01*
X55327Y-40780D02*
X55404Y-40857D01*
X55404Y-40780D02*
X55327Y-40857D01*
X55355Y-46615D02*
X55432Y-46692D01*
X55432Y-46615D02*
X55355Y-46692D01*
X55355Y-39599D02*
X55432Y-39676D01*
X55432Y-39599D02*
X55355Y-39676D01*
X55414Y-34528D02*
X55491Y-34605D01*
X55491Y-34528D02*
X55414Y-34605D01*
X55414Y-43028D02*
X55491Y-43105D01*
X55491Y-43028D02*
X55414Y-43105D01*
X55433Y-48307D02*
X55510Y-48384D01*
X55510Y-48307D02*
X55433Y-48384D01*
X55516Y-38989D02*
X55593Y-39066D01*
X55593Y-38989D02*
X55516Y-39066D01*
X55532Y-45827D02*
X55609Y-45904D01*
X55609Y-45827D02*
X55532Y-45904D01*
X55552Y-33741D02*
X55629Y-33818D01*
X55629Y-33741D02*
X55552Y-33818D01*
X55571Y-37737D02*
X55648Y-37814D01*
X55648Y-37737D02*
X55571Y-37814D01*
X55571Y-37992D02*
X55648Y-38069D01*
X55648Y-37992D02*
X55571Y-38069D01*
X55571Y-41536D02*
X55648Y-41613D01*
X55648Y-41536D02*
X55571Y-41613D01*
X55630Y-29902D02*
X55707Y-29979D01*
X55707Y-29902D02*
X55630Y-29979D01*
X55630Y-48622D02*
X55707Y-48699D01*
X55707Y-48622D02*
X55630Y-48699D01*
X55662Y-40579D02*
X55739Y-40656D01*
X55739Y-40579D02*
X55662Y-40656D01*
X55670Y-39406D02*
X55747Y-39483D01*
X55747Y-39406D02*
X55670Y-39483D01*
X55689Y-34095D02*
X55766Y-34172D01*
X55766Y-34095D02*
X55689Y-34172D01*
X55689Y-34981D02*
X55766Y-35058D01*
X55766Y-34981D02*
X55689Y-35058D01*
X55697Y-39792D02*
X55774Y-39869D01*
X55774Y-39792D02*
X55697Y-39869D01*
X55709Y-31811D02*
X55786Y-31888D01*
X55786Y-31811D02*
X55709Y-31888D01*
X55709Y-41890D02*
X55786Y-41967D01*
X55786Y-41890D02*
X55709Y-41967D01*
X55733Y-40193D02*
X55810Y-40270D01*
X55810Y-40193D02*
X55733Y-40270D01*
X55776Y-41367D02*
X55853Y-41444D01*
X55853Y-41367D02*
X55776Y-41444D01*
X55788Y-38544D02*
X55865Y-38621D01*
X55865Y-38544D02*
X55788Y-38621D01*
X55792Y-39008D02*
X55869Y-39085D01*
X55869Y-39008D02*
X55792Y-39085D01*
X55847Y-38248D02*
X55924Y-38325D01*
X55924Y-38248D02*
X55847Y-38325D01*
X55851Y-40977D02*
X55928Y-41054D01*
X55928Y-40977D02*
X55851Y-41054D01*
X55886Y-37855D02*
X55963Y-37932D01*
X55963Y-37855D02*
X55886Y-37932D01*
X55886Y-41713D02*
X55963Y-41790D01*
X55963Y-41713D02*
X55886Y-41790D01*
X55945Y-34528D02*
X56022Y-34605D01*
X56022Y-34528D02*
X55945Y-34605D01*
X55985Y-33268D02*
X56062Y-33345D01*
X56062Y-33268D02*
X55985Y-33345D01*
X55985Y-33741D02*
X56062Y-33818D01*
X56062Y-33741D02*
X55985Y-33818D01*
X55985Y-42264D02*
X56062Y-42341D01*
X56062Y-42264D02*
X55985Y-42341D01*
X55985Y-43052D02*
X56062Y-43129D01*
X56062Y-43052D02*
X55985Y-43129D01*
X56024Y-31496D02*
X56101Y-31573D01*
X56101Y-31496D02*
X56024Y-31573D01*
X56103Y-46575D02*
X56180Y-46652D01*
X56180Y-46575D02*
X56103Y-46652D01*
X56142Y-38288D02*
X56219Y-38365D01*
X56219Y-38288D02*
X56142Y-38365D01*
X56181Y-35335D02*
X56258Y-35412D01*
X56258Y-35335D02*
X56181Y-35412D01*
X56260Y-42992D02*
X56337Y-43069D01*
X56337Y-42992D02*
X56260Y-43069D01*
X56264Y-41898D02*
X56341Y-41975D01*
X56341Y-41898D02*
X56264Y-41975D01*
X56300Y-32953D02*
X56377Y-33030D01*
X56377Y-32953D02*
X56300Y-33030D01*
X56300Y-38091D02*
X56377Y-38168D01*
X56377Y-38091D02*
X56300Y-38168D01*
X56418Y-33741D02*
X56495Y-33818D01*
X56495Y-33741D02*
X56418Y-33818D01*
X56477Y-43544D02*
X56554Y-43621D01*
X56554Y-43544D02*
X56477Y-43621D01*
X56536Y-29902D02*
X56613Y-29979D01*
X56613Y-29902D02*
X56536Y-29979D01*
X56536Y-38091D02*
X56613Y-38168D01*
X56613Y-38091D02*
X56536Y-38168D01*
X56615Y-33268D02*
X56692Y-33345D01*
X56692Y-33268D02*
X56615Y-33345D01*
X56733Y-31811D02*
X56810Y-31888D01*
X56810Y-31811D02*
X56733Y-31888D01*
X56744Y-39233D02*
X56821Y-39310D01*
X56821Y-39233D02*
X56744Y-39310D01*
X56744Y-39666D02*
X56821Y-39743D01*
X56821Y-39666D02*
X56744Y-39743D01*
X56744Y-40099D02*
X56821Y-40176D01*
X56821Y-40099D02*
X56744Y-40176D01*
X56744Y-40532D02*
X56821Y-40609D01*
X56821Y-40532D02*
X56744Y-40609D01*
X56744Y-40965D02*
X56821Y-41042D01*
X56821Y-40965D02*
X56744Y-41042D01*
X56851Y-33741D02*
X56928Y-33818D01*
X56928Y-33741D02*
X56851Y-33818D01*
X56910Y-41930D02*
X56987Y-42007D01*
X56987Y-41930D02*
X56910Y-42007D01*
X56949Y-49410D02*
X57026Y-49487D01*
X57026Y-49410D02*
X56949Y-49487D01*
X56961Y-39016D02*
X57038Y-39093D01*
X57038Y-39016D02*
X56961Y-39093D01*
X56961Y-39449D02*
X57038Y-39526D01*
X57038Y-39449D02*
X56961Y-39526D01*
X56961Y-39882D02*
X57038Y-39959D01*
X57038Y-39882D02*
X56961Y-39959D01*
X56961Y-40315D02*
X57038Y-40392D01*
X57038Y-40315D02*
X56961Y-40392D01*
X56961Y-40748D02*
X57038Y-40825D01*
X57038Y-40748D02*
X56961Y-40825D01*
X57048Y-31496D02*
X57125Y-31573D01*
X57125Y-31496D02*
X57048Y-31573D01*
X57048Y-42382D02*
X57125Y-42459D01*
X57125Y-42382D02*
X57048Y-42459D01*
X57048Y-46733D02*
X57125Y-46810D01*
X57125Y-46733D02*
X57048Y-46810D01*
X57126Y-35807D02*
X57203Y-35884D01*
X57203Y-35807D02*
X57126Y-35884D01*
X57166Y-41930D02*
X57243Y-42007D01*
X57243Y-41930D02*
X57166Y-42007D01*
X57177Y-39233D02*
X57254Y-39310D01*
X57254Y-39233D02*
X57177Y-39310D01*
X57177Y-39666D02*
X57254Y-39743D01*
X57254Y-39666D02*
X57177Y-39743D01*
X57177Y-40099D02*
X57254Y-40176D01*
X57254Y-40099D02*
X57177Y-40176D01*
X57177Y-40532D02*
X57254Y-40609D01*
X57254Y-40532D02*
X57177Y-40609D01*
X57177Y-40965D02*
X57254Y-41042D01*
X57254Y-40965D02*
X57177Y-41042D01*
X57185Y-47146D02*
X57262Y-47223D01*
X57262Y-47146D02*
X57185Y-47223D01*
X57284Y-36575D02*
X57361Y-36652D01*
X57361Y-36575D02*
X57284Y-36652D01*
X57323Y-46733D02*
X57400Y-46810D01*
X57400Y-46733D02*
X57323Y-46810D01*
X57394Y-39016D02*
X57471Y-39093D01*
X57471Y-39016D02*
X57394Y-39093D01*
X57394Y-39449D02*
X57471Y-39526D01*
X57471Y-39449D02*
X57394Y-39526D01*
X57394Y-39882D02*
X57471Y-39959D01*
X57471Y-39882D02*
X57394Y-39959D01*
X57394Y-40315D02*
X57471Y-40392D01*
X57471Y-40315D02*
X57394Y-40392D01*
X57394Y-40748D02*
X57471Y-40825D01*
X57471Y-40748D02*
X57394Y-40825D01*
X57402Y-29902D02*
X57479Y-29979D01*
X57479Y-29902D02*
X57402Y-29979D01*
X57520Y-44154D02*
X57597Y-44231D01*
X57597Y-44154D02*
X57520Y-44231D01*
X57520Y-44567D02*
X57597Y-44644D01*
X57597Y-44567D02*
X57520Y-44644D01*
X57614Y-39233D02*
X57691Y-39310D01*
X57691Y-39233D02*
X57614Y-39310D01*
X57614Y-39666D02*
X57691Y-39743D01*
X57691Y-39666D02*
X57614Y-39743D01*
X57614Y-40099D02*
X57691Y-40176D01*
X57691Y-40099D02*
X57614Y-40176D01*
X57614Y-40532D02*
X57691Y-40609D01*
X57691Y-40532D02*
X57614Y-40609D01*
X57614Y-40965D02*
X57691Y-41042D01*
X57691Y-40965D02*
X57614Y-41042D01*
X57678Y-31811D02*
X57755Y-31888D01*
X57755Y-31811D02*
X57678Y-31888D01*
X57678Y-49430D02*
X57755Y-49507D01*
X57755Y-49430D02*
X57678Y-49507D01*
X57756Y-44961D02*
X57833Y-45038D01*
X57833Y-44961D02*
X57756Y-45038D01*
X57827Y-39016D02*
X57904Y-39093D01*
X57904Y-39016D02*
X57827Y-39093D01*
X57827Y-39449D02*
X57904Y-39526D01*
X57904Y-39449D02*
X57827Y-39526D01*
X57827Y-39882D02*
X57904Y-39959D01*
X57904Y-39882D02*
X57827Y-39959D01*
X57827Y-40315D02*
X57904Y-40392D01*
X57904Y-40315D02*
X57827Y-40392D01*
X57827Y-40748D02*
X57904Y-40825D01*
X57904Y-40748D02*
X57827Y-40825D01*
X57914Y-33741D02*
X57991Y-33818D01*
X57991Y-33741D02*
X57914Y-33818D01*
X57933Y-46733D02*
X58010Y-46810D01*
X58010Y-46733D02*
X57933Y-46810D01*
X57992Y-31496D02*
X58069Y-31573D01*
X58069Y-31496D02*
X57992Y-31573D01*
X58012Y-44508D02*
X58089Y-44585D01*
X58089Y-44508D02*
X58012Y-44585D01*
X58043Y-39233D02*
X58120Y-39310D01*
X58120Y-39233D02*
X58043Y-39310D01*
X58043Y-39666D02*
X58120Y-39743D01*
X58120Y-39666D02*
X58043Y-39743D01*
X58043Y-40099D02*
X58120Y-40176D01*
X58120Y-40099D02*
X58043Y-40176D01*
X58043Y-40532D02*
X58120Y-40609D01*
X58120Y-40532D02*
X58043Y-40609D01*
X58043Y-40965D02*
X58120Y-41042D01*
X58120Y-40965D02*
X58043Y-41042D01*
X58229Y-48229D02*
X58306Y-48306D01*
X58306Y-48229D02*
X58229Y-48306D01*
X58229Y-48622D02*
X58306Y-48699D01*
X58306Y-48622D02*
X58229Y-48699D01*
X58229Y-49174D02*
X58306Y-49251D01*
X58306Y-49174D02*
X58229Y-49251D01*
X58229Y-49567D02*
X58306Y-49644D01*
X58306Y-49567D02*
X58229Y-49644D01*
X58229Y-50040D02*
X58306Y-50117D01*
X58306Y-50040D02*
X58229Y-50117D01*
X58229Y-50433D02*
X58306Y-50510D01*
X58306Y-50433D02*
X58229Y-50510D01*
X58260Y-39016D02*
X58337Y-39093D01*
X58337Y-39016D02*
X58260Y-39093D01*
X58260Y-39449D02*
X58337Y-39526D01*
X58337Y-39449D02*
X58260Y-39526D01*
X58260Y-39882D02*
X58337Y-39959D01*
X58337Y-39882D02*
X58260Y-39959D01*
X58260Y-40315D02*
X58337Y-40392D01*
X58337Y-40315D02*
X58260Y-40392D01*
X58260Y-40748D02*
X58337Y-40825D01*
X58337Y-40748D02*
X58260Y-40825D01*
X58268Y-29902D02*
X58345Y-29979D01*
X58345Y-29902D02*
X58268Y-29979D01*
X58288Y-42992D02*
X58365Y-43069D01*
X58365Y-42992D02*
X58288Y-43069D01*
X58288Y-44961D02*
X58365Y-45038D01*
X58365Y-44961D02*
X58288Y-45038D01*
X58307Y-47756D02*
X58384Y-47833D01*
X58384Y-47756D02*
X58307Y-47833D01*
X58347Y-36575D02*
X58424Y-36652D01*
X58424Y-36575D02*
X58347Y-36652D01*
X58406Y-42599D02*
X58483Y-42676D01*
X58483Y-42599D02*
X58406Y-42676D01*
X58406Y-43662D02*
X58483Y-43739D01*
X58483Y-43662D02*
X58406Y-43739D01*
X58476Y-39233D02*
X58553Y-39310D01*
X58553Y-39233D02*
X58476Y-39310D01*
X58476Y-39666D02*
X58553Y-39743D01*
X58553Y-39666D02*
X58476Y-39743D01*
X58476Y-40099D02*
X58553Y-40176D01*
X58553Y-40099D02*
X58476Y-40176D01*
X58476Y-40532D02*
X58553Y-40609D01*
X58553Y-40532D02*
X58476Y-40609D01*
X58476Y-40965D02*
X58553Y-41042D01*
X58553Y-40965D02*
X58476Y-41042D01*
X58497Y-41934D02*
X58574Y-42011D01*
X58574Y-41934D02*
X58497Y-42011D01*
X58524Y-43091D02*
X58601Y-43168D01*
X58601Y-43091D02*
X58524Y-43168D01*
X58534Y-43435D02*
X58611Y-43512D01*
X58611Y-43435D02*
X58534Y-43512D01*
X58534Y-44479D02*
X58611Y-44556D01*
X58611Y-44479D02*
X58534Y-44556D01*
X58544Y-35807D02*
X58621Y-35884D01*
X58621Y-35807D02*
X58544Y-35884D01*
X58693Y-39016D02*
X58770Y-39093D01*
X58770Y-39016D02*
X58693Y-39093D01*
X58693Y-39449D02*
X58770Y-39526D01*
X58770Y-39449D02*
X58693Y-39526D01*
X58693Y-39882D02*
X58770Y-39959D01*
X58770Y-39882D02*
X58693Y-39959D01*
X58693Y-40315D02*
X58770Y-40392D01*
X58770Y-40315D02*
X58693Y-40392D01*
X58693Y-40748D02*
X58770Y-40825D01*
X58770Y-40748D02*
X58693Y-40825D01*
X58701Y-41930D02*
X58778Y-42007D01*
X58778Y-41930D02*
X58701Y-42007D01*
X58701Y-31811D02*
X58778Y-31888D01*
X58778Y-31811D02*
X58701Y-31888D01*
X58701Y-41241D02*
X58778Y-41318D01*
X58778Y-41241D02*
X58701Y-41318D01*
X58701Y-50433D02*
X58778Y-50510D01*
X58778Y-50433D02*
X58701Y-50510D01*
X58741Y-43662D02*
X58818Y-43739D01*
X58818Y-43662D02*
X58741Y-43739D01*
X58937Y-46969D02*
X59014Y-47046D01*
X59014Y-46969D02*
X58937Y-47046D01*
X58977Y-36181D02*
X59054Y-36258D01*
X59054Y-36181D02*
X58977Y-36258D01*
X58977Y-36516D02*
X59054Y-36593D01*
X59054Y-36516D02*
X58977Y-36593D01*
X58996Y-48091D02*
X59073Y-48168D01*
X59073Y-48091D02*
X58996Y-48168D01*
X59016Y-31496D02*
X59093Y-31573D01*
X59093Y-31496D02*
X59016Y-31573D01*
X59016Y-50118D02*
X59093Y-50195D01*
X59093Y-50118D02*
X59016Y-50195D01*
X59055Y-37933D02*
X59132Y-38010D01*
X59132Y-37933D02*
X59055Y-38010D01*
X59134Y-29902D02*
X59211Y-29979D01*
X59211Y-29902D02*
X59134Y-29979D01*
X59174Y-33741D02*
X59251Y-33818D01*
X59251Y-33741D02*
X59174Y-33818D01*
X59233Y-41768D02*
X59310Y-41845D01*
X59310Y-41768D02*
X59233Y-41845D01*
X59242Y-42028D02*
X59319Y-42105D01*
X59319Y-42028D02*
X59242Y-42105D01*
X59252Y-46260D02*
X59329Y-46337D01*
X59329Y-46260D02*
X59252Y-46337D01*
X59272Y-37933D02*
X59349Y-38010D01*
X59349Y-37933D02*
X59272Y-38010D01*
X59331Y-50433D02*
X59408Y-50510D01*
X59408Y-50433D02*
X59331Y-50510D01*
X59390Y-34705D02*
X59467Y-34782D01*
X59467Y-34705D02*
X59390Y-34782D01*
X59390Y-35886D02*
X59467Y-35963D01*
X59467Y-35886D02*
X59390Y-35963D01*
X59390Y-36555D02*
X59467Y-36632D01*
X59467Y-36555D02*
X59390Y-36632D01*
X59607Y-41378D02*
X59684Y-41455D01*
X59684Y-41378D02*
X59607Y-41455D01*
X59607Y-40186D02*
X59684Y-40263D01*
X59684Y-40186D02*
X59607Y-40263D01*
X59630Y-40386D02*
X59707Y-40463D01*
X59707Y-40386D02*
X59630Y-40463D01*
X59646Y-32559D02*
X59723Y-32636D01*
X59723Y-32559D02*
X59646Y-32636D01*
X59685Y-33741D02*
X59762Y-33818D01*
X59762Y-33741D02*
X59685Y-33818D01*
X59686Y-35120D02*
X59763Y-35197D01*
X59763Y-35120D02*
X59686Y-35197D01*
X59686Y-35458D02*
X59763Y-35535D01*
X59763Y-35458D02*
X59686Y-35535D01*
X59725Y-50118D02*
X59802Y-50195D01*
X59802Y-50118D02*
X59725Y-50195D01*
X59744Y-39804D02*
X59821Y-39881D01*
X59821Y-39804D02*
X59744Y-39881D01*
X59764Y-36181D02*
X59841Y-36258D01*
X59841Y-36181D02*
X59764Y-36258D01*
X59784Y-39449D02*
X59861Y-39526D01*
X59861Y-39449D02*
X59784Y-39526D01*
X59823Y-37579D02*
X59900Y-37656D01*
X59900Y-37579D02*
X59823Y-37656D01*
X59843Y-38150D02*
X59920Y-38227D01*
X59920Y-38150D02*
X59843Y-38227D01*
X59843Y-42225D02*
X59920Y-42302D01*
X59920Y-42225D02*
X59843Y-42302D01*
X59941Y-40611D02*
X60018Y-40688D01*
X60018Y-40611D02*
X59941Y-40688D01*
X59961Y-32244D02*
X60038Y-32321D01*
X60038Y-32244D02*
X59961Y-32321D01*
X59961Y-39882D02*
X60038Y-39959D01*
X60038Y-39882D02*
X59961Y-39959D01*
X59961Y-43435D02*
X60038Y-43512D01*
X60038Y-43435D02*
X59961Y-43512D01*
X59961Y-44479D02*
X60038Y-44556D01*
X60038Y-44479D02*
X59961Y-44556D01*
X60000Y-48091D02*
X60077Y-48168D01*
X60077Y-48091D02*
X60000Y-48168D01*
X60020Y-36181D02*
X60097Y-36258D01*
X60097Y-36181D02*
X60020Y-36258D01*
X60040Y-46260D02*
X60117Y-46337D01*
X60117Y-46260D02*
X60040Y-46337D01*
X60040Y-46733D02*
X60117Y-46810D01*
X60117Y-46733D02*
X60040Y-46810D01*
X60048Y-35462D02*
X60125Y-35539D01*
X60125Y-35462D02*
X60048Y-35539D01*
X60056Y-35115D02*
X60133Y-35192D01*
X60133Y-35115D02*
X60056Y-35192D01*
X60079Y-29902D02*
X60156Y-29979D01*
X60156Y-29902D02*
X60079Y-29979D01*
X60079Y-50433D02*
X60156Y-50510D01*
X60156Y-50433D02*
X60079Y-50510D01*
X60158Y-33741D02*
X60235Y-33818D01*
X60235Y-33741D02*
X60158Y-33818D01*
X60178Y-40571D02*
X60255Y-40648D01*
X60255Y-40571D02*
X60178Y-40648D01*
X60178Y-41398D02*
X60255Y-41475D01*
X60255Y-41398D02*
X60178Y-41475D01*
X60178Y-43662D02*
X60255Y-43739D01*
X60255Y-43662D02*
X60178Y-43739D01*
X60276Y-32559D02*
X60353Y-32636D01*
X60353Y-32559D02*
X60276Y-32636D01*
X60276Y-42386D02*
X60353Y-42463D01*
X60353Y-42386D02*
X60276Y-42463D01*
X60335Y-35886D02*
X60412Y-35963D01*
X60412Y-35886D02*
X60335Y-35963D01*
X60374Y-36536D02*
X60451Y-36613D01*
X60451Y-36536D02*
X60374Y-36613D01*
X60374Y-43091D02*
X60451Y-43168D01*
X60451Y-43091D02*
X60374Y-43168D01*
X60394Y-46733D02*
X60471Y-46810D01*
X60471Y-46733D02*
X60394Y-46810D01*
X60394Y-50118D02*
X60471Y-50195D01*
X60471Y-50118D02*
X60394Y-50195D01*
X60453Y-34016D02*
X60530Y-34093D01*
X60530Y-34016D02*
X60453Y-34093D01*
X60453Y-34804D02*
X60530Y-34881D01*
X60530Y-34804D02*
X60453Y-34881D01*
X60532Y-42678D02*
X60609Y-42755D01*
X60609Y-42678D02*
X60532Y-42755D01*
X60591Y-31693D02*
X60668Y-31770D01*
X60668Y-31693D02*
X60591Y-31770D01*
X60591Y-33741D02*
X60668Y-33818D01*
X60668Y-33741D02*
X60591Y-33818D01*
X60591Y-35965D02*
X60668Y-36042D01*
X60668Y-35965D02*
X60591Y-36042D01*
X60611Y-43504D02*
X60688Y-43581D01*
X60688Y-43504D02*
X60611Y-43581D01*
X60611Y-44567D02*
X60688Y-44644D01*
X60688Y-44567D02*
X60611Y-44644D01*
X60611Y-45118D02*
X60688Y-45195D01*
X60688Y-45118D02*
X60611Y-45195D01*
X60650Y-47185D02*
X60727Y-47262D01*
X60727Y-47185D02*
X60650Y-47262D01*
X60709Y-48071D02*
X60786Y-48148D01*
X60786Y-48071D02*
X60709Y-48148D01*
X60709Y-48780D02*
X60786Y-48857D01*
X60786Y-48780D02*
X60709Y-48857D01*
X60709Y-50433D02*
X60786Y-50510D01*
X60786Y-50433D02*
X60709Y-50510D01*
X60768Y-42382D02*
X60845Y-42459D01*
X60845Y-42382D02*
X60768Y-42459D01*
X60788Y-40571D02*
X60865Y-40648D01*
X60865Y-40571D02*
X60788Y-40648D01*
X60807Y-37579D02*
X60884Y-37656D01*
X60884Y-37579D02*
X60807Y-37656D01*
X60843Y-38048D02*
X60920Y-38125D01*
X60920Y-38048D02*
X60843Y-38125D01*
X60906Y-31378D02*
X60983Y-31455D01*
X60983Y-31378D02*
X60906Y-31455D01*
X60945Y-30985D02*
X61022Y-31062D01*
X61022Y-30985D02*
X60945Y-31062D01*
X61024Y-33741D02*
X61101Y-33818D01*
X61101Y-33741D02*
X61024Y-33818D01*
X61024Y-42126D02*
X61101Y-42203D01*
X61101Y-42126D02*
X61024Y-42203D01*
X61024Y-47756D02*
X61101Y-47833D01*
X61101Y-47756D02*
X61024Y-47833D01*
X61024Y-48465D02*
X61101Y-48542D01*
X61101Y-48465D02*
X61024Y-48542D01*
X61024Y-50118D02*
X61101Y-50195D01*
X61101Y-50118D02*
X61024Y-50195D01*
X61063Y-41398D02*
X61140Y-41475D01*
X61140Y-41398D02*
X61063Y-41475D01*
X61142Y-38603D02*
X61219Y-38680D01*
X61219Y-38603D02*
X61142Y-38680D01*
X61142Y-38898D02*
X61219Y-38975D01*
X61219Y-38898D02*
X61142Y-38975D01*
X61142Y-40020D02*
X61219Y-40097D01*
X61219Y-40020D02*
X61142Y-40097D01*
X61154Y-44670D02*
X61231Y-44747D01*
X61231Y-44670D02*
X61154Y-44747D01*
X61221Y-31693D02*
X61298Y-31770D01*
X61298Y-31693D02*
X61221Y-31770D01*
X61300Y-41654D02*
X61377Y-41731D01*
X61377Y-41654D02*
X61300Y-41731D01*
X61339Y-48071D02*
X61416Y-48148D01*
X61416Y-48071D02*
X61339Y-48148D01*
X61339Y-48780D02*
X61416Y-48857D01*
X61416Y-48780D02*
X61339Y-48857D01*
X61339Y-50433D02*
X61416Y-50510D01*
X61416Y-50433D02*
X61339Y-50510D01*
X61351Y-44863D02*
X61428Y-44940D01*
X61428Y-44863D02*
X61351Y-44940D01*
X61378Y-32559D02*
X61455Y-32636D01*
X61455Y-32559D02*
X61378Y-32636D01*
X61418Y-46260D02*
X61495Y-46337D01*
X61495Y-46260D02*
X61418Y-46337D01*
X61457Y-33741D02*
X61534Y-33818D01*
X61534Y-33741D02*
X61457Y-33818D01*
X61457Y-35670D02*
X61534Y-35747D01*
X61534Y-35670D02*
X61457Y-35747D01*
X61457Y-42540D02*
X61534Y-42617D01*
X61534Y-42540D02*
X61457Y-42617D01*
X61555Y-38044D02*
X61632Y-38121D01*
X61632Y-38044D02*
X61555Y-38121D01*
X61555Y-38288D02*
X61632Y-38365D01*
X61632Y-38288D02*
X61555Y-38365D01*
X61646Y-43217D02*
X61723Y-43294D01*
X61723Y-43217D02*
X61646Y-43294D01*
X61654Y-38937D02*
X61731Y-39014D01*
X61731Y-38937D02*
X61654Y-39014D01*
X61654Y-44390D02*
X61731Y-44467D01*
X61731Y-44390D02*
X61654Y-44467D01*
X61654Y-45158D02*
X61731Y-45235D01*
X61731Y-45158D02*
X61654Y-45235D01*
X61654Y-50118D02*
X61731Y-50195D01*
X61731Y-50118D02*
X61654Y-50195D01*
X61674Y-41122D02*
X61751Y-41199D01*
X61751Y-41122D02*
X61674Y-41199D01*
X61693Y-32244D02*
X61770Y-32321D01*
X61770Y-32244D02*
X61693Y-32321D01*
X61792Y-48307D02*
X61869Y-48384D01*
X61869Y-48307D02*
X61792Y-48384D01*
X61811Y-29902D02*
X61888Y-29979D01*
X61888Y-29902D02*
X61811Y-29979D01*
X61851Y-36733D02*
X61928Y-36810D01*
X61928Y-36733D02*
X61851Y-36810D01*
X61851Y-46260D02*
X61928Y-46337D01*
X61928Y-46260D02*
X61851Y-46337D01*
X61851Y-47008D02*
X61928Y-47085D01*
X61928Y-47008D02*
X61851Y-47085D01*
X61890Y-39469D02*
X61967Y-39546D01*
X61967Y-39469D02*
X61890Y-39546D01*
X61890Y-39764D02*
X61967Y-39841D01*
X61967Y-39764D02*
X61890Y-39841D01*
X61910Y-40315D02*
X61987Y-40392D01*
X61987Y-40315D02*
X61910Y-40392D01*
X61930Y-33741D02*
X62007Y-33818D01*
X62007Y-33741D02*
X61930Y-33818D01*
X61969Y-50433D02*
X62046Y-50510D01*
X62046Y-50433D02*
X61969Y-50510D01*
X62008Y-32559D02*
X62085Y-32636D01*
X62085Y-32559D02*
X62008Y-32636D01*
X62087Y-46575D02*
X62164Y-46652D01*
X62164Y-46575D02*
X62087Y-46652D01*
X62323Y-50118D02*
X62400Y-50195D01*
X62400Y-50118D02*
X62323Y-50195D01*
X62402Y-33741D02*
X62479Y-33818D01*
X62479Y-33741D02*
X62402Y-33818D01*
X62481Y-46575D02*
X62558Y-46652D01*
X62558Y-46575D02*
X62481Y-46652D01*
X62481Y-47008D02*
X62558Y-47085D01*
X62558Y-47008D02*
X62481Y-47085D01*
X62678Y-29902D02*
X62755Y-29979D01*
X62755Y-29902D02*
X62678Y-29979D01*
X62678Y-50433D02*
X62755Y-50510D01*
X62755Y-50433D02*
X62678Y-50510D01*
X62835Y-33741D02*
X62912Y-33818D01*
X62912Y-33741D02*
X62835Y-33818D01*
X62874Y-47520D02*
X62951Y-47597D01*
X62951Y-47520D02*
X62874Y-47597D01*
X62953Y-46575D02*
X63030Y-46652D01*
X63030Y-46575D02*
X62953Y-46652D01*
X62992Y-50118D02*
X63069Y-50195D01*
X63069Y-50118D02*
X62992Y-50195D01*
X63012Y-48091D02*
X63089Y-48168D01*
X63089Y-48091D02*
X63012Y-48168D01*
X63032Y-37441D02*
X63109Y-37518D01*
X63109Y-37441D02*
X63032Y-37518D01*
X63032Y-37835D02*
X63109Y-37912D01*
X63109Y-37835D02*
X63032Y-37912D01*
X63032Y-39804D02*
X63109Y-39881D01*
X63109Y-39804D02*
X63032Y-39881D01*
X63032Y-40197D02*
X63109Y-40274D01*
X63109Y-40197D02*
X63032Y-40274D01*
X63111Y-42166D02*
X63188Y-42243D01*
X63188Y-42166D02*
X63111Y-42243D01*
X63111Y-42559D02*
X63188Y-42636D01*
X63188Y-42559D02*
X63111Y-42636D01*
X63189Y-47205D02*
X63266Y-47282D01*
X63266Y-47205D02*
X63189Y-47282D01*
X63268Y-33741D02*
X63345Y-33818D01*
X63345Y-33741D02*
X63268Y-33818D01*
X63307Y-50433D02*
X63384Y-50510D01*
X63384Y-50433D02*
X63307Y-50510D01*
X63347Y-46575D02*
X63424Y-46652D01*
X63424Y-46575D02*
X63347Y-46652D01*
X63386Y-32559D02*
X63463Y-32636D01*
X63463Y-32559D02*
X63386Y-32636D01*
X63386Y-45670D02*
X63463Y-45747D01*
X63463Y-45670D02*
X63386Y-45747D01*
X63386Y-46063D02*
X63463Y-46140D01*
X63463Y-46063D02*
X63386Y-46140D01*
X63485Y-29902D02*
X63562Y-29979D01*
X63562Y-29902D02*
X63485Y-29979D01*
X63504Y-34055D02*
X63581Y-34132D01*
X63581Y-34055D02*
X63504Y-34132D01*
X63504Y-34370D02*
X63581Y-34447D01*
X63581Y-34370D02*
X63504Y-34447D01*
X63504Y-36181D02*
X63581Y-36258D01*
X63581Y-36181D02*
X63504Y-36258D01*
X63504Y-36496D02*
X63581Y-36573D01*
X63581Y-36496D02*
X63504Y-36573D01*
X63504Y-36890D02*
X63581Y-36967D01*
X63581Y-36890D02*
X63504Y-36967D01*
X63504Y-37363D02*
X63581Y-37440D01*
X63581Y-37363D02*
X63504Y-37440D01*
X63504Y-37756D02*
X63581Y-37833D01*
X63581Y-37756D02*
X63504Y-37833D01*
X63504Y-38229D02*
X63581Y-38306D01*
X63581Y-38229D02*
X63504Y-38306D01*
X63504Y-38622D02*
X63581Y-38699D01*
X63581Y-38622D02*
X63504Y-38699D01*
X63504Y-39095D02*
X63581Y-39172D01*
X63581Y-39095D02*
X63504Y-39172D01*
X63504Y-39489D02*
X63581Y-39566D01*
X63581Y-39489D02*
X63504Y-39566D01*
X63504Y-39961D02*
X63581Y-40038D01*
X63581Y-39961D02*
X63504Y-40038D01*
X63504Y-43504D02*
X63581Y-43581D01*
X63581Y-43504D02*
X63504Y-43581D01*
X63504Y-43819D02*
X63581Y-43896D01*
X63581Y-43819D02*
X63504Y-43896D01*
X63504Y-47520D02*
X63581Y-47597D01*
X63581Y-47520D02*
X63504Y-47597D01*
X63583Y-40355D02*
X63660Y-40432D01*
X63660Y-40355D02*
X63583Y-40432D01*
X63583Y-40748D02*
X63660Y-40825D01*
X63660Y-40748D02*
X63583Y-40825D01*
X63583Y-41221D02*
X63660Y-41298D01*
X63660Y-41221D02*
X63583Y-41298D01*
X63583Y-41615D02*
X63660Y-41692D01*
X63660Y-41615D02*
X63583Y-41692D01*
X63583Y-42087D02*
X63660Y-42164D01*
X63660Y-42087D02*
X63583Y-42164D01*
X63583Y-42481D02*
X63660Y-42558D01*
X63660Y-42481D02*
X63583Y-42558D01*
X63583Y-42953D02*
X63660Y-43030D01*
X63660Y-42953D02*
X63583Y-43030D01*
X63701Y-32244D02*
X63778Y-32321D01*
X63778Y-32244D02*
X63701Y-32321D01*
X63898Y-34055D02*
X63975Y-34132D01*
X63975Y-34055D02*
X63898Y-34132D01*
X63898Y-34370D02*
X63975Y-34447D01*
X63975Y-34370D02*
X63898Y-34447D01*
X63898Y-36181D02*
X63975Y-36258D01*
X63975Y-36181D02*
X63898Y-36258D01*
X63898Y-36496D02*
X63975Y-36573D01*
X63975Y-36496D02*
X63898Y-36573D01*
X63898Y-36811D02*
X63975Y-36888D01*
X63975Y-36811D02*
X63898Y-36888D01*
X63898Y-43504D02*
X63975Y-43581D01*
X63975Y-43504D02*
X63898Y-43581D01*
X63898Y-43819D02*
X63975Y-43896D01*
X63975Y-43819D02*
X63898Y-43896D01*
X63918Y-45670D02*
X63995Y-45747D01*
X63995Y-45670D02*
X63918Y-45747D01*
X63918Y-46063D02*
X63995Y-46140D01*
X63995Y-46063D02*
X63918Y-46140D01*
X64016Y-32559D02*
X64093Y-32636D01*
X64093Y-32559D02*
X64016Y-32636D01*
X64131Y-33667D02*
X64208Y-33744D01*
X64208Y-33667D02*
X64131Y-33744D01*
X64213Y-46339D02*
X64290Y-46416D01*
X64290Y-46339D02*
X64213Y-46416D01*
X64217Y-43221D02*
X64294Y-43298D01*
X64294Y-43221D02*
X64217Y-43298D01*
X64292Y-36811D02*
X64369Y-36888D01*
X64369Y-36811D02*
X64292Y-36888D01*
X64449Y-49331D02*
X64526Y-49408D01*
X64526Y-49331D02*
X64449Y-49408D01*
X64489Y-47520D02*
X64566Y-47597D01*
X64566Y-47520D02*
X64489Y-47597D01*
X64535Y-33677D02*
X64612Y-33754D01*
X64612Y-33677D02*
X64535Y-33754D01*
X64607Y-46339D02*
X64684Y-46416D01*
X64684Y-46339D02*
X64607Y-46416D01*
X64611Y-43225D02*
X64688Y-43302D01*
X64688Y-43225D02*
X64611Y-43302D01*
X64685Y-36811D02*
X64762Y-36888D01*
X64762Y-36811D02*
X64685Y-36888D01*
X64804Y-30827D02*
X64881Y-30904D01*
X64881Y-30827D02*
X64804Y-30904D01*
X64804Y-47205D02*
X64881Y-47282D01*
X64881Y-47205D02*
X64804Y-47282D01*
X64843Y-32559D02*
X64920Y-32636D01*
X64920Y-32559D02*
X64843Y-32636D01*
X64843Y-49331D02*
X64920Y-49408D01*
X64920Y-49331D02*
X64843Y-49408D01*
X64999Y-33677D02*
X65076Y-33754D01*
X65076Y-33677D02*
X64999Y-33754D01*
X65000Y-46339D02*
X65077Y-46416D01*
X65077Y-46339D02*
X65000Y-46416D01*
X65071Y-43229D02*
X65148Y-43306D01*
X65148Y-43229D02*
X65071Y-43306D01*
X65118Y-47520D02*
X65195Y-47597D01*
X65195Y-47520D02*
X65118Y-47597D01*
X65158Y-32244D02*
X65235Y-32321D01*
X65235Y-32244D02*
X65158Y-32321D01*
X65158Y-36811D02*
X65235Y-36888D01*
X65235Y-36811D02*
X65158Y-36888D01*
X65315Y-49331D02*
X65392Y-49408D01*
X65392Y-49331D02*
X65315Y-49408D01*
X65385Y-33675D02*
X65462Y-33752D01*
X65462Y-33675D02*
X65385Y-33752D01*
X65394Y-46339D02*
X65471Y-46416D01*
X65471Y-46339D02*
X65394Y-46416D01*
X65473Y-32559D02*
X65550Y-32636D01*
X65550Y-32559D02*
X65473Y-32636D01*
X65473Y-43225D02*
X65550Y-43302D01*
X65550Y-43225D02*
X65473Y-43302D01*
X65552Y-36811D02*
X65629Y-36888D01*
X65629Y-36811D02*
X65552Y-36888D01*
X65788Y-33662D02*
X65865Y-33739D01*
X65865Y-33662D02*
X65788Y-33739D01*
X65788Y-37992D02*
X65865Y-38069D01*
X65865Y-37992D02*
X65788Y-38069D01*
X65788Y-38386D02*
X65865Y-38463D01*
X65865Y-38386D02*
X65788Y-38463D01*
X65788Y-38859D02*
X65865Y-38936D01*
X65865Y-38859D02*
X65788Y-38936D01*
X65788Y-39252D02*
X65865Y-39329D01*
X65865Y-39252D02*
X65788Y-39329D01*
X65788Y-39725D02*
X65865Y-39802D01*
X65865Y-39725D02*
X65788Y-39802D01*
X65788Y-40118D02*
X65865Y-40195D01*
X65865Y-40118D02*
X65788Y-40195D01*
X65788Y-40748D02*
X65865Y-40825D01*
X65865Y-40748D02*
X65788Y-40825D01*
X65788Y-41142D02*
X65865Y-41219D01*
X65865Y-41142D02*
X65788Y-41219D01*
X65788Y-41615D02*
X65865Y-41692D01*
X65865Y-41615D02*
X65788Y-41692D01*
X65788Y-42008D02*
X65865Y-42085D01*
X65865Y-42008D02*
X65788Y-42085D01*
X65788Y-46339D02*
X65865Y-46416D01*
X65865Y-46339D02*
X65788Y-46416D01*
X65788Y-46733D02*
X65865Y-46810D01*
X65865Y-46733D02*
X65788Y-46810D01*
X65788Y-47126D02*
X65865Y-47203D01*
X65865Y-47126D02*
X65788Y-47203D01*
X65788Y-47520D02*
X65865Y-47597D01*
X65865Y-47520D02*
X65788Y-47597D01*
X65788Y-47914D02*
X65865Y-47991D01*
X65865Y-47914D02*
X65788Y-47991D01*
X65788Y-48307D02*
X65865Y-48384D01*
X65865Y-48307D02*
X65788Y-48384D01*
X65788Y-48701D02*
X65865Y-48778D01*
X65865Y-48701D02*
X65788Y-48778D01*
X65855Y-43221D02*
X65932Y-43298D01*
X65932Y-43221D02*
X65855Y-43298D01*
X65867Y-36811D02*
X65944Y-36888D01*
X65944Y-36811D02*
X65867Y-36888D01*
X59779Y-40740D02*
G75*
G03X59779Y-40740I-39J0D01*
G74*
G01*
X59787Y-39020D02*
G75*
G03X59787Y-39020I-39J0D01*
G74*
G01*
X60069Y-41211D02*
G75*
G03X60069Y-41211I-39J0D01*
G74*
G01*
X60378Y-39244D02*
G75*
G03X60378Y-39244I-39J0D01*
G74*
G01*
X60512Y-41000D02*
G75*
G03X60512Y-41000I-39J0D01*
G74*
G01*
X60819Y-39406D02*
G75*
G03X60819Y-39406I-39J0D01*
G74*
G01*
X61141Y-40835D02*
G75*
G03X61141Y-40835I-39J0D01*
G74*
G01*
X56437Y-38710D02*
X56437Y-38789D01*
X56397Y-38750D02*
X56476Y-38750D01*
X56437Y-38907D02*
X56437Y-38986D01*
X56397Y-38947D02*
X56476Y-38947D01*
X56437Y-39104D02*
X56437Y-39183D01*
X56397Y-39144D02*
X56476Y-39144D01*
X56437Y-39301D02*
X56437Y-39380D01*
X56397Y-39341D02*
X56476Y-39341D01*
X56437Y-39497D02*
X56437Y-39576D01*
X56397Y-39537D02*
X56476Y-39537D01*
X56437Y-39694D02*
X56437Y-39773D01*
X56397Y-39734D02*
X56476Y-39734D01*
X56437Y-39891D02*
X56437Y-39970D01*
X56397Y-39931D02*
X56476Y-39931D01*
X56437Y-40088D02*
X56437Y-40167D01*
X56397Y-40128D02*
X56476Y-40128D01*
X56437Y-40285D02*
X56437Y-40364D01*
X56397Y-40325D02*
X56476Y-40325D01*
X56437Y-40482D02*
X56437Y-40561D01*
X56397Y-40522D02*
X56476Y-40522D01*
X56437Y-40679D02*
X56437Y-40758D01*
X56397Y-40719D02*
X56476Y-40719D01*
X56437Y-40875D02*
X56437Y-40954D01*
X56397Y-40915D02*
X56476Y-40915D01*
X56437Y-41072D02*
X56437Y-41151D01*
X56397Y-41112D02*
X56476Y-41112D01*
X56447Y-41269D02*
X56447Y-41348D01*
X56407Y-41309D02*
X56486Y-41309D01*
X56663Y-41299D02*
X56663Y-41378D01*
X56623Y-41339D02*
X56702Y-41339D01*
X56673Y-38671D02*
X56673Y-38750D01*
X56633Y-38711D02*
X56712Y-38711D01*
X56860Y-41299D02*
X56860Y-41378D01*
X56820Y-41339D02*
X56899Y-41339D01*
X56870Y-38680D02*
X56870Y-38759D01*
X56830Y-38720D02*
X56909Y-38720D01*
X57057Y-41299D02*
X57057Y-41378D01*
X57017Y-41339D02*
X57096Y-41339D01*
X57067Y-38680D02*
X57067Y-38759D01*
X57027Y-38720D02*
X57106Y-38720D01*
X57254Y-41299D02*
X57254Y-41378D01*
X57214Y-41339D02*
X57293Y-41339D01*
X57854Y-38680D02*
X57854Y-38759D01*
X57814Y-38720D02*
X57893Y-38720D01*
X58238Y-41299D02*
X58238Y-41378D01*
X58198Y-41339D02*
X58277Y-41339D01*
X58435Y-41299D02*
X58435Y-41378D01*
X58395Y-41339D02*
X58474Y-41339D01*
X59055Y-40088D02*
X59055Y-40167D01*
X59015Y-40128D02*
X59094Y-40128D01*
X59065Y-38710D02*
X59065Y-38789D01*
X59025Y-38750D02*
X59104Y-38750D01*
X59065Y-38907D02*
X59065Y-38986D01*
X59025Y-38947D02*
X59104Y-38947D01*
X59065Y-39104D02*
X59065Y-39183D01*
X59025Y-39144D02*
X59104Y-39144D01*
X59065Y-39301D02*
X59065Y-39380D01*
X59025Y-39341D02*
X59104Y-39341D01*
X59065Y-39694D02*
X59065Y-39773D01*
X59025Y-39734D02*
X59104Y-39734D01*
X59065Y-39891D02*
X59065Y-39970D01*
X59025Y-39931D02*
X59104Y-39931D01*
X59065Y-40285D02*
X59065Y-40364D01*
X59025Y-40325D02*
X59104Y-40325D01*
X59065Y-40482D02*
X59065Y-40561D01*
X59025Y-40522D02*
X59104Y-40522D01*
X59065Y-40679D02*
X59065Y-40758D01*
X59025Y-40719D02*
X59104Y-40719D01*
X59065Y-40875D02*
X59065Y-40954D01*
X59025Y-40915D02*
X59104Y-40915D01*
X59065Y-41269D02*
X59065Y-41348D01*
X59025Y-41309D02*
X59104Y-41309D01*
X59075Y-41072D02*
X59075Y-41151D01*
X59035Y-41112D02*
X59114Y-41112D01*
X51210Y-34285D02*
X51210Y-34202D01*
X51127Y-34202D01*
X51127Y-34285D01*
X51210Y-34285D01*
X51368Y-47371D02*
X51368Y-47288D01*
X51285Y-47288D01*
X51285Y-47371D01*
X51368Y-47371D01*
X51368Y-47686D02*
X51368Y-47603D01*
X51285Y-47603D01*
X51285Y-47686D01*
X51368Y-47686D01*
X51368Y-48060D02*
X51368Y-47977D01*
X51285Y-47977D01*
X51285Y-48060D01*
X51368Y-48060D01*
X51368Y-48394D02*
X51368Y-48311D01*
X51285Y-48311D01*
X51285Y-48394D01*
X51368Y-48394D01*
X51368Y-48709D02*
X51368Y-48626D01*
X51285Y-48626D01*
X51285Y-48709D01*
X51368Y-48709D01*
X51368Y-49044D02*
X51368Y-48961D01*
X51285Y-48961D01*
X51285Y-49044D01*
X51368Y-49044D01*
X51663Y-47371D02*
X51663Y-47288D01*
X51580Y-47288D01*
X51580Y-47371D01*
X51663Y-47371D01*
X51663Y-48060D02*
X51663Y-47977D01*
X51580Y-47977D01*
X51580Y-48060D01*
X51663Y-48060D01*
X51663Y-48394D02*
X51663Y-48311D01*
X51580Y-48311D01*
X51580Y-48394D01*
X51663Y-48394D01*
X51673Y-47686D02*
X51673Y-47603D01*
X51590Y-47603D01*
X51590Y-47686D01*
X51673Y-47686D01*
X51673Y-48719D02*
X51673Y-48636D01*
X51590Y-48636D01*
X51590Y-48719D01*
X51673Y-48719D01*
X51673Y-49054D02*
X51673Y-48971D01*
X51590Y-48971D01*
X51590Y-49054D01*
X51673Y-49054D01*
X51968Y-47371D02*
X51968Y-47288D01*
X51885Y-47288D01*
X51885Y-47371D01*
X51968Y-47371D01*
X51968Y-48719D02*
X51968Y-48636D01*
X51885Y-48636D01*
X51885Y-48719D01*
X51968Y-48719D01*
X51968Y-49054D02*
X51968Y-48971D01*
X51885Y-48971D01*
X51885Y-49054D01*
X51968Y-49054D01*
X51978Y-48060D02*
X51978Y-47977D01*
X51895Y-47977D01*
X51895Y-48060D01*
X51978Y-48060D01*
X51978Y-48394D02*
X51978Y-48311D01*
X51895Y-48311D01*
X51895Y-48394D01*
X51978Y-48394D01*
X51988Y-47686D02*
X51988Y-47603D01*
X51905Y-47603D01*
X51905Y-47686D01*
X51988Y-47686D01*
X52095Y-44941D02*
X52095Y-44859D01*
X52012Y-44859D01*
X52012Y-44941D01*
X52095Y-44941D01*
X52096Y-45256D02*
X52096Y-45174D01*
X52013Y-45174D01*
X52013Y-45256D01*
X52096Y-45256D01*
X52273Y-47371D02*
X52273Y-47288D01*
X52190Y-47288D01*
X52190Y-47371D01*
X52273Y-47371D01*
X52283Y-48719D02*
X52283Y-48636D01*
X52200Y-48636D01*
X52200Y-48719D01*
X52283Y-48719D01*
X52283Y-49054D02*
X52283Y-48971D01*
X52200Y-48971D01*
X52200Y-49054D01*
X52283Y-49054D01*
X52293Y-48060D02*
X52293Y-47977D01*
X52210Y-47977D01*
X52210Y-48060D01*
X52293Y-48060D01*
X52293Y-48394D02*
X52293Y-48311D01*
X52210Y-48311D01*
X52210Y-48394D01*
X52293Y-48394D01*
X52303Y-47686D02*
X52303Y-47603D01*
X52220Y-47603D01*
X52220Y-47686D01*
X52303Y-47686D01*
X52588Y-47686D02*
X52588Y-47603D01*
X52505Y-47603D01*
X52505Y-47686D01*
X52588Y-47686D01*
X52588Y-48060D02*
X52588Y-47977D01*
X52505Y-47977D01*
X52505Y-48060D01*
X52588Y-48060D01*
X52598Y-47371D02*
X52598Y-47288D01*
X52515Y-47288D01*
X52515Y-47371D01*
X52598Y-47371D01*
X52608Y-48394D02*
X52608Y-48311D01*
X52525Y-48311D01*
X52525Y-48394D01*
X52608Y-48394D01*
X52608Y-48719D02*
X52608Y-48636D01*
X52525Y-48636D01*
X52525Y-48719D01*
X52608Y-48719D01*
X52608Y-49054D02*
X52608Y-48971D01*
X52525Y-48971D01*
X52525Y-49054D01*
X52608Y-49054D01*
X52804Y-44941D02*
X52804Y-44859D01*
X52721Y-44859D01*
X52721Y-44941D01*
X52804Y-44941D01*
X52805Y-45256D02*
X52805Y-45173D01*
X52722Y-45173D01*
X52722Y-45256D01*
X52805Y-45256D01*
X52913Y-47686D02*
X52913Y-47603D01*
X52830Y-47603D01*
X52830Y-47686D01*
X52913Y-47686D01*
X52913Y-48060D02*
X52913Y-47977D01*
X52830Y-47977D01*
X52830Y-48060D01*
X52913Y-48060D01*
X52923Y-47371D02*
X52923Y-47288D01*
X52840Y-47288D01*
X52840Y-47371D01*
X52923Y-47371D01*
X52933Y-48394D02*
X52933Y-48311D01*
X52850Y-48311D01*
X52850Y-48394D01*
X52933Y-48394D01*
X52933Y-48719D02*
X52933Y-48636D01*
X52850Y-48636D01*
X52850Y-48719D01*
X52933Y-48719D01*
X52933Y-49054D02*
X52933Y-48971D01*
X52850Y-48971D01*
X52850Y-49054D01*
X52933Y-49054D01*
X53248Y-47686D02*
X53248Y-47603D01*
X53165Y-47603D01*
X53165Y-47686D01*
X53248Y-47686D01*
X53248Y-48060D02*
X53248Y-47977D01*
X53165Y-47977D01*
X53165Y-48060D01*
X53248Y-48060D01*
X53257Y-47371D02*
X53257Y-47288D01*
X53175Y-47288D01*
X53175Y-47371D01*
X53257Y-47371D01*
X53267Y-48394D02*
X53267Y-48311D01*
X53184Y-48311D01*
X53184Y-48394D01*
X53267Y-48394D01*
X53267Y-48719D02*
X53267Y-48636D01*
X53184Y-48636D01*
X53184Y-48719D01*
X53267Y-48719D01*
X53267Y-49054D02*
X53267Y-48971D01*
X53184Y-48971D01*
X53184Y-49054D01*
X53267Y-49054D01*
X56143Y-44016D02*
X56143Y-43933D01*
X56060Y-43933D01*
X56060Y-44016D01*
X56143Y-44016D01*
X56419Y-44016D02*
X56419Y-43933D01*
X56336Y-43933D01*
X56336Y-44016D01*
X56419Y-44016D01*
X32232Y-34807D02*
X32409Y-34630D01*
X32232Y-34453D01*
X32055Y-34630D01*
X32232Y-34807D01*
X32232Y-35240D02*
X32409Y-35063D01*
X32232Y-34886D01*
X32055Y-35063D01*
X32232Y-35240D01*
X32232Y-35673D02*
X32409Y-35496D01*
X32232Y-35319D01*
X32055Y-35496D01*
X32232Y-35673D01*
X32232Y-43646D02*
X32409Y-43469D01*
X32232Y-43292D01*
X32055Y-43469D01*
X32232Y-43646D01*
X32232Y-44079D02*
X32409Y-43902D01*
X32232Y-43725D01*
X32055Y-43902D01*
X32232Y-44079D01*
X32232Y-44512D02*
X32409Y-44335D01*
X32232Y-44158D01*
X32055Y-44335D01*
X32232Y-44512D01*
X41525Y-29527D02*
X41702Y-29350D01*
X41525Y-29173D01*
X41348Y-29350D01*
X41525Y-29527D01*
X41525Y-51023D02*
X41702Y-50846D01*
X41525Y-50669D01*
X41348Y-50846D01*
X41525Y-51023D01*
X41958Y-29527D02*
X42135Y-29350D01*
X41958Y-29173D01*
X41781Y-29350D01*
X41958Y-29527D01*
X41958Y-51023D02*
X42135Y-50846D01*
X41958Y-50669D01*
X41781Y-50846D01*
X41958Y-51023D01*
X42389Y-29527D02*
X42566Y-29350D01*
X42389Y-29173D01*
X42212Y-29350D01*
X42389Y-29527D01*
X42389Y-51023D02*
X42566Y-50846D01*
X42389Y-50669D01*
X42212Y-50846D01*
X42389Y-51023D01*
X42823Y-29527D02*
X43000Y-29350D01*
X42823Y-29173D01*
X42646Y-29350D01*
X42823Y-29527D01*
X42823Y-51023D02*
X43000Y-50846D01*
X42823Y-50669D01*
X42646Y-50846D01*
X42823Y-51023D01*
X53387Y-30688D02*
X53564Y-30511D01*
X53387Y-30334D01*
X53210Y-30511D01*
X53387Y-30688D01*
X54387Y-30708D02*
X54564Y-30531D01*
X54387Y-30354D01*
X54210Y-30531D01*
X54387Y-30708D01*
X55387Y-30708D02*
X55564Y-30531D01*
X55387Y-30354D01*
X55210Y-30531D01*
X55387Y-30708D01*
X56387Y-30708D02*
X56564Y-30531D01*
X56387Y-30354D01*
X56210Y-30531D01*
X56387Y-30708D01*
X56425Y-29527D02*
X56602Y-29350D01*
X56425Y-29173D01*
X56248Y-29350D01*
X56425Y-29527D01*
X56426Y-51023D02*
X56603Y-50846D01*
X56426Y-50669D01*
X56249Y-50846D01*
X56426Y-51023D01*
X56566Y-50295D02*
X56743Y-50118D01*
X56566Y-49941D01*
X56389Y-50118D01*
X56566Y-50295D01*
X56858Y-29527D02*
X57035Y-29350D01*
X56858Y-29173D01*
X56681Y-29350D01*
X56858Y-29527D01*
X56859Y-51023D02*
X57036Y-50846D01*
X56859Y-50669D01*
X56682Y-50846D01*
X56859Y-51023D01*
X57291Y-29527D02*
X57468Y-29350D01*
X57291Y-29173D01*
X57114Y-29350D01*
X57291Y-29527D01*
X57292Y-51023D02*
X57469Y-50846D01*
X57292Y-50669D01*
X57115Y-50846D01*
X57292Y-51023D01*
X57387Y-30708D02*
X57564Y-30531D01*
X57387Y-30354D01*
X57210Y-30531D01*
X57387Y-30708D01*
X57566Y-50295D02*
X57743Y-50118D01*
X57566Y-49941D01*
X57389Y-50118D01*
X57566Y-50295D01*
X57725Y-29527D02*
X57902Y-29350D01*
X57725Y-29173D01*
X57548Y-29350D01*
X57725Y-29527D01*
X57726Y-51023D02*
X57903Y-50846D01*
X57726Y-50669D01*
X57549Y-50846D01*
X57726Y-51023D01*
X58387Y-30708D02*
X58564Y-30531D01*
X58387Y-30354D01*
X58210Y-30531D01*
X58387Y-30708D01*
X59045Y-49625D02*
X59222Y-49448D01*
X59045Y-49271D01*
X58868Y-49448D01*
X59045Y-49625D01*
X59389Y-30688D02*
X59566Y-30511D01*
X59389Y-30334D01*
X59212Y-30511D01*
X59389Y-30688D01*
X60045Y-49645D02*
X60222Y-49468D01*
X60045Y-49291D01*
X59868Y-49468D01*
X60045Y-49645D01*
X60389Y-30708D02*
X60566Y-30531D01*
X60389Y-30354D01*
X60212Y-30531D01*
X60389Y-30708D01*
X61045Y-49645D02*
X61222Y-49468D01*
X61045Y-49291D01*
X60868Y-49468D01*
X61045Y-49645D01*
X61389Y-30708D02*
X61566Y-30531D01*
X61389Y-30354D01*
X61212Y-30531D01*
X61389Y-30708D01*
X62045Y-49645D02*
X62222Y-49468D01*
X62045Y-49291D01*
X61868Y-49468D01*
X62045Y-49645D01*
X62389Y-30708D02*
X62566Y-30531D01*
X62389Y-30354D01*
X62212Y-30531D01*
X62389Y-30708D01*
X63045Y-49645D02*
X63222Y-49468D01*
X63045Y-49291D01*
X62868Y-49468D01*
X63045Y-49645D01*
X63389Y-30708D02*
X63566Y-30531D01*
X63389Y-30354D01*
X63212Y-30531D01*
X63389Y-30708D01*
X66268Y-39748D02*
X66445Y-39571D01*
X66268Y-39394D01*
X66091Y-39571D01*
X66268Y-39748D01*
X66268Y-40181D02*
X66445Y-40004D01*
X66268Y-39827D01*
X66091Y-40004D01*
X66268Y-40181D01*
X66268Y-40614D02*
X66445Y-40437D01*
X66268Y-40260D01*
X66091Y-40437D01*
X66268Y-40614D01*
X66268Y-41047D02*
X66445Y-40870D01*
X66268Y-40693D01*
X66091Y-40870D01*
X66268Y-41047D01*
X36895Y-30198D02*
X37295Y-30598D01*
X37295Y-30198D02*
X36895Y-30598D01*
X37295Y-30398D02*
G75*
G03X37295Y-30398I-200J0D01*
G74*
G01*
X36895Y-47998D02*
X37295Y-48398D01*
X37295Y-47998D02*
X36895Y-48398D01*
X37295Y-48198D02*
G75*
G03X37295Y-48198I-200J0D01*
G74*
G01*
X44169Y-30198D02*
X44569Y-30598D01*
X44569Y-30198D02*
X44169Y-30598D01*
X44569Y-30398D02*
G75*
G03X44569Y-30398I-200J0D01*
G74*
G01*
X44169Y-47998D02*
X44569Y-48398D01*
X44569Y-47998D02*
X44169Y-48398D01*
X44569Y-48198D02*
G75*
G03X44569Y-48198I-200J0D01*
G74*
G01*
X32857Y-29973D02*
X34107Y-31223D01*
X34107Y-29973D02*
X32857Y-31223D01*
X33482Y-29973D02*
X33482Y-31223D01*
X32857Y-30598D02*
X34107Y-30598D01*
X32857Y-48973D02*
X34107Y-50223D01*
X34107Y-48973D02*
X32857Y-50223D01*
X33482Y-48973D02*
X33482Y-50223D01*
X32857Y-49598D02*
X34107Y-49598D01*
X64357Y-29973D02*
X65607Y-31223D01*
X65607Y-29973D02*
X64357Y-31223D01*
X64982Y-29973D02*
X64982Y-31223D01*
X64357Y-30598D02*
X65607Y-30598D01*
X64357Y-48973D02*
X65607Y-50223D01*
X65607Y-48973D02*
X64357Y-50223D01*
X64982Y-48973D02*
X64982Y-50223D01*
X64357Y-49598D02*
X65607Y-49598D01*
G54D13*
X30530Y-55415D02*
X30530Y-54234D01*
X30811Y-54234D01*
X30980Y-54290D01*
X31092Y-54403D01*
X31148Y-54515D01*
X31205Y-54740D01*
X31205Y-54909D01*
X31148Y-55134D01*
X31092Y-55247D01*
X30980Y-55359D01*
X30811Y-55415D01*
X30530Y-55415D01*
X31711Y-55415D02*
X31711Y-54628D01*
X31711Y-54853D02*
X31767Y-54740D01*
X31823Y-54684D01*
X31936Y-54628D01*
X32048Y-54628D01*
X32442Y-55415D02*
X32442Y-54628D01*
X32442Y-54234D02*
X32386Y-54290D01*
X32442Y-54347D01*
X32498Y-54290D01*
X32442Y-54234D01*
X32442Y-54347D01*
X33173Y-55415D02*
X33061Y-55359D01*
X33004Y-55247D01*
X33004Y-54234D01*
X33792Y-55415D02*
X33679Y-55359D01*
X33623Y-55247D01*
X33623Y-54234D01*
X35142Y-55415D02*
X35142Y-54234D01*
X35535Y-55078D01*
X35929Y-54234D01*
X35929Y-55415D01*
X36998Y-55415D02*
X36998Y-54797D01*
X36941Y-54684D01*
X36829Y-54628D01*
X36604Y-54628D01*
X36491Y-54684D01*
X36998Y-55359D02*
X36885Y-55415D01*
X36604Y-55415D01*
X36491Y-55359D01*
X36435Y-55247D01*
X36435Y-55134D01*
X36491Y-55022D01*
X36604Y-54965D01*
X36885Y-54965D01*
X36998Y-54909D01*
X37560Y-54628D02*
X37560Y-55809D01*
X37560Y-54684D02*
X37672Y-54628D01*
X37897Y-54628D01*
X38010Y-54684D01*
X38066Y-54740D01*
X38122Y-54853D01*
X38122Y-55190D01*
X38066Y-55303D01*
X38010Y-55359D01*
X37897Y-55415D01*
X37672Y-55415D01*
X37560Y-55359D01*
X38629Y-55303D02*
X38685Y-55359D01*
X38629Y-55415D01*
X38572Y-55359D01*
X38629Y-55303D01*
X38629Y-55415D01*
X38629Y-54684D02*
X38685Y-54740D01*
X38629Y-54797D01*
X38572Y-54740D01*
X38629Y-54684D01*
X38629Y-54797D01*
X29384Y-57379D02*
X29461Y-57456D01*
X29461Y-57379D02*
X29384Y-57456D01*
X30755Y-56714D02*
X30867Y-56714D01*
X30980Y-56771D01*
X31036Y-56827D01*
X31092Y-56939D01*
X31148Y-57164D01*
X31148Y-57446D01*
X31092Y-57671D01*
X31036Y-57783D01*
X30980Y-57839D01*
X30867Y-57896D01*
X30755Y-57896D01*
X30642Y-57839D01*
X30586Y-57783D01*
X30530Y-57671D01*
X30473Y-57446D01*
X30473Y-57164D01*
X30530Y-56939D01*
X30586Y-56827D01*
X30642Y-56771D01*
X30755Y-56714D01*
X31654Y-57783D02*
X31711Y-57839D01*
X31654Y-57896D01*
X31598Y-57839D01*
X31654Y-57783D01*
X31654Y-57896D01*
X32161Y-56827D02*
X32217Y-56771D01*
X32329Y-56714D01*
X32611Y-56714D01*
X32723Y-56771D01*
X32779Y-56827D01*
X32836Y-56939D01*
X32836Y-57052D01*
X32779Y-57221D01*
X32104Y-57896D01*
X32836Y-57896D01*
X33567Y-56714D02*
X33679Y-56714D01*
X33792Y-56771D01*
X33848Y-56827D01*
X33904Y-56939D01*
X33960Y-57164D01*
X33960Y-57446D01*
X33904Y-57671D01*
X33848Y-57783D01*
X33792Y-57839D01*
X33679Y-57896D01*
X33567Y-57896D01*
X33454Y-57839D01*
X33398Y-57783D01*
X33342Y-57671D01*
X33286Y-57446D01*
X33286Y-57164D01*
X33342Y-56939D01*
X33398Y-56827D01*
X33454Y-56771D01*
X33567Y-56714D01*
X34467Y-57896D02*
X34467Y-57108D01*
X34467Y-57221D02*
X34523Y-57164D01*
X34635Y-57108D01*
X34804Y-57108D01*
X34917Y-57164D01*
X34973Y-57277D01*
X34973Y-57896D01*
X34973Y-57277D02*
X35029Y-57164D01*
X35142Y-57108D01*
X35310Y-57108D01*
X35423Y-57164D01*
X35479Y-57277D01*
X35479Y-57896D01*
X36041Y-57896D02*
X36041Y-57108D01*
X36041Y-57221D02*
X36098Y-57164D01*
X36210Y-57108D01*
X36379Y-57108D01*
X36491Y-57164D01*
X36548Y-57277D01*
X36548Y-57896D01*
X36548Y-57277D02*
X36604Y-57164D01*
X36716Y-57108D01*
X36885Y-57108D01*
X36998Y-57164D01*
X37054Y-57277D01*
X37054Y-57896D01*
X39360Y-56658D02*
X38347Y-58177D01*
X40878Y-56714D02*
X40991Y-56714D01*
X41103Y-56771D01*
X41160Y-56827D01*
X41216Y-56939D01*
X41272Y-57164D01*
X41272Y-57446D01*
X41216Y-57671D01*
X41160Y-57783D01*
X41103Y-57839D01*
X40991Y-57896D01*
X40878Y-57896D01*
X40766Y-57839D01*
X40710Y-57783D01*
X40653Y-57671D01*
X40597Y-57446D01*
X40597Y-57164D01*
X40653Y-56939D01*
X40710Y-56827D01*
X40766Y-56771D01*
X40878Y-56714D01*
X41778Y-57783D02*
X41834Y-57839D01*
X41778Y-57896D01*
X41722Y-57839D01*
X41778Y-57783D01*
X41778Y-57896D01*
X42566Y-56714D02*
X42678Y-56714D01*
X42791Y-56771D01*
X42847Y-56827D01*
X42903Y-56939D01*
X42959Y-57164D01*
X42959Y-57446D01*
X42903Y-57671D01*
X42847Y-57783D01*
X42791Y-57839D01*
X42678Y-57896D01*
X42566Y-57896D01*
X42453Y-57839D01*
X42397Y-57783D01*
X42341Y-57671D01*
X42284Y-57446D01*
X42284Y-57164D01*
X42341Y-56939D01*
X42397Y-56827D01*
X42453Y-56771D01*
X42566Y-56714D01*
X43690Y-56714D02*
X43803Y-56714D01*
X43915Y-56771D01*
X43972Y-56827D01*
X44028Y-56939D01*
X44084Y-57164D01*
X44084Y-57446D01*
X44028Y-57671D01*
X43972Y-57783D01*
X43915Y-57839D01*
X43803Y-57896D01*
X43690Y-57896D01*
X43578Y-57839D01*
X43522Y-57783D01*
X43465Y-57671D01*
X43409Y-57446D01*
X43409Y-57164D01*
X43465Y-56939D01*
X43522Y-56827D01*
X43578Y-56771D01*
X43690Y-56714D01*
X44759Y-57221D02*
X44647Y-57164D01*
X44590Y-57108D01*
X44534Y-56996D01*
X44534Y-56939D01*
X44590Y-56827D01*
X44647Y-56771D01*
X44759Y-56714D01*
X44984Y-56714D01*
X45097Y-56771D01*
X45153Y-56827D01*
X45209Y-56939D01*
X45209Y-56996D01*
X45153Y-57108D01*
X45097Y-57164D01*
X44984Y-57221D01*
X44759Y-57221D01*
X44647Y-57277D01*
X44590Y-57333D01*
X44534Y-57446D01*
X44534Y-57671D01*
X44590Y-57783D01*
X44647Y-57839D01*
X44759Y-57896D01*
X44984Y-57896D01*
X45097Y-57839D01*
X45153Y-57783D01*
X45209Y-57671D01*
X45209Y-57446D01*
X45153Y-57333D01*
X45097Y-57277D01*
X44984Y-57221D01*
X45659Y-56714D02*
X45659Y-56939D01*
X46109Y-56714D02*
X46109Y-56939D01*
X47852Y-58346D02*
X47796Y-58289D01*
X47684Y-58121D01*
X47627Y-58008D01*
X47571Y-57839D01*
X47515Y-57558D01*
X47515Y-57333D01*
X47571Y-57052D01*
X47627Y-56883D01*
X47684Y-56771D01*
X47796Y-56602D01*
X47852Y-56546D01*
X48190Y-56714D02*
X48977Y-56714D01*
X48471Y-57896D01*
X49483Y-57896D02*
X49708Y-57896D01*
X49821Y-57839D01*
X49877Y-57783D01*
X49990Y-57614D01*
X50046Y-57389D01*
X50046Y-56939D01*
X49990Y-56827D01*
X49933Y-56771D01*
X49821Y-56714D01*
X49596Y-56714D01*
X49483Y-56771D01*
X49427Y-56827D01*
X49371Y-56939D01*
X49371Y-57221D01*
X49427Y-57333D01*
X49483Y-57389D01*
X49596Y-57446D01*
X49821Y-57446D01*
X49933Y-57389D01*
X49990Y-57333D01*
X50046Y-57221D01*
X51171Y-57896D02*
X50496Y-57896D01*
X50833Y-57896D02*
X50833Y-56714D01*
X50721Y-56883D01*
X50608Y-56996D01*
X50496Y-57052D01*
X52577Y-57896D02*
X52577Y-56714D01*
X53083Y-57896D02*
X53083Y-57277D01*
X53027Y-57164D01*
X52914Y-57108D01*
X52746Y-57108D01*
X52633Y-57164D01*
X52577Y-57221D01*
X53814Y-57896D02*
X53702Y-57839D01*
X53645Y-57783D01*
X53589Y-57671D01*
X53589Y-57333D01*
X53645Y-57221D01*
X53702Y-57164D01*
X53814Y-57108D01*
X53983Y-57108D01*
X54095Y-57164D01*
X54152Y-57221D01*
X54208Y-57333D01*
X54208Y-57671D01*
X54152Y-57783D01*
X54095Y-57839D01*
X53983Y-57896D01*
X53814Y-57896D01*
X54883Y-57896D02*
X54770Y-57839D01*
X54714Y-57727D01*
X54714Y-56714D01*
X55783Y-57839D02*
X55670Y-57896D01*
X55445Y-57896D01*
X55333Y-57839D01*
X55277Y-57727D01*
X55277Y-57277D01*
X55333Y-57164D01*
X55445Y-57108D01*
X55670Y-57108D01*
X55783Y-57164D01*
X55839Y-57277D01*
X55839Y-57389D01*
X55277Y-57502D01*
X56289Y-57839D02*
X56401Y-57896D01*
X56626Y-57896D01*
X56739Y-57839D01*
X56795Y-57727D01*
X56795Y-57671D01*
X56739Y-57558D01*
X56626Y-57502D01*
X56458Y-57502D01*
X56345Y-57446D01*
X56289Y-57333D01*
X56289Y-57277D01*
X56345Y-57164D01*
X56458Y-57108D01*
X56626Y-57108D01*
X56739Y-57164D01*
X57189Y-58346D02*
X57245Y-58289D01*
X57358Y-58121D01*
X57414Y-58008D01*
X57470Y-57839D01*
X57526Y-57558D01*
X57526Y-57333D01*
X57470Y-57052D01*
X57414Y-56883D01*
X57358Y-56771D01*
X57245Y-56602D01*
X57189Y-56546D01*
G54D12*
X29461Y-58977D02*
G75*
G03X29461Y-58977I-39J0D01*
G74*
G01*
G54D13*
X30755Y-58274D02*
X30867Y-58274D01*
X30980Y-58330D01*
X31036Y-58386D01*
X31092Y-58499D01*
X31148Y-58723D01*
X31148Y-59005D01*
X31092Y-59230D01*
X31036Y-59342D01*
X30980Y-59398D01*
X30867Y-59455D01*
X30755Y-59455D01*
X30642Y-59398D01*
X30586Y-59342D01*
X30530Y-59230D01*
X30473Y-59005D01*
X30473Y-58723D01*
X30530Y-58499D01*
X30586Y-58386D01*
X30642Y-58330D01*
X30755Y-58274D01*
X31654Y-59342D02*
X31711Y-59398D01*
X31654Y-59455D01*
X31598Y-59398D01*
X31654Y-59342D01*
X31654Y-59455D01*
X32161Y-58386D02*
X32217Y-58330D01*
X32329Y-58274D01*
X32611Y-58274D01*
X32723Y-58330D01*
X32779Y-58386D01*
X32836Y-58499D01*
X32836Y-58611D01*
X32779Y-58780D01*
X32104Y-59455D01*
X32836Y-59455D01*
X33567Y-58274D02*
X33679Y-58274D01*
X33792Y-58330D01*
X33848Y-58386D01*
X33904Y-58499D01*
X33960Y-58723D01*
X33960Y-59005D01*
X33904Y-59230D01*
X33848Y-59342D01*
X33792Y-59398D01*
X33679Y-59455D01*
X33567Y-59455D01*
X33454Y-59398D01*
X33398Y-59342D01*
X33342Y-59230D01*
X33286Y-59005D01*
X33286Y-58723D01*
X33342Y-58499D01*
X33398Y-58386D01*
X33454Y-58330D01*
X33567Y-58274D01*
X34467Y-59455D02*
X34467Y-58667D01*
X34467Y-58780D02*
X34523Y-58723D01*
X34635Y-58667D01*
X34804Y-58667D01*
X34917Y-58723D01*
X34973Y-58836D01*
X34973Y-59455D01*
X34973Y-58836D02*
X35029Y-58723D01*
X35142Y-58667D01*
X35310Y-58667D01*
X35423Y-58723D01*
X35479Y-58836D01*
X35479Y-59455D01*
X36041Y-59455D02*
X36041Y-58667D01*
X36041Y-58780D02*
X36098Y-58723D01*
X36210Y-58667D01*
X36379Y-58667D01*
X36491Y-58723D01*
X36548Y-58836D01*
X36548Y-59455D01*
X36548Y-58836D02*
X36604Y-58723D01*
X36716Y-58667D01*
X36885Y-58667D01*
X36998Y-58723D01*
X37054Y-58836D01*
X37054Y-59455D01*
X39360Y-58217D02*
X38347Y-59736D01*
X40878Y-58274D02*
X40991Y-58274D01*
X41103Y-58330D01*
X41160Y-58386D01*
X41216Y-58499D01*
X41272Y-58723D01*
X41272Y-59005D01*
X41216Y-59230D01*
X41160Y-59342D01*
X41103Y-59398D01*
X40991Y-59455D01*
X40878Y-59455D01*
X40766Y-59398D01*
X40710Y-59342D01*
X40653Y-59230D01*
X40597Y-59005D01*
X40597Y-58723D01*
X40653Y-58499D01*
X40710Y-58386D01*
X40766Y-58330D01*
X40878Y-58274D01*
X41778Y-59342D02*
X41834Y-59398D01*
X41778Y-59455D01*
X41722Y-59398D01*
X41778Y-59342D01*
X41778Y-59455D01*
X42566Y-58274D02*
X42678Y-58274D01*
X42791Y-58330D01*
X42847Y-58386D01*
X42903Y-58499D01*
X42959Y-58723D01*
X42959Y-59005D01*
X42903Y-59230D01*
X42847Y-59342D01*
X42791Y-59398D01*
X42678Y-59455D01*
X42566Y-59455D01*
X42453Y-59398D01*
X42397Y-59342D01*
X42341Y-59230D01*
X42284Y-59005D01*
X42284Y-58723D01*
X42341Y-58499D01*
X42397Y-58386D01*
X42453Y-58330D01*
X42566Y-58274D01*
X43690Y-58274D02*
X43803Y-58274D01*
X43915Y-58330D01*
X43972Y-58386D01*
X44028Y-58499D01*
X44084Y-58723D01*
X44084Y-59005D01*
X44028Y-59230D01*
X43972Y-59342D01*
X43915Y-59398D01*
X43803Y-59455D01*
X43690Y-59455D01*
X43578Y-59398D01*
X43522Y-59342D01*
X43465Y-59230D01*
X43409Y-59005D01*
X43409Y-58723D01*
X43465Y-58499D01*
X43522Y-58386D01*
X43578Y-58330D01*
X43690Y-58274D01*
X44759Y-58780D02*
X44647Y-58723D01*
X44590Y-58667D01*
X44534Y-58555D01*
X44534Y-58499D01*
X44590Y-58386D01*
X44647Y-58330D01*
X44759Y-58274D01*
X44984Y-58274D01*
X45097Y-58330D01*
X45153Y-58386D01*
X45209Y-58499D01*
X45209Y-58555D01*
X45153Y-58667D01*
X45097Y-58723D01*
X44984Y-58780D01*
X44759Y-58780D01*
X44647Y-58836D01*
X44590Y-58892D01*
X44534Y-59005D01*
X44534Y-59230D01*
X44590Y-59342D01*
X44647Y-59398D01*
X44759Y-59455D01*
X44984Y-59455D01*
X45097Y-59398D01*
X45153Y-59342D01*
X45209Y-59230D01*
X45209Y-59005D01*
X45153Y-58892D01*
X45097Y-58836D01*
X44984Y-58780D01*
X45659Y-58274D02*
X45659Y-58499D01*
X46109Y-58274D02*
X46109Y-58499D01*
X47852Y-59905D02*
X47796Y-59848D01*
X47684Y-59680D01*
X47627Y-59567D01*
X47571Y-59398D01*
X47515Y-59117D01*
X47515Y-58892D01*
X47571Y-58611D01*
X47627Y-58442D01*
X47684Y-58330D01*
X47796Y-58161D01*
X47852Y-58105D01*
X48190Y-58274D02*
X48977Y-58274D01*
X48471Y-59455D01*
X50327Y-59455D02*
X50327Y-58274D01*
X50833Y-59455D02*
X50833Y-58836D01*
X50777Y-58723D01*
X50665Y-58667D01*
X50496Y-58667D01*
X50383Y-58723D01*
X50327Y-58780D01*
X51564Y-59455D02*
X51452Y-59398D01*
X51396Y-59342D01*
X51340Y-59230D01*
X51340Y-58892D01*
X51396Y-58780D01*
X51452Y-58723D01*
X51564Y-58667D01*
X51733Y-58667D01*
X51846Y-58723D01*
X51902Y-58780D01*
X51958Y-58892D01*
X51958Y-59230D01*
X51902Y-59342D01*
X51846Y-59398D01*
X51733Y-59455D01*
X51564Y-59455D01*
X52633Y-59455D02*
X52521Y-59398D01*
X52464Y-59286D01*
X52464Y-58274D01*
X53533Y-59398D02*
X53421Y-59455D01*
X53196Y-59455D01*
X53083Y-59398D01*
X53027Y-59286D01*
X53027Y-58836D01*
X53083Y-58723D01*
X53196Y-58667D01*
X53421Y-58667D01*
X53533Y-58723D01*
X53589Y-58836D01*
X53589Y-58948D01*
X53027Y-59061D01*
X54039Y-59398D02*
X54152Y-59455D01*
X54377Y-59455D01*
X54489Y-59398D01*
X54545Y-59286D01*
X54545Y-59230D01*
X54489Y-59117D01*
X54377Y-59061D01*
X54208Y-59061D01*
X54095Y-59005D01*
X54039Y-58892D01*
X54039Y-58836D01*
X54095Y-58723D01*
X54208Y-58667D01*
X54377Y-58667D01*
X54489Y-58723D01*
X54939Y-59905D02*
X54995Y-59848D01*
X55108Y-59680D01*
X55164Y-59567D01*
X55220Y-59398D01*
X55277Y-59117D01*
X55277Y-58892D01*
X55220Y-58611D01*
X55164Y-58442D01*
X55108Y-58330D01*
X54995Y-58161D01*
X54939Y-58105D01*
X29421Y-60496D02*
X29421Y-60575D01*
X29382Y-60536D02*
X29461Y-60536D01*
X30755Y-59833D02*
X30867Y-59833D01*
X30980Y-59889D01*
X31036Y-59945D01*
X31092Y-60058D01*
X31148Y-60283D01*
X31148Y-60564D01*
X31092Y-60789D01*
X31036Y-60901D01*
X30980Y-60957D01*
X30867Y-61014D01*
X30755Y-61014D01*
X30642Y-60957D01*
X30586Y-60901D01*
X30530Y-60789D01*
X30473Y-60564D01*
X30473Y-60283D01*
X30530Y-60058D01*
X30586Y-59945D01*
X30642Y-59889D01*
X30755Y-59833D01*
X31654Y-60901D02*
X31711Y-60957D01*
X31654Y-61014D01*
X31598Y-60957D01*
X31654Y-60901D01*
X31654Y-61014D01*
X32161Y-59945D02*
X32217Y-59889D01*
X32329Y-59833D01*
X32611Y-59833D01*
X32723Y-59889D01*
X32779Y-59945D01*
X32836Y-60058D01*
X32836Y-60170D01*
X32779Y-60339D01*
X32104Y-61014D01*
X32836Y-61014D01*
X33567Y-59833D02*
X33679Y-59833D01*
X33792Y-59889D01*
X33848Y-59945D01*
X33904Y-60058D01*
X33960Y-60283D01*
X33960Y-60564D01*
X33904Y-60789D01*
X33848Y-60901D01*
X33792Y-60957D01*
X33679Y-61014D01*
X33567Y-61014D01*
X33454Y-60957D01*
X33398Y-60901D01*
X33342Y-60789D01*
X33286Y-60564D01*
X33286Y-60283D01*
X33342Y-60058D01*
X33398Y-59945D01*
X33454Y-59889D01*
X33567Y-59833D01*
X34467Y-61014D02*
X34467Y-60226D01*
X34467Y-60339D02*
X34523Y-60283D01*
X34635Y-60226D01*
X34804Y-60226D01*
X34917Y-60283D01*
X34973Y-60395D01*
X34973Y-61014D01*
X34973Y-60395D02*
X35029Y-60283D01*
X35142Y-60226D01*
X35310Y-60226D01*
X35423Y-60283D01*
X35479Y-60395D01*
X35479Y-61014D01*
X36041Y-61014D02*
X36041Y-60226D01*
X36041Y-60339D02*
X36098Y-60283D01*
X36210Y-60226D01*
X36379Y-60226D01*
X36491Y-60283D01*
X36548Y-60395D01*
X36548Y-61014D01*
X36548Y-60395D02*
X36604Y-60283D01*
X36716Y-60226D01*
X36885Y-60226D01*
X36998Y-60283D01*
X37054Y-60395D01*
X37054Y-61014D01*
X39360Y-59776D02*
X38347Y-61295D01*
X40878Y-59833D02*
X40991Y-59833D01*
X41103Y-59889D01*
X41160Y-59945D01*
X41216Y-60058D01*
X41272Y-60283D01*
X41272Y-60564D01*
X41216Y-60789D01*
X41160Y-60901D01*
X41103Y-60957D01*
X40991Y-61014D01*
X40878Y-61014D01*
X40766Y-60957D01*
X40710Y-60901D01*
X40653Y-60789D01*
X40597Y-60564D01*
X40597Y-60283D01*
X40653Y-60058D01*
X40710Y-59945D01*
X40766Y-59889D01*
X40878Y-59833D01*
X41778Y-60901D02*
X41834Y-60957D01*
X41778Y-61014D01*
X41722Y-60957D01*
X41778Y-60901D01*
X41778Y-61014D01*
X42566Y-59833D02*
X42678Y-59833D01*
X42791Y-59889D01*
X42847Y-59945D01*
X42903Y-60058D01*
X42959Y-60283D01*
X42959Y-60564D01*
X42903Y-60789D01*
X42847Y-60901D01*
X42791Y-60957D01*
X42678Y-61014D01*
X42566Y-61014D01*
X42453Y-60957D01*
X42397Y-60901D01*
X42341Y-60789D01*
X42284Y-60564D01*
X42284Y-60283D01*
X42341Y-60058D01*
X42397Y-59945D01*
X42453Y-59889D01*
X42566Y-59833D01*
X43690Y-59833D02*
X43803Y-59833D01*
X43915Y-59889D01*
X43972Y-59945D01*
X44028Y-60058D01*
X44084Y-60283D01*
X44084Y-60564D01*
X44028Y-60789D01*
X43972Y-60901D01*
X43915Y-60957D01*
X43803Y-61014D01*
X43690Y-61014D01*
X43578Y-60957D01*
X43522Y-60901D01*
X43465Y-60789D01*
X43409Y-60564D01*
X43409Y-60283D01*
X43465Y-60058D01*
X43522Y-59945D01*
X43578Y-59889D01*
X43690Y-59833D01*
X44759Y-60339D02*
X44647Y-60283D01*
X44590Y-60226D01*
X44534Y-60114D01*
X44534Y-60058D01*
X44590Y-59945D01*
X44647Y-59889D01*
X44759Y-59833D01*
X44984Y-59833D01*
X45097Y-59889D01*
X45153Y-59945D01*
X45209Y-60058D01*
X45209Y-60114D01*
X45153Y-60226D01*
X45097Y-60283D01*
X44984Y-60339D01*
X44759Y-60339D01*
X44647Y-60395D01*
X44590Y-60451D01*
X44534Y-60564D01*
X44534Y-60789D01*
X44590Y-60901D01*
X44647Y-60957D01*
X44759Y-61014D01*
X44984Y-61014D01*
X45097Y-60957D01*
X45153Y-60901D01*
X45209Y-60789D01*
X45209Y-60564D01*
X45153Y-60451D01*
X45097Y-60395D01*
X44984Y-60339D01*
X45659Y-59833D02*
X45659Y-60058D01*
X46109Y-59833D02*
X46109Y-60058D01*
X47852Y-61464D02*
X47796Y-61407D01*
X47684Y-61239D01*
X47627Y-61126D01*
X47571Y-60957D01*
X47515Y-60676D01*
X47515Y-60451D01*
X47571Y-60170D01*
X47627Y-60001D01*
X47684Y-59889D01*
X47796Y-59720D01*
X47852Y-59664D01*
X48190Y-59833D02*
X48921Y-59833D01*
X48527Y-60283D01*
X48696Y-60283D01*
X48809Y-60339D01*
X48865Y-60395D01*
X48921Y-60508D01*
X48921Y-60789D01*
X48865Y-60901D01*
X48809Y-60957D01*
X48696Y-61014D01*
X48359Y-61014D01*
X48246Y-60957D01*
X48190Y-60901D01*
X49315Y-59833D02*
X50102Y-59833D01*
X49596Y-61014D01*
X51452Y-61014D02*
X51452Y-59833D01*
X51958Y-61014D02*
X51958Y-60395D01*
X51902Y-60283D01*
X51789Y-60226D01*
X51621Y-60226D01*
X51508Y-60283D01*
X51452Y-60339D01*
X52689Y-61014D02*
X52577Y-60957D01*
X52521Y-60901D01*
X52464Y-60789D01*
X52464Y-60451D01*
X52521Y-60339D01*
X52577Y-60283D01*
X52689Y-60226D01*
X52858Y-60226D01*
X52971Y-60283D01*
X53027Y-60339D01*
X53083Y-60451D01*
X53083Y-60789D01*
X53027Y-60901D01*
X52971Y-60957D01*
X52858Y-61014D01*
X52689Y-61014D01*
X53758Y-61014D02*
X53645Y-60957D01*
X53589Y-60845D01*
X53589Y-59833D01*
X54658Y-60957D02*
X54545Y-61014D01*
X54320Y-61014D01*
X54208Y-60957D01*
X54152Y-60845D01*
X54152Y-60395D01*
X54208Y-60283D01*
X54320Y-60226D01*
X54545Y-60226D01*
X54658Y-60283D01*
X54714Y-60395D01*
X54714Y-60508D01*
X54152Y-60620D01*
X55164Y-60957D02*
X55277Y-61014D01*
X55501Y-61014D01*
X55614Y-60957D01*
X55670Y-60845D01*
X55670Y-60789D01*
X55614Y-60676D01*
X55501Y-60620D01*
X55333Y-60620D01*
X55220Y-60564D01*
X55164Y-60451D01*
X55164Y-60395D01*
X55220Y-60283D01*
X55333Y-60226D01*
X55501Y-60226D01*
X55614Y-60283D01*
X56064Y-61464D02*
X56120Y-61407D01*
X56233Y-61239D01*
X56289Y-61126D01*
X56345Y-60957D01*
X56401Y-60676D01*
X56401Y-60451D01*
X56345Y-60170D01*
X56289Y-60001D01*
X56233Y-59889D01*
X56120Y-59720D01*
X56064Y-59664D01*
G54D12*
X29444Y-62136D02*
X29444Y-62053D01*
X29361Y-62053D01*
X29361Y-62136D01*
X29444Y-62136D01*
G54D13*
X30755Y-61392D02*
X30867Y-61392D01*
X30980Y-61448D01*
X31036Y-61504D01*
X31092Y-61617D01*
X31148Y-61842D01*
X31148Y-62123D01*
X31092Y-62348D01*
X31036Y-62460D01*
X30980Y-62517D01*
X30867Y-62573D01*
X30755Y-62573D01*
X30642Y-62517D01*
X30586Y-62460D01*
X30530Y-62348D01*
X30473Y-62123D01*
X30473Y-61842D01*
X30530Y-61617D01*
X30586Y-61504D01*
X30642Y-61448D01*
X30755Y-61392D01*
X31654Y-62460D02*
X31711Y-62517D01*
X31654Y-62573D01*
X31598Y-62517D01*
X31654Y-62460D01*
X31654Y-62573D01*
X32104Y-61392D02*
X32836Y-61392D01*
X32442Y-61842D01*
X32611Y-61842D01*
X32723Y-61898D01*
X32779Y-61954D01*
X32836Y-62067D01*
X32836Y-62348D01*
X32779Y-62460D01*
X32723Y-62517D01*
X32611Y-62573D01*
X32273Y-62573D01*
X32161Y-62517D01*
X32104Y-62460D01*
X33567Y-61392D02*
X33679Y-61392D01*
X33792Y-61448D01*
X33848Y-61504D01*
X33904Y-61617D01*
X33960Y-61842D01*
X33960Y-62123D01*
X33904Y-62348D01*
X33848Y-62460D01*
X33792Y-62517D01*
X33679Y-62573D01*
X33567Y-62573D01*
X33454Y-62517D01*
X33398Y-62460D01*
X33342Y-62348D01*
X33286Y-62123D01*
X33286Y-61842D01*
X33342Y-61617D01*
X33398Y-61504D01*
X33454Y-61448D01*
X33567Y-61392D01*
X34467Y-62573D02*
X34467Y-61785D01*
X34467Y-61898D02*
X34523Y-61842D01*
X34635Y-61785D01*
X34804Y-61785D01*
X34917Y-61842D01*
X34973Y-61954D01*
X34973Y-62573D01*
X34973Y-61954D02*
X35029Y-61842D01*
X35142Y-61785D01*
X35310Y-61785D01*
X35423Y-61842D01*
X35479Y-61954D01*
X35479Y-62573D01*
X36041Y-62573D02*
X36041Y-61785D01*
X36041Y-61898D02*
X36098Y-61842D01*
X36210Y-61785D01*
X36379Y-61785D01*
X36491Y-61842D01*
X36548Y-61954D01*
X36548Y-62573D01*
X36548Y-61954D02*
X36604Y-61842D01*
X36716Y-61785D01*
X36885Y-61785D01*
X36998Y-61842D01*
X37054Y-61954D01*
X37054Y-62573D01*
X39360Y-61335D02*
X38347Y-62854D01*
X40878Y-61392D02*
X40991Y-61392D01*
X41103Y-61448D01*
X41160Y-61504D01*
X41216Y-61617D01*
X41272Y-61842D01*
X41272Y-62123D01*
X41216Y-62348D01*
X41160Y-62460D01*
X41103Y-62517D01*
X40991Y-62573D01*
X40878Y-62573D01*
X40766Y-62517D01*
X40710Y-62460D01*
X40653Y-62348D01*
X40597Y-62123D01*
X40597Y-61842D01*
X40653Y-61617D01*
X40710Y-61504D01*
X40766Y-61448D01*
X40878Y-61392D01*
X41778Y-62460D02*
X41834Y-62517D01*
X41778Y-62573D01*
X41722Y-62517D01*
X41778Y-62460D01*
X41778Y-62573D01*
X42566Y-61392D02*
X42678Y-61392D01*
X42791Y-61448D01*
X42847Y-61504D01*
X42903Y-61617D01*
X42959Y-61842D01*
X42959Y-62123D01*
X42903Y-62348D01*
X42847Y-62460D01*
X42791Y-62517D01*
X42678Y-62573D01*
X42566Y-62573D01*
X42453Y-62517D01*
X42397Y-62460D01*
X42341Y-62348D01*
X42284Y-62123D01*
X42284Y-61842D01*
X42341Y-61617D01*
X42397Y-61504D01*
X42453Y-61448D01*
X42566Y-61392D01*
X44084Y-62573D02*
X43409Y-62573D01*
X43747Y-62573D02*
X43747Y-61392D01*
X43634Y-61560D01*
X43522Y-61673D01*
X43409Y-61729D01*
X44534Y-61504D02*
X44590Y-61448D01*
X44703Y-61392D01*
X44984Y-61392D01*
X45097Y-61448D01*
X45153Y-61504D01*
X45209Y-61617D01*
X45209Y-61729D01*
X45153Y-61898D01*
X44478Y-62573D01*
X45209Y-62573D01*
X45659Y-61392D02*
X45659Y-61617D01*
X46109Y-61392D02*
X46109Y-61617D01*
X47852Y-63023D02*
X47796Y-62966D01*
X47684Y-62798D01*
X47627Y-62685D01*
X47571Y-62517D01*
X47515Y-62235D01*
X47515Y-62010D01*
X47571Y-61729D01*
X47627Y-61560D01*
X47684Y-61448D01*
X47796Y-61279D01*
X47852Y-61223D01*
X48809Y-61785D02*
X48809Y-62573D01*
X48527Y-61335D02*
X48246Y-62179D01*
X48977Y-62179D01*
X49483Y-62573D02*
X49708Y-62573D01*
X49821Y-62517D01*
X49877Y-62460D01*
X49990Y-62292D01*
X50046Y-62067D01*
X50046Y-61617D01*
X49990Y-61504D01*
X49933Y-61448D01*
X49821Y-61392D01*
X49596Y-61392D01*
X49483Y-61448D01*
X49427Y-61504D01*
X49371Y-61617D01*
X49371Y-61898D01*
X49427Y-62010D01*
X49483Y-62067D01*
X49596Y-62123D01*
X49821Y-62123D01*
X49933Y-62067D01*
X49990Y-62010D01*
X50046Y-61898D01*
X51452Y-62573D02*
X51452Y-61392D01*
X51958Y-62573D02*
X51958Y-61954D01*
X51902Y-61842D01*
X51789Y-61785D01*
X51621Y-61785D01*
X51508Y-61842D01*
X51452Y-61898D01*
X52689Y-62573D02*
X52577Y-62517D01*
X52521Y-62460D01*
X52464Y-62348D01*
X52464Y-62010D01*
X52521Y-61898D01*
X52577Y-61842D01*
X52689Y-61785D01*
X52858Y-61785D01*
X52971Y-61842D01*
X53027Y-61898D01*
X53083Y-62010D01*
X53083Y-62348D01*
X53027Y-62460D01*
X52971Y-62517D01*
X52858Y-62573D01*
X52689Y-62573D01*
X53758Y-62573D02*
X53645Y-62517D01*
X53589Y-62404D01*
X53589Y-61392D01*
X54658Y-62517D02*
X54545Y-62573D01*
X54320Y-62573D01*
X54208Y-62517D01*
X54152Y-62404D01*
X54152Y-61954D01*
X54208Y-61842D01*
X54320Y-61785D01*
X54545Y-61785D01*
X54658Y-61842D01*
X54714Y-61954D01*
X54714Y-62067D01*
X54152Y-62179D01*
X55164Y-62517D02*
X55277Y-62573D01*
X55501Y-62573D01*
X55614Y-62517D01*
X55670Y-62404D01*
X55670Y-62348D01*
X55614Y-62235D01*
X55501Y-62179D01*
X55333Y-62179D01*
X55220Y-62123D01*
X55164Y-62010D01*
X55164Y-61954D01*
X55220Y-61842D01*
X55333Y-61785D01*
X55501Y-61785D01*
X55614Y-61842D01*
X56064Y-63023D02*
X56120Y-62966D01*
X56233Y-62798D01*
X56289Y-62685D01*
X56345Y-62517D01*
X56401Y-62235D01*
X56401Y-62010D01*
X56345Y-61729D01*
X56289Y-61560D01*
X56233Y-61448D01*
X56120Y-61279D01*
X56064Y-61223D01*
G54D12*
X29284Y-63831D02*
X29461Y-63654D01*
X29284Y-63477D01*
X29107Y-63654D01*
X29284Y-63831D01*
G54D13*
X30755Y-62951D02*
X30867Y-62951D01*
X30980Y-63007D01*
X31036Y-63063D01*
X31092Y-63176D01*
X31148Y-63401D01*
X31148Y-63682D01*
X31092Y-63907D01*
X31036Y-64019D01*
X30980Y-64076D01*
X30867Y-64132D01*
X30755Y-64132D01*
X30642Y-64076D01*
X30586Y-64019D01*
X30530Y-63907D01*
X30473Y-63682D01*
X30473Y-63401D01*
X30530Y-63176D01*
X30586Y-63063D01*
X30642Y-63007D01*
X30755Y-62951D01*
X31654Y-64019D02*
X31711Y-64076D01*
X31654Y-64132D01*
X31598Y-64076D01*
X31654Y-64019D01*
X31654Y-64132D01*
X32273Y-64132D02*
X32498Y-64132D01*
X32611Y-64076D01*
X32667Y-64019D01*
X32779Y-63851D01*
X32836Y-63626D01*
X32836Y-63176D01*
X32779Y-63063D01*
X32723Y-63007D01*
X32611Y-62951D01*
X32386Y-62951D01*
X32273Y-63007D01*
X32217Y-63063D01*
X32161Y-63176D01*
X32161Y-63457D01*
X32217Y-63569D01*
X32273Y-63626D01*
X32386Y-63682D01*
X32611Y-63682D01*
X32723Y-63626D01*
X32779Y-63569D01*
X32836Y-63457D01*
X33567Y-62951D02*
X33679Y-62951D01*
X33792Y-63007D01*
X33848Y-63063D01*
X33904Y-63176D01*
X33960Y-63401D01*
X33960Y-63682D01*
X33904Y-63907D01*
X33848Y-64019D01*
X33792Y-64076D01*
X33679Y-64132D01*
X33567Y-64132D01*
X33454Y-64076D01*
X33398Y-64019D01*
X33342Y-63907D01*
X33286Y-63682D01*
X33286Y-63401D01*
X33342Y-63176D01*
X33398Y-63063D01*
X33454Y-63007D01*
X33567Y-62951D01*
X34467Y-64132D02*
X34467Y-63344D01*
X34467Y-63457D02*
X34523Y-63401D01*
X34635Y-63344D01*
X34804Y-63344D01*
X34917Y-63401D01*
X34973Y-63513D01*
X34973Y-64132D01*
X34973Y-63513D02*
X35029Y-63401D01*
X35142Y-63344D01*
X35310Y-63344D01*
X35423Y-63401D01*
X35479Y-63513D01*
X35479Y-64132D01*
X36041Y-64132D02*
X36041Y-63344D01*
X36041Y-63457D02*
X36098Y-63401D01*
X36210Y-63344D01*
X36379Y-63344D01*
X36491Y-63401D01*
X36548Y-63513D01*
X36548Y-64132D01*
X36548Y-63513D02*
X36604Y-63401D01*
X36716Y-63344D01*
X36885Y-63344D01*
X36998Y-63401D01*
X37054Y-63513D01*
X37054Y-64132D01*
X39360Y-62894D02*
X38347Y-64413D01*
X40878Y-62951D02*
X40991Y-62951D01*
X41103Y-63007D01*
X41160Y-63063D01*
X41216Y-63176D01*
X41272Y-63401D01*
X41272Y-63682D01*
X41216Y-63907D01*
X41160Y-64019D01*
X41103Y-64076D01*
X40991Y-64132D01*
X40878Y-64132D01*
X40766Y-64076D01*
X40710Y-64019D01*
X40653Y-63907D01*
X40597Y-63682D01*
X40597Y-63401D01*
X40653Y-63176D01*
X40710Y-63063D01*
X40766Y-63007D01*
X40878Y-62951D01*
X41778Y-64019D02*
X41834Y-64076D01*
X41778Y-64132D01*
X41722Y-64076D01*
X41778Y-64019D01*
X41778Y-64132D01*
X42566Y-62951D02*
X42678Y-62951D01*
X42791Y-63007D01*
X42847Y-63063D01*
X42903Y-63176D01*
X42959Y-63401D01*
X42959Y-63682D01*
X42903Y-63907D01*
X42847Y-64019D01*
X42791Y-64076D01*
X42678Y-64132D01*
X42566Y-64132D01*
X42453Y-64076D01*
X42397Y-64019D01*
X42341Y-63907D01*
X42284Y-63682D01*
X42284Y-63401D01*
X42341Y-63176D01*
X42397Y-63063D01*
X42453Y-63007D01*
X42566Y-62951D01*
X43353Y-62951D02*
X44084Y-62951D01*
X43690Y-63401D01*
X43859Y-63401D01*
X43972Y-63457D01*
X44028Y-63513D01*
X44084Y-63626D01*
X44084Y-63907D01*
X44028Y-64019D01*
X43972Y-64076D01*
X43859Y-64132D01*
X43522Y-64132D01*
X43409Y-64076D01*
X43353Y-64019D01*
X45153Y-62951D02*
X44590Y-62951D01*
X44534Y-63513D01*
X44590Y-63457D01*
X44703Y-63401D01*
X44984Y-63401D01*
X45097Y-63457D01*
X45153Y-63513D01*
X45209Y-63626D01*
X45209Y-63907D01*
X45153Y-64019D01*
X45097Y-64076D01*
X44984Y-64132D01*
X44703Y-64132D01*
X44590Y-64076D01*
X44534Y-64019D01*
X45659Y-62951D02*
X45659Y-63176D01*
X46109Y-62951D02*
X46109Y-63176D01*
X47852Y-64582D02*
X47796Y-64526D01*
X47684Y-64357D01*
X47627Y-64244D01*
X47571Y-64076D01*
X47515Y-63794D01*
X47515Y-63569D01*
X47571Y-63288D01*
X47627Y-63119D01*
X47684Y-63007D01*
X47796Y-62838D01*
X47852Y-62782D01*
X48809Y-63344D02*
X48809Y-64132D01*
X48527Y-62894D02*
X48246Y-63738D01*
X48977Y-63738D01*
X49933Y-63344D02*
X49933Y-64132D01*
X49652Y-62894D02*
X49371Y-63738D01*
X50102Y-63738D01*
X51452Y-64132D02*
X51452Y-62951D01*
X51958Y-64132D02*
X51958Y-63513D01*
X51902Y-63401D01*
X51789Y-63344D01*
X51621Y-63344D01*
X51508Y-63401D01*
X51452Y-63457D01*
X52689Y-64132D02*
X52577Y-64076D01*
X52521Y-64019D01*
X52464Y-63907D01*
X52464Y-63569D01*
X52521Y-63457D01*
X52577Y-63401D01*
X52689Y-63344D01*
X52858Y-63344D01*
X52971Y-63401D01*
X53027Y-63457D01*
X53083Y-63569D01*
X53083Y-63907D01*
X53027Y-64019D01*
X52971Y-64076D01*
X52858Y-64132D01*
X52689Y-64132D01*
X53758Y-64132D02*
X53645Y-64076D01*
X53589Y-63963D01*
X53589Y-62951D01*
X54658Y-64076D02*
X54545Y-64132D01*
X54320Y-64132D01*
X54208Y-64076D01*
X54152Y-63963D01*
X54152Y-63513D01*
X54208Y-63401D01*
X54320Y-63344D01*
X54545Y-63344D01*
X54658Y-63401D01*
X54714Y-63513D01*
X54714Y-63626D01*
X54152Y-63738D01*
X55164Y-64076D02*
X55277Y-64132D01*
X55501Y-64132D01*
X55614Y-64076D01*
X55670Y-63963D01*
X55670Y-63907D01*
X55614Y-63794D01*
X55501Y-63738D01*
X55333Y-63738D01*
X55220Y-63682D01*
X55164Y-63569D01*
X55164Y-63513D01*
X55220Y-63401D01*
X55333Y-63344D01*
X55501Y-63344D01*
X55614Y-63401D01*
X56064Y-64582D02*
X56120Y-64526D01*
X56233Y-64357D01*
X56289Y-64244D01*
X56345Y-64076D01*
X56401Y-63794D01*
X56401Y-63569D01*
X56345Y-63288D01*
X56289Y-63119D01*
X56233Y-63007D01*
X56120Y-62838D01*
X56064Y-62782D01*
X29061Y-65013D02*
X29461Y-65413D01*
X29461Y-65013D02*
X29061Y-65413D01*
G54D12*
X29461Y-65213D02*
G75*
G03X29461Y-65213I-200J0D01*
G74*
G01*
G54D13*
X31148Y-65691D02*
X30473Y-65691D01*
X30811Y-65691D02*
X30811Y-64510D01*
X30698Y-64678D01*
X30586Y-64791D01*
X30473Y-64847D01*
X31654Y-65578D02*
X31711Y-65635D01*
X31654Y-65691D01*
X31598Y-65635D01*
X31654Y-65578D01*
X31654Y-65691D01*
X32442Y-64510D02*
X32554Y-64510D01*
X32667Y-64566D01*
X32723Y-64622D01*
X32779Y-64735D01*
X32836Y-64960D01*
X32836Y-65241D01*
X32779Y-65466D01*
X32723Y-65578D01*
X32667Y-65635D01*
X32554Y-65691D01*
X32442Y-65691D01*
X32329Y-65635D01*
X32273Y-65578D01*
X32217Y-65466D01*
X32161Y-65241D01*
X32161Y-64960D01*
X32217Y-64735D01*
X32273Y-64622D01*
X32329Y-64566D01*
X32442Y-64510D01*
X33286Y-64622D02*
X33342Y-64566D01*
X33454Y-64510D01*
X33735Y-64510D01*
X33848Y-64566D01*
X33904Y-64622D01*
X33960Y-64735D01*
X33960Y-64847D01*
X33904Y-65016D01*
X33229Y-65691D01*
X33960Y-65691D01*
X34467Y-65691D02*
X34467Y-64903D01*
X34467Y-65016D02*
X34523Y-64960D01*
X34635Y-64903D01*
X34804Y-64903D01*
X34917Y-64960D01*
X34973Y-65072D01*
X34973Y-65691D01*
X34973Y-65072D02*
X35029Y-64960D01*
X35142Y-64903D01*
X35310Y-64903D01*
X35423Y-64960D01*
X35479Y-65072D01*
X35479Y-65691D01*
X36041Y-65691D02*
X36041Y-64903D01*
X36041Y-65016D02*
X36098Y-64960D01*
X36210Y-64903D01*
X36379Y-64903D01*
X36491Y-64960D01*
X36548Y-65072D01*
X36548Y-65691D01*
X36548Y-65072D02*
X36604Y-64960D01*
X36716Y-64903D01*
X36885Y-64903D01*
X36998Y-64960D01*
X37054Y-65072D01*
X37054Y-65691D01*
X39360Y-64454D02*
X38347Y-65972D01*
X40878Y-64510D02*
X40991Y-64510D01*
X41103Y-64566D01*
X41160Y-64622D01*
X41216Y-64735D01*
X41272Y-64960D01*
X41272Y-65241D01*
X41216Y-65466D01*
X41160Y-65578D01*
X41103Y-65635D01*
X40991Y-65691D01*
X40878Y-65691D01*
X40766Y-65635D01*
X40710Y-65578D01*
X40653Y-65466D01*
X40597Y-65241D01*
X40597Y-64960D01*
X40653Y-64735D01*
X40710Y-64622D01*
X40766Y-64566D01*
X40878Y-64510D01*
X41778Y-65578D02*
X41834Y-65635D01*
X41778Y-65691D01*
X41722Y-65635D01*
X41778Y-65578D01*
X41778Y-65691D01*
X42566Y-64510D02*
X42678Y-64510D01*
X42791Y-64566D01*
X42847Y-64622D01*
X42903Y-64735D01*
X42959Y-64960D01*
X42959Y-65241D01*
X42903Y-65466D01*
X42847Y-65578D01*
X42791Y-65635D01*
X42678Y-65691D01*
X42566Y-65691D01*
X42453Y-65635D01*
X42397Y-65578D01*
X42341Y-65466D01*
X42284Y-65241D01*
X42284Y-64960D01*
X42341Y-64735D01*
X42397Y-64622D01*
X42453Y-64566D01*
X42566Y-64510D01*
X43972Y-64903D02*
X43972Y-65691D01*
X43690Y-64454D02*
X43409Y-65297D01*
X44140Y-65297D01*
X44815Y-64510D02*
X44928Y-64510D01*
X45040Y-64566D01*
X45097Y-64622D01*
X45153Y-64735D01*
X45209Y-64960D01*
X45209Y-65241D01*
X45153Y-65466D01*
X45097Y-65578D01*
X45040Y-65635D01*
X44928Y-65691D01*
X44815Y-65691D01*
X44703Y-65635D01*
X44647Y-65578D01*
X44590Y-65466D01*
X44534Y-65241D01*
X44534Y-64960D01*
X44590Y-64735D01*
X44647Y-64622D01*
X44703Y-64566D01*
X44815Y-64510D01*
X45659Y-64510D02*
X45659Y-64735D01*
X46109Y-64510D02*
X46109Y-64735D01*
X47852Y-66141D02*
X47796Y-66085D01*
X47684Y-65916D01*
X47627Y-65803D01*
X47571Y-65635D01*
X47515Y-65353D01*
X47515Y-65128D01*
X47571Y-64847D01*
X47627Y-64678D01*
X47684Y-64566D01*
X47796Y-64397D01*
X47852Y-64341D01*
X48809Y-64903D02*
X48809Y-65691D01*
X48527Y-64454D02*
X48246Y-65297D01*
X48977Y-65297D01*
X50327Y-65691D02*
X50327Y-64510D01*
X50833Y-65691D02*
X50833Y-65072D01*
X50777Y-64960D01*
X50665Y-64903D01*
X50496Y-64903D01*
X50383Y-64960D01*
X50327Y-65016D01*
X51564Y-65691D02*
X51452Y-65635D01*
X51396Y-65578D01*
X51340Y-65466D01*
X51340Y-65128D01*
X51396Y-65016D01*
X51452Y-64960D01*
X51564Y-64903D01*
X51733Y-64903D01*
X51846Y-64960D01*
X51902Y-65016D01*
X51958Y-65128D01*
X51958Y-65466D01*
X51902Y-65578D01*
X51846Y-65635D01*
X51733Y-65691D01*
X51564Y-65691D01*
X52633Y-65691D02*
X52521Y-65635D01*
X52464Y-65522D01*
X52464Y-64510D01*
X53533Y-65635D02*
X53421Y-65691D01*
X53196Y-65691D01*
X53083Y-65635D01*
X53027Y-65522D01*
X53027Y-65072D01*
X53083Y-64960D01*
X53196Y-64903D01*
X53421Y-64903D01*
X53533Y-64960D01*
X53589Y-65072D01*
X53589Y-65185D01*
X53027Y-65297D01*
X54039Y-65635D02*
X54152Y-65691D01*
X54377Y-65691D01*
X54489Y-65635D01*
X54545Y-65522D01*
X54545Y-65466D01*
X54489Y-65353D01*
X54377Y-65297D01*
X54208Y-65297D01*
X54095Y-65241D01*
X54039Y-65128D01*
X54039Y-65072D01*
X54095Y-64960D01*
X54208Y-64903D01*
X54377Y-64903D01*
X54489Y-64960D01*
X54939Y-66141D02*
X54995Y-66085D01*
X55108Y-65916D01*
X55164Y-65803D01*
X55220Y-65635D01*
X55277Y-65353D01*
X55277Y-65128D01*
X55220Y-64847D01*
X55164Y-64678D01*
X55108Y-64566D01*
X54995Y-64397D01*
X54939Y-64341D01*
X28211Y-66147D02*
X29461Y-67397D01*
X29461Y-66147D02*
X28211Y-67397D01*
X28836Y-66147D02*
X28836Y-67397D01*
X28211Y-66772D02*
X29461Y-66772D01*
X30417Y-66069D02*
X31148Y-66069D01*
X30755Y-66519D01*
X30923Y-66519D01*
X31036Y-66575D01*
X31092Y-66631D01*
X31148Y-66744D01*
X31148Y-67025D01*
X31092Y-67137D01*
X31036Y-67194D01*
X30923Y-67250D01*
X30586Y-67250D01*
X30473Y-67194D01*
X30417Y-67137D01*
X31654Y-67137D02*
X31711Y-67194D01*
X31654Y-67250D01*
X31598Y-67194D01*
X31654Y-67137D01*
X31654Y-67250D01*
X32836Y-67250D02*
X32161Y-67250D01*
X32498Y-67250D02*
X32498Y-66069D01*
X32386Y-66238D01*
X32273Y-66350D01*
X32161Y-66406D01*
X33229Y-66069D02*
X34017Y-66069D01*
X33510Y-67250D01*
X34467Y-67250D02*
X34467Y-66463D01*
X34467Y-66575D02*
X34523Y-66519D01*
X34635Y-66463D01*
X34804Y-66463D01*
X34917Y-66519D01*
X34973Y-66631D01*
X34973Y-67250D01*
X34973Y-66631D02*
X35029Y-66519D01*
X35142Y-66463D01*
X35310Y-66463D01*
X35423Y-66519D01*
X35479Y-66631D01*
X35479Y-67250D01*
X36041Y-67250D02*
X36041Y-66463D01*
X36041Y-66575D02*
X36098Y-66519D01*
X36210Y-66463D01*
X36379Y-66463D01*
X36491Y-66519D01*
X36548Y-66631D01*
X36548Y-67250D01*
X36548Y-66631D02*
X36604Y-66519D01*
X36716Y-66463D01*
X36885Y-66463D01*
X36998Y-66519D01*
X37054Y-66631D01*
X37054Y-67250D01*
X39360Y-66013D02*
X38347Y-67531D01*
X40878Y-66069D02*
X40991Y-66069D01*
X41103Y-66125D01*
X41160Y-66181D01*
X41216Y-66294D01*
X41272Y-66519D01*
X41272Y-66800D01*
X41216Y-67025D01*
X41160Y-67137D01*
X41103Y-67194D01*
X40991Y-67250D01*
X40878Y-67250D01*
X40766Y-67194D01*
X40710Y-67137D01*
X40653Y-67025D01*
X40597Y-66800D01*
X40597Y-66519D01*
X40653Y-66294D01*
X40710Y-66181D01*
X40766Y-66125D01*
X40878Y-66069D01*
X41778Y-67137D02*
X41834Y-67194D01*
X41778Y-67250D01*
X41722Y-67194D01*
X41778Y-67137D01*
X41778Y-67250D01*
X42959Y-67250D02*
X42284Y-67250D01*
X42622Y-67250D02*
X42622Y-66069D01*
X42509Y-66238D01*
X42397Y-66350D01*
X42284Y-66406D01*
X43409Y-66181D02*
X43465Y-66125D01*
X43578Y-66069D01*
X43859Y-66069D01*
X43972Y-66125D01*
X44028Y-66181D01*
X44084Y-66294D01*
X44084Y-66406D01*
X44028Y-66575D01*
X43353Y-67250D01*
X44084Y-67250D01*
X45153Y-66069D02*
X44590Y-66069D01*
X44534Y-66631D01*
X44590Y-66575D01*
X44703Y-66519D01*
X44984Y-66519D01*
X45097Y-66575D01*
X45153Y-66631D01*
X45209Y-66744D01*
X45209Y-67025D01*
X45153Y-67137D01*
X45097Y-67194D01*
X44984Y-67250D01*
X44703Y-67250D01*
X44590Y-67194D01*
X44534Y-67137D01*
X45659Y-66069D02*
X45659Y-66294D01*
X46109Y-66069D02*
X46109Y-66294D01*
X47852Y-67700D02*
X47796Y-67644D01*
X47684Y-67475D01*
X47627Y-67362D01*
X47571Y-67194D01*
X47515Y-66912D01*
X47515Y-66687D01*
X47571Y-66406D01*
X47627Y-66238D01*
X47684Y-66125D01*
X47796Y-65956D01*
X47852Y-65900D01*
X48809Y-66463D02*
X48809Y-67250D01*
X48527Y-66013D02*
X48246Y-66856D01*
X48977Y-66856D01*
X50327Y-67250D02*
X50327Y-66069D01*
X50833Y-67250D02*
X50833Y-66631D01*
X50777Y-66519D01*
X50665Y-66463D01*
X50496Y-66463D01*
X50383Y-66519D01*
X50327Y-66575D01*
X51564Y-67250D02*
X51452Y-67194D01*
X51396Y-67137D01*
X51340Y-67025D01*
X51340Y-66687D01*
X51396Y-66575D01*
X51452Y-66519D01*
X51564Y-66463D01*
X51733Y-66463D01*
X51846Y-66519D01*
X51902Y-66575D01*
X51958Y-66687D01*
X51958Y-67025D01*
X51902Y-67137D01*
X51846Y-67194D01*
X51733Y-67250D01*
X51564Y-67250D01*
X52633Y-67250D02*
X52521Y-67194D01*
X52464Y-67081D01*
X52464Y-66069D01*
X53533Y-67194D02*
X53421Y-67250D01*
X53196Y-67250D01*
X53083Y-67194D01*
X53027Y-67081D01*
X53027Y-66631D01*
X53083Y-66519D01*
X53196Y-66463D01*
X53421Y-66463D01*
X53533Y-66519D01*
X53589Y-66631D01*
X53589Y-66744D01*
X53027Y-66856D01*
X54039Y-67194D02*
X54152Y-67250D01*
X54377Y-67250D01*
X54489Y-67194D01*
X54545Y-67081D01*
X54545Y-67025D01*
X54489Y-66912D01*
X54377Y-66856D01*
X54208Y-66856D01*
X54095Y-66800D01*
X54039Y-66687D01*
X54039Y-66631D01*
X54095Y-66519D01*
X54208Y-66463D01*
X54377Y-66463D01*
X54489Y-66519D01*
X54939Y-67700D02*
X54995Y-67644D01*
X55108Y-67475D01*
X55164Y-67362D01*
X55220Y-67194D01*
X55277Y-66912D01*
X55277Y-66687D01*
X55220Y-66406D01*
X55164Y-66238D01*
X55108Y-66125D01*
X54995Y-65956D01*
X54939Y-65900D01*
M02*
