*
*
G04 PADS 9.5 Build Number: 522968 generated Gerber (RS-274-X) file*
G04 PC Version=2.1*
*
%IN "parallella-rf.pcb"*%
*
%MOIN*%
*
%FSLAX35Y35*%
*
*
*
*
G04 PC Standard Apertures*
*
*
G04 Thermal Relief Aperture macro.*
%AMTER*
1,1,$1,0,0*
1,0,$1-$2,0,0*
21,0,$3,$4,0,0,45*
21,0,$3,$4,0,0,135*
%
*
*
G04 Annular Aperture macro.*
%AMANN*
1,1,$1,0,0*
1,0,$2,0,0*
%
*
*
G04 Odd Aperture macro.*
%AMODD*
1,1,$1,0,0*
1,0,$1-0.005,0,0*
%
*
*
G04 PC Custom Aperture Macros*
*
*
*
*
*
*
G04 PC Aperture Table*
*
%ADD011C,0.01*%
%ADD013C,0.006*%
%ADD014C,0.007*%
%ADD050C,0.055*%
%ADD091C,0.001*%
%ADD099R,0.075X0.075*%
%ADD100C,0.075*%
%ADD233R,0.105X0.105*%
%ADD234R,0.04437X0.04831*%
%ADD235R,0.04831X0.04437*%
%ADD342R,0.068X0.05*%
%ADD351R,0.1X0.205*%
%ADD353R,0.205X0.1*%
%ADD356R,0.0365X0.04043*%
%ADD357R,0.04043X0.0365*%
%ADD358R,0.043X0.035*%
%ADD359R,0.03X0.025*%
%ADD360R,0.255X0.255*%
%ADD366R,0.044X0.04*%
%ADD367R,0.037X0.019*%
%ADD368R,0.019X0.037*%
%ADD369R,0.017X0.047*%
%ADD370R,0.035X0.043*%
%ADD371R,0.068X0.229*%
%ADD372R,0.021X0.066*%
*
*
*
*
G04 PC Circuitry*
G04 Layer Name parallella-rf.pcb - circuitry*
%LPD*%
*
*
G04 PC Custom Flashes*
G04 Layer Name parallella-rf.pcb - flashes*
%LPD*%
*
*
G04 PC Circuitry*
G04 Layer Name parallella-rf.pcb - circuitry*
%LPD*%
*
G54D11*
G01X2265031Y1200912D02*
X2267894Y1195006D01*
Y1200912D02*
X2265031Y1195006D01*
X2269735Y1200912D02*
X2272599Y1195006D01*
Y1200912D02*
X2269735Y1195006D01*
X2274440Y1200912D02*
X2277303Y1195006D01*
Y1200912D02*
X2274440Y1195006D01*
X2279144Y1200912D02*
X2282008Y1195006D01*
Y1200912D02*
X2279144Y1195006D01*
X2283849Y1200912D02*
X2286713Y1195006D01*
Y1200912D02*
X2283849Y1195006D01*
X2288553Y1200912D02*
X2291417Y1195006D01*
Y1200912D02*
X2288553Y1195006D01*
X2293258Y1200912D02*
X2296122Y1195006D01*
Y1200912D02*
X2293258Y1195006D01*
X2298372Y1195287D02*
X2298167Y1195006D01*
X2297963Y1195287*
X2298167Y1195568*
X2298372Y1195287*
Y1194724*
X2298167Y1194162*
X2297963Y1193881*
X2304917Y1200912D02*
Y1195006D01*
Y1200912D02*
X2306758D01*
X2307372Y1200631*
X2307576Y1200349*
X2307781Y1199787*
Y1199224*
X2307576Y1198662*
X2307372Y1198381*
X2306758Y1198099*
X2304917*
X2306349D02*
X2307781Y1195006D01*
X2309622Y1197256D02*
X2312076D01*
Y1197818*
X2311872Y1198381*
X2311667Y1198662*
X2311258Y1198943*
X2310644*
X2310235Y1198662*
X2309826Y1198099*
X2309622Y1197256*
Y1196693*
X2309826Y1195849*
X2310235Y1195287*
X2310644Y1195006*
X2311258*
X2311667Y1195287*
X2312076Y1195849*
X2313917Y1198943D02*
X2315144Y1195006D01*
X2316372Y1198943D02*
X2315144Y1195006D01*
X2318417Y1195568D02*
X2318213Y1195287D01*
X2318417Y1195006*
X2318622Y1195287*
X2318417Y1195568*
X2326190Y1199224D02*
Y1195849D01*
X2325167Y1198381D02*
X2327213Y1196693D01*
Y1198381D02*
X2325167Y1196693D01*
X2222554Y1249581D02*
X2220281Y1241378D01*
X2222554Y1249581D02*
X2224827Y1241378D01*
X2221134Y1244112D02*
X2223975D01*
X2230793Y1249581D02*
Y1241378D01*
Y1245675D02*
X2230225Y1246456D01*
X2229656Y1246847*
X2228804*
X2228236Y1246456*
X2227668Y1245675*
X2227384Y1244503*
Y1243722*
X2227668Y1242550*
X2228236Y1241769*
X2228804Y1241378*
X2229656*
X2230225Y1241769*
X2230793Y1242550*
X2236759Y1246847D02*
Y1241378D01*
Y1245675D02*
X2236190Y1246456D01*
X2236190D02*
X2235622Y1246847D01*
X2234770*
X2234202Y1246456*
X2233634Y1245675*
X2233350Y1244503*
Y1243722*
X2233634Y1242550*
X2234202Y1241769*
X2234770Y1241378*
X2235622*
X2236190Y1241769*
X2236190D02*
X2236759Y1242550D01*
X2239315Y1246847D02*
Y1238644D01*
Y1245675D02*
X2239884Y1246456D01*
X2240452Y1246847*
X2241304*
X2241872Y1246456*
X2242440Y1245675*
X2242440D02*
X2242725Y1244503D01*
Y1243722*
X2242440Y1242550*
X2242440D02*
X2241872Y1241769D01*
X2241304Y1241378*
X2240452*
X2239884Y1241769*
X2239315Y1242550*
X2246134Y1249581D02*
Y1242940D01*
X2246418Y1241769*
X2246986Y1241378*
X2247554*
X2245281Y1246847D02*
X2247270D01*
X2250111Y1244503D02*
X2253520D01*
Y1245284*
X2253236Y1246065*
X2252952Y1246456*
X2252384Y1246847*
X2251531*
X2250963Y1246456*
X2250395Y1245675*
X2250111Y1244503*
Y1243722*
X2250395Y1242550*
X2250963Y1241769*
X2251531Y1241378*
X2252384*
X2252952Y1241769*
X2253520Y1242550*
X2256077Y1246847D02*
X2257781Y1241378D01*
X2259486Y1246847D02*
X2257781Y1241378D01*
X2265452Y1246847D02*
Y1241378D01*
Y1245675D02*
X2264884Y1246456D01*
X2264315Y1246847*
X2264315D02*
X2263463D01*
X2262895Y1246456*
X2262327Y1245675*
X2262043Y1244503*
Y1243722*
X2262327Y1242550*
X2262895Y1241769*
X2263463Y1241378*
X2264315*
X2264315D02*
X2264884Y1241769D01*
X2265452Y1242550*
X2268577Y1241769D02*
X2268293Y1241378D01*
X2268009Y1241769*
X2268293Y1242159*
X2268577Y1241769*
Y1240987*
X2268293Y1240206*
X2268009Y1239815*
X2277668Y1249581D02*
Y1241378D01*
X2280225Y1246847D02*
Y1241378D01*
Y1245284D02*
X2281077Y1246456D01*
X2281645Y1246847*
X2282497*
X2283065Y1246456*
X2283065D02*
X2283350Y1245284D01*
Y1241378*
X2289315Y1245675D02*
X2288747Y1246456D01*
X2288179Y1246847*
X2287327*
X2286759Y1246456*
X2286190Y1245675*
X2286190D02*
X2285906Y1244503D01*
Y1243722*
X2286190Y1242550*
X2286190D02*
X2286759Y1241769D01*
X2287327Y1241378*
X2288179*
X2288747Y1241769*
X2289315Y1242550*
X2292156Y1242159D02*
X2291872Y1241769D01*
X2292156Y1241378*
X2292440Y1241769*
X2292440D02*
X2292156Y1242159D01*
X2123463Y1251532D02*
X2380963D01*
Y1181532*
X2123463*
Y1251532*
X2240963Y1191532D02*
Y1204032D01*
X2175963Y1181532D02*
Y1191532D01*
X2325963Y1181532D02*
Y1191532D01*
X2123463Y1229032D02*
X2380963D01*
X2123463Y1216532D02*
X2380963D01*
X2123463Y1204032D02*
X2380963D01*
X2123463Y1191532D02*
X2380963D01*
G54D13*
X2363486Y1188954D02*
X2363145Y1188720D01*
X2362804Y1188251*
X2362633Y1187782*
X2362463Y1187079*
Y1185907*
X2362633Y1185204*
X2362804Y1184735*
X2363145Y1184267*
X2363486Y1184032*
X2364167*
X2364508Y1184267*
X2364849Y1184735*
X2365020Y1185204*
X2365190Y1185907*
Y1187079*
X2365020Y1187782*
X2364849Y1188251*
X2364508Y1188720*
X2364167Y1188954*
X2363486*
X2366724D02*
Y1184032D01*
Y1188954D02*
X2368940D01*
X2366724Y1186610D02*
X2368088D01*
X2371939Y1187864D02*
X2372280Y1188099D01*
X2372792Y1188802*
Y1183880*
X2375349Y1188802D02*
X2374837Y1188567D01*
X2374496Y1187864*
X2374326Y1186692*
Y1185989*
X2374496Y1184817*
X2374837Y1184114*
X2375349Y1183880*
X2375689*
X2376201Y1184114*
X2376542Y1184817*
X2376712Y1185989*
Y1186692*
X2376542Y1187864*
X2376201Y1188567*
X2375689Y1188802*
X2375349*
X2264372Y1189044D02*
Y1184778D01*
Y1189044D02*
X2265702D01*
X2266145Y1188841*
X2266293Y1188637*
X2266440Y1188231*
Y1187622*
X2266293Y1187216*
X2266145Y1187012*
X2265702Y1186809*
X2264372*
X2268952Y1189044D02*
X2267770Y1184778D01*
X2268952Y1189044D02*
X2270134Y1184778D01*
X2268213Y1186200D02*
X2269690D01*
X2271463Y1189044D02*
Y1184778D01*
Y1189044D02*
X2272793D01*
X2273236Y1188841*
X2273384Y1188637*
X2273531Y1188231*
Y1187825*
X2273384Y1187419*
X2273236Y1187216*
X2272793Y1187012*
X2271463*
X2272497D02*
X2273531Y1184778D01*
X2276043Y1189044D02*
X2274861Y1184778D01*
X2276043Y1189044D02*
X2277224Y1184778D01*
X2275304Y1186200D02*
X2276781D01*
X2278554Y1189044D02*
Y1184778D01*
X2280327*
X2281656Y1189044D02*
Y1184778D01*
X2283429*
X2284759Y1189044D02*
Y1184778D01*
Y1189044D02*
X2286679D01*
X2284759Y1187012D02*
X2285940D01*
X2284759Y1184778D02*
X2286679D01*
X2288009Y1189044D02*
Y1184778D01*
X2289781*
X2291111Y1189044D02*
Y1184778D01*
X2292884*
X2295395Y1189044D02*
X2294213Y1184778D01*
X2295395Y1189044D02*
X2296577Y1184778D01*
X2294656Y1186200D02*
X2296134D01*
X2297906Y1186606D02*
X2300565D01*
X2301895Y1189044D02*
Y1184778D01*
Y1189044D02*
X2303224D01*
X2303668Y1188841*
X2303815Y1188637*
X2303963Y1188231*
Y1187825*
X2303815Y1187419*
X2303668Y1187216*
X2303224Y1187012*
X2301895*
X2302929D02*
X2303963Y1184778D01*
X2305293Y1189044D02*
Y1184778D01*
Y1189044D02*
X2307213D01*
X2305293Y1187012D02*
X2306474D01*
X2308690Y1185184D02*
X2308543Y1184981D01*
X2308690Y1184778*
X2308838Y1184981*
X2308690Y1185184*
X2310168Y1189044D02*
Y1184778D01*
Y1189044D02*
X2311497D01*
X2311940Y1188841*
X2312088Y1188637*
X2312236Y1188231*
Y1187622*
X2312088Y1187216*
X2311940Y1187012*
X2311497Y1186809*
X2310168*
X2315781Y1188028D02*
X2315634Y1188434D01*
X2315338Y1188841*
X2315043Y1189044*
X2314452*
X2314156Y1188841*
X2313861Y1188434*
X2313713Y1188028*
X2313565Y1187419*
Y1186403*
X2313713Y1185794*
X2313861Y1185387*
X2314156Y1184981*
X2314452Y1184778*
X2315043*
X2315338Y1184981*
X2315634Y1185387*
X2315781Y1185794*
X2317111Y1189044D02*
Y1184778D01*
Y1189044D02*
X2318440D01*
X2318884Y1188841*
X2319031Y1188637*
X2319179Y1188231*
Y1187825*
X2319031Y1187419*
X2318884Y1187216*
X2318440Y1187012*
X2317111D02*
X2318440D01*
X2318884Y1186809*
X2319031Y1186606*
X2319179Y1186200*
Y1185591*
X2319031Y1185184*
X2318884Y1184981*
X2318440Y1184778*
X2317111*
X2128649Y1213901D02*
X2128308Y1214370D01*
X2127797Y1214604*
X2127115*
X2126604Y1214370*
X2126263Y1213901*
Y1213432*
X2126433Y1212963*
X2126604Y1212729*
X2126945Y1212495*
X2127967Y1212026*
X2128308Y1211792*
X2128479Y1211557*
X2128649Y1211088*
Y1210385*
X2128308Y1209917*
X2127797Y1209682*
X2127115*
X2126604Y1209917*
X2126263Y1210385*
X2130183Y1214604D02*
Y1209682D01*
X2132570Y1214604D02*
Y1209682D01*
X2130183Y1212260D02*
X2132570D01*
X2134104Y1214604D02*
Y1209682D01*
Y1214604D02*
X2136320D01*
X2134104Y1212260D02*
X2135467D01*
X2134104Y1209682D02*
X2136320D01*
X2137854Y1214604D02*
Y1209682D01*
Y1214604D02*
X2140070D01*
X2137854Y1212260D02*
X2139217D01*
X2137854Y1209682D02*
X2140070D01*
X2142797Y1214604D02*
Y1209682D01*
X2141604Y1214604D02*
X2143990D01*
X2150638D02*
Y1209682D01*
X2149445Y1214604D02*
X2151831D01*
X2153365D02*
Y1209682D01*
X2156092Y1214604D02*
Y1209682D01*
X2154899Y1214604D02*
X2157286D01*
X2158820D02*
Y1209682D01*
X2160865*
X2162399Y1214604D02*
Y1209682D01*
Y1214604D02*
X2164615D01*
X2162399Y1212260D02*
X2163763D01*
X2162399Y1209682D02*
X2164615D01*
X2166320Y1212963D02*
X2166149Y1212729D01*
X2166320Y1212495*
X2166490Y1212729*
X2166320Y1212963*
Y1210151D02*
X2166149Y1209917D01*
X2166320Y1209682*
X2166490Y1209917*
X2166320Y1210151*
X2170790Y1236959D02*
X2171054Y1237140D01*
X2171450Y1237684*
Y1233878*
X2174218Y1237140D02*
X2174086Y1237503D01*
X2173690Y1237684*
X2173690D02*
X2173427D01*
X2173031Y1237503*
X2172768Y1236959*
X2172636Y1236053*
Y1235147*
X2172768Y1234422*
X2173031Y1234059*
X2173427Y1233878*
X2173559*
X2173954Y1234059*
X2174218Y1234422*
X2174350Y1234965*
Y1235147*
X2174218Y1235690*
X2173954Y1236053*
X2173559Y1236234*
X2173427*
X2173031Y1236053*
X2172768Y1235690*
X2172636Y1235147*
X2177118Y1237140D02*
X2176986Y1237503D01*
X2176590Y1237684*
X2176590D02*
X2176327D01*
X2175931Y1237503*
X2175668Y1236959*
X2175536Y1236053*
Y1235147*
X2175668Y1234422*
X2175931Y1234059*
X2176327Y1233878*
X2176459*
X2176854Y1234059*
X2177118Y1234422*
X2177250Y1234965*
Y1235147*
X2177118Y1235690*
X2176854Y1236053*
X2176459Y1236234*
X2176327*
X2175931Y1236053*
X2175668Y1235690*
X2175536Y1235147*
X2180018Y1237140D02*
X2179886Y1237503D01*
X2179490Y1237684*
X2179490D02*
X2179227D01*
X2178831Y1237503*
X2178568Y1236959*
X2178436Y1236053*
Y1235147*
X2178568Y1234422*
X2178831Y1234059*
X2179227Y1233878*
X2179359*
X2179754Y1234059*
X2180018Y1234422*
X2180150Y1234965*
Y1235147*
X2180018Y1235690*
X2179754Y1236053*
X2179359Y1236234*
X2179227*
X2178831Y1236053*
X2178568Y1235690*
X2178436Y1235147*
X2184368Y1237684D02*
Y1233878D01*
Y1237684D02*
X2185422Y1233878D01*
X2186477Y1237684D02*
X2185422Y1233878D01*
X2186477Y1237684D02*
Y1233878D01*
X2189245Y1236415D02*
Y1233878D01*
Y1235872D02*
X2188981Y1236234D01*
X2188718Y1236415*
X2188322*
X2188059Y1236234*
X2187795Y1235872*
X2187663Y1235328*
Y1234965*
X2187795Y1234422*
X2188059Y1234059*
X2188322Y1233878*
X2188718*
X2188981Y1234059*
X2189245Y1234422*
X2191881Y1235872D02*
X2191750Y1236234D01*
X2191354Y1236415*
X2190959*
X2190563Y1236234*
X2190431Y1235872*
X2190563Y1235509*
X2190827Y1235328*
X2191486Y1235147*
X2191750Y1234965*
X2191881Y1234603*
Y1234422*
X2191750Y1234059*
X2191354Y1233878*
X2190959*
X2190563Y1234059*
X2190431Y1234422*
X2194518Y1235872D02*
X2194386Y1236234D01*
X2193990Y1236415*
X2193990D02*
X2193595D01*
X2193200Y1236234*
X2193068Y1235872*
X2193200Y1235509*
X2193463Y1235328*
X2194122Y1235147*
X2194386Y1234965*
X2194518Y1234603*
Y1234422*
X2194386Y1234059*
X2193990Y1233878*
X2193990D02*
X2193595D01*
X2193200Y1234059*
X2193068Y1234422*
X2197286Y1236415D02*
Y1233878D01*
Y1235872D02*
X2197022Y1236234D01*
X2196759Y1236415*
X2196363*
X2196100Y1236234*
X2195836Y1235872*
X2195704Y1235328*
Y1234965*
X2195836Y1234422*
X2196100Y1234059*
X2196363Y1233878*
X2196759*
X2197022Y1234059*
X2197286Y1234422*
X2200054Y1235872D02*
X2199790Y1236234D01*
X2199790D02*
X2199527Y1236415D01*
X2199131*
X2198868Y1236234*
X2198604Y1235872*
X2198472Y1235328*
Y1234965*
X2198604Y1234422*
X2198868Y1234059*
X2199131Y1233878*
X2199527*
X2199790Y1234059*
X2199790D02*
X2200054Y1234422D01*
X2201240Y1237684D02*
Y1233878D01*
Y1235690D02*
X2201636Y1236234D01*
X2201900Y1236415*
X2202295*
X2202559Y1236234*
X2202690Y1235690*
X2202690D02*
Y1233878D01*
X2203877Y1236415D02*
Y1234603D01*
X2204009Y1234059*
X2204272Y1233878*
X2204668*
X2204931Y1234059*
X2205327Y1234603*
Y1236415D02*
Y1233878D01*
X2207963Y1235872D02*
X2207831Y1236234D01*
X2207436Y1236415*
X2207040*
X2207040D02*
X2206645Y1236234D01*
X2206513Y1235872*
X2206645Y1235509*
X2206909Y1235328*
X2207568Y1235147*
X2207831Y1234965*
X2207963Y1234603*
Y1234422*
X2207831Y1234059*
X2207436Y1233878*
X2207040*
X2207040D02*
X2206645Y1234059D01*
X2206513Y1234422*
X2209150Y1235328D02*
X2210731D01*
Y1235690*
X2210600Y1236053*
X2210468Y1236234*
X2210204Y1236415*
X2209809*
X2209545Y1236234*
X2209281Y1235872*
X2209150Y1235328*
Y1234965*
X2209281Y1234422*
X2209545Y1234059*
X2209809Y1233878*
X2210204*
X2210468Y1234059*
X2210731Y1234422*
X2212313Y1237684D02*
Y1234603D01*
X2212445Y1234059*
X2212709Y1233878*
X2212972*
X2211918Y1236415D02*
X2212840D01*
X2214554Y1237684D02*
Y1234603D01*
X2214686Y1234059*
X2214950Y1233878*
X2215213*
X2214159Y1236415D02*
X2215081D01*
X2217850Y1235872D02*
X2217718Y1236234D01*
X2217322Y1236415*
X2216927*
X2216531Y1236234*
X2216400Y1235872*
X2216531Y1235509*
X2216795Y1235328*
X2217454Y1235147*
X2217718Y1234965*
X2217850Y1234603*
Y1234422*
X2217718Y1234059*
X2217322Y1233878*
X2216927*
X2216531Y1234059*
X2216400Y1234422*
X2223122Y1237684D02*
X2222068Y1233878D01*
X2223122Y1237684D02*
X2224177Y1233878D01*
X2222463Y1235147D02*
X2223781D01*
X2225363Y1236415D02*
X2226154Y1233878D01*
X2226945Y1236415D02*
X2226154Y1233878D01*
X2228131Y1235328D02*
X2229713D01*
Y1235690*
X2229581Y1236053*
X2229450Y1236234*
X2229186Y1236415*
X2228790*
X2228790D02*
X2228527Y1236234D01*
X2228263Y1235872*
X2228131Y1235328*
Y1234965*
X2228263Y1234422*
X2228527Y1234059*
X2228790Y1233878*
X2228790D02*
X2229186D01*
X2229450Y1234059*
X2229713Y1234422*
X2231031Y1234240D02*
X2230900Y1234059D01*
X2231031Y1233878*
X2231163Y1234059*
X2231031Y1234240*
X2232613Y1234059D02*
X2232481Y1233878D01*
X2232350Y1234059*
X2232481Y1234240*
X2232613Y1234059*
Y1233697*
X2232481Y1233334*
X2232350Y1233153*
X2236831Y1237684D02*
Y1233878D01*
X2238413*
X2239600Y1235328D02*
X2241181D01*
Y1235690*
X2241050Y1236053*
X2240918Y1236234*
X2240654Y1236415*
X2240259*
X2239995Y1236234*
X2239731Y1235872*
X2239600Y1235328*
Y1234965*
X2239731Y1234422*
X2239995Y1234059*
X2240259Y1233878*
X2240654*
X2240918Y1234059*
X2241181Y1234422*
X2242368Y1236415D02*
X2243818Y1233878D01*
Y1236415D02*
X2242368Y1233878D01*
X2245004Y1237684D02*
X2245136Y1237503D01*
X2245268Y1237684*
X2245136Y1237865*
X2245004Y1237684*
X2245136Y1236415D02*
Y1233878D01*
X2246454Y1236415D02*
Y1233878D01*
Y1235690D02*
X2246850Y1236234D01*
X2247113Y1236415*
X2247509*
X2247772Y1236234*
X2247904Y1235690*
Y1233878*
X2250672Y1236415D02*
Y1233515D01*
X2250540Y1232972*
X2250540D02*
X2250409Y1232790D01*
X2250145Y1232609*
X2249750*
X2249486Y1232790*
X2250672Y1235872D02*
X2250409Y1236234D01*
X2250145Y1236415*
X2249750*
X2249486Y1236234*
X2249222Y1235872*
X2249090Y1235328*
X2249090D02*
Y1234965D01*
X2249090D02*
X2249222Y1234422D01*
X2249486Y1234059*
X2249750Y1233878*
X2250145*
X2250409Y1234059*
X2250672Y1234422*
X2252254Y1237684D02*
Y1234603D01*
X2252386Y1234059*
X2252650Y1233878*
X2252913*
X2251859Y1236415D02*
X2252781D01*
X2254759D02*
X2254495Y1236234D01*
X2254231Y1235872*
X2254100Y1235328*
Y1234965*
X2254231Y1234422*
X2254495Y1234059*
X2254759Y1233878*
X2255154*
X2255418Y1234059*
X2255681Y1234422*
X2255813Y1234965*
Y1235328*
X2255681Y1235872*
X2255418Y1236234*
X2255154Y1236415*
X2254759*
X2257000D02*
Y1233878D01*
Y1235690D02*
X2257395Y1236234D01*
X2257659Y1236415*
X2258054*
X2258318Y1236234*
X2258450Y1235690*
Y1233878*
X2259900Y1234059D02*
X2259768Y1233878D01*
X2259636Y1234059*
X2259768Y1234240*
X2259900Y1234059*
Y1233697*
X2259768Y1233334*
X2259636Y1233153*
X2264118Y1237684D02*
Y1233878D01*
Y1237684D02*
X2265172Y1233878D01*
X2266227Y1237684D02*
X2265172Y1233878D01*
X2266227Y1237684D02*
Y1233878D01*
X2268468Y1237684D02*
X2267413Y1233878D01*
X2268468Y1237684D02*
X2269522Y1233878D01*
X2267809Y1235147D02*
X2269127D01*
X2274531Y1237684D02*
X2274136Y1237503D01*
X2273872Y1236959*
X2273740Y1236053*
X2273740D02*
Y1235509D01*
X2273740D02*
X2273872Y1234603D01*
X2274136Y1234059*
X2274531Y1233878*
X2274795*
X2275190Y1234059*
X2275190D02*
X2275454Y1234603D01*
X2275586Y1235509*
Y1236053*
X2275454Y1236959*
X2275190Y1237503*
X2275190D02*
X2274795Y1237684D01*
X2274531*
X2276904Y1236778D02*
Y1236959D01*
X2277036Y1237322*
X2277168Y1237503*
X2277431Y1237684*
X2277959*
X2278222Y1237503*
X2278354Y1237322*
X2278486Y1236959*
Y1236597*
X2278354Y1236234*
X2278090Y1235690*
X2278090D02*
X2276772Y1233878D01*
X2278618*
X2281122Y1237684D02*
X2279804Y1235147D01*
X2281781*
X2281122Y1237684D02*
Y1233878D01*
X2283100Y1236778D02*
Y1236959D01*
X2283231Y1237322*
X2283363Y1237503*
X2283627Y1237684*
X2284154*
X2284418Y1237503*
X2284550Y1237322*
X2284681Y1236959*
Y1236597*
X2284550Y1236234*
X2284286Y1235690*
X2282968Y1233878*
X2284813*
X2286790Y1237684D02*
X2286395Y1237503D01*
X2286131Y1236959*
X2286000Y1236053*
Y1235509*
X2286131Y1234603*
X2286395Y1234059*
X2286790Y1233878*
X2286790D02*
X2287054D01*
X2287450Y1234059*
X2287713Y1234603*
X2287845Y1235509*
Y1236053*
X2287713Y1236959*
X2287450Y1237503*
X2287054Y1237684*
X2286790*
X2296281Y1237140D02*
Y1233878D01*
X2295095Y1235509D02*
X2297468D01*
X2298654Y1236959D02*
X2298918Y1237140D01*
X2299313Y1237684*
Y1233878*
X2305377Y1237684D02*
X2304059Y1233878D01*
X2303531Y1237684D02*
X2305377D01*
X2307222D02*
X2306827Y1237503D01*
X2306695Y1237140*
Y1236778*
X2306827Y1236415*
X2307090Y1236234*
X2307090D02*
X2307618Y1236053D01*
X2308013Y1235872*
X2308277Y1235509*
X2308409Y1235147*
Y1234603*
X2308277Y1234240*
X2308145Y1234059*
X2307750Y1233878*
X2307222*
X2306827Y1234059*
X2306695Y1234240*
X2306563Y1234603*
Y1235147*
X2306695Y1235509*
X2306959Y1235872*
X2307354Y1236053*
X2307881Y1236234*
X2308145Y1236415*
X2308277Y1236778*
Y1237140*
X2308145Y1237503*
X2307750Y1237684*
X2307222*
X2309595Y1236959D02*
X2309859Y1237140D01*
X2310254Y1237684*
Y1233878*
X2311440Y1235509D02*
X2313813D01*
X2315263Y1237684D02*
X2316713D01*
X2315922Y1236234*
X2316318*
X2316581Y1236053*
X2316713Y1235872*
X2316845Y1235328*
Y1234965*
X2316713Y1234422*
X2316450Y1234059*
X2316054Y1233878*
X2315659*
X2315263Y1234059*
X2315131Y1234240*
X2315000Y1234603*
X2318163Y1236778D02*
Y1236959D01*
X2318295Y1237322*
X2318427Y1237503*
X2318690Y1237684*
X2318690D02*
X2319218D01*
X2319481Y1237503*
X2319613Y1237322*
X2319745Y1236959*
Y1236597*
X2319613Y1236234*
X2319350Y1235690*
X2318031Y1233878*
X2319877*
X2321722Y1237684D02*
X2321327Y1237503D01*
X2321195Y1237140*
Y1236778*
X2321327Y1236415*
X2321590Y1236234*
X2321590D02*
X2322118Y1236053D01*
X2322513Y1235872*
X2322777Y1235509*
X2322909Y1235147*
Y1234603*
X2322777Y1234240*
X2322645Y1234059*
X2322250Y1233878*
X2321722*
X2321327Y1234059*
X2321195Y1234240*
X2321063Y1234603*
Y1235147*
X2321195Y1235509*
X2321459Y1235872*
X2321854Y1236053*
X2322381Y1236234*
X2322645Y1236415*
X2322777Y1236778*
Y1237140*
X2322645Y1237503*
X2322250Y1237684*
X2321722*
X2324095Y1235509D02*
X2326468D01*
X2328445Y1237684D02*
X2328050Y1237503D01*
X2327786Y1236959*
X2327654Y1236053*
Y1235509*
X2327786Y1234603*
X2328050Y1234059*
X2328445Y1233878*
X2328709*
X2329104Y1234059*
X2329368Y1234603*
X2329500Y1235509*
Y1236053*
X2329368Y1236959*
X2329104Y1237503*
X2328709Y1237684*
X2328445*
X2332400D02*
X2331081D01*
X2330950Y1236053*
X2331081Y1236234*
X2331477Y1236415*
X2331872*
X2332268Y1236234*
X2332531Y1235872*
X2332663Y1235328*
X2332531Y1234965*
X2332400Y1234422*
X2332136Y1234059*
X2331740Y1233878*
X2331740D02*
X2331345D01*
X2330950Y1234059*
X2330818Y1234240*
X2330686Y1234603*
X2333850Y1236959D02*
X2334113Y1237140D01*
X2334509Y1237684*
Y1233878*
X2335959Y1237684D02*
X2337409D01*
X2336618Y1236234*
X2337013*
X2337277Y1236053*
X2337409Y1235872*
X2337540Y1235328*
X2337540D02*
Y1234965D01*
X2337540D02*
X2337409Y1234422D01*
X2337145Y1234059*
X2336750Y1233878*
X2336354*
X2335959Y1234059*
X2335827Y1234240*
X2335695Y1234603*
X2220463Y1201454D02*
Y1196532D01*
Y1201454D02*
X2222679D01*
X2220463Y1199110D02*
X2221827D01*
X2224213Y1201454D02*
Y1196532D01*
Y1201454D02*
X2225747D01*
X2226258Y1201220*
X2226429Y1200985*
X2226599Y1200517*
Y1200048*
X2226429Y1199579*
X2226258Y1199345*
X2225747Y1199110*
X2224213*
X2225406D02*
X2226599Y1196532D01*
X2228133Y1201454D02*
Y1196532D01*
X2230520Y1201454D02*
Y1196532D01*
X2228133Y1199110D02*
X2230520D01*
X2190463Y1201454D02*
Y1196532D01*
Y1201454D02*
X2191656D01*
X2192167Y1201220*
X2192508Y1200751*
X2192679Y1200282*
X2192849Y1199579*
Y1198407*
X2192679Y1197704*
X2192508Y1197235*
X2192167Y1196767*
X2191656Y1196532*
X2190463*
X2194383Y1201454D02*
Y1196532D01*
Y1201454D02*
X2195917D01*
X2196429Y1201220*
X2196599Y1200985*
X2196770Y1200517*
Y1200048*
X2196599Y1199579*
X2196429Y1199345*
X2195917Y1199110*
X2194383*
X2195577D02*
X2196770Y1196532D01*
X2199667Y1201454D02*
X2198304Y1196532D01*
X2199667Y1201454D02*
X2201031Y1196532D01*
X2198815Y1198173D02*
X2200520D01*
X2202565Y1201454D02*
X2203417Y1196532D01*
X2204270Y1201454D02*
X2203417Y1196532D01*
X2204270Y1201454D02*
X2205122Y1196532D01*
X2205974Y1201454D02*
X2205122Y1196532D01*
X2207508Y1201454D02*
Y1196532D01*
Y1201454D02*
X2209895Y1196532D01*
Y1201454D02*
Y1196532D01*
X2211599Y1199813D02*
X2211429Y1199579D01*
X2211599Y1199345*
X2211770Y1199579*
X2211599Y1199813*
Y1197001D02*
X2211429Y1196767D01*
X2211599Y1196532*
X2211770Y1196767*
X2211599Y1197001*
X2125463Y1201454D02*
Y1196532D01*
Y1201454D02*
X2126656D01*
X2127167Y1201220*
X2127508Y1200751*
X2127679Y1200282*
X2127849Y1199579*
Y1198407*
X2127679Y1197704*
X2127508Y1197235*
X2127167Y1196767*
X2126656Y1196532*
X2125463*
X2130747Y1201454D02*
X2129383Y1196532D01*
X2130747Y1201454D02*
X2132111Y1196532D01*
X2129895Y1198173D02*
X2131599D01*
X2134838Y1201454D02*
Y1196532D01*
X2133645Y1201454D02*
X2136031D01*
X2137565D02*
Y1196532D01*
Y1201454D02*
X2139781D01*
X2137565Y1199110D02*
X2138929D01*
X2137565Y1196532D02*
X2139781D01*
X2141486Y1199813D02*
X2141315Y1199579D01*
X2141486Y1199345*
X2141656Y1199579*
X2141486Y1199813*
Y1197001D02*
X2141315Y1196767D01*
X2141486Y1196532*
X2141656Y1196767*
X2141486Y1197001*
X2146645Y1199659D02*
X2146475Y1198956D01*
X2146134Y1198487*
X2145622Y1198253*
X2145452*
X2144940Y1198487*
X2144940D02*
X2144600Y1198956D01*
X2144429Y1199659*
Y1199894*
X2144600Y1200597*
X2144940Y1201065*
X2144940D02*
X2145452Y1201300D01*
X2145622*
X2146134Y1201065*
X2146475Y1200597*
X2146645Y1199659*
Y1198487*
X2146475Y1197315*
X2146134Y1196612*
X2145622Y1196378*
X2145281*
X2144770Y1196612*
X2144600Y1197081*
X2151247Y1202237D02*
X2148179Y1194737D01*
X2155168Y1201300D02*
X2153463Y1196378D01*
X2152781Y1201300D02*
X2155168D01*
X2159770Y1202237D02*
X2156702Y1194737D01*
X2161475Y1200128D02*
Y1200362D01*
X2161645Y1200831*
X2161815Y1201065*
X2161815D02*
X2162156Y1201300D01*
X2162838*
X2163179Y1201065*
X2163350Y1200831*
X2163520Y1200362*
Y1199894*
X2163350Y1199425*
X2163009Y1198722*
X2161304Y1196378*
X2163690*
X2166247Y1201300D02*
X2165736Y1201065D01*
X2165395Y1200362*
X2165225Y1199190*
Y1198487*
X2165395Y1197315*
X2165736Y1196612*
X2166247Y1196378*
X2166588*
X2167100Y1196612*
X2167440Y1197315*
X2167440D02*
X2167611Y1198487D01*
Y1199190*
X2167440Y1200362*
X2167440D02*
X2167100Y1201065D01*
X2166588Y1201300*
X2166247*
X2169145Y1200362D02*
X2169486Y1200597D01*
X2169997Y1201300*
Y1196378*
X2173236Y1201300D02*
X2171531Y1198019D01*
X2174088*
X2173236Y1201300D02*
Y1196378D01*
X2127456Y1227104D02*
Y1222182D01*
X2126263Y1227104D02*
X2128649D01*
X2130183D02*
Y1222182D01*
X2132911Y1227104D02*
Y1222182D01*
X2131717Y1227104D02*
X2134104D01*
X2135638D02*
Y1222182D01*
X2137683*
X2139217Y1227104D02*
Y1222182D01*
Y1227104D02*
X2141433D01*
X2139217Y1224760D02*
X2140581D01*
X2139217Y1222182D02*
X2141433D01*
X2143138Y1225463D02*
X2142967Y1225229D01*
X2143138Y1224995*
X2143308Y1225229*
X2143138Y1225463*
Y1222651D02*
X2142967Y1222417D01*
X2143138Y1222182*
X2143308Y1222417*
X2143138Y1222651*
X2128649Y1188901D02*
X2128308Y1189370D01*
X2127797Y1189604*
X2127115*
X2126604Y1189370*
X2126263Y1188901*
Y1188432*
X2126433Y1187963*
X2126604Y1187729*
X2126945Y1187495*
X2127967Y1187026*
X2128308Y1186792*
X2128479Y1186557*
X2128649Y1186088*
Y1185385*
X2128308Y1184917*
X2127797Y1184682*
X2127115*
X2126604Y1184917*
X2126263Y1185385*
X2132740Y1188432D02*
X2132570Y1188901D01*
X2132229Y1189370*
X2131888Y1189604*
X2131206*
X2130865Y1189370*
X2130524Y1188901*
X2130354Y1188432*
X2130183Y1187729*
Y1186557*
X2130354Y1185854*
X2130524Y1185385*
X2130865Y1184917*
X2131206Y1184682*
X2131888*
X2132229Y1184917*
X2132570Y1185385*
X2132740Y1185854*
X2135638Y1189604D02*
X2134274Y1184682D01*
X2135638Y1189604D02*
X2137002Y1184682D01*
X2134786Y1186323D02*
X2136490D01*
X2138536Y1189604D02*
Y1184682D01*
X2140581*
X2142115Y1189604D02*
Y1184682D01*
Y1189604D02*
X2144331D01*
X2142115Y1187260D02*
X2143479D01*
X2142115Y1184682D02*
X2144331D01*
X2149786Y1187495D02*
X2152854D01*
X2149786Y1186088D02*
X2152854D01*
X2158308Y1188667D02*
X2158649Y1188901D01*
X2159161Y1189604*
Y1184682*
X2164786Y1187963D02*
X2164615Y1187729D01*
X2164786Y1187495*
X2164956Y1187729*
X2164786Y1187963*
Y1185151D02*
X2164615Y1184917D01*
X2164786Y1184682*
X2164956Y1184917*
X2164786Y1185151*
X2170411Y1188667D02*
X2170752Y1188901D01*
X2171263Y1189604*
Y1184682*
X2243763Y1202104D02*
Y1197182D01*
Y1202104D02*
X2245297D01*
X2245808Y1201870*
X2245979Y1201635*
X2246149Y1201167*
Y1200463*
X2245979Y1199995*
X2245808Y1199760*
X2245297Y1199526*
X2243763*
X2250752Y1203042D02*
X2247683Y1195542D01*
X2252286Y1202104D02*
Y1197182D01*
Y1202104D02*
X2254672Y1197182D01*
Y1202104D02*
Y1197182D01*
X2181320Y1188432D02*
X2181149Y1188901D01*
X2180808Y1189370*
X2180467Y1189604*
X2179786*
X2179445Y1189370*
X2179104Y1188901*
X2178933Y1188432*
X2178763Y1187729*
Y1186557*
X2178933Y1185854*
X2179104Y1185385*
X2179445Y1184917*
X2179786Y1184682*
X2180467*
X2180808Y1184917*
X2181149Y1185385*
X2181320Y1185854*
X2183877Y1189604D02*
X2183536Y1189370D01*
X2183195Y1188901*
X2183024Y1188432*
X2182854Y1187729*
Y1186557*
X2183024Y1185854*
X2183195Y1185385*
X2183536Y1184917*
X2183877Y1184682*
X2184558*
X2184899Y1184917*
X2185240Y1185385*
X2185411Y1185854*
X2185581Y1186557*
Y1187729*
X2185411Y1188432*
X2185240Y1188901*
X2184899Y1189370*
X2184558Y1189604*
X2183877*
X2187115D02*
Y1184682D01*
Y1189604D02*
X2188479Y1184682D01*
X2189842Y1189604D02*
X2188479Y1184682D01*
X2189842Y1189604D02*
Y1184682D01*
X2191377Y1189604D02*
Y1184682D01*
Y1189604D02*
X2192911D01*
X2193422Y1189370*
X2193592Y1189135*
X2193763Y1188667*
Y1187963*
X2193592Y1187495*
X2193422Y1187260*
X2192911Y1187026*
X2191377*
X2195297Y1189604D02*
Y1186088D01*
X2195467Y1185385*
X2195808Y1184917*
X2196320Y1184682*
X2196661*
X2197172Y1184917*
X2197513Y1185385*
X2197683Y1186088*
Y1189604*
X2200411D02*
Y1184682D01*
X2199217Y1189604D02*
X2201604D01*
X2203138D02*
Y1184682D01*
Y1189604D02*
X2205354D01*
X2203138Y1187260D02*
X2204502D01*
X2203138Y1184682D02*
X2205354D01*
X2206888Y1189604D02*
Y1184682D01*
Y1189604D02*
X2208422D01*
X2208933Y1189370*
X2209104Y1189135*
X2209274Y1188667*
Y1188198*
X2209104Y1187729*
X2208933Y1187495*
X2208422Y1187260*
X2206888*
X2208081D02*
X2209274Y1184682D01*
X2214729Y1189604D02*
Y1184682D01*
Y1189604D02*
X2216945D01*
X2214729Y1187260D02*
X2216092D01*
X2218479Y1189604D02*
Y1184682D01*
X2220013Y1189604D02*
Y1184682D01*
X2222058*
X2223592Y1189604D02*
Y1184682D01*
Y1189604D02*
X2225808D01*
X2223592Y1187260D02*
X2224956D01*
X2223592Y1184682D02*
X2225808D01*
X2227342Y1189604D02*
Y1184682D01*
Y1189604D02*
X2229729Y1184682D01*
Y1189604D02*
Y1184682D01*
X2232627Y1189604D02*
X2231263Y1184682D01*
X2232627Y1189604D02*
X2233990Y1184682D01*
X2231774Y1186323D02*
X2233479D01*
X2235524Y1189604D02*
Y1184682D01*
Y1189604D02*
X2236888Y1184682D01*
X2238252Y1189604D02*
X2236888Y1184682D01*
X2238252Y1189604D02*
Y1184682D01*
X2239786Y1189604D02*
Y1184682D01*
Y1189604D02*
X2242002D01*
X2239786Y1187260D02*
X2241149D01*
X2239786Y1184682D02*
X2242002D01*
X2243706Y1187963D02*
X2243536Y1187729D01*
X2243706Y1187495*
X2243877Y1187729*
X2243706Y1187963*
Y1185151D02*
X2243536Y1184917D01*
X2243706Y1184682*
X2243877Y1184917*
X2243706Y1185151*
X2331149Y1188901D02*
X2330808Y1189370D01*
X2330297Y1189604*
X2329615*
X2329104Y1189370*
X2328763Y1188901*
Y1188432*
X2328933Y1187963*
X2329104Y1187729*
X2329445Y1187495*
X2330467Y1187026*
X2330808Y1186792*
X2330979Y1186557*
X2331149Y1186088*
Y1185385*
X2330808Y1184917*
X2330297Y1184682*
X2329615*
X2329104Y1184917*
X2328763Y1185385*
X2332683Y1189604D02*
Y1184682D01*
X2335070Y1189604D02*
Y1184682D01*
X2332683Y1187260D02*
X2335070D01*
X2336604Y1189604D02*
Y1184682D01*
Y1189604D02*
X2338820D01*
X2336604Y1187260D02*
X2337967D01*
X2336604Y1184682D02*
X2338820D01*
X2340354Y1189604D02*
Y1184682D01*
Y1189604D02*
X2342570D01*
X2340354Y1187260D02*
X2341717D01*
X2340354Y1184682D02*
X2342570D01*
X2345297Y1189604D02*
Y1184682D01*
X2344104Y1189604D02*
X2346490D01*
G54D14*
X2195725Y1225972D02*
Y1221378D01*
Y1225972D02*
X2197793D01*
X2195725Y1223784D02*
X2196997D01*
X2200497Y1225972D02*
X2199225Y1221378D01*
X2200497Y1225972D02*
X2201770Y1221378D01*
X2199702Y1222909D02*
X2201293D01*
X2203202Y1225972D02*
Y1221378D01*
Y1225972D02*
X2204634D01*
X2205111Y1225753*
X2205270Y1225534*
X2205429Y1225097*
Y1224659*
X2205270Y1224222*
X2205111Y1224003*
X2204634Y1223784*
X2203202D02*
X2204634D01*
X2205111Y1223565*
X2205270Y1223347*
X2205429Y1222909*
Y1222253*
X2205270Y1221815*
X2205111Y1221597*
X2204634Y1221378*
X2203202*
X2206861Y1225972D02*
Y1221378D01*
Y1225972D02*
X2208293D01*
X2208770Y1225753*
X2208929Y1225534*
X2209088Y1225097*
Y1224659*
X2208929Y1224222*
X2208770Y1224003*
X2208293Y1223784*
X2206861*
X2207975D02*
X2209088Y1221378D01*
X2210520Y1225972D02*
Y1221378D01*
X2214338Y1224878D02*
X2214179Y1225315D01*
X2213861Y1225753*
X2213543Y1225972*
X2212906*
X2212588Y1225753*
X2212270Y1225315*
X2212111Y1224878*
X2211952Y1224222*
Y1223128*
X2212111Y1222472*
X2212270Y1222034*
X2212588Y1221597*
X2212906Y1221378*
X2213543*
X2213861Y1221597*
X2214179Y1222034*
X2214338Y1222472*
X2217043Y1225972D02*
X2215770Y1221378D01*
X2217043Y1225972D02*
X2218315Y1221378D01*
X2216247Y1222909D02*
X2217838D01*
X2220861Y1225972D02*
Y1221378D01*
X2219747Y1225972D02*
X2221975D01*
X2223406D02*
Y1221378D01*
X2225793Y1225972D02*
X2225475Y1225753D01*
X2225156Y1225315*
X2224997Y1224878*
X2224838Y1224222*
Y1223128*
X2224997Y1222472*
X2225156Y1222034*
X2225475Y1221597*
X2225793Y1221378*
X2226429*
X2226747Y1221597*
X2227065Y1222034*
X2227225Y1222472*
X2227384Y1223128*
Y1224222*
X2227225Y1224878*
X2227065Y1225315*
X2226747Y1225753*
X2226429Y1225972*
X2225793*
X2228815D02*
Y1221378D01*
Y1225972D02*
X2231043Y1221378D01*
Y1225972D02*
Y1221378D01*
X2236134Y1225972D02*
Y1221378D01*
Y1225972D02*
X2237247D01*
X2237725Y1225753*
X2238043Y1225315*
X2238202Y1224878*
X2238361Y1224222*
Y1223128*
X2238202Y1222472*
X2238043Y1222034*
X2237725Y1221597*
X2237247Y1221378*
X2236134*
X2239793Y1225972D02*
Y1221378D01*
Y1225972D02*
X2241225D01*
X2241702Y1225753*
X2241861Y1225534*
X2242020Y1225097*
Y1224659*
X2241861Y1224222*
X2241702Y1224003*
X2241225Y1223784*
X2239793*
X2240906D02*
X2242020Y1221378D01*
X2244725Y1225972D02*
X2243452Y1221378D01*
X2244725Y1225972D02*
X2245997Y1221378D01*
X2243929Y1222909D02*
X2245520D01*
X2247429Y1225972D02*
X2248225Y1221378D01*
X2249020Y1225972D02*
X2248225Y1221378D01*
X2249020Y1225972D02*
X2249815Y1221378D01*
X2250611Y1225972D02*
X2249815Y1221378D01*
X2252043Y1225972D02*
Y1221378D01*
X2253475Y1225972D02*
Y1221378D01*
Y1225972D02*
X2255702Y1221378D01*
Y1225972D02*
Y1221378D01*
X2259520Y1224878D02*
X2259361Y1225315D01*
X2259043Y1225753*
X2258725Y1225972*
X2258088*
X2257770Y1225753*
X2257452Y1225315*
X2257293Y1224878*
X2257134Y1224222*
Y1223128*
X2257293Y1222472*
X2257452Y1222034*
X2257770Y1221597*
X2258088Y1221378*
X2258725*
X2259043Y1221597*
X2259361Y1222034*
X2259520Y1222472*
Y1223128*
X2258725D02*
X2259520D01*
X2261270Y1221597D02*
X2261111Y1221378D01*
X2260952Y1221597*
X2261111Y1221815*
X2261270Y1221597*
Y1221159*
X2261111Y1220722*
X2260952Y1220503*
X2266361Y1225972D02*
Y1221378D01*
Y1225972D02*
X2267793D01*
X2268270Y1225753*
X2268429Y1225534*
X2268588Y1225097*
Y1224440*
X2268429Y1224003*
X2268270Y1223784*
X2267793Y1223565*
X2266361*
X2271293Y1225972D02*
X2270020Y1221378D01*
X2271293Y1225972D02*
X2272565Y1221378D01*
X2270497Y1222909D02*
X2272088D01*
X2273997Y1225972D02*
Y1221378D01*
Y1225972D02*
X2275429D01*
X2275906Y1225753*
X2276065Y1225534*
X2276225Y1225097*
Y1224659*
X2276065Y1224222*
X2275906Y1224003*
X2275429Y1223784*
X2273997*
X2275111D02*
X2276225Y1221378D01*
X2278929Y1225972D02*
X2277656Y1221378D01*
X2278929Y1225972D02*
X2280202Y1221378D01*
X2278134Y1222909D02*
X2279725D01*
X2281634Y1225972D02*
Y1221378D01*
X2283543*
X2284975Y1225972D02*
Y1221378D01*
X2286884*
X2288315Y1225972D02*
Y1221378D01*
Y1225972D02*
X2290384D01*
X2288315Y1223784D02*
X2289588D01*
X2288315Y1221378D02*
X2290384D01*
X2291815Y1225972D02*
Y1221378D01*
X2293725*
X2295156Y1225972D02*
Y1221378D01*
X2297065*
X2299770Y1225972D02*
X2298497Y1221378D01*
X2299770Y1225972D02*
X2301043Y1221378D01*
X2298975Y1222909D02*
X2300565D01*
X2302475Y1223347D02*
X2305338D01*
X2306770Y1225972D02*
Y1221378D01*
Y1225972D02*
X2308202D01*
X2308679Y1225753*
X2308838Y1225534*
X2308997Y1225097*
Y1224659*
X2308838Y1224222*
X2308679Y1224003*
X2308202Y1223784*
X2306770*
X2307884D02*
X2308997Y1221378D01*
X2310429Y1225972D02*
Y1221378D01*
Y1225972D02*
X2312497D01*
X2310429Y1223784D02*
X2311702D01*
G54D50*
X2175814Y1668378D03*
X2103034D03*
X2175814Y1490378D03*
X2103034D03*
G54D91*
G54D99*
X2306929Y1578878D03*
Y1566378D03*
X2214429Y1473878D03*
X2206929Y1551378D03*
X2244429Y1631378D03*
X2249429Y1501378D03*
X2206929Y1576378D03*
G54D100*
X2316929Y1578878D03*
Y1566378D03*
X2204429Y1473878D03*
X2194429D03*
X2196929Y1551378D03*
X2234429Y1631378D03*
X2239429Y1501378D03*
X2206929Y1566378D03*
X2196929Y1576378D03*
Y1566378D03*
X2186929Y1576378D03*
Y1566378D03*
X2176929Y1576378D03*
Y1566378D03*
X2166929Y1576378D03*
Y1566378D03*
X2156929Y1576378D03*
Y1566378D03*
X2146929Y1576378D03*
Y1566378D03*
X2136929Y1576378D03*
Y1566378D03*
X2126929Y1576378D03*
Y1566378D03*
X2116929Y1576378D03*
Y1566378D03*
X2106929Y1576378D03*
Y1566378D03*
X2096929Y1576378D03*
Y1566378D03*
X2086929Y1576378D03*
Y1566378D03*
X2076929Y1576378D03*
Y1566378D03*
X2066929Y1576378D03*
Y1566378D03*
Y1460128D02*
X2050679D01*
Y1476378*
X2381929Y1460128D02*
X2398179D01*
Y1476378*
X2381929Y1682628D02*
X2398179D01*
Y1666378*
X2066929Y1682628D02*
X2050679D01*
Y1666378*
G54D233*
X2356929Y1553878D03*
X2351929Y1586378D03*
X2192929Y1525378D03*
G54D234*
X2087776Y1546378D03*
X2081083D03*
X2087776Y1648878D03*
X2081083D03*
X2358583Y1601378D03*
X2365276D03*
G54D235*
X2254429Y1538031D03*
Y1544724D03*
X2221929Y1582224D03*
Y1575531D03*
G54D342*
X2106929Y1538878D03*
G54D351*
X2322179Y1668878D03*
X2356679D03*
Y1473878D03*
X2322179D03*
X2197179Y1668878D03*
X2231679D03*
X2294179Y1473878D03*
X2259679D03*
Y1668878D03*
X2294179D03*
G54D353*
X2384429Y1643628D03*
Y1609128D03*
Y1533628D03*
Y1499128D03*
X2064429Y1609128D03*
Y1643628D03*
Y1499128D03*
Y1533628D03*
G54D356*
X2219429Y1606122D03*
Y1611634D03*
X2246929Y1544134D03*
Y1538622D03*
X2251929Y1598622D03*
Y1604134D03*
X2201929Y1511634D03*
Y1506122D03*
X2349429Y1601122D03*
Y1606634D03*
X2376929Y1558622D03*
Y1564134D03*
X2221929Y1566634D03*
Y1561122D03*
X2239429Y1544134D03*
Y1538622D03*
X2281929Y1604134D03*
Y1598622D03*
X2186929Y1509134D03*
Y1503622D03*
G54D357*
X2104173Y1553878D03*
X2109685D03*
X2227185Y1501378D03*
X2221673D03*
X2097185Y1553878D03*
X2091673D03*
X2106673Y1521378D03*
X2112185D03*
X2366673Y1586378D03*
X2372185D03*
X2337185Y1596378D03*
X2331673D03*
X2339685Y1563878D03*
X2334173D03*
X2352185Y1568878D03*
X2346673D03*
X2274685Y1606378D03*
X2269173D03*
X2279685Y1583878D03*
X2274173D03*
X2279685Y1556378D03*
X2274173D03*
Y1591378D03*
X2279685D03*
X2331673Y1573878D03*
X2337185D03*
X2362185Y1538878D03*
X2356673D03*
X2291673Y1573878D03*
X2297185D03*
X2226673Y1536378D03*
X2232185D03*
X2286673Y1563878D03*
X2292185D03*
X2269173Y1598878D03*
X2274685D03*
X2286673Y1583878D03*
X2292185D03*
X2274173Y1563878D03*
X2279685D03*
X2194685Y1588878D03*
X2189173D03*
G54D358*
X2195029Y1596378D03*
X2188829D03*
X2208829Y1498878D03*
X2215029D03*
X2185029Y1541378D03*
X2178829D03*
X2337529Y1581378D03*
X2331329D03*
X2367529Y1573878D03*
X2361329D03*
X2340029Y1548878D03*
X2333829D03*
X2380029D03*
X2373829D03*
X2331329Y1588878D03*
X2337529D03*
X2333829Y1556378D03*
X2340029D03*
X2200029Y1541378D03*
X2193829D03*
X2322529Y1591378D03*
X2316329D03*
X2322529Y1553878D03*
X2316329D03*
G54D359*
X2231929Y1613878D03*
X2226929D03*
X2251929D03*
X2246929D03*
X2284429Y1573878D03*
X2279429D03*
X2226929Y1543878D03*
X2231929D03*
G54D360*
X2066929Y1666378D03*
X2381929D03*
Y1476378D03*
X2066929D03*
G54D366*
X2236179Y1598328D03*
X2227679D03*
Y1604428D03*
X2236179D03*
G54D367*
X2364579Y1557717D03*
Y1555157D03*
Y1552598D03*
Y1550039D03*
X2349279D03*
Y1552598D03*
Y1555157D03*
Y1557717D03*
X2359579Y1590217D03*
Y1587657D03*
Y1585098D03*
Y1582539D03*
X2344279D03*
Y1585098D03*
Y1587657D03*
Y1590217D03*
X2185279Y1521539D03*
Y1524098D03*
Y1526657D03*
Y1529217D03*
X2200579D03*
Y1526657D03*
Y1524098D03*
Y1521539D03*
G54D368*
X2360768Y1546228D03*
X2358209D03*
X2355650D03*
X2353091D03*
Y1561528D03*
X2355650D03*
X2358209D03*
X2360768D03*
X2355768Y1578728D03*
X2353209D03*
X2350650D03*
X2348091D03*
Y1594028D03*
X2350650D03*
X2353209D03*
X2355768D03*
X2189091Y1533028D03*
X2191650D03*
X2194209D03*
X2196768D03*
Y1517728D03*
X2194209D03*
X2191650D03*
X2189091D03*
G54D369*
X2103976Y1544378D03*
X2105945D03*
X2107913D03*
X2109882D03*
Y1533378D03*
X2107913D03*
X2105945D03*
X2103976D03*
G54D370*
X2119429Y1535778D03*
Y1541978D03*
X2194429Y1503278D03*
Y1509478D03*
X2259429Y1601978D03*
Y1595778D03*
X2364429Y1643278D03*
Y1649478D03*
Y1499478D03*
Y1493278D03*
X2086929Y1486978D03*
Y1480778D03*
G54D371*
X2212679Y1518878D03*
X2231179D03*
G54D372*
X2167989Y1672528D03*
Y1648228D03*
X2166019Y1672528D03*
Y1648228D03*
X2164049Y1672528D03*
Y1648228D03*
X2162079Y1672528D03*
Y1648228D03*
X2160109Y1672528D03*
Y1648228D03*
X2158139Y1672528D03*
Y1648228D03*
X2156169Y1672528D03*
Y1648228D03*
X2154199Y1672528D03*
Y1648228D03*
X2152229Y1672528D03*
Y1648228D03*
X2150259Y1672528D03*
Y1648228D03*
X2148289Y1672528D03*
Y1648228D03*
X2146319Y1672528D03*
Y1648228D03*
X2144349Y1672528D03*
Y1648228D03*
X2142379Y1672528D03*
Y1648228D03*
X2140409Y1672528D03*
Y1648228D03*
X2138439Y1672528D03*
Y1648228D03*
X2136469Y1672528D03*
Y1648228D03*
X2134499Y1672528D03*
Y1648228D03*
X2132529Y1672528D03*
Y1648228D03*
X2130559Y1672528D03*
Y1648228D03*
X2128589Y1672528D03*
Y1648228D03*
X2126619Y1672528D03*
Y1648228D03*
X2124649Y1672528D03*
Y1648228D03*
X2122679Y1672528D03*
Y1648228D03*
X2120709Y1672528D03*
Y1648228D03*
X2118739Y1672528D03*
Y1648228D03*
X2116769Y1672528D03*
Y1648228D03*
X2114799Y1672528D03*
Y1648228D03*
X2112829Y1672528D03*
Y1648228D03*
X2110859Y1672528D03*
Y1648228D03*
X2167989Y1494528D03*
Y1470228D03*
X2166019Y1494528D03*
Y1470228D03*
X2164049Y1494528D03*
Y1470228D03*
X2162079Y1494528D03*
Y1470228D03*
X2160109Y1494528D03*
Y1470228D03*
X2158139Y1494528D03*
Y1470228D03*
X2156169Y1494528D03*
Y1470228D03*
X2154199Y1494528D03*
Y1470228D03*
X2152229Y1494528D03*
Y1470228D03*
X2150259Y1494528D03*
Y1470228D03*
X2148289Y1494528D03*
Y1470228D03*
X2146319Y1494528D03*
Y1470228D03*
X2144349Y1494528D03*
Y1470228D03*
X2142379Y1494528D03*
Y1470228D03*
X2140409Y1494528D03*
Y1470228D03*
X2138439Y1494528D03*
Y1470228D03*
X2136469Y1494528D03*
Y1470228D03*
X2134499Y1494528D03*
Y1470228D03*
X2132529Y1494528D03*
Y1470228D03*
X2130559Y1494528D03*
Y1470228D03*
X2128589Y1494528D03*
Y1470228D03*
X2126619Y1494528D03*
Y1470228D03*
X2124649Y1494528D03*
Y1470228D03*
X2122679Y1494528D03*
Y1470228D03*
X2120709Y1494528D03*
Y1470228D03*
X2118739Y1494528D03*
Y1470228D03*
X2116769Y1494528D03*
Y1470228D03*
X2114799Y1494528D03*
Y1470228D03*
X2112829Y1494528D03*
Y1470228D03*
X2110859Y1494528D03*
Y1470228D03*
X0Y0D02*
M02*
