M48
;Layer_Color=9474304
;FILE_FORMAT=4:4
METRIC,TZ
;TYPE=PLATED
T1F00S00C0.2500
T2F00S00C0.8000
T3F00S00C0.9000
T4F00S00C2.1000
T5F00S00C3.2000
;TYPE=NON_PLATED
T6F00S00C1.0160
T7F00S00C2.2000
%
T01
X80000Y110000
X120000
X140000Y70000
X160000Y30000
Y110000
X200000
X240000
X280000
X342000Y109000
X362000Y97000
X391000Y95900
X418000Y97000
X433000
X449000
X467000
X469000Y75000
X441200Y73900
X419000Y73000
X377000Y72000
X364000Y59000
X341999Y73899
X341000Y33900
X367000Y11900
X392200
X401000Y9000
X409000
X405000Y40750
X441200Y34900
X446000Y44000
X469000Y34000
X480000Y30000
X475000Y115000
X460000Y130000
X455000Y135000
X450000Y140000
X445000Y145000
X507000Y137000
X514000
X527000Y125000
X520000Y110000
X280000Y30000
X560000
X614000Y10000
X686000Y44000
X675000Y63000
X724000Y9000
X748000Y11000
X756000
X763300Y10700
X770999Y11001
X781000Y11000
X790998Y10001
X797998Y11001
X824000Y11900
X810000Y40000
X795000Y35000
X787000
X774000Y36000
X773799Y73899
X770999Y96899
X763300Y97200
X756000Y96900
X748000
X779100Y98000
X781000Y105000
X790998Y97899
X798492Y96590
X799800Y73900
X823000Y74000
X848800Y73900
X873000
Y34900
X848000Y35000
X838000Y105000
X885251Y102251
X898251
X917000Y135000
X868000Y139000
X766000Y133000
X642000Y141000
X608000Y116000
X590000
X583000
X960000Y110000
X990000Y100000
Y93000
X1040000Y110000
X1080000
X1120000
X1100000Y70000
X1060000
X960000Y30000
X980000Y150000
X1020000
X1060000
X1100000
X1140000
X1180000
X1185000Y203000
X1154000Y208000
X1138000Y211000
X1130000Y238000
X1152000Y244000
Y252000
X1176000Y260000
X1193000Y251500
X1210000Y230000
Y280000
X1177000Y292000
X1174000Y332000
X1210000Y330000
Y380000
X1140000Y390000
X1125000Y355000
X1122000Y324000
X1140000Y310000
X1069000Y312000
Y276000
X1080000Y270000
X1098000Y236000
X1120000Y190000
X1160000
X1210000Y180000
X1040000Y190000
X1000000
X960000
X980000Y230000
X1020000
X1020000Y273000
X1000000Y270000
X999000Y297000
X989000Y309000
X1000000Y350000
X1040000
X1053000Y344000
X1074000Y346000
X1082000
X1090000
X1098000
X1083000Y355000
X1069000Y372500
X1080000Y430000
X1100000Y470000
X1080000Y510000
X960000
X980000Y390000
X960000Y270000
X1035000Y290000
X1160000Y430000
X940000Y390000
X918000Y385000
X904750Y403250
X891750Y402750
X898000Y412000
X863000Y411000
X866000Y398000
X811750Y400250
X819000Y408000
X785000Y398000
X767000Y411000
X763300Y462800
X770999Y463101
X778000Y459100
X783998Y463101
X790998Y462101
X797998Y463101
X824000Y464000
X848000
X873800Y464200
X873000Y526000
X848800
X799800
X773799Y525999
X754000Y510000
X772800Y486000
X787000Y488000
X748000Y463100
X752000Y457000
X760000Y350000
X720000
X698900Y349100
Y356000
X644000Y354000
X614000Y361000
X608000Y366000
X612000Y393000
X624000Y386000
X660000Y390000
X657000Y410000
X620000Y470000
X580000
X585000Y532000
X687000Y522000
X731000Y318000
Y292000
Y285000
X717000Y296000
X683000Y272000
X640000Y270000
X650000Y259000
Y249000
X643000Y225000
X681000Y205000
X722000Y198000
X700000Y150000
X783000Y152000
X795000Y160000
X818000Y161000
X863000Y152000
X898000Y164000
X920000Y190000
X940000Y230000
X945000Y262000
X920000Y270000
X880000
X840000
X849000Y311000
X840000Y350000
X838000Y366000
X810998Y363999
X799000Y318000
X793000Y311000
X795000Y300000
X789000Y296000
X799000Y291000
X760000Y270000
X799000Y204000
X860000Y230000
X900000
X877000Y334000
X890998Y363999
X905000Y364000
X920000Y350000
X940000Y470000
X629000Y328000
X603000Y318000
X596000Y338000
X580000Y327000
X559000Y319000
Y343000
X559999Y351999
X555000Y376000
X562000Y296000
X600000Y270000
X585000Y200000
X514000Y190000
X480000Y190000
X500000Y230000
X525000Y229000
X536000Y254000
X549000Y282000
X514000Y286000
X508000Y293000
X452000Y297000
X464000Y310000
X467000Y364000
X439500Y355750
X420000
X400500
X359500
X340000
X320500
X341000Y334000
X357000Y333000
X380000Y310000
X407000Y308000
X397000Y271000
X382000Y266000
X387000Y252000
X357000Y266000
X342000Y286000
X320000Y304000
X300000Y310000
X280000Y261750
X257000Y258000
X271000Y226500
X300000Y230000
X281000Y198000
X280000Y190000
X240000
X200000
X160000
X176000Y236000
Y260000
X193000Y252000
X220000Y230000
Y150000
X260000
X324000Y159000
X352000Y150000
X372000
X440000
X433000Y394250
X420000Y390000
X407000Y394250
X427000Y419000
X441000Y431000
X435000Y444000
X429999Y448999
X422000Y449000
X418000Y455000
X407000
X412500Y443500
X388000Y430000
X386999Y422999
X392000Y462000
X367000Y464000
X352000Y461000
X343999Y461999
X336500Y462500
X329000Y462000
X341000Y486000
X349000Y488000
X356999Y487999
X364000Y489000
X371999Y487999
X379000Y487000
X389000Y488000
X416500Y486750
X441000Y486000
Y524250
X432750Y522250
X424750Y522500
X417999Y525999
X413000Y520999
X406000Y521000
X399000
X387999Y524999
X380000Y525000
X368000Y526000
X357999Y519999
X352000Y524000
X341999Y525999
X333110Y523000
X326000
X320000Y430000
X327000Y415750
X346500
X351000Y389000
X342000
X373000Y381000
X292000Y380000
X260000Y390000
X240000Y350000
X196000Y342000
X177000Y320000
X176000Y292000
X220000Y310000
Y470000
X180000
X160000Y430000
Y510000
X280000Y430000
X463000Y443000
X473000Y458000
X482000Y463000
X489000
X496000
X497000Y495000
X505000Y496000
X508000Y540000
X472000Y525000
X528000Y437000
X490000Y385000
X520000Y350000
X152000Y322000
X122000Y324000
X100000Y310000
X65500Y308000
Y276000
X80000Y270000
X120000
X98000Y236000
X146000Y235500
X154000Y211000
X120000Y190000
X80000
X40000
X10000Y180000
Y230000
Y280000
X23000Y271000
X44000Y292000
Y324000
X53500Y344250
X40000Y350000
X74000Y346000
X82000
X90000
X98000Y344750
X74500Y359750
X69000Y368000
X60000Y390000
X10000Y380000
Y330000
X80000Y430000
X120000
X140000Y390000
Y470000
X100000
Y150000
X60000
X140000
X297000Y549000
X348000Y551000
X355000Y551000
X367000Y549000
X374000Y550000
X391000Y548000
X650000Y550000
X746000Y546000
X750000Y552000
X763300Y549300
X770999Y548999
X778000Y553000
X783998Y548999
X790998Y549999
X797998Y548999
X823000Y550000
X924000Y549000
T02
X335000Y209000
X355000
X375000
X395000
X415000
X435000
X455000
Y229000
X435000
X415000
X395000
X375000
X355000
X335000
T03
X521100Y24600
X546500
Y50000
Y75400
X521100
Y50000
X571900
X597300
X622700
X648100
X673500
X698900
Y24600
X673500
X648100
X622700
X597300
X571900
Y75400
X597300
X622700
X648100
X673500
X698900
Y484600
Y510000
Y535400
X673500
Y510000
Y484600
X648100
Y510000
Y535400
X622700
Y510000
Y484600
X597300
Y510000
Y535400
X571900
Y510000
Y484600
X546500
Y510000
Y535400
X521100
Y510000
Y484600
T04
X1110000Y170000
Y390000
X110000
Y170000
T05
X209850Y38710
X1009950
Y521290
X209850
T06
X301640Y74310
X486360
X733440
X918160
Y526410
X733440
X486360
X301640
T07
X710000Y175000
X525000Y375000
M30
