G04 #@! TF.GenerationSoftware,KiCad,Pcbnew,5.0.0-rc2-be01b52~65~ubuntu16.04.1*
G04 #@! TF.CreationDate,2018-06-10T22:33:32-04:00*
G04 #@! TF.ProjectId,meta_breakout,6D6574615F627265616B6F75742E6B69,rev?*
G04 #@! TF.SameCoordinates,Original*
G04 #@! TF.FileFunction,Soldermask,Bot*
G04 #@! TF.FilePolarity,Negative*
%FSLAX46Y46*%
G04 Gerber Fmt 4.6, Leading zero omitted, Abs format (unit mm)*
G04 Created by KiCad (PCBNEW 5.0.0-rc2-be01b52~65~ubuntu16.04.1) date Sun Jun 10 22:33:32 2018*
%MOMM*%
%LPD*%
G01*
G04 APERTURE LIST*
%ADD10O,2.100000X2.100000*%
%ADD11R,1.700000X1.700000*%
%ADD12C,5.400000*%
%ADD13C,1.416000*%
G04 APERTURE END LIST*
D10*
G04 #@! TO.C,J5*
X43760000Y-118900000D03*
X43760000Y-116360000D03*
X46300000Y-118900000D03*
X46300000Y-116360000D03*
X48840000Y-118900000D03*
X48840000Y-116360000D03*
X51380000Y-118900000D03*
X51380000Y-116360000D03*
X53920000Y-118900000D03*
X53920000Y-116360000D03*
X56460000Y-118900000D03*
X56460000Y-116360000D03*
X59000000Y-118900000D03*
X59000000Y-116360000D03*
X61540000Y-118900000D03*
X61540000Y-116360000D03*
X64080000Y-118900000D03*
X64080000Y-116360000D03*
X66620000Y-118900000D03*
X66620000Y-116360000D03*
X69160000Y-118900000D03*
X69160000Y-116360000D03*
X71700000Y-118900000D03*
X71700000Y-116360000D03*
X74240000Y-118900000D03*
X74240000Y-116360000D03*
X76780000Y-118900000D03*
X76780000Y-116360000D03*
X79320000Y-118900000D03*
X79320000Y-116360000D03*
X81860000Y-118900000D03*
X81860000Y-116360000D03*
X84400000Y-118900000D03*
X84400000Y-116360000D03*
X86940000Y-118900000D03*
X86940000Y-116360000D03*
X89480000Y-118900000D03*
X89480000Y-116360000D03*
X92020000Y-118900000D03*
X92020000Y-116360000D03*
X94560000Y-118900000D03*
X94560000Y-116360000D03*
X97100000Y-118900000D03*
X97100000Y-116360000D03*
X99640000Y-118900000D03*
X99640000Y-116360000D03*
X102180000Y-118900000D03*
X102180000Y-116360000D03*
X104720000Y-118900000D03*
X104720000Y-116360000D03*
X107260000Y-118900000D03*
X107260000Y-116360000D03*
X109800000Y-118900000D03*
X109800000Y-116360000D03*
X112340000Y-118900000D03*
X112340000Y-116360000D03*
X114880000Y-118900000D03*
X114880000Y-116360000D03*
X117420000Y-118900000D03*
D11*
X117420000Y-116360000D03*
G04 #@! TD*
D10*
G04 #@! TO.C,J4*
X43760000Y-104310000D03*
X43760000Y-101770000D03*
X46300000Y-104310000D03*
X46300000Y-101770000D03*
X48840000Y-104310000D03*
X48840000Y-101770000D03*
X51380000Y-104310000D03*
X51380000Y-101770000D03*
X53920000Y-104310000D03*
X53920000Y-101770000D03*
X56460000Y-104310000D03*
X56460000Y-101770000D03*
X59000000Y-104310000D03*
X59000000Y-101770000D03*
X61540000Y-104310000D03*
X61540000Y-101770000D03*
X64080000Y-104310000D03*
X64080000Y-101770000D03*
X66620000Y-104310000D03*
X66620000Y-101770000D03*
X69160000Y-104310000D03*
X69160000Y-101770000D03*
X71700000Y-104310000D03*
X71700000Y-101770000D03*
X74240000Y-104310000D03*
X74240000Y-101770000D03*
X76780000Y-104310000D03*
X76780000Y-101770000D03*
X79320000Y-104310000D03*
X79320000Y-101770000D03*
X81860000Y-104310000D03*
X81860000Y-101770000D03*
X84400000Y-104310000D03*
X84400000Y-101770000D03*
X86940000Y-104310000D03*
X86940000Y-101770000D03*
X89480000Y-104310000D03*
X89480000Y-101770000D03*
X92020000Y-104310000D03*
X92020000Y-101770000D03*
X94560000Y-104310000D03*
X94560000Y-101770000D03*
X97100000Y-104310000D03*
X97100000Y-101770000D03*
X99640000Y-104310000D03*
X99640000Y-101770000D03*
X102180000Y-104310000D03*
X102180000Y-101770000D03*
X104720000Y-104310000D03*
X104720000Y-101770000D03*
X107260000Y-104310000D03*
X107260000Y-101770000D03*
X109800000Y-104310000D03*
X109800000Y-101770000D03*
X112340000Y-104310000D03*
X112340000Y-101770000D03*
X114880000Y-104310000D03*
X114880000Y-101770000D03*
X117420000Y-104310000D03*
D11*
X117420000Y-101770000D03*
G04 #@! TD*
D10*
G04 #@! TO.C,J3*
X43760000Y-89720000D03*
X43760000Y-87180000D03*
X46300000Y-89720000D03*
X46300000Y-87180000D03*
X48840000Y-89720000D03*
X48840000Y-87180000D03*
X51380000Y-89720000D03*
X51380000Y-87180000D03*
X53920000Y-89720000D03*
X53920000Y-87180000D03*
X56460000Y-89720000D03*
X56460000Y-87180000D03*
X59000000Y-89720000D03*
X59000000Y-87180000D03*
X61540000Y-89720000D03*
X61540000Y-87180000D03*
X64080000Y-89720000D03*
X64080000Y-87180000D03*
X66620000Y-89720000D03*
X66620000Y-87180000D03*
X69160000Y-89720000D03*
X69160000Y-87180000D03*
X71700000Y-89720000D03*
X71700000Y-87180000D03*
X74240000Y-89720000D03*
X74240000Y-87180000D03*
X76780000Y-89720000D03*
X76780000Y-87180000D03*
X79320000Y-89720000D03*
X79320000Y-87180000D03*
X81860000Y-89720000D03*
X81860000Y-87180000D03*
X84400000Y-89720000D03*
X84400000Y-87180000D03*
X86940000Y-89720000D03*
X86940000Y-87180000D03*
X89480000Y-89720000D03*
X89480000Y-87180000D03*
X92020000Y-89720000D03*
X92020000Y-87180000D03*
X94560000Y-89720000D03*
X94560000Y-87180000D03*
X97100000Y-89720000D03*
X97100000Y-87180000D03*
X99640000Y-89720000D03*
X99640000Y-87180000D03*
X102180000Y-89720000D03*
X102180000Y-87180000D03*
X104720000Y-89720000D03*
X104720000Y-87180000D03*
X107260000Y-89720000D03*
X107260000Y-87180000D03*
X109800000Y-89720000D03*
X109800000Y-87180000D03*
X112340000Y-89720000D03*
X112340000Y-87180000D03*
X114880000Y-89720000D03*
X114880000Y-87180000D03*
X117420000Y-89720000D03*
D11*
X117420000Y-87180000D03*
G04 #@! TD*
D10*
G04 #@! TO.C,J2*
X43760000Y-75130000D03*
X43760000Y-72590000D03*
X46300000Y-75130000D03*
X46300000Y-72590000D03*
X48840000Y-75130000D03*
X48840000Y-72590000D03*
X51380000Y-75130000D03*
X51380000Y-72590000D03*
X53920000Y-75130000D03*
X53920000Y-72590000D03*
X56460000Y-75130000D03*
X56460000Y-72590000D03*
X59000000Y-75130000D03*
X59000000Y-72590000D03*
X61540000Y-75130000D03*
X61540000Y-72590000D03*
X64080000Y-75130000D03*
X64080000Y-72590000D03*
X66620000Y-75130000D03*
X66620000Y-72590000D03*
X69160000Y-75130000D03*
X69160000Y-72590000D03*
X71700000Y-75130000D03*
X71700000Y-72590000D03*
X74240000Y-75130000D03*
X74240000Y-72590000D03*
X76780000Y-75130000D03*
X76780000Y-72590000D03*
X79320000Y-75130000D03*
X79320000Y-72590000D03*
X81860000Y-75130000D03*
X81860000Y-72590000D03*
X84400000Y-75130000D03*
X84400000Y-72590000D03*
X86940000Y-75130000D03*
X86940000Y-72590000D03*
X89480000Y-75130000D03*
X89480000Y-72590000D03*
X92020000Y-75130000D03*
X92020000Y-72590000D03*
X94560000Y-75130000D03*
X94560000Y-72590000D03*
X97100000Y-75130000D03*
X97100000Y-72590000D03*
X99640000Y-75130000D03*
X99640000Y-72590000D03*
X102180000Y-75130000D03*
X102180000Y-72590000D03*
X104720000Y-75130000D03*
X104720000Y-72590000D03*
X107260000Y-75130000D03*
X107260000Y-72590000D03*
X109800000Y-75130000D03*
X109800000Y-72590000D03*
X112340000Y-75130000D03*
X112340000Y-72590000D03*
X114880000Y-75130000D03*
X114880000Y-72590000D03*
X117420000Y-75130000D03*
D11*
X117420000Y-72590000D03*
G04 #@! TD*
D12*
G04 #@! TO.C,REF\002A\002A*
X42850000Y-127470000D03*
G04 #@! TD*
D13*
G04 #@! TO.C,J1*
X134176000Y-127763000D03*
X134176000Y-62637000D03*
G04 #@! TD*
D12*
G04 #@! TO.C,REF\002A\002A*
X42850000Y-62700000D03*
G04 #@! TD*
M02*
