M48
;DRILL file {KiCad 5.0.0-rc2-be01b52~65~ubuntu16.04.1} date Sun Jun 10 22:33:57 2018
;FORMAT={-:-/ absolute / inch / decimal}
FMAT,2
INCH,TZ
T1C0.0100
T2C0.0394
T3C0.0984
T4C0.0400
%
G90
G05
M72
T1
X5.1364Y-4.3881
X5.1371Y-4.1361
X5.1374Y-4.9205
X5.1377Y-3.7001
X5.1378Y-4.0941
X5.1382Y-4.6461
X5.1386Y-4.6843
X5.1387Y-4.3308
X5.139Y-3.9364
X5.1401Y-4.7231
X5.1404Y-4.7643
X5.1404Y-4.8014
X5.1409Y-4.2937
X5.1412Y-4.8364
X5.1417Y-4.4973
X5.1417Y-4.176
X5.1418Y-4.215
X5.142Y-3.4714
X5.142Y-3.4343
X5.142Y-3.9735
X5.142Y-4.0535
X5.142Y-4.8785
X5.1421Y-3.8973
X5.1422Y-3.8602
X5.1422Y-4.4252
X5.1423Y-4.0156
X5.1427Y-3.2881
X5.1427Y-4.4602
X5.1428Y-4.5343
X5.1437Y-4.2539
X5.1437Y-4.5714
X5.1441Y-3.251
X5.1445Y-3.8252
X5.1453Y-3.0887
X5.1456Y-2.7114
X5.1456Y-3.3602
X5.1457Y-3.0106
X5.1457Y-3.0504
X5.146Y-2.9735
X5.146Y-3.3972
X5.1461Y-3.6627
X5.1463Y-3.3252
X5.1465Y-3.7881
X5.1466Y-3.1258
X5.1467Y-3.6256
X5.1467Y-2.6743
X5.147Y-2.5964
X5.147Y-2.9335
X5.147Y-2.8135
X5.147Y-2.6385
X5.147Y-2.7485
X5.147Y-2.7735
X5.147Y-2.8535
X5.147Y-3.2085
X5.147Y-3.5135
X5.147Y-3.1685
X5.1471Y-4.6085
X5.1474Y-2.8914
X5.1476Y-3.5885
X5.1482Y-3.7371
X5.1905Y-4.3106
X5.1913Y-4.5864
X5.1917Y-4.4692
X5.1917Y-4.5063
X5.1917Y-4.5428
X5.192Y-3.7185
X5.192Y-4.1914
X5.192Y-4.2285
X5.192Y-4.2735
X5.192Y-4.3885
X5.192Y-4.3485
X5.1921Y-4.4306
X5.1935Y-4.9056
X5.1939Y-3.7556
X5.1944Y-3.8173
X5.1945Y-3.4264
X5.1954Y-3.4993
X5.1955Y-3.4622
X5.1957Y-3.3457
X5.1962Y-3.8544
X5.1962Y-2.9814
X5.1965Y-3.3051
X5.1965Y-3.386
X5.197Y-3.5785
X5.197Y-3.6635
X5.197Y-4.0007
X5.197Y-4.0406
X5.197Y-4.1185
X5.197Y-4.1535
X5.197Y-4.6235
X5.197Y-4.6685
X5.197Y-4.7435
X5.197Y-4.7814
X5.197Y-4.8214
X5.197Y-4.8585
X5.197Y-4.7056
X5.1971Y-3.8915
X5.1971Y-3.5364
X5.1979Y-3.7803
X5.1984Y-3.2276
X5.1984Y-3.265
X5.1991Y-4.0777
X5.1992Y-3.1465
X5.1995Y-3.6256
X5.1998Y-3.9636
X5.1998Y-3.9286
X5.2004Y-3.1882
X5.202Y-3.0285
X5.2028Y-3.0693
X5.2031Y-3.1094
X5.2034Y-2.9443
X5.2048Y-2.9072
X5.205Y-2.8702
X5.2063Y-2.6972
X5.2063Y-2.7354
X5.2067Y-2.6169
X5.2067Y-2.8339
X5.2079Y-2.6567
X5.2079Y-2.7941
X5.2087Y-2.5772
T2
X1.7228Y-3.4323
X1.7228Y-3.5323
X1.8228Y-3.4323
X1.8228Y-3.5323
X1.9228Y-3.4323
X1.9228Y-3.5323
X2.0228Y-3.4323
X2.0228Y-3.5323
X2.1228Y-3.4323
X2.1228Y-3.5323
X2.2228Y-3.4323
X2.2228Y-3.5323
X2.3228Y-3.4323
X2.3228Y-3.5323
X2.4228Y-3.4323
X2.4228Y-3.5323
X2.5228Y-3.4323
X2.5228Y-3.5323
X2.6228Y-3.4323
X2.6228Y-3.5323
X2.7228Y-3.4323
X2.7228Y-3.5323
X2.8228Y-3.4323
X2.8228Y-3.5323
X2.9228Y-3.4323
X2.9228Y-3.5323
X3.0228Y-3.4323
X3.0228Y-3.5323
X3.1228Y-3.4323
X3.1228Y-3.5323
X3.2228Y-3.4323
X3.2228Y-3.5323
X3.3228Y-3.4323
X3.3228Y-3.5323
X3.4228Y-3.4323
X3.4228Y-3.5323
X3.5228Y-3.4323
X3.5228Y-3.5323
X3.6228Y-3.4323
X3.6228Y-3.5323
X3.7228Y-3.4323
X3.7228Y-3.5323
X3.8228Y-3.4323
X3.8228Y-3.5323
X3.9228Y-3.4323
X3.9228Y-3.5323
X4.0228Y-3.4323
X4.0228Y-3.5323
X4.1228Y-3.4323
X4.1228Y-3.5323
X4.2228Y-3.4323
X4.2228Y-3.5323
X4.3228Y-3.4323
X4.3228Y-3.5323
X4.4228Y-3.4323
X4.4228Y-3.5323
X4.5228Y-3.4323
X4.5228Y-3.5323
X4.6228Y-3.4323
X4.6228Y-3.5323
X1.7228Y-4.5811
X1.7228Y-4.6811
X1.8228Y-4.5811
X1.8228Y-4.6811
X1.9228Y-4.5811
X1.9228Y-4.6811
X2.0228Y-4.5811
X2.0228Y-4.6811
X2.1228Y-4.5811
X2.1228Y-4.6811
X2.2228Y-4.5811
X2.2228Y-4.6811
X2.3228Y-4.5811
X2.3228Y-4.6811
X2.4228Y-4.5811
X2.4228Y-4.6811
X2.5228Y-4.5811
X2.5228Y-4.6811
X2.6228Y-4.5811
X2.6228Y-4.6811
X2.7228Y-4.5811
X2.7228Y-4.6811
X2.8228Y-4.5811
X2.8228Y-4.6811
X2.9228Y-4.5811
X2.9228Y-4.6811
X3.0228Y-4.5811
X3.0228Y-4.6811
X3.1228Y-4.5811
X3.1228Y-4.6811
X3.2228Y-4.5811
X3.2228Y-4.6811
X3.3228Y-4.5811
X3.3228Y-4.6811
X3.4228Y-4.5811
X3.4228Y-4.6811
X3.5228Y-4.5811
X3.5228Y-4.6811
X3.6228Y-4.5811
X3.6228Y-4.6811
X3.7228Y-4.5811
X3.7228Y-4.6811
X3.8228Y-4.5811
X3.8228Y-4.6811
X3.9228Y-4.5811
X3.9228Y-4.6811
X4.0228Y-4.5811
X4.0228Y-4.6811
X4.1228Y-4.5811
X4.1228Y-4.6811
X4.2228Y-4.5811
X4.2228Y-4.6811
X4.3228Y-4.5811
X4.3228Y-4.6811
X4.4228Y-4.5811
X4.4228Y-4.6811
X4.5228Y-4.5811
X4.5228Y-4.6811
X4.6228Y-4.5811
X4.6228Y-4.6811
X1.7228Y-2.8579
X1.7228Y-2.9579
X1.8228Y-2.8579
X1.8228Y-2.9579
X1.9228Y-2.8579
X1.9228Y-2.9579
X2.0228Y-2.8579
X2.0228Y-2.9579
X2.1228Y-2.8579
X2.1228Y-2.9579
X2.2228Y-2.8579
X2.2228Y-2.9579
X2.3228Y-2.8579
X2.3228Y-2.9579
X2.4228Y-2.8579
X2.4228Y-2.9579
X2.5228Y-2.8579
X2.5228Y-2.9579
X2.6228Y-2.8579
X2.6228Y-2.9579
X2.7228Y-2.8579
X2.7228Y-2.9579
X2.8228Y-2.8579
X2.8228Y-2.9579
X2.9228Y-2.8579
X2.9228Y-2.9579
X3.0228Y-2.8579
X3.0228Y-2.9579
X3.1228Y-2.8579
X3.1228Y-2.9579
X3.2228Y-2.8579
X3.2228Y-2.9579
X3.3228Y-2.8579
X3.3228Y-2.9579
X3.4228Y-2.8579
X3.4228Y-2.9579
X3.5228Y-2.8579
X3.5228Y-2.9579
X3.6228Y-2.8579
X3.6228Y-2.9579
X3.7228Y-2.8579
X3.7228Y-2.9579
X3.8228Y-2.8579
X3.8228Y-2.9579
X3.9228Y-2.8579
X3.9228Y-2.9579
X4.0228Y-2.8579
X4.0228Y-2.9579
X4.1228Y-2.8579
X4.1228Y-2.9579
X4.2228Y-2.8579
X4.2228Y-2.9579
X4.3228Y-2.8579
X4.3228Y-2.9579
X4.4228Y-2.8579
X4.4228Y-2.9579
X4.5228Y-2.8579
X4.5228Y-2.9579
X4.6228Y-2.8579
X4.6228Y-2.9579
X1.7228Y-4.0067
X1.7228Y-4.1067
X1.8228Y-4.0067
X1.8228Y-4.1067
X1.9228Y-4.0067
X1.9228Y-4.1067
X2.0228Y-4.0067
X2.0228Y-4.1067
X2.1228Y-4.0067
X2.1228Y-4.1067
X2.2228Y-4.0067
X2.2228Y-4.1067
X2.3228Y-4.0067
X2.3228Y-4.1067
X2.4228Y-4.0067
X2.4228Y-4.1067
X2.5228Y-4.0067
X2.5228Y-4.1067
X2.6228Y-4.0067
X2.6228Y-4.1067
X2.7228Y-4.0067
X2.7228Y-4.1067
X2.8228Y-4.0067
X2.8228Y-4.1067
X2.9228Y-4.0067
X2.9228Y-4.1067
X3.0228Y-4.0067
X3.0228Y-4.1067
X3.1228Y-4.0067
X3.1228Y-4.1067
X3.2228Y-4.0067
X3.2228Y-4.1067
X3.3228Y-4.0067
X3.3228Y-4.1067
X3.4228Y-4.0067
X3.4228Y-4.1067
X3.5228Y-4.0067
X3.5228Y-4.1067
X3.6228Y-4.0067
X3.6228Y-4.1067
X3.7228Y-4.0067
X3.7228Y-4.1067
X3.8228Y-4.0067
X3.8228Y-4.1067
X3.9228Y-4.0067
X3.9228Y-4.1067
X4.0228Y-4.0067
X4.0228Y-4.1067
X4.1228Y-4.0067
X4.1228Y-4.1067
X4.2228Y-4.0067
X4.2228Y-4.1067
X4.3228Y-4.0067
X4.3228Y-4.1067
X4.4228Y-4.0067
X4.4228Y-4.1067
X4.5228Y-4.0067
X4.5228Y-4.1067
X4.6228Y-4.0067
X4.6228Y-4.1067
T3
X1.687Y-2.4685
X1.687Y-5.0185
T4
X5.2825Y-2.466
X5.2825Y-5.03
T0
M30
