G04 #@! TF.GenerationSoftware,KiCad,Pcbnew,5.0.0-rc2-be01b52~65~ubuntu16.04.1*
G04 #@! TF.CreationDate,2018-06-10T22:33:32-04:00*
G04 #@! TF.ProjectId,meta_breakout,6D6574615F627265616B6F75742E6B69,rev?*
G04 #@! TF.SameCoordinates,Original*
G04 #@! TF.FileFunction,Paste,Top*
G04 #@! TF.FilePolarity,Positive*
%FSLAX46Y46*%
G04 Gerber Fmt 4.6, Leading zero omitted, Abs format (unit mm)*
G04 Created by KiCad (PCBNEW 5.0.0-rc2-be01b52~65~ubuntu16.04.1) date Sun Jun 10 22:33:32 2018*
%MOMM*%
%LPD*%
G01*
G04 APERTURE LIST*
%ADD10R,2.273000X0.279000*%
G04 APERTURE END LIST*
D10*
G04 #@! TO.C,J1*
X134374000Y-115450000D03*
X134374000Y-115950000D03*
X128646000Y-118450000D03*
X128646000Y-115950000D03*
X134374000Y-116450000D03*
X134374000Y-121950000D03*
X128646000Y-116950000D03*
X128646000Y-117950000D03*
X134374000Y-120950000D03*
X134374000Y-118950000D03*
X128646000Y-120450000D03*
X128646000Y-122450000D03*
X134374000Y-118450000D03*
X128646000Y-120950000D03*
X128646000Y-119450000D03*
X128646000Y-121950000D03*
X128646000Y-123950000D03*
X128646000Y-115450000D03*
X134374000Y-122950000D03*
X134374000Y-116950000D03*
X128646000Y-116450000D03*
X134374000Y-119950000D03*
X134374000Y-117950000D03*
X128646000Y-124950000D03*
X134374000Y-117450000D03*
X128646000Y-123450000D03*
X134374000Y-119450000D03*
X134374000Y-121450000D03*
X128646000Y-117450000D03*
X134374000Y-123950000D03*
X128646000Y-121450000D03*
X128646000Y-124450000D03*
X134374000Y-120450000D03*
X134374000Y-123450000D03*
X128646000Y-119950000D03*
X128646000Y-118950000D03*
X134374000Y-124450000D03*
X134374000Y-122450000D03*
X128646000Y-122950000D03*
X134374000Y-124950000D03*
X134374000Y-102950000D03*
X128646000Y-102450000D03*
X128646000Y-111450000D03*
X134374000Y-105950000D03*
X128646000Y-114450000D03*
X134374000Y-112950000D03*
X128646000Y-111950000D03*
X134374000Y-110450000D03*
X128646000Y-105450000D03*
X134374000Y-104950000D03*
X134374000Y-111950000D03*
X134374000Y-110950000D03*
X128646000Y-110950000D03*
X128646000Y-103950000D03*
X128646000Y-108450000D03*
X134374000Y-107450000D03*
X134374000Y-90450000D03*
X134374000Y-90950000D03*
X134374000Y-105450000D03*
X128646000Y-93450000D03*
X134374000Y-103950000D03*
X128646000Y-103450000D03*
X128646000Y-113450000D03*
X128646000Y-104450000D03*
X134374000Y-107950000D03*
X128646000Y-104950000D03*
X128646000Y-109950000D03*
X128646000Y-105950000D03*
X134374000Y-112450000D03*
X134374000Y-103450000D03*
X134374000Y-113450000D03*
X128646000Y-110450000D03*
X128646000Y-107950000D03*
X134374000Y-109950000D03*
X128646000Y-90950000D03*
X134374000Y-113950000D03*
X134374000Y-114450000D03*
X134374000Y-91450000D03*
X134374000Y-96950000D03*
X128646000Y-91950000D03*
X128646000Y-92950000D03*
X134374000Y-95950000D03*
X134374000Y-93950000D03*
X128646000Y-95450000D03*
X128646000Y-97450000D03*
X128646000Y-113950000D03*
X134374000Y-93450000D03*
X128646000Y-95950000D03*
X128646000Y-94450000D03*
X128646000Y-96950000D03*
X128646000Y-98950000D03*
X134374000Y-102450000D03*
X128646000Y-90450000D03*
X134374000Y-97950000D03*
X134374000Y-111450000D03*
X128646000Y-114950000D03*
X134374000Y-91950000D03*
X134374000Y-108450000D03*
X134374000Y-109450000D03*
X134374000Y-106950000D03*
X128646000Y-109450000D03*
X128646000Y-112950000D03*
X128646000Y-112450000D03*
X128646000Y-91450000D03*
X134374000Y-114950000D03*
X128646000Y-107450000D03*
X128646000Y-106950000D03*
X128646000Y-101450000D03*
X134374000Y-101950000D03*
X134374000Y-101450000D03*
X128646000Y-101950000D03*
X134374000Y-94950000D03*
X134374000Y-92950000D03*
X128646000Y-99950000D03*
X134374000Y-92450000D03*
X128646000Y-98450000D03*
X134374000Y-94450000D03*
X134374000Y-96450000D03*
X128646000Y-92450000D03*
X134374000Y-98950000D03*
X128646000Y-96450000D03*
X128646000Y-100450000D03*
X128646000Y-99450000D03*
X134374000Y-95450000D03*
X134374000Y-98450000D03*
X128646000Y-94950000D03*
X128646000Y-93950000D03*
X134374000Y-99450000D03*
X134374000Y-97450000D03*
X128646000Y-97950000D03*
X134374000Y-100450000D03*
X134374000Y-99950000D03*
X134374000Y-106450000D03*
X128646000Y-108950000D03*
X134374000Y-108950000D03*
X134374000Y-100950000D03*
X134374000Y-104450000D03*
X128646000Y-102950000D03*
X128646000Y-100950000D03*
X128646000Y-106450000D03*
X134374000Y-89950000D03*
X128646000Y-89950000D03*
X134374000Y-89450000D03*
X128646000Y-89450000D03*
X134374000Y-88950000D03*
X128646000Y-88950000D03*
X134374000Y-88450000D03*
X128646000Y-88450000D03*
X134374000Y-87950000D03*
X128646000Y-87950000D03*
X134374000Y-87450000D03*
X128646000Y-87450000D03*
X134374000Y-86950000D03*
X128646000Y-86950000D03*
X134374000Y-86450000D03*
X128646000Y-86450000D03*
X134374000Y-85950000D03*
X128646000Y-85950000D03*
X134374000Y-85450000D03*
X128646000Y-85450000D03*
X134374000Y-84950000D03*
X128646000Y-84950000D03*
X134374000Y-84450000D03*
X128646000Y-84450000D03*
X134374000Y-83950000D03*
X128646000Y-83950000D03*
X134374000Y-83450000D03*
X128646000Y-83450000D03*
X134374000Y-82950000D03*
X128646000Y-82950000D03*
X134374000Y-82450000D03*
X128646000Y-82450000D03*
X134374000Y-81950000D03*
X128646000Y-81950000D03*
X134374000Y-81450000D03*
X128646000Y-81450000D03*
X134374000Y-80950000D03*
X128646000Y-80950000D03*
X134374000Y-80450000D03*
X128646000Y-80450000D03*
X134374000Y-79950000D03*
X128646000Y-79950000D03*
X134374000Y-79450000D03*
X128646000Y-79450000D03*
X134374000Y-78950000D03*
X128646000Y-78950000D03*
X134374000Y-78450000D03*
X128646000Y-78450000D03*
X134374000Y-77950000D03*
X128646000Y-77950000D03*
X134374000Y-77450000D03*
X128646000Y-77450000D03*
X134374000Y-76950000D03*
X128646000Y-76950000D03*
X134374000Y-76450000D03*
X128646000Y-76450000D03*
X134374000Y-75950000D03*
X128646000Y-75950000D03*
X134374000Y-75450000D03*
X128646000Y-75450000D03*
X134374000Y-74950000D03*
X128646000Y-74950000D03*
X134374000Y-74450000D03*
X128646000Y-74450000D03*
X134374000Y-73950000D03*
X128646000Y-73950000D03*
X134374000Y-73450000D03*
X128646000Y-73450000D03*
X134374000Y-72950000D03*
X128646000Y-72950000D03*
X134374000Y-72450000D03*
X128646000Y-72450000D03*
X134374000Y-71950000D03*
X128646000Y-71950000D03*
X134374000Y-71450000D03*
X128646000Y-71450000D03*
X134374000Y-70950000D03*
X128646000Y-70950000D03*
X134374000Y-70450000D03*
X128646000Y-70450000D03*
X134374000Y-69950000D03*
X128646000Y-69950000D03*
X134374000Y-69450000D03*
X128646000Y-69450000D03*
X134374000Y-68950000D03*
X128646000Y-68950000D03*
X134374000Y-68450000D03*
X128646000Y-68450000D03*
X134374000Y-67950000D03*
X128646000Y-67950000D03*
X134374000Y-67450000D03*
X128646000Y-67450000D03*
X134374000Y-66950000D03*
X128646000Y-66950000D03*
X134374000Y-66450000D03*
X128646000Y-66450000D03*
X134374000Y-65950000D03*
X128646000Y-65950000D03*
X134374000Y-65450000D03*
X128646000Y-65450000D03*
G04 #@! TD*
M02*
