G04 #@! TF.GenerationSoftware,KiCad,Pcbnew,5.0.0-rc2-be01b52~65~ubuntu16.04.1*
G04 #@! TF.CreationDate,2018-06-10T22:33:32-04:00*
G04 #@! TF.ProjectId,meta_breakout,6D6574615F627265616B6F75742E6B69,rev?*
G04 #@! TF.SameCoordinates,Original*
G04 #@! TF.FileFunction,Copper,L1,Top,Signal*
G04 #@! TF.FilePolarity,Positive*
%FSLAX46Y46*%
G04 Gerber Fmt 4.6, Leading zero omitted, Abs format (unit mm)*
G04 Created by KiCad (PCBNEW 5.0.0-rc2-be01b52~65~ubuntu16.04.1) date Sun Jun 10 22:33:32 2018*
%MOMM*%
%LPD*%
G01*
G04 APERTURE LIST*
G04 #@! TA.AperFunction,ComponentPad*
%ADD10O,1.700000X1.700000*%
G04 #@! TD*
G04 #@! TA.AperFunction,ComponentPad*
%ADD11R,1.700000X1.700000*%
G04 #@! TD*
G04 #@! TA.AperFunction,ComponentPad*
%ADD12C,5.000000*%
G04 #@! TD*
G04 #@! TA.AperFunction,SMDPad,CuDef*
%ADD13R,2.273000X0.279000*%
G04 #@! TD*
G04 #@! TA.AperFunction,ViaPad*
%ADD14C,0.508000*%
G04 #@! TD*
G04 #@! TA.AperFunction,Conductor*
%ADD15C,0.127000*%
G04 #@! TD*
G04 #@! TA.AperFunction,Conductor*
%ADD16C,0.254000*%
G04 #@! TD*
G04 #@! TA.AperFunction,Conductor*
%ADD17C,0.226060*%
G04 #@! TD*
G04 APERTURE END LIST*
D10*
G04 #@! TO.P,J5,60*
G04 #@! TO.N,/CTRL_OUT3*
X43760000Y-118900000D03*
G04 #@! TO.P,J5,59*
G04 #@! TO.N,/CTRL_IN3*
X43760000Y-116360000D03*
G04 #@! TO.P,J5,58*
G04 #@! TO.N,/DATA_OUT_P31*
X46300000Y-118900000D03*
G04 #@! TO.P,J5,57*
G04 #@! TO.N,/DATA_IN_P31*
X46300000Y-116360000D03*
G04 #@! TO.P,J5,56*
G04 #@! TO.N,/DATA_OUT_N31*
X48840000Y-118900000D03*
G04 #@! TO.P,J5,55*
G04 #@! TO.N,/DATA_IN_N31*
X48840000Y-116360000D03*
G04 #@! TO.P,J5,54*
G04 #@! TO.N,/DATA_OUT_P30*
X51380000Y-118900000D03*
G04 #@! TO.P,J5,53*
G04 #@! TO.N,/DATA_IN_P30*
X51380000Y-116360000D03*
G04 #@! TO.P,J5,52*
G04 #@! TO.N,/DATA_OUT_N30*
X53920000Y-118900000D03*
G04 #@! TO.P,J5,51*
G04 #@! TO.N,/DATA_IN_N30*
X53920000Y-116360000D03*
G04 #@! TO.P,J5,50*
G04 #@! TO.N,/GND*
X56460000Y-118900000D03*
G04 #@! TO.P,J5,49*
X56460000Y-116360000D03*
G04 #@! TO.P,J5,48*
G04 #@! TO.N,/DATA_OUT_P29*
X59000000Y-118900000D03*
G04 #@! TO.P,J5,47*
G04 #@! TO.N,/DATA_IN_P29*
X59000000Y-116360000D03*
G04 #@! TO.P,J5,46*
G04 #@! TO.N,/DATA_OUT_N29*
X61540000Y-118900000D03*
G04 #@! TO.P,J5,45*
G04 #@! TO.N,/DATA_IN_N29*
X61540000Y-116360000D03*
G04 #@! TO.P,J5,44*
G04 #@! TO.N,/DATA_OUT_P28*
X64080000Y-118900000D03*
G04 #@! TO.P,J5,43*
G04 #@! TO.N,/DATA_IN_P28*
X64080000Y-116360000D03*
G04 #@! TO.P,J5,42*
G04 #@! TO.N,/DATA_OUT_N28*
X66620000Y-118900000D03*
G04 #@! TO.P,J5,41*
G04 #@! TO.N,/DATA_IN_N28*
X66620000Y-116360000D03*
G04 #@! TO.P,J5,40*
G04 #@! TO.N,/VDDIO3*
X69160000Y-118900000D03*
G04 #@! TO.P,J5,39*
X69160000Y-116360000D03*
G04 #@! TO.P,J5,38*
G04 #@! TO.N,/DATA_OUT_P27*
X71700000Y-118900000D03*
G04 #@! TO.P,J5,37*
G04 #@! TO.N,/DATA_IN_P27*
X71700000Y-116360000D03*
G04 #@! TO.P,J5,36*
G04 #@! TO.N,/DATA_OUT_N27*
X74240000Y-118900000D03*
G04 #@! TO.P,J5,35*
G04 #@! TO.N,/DATA_IN_N27*
X74240000Y-116360000D03*
G04 #@! TO.P,J5,34*
G04 #@! TO.N,/DATA_OUT_P26*
X76780000Y-118900000D03*
G04 #@! TO.P,J5,33*
G04 #@! TO.N,/DATA_IN_P26*
X76780000Y-116360000D03*
G04 #@! TO.P,J5,32*
G04 #@! TO.N,/DATA_OUT_N26*
X79320000Y-118900000D03*
G04 #@! TO.P,J5,31*
G04 #@! TO.N,/DATA_IN_N26*
X79320000Y-116360000D03*
G04 #@! TO.P,J5,30*
G04 #@! TO.N,/GND*
X81860000Y-118900000D03*
G04 #@! TO.P,J5,29*
X81860000Y-116360000D03*
G04 #@! TO.P,J5,28*
G04 #@! TO.N,/DATA_OUT_P25*
X84400000Y-118900000D03*
G04 #@! TO.P,J5,27*
G04 #@! TO.N,/DATA_IN_P25*
X84400000Y-116360000D03*
G04 #@! TO.P,J5,26*
G04 #@! TO.N,/DATA_OUT_N25*
X86940000Y-118900000D03*
G04 #@! TO.P,J5,25*
G04 #@! TO.N,/DATA_IN_N25*
X86940000Y-116360000D03*
G04 #@! TO.P,J5,24*
G04 #@! TO.N,/DATA_OUT_P24*
X89480000Y-118900000D03*
G04 #@! TO.P,J5,23*
G04 #@! TO.N,/DATA_IN_P24*
X89480000Y-116360000D03*
G04 #@! TO.P,J5,22*
G04 #@! TO.N,/DATA_OUT_N24*
X92020000Y-118900000D03*
G04 #@! TO.P,J5,21*
G04 #@! TO.N,/DATA_IN_N24*
X92020000Y-116360000D03*
G04 #@! TO.P,J5,20*
G04 #@! TO.N,/VDD3*
X94560000Y-118900000D03*
G04 #@! TO.P,J5,19*
X94560000Y-116360000D03*
G04 #@! TO.P,J5,18*
G04 #@! TO.N,/WAIT_RD_IN_P3*
X97100000Y-118900000D03*
G04 #@! TO.P,J5,17*
G04 #@! TO.N,/WAIT_RD_OUT_P3*
X97100000Y-116360000D03*
G04 #@! TO.P,J5,16*
G04 #@! TO.N,/WAIT_RD_IN_N3*
X99640000Y-118900000D03*
G04 #@! TO.P,J5,15*
G04 #@! TO.N,/WAIT_RD_OUT_N3*
X99640000Y-116360000D03*
G04 #@! TO.P,J5,14*
G04 #@! TO.N,/WAIT_WR_IN_P3*
X102180000Y-118900000D03*
G04 #@! TO.P,J5,13*
G04 #@! TO.N,/WAIT_WR_OUT_P3*
X102180000Y-116360000D03*
G04 #@! TO.P,J5,12*
G04 #@! TO.N,/WAIT_WR_IN_N3*
X104720000Y-118900000D03*
G04 #@! TO.P,J5,11*
G04 #@! TO.N,/WAIT_WR_OUT_N3*
X104720000Y-116360000D03*
G04 #@! TO.P,J5,10*
G04 #@! TO.N,/GND*
X107260000Y-118900000D03*
G04 #@! TO.P,J5,9*
X107260000Y-116360000D03*
G04 #@! TO.P,J5,8*
G04 #@! TO.N,/FRAME_OUT_P3*
X109800000Y-118900000D03*
G04 #@! TO.P,J5,7*
G04 #@! TO.N,/FRAME_IN_P3*
X109800000Y-116360000D03*
G04 #@! TO.P,J5,6*
G04 #@! TO.N,/FRAME_OUT_N3*
X112340000Y-118900000D03*
G04 #@! TO.P,J5,5*
G04 #@! TO.N,/FRAME_IN_N3*
X112340000Y-116360000D03*
G04 #@! TO.P,J5,4*
G04 #@! TO.N,/LCLK_OUT_P3*
X114880000Y-118900000D03*
G04 #@! TO.P,J5,3*
G04 #@! TO.N,/LCLK_IN_P3*
X114880000Y-116360000D03*
G04 #@! TO.P,J5,2*
G04 #@! TO.N,/LCLK_OUT_N3*
X117420000Y-118900000D03*
D11*
G04 #@! TO.P,J5,1*
G04 #@! TO.N,/LCLK_IN_N3*
X117420000Y-116360000D03*
G04 #@! TD*
D10*
G04 #@! TO.P,J4,60*
G04 #@! TO.N,/CTRL_OUT2*
X43760000Y-104310000D03*
G04 #@! TO.P,J4,59*
G04 #@! TO.N,/CTRL_IN2*
X43760000Y-101770000D03*
G04 #@! TO.P,J4,58*
G04 #@! TO.N,/DATA_OUT_P23*
X46300000Y-104310000D03*
G04 #@! TO.P,J4,57*
G04 #@! TO.N,/DATA_IN_P23*
X46300000Y-101770000D03*
G04 #@! TO.P,J4,56*
G04 #@! TO.N,/DATA_OUT_N23*
X48840000Y-104310000D03*
G04 #@! TO.P,J4,55*
G04 #@! TO.N,/DATA_IN_N23*
X48840000Y-101770000D03*
G04 #@! TO.P,J4,54*
G04 #@! TO.N,/DATA_OUT_P22*
X51380000Y-104310000D03*
G04 #@! TO.P,J4,53*
G04 #@! TO.N,/DATA_IN_P22*
X51380000Y-101770000D03*
G04 #@! TO.P,J4,52*
G04 #@! TO.N,/DATA_OUT_N22*
X53920000Y-104310000D03*
G04 #@! TO.P,J4,51*
G04 #@! TO.N,/DATA_IN_N22*
X53920000Y-101770000D03*
G04 #@! TO.P,J4,50*
G04 #@! TO.N,/GND*
X56460000Y-104310000D03*
G04 #@! TO.P,J4,49*
X56460000Y-101770000D03*
G04 #@! TO.P,J4,48*
G04 #@! TO.N,/DATA_OUT_P21*
X59000000Y-104310000D03*
G04 #@! TO.P,J4,47*
G04 #@! TO.N,/DATA_IN_P21*
X59000000Y-101770000D03*
G04 #@! TO.P,J4,46*
G04 #@! TO.N,/DATA_OUT_N21*
X61540000Y-104310000D03*
G04 #@! TO.P,J4,45*
G04 #@! TO.N,/DATA_IN_N21*
X61540000Y-101770000D03*
G04 #@! TO.P,J4,44*
G04 #@! TO.N,/DATA_OUT_P20*
X64080000Y-104310000D03*
G04 #@! TO.P,J4,43*
G04 #@! TO.N,/DATA_IN_P20*
X64080000Y-101770000D03*
G04 #@! TO.P,J4,42*
G04 #@! TO.N,/DATA_OUT_N20*
X66620000Y-104310000D03*
G04 #@! TO.P,J4,41*
G04 #@! TO.N,/DATA_IN_N20*
X66620000Y-101770000D03*
G04 #@! TO.P,J4,40*
G04 #@! TO.N,/VDDIO2*
X69160000Y-104310000D03*
G04 #@! TO.P,J4,39*
X69160000Y-101770000D03*
G04 #@! TO.P,J4,38*
G04 #@! TO.N,/DATA_OUT_P19*
X71700000Y-104310000D03*
G04 #@! TO.P,J4,37*
G04 #@! TO.N,/DATA_IN_P19*
X71700000Y-101770000D03*
G04 #@! TO.P,J4,36*
G04 #@! TO.N,/DATA_OUT_N19*
X74240000Y-104310000D03*
G04 #@! TO.P,J4,35*
G04 #@! TO.N,/DATA_IN_N19*
X74240000Y-101770000D03*
G04 #@! TO.P,J4,34*
G04 #@! TO.N,/DATA_OUT_P18*
X76780000Y-104310000D03*
G04 #@! TO.P,J4,33*
G04 #@! TO.N,/DATA_IN_P18*
X76780000Y-101770000D03*
G04 #@! TO.P,J4,32*
G04 #@! TO.N,/DATA_OUT_N18*
X79320000Y-104310000D03*
G04 #@! TO.P,J4,31*
G04 #@! TO.N,/DATA_IN_N18*
X79320000Y-101770000D03*
G04 #@! TO.P,J4,30*
G04 #@! TO.N,/GND*
X81860000Y-104310000D03*
G04 #@! TO.P,J4,29*
X81860000Y-101770000D03*
G04 #@! TO.P,J4,28*
G04 #@! TO.N,/DATA_OUT_P17*
X84400000Y-104310000D03*
G04 #@! TO.P,J4,27*
G04 #@! TO.N,/DATA_IN_P17*
X84400000Y-101770000D03*
G04 #@! TO.P,J4,26*
G04 #@! TO.N,/DATA_OUT_N17*
X86940000Y-104310000D03*
G04 #@! TO.P,J4,25*
G04 #@! TO.N,/DATA_IN_N17*
X86940000Y-101770000D03*
G04 #@! TO.P,J4,24*
G04 #@! TO.N,/DATA_OUT_P16*
X89480000Y-104310000D03*
G04 #@! TO.P,J4,23*
G04 #@! TO.N,/DATA_IN_P16*
X89480000Y-101770000D03*
G04 #@! TO.P,J4,22*
G04 #@! TO.N,/DATA_OUT_N16*
X92020000Y-104310000D03*
G04 #@! TO.P,J4,21*
G04 #@! TO.N,/DATA_IN_N16*
X92020000Y-101770000D03*
G04 #@! TO.P,J4,20*
G04 #@! TO.N,/VDD2*
X94560000Y-104310000D03*
G04 #@! TO.P,J4,19*
X94560000Y-101770000D03*
G04 #@! TO.P,J4,18*
G04 #@! TO.N,/WAIT_RD_IN_P2*
X97100000Y-104310000D03*
G04 #@! TO.P,J4,17*
G04 #@! TO.N,/WAIT_RD_OUT_P2*
X97100000Y-101770000D03*
G04 #@! TO.P,J4,16*
G04 #@! TO.N,/WAIT_RD_IN_N2*
X99640000Y-104310000D03*
G04 #@! TO.P,J4,15*
G04 #@! TO.N,/WAIT_RD_OUT_N2*
X99640000Y-101770000D03*
G04 #@! TO.P,J4,14*
G04 #@! TO.N,/WAIT_WR_IN_P2*
X102180000Y-104310000D03*
G04 #@! TO.P,J4,13*
G04 #@! TO.N,/WAIT_WR_OUT_P2*
X102180000Y-101770000D03*
G04 #@! TO.P,J4,12*
G04 #@! TO.N,/WAIT_WR_IN_N2*
X104720000Y-104310000D03*
G04 #@! TO.P,J4,11*
G04 #@! TO.N,/WAIT_WR_OUT_N2*
X104720000Y-101770000D03*
G04 #@! TO.P,J4,10*
G04 #@! TO.N,/GND*
X107260000Y-104310000D03*
G04 #@! TO.P,J4,9*
X107260000Y-101770000D03*
G04 #@! TO.P,J4,8*
G04 #@! TO.N,/FRAME_OUT_P2*
X109800000Y-104310000D03*
G04 #@! TO.P,J4,7*
G04 #@! TO.N,/FRAME_IN_P2*
X109800000Y-101770000D03*
G04 #@! TO.P,J4,6*
G04 #@! TO.N,/FRAME_OUT_N2*
X112340000Y-104310000D03*
G04 #@! TO.P,J4,5*
G04 #@! TO.N,/FRAME_IN_N2*
X112340000Y-101770000D03*
G04 #@! TO.P,J4,4*
G04 #@! TO.N,/LCLK_OUT_P2*
X114880000Y-104310000D03*
G04 #@! TO.P,J4,3*
G04 #@! TO.N,/LCLK_IN_P2*
X114880000Y-101770000D03*
G04 #@! TO.P,J4,2*
G04 #@! TO.N,/LCLK_OUT_N2*
X117420000Y-104310000D03*
D11*
G04 #@! TO.P,J4,1*
G04 #@! TO.N,/LCLK_IN_N2*
X117420000Y-101770000D03*
G04 #@! TD*
D10*
G04 #@! TO.P,J3,60*
G04 #@! TO.N,/CTRL_OUT1*
X43760000Y-89720000D03*
G04 #@! TO.P,J3,59*
G04 #@! TO.N,/CTRL_IN1*
X43760000Y-87180000D03*
G04 #@! TO.P,J3,58*
G04 #@! TO.N,/DATA_OUT_P15*
X46300000Y-89720000D03*
G04 #@! TO.P,J3,57*
G04 #@! TO.N,/DATA_IN_P15*
X46300000Y-87180000D03*
G04 #@! TO.P,J3,56*
G04 #@! TO.N,/DATA_OUT_N15*
X48840000Y-89720000D03*
G04 #@! TO.P,J3,55*
G04 #@! TO.N,/DATA_IN_N15*
X48840000Y-87180000D03*
G04 #@! TO.P,J3,54*
G04 #@! TO.N,/DATA_OUT_P14*
X51380000Y-89720000D03*
G04 #@! TO.P,J3,53*
G04 #@! TO.N,/DATA_IN_P14*
X51380000Y-87180000D03*
G04 #@! TO.P,J3,52*
G04 #@! TO.N,/DATA_OUT_N14*
X53920000Y-89720000D03*
G04 #@! TO.P,J3,51*
G04 #@! TO.N,/DATA_IN_N14*
X53920000Y-87180000D03*
G04 #@! TO.P,J3,50*
G04 #@! TO.N,/GND*
X56460000Y-89720000D03*
G04 #@! TO.P,J3,49*
X56460000Y-87180000D03*
G04 #@! TO.P,J3,48*
G04 #@! TO.N,/DATA_OUT_P13*
X59000000Y-89720000D03*
G04 #@! TO.P,J3,47*
G04 #@! TO.N,/DATA_IN_P13*
X59000000Y-87180000D03*
G04 #@! TO.P,J3,46*
G04 #@! TO.N,/DATA_OUT_N13*
X61540000Y-89720000D03*
G04 #@! TO.P,J3,45*
G04 #@! TO.N,/DATA_IN_N13*
X61540000Y-87180000D03*
G04 #@! TO.P,J3,44*
G04 #@! TO.N,/DATA_OUT_P12*
X64080000Y-89720000D03*
G04 #@! TO.P,J3,43*
G04 #@! TO.N,/DATA_IN_P12*
X64080000Y-87180000D03*
G04 #@! TO.P,J3,42*
G04 #@! TO.N,/DATA_OUT_N12*
X66620000Y-89720000D03*
G04 #@! TO.P,J3,41*
G04 #@! TO.N,/DATA_IN_N12*
X66620000Y-87180000D03*
G04 #@! TO.P,J3,40*
G04 #@! TO.N,/VDDIO1*
X69160000Y-89720000D03*
G04 #@! TO.P,J3,39*
X69160000Y-87180000D03*
G04 #@! TO.P,J3,38*
G04 #@! TO.N,/DATA_OUT_P11*
X71700000Y-89720000D03*
G04 #@! TO.P,J3,37*
G04 #@! TO.N,/DATA_IN_P11*
X71700000Y-87180000D03*
G04 #@! TO.P,J3,36*
G04 #@! TO.N,/DATA_OUT_N11*
X74240000Y-89720000D03*
G04 #@! TO.P,J3,35*
G04 #@! TO.N,/DATA_IN_N11*
X74240000Y-87180000D03*
G04 #@! TO.P,J3,34*
G04 #@! TO.N,/DATA_OUT_P10*
X76780000Y-89720000D03*
G04 #@! TO.P,J3,33*
G04 #@! TO.N,/DATA_IN_P10*
X76780000Y-87180000D03*
G04 #@! TO.P,J3,32*
G04 #@! TO.N,/DATA_OUT_N10*
X79320000Y-89720000D03*
G04 #@! TO.P,J3,31*
G04 #@! TO.N,/DATA_IN_N10*
X79320000Y-87180000D03*
G04 #@! TO.P,J3,30*
G04 #@! TO.N,/GND*
X81860000Y-89720000D03*
G04 #@! TO.P,J3,29*
X81860000Y-87180000D03*
G04 #@! TO.P,J3,28*
G04 #@! TO.N,/DATA_OUT_P9*
X84400000Y-89720000D03*
G04 #@! TO.P,J3,27*
G04 #@! TO.N,/DATA_IN_P9*
X84400000Y-87180000D03*
G04 #@! TO.P,J3,26*
G04 #@! TO.N,/DATA_OUT_N9*
X86940000Y-89720000D03*
G04 #@! TO.P,J3,25*
G04 #@! TO.N,/DATA_IN_N9*
X86940000Y-87180000D03*
G04 #@! TO.P,J3,24*
G04 #@! TO.N,/DATA_OUT_P8*
X89480000Y-89720000D03*
G04 #@! TO.P,J3,23*
G04 #@! TO.N,/DATA_IN_P8*
X89480000Y-87180000D03*
G04 #@! TO.P,J3,22*
G04 #@! TO.N,/DATA_OUT_N8*
X92020000Y-89720000D03*
G04 #@! TO.P,J3,21*
G04 #@! TO.N,/DATA_IN_N8*
X92020000Y-87180000D03*
G04 #@! TO.P,J3,20*
G04 #@! TO.N,/VDD1*
X94560000Y-89720000D03*
G04 #@! TO.P,J3,19*
X94560000Y-87180000D03*
G04 #@! TO.P,J3,18*
G04 #@! TO.N,/WAIT_RD_IN_P1*
X97100000Y-89720000D03*
G04 #@! TO.P,J3,17*
G04 #@! TO.N,/WAIT_RD_OUT_P1*
X97100000Y-87180000D03*
G04 #@! TO.P,J3,16*
G04 #@! TO.N,/WAIT_RD_IN_N1*
X99640000Y-89720000D03*
G04 #@! TO.P,J3,15*
G04 #@! TO.N,/WAIT_RD_OUT_N1*
X99640000Y-87180000D03*
G04 #@! TO.P,J3,14*
G04 #@! TO.N,/WAIT_WR_IN_P1*
X102180000Y-89720000D03*
G04 #@! TO.P,J3,13*
G04 #@! TO.N,/WAIT_WR_OUT_P1*
X102180000Y-87180000D03*
G04 #@! TO.P,J3,12*
G04 #@! TO.N,/WAIT_WR_IN_N1*
X104720000Y-89720000D03*
G04 #@! TO.P,J3,11*
G04 #@! TO.N,/WAIT_WR_OUT_N1*
X104720000Y-87180000D03*
G04 #@! TO.P,J3,10*
G04 #@! TO.N,/GND*
X107260000Y-89720000D03*
G04 #@! TO.P,J3,9*
X107260000Y-87180000D03*
G04 #@! TO.P,J3,8*
G04 #@! TO.N,/FRAME_OUT_P1*
X109800000Y-89720000D03*
G04 #@! TO.P,J3,7*
G04 #@! TO.N,/FRAME_IN_P1*
X109800000Y-87180000D03*
G04 #@! TO.P,J3,6*
G04 #@! TO.N,/FRAME_OUT_N1*
X112340000Y-89720000D03*
G04 #@! TO.P,J3,5*
G04 #@! TO.N,/FRAME_IN_N1*
X112340000Y-87180000D03*
G04 #@! TO.P,J3,4*
G04 #@! TO.N,/LCLK_OUT_P1*
X114880000Y-89720000D03*
G04 #@! TO.P,J3,3*
G04 #@! TO.N,/LCLK_IN_P1*
X114880000Y-87180000D03*
G04 #@! TO.P,J3,2*
G04 #@! TO.N,/LCLK_OUT_N1*
X117420000Y-89720000D03*
D11*
G04 #@! TO.P,J3,1*
G04 #@! TO.N,/LCLK_IN_N1*
X117420000Y-87180000D03*
G04 #@! TD*
D10*
G04 #@! TO.P,J2,60*
G04 #@! TO.N,/CTRL_OUT0*
X43760000Y-75130000D03*
G04 #@! TO.P,J2,59*
G04 #@! TO.N,/CTRL_IN0*
X43760000Y-72590000D03*
G04 #@! TO.P,J2,58*
G04 #@! TO.N,/DATA_OUT_P7*
X46300000Y-75130000D03*
G04 #@! TO.P,J2,57*
G04 #@! TO.N,/DATA_IN_P7*
X46300000Y-72590000D03*
G04 #@! TO.P,J2,56*
G04 #@! TO.N,/DATA_OUT_N7*
X48840000Y-75130000D03*
G04 #@! TO.P,J2,55*
G04 #@! TO.N,/DATA_IN_N7*
X48840000Y-72590000D03*
G04 #@! TO.P,J2,54*
G04 #@! TO.N,/DATA_OUT_P6*
X51380000Y-75130000D03*
G04 #@! TO.P,J2,53*
G04 #@! TO.N,/DATA_IN_P6*
X51380000Y-72590000D03*
G04 #@! TO.P,J2,52*
G04 #@! TO.N,/DATA_OUT_N6*
X53920000Y-75130000D03*
G04 #@! TO.P,J2,51*
G04 #@! TO.N,/DATA_IN_N6*
X53920000Y-72590000D03*
G04 #@! TO.P,J2,50*
G04 #@! TO.N,/GND*
X56460000Y-75130000D03*
G04 #@! TO.P,J2,49*
X56460000Y-72590000D03*
G04 #@! TO.P,J2,48*
G04 #@! TO.N,/DATA_OUT_P5*
X59000000Y-75130000D03*
G04 #@! TO.P,J2,47*
G04 #@! TO.N,/DATA_IN_P5*
X59000000Y-72590000D03*
G04 #@! TO.P,J2,46*
G04 #@! TO.N,/DATA_OUT_N5*
X61540000Y-75130000D03*
G04 #@! TO.P,J2,45*
G04 #@! TO.N,/DATA_IN_N5*
X61540000Y-72590000D03*
G04 #@! TO.P,J2,44*
G04 #@! TO.N,/DATA_OUT_P4*
X64080000Y-75130000D03*
G04 #@! TO.P,J2,43*
G04 #@! TO.N,/DATA_IN_P4*
X64080000Y-72590000D03*
G04 #@! TO.P,J2,42*
G04 #@! TO.N,/DATA_OUT_N4*
X66620000Y-75130000D03*
G04 #@! TO.P,J2,41*
G04 #@! TO.N,/DATA_IN_N4*
X66620000Y-72590000D03*
G04 #@! TO.P,J2,40*
G04 #@! TO.N,/VDDIO0*
X69160000Y-75130000D03*
G04 #@! TO.P,J2,39*
X69160000Y-72590000D03*
G04 #@! TO.P,J2,38*
G04 #@! TO.N,/DATA_OUT_P3*
X71700000Y-75130000D03*
G04 #@! TO.P,J2,37*
G04 #@! TO.N,/DATA_IN_P3*
X71700000Y-72590000D03*
G04 #@! TO.P,J2,36*
G04 #@! TO.N,/DATA_OUT_N3*
X74240000Y-75130000D03*
G04 #@! TO.P,J2,35*
G04 #@! TO.N,/DATA_IN_N3*
X74240000Y-72590000D03*
G04 #@! TO.P,J2,34*
G04 #@! TO.N,/DATA_OUT_P2*
X76780000Y-75130000D03*
G04 #@! TO.P,J2,33*
G04 #@! TO.N,/DATA_IN_P2*
X76780000Y-72590000D03*
G04 #@! TO.P,J2,32*
G04 #@! TO.N,/DATA_OUT_N2*
X79320000Y-75130000D03*
G04 #@! TO.P,J2,31*
G04 #@! TO.N,/DATA_IN_N2*
X79320000Y-72590000D03*
G04 #@! TO.P,J2,30*
G04 #@! TO.N,/GND*
X81860000Y-75130000D03*
G04 #@! TO.P,J2,29*
X81860000Y-72590000D03*
G04 #@! TO.P,J2,28*
G04 #@! TO.N,/DATA_OUT_P1*
X84400000Y-75130000D03*
G04 #@! TO.P,J2,27*
G04 #@! TO.N,/DATA_IN_P1*
X84400000Y-72590000D03*
G04 #@! TO.P,J2,26*
G04 #@! TO.N,/DATA_OUT_N1*
X86940000Y-75130000D03*
G04 #@! TO.P,J2,25*
G04 #@! TO.N,/DATA_IN_N1*
X86940000Y-72590000D03*
G04 #@! TO.P,J2,24*
G04 #@! TO.N,/DATA_OUT_P0*
X89480000Y-75130000D03*
G04 #@! TO.P,J2,23*
G04 #@! TO.N,/DATA_IN_P0*
X89480000Y-72590000D03*
G04 #@! TO.P,J2,22*
G04 #@! TO.N,/DATA_OUT_N0*
X92020000Y-75130000D03*
G04 #@! TO.P,J2,21*
G04 #@! TO.N,/DATA_IN_N0*
X92020000Y-72590000D03*
G04 #@! TO.P,J2,20*
G04 #@! TO.N,/VDD0*
X94560000Y-75130000D03*
G04 #@! TO.P,J2,19*
X94560000Y-72590000D03*
G04 #@! TO.P,J2,18*
G04 #@! TO.N,/WAIT_RD_IN_P0*
X97100000Y-75130000D03*
G04 #@! TO.P,J2,17*
G04 #@! TO.N,/WAIT_RD_OUT_P0*
X97100000Y-72590000D03*
G04 #@! TO.P,J2,16*
G04 #@! TO.N,/WAIT_RD_IN_N0*
X99640000Y-75130000D03*
G04 #@! TO.P,J2,15*
G04 #@! TO.N,/WAIT_RD_OUT_N0*
X99640000Y-72590000D03*
G04 #@! TO.P,J2,14*
G04 #@! TO.N,/WAIT_WR_IN_P0*
X102180000Y-75130000D03*
G04 #@! TO.P,J2,13*
G04 #@! TO.N,/WAIT_WR_OUT_P0*
X102180000Y-72590000D03*
G04 #@! TO.P,J2,12*
G04 #@! TO.N,/WAIT_WR_IN_N0*
X104720000Y-75130000D03*
G04 #@! TO.P,J2,11*
G04 #@! TO.N,/WAIT_WR_OUT_N0*
X104720000Y-72590000D03*
G04 #@! TO.P,J2,10*
G04 #@! TO.N,/GND*
X107260000Y-75130000D03*
G04 #@! TO.P,J2,9*
X107260000Y-72590000D03*
G04 #@! TO.P,J2,8*
G04 #@! TO.N,/FRAME_OUT_P0*
X109800000Y-75130000D03*
G04 #@! TO.P,J2,7*
G04 #@! TO.N,/FRAME_IN_P0*
X109800000Y-72590000D03*
G04 #@! TO.P,J2,6*
G04 #@! TO.N,/FRAME_OUT_N0*
X112340000Y-75130000D03*
G04 #@! TO.P,J2,5*
G04 #@! TO.N,/FRAME_IN_N0*
X112340000Y-72590000D03*
G04 #@! TO.P,J2,4*
G04 #@! TO.N,/LCLK_OUT_P0*
X114880000Y-75130000D03*
G04 #@! TO.P,J2,3*
G04 #@! TO.N,/LCLK_IN_P0*
X114880000Y-72590000D03*
G04 #@! TO.P,J2,2*
G04 #@! TO.N,/LCLK_OUT_N0*
X117420000Y-75130000D03*
D11*
G04 #@! TO.P,J2,1*
G04 #@! TO.N,/LCLK_IN_N0*
X117420000Y-72590000D03*
G04 #@! TD*
D12*
G04 #@! TO.P,REF\002A\002A,1*
G04 #@! TO.N,N/C*
X42850000Y-127470000D03*
G04 #@! TD*
D13*
G04 #@! TO.P,J1,202*
G04 #@! TO.N,/DATA_OUT_N24*
X134374000Y-115450000D03*
G04 #@! TO.P,J1,204*
G04 #@! TO.N,/DATA_OUT_P24*
X134374000Y-115950000D03*
G04 #@! TO.P,J1,213*
G04 #@! TO.N,/DATA_IN_P26*
X128646000Y-118450000D03*
G04 #@! TO.P,J1,203*
G04 #@! TO.N,/DATA_IN_P24*
X128646000Y-115950000D03*
G04 #@! TO.P,J1,206*
G04 #@! TO.N,/DATA_OUT_N25*
X134374000Y-116450000D03*
G04 #@! TO.P,J1,228*
G04 #@! TO.N,/DATA_OUT_P29*
X134374000Y-121950000D03*
G04 #@! TO.P,J1,207*
G04 #@! TO.N,/DATA_IN_P25*
X128646000Y-116950000D03*
G04 #@! TO.P,J1,211*
G04 #@! TO.N,/DATA_IN_N26*
X128646000Y-117950000D03*
G04 #@! TO.P,J1,224*
G04 #@! TO.N,/DATA_OUT_P28*
X134374000Y-120950000D03*
G04 #@! TO.P,J1,216*
G04 #@! TO.N,/DATA_OUT_N27*
X134374000Y-118950000D03*
G04 #@! TO.P,J1,221*
G04 #@! TO.N,/DATA_IN_N28*
X128646000Y-120450000D03*
G04 #@! TO.P,J1,229*
G04 #@! TO.N,/GND*
X128646000Y-122450000D03*
G04 #@! TO.P,J1,214*
G04 #@! TO.N,/DATA_OUT_P26*
X134374000Y-118450000D03*
G04 #@! TO.P,J1,223*
G04 #@! TO.N,/DATA_IN_P28*
X128646000Y-120950000D03*
G04 #@! TO.P,J1,217*
G04 #@! TO.N,/DATA_IN_P27*
X128646000Y-119450000D03*
G04 #@! TO.P,J1,227*
G04 #@! TO.N,/DATA_IN_P29*
X128646000Y-121950000D03*
G04 #@! TO.P,J1,235*
G04 #@! TO.N,/DATA_IN_N31*
X128646000Y-123950000D03*
G04 #@! TO.P,J1,201*
G04 #@! TO.N,/DATA_IN_N24*
X128646000Y-115450000D03*
G04 #@! TO.P,J1,232*
G04 #@! TO.N,/DATA_OUT_N30*
X134374000Y-122950000D03*
G04 #@! TO.P,J1,208*
G04 #@! TO.N,/DATA_OUT_P25*
X134374000Y-116950000D03*
G04 #@! TO.P,J1,205*
G04 #@! TO.N,/DATA_IN_N25*
X128646000Y-116450000D03*
G04 #@! TO.P,J1,220*
G04 #@! TO.N,/VDDIO3*
X134374000Y-119950000D03*
G04 #@! TO.P,J1,212*
G04 #@! TO.N,/DATA_OUT_N26*
X134374000Y-117950000D03*
G04 #@! TO.P,J1,239*
G04 #@! TO.N,/CTRL_IN3*
X128646000Y-124950000D03*
G04 #@! TO.P,J1,210*
G04 #@! TO.N,/GND*
X134374000Y-117450000D03*
G04 #@! TO.P,J1,233*
G04 #@! TO.N,/DATA_IN_P30*
X128646000Y-123450000D03*
G04 #@! TO.P,J1,218*
G04 #@! TO.N,/DATA_OUT_P27*
X134374000Y-119450000D03*
G04 #@! TO.P,J1,226*
G04 #@! TO.N,/DATA_OUT_N29*
X134374000Y-121450000D03*
G04 #@! TO.P,J1,209*
G04 #@! TO.N,/GND*
X128646000Y-117450000D03*
G04 #@! TO.P,J1,236*
G04 #@! TO.N,/DATA_OUT_N31*
X134374000Y-123950000D03*
G04 #@! TO.P,J1,225*
G04 #@! TO.N,/DATA_IN_N29*
X128646000Y-121450000D03*
G04 #@! TO.P,J1,237*
G04 #@! TO.N,/DATA_IN_P31*
X128646000Y-124450000D03*
G04 #@! TO.P,J1,222*
G04 #@! TO.N,/DATA_OUT_N28*
X134374000Y-120450000D03*
G04 #@! TO.P,J1,234*
G04 #@! TO.N,/DATA_OUT_P30*
X134374000Y-123450000D03*
G04 #@! TO.P,J1,219*
G04 #@! TO.N,/VDDIO3*
X128646000Y-119950000D03*
G04 #@! TO.P,J1,215*
G04 #@! TO.N,/DATA_IN_N27*
X128646000Y-118950000D03*
G04 #@! TO.P,J1,238*
G04 #@! TO.N,/DATA_OUT_P31*
X134374000Y-124450000D03*
G04 #@! TO.P,J1,230*
G04 #@! TO.N,/GND*
X134374000Y-122450000D03*
G04 #@! TO.P,J1,231*
G04 #@! TO.N,/DATA_IN_N30*
X128646000Y-122950000D03*
G04 #@! TO.P,J1,240*
G04 #@! TO.N,/CTRL_OUT3*
X134374000Y-124950000D03*
G04 #@! TO.P,J1,152*
G04 #@! TO.N,/DATA_OUT_N18*
X134374000Y-102950000D03*
G04 #@! TO.P,J1,149*
G04 #@! TO.N,/GND*
X128646000Y-102450000D03*
G04 #@! TO.P,J1,185*
G04 #@! TO.N,/FRAME_IN_N3*
X128646000Y-111450000D03*
G04 #@! TO.P,J1,164*
G04 #@! TO.N,/DATA_OUT_P20*
X134374000Y-105950000D03*
G04 #@! TO.P,J1,197*
G04 #@! TO.N,/WAIT_RD_OUT_P3*
X128646000Y-114450000D03*
G04 #@! TO.P,J1,192*
G04 #@! TO.N,/WAIT_WR_IN_N3*
X134374000Y-112950000D03*
G04 #@! TO.P,J1,187*
G04 #@! TO.N,/FRAME_IN_P3*
X128646000Y-111950000D03*
G04 #@! TO.P,J1,182*
G04 #@! TO.N,/LCLK_OUT_N3*
X134374000Y-110450000D03*
G04 #@! TO.P,J1,161*
G04 #@! TO.N,/DATA_IN_N20*
X128646000Y-105450000D03*
G04 #@! TO.P,J1,160*
G04 #@! TO.N,/VDDIO2*
X134374000Y-104950000D03*
G04 #@! TO.P,J1,188*
G04 #@! TO.N,/FRAME_OUT_P3*
X134374000Y-111950000D03*
G04 #@! TO.P,J1,184*
G04 #@! TO.N,/LCLK_OUT_P3*
X134374000Y-110950000D03*
G04 #@! TO.P,J1,183*
G04 #@! TO.N,/LCLK_IN_P3*
X128646000Y-110950000D03*
G04 #@! TO.P,J1,155*
G04 #@! TO.N,/DATA_IN_N19*
X128646000Y-103950000D03*
G04 #@! TO.P,J1,173*
G04 #@! TO.N,/DATA_IN_P22*
X128646000Y-108450000D03*
G04 #@! TO.P,J1,170*
G04 #@! TO.N,/GND*
X134374000Y-107450000D03*
G04 #@! TO.P,J1,102*
G04 #@! TO.N,/DATA_OUT_N12*
X134374000Y-90450000D03*
G04 #@! TO.P,J1,104*
G04 #@! TO.N,/DATA_OUT_P12*
X134374000Y-90950000D03*
G04 #@! TO.P,J1,162*
G04 #@! TO.N,/DATA_OUT_N20*
X134374000Y-105450000D03*
G04 #@! TO.P,J1,113*
G04 #@! TO.N,/DATA_IN_P14*
X128646000Y-93450000D03*
G04 #@! TO.P,J1,156*
G04 #@! TO.N,/DATA_OUT_N19*
X134374000Y-103950000D03*
G04 #@! TO.P,J1,153*
G04 #@! TO.N,/DATA_IN_P18*
X128646000Y-103450000D03*
G04 #@! TO.P,J1,193*
G04 #@! TO.N,/WAIT_WR_OUT_P3*
X128646000Y-113450000D03*
G04 #@! TO.P,J1,157*
G04 #@! TO.N,/DATA_IN_P19*
X128646000Y-104450000D03*
G04 #@! TO.P,J1,172*
G04 #@! TO.N,/DATA_OUT_N22*
X134374000Y-107950000D03*
G04 #@! TO.P,J1,159*
G04 #@! TO.N,/VDDIO2*
X128646000Y-104950000D03*
G04 #@! TO.P,J1,179*
G04 #@! TO.N,/CTRL_IN2*
X128646000Y-109950000D03*
G04 #@! TO.P,J1,163*
G04 #@! TO.N,/DATA_IN_P20*
X128646000Y-105950000D03*
G04 #@! TO.P,J1,190*
G04 #@! TO.N,/GND*
X134374000Y-112450000D03*
G04 #@! TO.P,J1,154*
G04 #@! TO.N,/DATA_OUT_P18*
X134374000Y-103450000D03*
G04 #@! TO.P,J1,194*
G04 #@! TO.N,/WAIT_WR_IN_P3*
X134374000Y-113450000D03*
G04 #@! TO.P,J1,181*
G04 #@! TO.N,/LCLK_IN_N3*
X128646000Y-110450000D03*
G04 #@! TO.P,J1,171*
G04 #@! TO.N,/DATA_IN_N22*
X128646000Y-107950000D03*
G04 #@! TO.P,J1,180*
G04 #@! TO.N,/CTRL_OUT2*
X134374000Y-109950000D03*
G04 #@! TO.P,J1,103*
G04 #@! TO.N,/DATA_IN_P12*
X128646000Y-90950000D03*
G04 #@! TO.P,J1,196*
G04 #@! TO.N,/WAIT_RD_IN_N3*
X134374000Y-113950000D03*
G04 #@! TO.P,J1,198*
G04 #@! TO.N,/WAIT_RD_IN_P3*
X134374000Y-114450000D03*
G04 #@! TO.P,J1,106*
G04 #@! TO.N,/DATA_OUT_N13*
X134374000Y-91450000D03*
G04 #@! TO.P,J1,128*
G04 #@! TO.N,/FRAME_OUT_P2*
X134374000Y-96950000D03*
G04 #@! TO.P,J1,107*
G04 #@! TO.N,/DATA_IN_P13*
X128646000Y-91950000D03*
G04 #@! TO.P,J1,111*
G04 #@! TO.N,/DATA_IN_N14*
X128646000Y-92950000D03*
G04 #@! TO.P,J1,124*
G04 #@! TO.N,/LCLK_OUT_P2*
X134374000Y-95950000D03*
G04 #@! TO.P,J1,116*
G04 #@! TO.N,/DATA_OUT_N15*
X134374000Y-93950000D03*
G04 #@! TO.P,J1,121*
G04 #@! TO.N,/LCLK_IN_N2*
X128646000Y-95450000D03*
G04 #@! TO.P,J1,129*
G04 #@! TO.N,/GND*
X128646000Y-97450000D03*
G04 #@! TO.P,J1,195*
G04 #@! TO.N,/WAIT_RD_OUT_N3*
X128646000Y-113950000D03*
G04 #@! TO.P,J1,114*
G04 #@! TO.N,/DATA_OUT_P14*
X134374000Y-93450000D03*
G04 #@! TO.P,J1,123*
G04 #@! TO.N,/LCLK_IN_P2*
X128646000Y-95950000D03*
G04 #@! TO.P,J1,117*
G04 #@! TO.N,/DATA_IN_P15*
X128646000Y-94450000D03*
G04 #@! TO.P,J1,127*
G04 #@! TO.N,/FRAME_IN_P2*
X128646000Y-96950000D03*
G04 #@! TO.P,J1,135*
G04 #@! TO.N,/WAIT_RD_OUT_N2*
X128646000Y-98950000D03*
G04 #@! TO.P,J1,150*
G04 #@! TO.N,/GND*
X134374000Y-102450000D03*
G04 #@! TO.P,J1,101*
G04 #@! TO.N,/DATA_IN_N12*
X128646000Y-90450000D03*
G04 #@! TO.P,J1,132*
G04 #@! TO.N,/WAIT_WR_IN_N2*
X134374000Y-97950000D03*
G04 #@! TO.P,J1,186*
G04 #@! TO.N,/FRAME_OUT_N3*
X134374000Y-111450000D03*
G04 #@! TO.P,J1,199*
G04 #@! TO.N,/VDD3*
X128646000Y-114950000D03*
G04 #@! TO.P,J1,108*
G04 #@! TO.N,/DATA_OUT_P13*
X134374000Y-91950000D03*
G04 #@! TO.P,J1,174*
G04 #@! TO.N,/DATA_OUT_P22*
X134374000Y-108450000D03*
G04 #@! TO.P,J1,178*
G04 #@! TO.N,/DATA_OUT_P23*
X134374000Y-109450000D03*
G04 #@! TO.P,J1,168*
G04 #@! TO.N,/DATA_OUT_P21*
X134374000Y-106950000D03*
G04 #@! TO.P,J1,177*
G04 #@! TO.N,/DATA_IN_P23*
X128646000Y-109450000D03*
G04 #@! TO.P,J1,191*
G04 #@! TO.N,/WAIT_WR_OUT_N3*
X128646000Y-112950000D03*
G04 #@! TO.P,J1,189*
G04 #@! TO.N,/GND*
X128646000Y-112450000D03*
G04 #@! TO.P,J1,105*
G04 #@! TO.N,/DATA_IN_N13*
X128646000Y-91450000D03*
G04 #@! TO.P,J1,200*
G04 #@! TO.N,/VDD3*
X134374000Y-114950000D03*
G04 #@! TO.P,J1,169*
G04 #@! TO.N,/GND*
X128646000Y-107450000D03*
G04 #@! TO.P,J1,167*
G04 #@! TO.N,/DATA_IN_P21*
X128646000Y-106950000D03*
G04 #@! TO.P,J1,145*
G04 #@! TO.N,/DATA_IN_N17*
X128646000Y-101450000D03*
G04 #@! TO.P,J1,148*
G04 #@! TO.N,/DATA_OUT_P17*
X134374000Y-101950000D03*
G04 #@! TO.P,J1,146*
G04 #@! TO.N,/DATA_OUT_N17*
X134374000Y-101450000D03*
G04 #@! TO.P,J1,147*
G04 #@! TO.N,/DATA_IN_P17*
X128646000Y-101950000D03*
G04 #@! TO.P,J1,120*
G04 #@! TO.N,/CTRL_OUT1*
X134374000Y-94950000D03*
G04 #@! TO.P,J1,112*
G04 #@! TO.N,/DATA_OUT_N14*
X134374000Y-92950000D03*
G04 #@! TO.P,J1,139*
G04 #@! TO.N,/VDD2*
X128646000Y-99950000D03*
G04 #@! TO.P,J1,110*
G04 #@! TO.N,/GND*
X134374000Y-92450000D03*
G04 #@! TO.P,J1,133*
G04 #@! TO.N,/WAIT_WR_OUT_P2*
X128646000Y-98450000D03*
G04 #@! TO.P,J1,118*
G04 #@! TO.N,/DATA_OUT_P15*
X134374000Y-94450000D03*
G04 #@! TO.P,J1,126*
G04 #@! TO.N,/FRAME_OUT_N2*
X134374000Y-96450000D03*
G04 #@! TO.P,J1,109*
G04 #@! TO.N,/GND*
X128646000Y-92450000D03*
G04 #@! TO.P,J1,136*
G04 #@! TO.N,/WAIT_RD_IN_N2*
X134374000Y-98950000D03*
G04 #@! TO.P,J1,125*
G04 #@! TO.N,/FRAME_IN_N2*
X128646000Y-96450000D03*
G04 #@! TO.P,J1,141*
G04 #@! TO.N,/DATA_IN_N16*
X128646000Y-100450000D03*
G04 #@! TO.P,J1,137*
G04 #@! TO.N,/WAIT_RD_OUT_P2*
X128646000Y-99450000D03*
G04 #@! TO.P,J1,122*
G04 #@! TO.N,/LCLK_OUT_N2*
X134374000Y-95450000D03*
G04 #@! TO.P,J1,134*
G04 #@! TO.N,/WAIT_WR_IN_P2*
X134374000Y-98450000D03*
G04 #@! TO.P,J1,119*
G04 #@! TO.N,/CTRL_IN1*
X128646000Y-94950000D03*
G04 #@! TO.P,J1,115*
G04 #@! TO.N,/DATA_IN_N15*
X128646000Y-93950000D03*
G04 #@! TO.P,J1,138*
G04 #@! TO.N,/WAIT_RD_IN_P2*
X134374000Y-99450000D03*
G04 #@! TO.P,J1,130*
G04 #@! TO.N,/GND*
X134374000Y-97450000D03*
G04 #@! TO.P,J1,131*
G04 #@! TO.N,/WAIT_WR_OUT_N2*
X128646000Y-97950000D03*
G04 #@! TO.P,J1,142*
G04 #@! TO.N,/DATA_OUT_N16*
X134374000Y-100450000D03*
G04 #@! TO.P,J1,140*
G04 #@! TO.N,/VDD2*
X134374000Y-99950000D03*
G04 #@! TO.P,J1,166*
G04 #@! TO.N,/DATA_OUT_N21*
X134374000Y-106450000D03*
G04 #@! TO.P,J1,175*
G04 #@! TO.N,/DATA_IN_N23*
X128646000Y-108950000D03*
G04 #@! TO.P,J1,176*
G04 #@! TO.N,/DATA_OUT_N23*
X134374000Y-108950000D03*
G04 #@! TO.P,J1,144*
G04 #@! TO.N,/DATA_OUT_P16*
X134374000Y-100950000D03*
G04 #@! TO.P,J1,158*
G04 #@! TO.N,/DATA_OUT_P19*
X134374000Y-104450000D03*
G04 #@! TO.P,J1,151*
G04 #@! TO.N,/DATA_IN_N18*
X128646000Y-102950000D03*
G04 #@! TO.P,J1,143*
G04 #@! TO.N,/DATA_IN_P16*
X128646000Y-100950000D03*
G04 #@! TO.P,J1,165*
G04 #@! TO.N,/DATA_IN_N21*
X128646000Y-106450000D03*
G04 #@! TO.P,J1,100*
G04 #@! TO.N,/VDDIO1*
X134374000Y-89950000D03*
G04 #@! TO.P,J1,99*
X128646000Y-89950000D03*
G04 #@! TO.P,J1,98*
G04 #@! TO.N,/DATA_OUT_P11*
X134374000Y-89450000D03*
G04 #@! TO.P,J1,97*
G04 #@! TO.N,/DATA_IN_P11*
X128646000Y-89450000D03*
G04 #@! TO.P,J1,96*
G04 #@! TO.N,/DATA_OUT_N11*
X134374000Y-88950000D03*
G04 #@! TO.P,J1,95*
G04 #@! TO.N,/DATA_IN_N11*
X128646000Y-88950000D03*
G04 #@! TO.P,J1,94*
G04 #@! TO.N,/DATA_OUT_P10*
X134374000Y-88450000D03*
G04 #@! TO.P,J1,93*
G04 #@! TO.N,/DATA_IN_P10*
X128646000Y-88450000D03*
G04 #@! TO.P,J1,92*
G04 #@! TO.N,/DATA_OUT_N10*
X134374000Y-87950000D03*
G04 #@! TO.P,J1,91*
G04 #@! TO.N,/DATA_IN_N10*
X128646000Y-87950000D03*
G04 #@! TO.P,J1,90*
G04 #@! TO.N,/GND*
X134374000Y-87450000D03*
G04 #@! TO.P,J1,89*
X128646000Y-87450000D03*
G04 #@! TO.P,J1,88*
G04 #@! TO.N,/DATA_OUT_P9*
X134374000Y-86950000D03*
G04 #@! TO.P,J1,87*
G04 #@! TO.N,/DATA_IN_P9*
X128646000Y-86950000D03*
G04 #@! TO.P,J1,86*
G04 #@! TO.N,/DATA_OUT_N9*
X134374000Y-86450000D03*
G04 #@! TO.P,J1,85*
G04 #@! TO.N,/DATA_IN_N9*
X128646000Y-86450000D03*
G04 #@! TO.P,J1,84*
G04 #@! TO.N,/DATA_OUT_P8*
X134374000Y-85950000D03*
G04 #@! TO.P,J1,83*
G04 #@! TO.N,/DATA_IN_P8*
X128646000Y-85950000D03*
G04 #@! TO.P,J1,82*
G04 #@! TO.N,/DATA_OUT_N8*
X134374000Y-85450000D03*
G04 #@! TO.P,J1,81*
G04 #@! TO.N,/DATA_IN_N8*
X128646000Y-85450000D03*
G04 #@! TO.P,J1,80*
G04 #@! TO.N,/VDD1*
X134374000Y-84950000D03*
G04 #@! TO.P,J1,79*
X128646000Y-84950000D03*
G04 #@! TO.P,J1,78*
G04 #@! TO.N,/WAIT_RD_IN_P1*
X134374000Y-84450000D03*
G04 #@! TO.P,J1,77*
G04 #@! TO.N,/WAIT_RD_OUT_P1*
X128646000Y-84450000D03*
G04 #@! TO.P,J1,76*
G04 #@! TO.N,/WAIT_RD_IN_N1*
X134374000Y-83950000D03*
G04 #@! TO.P,J1,75*
G04 #@! TO.N,/WAIT_RD_OUT_N1*
X128646000Y-83950000D03*
G04 #@! TO.P,J1,74*
G04 #@! TO.N,/WAIT_WR_IN_P1*
X134374000Y-83450000D03*
G04 #@! TO.P,J1,73*
G04 #@! TO.N,/WAIT_WR_OUT_P1*
X128646000Y-83450000D03*
G04 #@! TO.P,J1,72*
G04 #@! TO.N,/WAIT_WR_IN_N1*
X134374000Y-82950000D03*
G04 #@! TO.P,J1,71*
G04 #@! TO.N,/WAIT_WR_OUT_N1*
X128646000Y-82950000D03*
G04 #@! TO.P,J1,70*
G04 #@! TO.N,/GND*
X134374000Y-82450000D03*
G04 #@! TO.P,J1,69*
X128646000Y-82450000D03*
G04 #@! TO.P,J1,68*
G04 #@! TO.N,/FRAME_OUT_P1*
X134374000Y-81950000D03*
G04 #@! TO.P,J1,67*
G04 #@! TO.N,/FRAME_IN_P1*
X128646000Y-81950000D03*
G04 #@! TO.P,J1,66*
G04 #@! TO.N,/FRAME_OUT_N1*
X134374000Y-81450000D03*
G04 #@! TO.P,J1,65*
G04 #@! TO.N,/FRAME_IN_N1*
X128646000Y-81450000D03*
G04 #@! TO.P,J1,64*
G04 #@! TO.N,/LCLK_OUT_P1*
X134374000Y-80950000D03*
G04 #@! TO.P,J1,63*
G04 #@! TO.N,/LCLK_IN_P1*
X128646000Y-80950000D03*
G04 #@! TO.P,J1,62*
G04 #@! TO.N,/LCLK_OUT_N1*
X134374000Y-80450000D03*
G04 #@! TO.P,J1,61*
G04 #@! TO.N,/LCLK_IN_N1*
X128646000Y-80450000D03*
G04 #@! TO.P,J1,60*
G04 #@! TO.N,/CTRL_OUT0*
X134374000Y-79950000D03*
G04 #@! TO.P,J1,59*
G04 #@! TO.N,/CTRL_IN0*
X128646000Y-79950000D03*
G04 #@! TO.P,J1,58*
G04 #@! TO.N,/DATA_OUT_P7*
X134374000Y-79450000D03*
G04 #@! TO.P,J1,57*
G04 #@! TO.N,/DATA_IN_P7*
X128646000Y-79450000D03*
G04 #@! TO.P,J1,56*
G04 #@! TO.N,/DATA_OUT_N7*
X134374000Y-78950000D03*
G04 #@! TO.P,J1,55*
G04 #@! TO.N,/DATA_IN_N7*
X128646000Y-78950000D03*
G04 #@! TO.P,J1,54*
G04 #@! TO.N,/DATA_OUT_P6*
X134374000Y-78450000D03*
G04 #@! TO.P,J1,53*
G04 #@! TO.N,/DATA_IN_P6*
X128646000Y-78450000D03*
G04 #@! TO.P,J1,52*
G04 #@! TO.N,/DATA_OUT_N6*
X134374000Y-77950000D03*
G04 #@! TO.P,J1,51*
G04 #@! TO.N,/DATA_IN_N6*
X128646000Y-77950000D03*
G04 #@! TO.P,J1,50*
G04 #@! TO.N,/GND*
X134374000Y-77450000D03*
G04 #@! TO.P,J1,49*
X128646000Y-77450000D03*
G04 #@! TO.P,J1,48*
G04 #@! TO.N,/DATA_OUT_P5*
X134374000Y-76950000D03*
G04 #@! TO.P,J1,47*
G04 #@! TO.N,/DATA_IN_P5*
X128646000Y-76950000D03*
G04 #@! TO.P,J1,46*
G04 #@! TO.N,/DATA_OUT_N5*
X134374000Y-76450000D03*
G04 #@! TO.P,J1,45*
G04 #@! TO.N,/DATA_IN_N5*
X128646000Y-76450000D03*
G04 #@! TO.P,J1,44*
G04 #@! TO.N,/DATA_OUT_P4*
X134374000Y-75950000D03*
G04 #@! TO.P,J1,43*
G04 #@! TO.N,/DATA_IN_P4*
X128646000Y-75950000D03*
G04 #@! TO.P,J1,42*
G04 #@! TO.N,/DATA_OUT_N4*
X134374000Y-75450000D03*
G04 #@! TO.P,J1,41*
G04 #@! TO.N,/DATA_IN_N4*
X128646000Y-75450000D03*
G04 #@! TO.P,J1,40*
G04 #@! TO.N,/VDDIO0*
X134374000Y-74950000D03*
G04 #@! TO.P,J1,39*
X128646000Y-74950000D03*
G04 #@! TO.P,J1,38*
G04 #@! TO.N,/DATA_OUT_P3*
X134374000Y-74450000D03*
G04 #@! TO.P,J1,37*
G04 #@! TO.N,/DATA_IN_P3*
X128646000Y-74450000D03*
G04 #@! TO.P,J1,36*
G04 #@! TO.N,/DATA_OUT_N3*
X134374000Y-73950000D03*
G04 #@! TO.P,J1,35*
G04 #@! TO.N,/DATA_IN_N3*
X128646000Y-73950000D03*
G04 #@! TO.P,J1,34*
G04 #@! TO.N,/DATA_OUT_P2*
X134374000Y-73450000D03*
G04 #@! TO.P,J1,33*
G04 #@! TO.N,/DATA_IN_P2*
X128646000Y-73450000D03*
G04 #@! TO.P,J1,32*
G04 #@! TO.N,/DATA_OUT_N2*
X134374000Y-72950000D03*
G04 #@! TO.P,J1,31*
G04 #@! TO.N,/DATA_IN_N2*
X128646000Y-72950000D03*
G04 #@! TO.P,J1,30*
G04 #@! TO.N,/GND*
X134374000Y-72450000D03*
G04 #@! TO.P,J1,29*
X128646000Y-72450000D03*
G04 #@! TO.P,J1,28*
G04 #@! TO.N,/DATA_OUT_P1*
X134374000Y-71950000D03*
G04 #@! TO.P,J1,27*
G04 #@! TO.N,/DATA_IN_P1*
X128646000Y-71950000D03*
G04 #@! TO.P,J1,26*
G04 #@! TO.N,/DATA_OUT_N1*
X134374000Y-71450000D03*
G04 #@! TO.P,J1,25*
G04 #@! TO.N,/DATA_IN_N1*
X128646000Y-71450000D03*
G04 #@! TO.P,J1,24*
G04 #@! TO.N,/DATA_OUT_P0*
X134374000Y-70950000D03*
G04 #@! TO.P,J1,23*
G04 #@! TO.N,/DATA_IN_P0*
X128646000Y-70950000D03*
G04 #@! TO.P,J1,22*
G04 #@! TO.N,/DATA_OUT_N0*
X134374000Y-70450000D03*
G04 #@! TO.P,J1,21*
G04 #@! TO.N,/DATA_IN_N0*
X128646000Y-70450000D03*
G04 #@! TO.P,J1,20*
G04 #@! TO.N,/VDD0*
X134374000Y-69950000D03*
G04 #@! TO.P,J1,19*
X128646000Y-69950000D03*
G04 #@! TO.P,J1,18*
G04 #@! TO.N,/WAIT_RD_IN_P0*
X134374000Y-69450000D03*
G04 #@! TO.P,J1,17*
G04 #@! TO.N,/WAIT_RD_OUT_P0*
X128646000Y-69450000D03*
G04 #@! TO.P,J1,16*
G04 #@! TO.N,/WAIT_RD_IN_N0*
X134374000Y-68950000D03*
G04 #@! TO.P,J1,15*
G04 #@! TO.N,/WAIT_RD_OUT_N0*
X128646000Y-68950000D03*
G04 #@! TO.P,J1,14*
G04 #@! TO.N,/WAIT_WR_IN_P0*
X134374000Y-68450000D03*
G04 #@! TO.P,J1,13*
G04 #@! TO.N,/WAIT_WR_OUT_P0*
X128646000Y-68450000D03*
G04 #@! TO.P,J1,12*
G04 #@! TO.N,/WAIT_WR_IN_N0*
X134374000Y-67950000D03*
G04 #@! TO.P,J1,11*
G04 #@! TO.N,/WAIT_WR_OUT_N0*
X128646000Y-67950000D03*
G04 #@! TO.P,J1,10*
G04 #@! TO.N,/GND*
X134374000Y-67450000D03*
G04 #@! TO.P,J1,9*
X128646000Y-67450000D03*
G04 #@! TO.P,J1,8*
G04 #@! TO.N,/FRAME_OUT_P0*
X134374000Y-66950000D03*
G04 #@! TO.P,J1,7*
G04 #@! TO.N,/FRAME_IN_P0*
X128646000Y-66950000D03*
G04 #@! TO.P,J1,6*
G04 #@! TO.N,/FRAME_OUT_N0*
X134374000Y-66450000D03*
G04 #@! TO.P,J1,5*
G04 #@! TO.N,/FRAME_IN_N0*
X128646000Y-66450000D03*
G04 #@! TO.P,J1,4*
G04 #@! TO.N,/LCLK_OUT_P0*
X134374000Y-65950000D03*
G04 #@! TO.P,J1,3*
G04 #@! TO.N,/LCLK_IN_P0*
X128646000Y-65950000D03*
G04 #@! TO.P,J1,2*
G04 #@! TO.N,/LCLK_OUT_N0*
X134374000Y-65450000D03*
G04 #@! TO.P,J1,1*
G04 #@! TO.N,/LCLK_IN_N0*
X128646000Y-65450000D03*
G04 #@! TD*
D12*
G04 #@! TO.P,REF\002A\002A,1*
G04 #@! TO.N,N/C*
X42850000Y-62700000D03*
G04 #@! TD*
D14*
G04 #@! TO.N,/CTRL_OUT0*
X132060000Y-79920000D03*
G04 #@! TO.N,/DATA_OUT_P7*
X130722821Y-79394988D03*
G04 #@! TO.N,/DATA_OUT_N7*
X132160000Y-78978008D03*
G04 #@! TO.N,/DATA_OUT_P6*
X130690000Y-78452997D03*
G04 #@! TO.N,/DATA_OUT_N6*
X132150000Y-77960000D03*
G04 #@! TO.N,/GND*
X132280000Y-67480000D03*
X130700000Y-77480000D03*
X130734000Y-72479000D03*
X130710773Y-93031995D03*
X130659088Y-82575040D03*
X130607000Y-87232018D03*
X132004000Y-122464009D03*
X132004000Y-117437000D03*
X131880000Y-112536991D03*
X131877000Y-107404000D03*
X132004000Y-102630992D03*
X131983127Y-97902661D03*
G04 #@! TO.N,/DATA_OUT_P5*
X132131000Y-76923998D03*
G04 #@! TO.N,/DATA_OUT_N5*
X130700000Y-76469004D03*
G04 #@! TO.N,/DATA_OUT_P4*
X131984591Y-75728008D03*
G04 #@! TO.N,/DATA_OUT_N4*
X130707163Y-75527012D03*
G04 #@! TO.N,/VDDIO0*
X132166727Y-74786017D03*
G04 #@! TO.N,/DATA_OUT_P3*
X130733994Y-74511000D03*
G04 #@! TO.N,/DATA_OUT_N3*
X132203002Y-73844025D03*
G04 #@! TO.N,/DATA_OUT_P2*
X130743902Y-73442009D03*
G04 #@! TO.N,/DATA_OUT_N2*
X132206874Y-72902033D03*
G04 #@! TO.N,/DATA_OUT_P1*
X132250000Y-71980000D03*
G04 #@! TO.N,/DATA_OUT_N1*
X130733996Y-71463000D03*
G04 #@! TO.N,/DATA_OUT_P0*
X132280000Y-70970000D03*
G04 #@! TO.N,/DATA_OUT_N0*
X130734000Y-70447000D03*
G04 #@! TO.N,/VDD0*
X130734000Y-69811987D03*
G04 #@! TO.N,/WAIT_RD_IN_P0*
X132240000Y-69480000D03*
G04 #@! TO.N,/WAIT_RD_IN_N0*
X130697410Y-68869996D03*
G04 #@! TO.N,/WAIT_WR_IN_P0*
X132240000Y-68510000D03*
G04 #@! TO.N,/WAIT_WR_IN_N0*
X130725206Y-67928004D03*
G04 #@! TO.N,/FRAME_OUT_P0*
X130734000Y-67017990D03*
G04 #@! TO.N,/FRAME_OUT_N0*
X132250000Y-66470000D03*
G04 #@! TO.N,/LCLK_OUT_P0*
X130733994Y-65949009D03*
G04 #@! TO.N,/LCLK_OUT_N0*
X132300000Y-65460000D03*
G04 #@! TO.N,/LCLK_OUT_N1*
X130734008Y-80480000D03*
G04 #@! TO.N,/LCLK_OUT_P1*
X132090000Y-80980000D03*
G04 #@! TO.N,/FRAME_OUT_N1*
X130734000Y-81496000D03*
G04 #@! TO.N,/FRAME_OUT_P1*
X132040000Y-81980000D03*
G04 #@! TO.N,/WAIT_WR_IN_N1*
X132040000Y-82930000D03*
G04 #@! TO.N,/WAIT_WR_IN_P1*
X130623530Y-83517032D03*
G04 #@! TO.N,/WAIT_RD_IN_P1*
X130715554Y-84459023D03*
G04 #@! TO.N,/DATA_OUT_N8*
X130698967Y-85348035D03*
G04 #@! TO.N,/DATA_OUT_P8*
X131990000Y-86005000D03*
G04 #@! TO.N,/DATA_OUT_N9*
X130707175Y-86290027D03*
G04 #@! TO.N,/DATA_OUT_P9*
X131940000Y-87030000D03*
G04 #@! TO.N,/DATA_OUT_N10*
X131965000Y-87941026D03*
G04 #@! TO.N,/DATA_OUT_P10*
X130606994Y-88174009D03*
G04 #@! TO.N,/DATA_OUT_N11*
X131964239Y-88883017D03*
G04 #@! TO.N,/DATA_OUT_P11*
X130734000Y-89242998D03*
G04 #@! TO.N,/DATA_OUT_N12*
X130747832Y-91148012D03*
G04 #@! TO.N,/DATA_OUT_P12*
X132004000Y-90894000D03*
G04 #@! TO.N,/DATA_OUT_N13*
X130725152Y-92090004D03*
G04 #@! TO.N,/DATA_OUT_P13*
X132066878Y-92089992D03*
G04 #@! TO.N,/DATA_OUT_N14*
X132004000Y-93053040D03*
G04 #@! TO.N,/DATA_OUT_P14*
X130497310Y-93983171D03*
G04 #@! TO.N,/DATA_OUT_N15*
X131877000Y-94450000D03*
G04 #@! TO.N,/DATA_OUT_P15*
X130764097Y-94922287D03*
G04 #@! TO.N,/CTRL_OUT1*
X131924662Y-95391991D03*
G04 #@! TO.N,/CTRL_OUT3*
X130490000Y-124980000D03*
G04 #@! TO.N,/DATA_OUT_P31*
X131914143Y-124601979D03*
G04 #@! TO.N,/DATA_OUT_N31*
X130607000Y-123914000D03*
G04 #@! TO.N,/DATA_OUT_P30*
X132004000Y-123406000D03*
G04 #@! TO.N,/DATA_OUT_N30*
X130585675Y-122845009D03*
G04 #@! TO.N,/DATA_OUT_P29*
X130566998Y-121955998D03*
G04 #@! TO.N,/DATA_OUT_N29*
X132004000Y-121448008D03*
G04 #@! TO.N,/DATA_OUT_P28*
X130565000Y-121014006D03*
G04 #@! TO.N,/DATA_OUT_N28*
X132004000Y-120485012D03*
G04 #@! TO.N,/VDDIO1*
X132006530Y-89825009D03*
G04 #@! TO.N,/DATA_OUT_P27*
X132004008Y-119521992D03*
G04 #@! TO.N,/DATA_OUT_N27*
X130520002Y-118980000D03*
G04 #@! TO.N,/DATA_OUT_P26*
X132004000Y-118580000D03*
G04 #@! TO.N,/DATA_OUT_N26*
X130510000Y-118010000D03*
G04 #@! TO.N,/DATA_OUT_P25*
X130735496Y-117056461D03*
G04 #@! TO.N,/DATA_OUT_N25*
X131860000Y-116495008D03*
G04 #@! TO.N,/DATA_OUT_P24*
X130650966Y-116114469D03*
G04 #@! TO.N,/DATA_OUT_N24*
X131870000Y-115388009D03*
G04 #@! TO.N,/VDD1*
X131970000Y-84980000D03*
G04 #@! TO.N,/WAIT_RD_IN_P3*
X131870000Y-114460000D03*
G04 #@! TO.N,/WAIT_RD_IN_N3*
X130598331Y-114230486D03*
G04 #@! TO.N,/WAIT_WR_IN_P3*
X131870000Y-113518008D03*
G04 #@! TO.N,/WAIT_WR_IN_N3*
X130624762Y-113288494D03*
G04 #@! TO.N,/FRAME_OUT_P3*
X130613123Y-112399482D03*
G04 #@! TO.N,/FRAME_OUT_N3*
X131877000Y-111468000D03*
G04 #@! TO.N,/LCLK_OUT_P3*
X130464842Y-111457490D03*
G04 #@! TO.N,/LCLK_OUT_N3*
X131877008Y-110452000D03*
G04 #@! TO.N,/LCLK_OUT_N2*
X132027142Y-96018679D03*
G04 #@! TO.N,/LCLK_OUT_P2*
X130720615Y-96217490D03*
G04 #@! TO.N,/FRAME_OUT_N2*
X131938667Y-96960670D03*
G04 #@! TO.N,/FRAME_OUT_P2*
X130670305Y-97159482D03*
G04 #@! TO.N,/WAIT_WR_IN_N2*
X130611801Y-98048494D03*
G04 #@! TO.N,/WAIT_RD_IN_N2*
X130610000Y-98990486D03*
G04 #@! TO.N,/WAIT_RD_IN_P2*
X132074087Y-99786644D03*
G04 #@! TO.N,/DATA_OUT_N16*
X132073656Y-100675655D03*
G04 #@! TO.N,/DATA_OUT_P16*
X130607000Y-100926999D03*
G04 #@! TO.N,/DATA_OUT_N17*
X132004000Y-101617646D03*
G04 #@! TO.N,/DATA_OUT_P17*
X130615523Y-101995991D03*
G04 #@! TO.N,/DATA_OUT_N18*
X130607000Y-102959000D03*
G04 #@! TO.N,/DATA_OUT_P18*
X132058044Y-103572984D03*
G04 #@! TO.N,/DATA_OUT_N19*
X130500000Y-103990000D03*
G04 #@! TO.N,/DATA_OUT_P19*
X132004000Y-104609996D03*
G04 #@! TO.N,/DATA_OUT_N20*
X132004000Y-105499012D03*
G04 #@! TO.N,/DATA_OUT_P20*
X130600000Y-106070000D03*
G04 #@! TO.N,/DATA_OUT_N21*
X131877000Y-106462008D03*
G04 #@! TO.N,/DATA_OUT_P21*
X130601922Y-107061991D03*
G04 #@! TO.N,/DATA_OUT_N22*
X130650000Y-108050000D03*
G04 #@! TO.N,/DATA_OUT_P22*
X131877000Y-108547000D03*
G04 #@! TO.N,/DATA_OUT_N23*
X130580000Y-109060000D03*
G04 #@! TO.N,/DATA_OUT_P23*
X131837709Y-109488992D03*
G04 #@! TO.N,/CTRL_OUT2*
X130523083Y-110001991D03*
G04 #@! TO.N,/WAIT_WR_IN_P2*
X132005947Y-98844653D03*
G04 #@! TO.N,/WAIT_RD_IN_N1*
X131990000Y-83950000D03*
G04 #@! TO.N,/VDDIO2*
X130483158Y-105056534D03*
G04 #@! TO.N,/VDD2*
X130530000Y-99985009D03*
G04 #@! TO.N,/VDD3*
X130627324Y-115172478D03*
G04 #@! TO.N,/VDDIO3*
X130559646Y-119965964D03*
G04 #@! TD*
D15*
G04 #@! TO.N,/CTRL_OUT0*
X134374000Y-79980000D02*
X132120000Y-79980000D01*
X132120000Y-79980000D02*
X132060000Y-79920000D01*
G04 #@! TO.N,/CTRL_IN0*
X121047001Y-86139499D02*
X55769557Y-86139499D01*
X45259499Y-74089499D02*
X44609999Y-73439999D01*
X44609999Y-73439999D02*
X43760000Y-72590000D01*
X127206500Y-79980000D02*
X121047001Y-86139499D01*
X45259499Y-75629441D02*
X45259499Y-74089499D01*
X128646000Y-79980000D02*
X127206500Y-79980000D01*
X55769557Y-86139499D02*
X45259499Y-75629441D01*
G04 #@! TO.N,/DATA_OUT_P7*
X133105990Y-79475490D02*
X131162533Y-79475490D01*
X134374000Y-79480000D02*
X133110500Y-79480000D01*
X131082031Y-79394988D02*
X130722821Y-79394988D01*
X131162533Y-79475490D02*
X131082031Y-79394988D01*
X133110500Y-79480000D02*
X133105990Y-79475490D01*
G04 #@! TO.N,/DATA_IN_P7*
X128646000Y-79480000D02*
X127347275Y-79480000D01*
X58055546Y-85885488D02*
X47340501Y-75170443D01*
X47340501Y-75170443D02*
X47340501Y-73630501D01*
X127347275Y-79480000D02*
X120941787Y-85885488D01*
X47340501Y-73630501D02*
X47149999Y-73439999D01*
X47149999Y-73439999D02*
X46300000Y-72590000D01*
X120941787Y-85885488D02*
X58055546Y-85885488D01*
G04 #@! TO.N,/DATA_OUT_N7*
X132161992Y-78980000D02*
X132160000Y-78978008D01*
X134374000Y-78980000D02*
X132161992Y-78980000D01*
G04 #@! TO.N,/DATA_IN_N7*
X50339499Y-75629441D02*
X50339499Y-74089499D01*
X50339499Y-74089499D02*
X49689999Y-73439999D01*
X60288555Y-85578497D02*
X50339499Y-75629441D01*
X128646000Y-78980000D02*
X127382500Y-78980000D01*
X127382500Y-78980000D02*
X120784003Y-85578497D01*
X120784003Y-85578497D02*
X60288555Y-85578497D01*
X49689999Y-73439999D02*
X48840000Y-72590000D01*
G04 #@! TO.N,/DATA_OUT_P6*
X130717003Y-78480000D02*
X130690000Y-78452997D01*
X134374000Y-78480000D02*
X130717003Y-78480000D01*
G04 #@! TO.N,/DATA_IN_P6*
X62574544Y-85324486D02*
X52420501Y-75170443D01*
X120612264Y-85324486D02*
X62574544Y-85324486D01*
X128646000Y-78480000D02*
X127456750Y-78480000D01*
X127456750Y-78480000D02*
X120612264Y-85324486D01*
X52229999Y-73439999D02*
X51380000Y-72590000D01*
X52420501Y-73630501D02*
X52229999Y-73439999D01*
X52420501Y-75170443D02*
X52420501Y-73630501D01*
G04 #@! TO.N,/DATA_OUT_N6*
X134374000Y-77980000D02*
X132170000Y-77980000D01*
X132170000Y-77980000D02*
X132150000Y-77960000D01*
G04 #@! TO.N,/DATA_IN_N6*
X120485105Y-85017495D02*
X63427495Y-85017495D01*
X127522600Y-77980000D02*
X120485105Y-85017495D01*
X128646000Y-77980000D02*
X127522600Y-77980000D01*
X54769999Y-73439999D02*
X53920000Y-72590000D01*
X54960501Y-76550501D02*
X54960501Y-73630501D01*
X54960501Y-73630501D02*
X54769999Y-73439999D01*
X63427495Y-85017495D02*
X54960501Y-76550501D01*
G04 #@! TO.N,/GND*
X133110500Y-67480000D02*
X132280000Y-67480000D01*
X134374000Y-67480000D02*
X133110500Y-67480000D01*
X129909500Y-77480000D02*
X130700000Y-77480000D01*
X128646000Y-77480000D02*
X129909500Y-77480000D01*
X129909500Y-67480000D02*
X128646000Y-67480000D01*
X130520638Y-67462498D02*
X130503136Y-67480000D01*
X130503136Y-67480000D02*
X129909500Y-67480000D01*
X130947362Y-67462498D02*
X130520638Y-67462498D01*
X130964864Y-67480000D02*
X130947362Y-67462498D01*
X132280000Y-67480000D02*
X130964864Y-67480000D01*
X130733000Y-72480000D02*
X130734000Y-72479000D01*
X128646000Y-72480000D02*
X130733000Y-72480000D01*
X128646000Y-87480000D02*
X130359018Y-87480000D01*
X130158778Y-92480000D02*
X130456774Y-92777996D01*
X134374000Y-87480000D02*
X130854982Y-87480000D01*
X130359018Y-87480000D02*
X130607000Y-87232018D01*
X128646000Y-92480000D02*
X130158778Y-92480000D01*
X130754128Y-82480000D02*
X130659088Y-82575040D01*
X130456774Y-92777996D02*
X130710773Y-93031995D01*
X128646000Y-82480000D02*
X130564048Y-82480000D01*
X134374000Y-82480000D02*
X130754128Y-82480000D01*
X130564048Y-82480000D02*
X130659088Y-82575040D01*
X130854982Y-87480000D02*
X130607000Y-87232018D01*
X132019991Y-122480000D02*
X132004000Y-122464009D01*
X131591799Y-122464009D02*
X131644790Y-122464009D01*
X131644790Y-122464009D02*
X132004000Y-122464009D01*
X130292822Y-122480000D02*
X130372314Y-122400508D01*
X130372314Y-122400508D02*
X131528298Y-122400508D01*
X128646000Y-122480000D02*
X130292822Y-122480000D01*
X134374000Y-122480000D02*
X132019991Y-122480000D01*
X131528298Y-122400508D02*
X131591799Y-122464009D01*
X128646000Y-117480000D02*
X130501173Y-117480000D01*
X132047000Y-117480000D02*
X132004000Y-117437000D01*
X130501173Y-117480000D02*
X130526157Y-117504984D01*
X131644790Y-117437000D02*
X132004000Y-117437000D01*
X131576806Y-117504984D02*
X131644790Y-117437000D01*
X134374000Y-117480000D02*
X132047000Y-117480000D01*
X130526157Y-117504984D02*
X131576806Y-117504984D01*
X128646000Y-112480000D02*
X130035777Y-112480000D01*
X130035777Y-112480000D02*
X130399761Y-112843984D01*
X131936991Y-112480000D02*
X131880000Y-112536991D01*
X134374000Y-112480000D02*
X131936991Y-112480000D01*
X130399761Y-112843984D02*
X130826485Y-112843984D01*
X131133478Y-112536991D02*
X131520790Y-112536991D01*
X131520790Y-112536991D02*
X131880000Y-112536991D01*
X130826485Y-112843984D02*
X131133478Y-112536991D01*
X131953000Y-107480000D02*
X131877000Y-107404000D01*
X131517790Y-107404000D02*
X131877000Y-107404000D01*
X134374000Y-107480000D02*
X131953000Y-107480000D01*
X130380470Y-107480000D02*
X130431470Y-107531000D01*
X130431470Y-107531000D02*
X131390790Y-107531000D01*
X128646000Y-107480000D02*
X130380470Y-107480000D01*
X131390790Y-107531000D02*
X131517790Y-107404000D01*
X132154992Y-102480000D02*
X132004000Y-102630992D01*
X131853008Y-102480000D02*
X132004000Y-102630992D01*
X134374000Y-102480000D02*
X132154992Y-102480000D01*
X128646000Y-102480000D02*
X131853008Y-102480000D01*
X131208274Y-92534494D02*
X130964772Y-92777996D01*
X132334734Y-92480000D02*
X132280240Y-92534494D01*
X132280240Y-92534494D02*
X131208274Y-92534494D01*
X134374000Y-92480000D02*
X132334734Y-92480000D01*
X130964772Y-92777996D02*
X130710773Y-93031995D01*
X131972043Y-72479000D02*
X131093210Y-72479000D01*
X133110500Y-77480000D02*
X134374000Y-77480000D01*
X130700000Y-77480000D02*
X131902138Y-77480000D01*
X131917639Y-77495501D02*
X132344361Y-77495501D01*
X132442705Y-72480000D02*
X132420236Y-72457531D01*
X131093210Y-72479000D02*
X130734000Y-72479000D01*
X131993512Y-72457531D02*
X131972043Y-72479000D01*
X134374000Y-72480000D02*
X132442705Y-72480000D01*
X132344361Y-77495501D02*
X132359862Y-77480000D01*
X132420236Y-72457531D02*
X131993512Y-72457531D01*
X132359862Y-77480000D02*
X133110500Y-77480000D01*
X131902138Y-77480000D02*
X131917639Y-77495501D01*
X131325240Y-97603984D02*
X131623917Y-97902661D01*
X131623917Y-97902661D02*
X131983127Y-97902661D01*
X132282673Y-97712162D02*
X132173626Y-97712162D01*
X134374000Y-97480000D02*
X132514835Y-97480000D01*
X130332959Y-97480000D02*
X130456943Y-97603984D01*
X132173626Y-97712162D02*
X131983127Y-97902661D01*
X132514835Y-97480000D02*
X132282673Y-97712162D01*
X128646000Y-97480000D02*
X130332959Y-97480000D01*
X130456943Y-97603984D02*
X131325240Y-97603984D01*
G04 #@! TO.N,/DATA_OUT_P5*
X134374000Y-76980000D02*
X132187002Y-76980000D01*
X132187002Y-76980000D02*
X132131000Y-76923998D01*
G04 #@! TO.N,/DATA_IN_P5*
X127181598Y-77961777D02*
X120379891Y-84763484D01*
X127181598Y-77180902D02*
X127181598Y-77961777D01*
X60040501Y-73630501D02*
X59849999Y-73439999D01*
X69633542Y-84763484D02*
X60040501Y-75170443D01*
X59849999Y-73439999D02*
X59000000Y-72590000D01*
X60040501Y-75170443D02*
X60040501Y-73630501D01*
X127382500Y-76980000D02*
X127181598Y-77180902D01*
X120379891Y-84763484D02*
X69633542Y-84763484D01*
X128646000Y-76980000D02*
X127382500Y-76980000D01*
G04 #@! TO.N,/DATA_OUT_N5*
X132496792Y-76172519D02*
X130996486Y-76172518D01*
X130953999Y-76215005D02*
X130700000Y-76469004D01*
X132804273Y-76480000D02*
X132496792Y-76172519D01*
X134374000Y-76480000D02*
X132804273Y-76480000D01*
X130996486Y-76172518D02*
X130953999Y-76215005D01*
G04 #@! TO.N,/DATA_IN_N5*
X128646000Y-76480000D02*
X127382500Y-76480000D01*
X126874607Y-76987893D02*
X126874607Y-77834618D01*
X62580501Y-73630501D02*
X62389999Y-73439999D01*
X71866551Y-84456493D02*
X62580501Y-75170443D01*
X127382500Y-76480000D02*
X126874607Y-76987893D01*
X120252732Y-84456493D02*
X71866551Y-84456493D01*
X126874607Y-77834618D02*
X120252732Y-84456493D01*
X62580501Y-75170443D02*
X62580501Y-73630501D01*
X62389999Y-73439999D02*
X61540000Y-72590000D01*
G04 #@! TO.N,/DATA_OUT_P4*
X132175089Y-75918507D02*
X131984591Y-75728008D01*
X132602005Y-75918509D02*
X132175089Y-75918507D01*
X134374000Y-75980000D02*
X132663497Y-75980000D01*
X132663497Y-75980000D02*
X132602005Y-75918509D01*
G04 #@! TO.N,/DATA_IN_P4*
X74152540Y-84202482D02*
X65120501Y-75170443D01*
X120147518Y-84202482D02*
X74152540Y-84202482D01*
X126620596Y-77729404D02*
X120147518Y-84202482D01*
X126620596Y-76806929D02*
X126620596Y-77729404D01*
X128646000Y-75980000D02*
X127447525Y-75980000D01*
X64929999Y-73439999D02*
X64080000Y-72590000D01*
X65120501Y-73630501D02*
X64929999Y-73439999D01*
X127447525Y-75980000D02*
X126620596Y-76806929D01*
X65120501Y-75170443D02*
X65120501Y-73630501D01*
G04 #@! TO.N,/DATA_OUT_N4*
X132223383Y-75230527D02*
X131745799Y-75230527D01*
X131066373Y-75527012D02*
X130707163Y-75527012D01*
X131745799Y-75230527D02*
X131449314Y-75527012D01*
X132472856Y-75480000D02*
X132223383Y-75230527D01*
X131449314Y-75527012D02*
X131066373Y-75527012D01*
X134374000Y-75480000D02*
X132472856Y-75480000D01*
G04 #@! TO.N,/DATA_IN_N4*
X67660501Y-73630501D02*
X66620000Y-72590000D01*
X67660501Y-75170443D02*
X67660501Y-73630501D01*
X119096215Y-83853009D02*
X76343067Y-83853009D01*
X128646000Y-75597019D02*
X127352205Y-75597019D01*
X76343067Y-83853009D02*
X67660501Y-75170443D01*
X127352205Y-75597019D02*
X119096215Y-83853009D01*
X128646000Y-75480000D02*
X128646000Y-75597019D01*
G04 #@! TO.N,/VDDIO0*
X131672868Y-74980000D02*
X131866851Y-74786017D01*
X134374000Y-74980000D02*
X132360710Y-74980000D01*
X132360710Y-74980000D02*
X132166727Y-74786017D01*
X131866851Y-74786017D02*
X132166727Y-74786017D01*
X128646000Y-74980000D02*
X131672868Y-74980000D01*
G04 #@! TO.N,/DATA_OUT_P3*
X132518574Y-74480000D02*
X132380089Y-74341515D01*
X134374000Y-74480000D02*
X132518574Y-74480000D01*
X132380089Y-74341515D02*
X131262689Y-74341515D01*
X131093204Y-74511000D02*
X130733994Y-74511000D01*
X131262689Y-74341515D02*
X131093204Y-74511000D01*
G04 #@! TO.N,/DATA_IN_P3*
X72549999Y-73439999D02*
X71700000Y-72590000D01*
X72740501Y-75170443D02*
X72740501Y-73630501D01*
X81169056Y-83598998D02*
X72740501Y-75170443D01*
X118991002Y-83598998D02*
X81169056Y-83598998D01*
X127318999Y-75343009D02*
X127246990Y-75343010D01*
X127318999Y-74688099D02*
X127318999Y-75343009D01*
X127357099Y-74649999D02*
X127318999Y-74688099D01*
X127246990Y-75343010D02*
X118991002Y-83598998D01*
X128646000Y-74480000D02*
X127382500Y-74480000D01*
X72740501Y-73630501D02*
X72549999Y-73439999D01*
X127382500Y-74480000D02*
X127357099Y-74505401D01*
X127357099Y-74505401D02*
X127357099Y-74649999D01*
G04 #@! TO.N,/DATA_OUT_N3*
X132338977Y-73980000D02*
X132203002Y-73844025D01*
X134374000Y-73980000D02*
X132338977Y-73980000D01*
G04 #@! TO.N,/DATA_IN_N3*
X75089999Y-73439999D02*
X74240000Y-72590000D01*
X75280501Y-75579726D02*
X75280501Y-73630501D01*
X82992782Y-83292007D02*
X75280501Y-75579726D01*
X127012009Y-75143843D02*
X118863845Y-83292007D01*
X128646000Y-73980000D02*
X127382500Y-73980000D01*
X127382500Y-73980000D02*
X127314715Y-74047785D01*
X127314715Y-74097019D02*
X127266019Y-74145715D01*
X118863845Y-83292007D02*
X82992782Y-83292007D01*
X127255341Y-74173010D02*
X127050109Y-74378242D01*
X75280501Y-73630501D02*
X75089999Y-73439999D01*
X127314715Y-74047785D02*
X127314715Y-74097019D01*
X127266019Y-74145715D02*
X127266019Y-74173010D01*
X127050109Y-74522840D02*
X127012009Y-74560940D01*
X127266019Y-74173010D02*
X127255341Y-74173010D01*
X127050109Y-74378242D02*
X127050109Y-74522840D01*
X127012009Y-74560940D02*
X127012009Y-75143843D01*
G04 #@! TO.N,/DATA_OUT_P2*
X132416364Y-73399523D02*
X131989640Y-73399523D01*
X132496841Y-73480000D02*
X132416364Y-73399523D01*
X134374000Y-73480000D02*
X132496841Y-73480000D01*
X131103112Y-73442009D02*
X130743902Y-73442009D01*
X131947154Y-73442009D02*
X131103112Y-73442009D01*
X131989640Y-73399523D02*
X131947154Y-73442009D01*
G04 #@! TO.N,/DATA_IN_P2*
X128380001Y-73649999D02*
X128550000Y-73480000D01*
X127357099Y-73649999D02*
X128380001Y-73649999D01*
X127318999Y-73688099D02*
X127357099Y-73649999D01*
X127318999Y-73725990D02*
X127318999Y-73688099D01*
X127012010Y-74040500D02*
X127060705Y-73991805D01*
X127012009Y-74057118D02*
X127012010Y-74040500D01*
X126796100Y-74273027D02*
X127012009Y-74057118D01*
X126758000Y-74455725D02*
X126796099Y-74417626D01*
X77873481Y-77813481D02*
X83097996Y-83037996D01*
X127277286Y-73725990D02*
X127318999Y-73725990D01*
X127060705Y-73991805D02*
X127060706Y-73942570D01*
X126796099Y-74417626D02*
X126796100Y-74273027D01*
X127060706Y-73942570D02*
X127277286Y-73725990D01*
X126471275Y-74455725D02*
X126758000Y-74455725D01*
X83097996Y-83037996D02*
X117889004Y-83037996D01*
X128550000Y-73480000D02*
X128646000Y-73480000D01*
X76780000Y-72590000D02*
X77873481Y-73683481D01*
X77873481Y-73683481D02*
X77873481Y-77813481D01*
X117889004Y-83037996D02*
X126471275Y-74455725D01*
G04 #@! TO.N,/DATA_OUT_N2*
X134374000Y-72980000D02*
X132284841Y-72980000D01*
X132284841Y-72980000D02*
X132206874Y-72902033D01*
G04 #@! TO.N,/DATA_IN_N2*
X80169999Y-73439999D02*
X79320000Y-72590000D01*
X128646000Y-72980000D02*
X128646000Y-73054000D01*
X128646000Y-73054000D02*
X128602981Y-73097019D01*
X80360501Y-73630501D02*
X80169999Y-73439999D01*
X117761845Y-82731005D02*
X84851005Y-82731005D01*
X128602981Y-73097019D02*
X127395831Y-73097019D01*
X84851005Y-82731005D02*
X80360501Y-78240501D01*
X80360501Y-78240501D02*
X80360501Y-73630501D01*
X127395831Y-73097019D02*
X117761845Y-82731005D01*
G04 #@! TO.N,/DATA_OUT_P1*
X134374000Y-71980000D02*
X132250000Y-71980000D01*
G04 #@! TO.N,/DATA_IN_P1*
X85440501Y-73630501D02*
X85440501Y-78840501D01*
X85440501Y-78840501D02*
X89076994Y-82476994D01*
X127357099Y-72149999D02*
X127357099Y-72005401D01*
X127357099Y-72005401D02*
X127382500Y-71980000D01*
X117656632Y-82476994D02*
X127290616Y-72843010D01*
X127290616Y-72843010D02*
X127318999Y-72843010D01*
X127382500Y-71980000D02*
X128646000Y-71980000D01*
X84400000Y-72590000D02*
X85440501Y-73630501D01*
X127318999Y-72188099D02*
X127357099Y-72149999D01*
X89076994Y-82476994D02*
X117656632Y-82476994D01*
X127318999Y-72843010D02*
X127318999Y-72188099D01*
G04 #@! TO.N,/DATA_OUT_N1*
X130750996Y-71480000D02*
X130733996Y-71463000D01*
X134374000Y-71480000D02*
X130750996Y-71480000D01*
G04 #@! TO.N,/DATA_IN_N1*
X127331332Y-71597019D02*
X127050109Y-71878242D01*
X88439499Y-74089499D02*
X86940000Y-72590000D01*
X127050109Y-71878242D02*
X127050109Y-72022840D01*
X128646000Y-71480000D02*
X128646000Y-71597019D01*
X127012009Y-72687470D02*
X117529475Y-82170003D01*
X127050109Y-72022840D02*
X127012009Y-72060940D01*
X117529475Y-82170003D02*
X92856628Y-82170003D01*
X128646000Y-71597019D02*
X127331332Y-71597019D01*
X127012009Y-72060940D02*
X127012009Y-72687470D01*
X88439499Y-77752874D02*
X88439499Y-74089499D01*
X92856628Y-82170003D02*
X88439499Y-77752874D01*
G04 #@! TO.N,/DATA_OUT_P0*
X134374000Y-70980000D02*
X132290000Y-70980000D01*
X132290000Y-70980000D02*
X132280000Y-70970000D01*
G04 #@! TO.N,/DATA_IN_P0*
X93415992Y-81915992D02*
X90520501Y-79020501D01*
X90520501Y-79020501D02*
X90520501Y-73630501D01*
X90520501Y-73630501D02*
X89480000Y-72590000D01*
X126757998Y-71955726D02*
X126757998Y-72582256D01*
X126796098Y-71917626D02*
X126757998Y-71955726D01*
X126757998Y-72582256D02*
X117424261Y-81915992D01*
X127012008Y-71557118D02*
X126796098Y-71773028D01*
X128646000Y-70980000D02*
X128646000Y-71149999D01*
X127012008Y-71540501D02*
X127012008Y-71557118D01*
X127402510Y-71149999D02*
X127012008Y-71540501D01*
X117424261Y-81915992D02*
X93415992Y-81915992D01*
X126796098Y-71773028D02*
X126796098Y-71917626D01*
X128646000Y-71149999D02*
X127402510Y-71149999D01*
G04 #@! TO.N,/DATA_OUT_N0*
X132526274Y-70480000D02*
X132493274Y-70447000D01*
X134374000Y-70480000D02*
X132526274Y-70480000D01*
X132493274Y-70447000D02*
X131093210Y-70447000D01*
X131093210Y-70447000D02*
X130734000Y-70447000D01*
G04 #@! TO.N,/DATA_IN_N0*
X93060501Y-81126351D02*
X93060501Y-73630501D01*
X93543151Y-81609001D02*
X93060501Y-81126351D01*
X126451007Y-72113795D02*
X116955799Y-81609001D01*
X126489107Y-71645869D02*
X126489107Y-71790467D01*
X126705017Y-71429959D02*
X126489107Y-71645869D01*
X92869999Y-73439999D02*
X92020000Y-72590000D01*
X127012008Y-71106351D02*
X126705017Y-71413342D01*
X127012008Y-71060940D02*
X127012008Y-71106351D01*
X127229940Y-70843008D02*
X127012008Y-71060940D01*
X126489107Y-71790467D02*
X126451007Y-71828567D01*
X127266019Y-70843008D02*
X127229940Y-70843008D01*
X127314715Y-70547785D02*
X127314715Y-70597019D01*
X127382500Y-70480000D02*
X127314715Y-70547785D01*
X93060501Y-73630501D02*
X92869999Y-73439999D01*
X116955799Y-81609001D02*
X93543151Y-81609001D01*
X127314715Y-70597019D02*
X127266019Y-70645715D01*
X128646000Y-70480000D02*
X127382500Y-70480000D01*
X126705017Y-71413342D02*
X126705017Y-71429959D01*
X126451007Y-71828567D02*
X126451007Y-72113795D01*
X127266019Y-70645715D02*
X127266019Y-70843008D01*
D16*
G04 #@! TO.N,/VDD0*
X127010000Y-69980000D02*
X126035000Y-70955000D01*
X128646000Y-69980000D02*
X127010000Y-69980000D01*
D15*
X134374000Y-69980000D02*
X130902013Y-69980000D01*
X130902013Y-69980000D02*
X130734000Y-69811987D01*
X130565987Y-69980000D02*
X130734000Y-69811987D01*
X128646000Y-69980000D02*
X130565987Y-69980000D01*
G04 #@! TO.N,/WAIT_RD_IN_P0*
X134374000Y-69480000D02*
X132240000Y-69480000D01*
G04 #@! TO.N,/WAIT_RD_OUT_P0*
X97949999Y-73439999D02*
X97100000Y-72590000D01*
X98599499Y-74089499D02*
X97949999Y-73439999D01*
X98599499Y-75703649D02*
X98599499Y-74089499D01*
X126490000Y-69480000D02*
X118270000Y-77700000D01*
X118270000Y-77700000D02*
X100595850Y-77700000D01*
X128646000Y-69480000D02*
X126490000Y-69480000D01*
X100595850Y-77700000D02*
X98599499Y-75703649D01*
G04 #@! TO.N,/WAIT_RD_IN_N0*
X130807414Y-68980000D02*
X130697410Y-68869996D01*
X134374000Y-68980000D02*
X130807414Y-68980000D01*
G04 #@! TO.N,/WAIT_RD_OUT_N0*
X128646000Y-68980000D02*
X126555850Y-68980000D01*
X126555850Y-68980000D02*
X118142841Y-77393009D01*
X100489999Y-73439999D02*
X99640000Y-72590000D01*
X100823009Y-77393009D02*
X100680501Y-77250501D01*
X118142841Y-77393009D02*
X100823009Y-77393009D01*
X100680501Y-73630501D02*
X100489999Y-73439999D01*
X100680501Y-77250501D02*
X100680501Y-73630501D01*
G04 #@! TO.N,/WAIT_WR_IN_P0*
X134374000Y-68480000D02*
X132270000Y-68480000D01*
X132270000Y-68480000D02*
X132240000Y-68510000D01*
G04 #@! TO.N,/WAIT_WR_OUT_P0*
X104918494Y-77038494D02*
X103220501Y-75340501D01*
X128646000Y-68480000D02*
X126469249Y-68480000D01*
X120143766Y-74805483D02*
X120141142Y-74805483D01*
X103029999Y-73439999D02*
X102180000Y-72590000D01*
X126469249Y-68480000D02*
X120143766Y-74805483D01*
X117908131Y-77038494D02*
X104918494Y-77038494D01*
X120141142Y-74805483D02*
X117908131Y-77038494D01*
X103220501Y-75340501D02*
X103220501Y-73630501D01*
X103220501Y-73630501D02*
X103029999Y-73439999D01*
G04 #@! TO.N,/WAIT_WR_IN_N0*
X134374000Y-67980000D02*
X130777202Y-67980000D01*
X130777202Y-67980000D02*
X130725206Y-67928004D01*
G04 #@! TO.N,/WAIT_WR_OUT_N0*
X105760501Y-73630501D02*
X105569999Y-73439999D01*
X105569999Y-73439999D02*
X104720000Y-72590000D01*
X120013983Y-74498492D02*
X117780972Y-76731503D01*
X126535098Y-67980000D02*
X120016606Y-74498492D01*
X117780972Y-76731503D02*
X107321561Y-76731503D01*
X120016606Y-74498492D02*
X120013983Y-74498492D01*
X105760501Y-75170443D02*
X105760501Y-73630501D01*
X128646000Y-67980000D02*
X126535098Y-67980000D01*
X107321561Y-76731503D02*
X105760501Y-75170443D01*
G04 #@! TO.N,/FRAME_OUT_P0*
X134374000Y-66980000D02*
X130771990Y-66980000D01*
X130771990Y-66980000D02*
X130734000Y-67017990D01*
G04 #@! TO.N,/FRAME_IN_P0*
X119908769Y-74244481D02*
X117675758Y-76477492D01*
X128646000Y-66980000D02*
X127175874Y-66980000D01*
X112147550Y-76477492D02*
X111299499Y-75629441D01*
X127175874Y-66980000D02*
X119911393Y-74244481D01*
X111299499Y-75629441D02*
X111299499Y-74089499D01*
X117675758Y-76477492D02*
X112147550Y-76477492D01*
X110649999Y-73439999D02*
X109800000Y-72590000D01*
X111299499Y-74089499D02*
X110649999Y-73439999D01*
X119911393Y-74244481D02*
X119908769Y-74244481D01*
G04 #@! TO.N,/FRAME_OUT_N0*
X132260000Y-66480000D02*
X132250000Y-66470000D01*
X134374000Y-66480000D02*
X132260000Y-66480000D01*
G04 #@! TO.N,/FRAME_IN_N0*
X113687490Y-73937490D02*
X113189999Y-73439999D01*
X128646000Y-66480000D02*
X127241724Y-66480000D01*
X127241724Y-66480000D02*
X119784234Y-73937490D01*
X119784234Y-73937490D02*
X113687490Y-73937490D01*
X113189999Y-73439999D02*
X112340000Y-72590000D01*
G04 #@! TO.N,/LCLK_OUT_P0*
X130764985Y-65980000D02*
X130733994Y-65949009D01*
X134374000Y-65980000D02*
X130764985Y-65980000D01*
G04 #@! TO.N,/LCLK_IN_P0*
X119679019Y-73683481D02*
X115973481Y-73683481D01*
X115973481Y-73683481D02*
X115729999Y-73439999D01*
X115729999Y-73439999D02*
X114880000Y-72590000D01*
X127382500Y-65980000D02*
X119679019Y-73683481D01*
X128646000Y-65980000D02*
X127382500Y-65980000D01*
G04 #@! TO.N,/LCLK_OUT_N0*
X132320000Y-65480000D02*
X132300000Y-65460000D01*
X134374000Y-65480000D02*
X132320000Y-65480000D01*
G04 #@! TO.N,/LCLK_IN_N0*
X120338352Y-72590000D02*
X117420000Y-72590000D01*
X127255341Y-65673010D02*
X120338352Y-72590000D01*
X127700000Y-65480000D02*
X127582981Y-65597019D01*
X128646000Y-65480000D02*
X127700000Y-65480000D01*
X127266019Y-65673010D02*
X127255341Y-65673010D01*
X127582981Y-65597019D02*
X127314715Y-65597019D01*
X127314715Y-65597019D02*
X127266019Y-65645715D01*
X127266019Y-65645715D02*
X127266019Y-65673010D01*
G04 #@! TO.N,/LCLK_IN_N1*
X127065725Y-80480000D02*
X120365725Y-87180000D01*
X128646000Y-80480000D02*
X127065725Y-80480000D01*
X118397000Y-87180000D02*
X117420000Y-87180000D01*
X120365725Y-87180000D02*
X118397000Y-87180000D01*
G04 #@! TO.N,/LCLK_OUT_N1*
X134374000Y-80480000D02*
X130734008Y-80480000D01*
G04 #@! TO.N,/LCLK_IN_P1*
X126999875Y-80980000D02*
X119706394Y-88273481D01*
X115973481Y-88273481D02*
X115729999Y-88029999D01*
X119706394Y-88273481D02*
X115973481Y-88273481D01*
X128646000Y-80980000D02*
X126999875Y-80980000D01*
X115729999Y-88029999D02*
X114880000Y-87180000D01*
G04 #@! TO.N,/LCLK_OUT_P1*
X134374000Y-80980000D02*
X132090000Y-80980000D01*
G04 #@! TO.N,/FRAME_IN_N1*
X119811608Y-88527492D02*
X113687492Y-88527492D01*
X113687492Y-88527492D02*
X113189999Y-88029999D01*
X128646000Y-81480000D02*
X126859100Y-81480000D01*
X126859100Y-81480000D02*
X119811608Y-88527492D01*
X113189999Y-88029999D02*
X112340000Y-87180000D01*
G04 #@! TO.N,/FRAME_OUT_N1*
X130750000Y-81480000D02*
X130734000Y-81496000D01*
X134374000Y-81480000D02*
X130750000Y-81480000D01*
G04 #@! TO.N,/FRAME_IN_P1*
X110649999Y-88029999D02*
X109800000Y-87180000D01*
X118012749Y-90760501D02*
X111840559Y-90760501D01*
X110840501Y-89760443D02*
X110840501Y-88220501D01*
X111840559Y-90760501D02*
X110840501Y-89760443D01*
X128646000Y-81980000D02*
X126793250Y-81980000D01*
X126793250Y-81980000D02*
X118012749Y-90760501D01*
X110840501Y-88220501D02*
X110649999Y-88029999D01*
G04 #@! TO.N,/FRAME_OUT_P1*
X134374000Y-81980000D02*
X132040000Y-81980000D01*
G04 #@! TO.N,/WAIT_WR_OUT_N1*
X107014512Y-91014512D02*
X105760501Y-89760501D01*
X105760501Y-88220501D02*
X105569999Y-88029999D01*
X118117963Y-91014512D02*
X107014512Y-91014512D01*
X105760501Y-89760501D02*
X105760501Y-88220501D01*
X105569999Y-88029999D02*
X104720000Y-87180000D01*
X126152475Y-82980000D02*
X118117963Y-91014512D01*
X128646000Y-82980000D02*
X126152475Y-82980000D01*
G04 #@! TO.N,/WAIT_WR_IN_N1*
X132090000Y-82980000D02*
X132040000Y-82930000D01*
X134374000Y-82980000D02*
X132090000Y-82980000D01*
G04 #@! TO.N,/WAIT_WR_OUT_P1*
X103029999Y-88029999D02*
X102180000Y-87180000D01*
X118245122Y-91321503D02*
X104781561Y-91321503D01*
X128646000Y-83480000D02*
X126086625Y-83480000D01*
X103679499Y-88679499D02*
X103029999Y-88029999D01*
X104781561Y-91321503D02*
X103679499Y-90219441D01*
X103679499Y-90219441D02*
X103679499Y-88679499D01*
X126086625Y-83480000D02*
X118245122Y-91321503D01*
G04 #@! TO.N,/WAIT_WR_IN_P1*
X130660562Y-83480000D02*
X130623530Y-83517032D01*
X134374000Y-83480000D02*
X130660562Y-83480000D01*
G04 #@! TO.N,/WAIT_RD_OUT_N1*
X100489999Y-88029999D02*
X99640000Y-87180000D01*
X100680501Y-88220501D02*
X100489999Y-88029999D01*
X100680501Y-89760443D02*
X100680501Y-88220501D01*
X102495572Y-91575514D02*
X100680501Y-89760443D01*
X118350336Y-91575514D02*
X102495572Y-91575514D01*
X128646000Y-83980000D02*
X125945850Y-83980000D01*
X125945850Y-83980000D02*
X118350336Y-91575514D01*
G04 #@! TO.N,/WAIT_RD_OUT_P1*
X97949999Y-88029999D02*
X97100000Y-87180000D01*
X98599499Y-88679499D02*
X97949999Y-88029999D01*
X98599499Y-90219441D02*
X98599499Y-88679499D01*
X100290834Y-91910776D02*
X98599499Y-90219441D01*
X118480000Y-91910776D02*
X100290834Y-91910776D01*
X125910776Y-84480000D02*
X118480000Y-91910776D01*
X128646000Y-84480000D02*
X125910776Y-84480000D01*
G04 #@! TO.N,/WAIT_RD_IN_P1*
X134374000Y-84480000D02*
X130736531Y-84480000D01*
X130736531Y-84480000D02*
X130715554Y-84459023D01*
G04 #@! TO.N,/DATA_IN_N8*
X93060501Y-88220501D02*
X92869999Y-88029999D01*
X93060501Y-94622501D02*
X93060501Y-88220501D01*
X93650000Y-95212000D02*
X93060501Y-94622501D01*
X120948849Y-92330726D02*
X120948849Y-93535777D01*
X126705018Y-86574557D02*
X120948849Y-92330726D01*
X126705018Y-86413342D02*
X126705018Y-86574557D01*
X127012008Y-86060940D02*
X127012008Y-86106352D01*
X127229940Y-85843008D02*
X127012008Y-86060940D01*
X127266019Y-85843008D02*
X127229940Y-85843008D01*
X127266019Y-85645715D02*
X127266019Y-85843008D01*
X127314715Y-85597019D02*
X127266019Y-85645715D01*
X128283981Y-85597019D02*
X127314715Y-85597019D01*
X128401000Y-85480000D02*
X128283981Y-85597019D01*
X128646000Y-85480000D02*
X128401000Y-85480000D01*
X119272626Y-95212000D02*
X93650000Y-95212000D01*
X120948849Y-93535777D02*
X119272626Y-95212000D01*
X92869999Y-88029999D02*
X92020000Y-87180000D01*
X127012008Y-86106352D02*
X126705018Y-86413342D01*
G04 #@! TO.N,/DATA_OUT_N8*
X134374000Y-85480000D02*
X130830932Y-85480000D01*
X130830932Y-85480000D02*
X130698967Y-85348035D01*
G04 #@! TO.N,/DATA_IN_P8*
X90979499Y-92975649D02*
X90979499Y-88679499D01*
X127012009Y-86701716D02*
X121255840Y-92457885D01*
X90979499Y-88679499D02*
X89480000Y-87180000D01*
X127402511Y-86149999D02*
X127012009Y-86540501D01*
X127012009Y-86540501D02*
X127012009Y-86701716D01*
X121255840Y-92457885D02*
X121255840Y-93662936D01*
X128646000Y-86149999D02*
X127402511Y-86149999D01*
X121255840Y-93662936D02*
X119399785Y-95518991D01*
X93522841Y-95518991D02*
X90979499Y-92975649D01*
X128646000Y-85980000D02*
X128646000Y-86149999D01*
X119399785Y-95518991D02*
X93522841Y-95518991D01*
G04 #@! TO.N,/DATA_OUT_P8*
X132015000Y-85980000D02*
X131990000Y-86005000D01*
X134374000Y-85980000D02*
X132015000Y-85980000D01*
G04 #@! TO.N,/DATA_IN_N9*
X127012009Y-87450843D02*
X121509851Y-92953000D01*
X127012009Y-87060940D02*
X127012009Y-87450843D01*
X119504999Y-95773002D02*
X93417627Y-95773002D01*
X87980501Y-88220501D02*
X86940000Y-87180000D01*
X127266020Y-86645714D02*
X127266020Y-86806930D01*
X128646000Y-86597019D02*
X127314715Y-86597019D01*
X127314715Y-86597019D02*
X127266020Y-86645714D01*
X127266020Y-86806930D02*
X127012009Y-87060940D01*
X87980501Y-90335876D02*
X87980501Y-88220501D01*
X121509851Y-93768150D02*
X119504999Y-95773002D01*
X121509851Y-92953000D02*
X121509851Y-93768150D01*
X93417627Y-95773002D02*
X87980501Y-90335876D01*
X128646000Y-86480000D02*
X128646000Y-86597019D01*
G04 #@! TO.N,/DATA_OUT_N9*
X134374000Y-86480000D02*
X130897148Y-86480000D01*
X130897148Y-86480000D02*
X130707175Y-86290027D01*
G04 #@! TO.N,/DATA_IN_P9*
X85249999Y-88029999D02*
X84400000Y-87180000D01*
X85440501Y-88220501D02*
X85249999Y-88029999D01*
X85440501Y-89760443D02*
X85440501Y-88220501D01*
X91760051Y-96079993D02*
X85440501Y-89760443D01*
X121816840Y-94053685D02*
X119790532Y-96079993D01*
X121816840Y-93080160D02*
X121816840Y-94053685D01*
X127318999Y-87188099D02*
X127318999Y-87578001D01*
X127527098Y-86980000D02*
X127318999Y-87188099D01*
X119790532Y-96079993D02*
X91760051Y-96079993D01*
X128646000Y-86980000D02*
X127527098Y-86980000D01*
X127318999Y-87578001D02*
X121816840Y-93080160D01*
G04 #@! TO.N,/DATA_OUT_P9*
X131990000Y-86980000D02*
X131940000Y-87030000D01*
X134374000Y-86980000D02*
X131990000Y-86980000D01*
G04 #@! TO.N,/DATA_IN_N10*
X128646000Y-87980000D02*
X127382500Y-87980000D01*
X122070856Y-93291644D02*
X122070856Y-94158894D01*
X80360501Y-89760443D02*
X80360501Y-88220501D01*
X80169999Y-88029999D02*
X79320000Y-87180000D01*
X80360501Y-88220501D02*
X80169999Y-88029999D01*
X122070856Y-94158894D02*
X119895746Y-96334004D01*
X86934062Y-96334004D02*
X80360501Y-89760443D01*
X127382500Y-87980000D02*
X122070856Y-93291644D01*
X119895746Y-96334004D02*
X86934062Y-96334004D01*
G04 #@! TO.N,/DATA_OUT_N10*
X132003974Y-87980000D02*
X131965000Y-87941026D01*
X134374000Y-87980000D02*
X132003974Y-87980000D01*
G04 #@! TO.N,/DATA_IN_P10*
X120022905Y-96640995D02*
X84701053Y-96640995D01*
X128646000Y-88480000D02*
X127382500Y-88480000D01*
X78279499Y-90219441D02*
X78279499Y-88679499D01*
X78279499Y-88679499D02*
X77629999Y-88029999D01*
X84701053Y-96640995D02*
X78279499Y-90219441D01*
X122377847Y-93484653D02*
X122377847Y-94286053D01*
X122377847Y-94286053D02*
X120022905Y-96640995D01*
X77629999Y-88029999D02*
X76780000Y-87180000D01*
X127382500Y-88480000D02*
X122377847Y-93484653D01*
G04 #@! TO.N,/DATA_OUT_P10*
X132219084Y-88480000D02*
X132177600Y-88438516D01*
X132177600Y-88438516D02*
X130871501Y-88438516D01*
X130871501Y-88438516D02*
X130860993Y-88428008D01*
X130860993Y-88428008D02*
X130606994Y-88174009D01*
X134374000Y-88480000D02*
X132219084Y-88480000D01*
G04 #@! TO.N,/DATA_IN_N11*
X122631858Y-93730642D02*
X122631858Y-94391267D01*
X75089999Y-88029999D02*
X74240000Y-87180000D01*
X127382500Y-88980000D02*
X122631858Y-93730642D01*
X75280501Y-89760443D02*
X75280501Y-88220501D01*
X128646000Y-88980000D02*
X127382500Y-88980000D01*
X122631858Y-94391267D02*
X120128119Y-96895006D01*
X82415064Y-96895006D02*
X75280501Y-89760443D01*
X75280501Y-88220501D02*
X75089999Y-88029999D01*
X120128119Y-96895006D02*
X82415064Y-96895006D01*
G04 #@! TO.N,/DATA_OUT_N11*
X132061222Y-88980000D02*
X131964239Y-88883017D01*
X134374000Y-88980000D02*
X132061222Y-88980000D01*
G04 #@! TO.N,/DATA_IN_P11*
X72549999Y-88029999D02*
X71700000Y-87180000D01*
X80182055Y-97201997D02*
X72740501Y-89760443D01*
X72740501Y-88220501D02*
X72549999Y-88029999D01*
X120255278Y-97201997D02*
X80182055Y-97201997D01*
X72740501Y-89760443D02*
X72740501Y-88220501D01*
X122938849Y-94518426D02*
X120255278Y-97201997D01*
X122938849Y-93990151D02*
X122938849Y-94518426D01*
X127449000Y-89480000D02*
X122938849Y-93990151D01*
X128646000Y-89480000D02*
X127449000Y-89480000D01*
G04 #@! TO.N,/DATA_OUT_P11*
X132219892Y-89380507D02*
X131230719Y-89380507D01*
X131230719Y-89380507D02*
X131093210Y-89242998D01*
X134374000Y-89480000D02*
X132319385Y-89480000D01*
X132319385Y-89480000D02*
X132219892Y-89380507D01*
X131093210Y-89242998D02*
X130734000Y-89242998D01*
G04 #@! TO.N,/DATA_IN_N12*
X128646000Y-90480000D02*
X127382500Y-90480000D01*
X127336500Y-90480000D02*
X120360492Y-97456008D01*
X73406008Y-97456008D02*
X68119499Y-92169499D01*
X67469999Y-88029999D02*
X66620000Y-87180000D01*
X68119499Y-88679499D02*
X67469999Y-88029999D01*
X128646000Y-90480000D02*
X127336500Y-90480000D01*
X120360492Y-97456008D02*
X73406008Y-97456008D01*
X68119499Y-92169499D02*
X68119499Y-88679499D01*
G04 #@! TO.N,/DATA_OUT_N12*
X134374000Y-90480000D02*
X132580273Y-90480000D01*
X132369792Y-90269519D02*
X131626325Y-90269519D01*
X131626325Y-90269519D02*
X131001831Y-90894013D01*
X131001831Y-90894013D02*
X130747832Y-91148012D01*
X132580273Y-90480000D02*
X132369792Y-90269519D01*
G04 #@! TO.N,/DATA_IN_P12*
X65120501Y-89760443D02*
X65120501Y-88220501D01*
X127270650Y-90980000D02*
X120487651Y-97762999D01*
X128646000Y-90980000D02*
X127270650Y-90980000D01*
X120487651Y-97762999D02*
X73123057Y-97762999D01*
X64929999Y-88029999D02*
X64080000Y-87180000D01*
X65120501Y-88220501D02*
X64929999Y-88029999D01*
X73123057Y-97762999D02*
X65120501Y-89760443D01*
G04 #@! TO.N,/DATA_OUT_P12*
X134374000Y-90980000D02*
X132090000Y-90980000D01*
X132090000Y-90980000D02*
X132004000Y-90894000D01*
G04 #@! TO.N,/DATA_IN_N13*
X120592865Y-98017010D02*
X70837068Y-98017010D01*
X70837068Y-98017010D02*
X62580501Y-89760443D01*
X62580501Y-88220501D02*
X62389999Y-88029999D01*
X62580501Y-89760443D02*
X62580501Y-88220501D01*
X62389999Y-88029999D02*
X61540000Y-87180000D01*
X127129875Y-91480000D02*
X120592865Y-98017010D01*
X128646000Y-91480000D02*
X127129875Y-91480000D01*
G04 #@! TO.N,/DATA_OUT_N13*
X132456864Y-91480000D02*
X132344362Y-91592502D01*
X132344362Y-91592502D02*
X131222654Y-91592502D01*
X131222654Y-91592502D02*
X130979151Y-91836005D01*
X130979151Y-91836005D02*
X130725152Y-92090004D01*
X134374000Y-91480000D02*
X132456864Y-91480000D01*
G04 #@! TO.N,/DATA_IN_P13*
X127064025Y-91980000D02*
X120720024Y-98324001D01*
X120720024Y-98324001D02*
X68604059Y-98324001D01*
X60040501Y-88220501D02*
X59849999Y-88029999D01*
X60040501Y-89760443D02*
X60040501Y-88220501D01*
X68604059Y-98324001D02*
X60040501Y-89760443D01*
X59849999Y-88029999D02*
X59000000Y-87180000D01*
X128646000Y-91980000D02*
X127064025Y-91980000D01*
G04 #@! TO.N,/DATA_OUT_P13*
X134374000Y-91980000D02*
X132176870Y-91980000D01*
X132176870Y-91980000D02*
X132066878Y-92089992D01*
G04 #@! TO.N,/DATA_IN_N14*
X54960501Y-88220501D02*
X54769999Y-88029999D01*
X54769999Y-88029999D02*
X53920000Y-87180000D01*
X54960501Y-89760443D02*
X54960501Y-88220501D01*
X120825238Y-98578012D02*
X63778070Y-98578012D01*
X126423250Y-92980000D02*
X120825238Y-98578012D01*
X128646000Y-92980000D02*
X126423250Y-92980000D01*
X63778070Y-98578012D02*
X54960501Y-89760443D01*
G04 #@! TO.N,/DATA_OUT_N14*
X132077040Y-92980000D02*
X132004000Y-93053040D01*
X134374000Y-92980000D02*
X132077040Y-92980000D01*
G04 #@! TO.N,/DATA_IN_P14*
X126357400Y-93480000D02*
X120952397Y-98885003D01*
X128646000Y-93480000D02*
X126357400Y-93480000D01*
X52229999Y-88029999D02*
X51380000Y-87180000D01*
X52420501Y-88220501D02*
X52229999Y-88029999D01*
X61545061Y-98885003D02*
X52420501Y-89760443D01*
X52420501Y-89760443D02*
X52420501Y-88220501D01*
X120952397Y-98885003D02*
X61545061Y-98885003D01*
G04 #@! TO.N,/DATA_OUT_P14*
X134374000Y-93480000D02*
X132694274Y-93480000D01*
X132694274Y-93480000D02*
X132549775Y-93624498D01*
X130751309Y-93729172D02*
X130497310Y-93983171D01*
X132549775Y-93624498D02*
X130855983Y-93624498D01*
X130855983Y-93624498D02*
X130751309Y-93729172D01*
G04 #@! TO.N,/DATA_IN_N15*
X128646000Y-93980000D02*
X126216625Y-93980000D01*
X57153222Y-99139014D02*
X49880501Y-91866293D01*
X126216625Y-93980000D02*
X121057611Y-99139014D01*
X49689999Y-88029999D02*
X48840000Y-87180000D01*
X49880501Y-88220501D02*
X49689999Y-88029999D01*
X121057611Y-99139014D02*
X57153222Y-99139014D01*
X49880501Y-91866293D02*
X49880501Y-88220501D01*
G04 #@! TO.N,/DATA_OUT_N15*
X134374000Y-93980000D02*
X132347000Y-93980000D01*
X132347000Y-93980000D02*
X131877000Y-94450000D01*
G04 #@! TO.N,/DATA_IN_P15*
X47149999Y-88029999D02*
X46300000Y-87180000D01*
X128646000Y-94480000D02*
X126150775Y-94480000D01*
X57026063Y-99446005D02*
X47799499Y-90219441D01*
X126150775Y-94480000D02*
X121184770Y-99446005D01*
X47799499Y-88679499D02*
X47149999Y-88029999D01*
X47799499Y-90219441D02*
X47799499Y-88679499D01*
X121184770Y-99446005D02*
X57026063Y-99446005D01*
G04 #@! TO.N,/DATA_OUT_P15*
X134374000Y-94480000D02*
X132583273Y-94480000D01*
X132583273Y-94480000D02*
X132115792Y-94947481D01*
X132115792Y-94947481D02*
X131638208Y-94947481D01*
X131613014Y-94922287D02*
X131123307Y-94922287D01*
X131123307Y-94922287D02*
X130764097Y-94922287D01*
X131638208Y-94947481D02*
X131613014Y-94922287D01*
G04 #@! TO.N,/CTRL_IN1*
X44609999Y-88029999D02*
X43760000Y-87180000D01*
X45259499Y-88679499D02*
X44609999Y-88029999D01*
X54740074Y-99700016D02*
X45259499Y-90219441D01*
X126267000Y-94980000D02*
X121546984Y-99700016D01*
X45259499Y-90219441D02*
X45259499Y-88679499D01*
X121546984Y-99700016D02*
X54740074Y-99700016D01*
X128646000Y-94980000D02*
X126267000Y-94980000D01*
G04 #@! TO.N,/CTRL_OUT1*
X134374000Y-94980000D02*
X133110500Y-94980000D01*
X132889008Y-95201492D02*
X132474371Y-95201492D01*
X132283872Y-95391991D02*
X131924662Y-95391991D01*
X132474371Y-95201492D02*
X132283872Y-95391991D01*
X133110500Y-94980000D02*
X132889008Y-95201492D01*
G04 #@! TO.N,/CTRL_OUT3*
X132193984Y-124980000D02*
X131939985Y-125233999D01*
X134374000Y-124980000D02*
X132193984Y-124980000D01*
X130743999Y-125233999D02*
X130490000Y-124980000D01*
X131939985Y-125233999D02*
X130743999Y-125233999D01*
G04 #@! TO.N,/CTRL_IN3*
X44609999Y-117209999D02*
X43760000Y-116360000D01*
X44800501Y-117400501D02*
X44609999Y-117209999D01*
X44800501Y-121165501D02*
X44800501Y-117400501D01*
X125540000Y-124980000D02*
X120976984Y-129543016D01*
X128646000Y-124980000D02*
X125540000Y-124980000D01*
X120976984Y-129543016D02*
X53178016Y-129543016D01*
X53178016Y-129543016D02*
X44800501Y-121165501D01*
G04 #@! TO.N,/DATA_OUT_P31*
X134374000Y-124480000D02*
X132036122Y-124480000D01*
X132036122Y-124480000D02*
X131914143Y-124601979D01*
G04 #@! TO.N,/DATA_IN_P31*
X120871771Y-129289005D02*
X56189005Y-129289005D01*
X56189005Y-129289005D02*
X47340501Y-120440501D01*
X47149999Y-117209999D02*
X46300000Y-116360000D01*
X47340501Y-120440501D02*
X47340501Y-117400501D01*
X47340501Y-117400501D02*
X47149999Y-117209999D01*
X128646000Y-124480000D02*
X125680774Y-124480000D01*
X125680774Y-124480000D02*
X120871771Y-129289005D01*
G04 #@! TO.N,/DATA_OUT_N31*
X131727138Y-123914000D02*
X130966210Y-123914000D01*
X134374000Y-123980000D02*
X132468862Y-123980000D01*
X131917639Y-124104501D02*
X131727138Y-123914000D01*
X132344361Y-124104501D02*
X131917639Y-124104501D01*
X130966210Y-123914000D02*
X130607000Y-123914000D01*
X132468862Y-123980000D02*
X132344361Y-124104501D01*
G04 #@! TO.N,/DATA_IN_N31*
X49880501Y-119428517D02*
X49880501Y-117400501D01*
X49689999Y-117209999D02*
X48840000Y-116360000D01*
X125746623Y-123980000D02*
X120744612Y-128982014D01*
X59433998Y-128982014D02*
X49880501Y-119428517D01*
X49880501Y-117400501D02*
X49689999Y-117209999D01*
X128646000Y-123980000D02*
X125746623Y-123980000D01*
X120744612Y-128982014D02*
X59433998Y-128982014D01*
G04 #@! TO.N,/DATA_OUT_P30*
X134374000Y-123480000D02*
X132078000Y-123480000D01*
X132078000Y-123480000D02*
X132004000Y-123406000D01*
G04 #@! TO.N,/DATA_IN_P30*
X128646000Y-123480000D02*
X125887399Y-123480000D01*
X125887399Y-123480000D02*
X120639398Y-128728003D01*
X120639398Y-128728003D02*
X62208061Y-128728003D01*
X62208061Y-128728003D02*
X52420501Y-118940443D01*
X52420501Y-118940443D02*
X52420501Y-117400501D01*
X52420501Y-117400501D02*
X52229999Y-117209999D01*
X52229999Y-117209999D02*
X51380000Y-116360000D01*
G04 #@! TO.N,/DATA_OUT_N30*
X130944885Y-122845009D02*
X130585675Y-122845009D01*
X132242792Y-122908519D02*
X131008395Y-122908519D01*
X132314273Y-122980000D02*
X132242792Y-122908519D01*
X134374000Y-122980000D02*
X132314273Y-122980000D01*
X131008395Y-122908519D02*
X130944885Y-122845009D01*
G04 #@! TO.N,/DATA_IN_N30*
X54960501Y-119200501D02*
X54960501Y-117400501D01*
X128646000Y-122980000D02*
X125953251Y-122980000D01*
X54960501Y-117400501D02*
X54769999Y-117209999D01*
X64181012Y-128421012D02*
X54960501Y-119200501D01*
X120512239Y-128421012D02*
X64181012Y-128421012D01*
X125953251Y-122980000D02*
X120512239Y-128421012D01*
X54769999Y-117209999D02*
X53920000Y-116360000D01*
G04 #@! TO.N,/DATA_OUT_P29*
X131907138Y-121955998D02*
X130926208Y-121955998D01*
X134374000Y-121980000D02*
X132378864Y-121980000D01*
X132378864Y-121980000D02*
X132344362Y-121945498D01*
X131917638Y-121945498D02*
X131907138Y-121955998D01*
X130926208Y-121955998D02*
X130566998Y-121955998D01*
X132344362Y-121945498D02*
X131917638Y-121945498D01*
G04 #@! TO.N,/DATA_IN_P29*
X59849999Y-117209999D02*
X59000000Y-116360000D01*
X69167001Y-128167001D02*
X60040501Y-119040501D01*
X60040501Y-117400501D02*
X59849999Y-117209999D01*
X60040501Y-119040501D02*
X60040501Y-117400501D01*
X128646000Y-121980000D02*
X126594026Y-121980000D01*
X126594026Y-121980000D02*
X120407025Y-128167001D01*
X120407025Y-128167001D02*
X69167001Y-128167001D01*
G04 #@! TO.N,/DATA_OUT_N29*
X134374000Y-121480000D02*
X132035992Y-121480000D01*
X132035992Y-121480000D02*
X132004000Y-121448008D01*
G04 #@! TO.N,/DATA_IN_N29*
X62389999Y-117209999D02*
X61540000Y-116360000D01*
X120279866Y-127860010D02*
X71500068Y-127860010D01*
X62580501Y-117400501D02*
X62389999Y-117209999D01*
X62580501Y-118940443D02*
X62580501Y-117400501D01*
X71500068Y-127860010D02*
X62580501Y-118940443D01*
X128646000Y-121480000D02*
X126659876Y-121480000D01*
X126659876Y-121480000D02*
X120279866Y-127860010D01*
G04 #@! TO.N,/DATA_OUT_P28*
X130924210Y-121014006D02*
X130565000Y-121014006D01*
X131790638Y-121003506D02*
X131780138Y-121014006D01*
X132245274Y-120980000D02*
X132221768Y-121003506D01*
X132221768Y-121003506D02*
X131790638Y-121003506D01*
X131780138Y-121014006D02*
X130924210Y-121014006D01*
X134374000Y-120980000D02*
X132245274Y-120980000D01*
G04 #@! TO.N,/DATA_IN_P28*
X65579499Y-119399441D02*
X65579499Y-117859499D01*
X120174652Y-127605999D02*
X73786057Y-127605999D01*
X128646000Y-120980000D02*
X126800651Y-120980000D01*
X64929999Y-117209999D02*
X64080000Y-116360000D01*
X73786057Y-127605999D02*
X65579499Y-119399441D01*
X65579499Y-117859499D02*
X64929999Y-117209999D01*
X126800651Y-120980000D02*
X120174652Y-127605999D01*
G04 #@! TO.N,/DATA_OUT_N28*
X134374000Y-120480000D02*
X132009012Y-120480000D01*
X132009012Y-120480000D02*
X132004000Y-120485012D01*
G04 #@! TO.N,/DATA_IN_N28*
X128646000Y-120480000D02*
X128646000Y-120364000D01*
X76049008Y-127299008D02*
X67660501Y-118910501D01*
X126866501Y-120480000D02*
X120047493Y-127299008D01*
X128646000Y-120480000D02*
X126866501Y-120480000D01*
X67660501Y-117400501D02*
X67469999Y-117209999D01*
X67469999Y-117209999D02*
X66620000Y-116360000D01*
X67660501Y-118910501D02*
X67660501Y-117400501D01*
X120047493Y-127299008D02*
X76049008Y-127299008D01*
G04 #@! TO.N,/VDDIO1*
X128646000Y-89980000D02*
X131851539Y-89980000D01*
X132161521Y-89980000D02*
X132006530Y-89825009D01*
X134374000Y-89980000D02*
X132161521Y-89980000D01*
X131851539Y-89980000D02*
X132006530Y-89825009D01*
G04 #@! TO.N,/DATA_OUT_P27*
X132046000Y-119480000D02*
X132004008Y-119521992D01*
X134374000Y-119480000D02*
X132046000Y-119480000D01*
G04 #@! TO.N,/DATA_IN_P27*
X127382500Y-119480000D02*
X119817503Y-127044997D01*
X72549999Y-117209999D02*
X71700000Y-116360000D01*
X80804997Y-127044997D02*
X72740501Y-118980501D01*
X119817503Y-127044997D02*
X80804997Y-127044997D01*
X128646000Y-119480000D02*
X127382500Y-119480000D01*
X72740501Y-118980501D02*
X72740501Y-117400501D01*
X72740501Y-117400501D02*
X72549999Y-117209999D01*
G04 #@! TO.N,/DATA_OUT_N27*
X132388872Y-118980000D02*
X132344371Y-119024501D01*
X131746138Y-118980000D02*
X130879212Y-118980000D01*
X130879212Y-118980000D02*
X130520002Y-118980000D01*
X132344371Y-119024501D02*
X131790639Y-119024501D01*
X131790639Y-119024501D02*
X131746138Y-118980000D01*
X134374000Y-118980000D02*
X132388872Y-118980000D01*
G04 #@! TO.N,/DATA_IN_N27*
X75280501Y-117400501D02*
X75089999Y-117209999D01*
X75280501Y-118940443D02*
X75280501Y-117400501D01*
X75089999Y-117209999D02*
X74240000Y-116360000D01*
X128646000Y-118980000D02*
X127382500Y-118980000D01*
X127382500Y-118980000D02*
X119624494Y-126738006D01*
X83078064Y-126738006D02*
X75280501Y-118940443D01*
X119624494Y-126738006D02*
X83078064Y-126738006D01*
G04 #@! TO.N,/DATA_OUT_P26*
X134374000Y-118480000D02*
X132104000Y-118480000D01*
X132104000Y-118480000D02*
X132004000Y-118580000D01*
G04 #@! TO.N,/DATA_IN_P26*
X128646000Y-118480000D02*
X127382500Y-118480000D01*
X78279499Y-117859499D02*
X77629999Y-117209999D01*
X85364053Y-126483995D02*
X78279499Y-119399441D01*
X127382500Y-118480000D02*
X119378505Y-126483995D01*
X119378505Y-126483995D02*
X85364053Y-126483995D01*
X78279499Y-119399441D02*
X78279499Y-117859499D01*
X77629999Y-117209999D02*
X76780000Y-116360000D01*
G04 #@! TO.N,/DATA_OUT_N26*
X130869210Y-118010000D02*
X130510000Y-118010000D01*
X132369792Y-117955519D02*
X131892208Y-117955519D01*
X132394273Y-117980000D02*
X132369792Y-117955519D01*
X131837727Y-118010000D02*
X130869210Y-118010000D01*
X134374000Y-117980000D02*
X132394273Y-117980000D01*
X131892208Y-117955519D02*
X131837727Y-118010000D01*
G04 #@! TO.N,/DATA_IN_N26*
X119185496Y-126177004D02*
X87507004Y-126177004D01*
X80169999Y-117209999D02*
X79320000Y-116360000D01*
X87507004Y-126177004D02*
X80360501Y-119030501D01*
X128646000Y-117980000D02*
X127382500Y-117980000D01*
X80360501Y-117400501D02*
X80169999Y-117209999D01*
X80360501Y-119030501D02*
X80360501Y-117400501D01*
X127382500Y-117980000D02*
X119185496Y-126177004D01*
G04 #@! TO.N,/DATA_OUT_P25*
X132096768Y-116992498D02*
X131790638Y-116992498D01*
X131790638Y-116992498D02*
X131726675Y-117056461D01*
X132109266Y-116980000D02*
X132096768Y-116992498D01*
X131094706Y-117056461D02*
X130735496Y-117056461D01*
X131726675Y-117056461D02*
X131094706Y-117056461D01*
X134374000Y-116980000D02*
X132109266Y-116980000D01*
G04 #@! TO.N,/DATA_IN_P25*
X128646000Y-116980000D02*
X127382500Y-116980000D01*
X127382500Y-116980000D02*
X118439507Y-125922993D01*
X85440501Y-120883026D02*
X85440501Y-117400501D01*
X118439507Y-125922993D02*
X90480468Y-125922993D01*
X90480468Y-125922993D02*
X85440501Y-120883026D01*
X85440501Y-117400501D02*
X85249999Y-117209999D01*
X85249999Y-117209999D02*
X84400000Y-116360000D01*
G04 #@! TO.N,/DATA_OUT_N25*
X131875008Y-116480000D02*
X131860000Y-116495008D01*
X134374000Y-116480000D02*
X131875008Y-116480000D01*
G04 #@! TO.N,/DATA_IN_N25*
X128646000Y-116480000D02*
X127382500Y-116480000D01*
X127382500Y-116480000D02*
X118246498Y-125616002D01*
X118246498Y-125616002D02*
X90607627Y-125616002D01*
X90607627Y-125616002D02*
X88439499Y-123447874D01*
X88439499Y-123447874D02*
X88439499Y-117859499D01*
X88439499Y-117859499D02*
X87789999Y-117209999D01*
X87789999Y-117209999D02*
X86940000Y-116360000D01*
G04 #@! TO.N,/DATA_OUT_P24*
X130785435Y-115980000D02*
X130777426Y-115988009D01*
X134374000Y-115980000D02*
X130785435Y-115980000D01*
X130777426Y-115988009D02*
X130650966Y-116114469D01*
G04 #@! TO.N,/DATA_IN_P24*
X90458009Y-118338067D02*
X90458009Y-117338009D01*
X90520501Y-118400559D02*
X90458009Y-118338067D01*
X90520501Y-119399441D02*
X90520501Y-118400559D01*
X127573010Y-115980000D02*
X127573010Y-116149999D01*
X90458009Y-119461933D02*
X90520501Y-119399441D01*
X127357099Y-116149999D02*
X127281108Y-116225990D01*
X127281108Y-116225990D02*
X127277285Y-116225991D01*
X90458009Y-117338009D02*
X89480000Y-116360000D01*
X128646000Y-115980000D02*
X127573010Y-115980000D01*
X127277285Y-116225991D02*
X118141285Y-125361991D01*
X91896991Y-125361991D02*
X90458009Y-123923009D01*
X118141285Y-125361991D02*
X91896991Y-125361991D01*
X127573010Y-116149999D02*
X127357099Y-116149999D01*
X90458009Y-123923009D02*
X90458009Y-119461933D01*
G04 #@! TO.N,/DATA_OUT_N24*
X131961991Y-115480000D02*
X131870000Y-115388009D01*
X134374000Y-115480000D02*
X131961991Y-115480000D01*
G04 #@! TO.N,/DATA_IN_N24*
X91170001Y-117209999D02*
X92020000Y-116360000D01*
X91170001Y-117508941D02*
X91170001Y-117209999D01*
X91128030Y-117466970D02*
X91170001Y-117508941D01*
X90979499Y-117615501D02*
X91128030Y-117466970D01*
X90979499Y-123094499D02*
X90979499Y-117615501D01*
X92940000Y-125055000D02*
X90979499Y-123094499D01*
X117807500Y-125055000D02*
X92940000Y-125055000D01*
X127382500Y-115480000D02*
X117807500Y-125055000D01*
X128646000Y-115480000D02*
X127382500Y-115480000D01*
G04 #@! TO.N,/VDD1*
X134374000Y-84980000D02*
X131970000Y-84980000D01*
X128646000Y-84980000D02*
X126950000Y-84980000D01*
X126598000Y-84980000D02*
X126030000Y-84980000D01*
X126950000Y-84980000D02*
X126598000Y-84980000D01*
X126030000Y-84980000D02*
X125770000Y-84980000D01*
X131970000Y-84980000D02*
X130988796Y-84980000D01*
X130988796Y-84980000D02*
X130912329Y-84903533D01*
X130409138Y-84980000D02*
X129909500Y-84980000D01*
X130912329Y-84903533D02*
X130485605Y-84903533D01*
X130485605Y-84903533D02*
X130409138Y-84980000D01*
X129909500Y-84980000D02*
X128646000Y-84980000D01*
G04 #@! TO.N,/WAIT_RD_IN_P3*
X131890000Y-114480000D02*
X131870000Y-114460000D01*
X134374000Y-114480000D02*
X131890000Y-114480000D01*
G04 #@! TO.N,/WAIT_RD_OUT_P3*
X98349009Y-119109784D02*
X98349009Y-117609009D01*
X100105214Y-120865989D02*
X98349009Y-119109784D01*
X111179297Y-120865989D02*
X100105214Y-120865989D01*
X118466880Y-121369496D02*
X111682803Y-121369496D01*
X98349009Y-117609009D02*
X97949999Y-117209999D01*
X128646000Y-114480000D02*
X125356376Y-114480000D01*
X125356376Y-114480000D02*
X118466880Y-121369496D01*
X111682803Y-121369496D02*
X111179297Y-120865989D01*
X97949999Y-117209999D02*
X97100000Y-116360000D01*
G04 #@! TO.N,/WAIT_RD_IN_N3*
X130866299Y-113962518D02*
X130852330Y-113976487D01*
X132158792Y-113962518D02*
X130866299Y-113962518D01*
X130852330Y-113976487D02*
X130598331Y-114230486D01*
X134374000Y-113980000D02*
X132176274Y-113980000D01*
X132176274Y-113980000D02*
X132158792Y-113962518D01*
G04 #@! TO.N,/WAIT_RD_OUT_N3*
X128646000Y-113980000D02*
X125422226Y-113980000D01*
X111809961Y-121062505D02*
X111306456Y-120558998D01*
X111306456Y-120558998D02*
X102137373Y-120558998D01*
X125422226Y-113980000D02*
X118339721Y-121062505D01*
X100680501Y-117400501D02*
X100489999Y-117209999D01*
X102137373Y-120558998D02*
X100680501Y-119102118D01*
X118339721Y-121062505D02*
X111809961Y-121062505D01*
X100680501Y-119102118D02*
X100680501Y-117400501D01*
X100489999Y-117209999D02*
X99640000Y-116360000D01*
G04 #@! TO.N,/WAIT_WR_IN_P3*
X131908008Y-113480000D02*
X131870000Y-113518008D01*
X134374000Y-113480000D02*
X131908008Y-113480000D01*
G04 #@! TO.N,/WAIT_WR_OUT_P3*
X125563001Y-113480000D02*
X118234507Y-120808494D01*
X103220501Y-117400501D02*
X103029999Y-117209999D01*
X103220501Y-120007489D02*
X103220501Y-117400501D01*
X111411670Y-120304987D02*
X103517999Y-120304987D01*
X128646000Y-113480000D02*
X125563001Y-113480000D01*
X103029999Y-117209999D02*
X102180000Y-116360000D01*
X103517999Y-120304987D02*
X103220501Y-120007489D01*
X118234507Y-120808494D02*
X111915175Y-120808494D01*
X111915175Y-120808494D02*
X111411670Y-120304987D01*
G04 #@! TO.N,/WAIT_WR_IN_N3*
X132093362Y-112981493D02*
X131048201Y-112981493D01*
X134374000Y-112980000D02*
X132094855Y-112980000D01*
X130931699Y-113097995D02*
X130815261Y-113097995D01*
X132094855Y-112980000D02*
X132093362Y-112981493D01*
X130815261Y-113097995D02*
X130624762Y-113288494D01*
X131048201Y-112981493D02*
X130931699Y-113097995D01*
G04 #@! TO.N,/WAIT_WR_OUT_N3*
X105760501Y-117400501D02*
X105569999Y-117209999D01*
X105760501Y-118943743D02*
X105760501Y-117400501D01*
X106814745Y-119997996D02*
X105760501Y-118943743D01*
X112042333Y-120501503D02*
X111538829Y-119997996D01*
X125628851Y-112980000D02*
X118107348Y-120501503D01*
X128646000Y-112980000D02*
X125628851Y-112980000D01*
X111538829Y-119997996D02*
X106814745Y-119997996D01*
X118107348Y-120501503D02*
X112042333Y-120501503D01*
X105569999Y-117209999D02*
X104720000Y-116360000D01*
G04 #@! TO.N,/FRAME_OUT_P3*
X130867122Y-112145483D02*
X130613123Y-112399482D01*
X134374000Y-111980000D02*
X132355273Y-111980000D01*
X132242792Y-112092481D02*
X130920124Y-112092481D01*
X132355273Y-111980000D02*
X132242792Y-112092481D01*
X130920124Y-112092481D02*
X130867122Y-112145483D01*
G04 #@! TO.N,/FRAME_IN_P3*
X111299499Y-119399441D02*
X111299499Y-117859499D01*
X112122042Y-120221984D02*
X111299499Y-119399441D01*
X114227892Y-120221984D02*
X112122042Y-120221984D01*
X111299499Y-117859499D02*
X110649999Y-117209999D01*
X118002134Y-120247492D02*
X114253400Y-120247492D01*
X110649999Y-117209999D02*
X109800000Y-116360000D01*
X126269626Y-111980000D02*
X118002134Y-120247492D01*
X128646000Y-111980000D02*
X126269626Y-111980000D01*
X114253400Y-120247492D02*
X114227892Y-120221984D01*
G04 #@! TO.N,/FRAME_OUT_N3*
X131889000Y-111480000D02*
X131877000Y-111468000D01*
X134374000Y-111480000D02*
X131889000Y-111480000D01*
G04 #@! TO.N,/FRAME_IN_N3*
X128646000Y-111480000D02*
X126313263Y-111480000D01*
X113380501Y-117400501D02*
X113189999Y-117209999D01*
X126313263Y-111480000D02*
X117852718Y-119940501D01*
X117852718Y-119940501D02*
X114380559Y-119940501D01*
X114380559Y-119940501D02*
X113380501Y-118940443D01*
X113380501Y-118940443D02*
X113380501Y-117400501D01*
X113189999Y-117209999D02*
X112340000Y-116360000D01*
G04 #@! TO.N,/LCLK_OUT_P3*
X130718841Y-111203491D02*
X130464842Y-111457490D01*
X130942332Y-110980000D02*
X130718841Y-111203491D01*
X134374000Y-110980000D02*
X130942332Y-110980000D01*
G04 #@! TO.N,/LCLK_IN_P3*
X128646000Y-110980000D02*
X124880815Y-110980000D01*
X118160815Y-117700000D02*
X116220000Y-117700000D01*
X115729999Y-117209999D02*
X114880000Y-116360000D01*
X116220000Y-117700000D02*
X115729999Y-117209999D01*
X124880815Y-110980000D02*
X118160815Y-117700000D01*
G04 #@! TO.N,/LCLK_OUT_N3*
X131905008Y-110480000D02*
X131877008Y-110452000D01*
X134374000Y-110480000D02*
X131905008Y-110480000D01*
G04 #@! TO.N,/LCLK_IN_N3*
X128646000Y-110480000D02*
X124277000Y-110480000D01*
X124277000Y-110480000D02*
X118397000Y-116360000D01*
X118397000Y-116360000D02*
X117420000Y-116360000D01*
G04 #@! TO.N,/LCLK_IN_N2*
X119985000Y-101770000D02*
X117420000Y-101770000D01*
X128646000Y-95480000D02*
X126275000Y-95480000D01*
X126275000Y-95480000D02*
X119985000Y-101770000D01*
G04 #@! TO.N,/LCLK_OUT_N2*
X132281141Y-95764680D02*
X132027142Y-96018679D01*
X134374000Y-95480000D02*
X132565821Y-95480000D01*
X132565821Y-95480000D02*
X132281141Y-95764680D01*
G04 #@! TO.N,/LCLK_IN_P2*
X115729999Y-102619999D02*
X114880000Y-101770000D01*
X115973481Y-102863481D02*
X115729999Y-102619999D01*
X119325669Y-102863481D02*
X115973481Y-102863481D01*
X128646000Y-95980000D02*
X126209150Y-95980000D01*
X126209150Y-95980000D02*
X119325669Y-102863481D01*
G04 #@! TO.N,/LCLK_OUT_P2*
X132802094Y-95980000D02*
X132265934Y-96516160D01*
X134374000Y-95980000D02*
X132802094Y-95980000D01*
X132265934Y-96516160D02*
X131019285Y-96516160D01*
X131019285Y-96516160D02*
X130974614Y-96471489D01*
X130974614Y-96471489D02*
X130720615Y-96217490D01*
G04 #@! TO.N,/FRAME_IN_N2*
X113690000Y-103120000D02*
X113189999Y-102619999D01*
X113189999Y-102619999D02*
X112340000Y-101770000D01*
X126068374Y-96480000D02*
X119428375Y-103120000D01*
X119428375Y-103120000D02*
X113690000Y-103120000D01*
X128646000Y-96480000D02*
X126068374Y-96480000D01*
G04 #@! TO.N,/FRAME_OUT_N2*
X132180649Y-96960670D02*
X131938667Y-96960670D01*
X134374000Y-96480000D02*
X132661319Y-96480000D01*
X132661319Y-96480000D02*
X132180649Y-96960670D01*
G04 #@! TO.N,/FRAME_IN_P2*
X128646000Y-96980000D02*
X126002523Y-96980000D01*
X110840501Y-102810501D02*
X110649999Y-102619999D01*
X110649999Y-102619999D02*
X109800000Y-101770000D01*
X111840559Y-105350501D02*
X110840501Y-104350443D01*
X119555535Y-103426988D02*
X119535263Y-103426988D01*
X110840501Y-104350443D02*
X110840501Y-102810501D01*
X117919441Y-105350501D02*
X111840559Y-105350501D01*
X118460501Y-104809441D02*
X117919441Y-105350501D01*
X118460501Y-104501750D02*
X118460501Y-104809441D01*
X119535263Y-103426988D02*
X118460501Y-104501750D01*
X126002523Y-96980000D02*
X119555535Y-103426988D01*
G04 #@! TO.N,/FRAME_OUT_P2*
X132177459Y-97458151D02*
X131699875Y-97458151D01*
X132655610Y-96980000D02*
X132177459Y-97458151D01*
X134374000Y-96980000D02*
X132655610Y-96980000D01*
X131029515Y-97159482D02*
X130670305Y-97159482D01*
X131401206Y-97159482D02*
X131029515Y-97159482D01*
X131699875Y-97458151D02*
X131401206Y-97159482D01*
G04 #@! TO.N,/WAIT_WR_OUT_N2*
X118024655Y-105604512D02*
X107014570Y-105604512D01*
X128646000Y-97980000D02*
X125361747Y-97980000D01*
X107014570Y-105604512D02*
X105760501Y-104350443D01*
X125361747Y-97980000D02*
X119660749Y-103680999D01*
X119660749Y-103680999D02*
X119640476Y-103680999D01*
X119640476Y-103680999D02*
X118714512Y-104606963D01*
X105760501Y-102810501D02*
X105569999Y-102619999D01*
X118714512Y-104606963D02*
X118714512Y-104914655D01*
X118714512Y-104914655D02*
X118024655Y-105604512D01*
X105760501Y-104350443D02*
X105760501Y-102810501D01*
X105569999Y-102619999D02*
X104720000Y-101770000D01*
G04 #@! TO.N,/WAIT_WR_IN_N2*
X134374000Y-97980000D02*
X132563652Y-97980000D01*
X130910470Y-98347163D02*
X130865800Y-98302493D01*
X132563652Y-97980000D02*
X132196489Y-98347163D01*
X132196489Y-98347163D02*
X130910470Y-98347163D01*
X130865800Y-98302493D02*
X130611801Y-98048494D01*
G04 #@! TO.N,/WAIT_WR_OUT_P2*
X103220501Y-104320501D02*
X103220501Y-102810501D01*
X104811503Y-105911503D02*
X103220501Y-104320501D01*
X128646000Y-98480000D02*
X125295898Y-98480000D01*
X119787908Y-103987990D02*
X119767636Y-103987990D01*
X103220501Y-102810501D02*
X103029999Y-102619999D01*
X103029999Y-102619999D02*
X102180000Y-101770000D01*
X125295898Y-98480000D02*
X119787908Y-103987990D01*
X119021503Y-104734123D02*
X119021503Y-105041814D01*
X119021503Y-105041814D02*
X118151814Y-105911503D01*
X118151814Y-105911503D02*
X104811503Y-105911503D01*
X119767636Y-103987990D02*
X119021503Y-104734123D01*
G04 #@! TO.N,/WAIT_RD_OUT_N2*
X101139499Y-104809441D02*
X101139499Y-103269499D01*
X119275514Y-104839336D02*
X119275514Y-105147028D01*
X119893122Y-104242001D02*
X119872849Y-104242001D01*
X101139499Y-103269499D02*
X100489999Y-102619999D01*
X100489999Y-102619999D02*
X99640000Y-101770000D01*
X102495572Y-106165514D02*
X101139499Y-104809441D01*
X118257028Y-106165514D02*
X102495572Y-106165514D01*
X119872849Y-104242001D02*
X119275514Y-104839336D01*
X125155121Y-98980000D02*
X119893122Y-104242001D01*
X119275514Y-105147028D02*
X118257028Y-106165514D01*
X128646000Y-98980000D02*
X125155121Y-98980000D01*
G04 #@! TO.N,/WAIT_RD_IN_N2*
X130863999Y-99244485D02*
X130610000Y-98990486D01*
X132219308Y-99289154D02*
X130908668Y-99289154D01*
X134374000Y-98980000D02*
X132528462Y-98980000D01*
X132528462Y-98980000D02*
X132219308Y-99289154D01*
X130908668Y-99289154D02*
X130863999Y-99244485D01*
G04 #@! TO.N,/WAIT_RD_OUT_P2*
X97949999Y-102619999D02*
X97100000Y-101770000D01*
X100262563Y-106472505D02*
X98140501Y-104350443D01*
X119582505Y-105274187D02*
X118384187Y-106472505D01*
X119582505Y-104966495D02*
X119582505Y-105274187D01*
X120000009Y-104548992D02*
X119582505Y-104966495D01*
X120020281Y-104548992D02*
X120000009Y-104548992D01*
X98140501Y-102810501D02*
X97949999Y-102619999D01*
X98140501Y-104350443D02*
X98140501Y-102810501D01*
X125089272Y-99480000D02*
X120020281Y-104548992D01*
X118384187Y-106472505D02*
X100262563Y-106472505D01*
X128646000Y-99480000D02*
X125089272Y-99480000D01*
G04 #@! TO.N,/WAIT_RD_IN_P2*
X134374000Y-99480000D02*
X132462612Y-99480000D01*
X132264586Y-99596145D02*
X132074087Y-99786644D01*
X132346467Y-99596145D02*
X132264586Y-99596145D01*
X132462612Y-99480000D02*
X132346467Y-99596145D01*
G04 #@! TO.N,/DATA_IN_N16*
X92869999Y-102619999D02*
X92020000Y-101770000D01*
X127266019Y-100645715D02*
X127266019Y-100843008D01*
X127229940Y-100843008D02*
X127153947Y-100919001D01*
X93060501Y-104809441D02*
X93060501Y-102810501D01*
X91999000Y-110017850D02*
X91999000Y-105870942D01*
X127058999Y-100919002D02*
X117272001Y-110706000D01*
X128646000Y-100480000D02*
X128514000Y-100480000D01*
X127266019Y-100843008D02*
X127229940Y-100843008D01*
X93060501Y-102810501D02*
X92869999Y-102619999D01*
X128514000Y-100480000D02*
X128396981Y-100597019D01*
X128396981Y-100597019D02*
X127314715Y-100597019D01*
X117272001Y-110706000D02*
X92687150Y-110706000D01*
X127314715Y-100597019D02*
X127266019Y-100645715D01*
X91999000Y-105870942D02*
X93060501Y-104809441D01*
X127153947Y-100919001D02*
X127058999Y-100919002D01*
X92687150Y-110706000D02*
X91999000Y-110017850D01*
G04 #@! TO.N,/DATA_OUT_N16*
X132392662Y-100485156D02*
X132264155Y-100485156D01*
X132264155Y-100485156D02*
X132073656Y-100675655D01*
X132397818Y-100480000D02*
X132392662Y-100485156D01*
X134374000Y-100480000D02*
X132397818Y-100480000D01*
G04 #@! TO.N,/DATA_IN_P16*
X117399160Y-111012991D02*
X92559991Y-111012991D01*
X128646000Y-100980000D02*
X127686150Y-100980000D01*
X127686150Y-100980000D02*
X127516151Y-101149999D01*
X127516151Y-101149999D02*
X127357099Y-101149999D01*
X127186160Y-101225991D02*
X117399160Y-111012991D01*
X92559991Y-111012991D02*
X90520501Y-108973501D01*
X127281108Y-101225990D02*
X127186160Y-101225991D01*
X90329999Y-102619999D02*
X89480000Y-101770000D01*
X90520501Y-108973501D02*
X90520501Y-102810501D01*
X90520501Y-102810501D02*
X90329999Y-102619999D01*
X127357099Y-101149999D02*
X127281108Y-101225990D01*
G04 #@! TO.N,/DATA_OUT_P16*
X130966210Y-100926999D02*
X130607000Y-100926999D01*
X132312448Y-101173136D02*
X131212347Y-101173136D01*
X132505584Y-100980000D02*
X132312448Y-101173136D01*
X134374000Y-100980000D02*
X132505584Y-100980000D01*
X131212347Y-101173136D02*
X130966210Y-100926999D01*
G04 #@! TO.N,/DATA_IN_N17*
X87789999Y-102619999D02*
X86940000Y-101770000D01*
X127291375Y-101480000D02*
X117504373Y-111267002D01*
X128646000Y-101480000D02*
X127291375Y-101480000D01*
X88439499Y-103269499D02*
X87789999Y-102619999D01*
X117504373Y-111267002D02*
X91544002Y-111267002D01*
X91544002Y-111267002D02*
X88439499Y-108162499D01*
X88439499Y-108162499D02*
X88439499Y-103269499D01*
G04 #@! TO.N,/DATA_OUT_N17*
X134374000Y-101480000D02*
X132141646Y-101480000D01*
X132141646Y-101480000D02*
X132004000Y-101617646D01*
G04 #@! TO.N,/DATA_IN_P17*
X85249999Y-102619999D02*
X84400000Y-101770000D01*
X117631532Y-111573993D02*
X91416843Y-111573993D01*
X91416843Y-111573993D02*
X85440501Y-105597651D01*
X128646000Y-101980000D02*
X127225525Y-101980000D01*
X85440501Y-105597651D02*
X85440501Y-102810501D01*
X127225525Y-101980000D02*
X117631532Y-111573993D01*
X85440501Y-102810501D02*
X85249999Y-102619999D01*
G04 #@! TO.N,/DATA_OUT_P17*
X131765208Y-102115127D02*
X131646072Y-101995991D01*
X132377919Y-101980000D02*
X132242792Y-102115127D01*
X132242792Y-102115127D02*
X131765208Y-102115127D01*
X131646072Y-101995991D02*
X130974733Y-101995991D01*
X134374000Y-101980000D02*
X132377919Y-101980000D01*
X130974733Y-101995991D02*
X130615523Y-101995991D01*
G04 #@! TO.N,/DATA_IN_N18*
X117736746Y-111828004D02*
X87838062Y-111828004D01*
X80360501Y-102810501D02*
X80169999Y-102619999D01*
X80360501Y-104350443D02*
X80360501Y-102810501D01*
X80169999Y-102619999D02*
X79320000Y-101770000D01*
X87838062Y-111828004D02*
X80360501Y-104350443D01*
X126584749Y-102980000D02*
X117736746Y-111828004D01*
X128646000Y-102980000D02*
X126584749Y-102980000D01*
G04 #@! TO.N,/DATA_OUT_N18*
X134374000Y-102980000D02*
X132312856Y-102980000D01*
X132312856Y-102980000D02*
X132217362Y-103075494D01*
X130966210Y-102959000D02*
X130607000Y-102959000D01*
X131082704Y-103075494D02*
X130966210Y-102959000D01*
X132217362Y-103075494D02*
X131082704Y-103075494D01*
G04 #@! TO.N,/DATA_IN_P18*
X77629999Y-102619999D02*
X76780000Y-101770000D01*
X126518900Y-103480000D02*
X117863905Y-112134995D01*
X78279499Y-103269499D02*
X77629999Y-102619999D01*
X128646000Y-103480000D02*
X126518900Y-103480000D01*
X78279499Y-104809441D02*
X78279499Y-103269499D01*
X117863905Y-112134995D02*
X85605053Y-112134995D01*
X85605053Y-112134995D02*
X78279499Y-104809441D01*
G04 #@! TO.N,/DATA_OUT_P18*
X132151028Y-103480000D02*
X132058044Y-103572984D01*
X134374000Y-103480000D02*
X132151028Y-103480000D01*
G04 #@! TO.N,/DATA_IN_N19*
X126378124Y-103980000D02*
X117843635Y-112514490D01*
X75739499Y-103269499D02*
X75089999Y-102619999D01*
X128646000Y-103980000D02*
X126378124Y-103980000D01*
X75089999Y-102619999D02*
X74240000Y-101770000D01*
X75739499Y-104809441D02*
X75739499Y-103269499D01*
X117843635Y-112514490D02*
X83444546Y-112514488D01*
X83444546Y-112514488D02*
X75739499Y-104809441D01*
G04 #@! TO.N,/DATA_OUT_N19*
X132308890Y-103980000D02*
X132271405Y-104017485D01*
X134374000Y-103980000D02*
X132308890Y-103980000D01*
X131844683Y-104017485D02*
X131817198Y-103990000D01*
X132271405Y-104017485D02*
X131844683Y-104017485D01*
X131817198Y-103990000D02*
X130859210Y-103990000D01*
X130859210Y-103990000D02*
X130500000Y-103990000D01*
G04 #@! TO.N,/DATA_IN_P19*
X72549999Y-102619999D02*
X71700000Y-101770000D01*
X126312275Y-104480000D02*
X117970795Y-112821480D01*
X117970795Y-112821480D02*
X78671538Y-112821480D01*
X128646000Y-104480000D02*
X126312275Y-104480000D01*
X72740501Y-102810501D02*
X72549999Y-102619999D01*
X72740501Y-106890443D02*
X72740501Y-102810501D01*
X78671538Y-112821480D02*
X72740501Y-106890443D01*
G04 #@! TO.N,/DATA_OUT_P19*
X132133996Y-104480000D02*
X132004000Y-104609996D01*
X134374000Y-104480000D02*
X132133996Y-104480000D01*
G04 #@! TO.N,/DATA_IN_N20*
X76385549Y-113075491D02*
X67660501Y-104350443D01*
X128646000Y-105480000D02*
X125671499Y-105480000D01*
X125671499Y-105480000D02*
X118076009Y-113075491D01*
X118076009Y-113075491D02*
X76385549Y-113075491D01*
X67660501Y-102810501D02*
X67469999Y-102619999D01*
X67469999Y-102619999D02*
X66620000Y-101770000D01*
X67660501Y-104350443D02*
X67660501Y-102810501D01*
G04 #@! TO.N,/DATA_OUT_N20*
X134374000Y-105480000D02*
X132023012Y-105480000D01*
X132023012Y-105480000D02*
X132004000Y-105499012D01*
G04 #@! TO.N,/DATA_IN_P20*
X74152540Y-113382482D02*
X65120501Y-104350443D01*
X65120501Y-102810501D02*
X64929999Y-102619999D01*
X118203166Y-113382483D02*
X74152540Y-113382482D01*
X128646000Y-105980000D02*
X125605650Y-105980000D01*
X125605650Y-105980000D02*
X118203166Y-113382483D01*
X65120501Y-104350443D02*
X65120501Y-102810501D01*
X64929999Y-102619999D02*
X64080000Y-101770000D01*
G04 #@! TO.N,/DATA_OUT_P20*
X130959210Y-106070000D02*
X130600000Y-106070000D01*
X131663638Y-106017506D02*
X131611144Y-106070000D01*
X132386274Y-105980000D02*
X132348768Y-106017506D01*
X132348768Y-106017506D02*
X131663638Y-106017506D01*
X134374000Y-105980000D02*
X132386274Y-105980000D01*
X131611144Y-106070000D02*
X130959210Y-106070000D01*
G04 #@! TO.N,/DATA_IN_N21*
X71866551Y-113636493D02*
X63039499Y-104809441D01*
X63039499Y-104809441D02*
X63039499Y-103269499D01*
X118308381Y-113636494D02*
X71866551Y-113636493D01*
X125464875Y-106480000D02*
X118308381Y-113636494D01*
X128646000Y-106480000D02*
X125464875Y-106480000D01*
X62389999Y-102619999D02*
X61540000Y-101770000D01*
X63039499Y-103269499D02*
X62389999Y-102619999D01*
G04 #@! TO.N,/DATA_OUT_N21*
X134374000Y-106480000D02*
X131894992Y-106480000D01*
X131894992Y-106480000D02*
X131877000Y-106462008D01*
G04 #@! TO.N,/DATA_IN_P21*
X128646000Y-106980000D02*
X125399025Y-106980000D01*
X59849999Y-102619999D02*
X59000000Y-101770000D01*
X60040501Y-104350443D02*
X60040501Y-102810501D01*
X60040501Y-102810501D02*
X59849999Y-102619999D01*
X69633542Y-113943484D02*
X60040501Y-104350443D01*
X118435539Y-113943485D02*
X69633542Y-113943484D01*
X125399025Y-106980000D02*
X118435539Y-113943485D01*
G04 #@! TO.N,/DATA_OUT_P21*
X134374000Y-106980000D02*
X132237864Y-106980000D01*
X131561145Y-107061991D02*
X130961132Y-107061991D01*
X130961132Y-107061991D02*
X130601922Y-107061991D01*
X131663638Y-106959498D02*
X131561145Y-107061991D01*
X132217362Y-106959498D02*
X131663638Y-106959498D01*
X132237864Y-106980000D02*
X132217362Y-106959498D01*
G04 #@! TO.N,/DATA_IN_N22*
X118540754Y-114197496D02*
X64807553Y-114197495D01*
X54960501Y-102810501D02*
X54769999Y-102619999D01*
X64807553Y-114197495D02*
X54960501Y-104350443D01*
X54769999Y-102619999D02*
X53920000Y-101770000D01*
X124758249Y-107980000D02*
X118540754Y-114197496D01*
X54960501Y-104350443D02*
X54960501Y-102810501D01*
X128646000Y-107980000D02*
X124758249Y-107980000D01*
G04 #@! TO.N,/DATA_OUT_N22*
X130720000Y-107980000D02*
X130650000Y-108050000D01*
X134374000Y-107980000D02*
X130720000Y-107980000D01*
G04 #@! TO.N,/DATA_IN_P22*
X124692400Y-108480000D02*
X118667912Y-114504487D01*
X52879499Y-103269499D02*
X52229999Y-102619999D01*
X118667912Y-114504487D02*
X62574544Y-114504486D01*
X62574544Y-114504486D02*
X52879499Y-104809441D01*
X128646000Y-108480000D02*
X124692400Y-108480000D01*
X52229999Y-102619999D02*
X51380000Y-101770000D01*
X52879499Y-104809441D02*
X52879499Y-103269499D01*
G04 #@! TO.N,/DATA_OUT_P22*
X134374000Y-108480000D02*
X131944000Y-108480000D01*
X131944000Y-108480000D02*
X131877000Y-108547000D01*
G04 #@! TO.N,/DATA_IN_N23*
X50339499Y-103269499D02*
X49689999Y-102619999D01*
X50339499Y-105909499D02*
X50339499Y-103269499D01*
X118773127Y-114758498D02*
X59188497Y-114758497D01*
X128646000Y-108980000D02*
X124551624Y-108980000D01*
X59188497Y-114758497D02*
X50339499Y-105909499D01*
X124551624Y-108980000D02*
X118773127Y-114758498D01*
X49689999Y-102619999D02*
X48840000Y-101770000D01*
G04 #@! TO.N,/DATA_OUT_N23*
X130939210Y-109060000D02*
X130580000Y-109060000D01*
X134374000Y-108980000D02*
X132228864Y-108980000D01*
X132228864Y-108980000D02*
X132217362Y-108991502D01*
X131007708Y-108991502D02*
X130939210Y-109060000D01*
X132217362Y-108991502D02*
X131007708Y-108991502D01*
G04 #@! TO.N,/DATA_IN_P23*
X47799499Y-104809441D02*
X47799499Y-102769499D01*
X118900285Y-115065489D02*
X58055546Y-115065488D01*
X58055546Y-115065488D02*
X47799499Y-104809441D01*
X124485775Y-109480000D02*
X118900285Y-115065489D01*
X128646000Y-109480000D02*
X124485775Y-109480000D01*
X47299499Y-102769499D02*
X46300000Y-101770000D01*
X47799499Y-102769499D02*
X47299499Y-102769499D01*
G04 #@! TO.N,/DATA_OUT_P23*
X131846701Y-109480000D02*
X131837709Y-109488992D01*
X134374000Y-109480000D02*
X131846701Y-109480000D01*
G04 #@! TO.N,/CTRL_IN2*
X44609999Y-102619999D02*
X43760000Y-101770000D01*
X128646000Y-109980000D02*
X124345000Y-109980000D01*
X44800501Y-106890443D02*
X44800501Y-102810501D01*
X44800501Y-102810501D02*
X44609999Y-102619999D01*
X119005501Y-115319499D02*
X53229557Y-115319499D01*
X124345000Y-109980000D02*
X119005501Y-115319499D01*
X53229557Y-115319499D02*
X44800501Y-106890443D01*
G04 #@! TO.N,/CTRL_OUT2*
X130545074Y-109980000D02*
X130523083Y-110001991D01*
X134374000Y-109980000D02*
X130545074Y-109980000D01*
G04 #@! TO.N,/WAIT_WR_IN_P2*
X132497802Y-98480000D02*
X132323648Y-98654154D01*
X132323648Y-98654154D02*
X132196446Y-98654154D01*
X132196446Y-98654154D02*
X132005947Y-98844653D01*
X134374000Y-98480000D02*
X132497802Y-98480000D01*
G04 #@! TO.N,/WAIT_RD_IN_N1*
X132020000Y-83980000D02*
X131990000Y-83950000D01*
X134374000Y-83980000D02*
X132020000Y-83980000D01*
G04 #@! TO.N,/VDDIO2*
X128646000Y-104980000D02*
X130406624Y-104980000D01*
X130406624Y-104980000D02*
X130483158Y-105056534D01*
X130842368Y-105056534D02*
X130483158Y-105056534D01*
X134374000Y-104980000D02*
X132291866Y-104980000D01*
X132291866Y-104980000D02*
X132217361Y-105054505D01*
X130844397Y-105054505D02*
X130842368Y-105056534D01*
X132217361Y-105054505D02*
X130844397Y-105054505D01*
G04 #@! TO.N,/VDD2*
X127382500Y-99980000D02*
X128646000Y-99980000D01*
X127372500Y-99990000D02*
X127382500Y-99980000D01*
X125500000Y-99990000D02*
X125500000Y-99990000D01*
X125500000Y-99990000D02*
X126550000Y-99990000D01*
X126550000Y-99990000D02*
X127372500Y-99990000D01*
X128646000Y-99980000D02*
X130524991Y-99980000D01*
X130524991Y-99980000D02*
X130530000Y-99985009D01*
X131860726Y-100231145D02*
X131614590Y-99985009D01*
X132287448Y-100231145D02*
X131860726Y-100231145D01*
X130889210Y-99985009D02*
X130530000Y-99985009D01*
X134374000Y-99980000D02*
X132538593Y-99980000D01*
X132538593Y-99980000D02*
X132287448Y-100231145D01*
X131614590Y-99985009D02*
X130889210Y-99985009D01*
G04 #@! TO.N,/VDD3*
X128646000Y-114980000D02*
X126715000Y-114980000D01*
X125665000Y-114980000D02*
X125490000Y-114980000D01*
X126715000Y-114980000D02*
X125665000Y-114980000D01*
X132119853Y-114980000D02*
X132058332Y-114918479D01*
X128646000Y-114980000D02*
X130434846Y-114980000D01*
X130434846Y-114980000D02*
X130627324Y-115172478D01*
X132058332Y-114918479D02*
X130881323Y-114918479D01*
X134374000Y-114980000D02*
X132119853Y-114980000D01*
X130881323Y-114918479D02*
X130627324Y-115172478D01*
G04 #@! TO.N,/VDDIO3*
X130545610Y-119980000D02*
X130559646Y-119965964D01*
X128646000Y-119980000D02*
X130545610Y-119980000D01*
X132404864Y-119980000D02*
X132344362Y-120040502D01*
X132344362Y-120040502D02*
X130993394Y-120040502D01*
X134374000Y-119980000D02*
X132404864Y-119980000D01*
X130918856Y-119965964D02*
X130559646Y-119965964D01*
X130993394Y-120040502D02*
X130918856Y-119965964D01*
G04 #@! TD*
D17*
G04 #@! TO.N,/VDD0*
G36*
X126380470Y-70302007D02*
X126380470Y-70314078D01*
X126552355Y-70729044D01*
X126742003Y-70918692D01*
X126726089Y-70942510D01*
X126720998Y-70968105D01*
X126511531Y-71177573D01*
X126486184Y-71194509D01*
X126435790Y-71269930D01*
X126295621Y-71410100D01*
X126270274Y-71427036D01*
X126203188Y-71527439D01*
X126194968Y-71568766D01*
X126179631Y-71645869D01*
X126185577Y-71675761D01*
X126185577Y-71679473D01*
X126165088Y-71710137D01*
X126149885Y-71786568D01*
X126141531Y-71828567D01*
X126147477Y-71858459D01*
X126147477Y-71988068D01*
X116830074Y-81305471D01*
X93668877Y-81305471D01*
X93509030Y-81145625D01*
X93509030Y-76805439D01*
X93513753Y-76809869D01*
X94111963Y-77057647D01*
X94419030Y-76820907D01*
X94419030Y-75270970D01*
X94399030Y-75270970D01*
X94399030Y-74989030D01*
X94419030Y-74989030D01*
X94419030Y-72730970D01*
X94399030Y-72730970D01*
X94399030Y-72449030D01*
X94419030Y-72449030D01*
X94419030Y-72429030D01*
X94700970Y-72429030D01*
X94700970Y-72449030D01*
X94720970Y-72449030D01*
X94720970Y-72730970D01*
X94700970Y-72730970D01*
X94700970Y-74989030D01*
X94720970Y-74989030D01*
X94720970Y-75270970D01*
X94700970Y-75270970D01*
X94700970Y-76820907D01*
X95008037Y-77057647D01*
X95334146Y-76922573D01*
X95314990Y-77937868D01*
X95322776Y-77981277D01*
X95346582Y-78018402D01*
X95382783Y-78043592D01*
X95428000Y-78053030D01*
X118415000Y-78053030D01*
X118458255Y-78044426D01*
X118494924Y-78019924D01*
X126423877Y-70090972D01*
X126591505Y-70090972D01*
X126380470Y-70302007D01*
X126380470Y-70302007D01*
G37*
X126380470Y-70302007D02*
X126380470Y-70314078D01*
X126552355Y-70729044D01*
X126742003Y-70918692D01*
X126726089Y-70942510D01*
X126720998Y-70968105D01*
X126511531Y-71177573D01*
X126486184Y-71194509D01*
X126435790Y-71269930D01*
X126295621Y-71410100D01*
X126270274Y-71427036D01*
X126203188Y-71527439D01*
X126194968Y-71568766D01*
X126179631Y-71645869D01*
X126185577Y-71675761D01*
X126185577Y-71679473D01*
X126165088Y-71710137D01*
X126149885Y-71786568D01*
X126141531Y-71828567D01*
X126147477Y-71858459D01*
X126147477Y-71988068D01*
X116830074Y-81305471D01*
X93668877Y-81305471D01*
X93509030Y-81145625D01*
X93509030Y-76805439D01*
X93513753Y-76809869D01*
X94111963Y-77057647D01*
X94419030Y-76820907D01*
X94419030Y-75270970D01*
X94399030Y-75270970D01*
X94399030Y-74989030D01*
X94419030Y-74989030D01*
X94419030Y-72730970D01*
X94399030Y-72730970D01*
X94399030Y-72449030D01*
X94419030Y-72449030D01*
X94419030Y-72429030D01*
X94700970Y-72429030D01*
X94700970Y-72449030D01*
X94720970Y-72449030D01*
X94720970Y-72730970D01*
X94700970Y-72730970D01*
X94700970Y-74989030D01*
X94720970Y-74989030D01*
X94720970Y-75270970D01*
X94700970Y-75270970D01*
X94700970Y-76820907D01*
X95008037Y-77057647D01*
X95334146Y-76922573D01*
X95314990Y-77937868D01*
X95322776Y-77981277D01*
X95346582Y-78018402D01*
X95382783Y-78043592D01*
X95428000Y-78053030D01*
X118415000Y-78053030D01*
X118458255Y-78044426D01*
X118494924Y-78019924D01*
X126423877Y-70090972D01*
X126591505Y-70090972D01*
X126380470Y-70302007D01*
G04 #@! TO.N,/VDD1*
G36*
X127140432Y-85019750D02*
X126662727Y-85019750D01*
X126380470Y-85302007D01*
X126380470Y-85314078D01*
X126552355Y-85729044D01*
X126714386Y-85891075D01*
X123286358Y-89563962D01*
X120755364Y-92094956D01*
X120730016Y-92111893D01*
X120662930Y-92212296D01*
X120652934Y-92262552D01*
X120639373Y-92330726D01*
X120645319Y-92360618D01*
X120645319Y-92393646D01*
X118298150Y-94908470D01*
X93775726Y-94908470D01*
X93764563Y-94897307D01*
X93787820Y-91513387D01*
X94111963Y-91647647D01*
X94419030Y-91410907D01*
X94419030Y-89860970D01*
X94399030Y-89860970D01*
X94399030Y-89579030D01*
X94419030Y-89579030D01*
X94419030Y-87320970D01*
X94399030Y-87320970D01*
X94399030Y-87039030D01*
X94419030Y-87039030D01*
X94419030Y-87019030D01*
X94700970Y-87019030D01*
X94700970Y-87039030D01*
X94720970Y-87039030D01*
X94720970Y-87320970D01*
X94700970Y-87320970D01*
X94700970Y-89579030D01*
X94720970Y-89579030D01*
X94720970Y-89860970D01*
X94700970Y-89860970D01*
X94700970Y-91410907D01*
X95008037Y-91647647D01*
X95441970Y-91467912D01*
X95441970Y-92164000D01*
X95450574Y-92207255D01*
X95475076Y-92243924D01*
X95511745Y-92268426D01*
X95555000Y-92277030D01*
X118415000Y-92277030D01*
X118458255Y-92268426D01*
X118493951Y-92244886D01*
X118529219Y-92210462D01*
X118598431Y-92196695D01*
X118698833Y-92129609D01*
X118715770Y-92104261D01*
X121887513Y-88932518D01*
X126026378Y-84892680D01*
X127159674Y-84884028D01*
X127140432Y-85019750D01*
X127140432Y-85019750D01*
G37*
X127140432Y-85019750D02*
X126662727Y-85019750D01*
X126380470Y-85302007D01*
X126380470Y-85314078D01*
X126552355Y-85729044D01*
X126714386Y-85891075D01*
X123286358Y-89563962D01*
X120755364Y-92094956D01*
X120730016Y-92111893D01*
X120662930Y-92212296D01*
X120652934Y-92262552D01*
X120639373Y-92330726D01*
X120645319Y-92360618D01*
X120645319Y-92393646D01*
X118298150Y-94908470D01*
X93775726Y-94908470D01*
X93764563Y-94897307D01*
X93787820Y-91513387D01*
X94111963Y-91647647D01*
X94419030Y-91410907D01*
X94419030Y-89860970D01*
X94399030Y-89860970D01*
X94399030Y-89579030D01*
X94419030Y-89579030D01*
X94419030Y-87320970D01*
X94399030Y-87320970D01*
X94399030Y-87039030D01*
X94419030Y-87039030D01*
X94419030Y-87019030D01*
X94700970Y-87019030D01*
X94700970Y-87039030D01*
X94720970Y-87039030D01*
X94720970Y-87320970D01*
X94700970Y-87320970D01*
X94700970Y-89579030D01*
X94720970Y-89579030D01*
X94720970Y-89860970D01*
X94700970Y-89860970D01*
X94700970Y-91410907D01*
X95008037Y-91647647D01*
X95441970Y-91467912D01*
X95441970Y-92164000D01*
X95450574Y-92207255D01*
X95475076Y-92243924D01*
X95511745Y-92268426D01*
X95555000Y-92277030D01*
X118415000Y-92277030D01*
X118458255Y-92268426D01*
X118493951Y-92244886D01*
X118529219Y-92210462D01*
X118598431Y-92196695D01*
X118698833Y-92129609D01*
X118715770Y-92104261D01*
X121887513Y-88932518D01*
X126026378Y-84892680D01*
X127159674Y-84884028D01*
X127140432Y-85019750D01*
G04 #@! TO.N,/VDD2*
G36*
X126662727Y-99880250D02*
X127064970Y-99880250D01*
X127064970Y-100019750D01*
X126662727Y-100019750D01*
X126380470Y-100302007D01*
X126380470Y-100314078D01*
X126552355Y-100729044D01*
X126686028Y-100862717D01*
X117146276Y-110402470D01*
X105524738Y-110402470D01*
X93509296Y-110339562D01*
X93519563Y-105992276D01*
X94111963Y-106237647D01*
X94419030Y-106000907D01*
X94419030Y-104450970D01*
X94399030Y-104450970D01*
X94399030Y-104169030D01*
X94419030Y-104169030D01*
X94419030Y-101910970D01*
X94399030Y-101910970D01*
X94399030Y-101629030D01*
X94419030Y-101629030D01*
X94419030Y-101609030D01*
X94700970Y-101609030D01*
X94700970Y-101629030D01*
X94720970Y-101629030D01*
X94720970Y-101910970D01*
X94700970Y-101910970D01*
X94700970Y-104169030D01*
X94720970Y-104169030D01*
X94720970Y-104450970D01*
X94700970Y-104450970D01*
X94700970Y-106000907D01*
X95008037Y-106237647D01*
X95458196Y-106051192D01*
X95441991Y-106893827D01*
X95449762Y-106937239D01*
X95473554Y-106974373D01*
X95509745Y-106999575D01*
X95555000Y-107009030D01*
X118161000Y-107009030D01*
X118204255Y-107000426D01*
X118243054Y-106973736D01*
X118434127Y-106772047D01*
X118502618Y-106758424D01*
X118603020Y-106691338D01*
X118619957Y-106665990D01*
X119775993Y-105509955D01*
X119801338Y-105493020D01*
X119868424Y-105392618D01*
X119886035Y-105304080D01*
X119886035Y-105304079D01*
X119891981Y-105274187D01*
X119886035Y-105244295D01*
X119886035Y-105239478D01*
X122171764Y-102826765D01*
X125214999Y-99783530D01*
X126566007Y-99783530D01*
X126662727Y-99880250D01*
X126662727Y-99880250D01*
G37*
X126662727Y-99880250D02*
X127064970Y-99880250D01*
X127064970Y-100019750D01*
X126662727Y-100019750D01*
X126380470Y-100302007D01*
X126380470Y-100314078D01*
X126552355Y-100729044D01*
X126686028Y-100862717D01*
X117146276Y-110402470D01*
X105524738Y-110402470D01*
X93509296Y-110339562D01*
X93519563Y-105992276D01*
X94111963Y-106237647D01*
X94419030Y-106000907D01*
X94419030Y-104450970D01*
X94399030Y-104450970D01*
X94399030Y-104169030D01*
X94419030Y-104169030D01*
X94419030Y-101910970D01*
X94399030Y-101910970D01*
X94399030Y-101629030D01*
X94419030Y-101629030D01*
X94419030Y-101609030D01*
X94700970Y-101609030D01*
X94700970Y-101629030D01*
X94720970Y-101629030D01*
X94720970Y-101910970D01*
X94700970Y-101910970D01*
X94700970Y-104169030D01*
X94720970Y-104169030D01*
X94720970Y-104450970D01*
X94700970Y-104450970D01*
X94700970Y-106000907D01*
X95008037Y-106237647D01*
X95458196Y-106051192D01*
X95441991Y-106893827D01*
X95449762Y-106937239D01*
X95473554Y-106974373D01*
X95509745Y-106999575D01*
X95555000Y-107009030D01*
X118161000Y-107009030D01*
X118204255Y-107000426D01*
X118243054Y-106973736D01*
X118434127Y-106772047D01*
X118502618Y-106758424D01*
X118603020Y-106691338D01*
X118619957Y-106665990D01*
X119775993Y-105509955D01*
X119801338Y-105493020D01*
X119868424Y-105392618D01*
X119886035Y-105304080D01*
X119886035Y-105304079D01*
X119891981Y-105274187D01*
X119886035Y-105244295D01*
X119886035Y-105239478D01*
X122171764Y-102826765D01*
X125214999Y-99783530D01*
X126566007Y-99783530D01*
X126662727Y-99880250D01*
D15*
G04 #@! TO.N,/VDD3*
G36*
X126699875Y-114880250D02*
X127317149Y-114880250D01*
X127359439Y-115007120D01*
X127346973Y-115019750D01*
X126699875Y-115019750D01*
X126430000Y-115289625D01*
X126430000Y-115304226D01*
X126594344Y-115700988D01*
X126634725Y-115741369D01*
X117753454Y-124739500D01*
X93459500Y-124739500D01*
X93459500Y-120453531D01*
X93585520Y-120565354D01*
X94071480Y-120766633D01*
X94369500Y-120548655D01*
X94369500Y-119090500D01*
X94349500Y-119090500D01*
X94349500Y-118709500D01*
X94369500Y-118709500D01*
X94369500Y-116550500D01*
X94349500Y-116550500D01*
X94349500Y-116169500D01*
X94369500Y-116169500D01*
X94369500Y-116149500D01*
X94750500Y-116149500D01*
X94750500Y-116169500D01*
X94770500Y-116169500D01*
X94770500Y-116550500D01*
X94750500Y-116550500D01*
X94750500Y-118709500D01*
X94770500Y-118709500D01*
X94770500Y-119090500D01*
X94750500Y-119090500D01*
X94750500Y-120548655D01*
X95048520Y-120766633D01*
X95534480Y-120565354D01*
X95588653Y-120517284D01*
X95618513Y-122010270D01*
X95623831Y-122034469D01*
X95638006Y-122054790D01*
X95658878Y-122068141D01*
X95682000Y-122072500D01*
X118288000Y-122072500D01*
X118312300Y-122067666D01*
X118333682Y-122053107D01*
X123687359Y-116508228D01*
X125461587Y-114734000D01*
X126553625Y-114734000D01*
X126699875Y-114880250D01*
X126699875Y-114880250D01*
G37*
X126699875Y-114880250D02*
X127317149Y-114880250D01*
X127359439Y-115007120D01*
X127346973Y-115019750D01*
X126699875Y-115019750D01*
X126430000Y-115289625D01*
X126430000Y-115304226D01*
X126594344Y-115700988D01*
X126634725Y-115741369D01*
X117753454Y-124739500D01*
X93459500Y-124739500D01*
X93459500Y-120453531D01*
X93585520Y-120565354D01*
X94071480Y-120766633D01*
X94369500Y-120548655D01*
X94369500Y-119090500D01*
X94349500Y-119090500D01*
X94349500Y-118709500D01*
X94369500Y-118709500D01*
X94369500Y-116550500D01*
X94349500Y-116550500D01*
X94349500Y-116169500D01*
X94369500Y-116169500D01*
X94369500Y-116149500D01*
X94750500Y-116149500D01*
X94750500Y-116169500D01*
X94770500Y-116169500D01*
X94770500Y-116550500D01*
X94750500Y-116550500D01*
X94750500Y-118709500D01*
X94770500Y-118709500D01*
X94770500Y-119090500D01*
X94750500Y-119090500D01*
X94750500Y-120548655D01*
X95048520Y-120766633D01*
X95534480Y-120565354D01*
X95588653Y-120517284D01*
X95618513Y-122010270D01*
X95623831Y-122034469D01*
X95638006Y-122054790D01*
X95658878Y-122068141D01*
X95682000Y-122072500D01*
X118288000Y-122072500D01*
X118312300Y-122067666D01*
X118333682Y-122053107D01*
X123687359Y-116508228D01*
X125461587Y-114734000D01*
X126553625Y-114734000D01*
X126699875Y-114880250D01*
G04 #@! TD*
M02*
