%
T1C.04F139S55
X003611Y0014
X003611Y0192
X010889Y0192
X010889Y0014
T2C.043F139S55
X002Y009
X001Y009
X0Y009
X004Y009
X003Y009
X001Y01
X004Y01
X002Y01
X003Y01
X0Y01
X007Y01
X006Y01
X005Y01
X009Y01
X008Y01
X005Y009
X006Y009
X009Y009
X007Y009
X008Y009
X01275Y-00025
X01475Y-00025
X01375Y-00025
X014Y0075
X013Y0075
X013Y009
X014Y009
X011Y009
X012Y009
X01Y009
X014Y01
X012Y01
X011Y01
X01Y01
X013Y01
X01675Y0155
X01775Y0155
X01725Y0025
X01825Y0025
X024Y009
X025Y009
X024Y01025
X025Y01025
T3C.125F035S794
X0Y0
X0Y019
X0315Y019
X0315Y0
M30
