*
*
G04 PADS 9.5 Build Number: 522968 generated Gerber (RS-274-X) file*
G04 PC Version=2.1*
*
%IN "parallella-rf.pcb"*%
*
%MOIN*%
*
%FSLAX35Y35*%
*
*
*
*
G04 PC Standard Apertures*
*
*
G04 Thermal Relief Aperture macro.*
%AMTER*
1,1,$1,0,0*
1,0,$1-$2,0,0*
21,0,$3,$4,0,0,45*
21,0,$3,$4,0,0,135*
%
*
*
G04 Annular Aperture macro.*
%AMANN*
1,1,$1,0,0*
1,0,$2,0,0*
%
*
*
G04 Odd Aperture macro.*
%AMODD*
1,1,$1,0,0*
1,0,$1-0.005,0,0*
%
*
*
G04 PC Custom Aperture Macros*
*
*
*
*
*
*
G04 PC Aperture Table*
*
%ADD011C,0.01*%
%ADD013C,0.006*%
%ADD014C,0.007*%
%ADD091C,0.001*%
%ADD100C,0.075*%
*
*
*
*
G04 PC Circuitry*
G04 Layer Name parallella-rf.pcb - circuitry*
%LPD*%
*
*
G04 PC Custom Flashes*
G04 Layer Name parallella-rf.pcb - flashes*
%LPD*%
*
*
G04 PC Circuitry*
G04 Layer Name parallella-rf.pcb - circuitry*
%LPD*%
*
G54D11*
G01X2215886Y1602972D02*
Y1614784D01*
X2222972*
Y1602972*
X2215886*
X2250472Y1547284D02*
Y1535472D01*
X2243386*
Y1547284*
X2250472*
X2248386Y1595472D02*
Y1607284D01*
X2255472*
Y1595472*
X2248386*
X2101023Y1557421D02*
X2112835D01*
Y1550335*
X2101023*
Y1557421*
X2230335Y1497835D02*
X2218523D01*
Y1504921*
X2230335*
Y1497835*
X2100335Y1550335D02*
X2088523D01*
Y1557421*
X2100335*
Y1550335*
X2103523Y1524921D02*
X2115335D01*
Y1517835*
X2103523*
Y1524921*
X2205472Y1514784D02*
Y1502972D01*
X2198386*
Y1514784*
X2205472*
X2363523Y1589921D02*
X2375335D01*
Y1582835*
X2363523*
Y1589921*
X2345886Y1597972D02*
Y1609784D01*
X2352972*
Y1597972*
X2345886*
X2340335Y1592835D02*
X2328523D01*
Y1599921*
X2340335*
Y1592835*
X2373386Y1555472D02*
Y1567284D01*
X2380472*
Y1555472*
X2373386*
X2342835Y1560335D02*
X2331023D01*
Y1567421*
X2342835*
Y1560335*
X2355335Y1565335D02*
X2343523D01*
Y1572421*
X2355335*
Y1565335*
X2122929Y1537678D02*
Y1531878D01*
X2115929*
Y1537678*
X2122929Y1540078D02*
Y1545878D01*
X2115929*
Y1540078*
X2230679Y1616878D02*
X2235229D01*
Y1610878*
X2230679*
X2228179Y1616878D02*
X2223629D01*
Y1610878*
X2228179*
X2250679Y1616878D02*
X2255229D01*
Y1610878*
X2250679*
X2248179Y1616878D02*
X2243629D01*
Y1610878*
X2248179*
X2197929Y1505178D02*
Y1499378D01*
X2190929*
Y1505178*
X2197929Y1507578D02*
Y1513378D01*
X2190929*
Y1507578*
X2193129Y1599878D02*
X2198929D01*
Y1592878*
X2193129*
X2190729Y1599878D02*
X2184929D01*
Y1592878*
X2190729*
X2210729Y1495378D02*
X2204929D01*
Y1502378*
X2210729*
X2213129Y1495378D02*
X2218929D01*
Y1502378*
X2213129*
X2183129Y1544878D02*
X2188929D01*
Y1537878*
X2183129*
X2180729Y1544878D02*
X2174929D01*
Y1537878*
X2180729*
X2335629Y1584878D02*
X2341429D01*
Y1577878*
X2335629*
X2333229Y1584878D02*
X2327429D01*
Y1577878*
X2333229*
X2365629Y1577378D02*
X2371429D01*
Y1570378*
X2365629*
X2363229Y1577378D02*
X2357429D01*
Y1570378*
X2363229*
X2338129Y1552378D02*
X2343929D01*
Y1545378*
X2338129*
X2335729Y1552378D02*
X2329929D01*
Y1545378*
X2335729*
X2378129Y1552378D02*
X2383929D01*
Y1545378*
X2378129*
X2375729Y1552378D02*
X2369929D01*
Y1545378*
X2375729*
X2255929Y1600078D02*
Y1605878D01*
X2262929*
Y1600078*
X2255929Y1597678D02*
Y1591878D01*
X2262929*
Y1597678*
X2333229Y1585378D02*
X2327429D01*
Y1592378*
X2333229*
X2335629Y1585378D02*
X2341429D01*
Y1592378*
X2335629*
X2335729Y1552878D02*
X2329929D01*
Y1559878*
X2335729*
X2338129Y1552878D02*
X2343929D01*
Y1559878*
X2338129*
X2198129Y1544878D02*
X2203929D01*
Y1537878*
X2198129*
X2195729Y1544878D02*
X2189929D01*
Y1537878*
X2195729*
X2320629Y1594878D02*
X2326429D01*
Y1587878*
X2320629*
X2318229Y1594878D02*
X2312429D01*
Y1587878*
X2318229*
X2320629Y1557378D02*
X2326429D01*
Y1550378*
X2320629*
X2318229Y1557378D02*
X2312429D01*
Y1550378*
X2318229*
X2367929Y1645178D02*
Y1639378D01*
X2360929*
Y1645178*
X2367929Y1647578D02*
Y1653378D01*
X2360929*
Y1647578*
Y1497578D02*
Y1503378D01*
X2367929*
Y1497578*
X2360929Y1495178D02*
Y1489378D01*
X2367929*
Y1495178*
X2083429Y1485078D02*
Y1490878D01*
X2090429*
Y1485078*
X2083429Y1482678D02*
Y1476878D01*
X2090429*
Y1482678*
X2277835Y1602835D02*
X2266023D01*
Y1609921*
X2277835*
Y1602835*
X2282835Y1580335D02*
X2271023D01*
Y1587421*
X2282835*
Y1580335*
Y1552835D02*
X2271023D01*
Y1559921*
X2282835*
Y1552835*
X2271023Y1594921D02*
X2282835D01*
Y1587835*
X2271023*
Y1594921*
X2328523Y1577421D02*
X2340335D01*
Y1570335*
X2328523*
Y1577421*
X2365335Y1535335D02*
X2353523D01*
Y1542421*
X2365335*
Y1535335*
X2288523Y1577421D02*
X2300335D01*
Y1570335*
X2288523*
Y1577421*
X2223523Y1539921D02*
X2235335D01*
Y1532835*
X2223523*
Y1539921*
X2283523Y1567421D02*
X2295335D01*
Y1560335*
X2283523*
Y1567421*
X2225472Y1569784D02*
Y1557972D01*
X2218386*
Y1569784*
X2225472*
X2266023Y1602421D02*
X2277835D01*
Y1595335*
X2266023*
Y1602421*
X2283523Y1587421D02*
X2295335D01*
Y1580335*
X2283523*
Y1587421*
X2242972Y1547284D02*
Y1535472D01*
X2235886*
Y1547284*
X2242972*
X2271023Y1567421D02*
X2282835D01*
Y1560335*
X2271023*
Y1567421*
X2285472Y1607284D02*
Y1595472D01*
X2278386*
Y1607284*
X2285472*
X2190472Y1512284D02*
Y1500472D01*
X2183386*
Y1512284*
X2190472*
X2250929Y1534378D02*
Y1548378D01*
X2257929*
Y1534378*
X2250929*
X2225429Y1585878D02*
Y1571878D01*
X2218429*
Y1585878*
X2225429*
X2091429Y1542878D02*
X2077429D01*
Y1549878*
X2091429*
Y1542878*
Y1645378D02*
X2077429D01*
Y1652378*
X2091429*
Y1645378*
X2354929Y1604878D02*
X2368929D01*
Y1597878*
X2354929*
Y1604878*
X2283179Y1576878D02*
X2287729D01*
Y1570878*
X2283179*
X2280679Y1576878D02*
X2276129D01*
Y1570878*
X2280679*
X2228179Y1540878D02*
X2223629D01*
Y1546878*
X2228179*
X2230679Y1540878D02*
X2235229D01*
Y1546878*
X2230679*
X2197835Y1585335D02*
X2186023D01*
Y1592421*
X2197835*
Y1585335*
X2265031Y1200912D02*
X2267894Y1195006D01*
Y1200912D02*
X2265031Y1195006D01*
X2269735Y1200912D02*
X2272599Y1195006D01*
Y1200912D02*
X2269735Y1195006D01*
X2274440Y1200912D02*
X2277303Y1195006D01*
Y1200912D02*
X2274440Y1195006D01*
X2279144Y1200912D02*
X2282008Y1195006D01*
Y1200912D02*
X2279144Y1195006D01*
X2283849Y1200912D02*
X2286712Y1195006D01*
Y1200912D02*
X2283849Y1195006D01*
X2288553Y1200912D02*
X2291417Y1195006D01*
Y1200912D02*
X2288553Y1195006D01*
X2293258Y1200912D02*
X2296121Y1195006D01*
Y1200912D02*
X2293258Y1195006D01*
X2298371Y1195287D02*
X2298167Y1195006D01*
X2297962Y1195287*
X2298167Y1195568*
X2298371Y1195287*
Y1194724*
X2298167Y1194162*
X2297962Y1193881*
X2304917Y1200912D02*
Y1195006D01*
Y1200912D02*
X2306758D01*
X2307371Y1200631*
X2307576Y1200349*
X2307781Y1199787*
Y1199224*
X2307576Y1198662*
X2307371Y1198381*
X2306758Y1198099*
X2304917*
X2306349D02*
X2307781Y1195006D01*
X2309621Y1197256D02*
X2312076D01*
Y1197818*
X2311871Y1198381*
X2311667Y1198662*
X2311258Y1198943*
X2310644*
X2310235Y1198662*
X2309826Y1198099*
X2309621Y1197256*
Y1196693*
X2309826Y1195849*
X2310235Y1195287*
X2310644Y1195006*
X2311258*
X2311667Y1195287*
X2312076Y1195849*
X2313917Y1198943D02*
X2315144Y1195006D01*
X2316371Y1198943D02*
X2315144Y1195006D01*
X2318417Y1195568D02*
X2318212Y1195287D01*
X2318417Y1195006*
X2318621Y1195287*
X2318417Y1195568*
X2326190Y1199224D02*
Y1195849D01*
X2325167Y1198381D02*
X2327212Y1196693D01*
Y1198381D02*
X2325167Y1196693D01*
X2222554Y1249581D02*
X2220281Y1241378D01*
X2222554Y1249581D02*
X2224827Y1241378D01*
X2221134Y1244112D02*
X2223974D01*
X2230793Y1249581D02*
Y1241378D01*
Y1245675D02*
X2230224Y1246456D01*
X2229656Y1246847*
X2228804*
X2228236Y1246456*
X2227668Y1245675*
X2227384Y1244503*
Y1243722*
X2227668Y1242550*
X2228236Y1241769*
X2228804Y1241378*
X2229656*
X2230224Y1241769*
X2230793Y1242550*
X2236759Y1246847D02*
Y1241378D01*
Y1245675D02*
X2236190Y1246456D01*
X2235622Y1246847*
X2234770*
X2234202Y1246456*
X2233634Y1245675*
X2233349Y1244503*
Y1243722*
X2233634Y1242550*
X2234202Y1241769*
X2234770Y1241378*
X2235622*
X2236190Y1241769*
X2236759Y1242550*
X2239315Y1246847D02*
Y1238644D01*
Y1245675D02*
X2239884Y1246456D01*
X2240452Y1246847*
X2241304*
X2241872Y1246456*
X2242440Y1245675*
X2242724Y1244503*
Y1243722*
X2242440Y1242550*
X2241872Y1241769*
X2241304Y1241378*
X2240452*
X2239884Y1241769*
X2239315Y1242550*
X2246134Y1249581D02*
Y1242941D01*
X2246134D02*
X2246418Y1241769D01*
X2246986Y1241378*
X2247554*
X2245281Y1246847D02*
X2247270D01*
X2250111Y1244503D02*
X2253520D01*
Y1245284*
X2253236Y1246066*
X2253236D02*
X2252952Y1246456D01*
X2252384Y1246847*
X2251531*
X2250963Y1246456*
X2250395Y1245675*
X2250111Y1244503*
Y1243722*
X2250395Y1242550*
X2250963Y1241769*
X2251531Y1241378*
X2252384*
X2252952Y1241769*
X2253520Y1242550*
X2256077Y1246847D02*
X2257781Y1241378D01*
X2259486Y1246847D02*
X2257781Y1241378D01*
X2265452Y1246847D02*
Y1241378D01*
Y1245675D02*
X2264884Y1246456D01*
X2264315Y1246847*
X2263463*
X2262895Y1246456*
X2262327Y1245675*
X2262043Y1244503*
Y1243722*
X2262327Y1242550*
X2262895Y1241769*
X2263463Y1241378*
X2264315*
X2264884Y1241769*
X2265452Y1242550*
X2268577Y1241769D02*
X2268293Y1241378D01*
X2268009Y1241769*
X2268293Y1242159*
X2268577Y1241769*
Y1240987*
X2268293Y1240206*
X2268009Y1239815*
X2277668Y1249581D02*
Y1241378D01*
X2280224Y1246847D02*
Y1241378D01*
Y1245284D02*
X2281077Y1246456D01*
X2281645Y1246847*
X2282497*
X2283065Y1246456*
X2283349Y1245284*
Y1241378*
X2289315Y1245675D02*
X2288747Y1246456D01*
X2288179Y1246847*
X2287327*
X2286759Y1246456*
X2286190Y1245675*
X2285906Y1244503*
Y1243722*
X2286190Y1242550*
X2286759Y1241769*
X2287327Y1241378*
X2288179*
X2288747Y1241769*
X2289315Y1242550*
X2292156Y1242159D02*
X2291872Y1241769D01*
X2292156Y1241378*
X2292440Y1241769*
X2292156Y1242159*
X2123463Y1251532D02*
X2380963D01*
Y1181532*
X2123463*
Y1251532*
X2240963Y1191532D02*
Y1204032D01*
X2175963Y1181532D02*
Y1191532D01*
X2325963Y1181532D02*
Y1191532D01*
X2123463Y1229032D02*
X2380963D01*
X2123463Y1216532D02*
X2380963D01*
X2123463Y1204032D02*
X2380963D01*
X2123463Y1191532D02*
X2380963D01*
G54D13*
X2348879Y1559727D02*
Y1561928D01*
X2351080Y1545828D02*
X2348879D01*
X2362778Y1561928D02*
X2364979D01*
Y1545828D02*
X2362778D01*
X2348879D02*
Y1548029D01*
Y1561928D02*
X2351080D01*
X2364979D02*
Y1559727D01*
Y1548029D02*
Y1545828D01*
X2366429Y1559728D02*
Y1563378D01*
X2362929*
X2343879Y1592227D02*
Y1594428D01*
X2346080Y1578328D02*
X2343879D01*
X2357778Y1594428D02*
X2359979D01*
Y1578328D02*
X2357778D01*
X2343879D02*
Y1580529D01*
Y1594428D02*
X2346080D01*
X2359979D02*
Y1592227D01*
Y1580529D02*
Y1578328D01*
X2361429Y1592228D02*
Y1595878D01*
X2357929*
X2200979Y1519529D02*
Y1517328D01*
X2198778Y1533428D02*
X2200979D01*
X2187080Y1517328D02*
X2184879D01*
Y1533428D02*
X2187080D01*
X2200979D02*
Y1531227D01*
Y1517328D02*
X2198778D01*
X2184879D02*
Y1519529D01*
Y1531227D02*
Y1533428D01*
X2183429Y1519528D02*
Y1515878D01*
X2186929*
X2102066Y1532478D02*
X2100529D01*
X2111792Y1545278D02*
X2113329D01*
Y1532478*
X2111792*
X2100529D02*
Y1545278D01*
X2102066*
X2100529Y1537678D02*
G75*
G03Y1540078I0J1200D01*
G01X2363485Y1188954D02*
X2363145Y1188720D01*
X2362804Y1188251*
X2362633Y1187782*
X2362463Y1187079*
Y1185907*
X2362633Y1185204*
X2362804Y1184735*
X2363145Y1184267*
X2363485Y1184032*
X2364167*
X2364508Y1184267*
X2364849Y1184735*
X2365020Y1185204*
X2365190Y1185907*
Y1187079*
X2365020Y1187782*
X2364849Y1188251*
X2364508Y1188720*
X2364167Y1188954*
X2363485*
X2366724D02*
Y1184032D01*
Y1188954D02*
X2368940D01*
X2366724Y1186610D02*
X2368088D01*
X2371939Y1187864D02*
X2372280Y1188099D01*
X2372792Y1188802*
Y1183880*
X2375348Y1188802D02*
X2374837Y1188567D01*
X2374496Y1187864*
X2374326Y1186692*
Y1185989*
X2374496Y1184817*
X2374837Y1184114*
X2375348Y1183880*
X2375689*
X2376201Y1184114*
X2376542Y1184817*
X2376712Y1185989*
Y1186692*
X2376542Y1187864*
X2376201Y1188567*
X2375689Y1188802*
X2375348*
X2264372Y1189044D02*
Y1184778D01*
Y1189044D02*
X2265702D01*
X2266145Y1188841*
X2266293Y1188637*
X2266440Y1188231*
Y1187622*
X2266293Y1187216*
X2266145Y1187012*
X2265702Y1186809*
X2264372*
X2268952Y1189044D02*
X2267770Y1184778D01*
X2268952Y1189044D02*
X2270133Y1184778D01*
X2268213Y1186200D02*
X2269690D01*
X2271463Y1189044D02*
Y1184778D01*
Y1189044D02*
X2272793D01*
X2273236Y1188841*
X2273383Y1188637*
X2273531Y1188231*
Y1187825*
X2273383Y1187419*
X2273236Y1187216*
X2272793Y1187012*
X2271463*
X2272497D02*
X2273531Y1184778D01*
X2276043Y1189044D02*
X2274861Y1184778D01*
X2276043Y1189044D02*
X2277224Y1184778D01*
X2275304Y1186200D02*
X2276781D01*
X2278554Y1189044D02*
Y1184778D01*
X2280327*
X2281656Y1189044D02*
Y1184778D01*
X2283429*
X2284758Y1189044D02*
Y1184778D01*
Y1189044D02*
X2286679D01*
X2284758Y1187012D02*
X2285940D01*
X2284758Y1184778D02*
X2286679D01*
X2288008Y1189044D02*
Y1184778D01*
X2289781*
X2291111Y1189044D02*
Y1184778D01*
X2292883*
X2295395Y1189044D02*
X2294213Y1184778D01*
X2295395Y1189044D02*
X2296577Y1184778D01*
X2294656Y1186200D02*
X2296133D01*
X2297906Y1186606D02*
X2300565D01*
X2301895Y1189044D02*
Y1184778D01*
Y1189044D02*
X2303224D01*
X2303668Y1188841*
X2303815Y1188637*
X2303963Y1188231*
Y1187825*
X2303815Y1187419*
X2303668Y1187216*
X2303224Y1187012*
X2301895*
X2302929D02*
X2303963Y1184778D01*
X2305293Y1189044D02*
Y1184778D01*
Y1189044D02*
X2307213D01*
X2305293Y1187012D02*
X2306474D01*
X2308690Y1185184D02*
X2308543Y1184981D01*
X2308690Y1184778*
X2308838Y1184981*
X2308690Y1185184*
X2310168Y1189044D02*
Y1184778D01*
Y1189044D02*
X2311497D01*
X2311940Y1188841*
X2312088Y1188637*
X2312236Y1188231*
Y1187622*
X2312088Y1187216*
X2311940Y1187012*
X2311497Y1186809*
X2310168*
X2315781Y1188028D02*
X2315633Y1188434D01*
X2315338Y1188841*
X2315043Y1189044*
X2314452*
X2314156Y1188841*
X2313861Y1188434*
X2313713Y1188028*
X2313565Y1187419*
Y1186403*
X2313713Y1185794*
X2313861Y1185387*
X2314156Y1184981*
X2314452Y1184778*
X2315043*
X2315338Y1184981*
X2315633Y1185387*
X2315781Y1185794*
X2317111Y1189044D02*
Y1184778D01*
Y1189044D02*
X2318440D01*
X2318883Y1188841*
X2319031Y1188637*
X2319179Y1188231*
Y1187825*
X2319031Y1187419*
X2318883Y1187216*
X2318440Y1187012*
X2317111D02*
X2318440D01*
X2318883Y1186809*
X2319031Y1186606*
X2319179Y1186200*
Y1185591*
X2319031Y1185184*
X2318883Y1184981*
X2318440Y1184778*
X2317111*
X2128649Y1213901D02*
X2128308Y1214370D01*
X2127797Y1214604*
X2127115*
X2126604Y1214370*
X2126263Y1213901*
Y1213432*
X2126433Y1212963*
X2126604Y1212729*
X2126945Y1212495*
X2127967Y1212026*
X2128308Y1211792*
X2128479Y1211557*
X2128649Y1211088*
Y1210385*
X2128308Y1209917*
X2127797Y1209682*
X2127115*
X2126604Y1209917*
X2126263Y1210385*
X2130183Y1214604D02*
Y1209682D01*
X2132570Y1214604D02*
Y1209682D01*
X2130183Y1212260D02*
X2132570D01*
X2134104Y1214604D02*
Y1209682D01*
Y1214604D02*
X2136320D01*
X2134104Y1212260D02*
X2135467D01*
X2134104Y1209682D02*
X2136320D01*
X2137854Y1214604D02*
Y1209682D01*
Y1214604D02*
X2140070D01*
X2137854Y1212260D02*
X2139217D01*
X2137854Y1209682D02*
X2140070D01*
X2142797Y1214604D02*
Y1209682D01*
X2141604Y1214604D02*
X2143990D01*
X2150638D02*
Y1209682D01*
X2149445Y1214604D02*
X2151831D01*
X2153365D02*
Y1209682D01*
X2156092Y1214604D02*
Y1209682D01*
X2154899Y1214604D02*
X2157285D01*
X2158820D02*
Y1209682D01*
X2160865*
X2162399Y1214604D02*
Y1209682D01*
Y1214604D02*
X2164615D01*
X2162399Y1212260D02*
X2163763D01*
X2162399Y1209682D02*
X2164615D01*
X2166320Y1212963D02*
X2166149Y1212729D01*
X2166320Y1212495*
X2166490Y1212729*
X2166320Y1212963*
Y1210151D02*
X2166149Y1209917D01*
X2166320Y1209682*
X2166490Y1209917*
X2166320Y1210151*
X2170790Y1236959D02*
X2171054Y1237141D01*
X2171054D02*
X2171449Y1237684D01*
Y1233878*
X2174218Y1237141D02*
X2174086Y1237503D01*
X2173690Y1237684*
X2173427*
X2173031Y1237503*
X2172768Y1236959*
X2172636Y1236053*
Y1235147*
X2172768Y1234422*
X2173031Y1234059*
X2173427Y1233878*
X2173559*
X2173954Y1234059*
X2174218Y1234422*
X2174349Y1234966*
X2174349D02*
Y1235147D01*
X2174218Y1235691*
X2174218D02*
X2173954Y1236053D01*
X2173559Y1236234*
X2173427*
X2173031Y1236053*
X2172768Y1235691*
X2172768D02*
X2172636Y1235147D01*
X2177118Y1237141D02*
X2176986Y1237503D01*
X2176590Y1237684*
X2176327*
X2175931Y1237503*
X2175668Y1236959*
X2175536Y1236053*
Y1235147*
X2175668Y1234422*
X2175931Y1234059*
X2176327Y1233878*
X2176459*
X2176854Y1234059*
X2177118Y1234422*
X2177249Y1234966*
X2177249D02*
Y1235147D01*
X2177118Y1235691*
X2177118D02*
X2176854Y1236053D01*
X2176459Y1236234*
X2176327*
X2175931Y1236053*
X2175668Y1235691*
X2175668D02*
X2175536Y1235147D01*
X2180018Y1237141D02*
X2179886Y1237503D01*
X2179490Y1237684*
X2179227*
X2178831Y1237503*
X2178568Y1236959*
X2178436Y1236053*
Y1235147*
X2178568Y1234422*
X2178831Y1234059*
X2179227Y1233878*
X2179359*
X2179754Y1234059*
X2180018Y1234422*
X2180149Y1234966*
X2180149D02*
Y1235147D01*
X2180018Y1235691*
X2180018D02*
X2179754Y1236053D01*
X2179359Y1236234*
X2179227*
X2178831Y1236053*
X2178568Y1235691*
X2178568D02*
X2178436Y1235147D01*
X2184368Y1237684D02*
Y1233878D01*
Y1237684D02*
X2185422Y1233878D01*
X2186477Y1237684D02*
X2185422Y1233878D01*
X2186477Y1237684D02*
Y1233878D01*
X2189245Y1236416D02*
Y1233878D01*
Y1235872D02*
X2188981Y1236234D01*
X2188718Y1236416*
X2188718D02*
X2188322D01*
X2188322D02*
X2188059Y1236234D01*
X2187795Y1235872*
X2187663Y1235328*
Y1234966*
X2187663D02*
X2187795Y1234422D01*
X2188059Y1234059*
X2188322Y1233878*
X2188718*
X2188981Y1234059*
X2189245Y1234422*
X2191881Y1235872D02*
X2191749Y1236234D01*
X2191354Y1236416*
X2191354D02*
X2190959D01*
X2190959D02*
X2190563Y1236234D01*
X2190431Y1235872*
X2190563Y1235509*
X2190827Y1235328*
X2191486Y1235147*
X2191749Y1234966*
X2191749D02*
X2191881Y1234603D01*
Y1234422*
X2191749Y1234059*
X2191354Y1233878*
X2190959*
X2190563Y1234059*
X2190431Y1234422*
X2194518Y1235872D02*
X2194386Y1236234D01*
X2193990Y1236416*
X2193990D02*
X2193595D01*
X2193595D02*
X2193199Y1236234D01*
X2193068Y1235872*
X2193199Y1235509*
X2193463Y1235328*
X2194122Y1235147*
X2194386Y1234966*
X2194386D02*
X2194518Y1234603D01*
Y1234422*
X2194386Y1234059*
X2193990Y1233878*
X2193595*
X2193199Y1234059*
X2193068Y1234422*
X2197286Y1236416D02*
Y1233878D01*
Y1235872D02*
X2197022Y1236234D01*
X2196759Y1236416*
X2196759D02*
X2196363D01*
X2196363D02*
X2196099Y1236234D01*
X2195836Y1235872*
X2195704Y1235328*
Y1234966*
X2195704D02*
X2195836Y1234422D01*
X2196099Y1234059*
X2196363Y1233878*
X2196759*
X2197022Y1234059*
X2197286Y1234422*
X2200054Y1235872D02*
X2199790Y1236234D01*
X2199527Y1236416*
X2199527D02*
X2199131D01*
X2199131D02*
X2198868Y1236234D01*
X2198604Y1235872*
X2198472Y1235328*
Y1234966*
X2198472D02*
X2198604Y1234422D01*
X2198868Y1234059*
X2199131Y1233878*
X2199527*
X2199790Y1234059*
X2200054Y1234422*
X2201240Y1237684D02*
Y1233878D01*
Y1235691D02*
X2201636Y1236234D01*
X2201899Y1236416*
X2201899D02*
X2202295D01*
X2202295D02*
X2202559Y1236234D01*
X2202690Y1235691*
X2202690D02*
Y1233878D01*
X2203877Y1236416D02*
Y1234603D01*
X2204009Y1234059*
X2204272Y1233878*
X2204668*
X2204931Y1234059*
X2205327Y1234603*
Y1236416D02*
Y1233878D01*
X2207963Y1235872D02*
X2207831Y1236234D01*
X2207436Y1236416*
X2207436D02*
X2207040D01*
X2207040D02*
X2206645Y1236234D01*
X2206513Y1235872*
X2206645Y1235509*
X2206909Y1235328*
X2207568Y1235147*
X2207831Y1234966*
X2207831D02*
X2207963Y1234603D01*
Y1234422*
X2207831Y1234059*
X2207436Y1233878*
X2207040*
X2206645Y1234059*
X2206513Y1234422*
X2209149Y1235328D02*
X2210731D01*
Y1235691*
X2210731D02*
X2210599Y1236053D01*
X2210468Y1236234*
X2210204Y1236416*
X2210204D02*
X2209809D01*
X2209809D02*
X2209545Y1236234D01*
X2209281Y1235872*
X2209149Y1235328*
Y1234966*
X2209149D02*
X2209281Y1234422D01*
X2209545Y1234059*
X2209809Y1233878*
X2210204*
X2210468Y1234059*
X2210731Y1234422*
X2212313Y1237684D02*
Y1234603D01*
X2212445Y1234059*
X2212709Y1233878*
X2212972*
X2211918Y1236416D02*
X2212840D01*
X2214554Y1237684D02*
Y1234603D01*
X2214686Y1234059*
X2214949Y1233878*
X2215213*
X2214159Y1236416D02*
X2215081D01*
X2217849Y1235872D02*
X2217718Y1236234D01*
X2217322Y1236416*
X2217322D02*
X2216927D01*
X2216927D02*
X2216531Y1236234D01*
X2216399Y1235872*
X2216531Y1235509*
X2216795Y1235328*
X2217454Y1235147*
X2217718Y1234966*
X2217718D02*
X2217849Y1234603D01*
Y1234422*
X2217718Y1234059*
X2217322Y1233878*
X2216927*
X2216531Y1234059*
X2216399Y1234422*
X2223122Y1237684D02*
X2222068Y1233878D01*
X2223122Y1237684D02*
X2224177Y1233878D01*
X2222463Y1235147D02*
X2223781D01*
X2225363Y1236416D02*
X2226154Y1233878D01*
X2226945Y1236416D02*
X2226154Y1233878D01*
X2228131Y1235328D02*
X2229713D01*
Y1235691*
X2229713D02*
X2229581Y1236053D01*
X2229449Y1236234*
X2229186Y1236416*
X2229186D02*
X2228790D01*
X2228790D02*
X2228527Y1236234D01*
X2228263Y1235872*
X2228131Y1235328*
Y1234966*
X2228131D02*
X2228263Y1234422D01*
X2228527Y1234059*
X2228790Y1233878*
X2229186*
X2229449Y1234059*
X2229713Y1234422*
X2231031Y1234241D02*
X2230899Y1234059D01*
X2231031Y1233878*
X2231163Y1234059*
X2231031Y1234241*
X2232613Y1234059D02*
X2232481Y1233878D01*
X2232349Y1234059*
X2232481Y1234241*
X2232481D02*
X2232613Y1234059D01*
Y1233697*
X2232481Y1233334*
X2232349Y1233153*
X2236831Y1237684D02*
Y1233878D01*
X2238413*
X2239599Y1235328D02*
X2241181D01*
Y1235691*
X2241181D02*
X2241049Y1236053D01*
X2240918Y1236234*
X2240654Y1236416*
X2240654D02*
X2240259D01*
X2240259D02*
X2239995Y1236234D01*
X2239731Y1235872*
X2239599Y1235328*
Y1234966*
X2239599D02*
X2239731Y1234422D01*
X2239995Y1234059*
X2240259Y1233878*
X2240654*
X2240918Y1234059*
X2241181Y1234422*
X2242368Y1236416D02*
X2243818Y1233878D01*
Y1236416D02*
X2242368Y1233878D01*
X2245004Y1237684D02*
X2245136Y1237503D01*
X2245268Y1237684*
X2245136Y1237866*
X2245136D02*
X2245004Y1237684D01*
X2245136Y1236416D02*
Y1233878D01*
X2246454Y1236416D02*
Y1233878D01*
Y1235691D02*
X2246849Y1236234D01*
X2247113Y1236416*
X2247113D02*
X2247509D01*
X2247509D02*
X2247772Y1236234D01*
X2247904Y1235691*
X2247904D02*
Y1233878D01*
X2250672Y1236416D02*
Y1233515D01*
X2250672D02*
X2250540Y1232972D01*
X2250409Y1232790*
X2250409D02*
X2250145Y1232609D01*
X2249749*
X2249486Y1232790*
X2250672Y1235872D02*
X2250409Y1236234D01*
X2250145Y1236416*
X2250145D02*
X2249749D01*
X2249749D02*
X2249486Y1236234D01*
X2249222Y1235872*
X2249090Y1235328*
Y1234966*
X2249090D02*
X2249222Y1234422D01*
X2249486Y1234059*
X2249749Y1233878*
X2250145*
X2250409Y1234059*
X2250672Y1234422*
X2252254Y1237684D02*
Y1234603D01*
X2252386Y1234059*
X2252649Y1233878*
X2252913*
X2251859Y1236416D02*
X2252781D01*
X2254759D02*
X2254495Y1236234D01*
X2254231Y1235872*
X2254099Y1235328*
Y1234966*
X2254099D02*
X2254231Y1234422D01*
X2254495Y1234059*
X2254759Y1233878*
X2255154*
X2255418Y1234059*
X2255681Y1234422*
X2255813Y1234966*
X2255813D02*
Y1235328D01*
X2255681Y1235872*
X2255418Y1236234*
X2255154Y1236416*
X2255154D02*
X2254759D01*
X2256999D02*
Y1233878D01*
Y1235691D02*
X2257395Y1236234D01*
X2257659Y1236416*
X2257659D02*
X2258054D01*
X2258054D02*
X2258318Y1236234D01*
X2258449Y1235691*
X2258449D02*
Y1233878D01*
X2259899Y1234059D02*
X2259768Y1233878D01*
X2259636Y1234059*
X2259768Y1234241*
X2259768D02*
X2259899Y1234059D01*
Y1233697*
X2259768Y1233334*
X2259636Y1233153*
X2264118Y1237684D02*
Y1233878D01*
Y1237684D02*
X2265172Y1233878D01*
X2266227Y1237684D02*
X2265172Y1233878D01*
X2266227Y1237684D02*
Y1233878D01*
X2268468Y1237684D02*
X2267413Y1233878D01*
X2268468Y1237684D02*
X2269522Y1233878D01*
X2267809Y1235147D02*
X2269127D01*
X2274531Y1237684D02*
X2274136Y1237503D01*
X2273872Y1236959*
X2273740Y1236053*
Y1235509*
X2273872Y1234603*
X2274136Y1234059*
X2274531Y1233878*
X2274795*
X2275190Y1234059*
X2275454Y1234603*
X2275586Y1235509*
Y1236053*
X2275454Y1236959*
X2275190Y1237503*
X2274795Y1237684*
X2274531*
X2276904Y1236778D02*
Y1236959D01*
X2277036Y1237322*
X2277168Y1237503*
X2277431Y1237684*
X2277959*
X2278222Y1237503*
X2278354Y1237322*
X2278486Y1236959*
Y1236597*
X2278354Y1236234*
X2278090Y1235691*
X2278090D02*
X2276772Y1233878D01*
X2278618*
X2281122Y1237684D02*
X2279804Y1235147D01*
X2281781*
X2281122Y1237684D02*
Y1233878D01*
X2283099Y1236778D02*
Y1236959D01*
X2283231Y1237322*
X2283363Y1237503*
X2283627Y1237684*
X2284154*
X2284418Y1237503*
X2284549Y1237322*
X2284681Y1236959*
Y1236597*
X2284549Y1236234*
X2284286Y1235691*
X2284286D02*
X2282968Y1233878D01*
X2284813*
X2286790Y1237684D02*
X2286395Y1237503D01*
X2286131Y1236959*
X2285999Y1236053*
Y1235509*
X2286131Y1234603*
X2286395Y1234059*
X2286790Y1233878*
X2287054*
X2287449Y1234059*
X2287713Y1234603*
X2287845Y1235509*
Y1236053*
X2287713Y1236959*
X2287449Y1237503*
X2287054Y1237684*
X2286790*
X2296281Y1237141D02*
Y1233878D01*
X2295095Y1235509D02*
X2297468D01*
X2298654Y1236959D02*
X2298918Y1237141D01*
X2298918D02*
X2299313Y1237684D01*
Y1233878*
X2305377Y1237684D02*
X2304059Y1233878D01*
X2303531Y1237684D02*
X2305377D01*
X2307222D02*
X2306827Y1237503D01*
X2306695Y1237141*
X2306695D02*
Y1236778D01*
X2306827Y1236416*
X2306827D02*
X2307090Y1236234D01*
X2307618Y1236053*
X2308013Y1235872*
X2308277Y1235509*
X2308409Y1235147*
Y1234603*
X2308277Y1234241*
X2308277D02*
X2308145Y1234059D01*
X2307749Y1233878*
X2307222*
X2306827Y1234059*
X2306695Y1234241*
X2306695D02*
X2306563Y1234603D01*
Y1235147*
X2306695Y1235509*
X2306959Y1235872*
X2307354Y1236053*
X2307881Y1236234*
X2308145Y1236416*
X2308145D02*
X2308277Y1236778D01*
Y1237141*
X2308277D02*
X2308145Y1237503D01*
X2307749Y1237684*
X2307222*
X2309595Y1236959D02*
X2309859Y1237141D01*
X2309859D02*
X2310254Y1237684D01*
Y1233878*
X2311440Y1235509D02*
X2313813D01*
X2315263Y1237684D02*
X2316713D01*
X2315922Y1236234*
X2316318*
X2316581Y1236053*
X2316713Y1235872*
X2316845Y1235328*
Y1234966*
X2316845D02*
X2316713Y1234422D01*
X2316449Y1234059*
X2316054Y1233878*
X2315659*
X2315263Y1234059*
X2315131Y1234241*
X2315131D02*
X2314999Y1234603D01*
X2318163Y1236778D02*
Y1236959D01*
X2318295Y1237322*
X2318427Y1237503*
X2318690Y1237684*
X2319218*
X2319481Y1237503*
X2319613Y1237322*
X2319745Y1236959*
Y1236597*
X2319613Y1236234*
X2319349Y1235691*
X2319349D02*
X2318031Y1233878D01*
X2319877*
X2321722Y1237684D02*
X2321327Y1237503D01*
X2321195Y1237141*
X2321195D02*
Y1236778D01*
X2321327Y1236416*
X2321327D02*
X2321590Y1236234D01*
X2322118Y1236053*
X2322513Y1235872*
X2322777Y1235509*
X2322909Y1235147*
Y1234603*
X2322777Y1234241*
X2322777D02*
X2322645Y1234059D01*
X2322249Y1233878*
X2321722*
X2321327Y1234059*
X2321195Y1234241*
X2321195D02*
X2321063Y1234603D01*
Y1235147*
X2321195Y1235509*
X2321459Y1235872*
X2321854Y1236053*
X2322381Y1236234*
X2322645Y1236416*
X2322645D02*
X2322777Y1236778D01*
Y1237141*
X2322777D02*
X2322645Y1237503D01*
X2322249Y1237684*
X2321722*
X2324095Y1235509D02*
X2326468D01*
X2328445Y1237684D02*
X2328049Y1237503D01*
X2327786Y1236959*
X2327654Y1236053*
Y1235509*
X2327786Y1234603*
X2328049Y1234059*
X2328445Y1233878*
X2328709*
X2329104Y1234059*
X2329368Y1234603*
X2329499Y1235509*
Y1236053*
X2329368Y1236959*
X2329104Y1237503*
X2328709Y1237684*
X2328445*
X2332399D02*
X2331081D01*
X2330949Y1236053*
X2331081Y1236234*
X2331477Y1236416*
X2331477D02*
X2331872D01*
X2331872D02*
X2332268Y1236234D01*
X2332531Y1235872*
X2332663Y1235328*
X2332531Y1234966*
X2332531D02*
X2332399Y1234422D01*
X2332136Y1234059*
X2331740Y1233878*
X2331345*
X2330949Y1234059*
X2330818Y1234241*
X2330818D02*
X2330686Y1234603D01*
X2333849Y1236959D02*
X2334113Y1237141D01*
X2334113D02*
X2334509Y1237684D01*
Y1233878*
X2335959Y1237684D02*
X2337409D01*
X2336618Y1236234*
X2337013*
X2337277Y1236053*
X2337409Y1235872*
X2337540Y1235328*
Y1234966*
X2337540D02*
X2337409Y1234422D01*
X2337145Y1234059*
X2336749Y1233878*
X2336354*
X2335959Y1234059*
X2335827Y1234241*
X2335827D02*
X2335695Y1234603D01*
X2220463Y1201454D02*
Y1196532D01*
Y1201454D02*
X2222679D01*
X2220463Y1199110D02*
X2221826D01*
X2224213Y1201454D02*
Y1196532D01*
Y1201454D02*
X2225747D01*
X2226258Y1201220*
X2226429Y1200985*
X2226599Y1200517*
Y1200048*
X2226429Y1199579*
X2226258Y1199345*
X2225747Y1199110*
X2224213*
X2225406D02*
X2226599Y1196532D01*
X2228133Y1201454D02*
Y1196532D01*
X2230520Y1201454D02*
Y1196532D01*
X2228133Y1199110D02*
X2230520D01*
X2190463Y1201454D02*
Y1196532D01*
Y1201454D02*
X2191656D01*
X2192167Y1201220*
X2192508Y1200751*
X2192679Y1200282*
X2192849Y1199579*
Y1198407*
X2192679Y1197704*
X2192508Y1197235*
X2192167Y1196767*
X2191656Y1196532*
X2190463*
X2194383Y1201454D02*
Y1196532D01*
Y1201454D02*
X2195917D01*
X2196429Y1201220*
X2196599Y1200985*
X2196770Y1200517*
Y1200048*
X2196599Y1199579*
X2196429Y1199345*
X2195917Y1199110*
X2194383*
X2195576D02*
X2196770Y1196532D01*
X2199667Y1201454D02*
X2198304Y1196532D01*
X2199667Y1201454D02*
X2201031Y1196532D01*
X2198815Y1198173D02*
X2200520D01*
X2202565Y1201454D02*
X2203417Y1196532D01*
X2204270Y1201454D02*
X2203417Y1196532D01*
X2204270Y1201454D02*
X2205122Y1196532D01*
X2205974Y1201454D02*
X2205122Y1196532D01*
X2207508Y1201454D02*
Y1196532D01*
Y1201454D02*
X2209895Y1196532D01*
Y1201454D02*
Y1196532D01*
X2211599Y1199813D02*
X2211429Y1199579D01*
X2211599Y1199345*
X2211770Y1199579*
X2211599Y1199813*
Y1197001D02*
X2211429Y1196767D01*
X2211599Y1196532*
X2211770Y1196767*
X2211599Y1197001*
X2125463Y1201454D02*
Y1196532D01*
Y1201454D02*
X2126656D01*
X2127167Y1201220*
X2127508Y1200751*
X2127679Y1200282*
X2127849Y1199579*
Y1198407*
X2127679Y1197704*
X2127508Y1197235*
X2127167Y1196767*
X2126656Y1196532*
X2125463*
X2130747Y1201454D02*
X2129383Y1196532D01*
X2130747Y1201454D02*
X2132110Y1196532D01*
X2129895Y1198173D02*
X2131599D01*
X2134838Y1201454D02*
Y1196532D01*
X2133645Y1201454D02*
X2136031D01*
X2137565D02*
Y1196532D01*
Y1201454D02*
X2139781D01*
X2137565Y1199110D02*
X2138929D01*
X2137565Y1196532D02*
X2139781D01*
X2141485Y1199813D02*
X2141315Y1199579D01*
X2141485Y1199345*
X2141656Y1199579*
X2141485Y1199813*
Y1197001D02*
X2141315Y1196767D01*
X2141485Y1196532*
X2141656Y1196767*
X2141485Y1197001*
X2146645Y1199659D02*
X2146474Y1198956D01*
X2146134Y1198487*
X2145622Y1198253*
X2145452*
X2144940Y1198487*
X2144599Y1198956*
X2144429Y1199659*
Y1199894*
X2144599Y1200597*
X2144940Y1201066*
X2144940D02*
X2145452Y1201300D01*
X2145622*
X2146134Y1201066*
X2146134D02*
X2146474Y1200597D01*
X2146645Y1199659*
Y1198487*
X2146474Y1197316*
X2146474D02*
X2146134Y1196612D01*
X2145622Y1196378*
X2145281*
X2144770Y1196612*
X2144599Y1197081*
X2151247Y1202237D02*
X2148179Y1194737D01*
X2155168Y1201300D02*
X2153463Y1196378D01*
X2152781Y1201300D02*
X2155168D01*
X2159770Y1202237D02*
X2156702Y1194737D01*
X2161474Y1200128D02*
Y1200362D01*
X2161645Y1200831*
X2161815Y1201066*
X2161815D02*
X2162156Y1201300D01*
X2162838*
X2163179Y1201066*
X2163179D02*
X2163349Y1200831D01*
X2163520Y1200362*
Y1199894*
X2163349Y1199425*
X2163009Y1198722*
X2161304Y1196378*
X2163690*
X2166247Y1201300D02*
X2165736Y1201066D01*
X2165736D02*
X2165395Y1200362D01*
X2165224Y1199191*
X2165224D02*
Y1198487D01*
X2165395Y1197316*
X2165395D02*
X2165736Y1196612D01*
X2166247Y1196378*
X2166588*
X2167099Y1196612*
X2167440Y1197316*
X2167440D02*
X2167611Y1198487D01*
Y1199191*
X2167611D02*
X2167440Y1200362D01*
X2167099Y1201066*
X2167099D02*
X2166588Y1201300D01*
X2166247*
X2169145Y1200362D02*
X2169486Y1200597D01*
X2169997Y1201300*
Y1196378*
X2173236Y1201300D02*
X2171531Y1198019D01*
X2174088*
X2173236Y1201300D02*
Y1196378D01*
X2127456Y1227104D02*
Y1222182D01*
X2126263Y1227104D02*
X2128649D01*
X2130183D02*
Y1222182D01*
X2132910Y1227104D02*
Y1222182D01*
X2131717Y1227104D02*
X2134104D01*
X2135638D02*
Y1222182D01*
X2137683*
X2139217Y1227104D02*
Y1222182D01*
Y1227104D02*
X2141433D01*
X2139217Y1224760D02*
X2140581D01*
X2139217Y1222182D02*
X2141433D01*
X2143138Y1225463D02*
X2142967Y1225229D01*
X2143138Y1224995*
X2143308Y1225229*
X2143138Y1225463*
Y1222651D02*
X2142967Y1222417D01*
X2143138Y1222182*
X2143308Y1222417*
X2143138Y1222651*
X2128649Y1188901D02*
X2128308Y1189370D01*
X2127797Y1189604*
X2127115*
X2126604Y1189370*
X2126263Y1188901*
Y1188432*
X2126433Y1187963*
X2126604Y1187729*
X2126945Y1187495*
X2127967Y1187026*
X2128308Y1186792*
X2128479Y1186557*
X2128649Y1186088*
Y1185385*
X2128308Y1184917*
X2127797Y1184682*
X2127115*
X2126604Y1184917*
X2126263Y1185385*
X2132740Y1188432D02*
X2132570Y1188901D01*
X2132229Y1189370*
X2131888Y1189604*
X2131206*
X2130865Y1189370*
X2130524Y1188901*
X2130354Y1188432*
X2130183Y1187729*
Y1186557*
X2130354Y1185854*
X2130524Y1185385*
X2130865Y1184917*
X2131206Y1184682*
X2131888*
X2132229Y1184917*
X2132570Y1185385*
X2132740Y1185854*
X2135638Y1189604D02*
X2134274Y1184682D01*
X2135638Y1189604D02*
X2137001Y1184682D01*
X2134785Y1186323D02*
X2136490D01*
X2138535Y1189604D02*
Y1184682D01*
X2140581*
X2142115Y1189604D02*
Y1184682D01*
Y1189604D02*
X2144331D01*
X2142115Y1187260D02*
X2143479D01*
X2142115Y1184682D02*
X2144331D01*
X2149785Y1187495D02*
X2152854D01*
X2149785Y1186088D02*
X2152854D01*
X2158308Y1188667D02*
X2158649Y1188901D01*
X2159160Y1189604*
Y1184682*
X2164785Y1187963D02*
X2164615Y1187729D01*
X2164785Y1187495*
X2164956Y1187729*
X2164785Y1187963*
Y1185151D02*
X2164615Y1184917D01*
X2164785Y1184682*
X2164956Y1184917*
X2164785Y1185151*
X2170410Y1188667D02*
X2170751Y1188901D01*
X2171263Y1189604*
Y1184682*
X2243763Y1202104D02*
Y1197182D01*
Y1202104D02*
X2245297D01*
X2245808Y1201870*
X2245979Y1201635*
X2246149Y1201167*
Y1200463*
X2245979Y1199995*
X2245808Y1199760*
X2245297Y1199526*
X2243763*
X2250751Y1203042D02*
X2247683Y1195542D01*
X2252285Y1202104D02*
Y1197182D01*
Y1202104D02*
X2254672Y1197182D01*
Y1202104D02*
Y1197182D01*
X2181320Y1188432D02*
X2181149Y1188901D01*
X2180808Y1189370*
X2180467Y1189604*
X2179785*
X2179445Y1189370*
X2179104Y1188901*
X2178933Y1188432*
X2178763Y1187729*
Y1186557*
X2178933Y1185854*
X2179104Y1185385*
X2179445Y1184917*
X2179785Y1184682*
X2180467*
X2180808Y1184917*
X2181149Y1185385*
X2181320Y1185854*
X2183876Y1189604D02*
X2183535Y1189370D01*
X2183195Y1188901*
X2183024Y1188432*
X2182854Y1187729*
Y1186557*
X2183024Y1185854*
X2183195Y1185385*
X2183535Y1184917*
X2183876Y1184682*
X2184558*
X2184899Y1184917*
X2185240Y1185385*
X2185410Y1185854*
X2185581Y1186557*
Y1187729*
X2185410Y1188432*
X2185240Y1188901*
X2184899Y1189370*
X2184558Y1189604*
X2183876*
X2187115D02*
Y1184682D01*
Y1189604D02*
X2188479Y1184682D01*
X2189842Y1189604D02*
X2188479Y1184682D01*
X2189842Y1189604D02*
Y1184682D01*
X2191376Y1189604D02*
Y1184682D01*
Y1189604D02*
X2192910D01*
X2193422Y1189370*
X2193592Y1189135*
X2193763Y1188667*
Y1187963*
X2193592Y1187495*
X2193422Y1187260*
X2192910Y1187026*
X2191376*
X2195297Y1189604D02*
Y1186088D01*
X2195467Y1185385*
X2195808Y1184917*
X2196320Y1184682*
X2196660*
X2197172Y1184917*
X2197513Y1185385*
X2197683Y1186088*
Y1189604*
X2200410D02*
Y1184682D01*
X2199217Y1189604D02*
X2201604D01*
X2203138D02*
Y1184682D01*
Y1189604D02*
X2205354D01*
X2203138Y1187260D02*
X2204501D01*
X2203138Y1184682D02*
X2205354D01*
X2206888Y1189604D02*
Y1184682D01*
Y1189604D02*
X2208422D01*
X2208933Y1189370*
X2209104Y1189135*
X2209274Y1188667*
Y1188198*
X2209104Y1187729*
X2208933Y1187495*
X2208422Y1187260*
X2206888*
X2208081D02*
X2209274Y1184682D01*
X2214729Y1189604D02*
Y1184682D01*
Y1189604D02*
X2216945D01*
X2214729Y1187260D02*
X2216092D01*
X2218479Y1189604D02*
Y1184682D01*
X2220013Y1189604D02*
Y1184682D01*
X2222058*
X2223592Y1189604D02*
Y1184682D01*
Y1189604D02*
X2225808D01*
X2223592Y1187260D02*
X2224956D01*
X2223592Y1184682D02*
X2225808D01*
X2227342Y1189604D02*
Y1184682D01*
Y1189604D02*
X2229729Y1184682D01*
Y1189604D02*
Y1184682D01*
X2232626Y1189604D02*
X2231263Y1184682D01*
X2232626Y1189604D02*
X2233990Y1184682D01*
X2231774Y1186323D02*
X2233479D01*
X2235524Y1189604D02*
Y1184682D01*
Y1189604D02*
X2236888Y1184682D01*
X2238251Y1189604D02*
X2236888Y1184682D01*
X2238251Y1189604D02*
Y1184682D01*
X2239785Y1189604D02*
Y1184682D01*
Y1189604D02*
X2242001D01*
X2239785Y1187260D02*
X2241149D01*
X2239785Y1184682D02*
X2242001D01*
X2243706Y1187963D02*
X2243535Y1187729D01*
X2243706Y1187495*
X2243876Y1187729*
X2243706Y1187963*
Y1185151D02*
X2243535Y1184917D01*
X2243706Y1184682*
X2243876Y1184917*
X2243706Y1185151*
X2331149Y1188901D02*
X2330808Y1189370D01*
X2330297Y1189604*
X2329615*
X2329104Y1189370*
X2328763Y1188901*
Y1188432*
X2328933Y1187963*
X2329104Y1187729*
X2329445Y1187495*
X2330467Y1187026*
X2330808Y1186792*
X2330979Y1186557*
X2331149Y1186088*
Y1185385*
X2330808Y1184917*
X2330297Y1184682*
X2329615*
X2329104Y1184917*
X2328763Y1185385*
X2332683Y1189604D02*
Y1184682D01*
X2335070Y1189604D02*
Y1184682D01*
X2332683Y1187260D02*
X2335070D01*
X2336604Y1189604D02*
Y1184682D01*
Y1189604D02*
X2338820D01*
X2336604Y1187260D02*
X2337967D01*
X2336604Y1184682D02*
X2338820D01*
X2340354Y1189604D02*
Y1184682D01*
Y1189604D02*
X2342570D01*
X2340354Y1187260D02*
X2341717D01*
X2340354Y1184682D02*
X2342570D01*
X2345297Y1189604D02*
Y1184682D01*
X2344104Y1189604D02*
X2346490D01*
G54D14*
X2195724Y1225972D02*
Y1221378D01*
Y1225972D02*
X2197793D01*
X2195724Y1223784D02*
X2196997D01*
X2200497Y1225972D02*
X2199224Y1221378D01*
X2200497Y1225972D02*
X2201770Y1221378D01*
X2199702Y1222909D02*
X2201293D01*
X2203202Y1225972D02*
Y1221378D01*
Y1225972D02*
X2204634D01*
X2205111Y1225753*
X2205270Y1225534*
X2205429Y1225097*
Y1224659*
X2205270Y1224222*
X2205111Y1224003*
X2204634Y1223784*
X2203202D02*
X2204634D01*
X2205111Y1223566*
X2205111D02*
X2205270Y1223347D01*
X2205429Y1222909*
Y1222253*
X2205270Y1221816*
X2205270D02*
X2205111Y1221597D01*
X2204634Y1221378*
X2203202*
X2206861Y1225972D02*
Y1221378D01*
Y1225972D02*
X2208293D01*
X2208770Y1225753*
X2208929Y1225534*
X2209088Y1225097*
Y1224659*
X2208929Y1224222*
X2208770Y1224003*
X2208293Y1223784*
X2206861*
X2207974D02*
X2209088Y1221378D01*
X2210520Y1225972D02*
Y1221378D01*
X2214338Y1224878D02*
X2214179Y1225316D01*
X2214179D02*
X2213861Y1225753D01*
X2213543Y1225972*
X2212906*
X2212588Y1225753*
X2212270Y1225316*
X2212270D02*
X2212111Y1224878D01*
X2211952Y1224222*
Y1223128*
X2212111Y1222472*
X2212270Y1222034*
X2212588Y1221597*
X2212906Y1221378*
X2213543*
X2213861Y1221597*
X2214179Y1222034*
X2214338Y1222472*
X2217043Y1225972D02*
X2215770Y1221378D01*
X2217043Y1225972D02*
X2218315Y1221378D01*
X2216247Y1222909D02*
X2217838D01*
X2220861Y1225972D02*
Y1221378D01*
X2219747Y1225972D02*
X2221974D01*
X2223406D02*
Y1221378D01*
X2225793Y1225972D02*
X2225474Y1225753D01*
X2225156Y1225316*
X2225156D02*
X2224997Y1224878D01*
X2224838Y1224222*
Y1223128*
X2224997Y1222472*
X2225156Y1222034*
X2225474Y1221597*
X2225793Y1221378*
X2226429*
X2226747Y1221597*
X2227065Y1222034*
X2227224Y1222472*
X2227384Y1223128*
Y1224222*
X2227224Y1224878*
X2227065Y1225316*
X2227065D02*
X2226747Y1225753D01*
X2226429Y1225972*
X2225793*
X2228815D02*
Y1221378D01*
Y1225972D02*
X2231043Y1221378D01*
Y1225972D02*
Y1221378D01*
X2236134Y1225972D02*
Y1221378D01*
Y1225972D02*
X2237247D01*
X2237724Y1225753*
X2238043Y1225316*
X2238043D02*
X2238202Y1224878D01*
X2238361Y1224222*
Y1223128*
X2238202Y1222472*
X2238043Y1222034*
X2237724Y1221597*
X2237247Y1221378*
X2236134*
X2239793Y1225972D02*
Y1221378D01*
Y1225972D02*
X2241224D01*
X2241702Y1225753*
X2241861Y1225534*
X2242020Y1225097*
Y1224659*
X2241861Y1224222*
X2241702Y1224003*
X2241224Y1223784*
X2239793*
X2240906D02*
X2242020Y1221378D01*
X2244724Y1225972D02*
X2243452Y1221378D01*
X2244724Y1225972D02*
X2245997Y1221378D01*
X2243929Y1222909D02*
X2245520D01*
X2247429Y1225972D02*
X2248224Y1221378D01*
X2249020Y1225972D02*
X2248224Y1221378D01*
X2249020Y1225972D02*
X2249815Y1221378D01*
X2250611Y1225972D02*
X2249815Y1221378D01*
X2252043Y1225972D02*
Y1221378D01*
X2253474Y1225972D02*
Y1221378D01*
Y1225972D02*
X2255702Y1221378D01*
Y1225972D02*
Y1221378D01*
X2259520Y1224878D02*
X2259361Y1225316D01*
X2259361D02*
X2259043Y1225753D01*
X2258724Y1225972*
X2258088*
X2257770Y1225753*
X2257452Y1225316*
X2257452D02*
X2257293Y1224878D01*
X2257134Y1224222*
Y1223128*
X2257293Y1222472*
X2257452Y1222034*
X2257770Y1221597*
X2258088Y1221378*
X2258724*
X2259043Y1221597*
X2259361Y1222034*
X2259520Y1222472*
Y1223128*
X2258724D02*
X2259520D01*
X2261270Y1221597D02*
X2261111Y1221378D01*
X2260952Y1221597*
X2261111Y1221816*
X2261111D02*
X2261270Y1221597D01*
Y1221159*
X2261111Y1220722*
X2260952Y1220503*
X2266361Y1225972D02*
Y1221378D01*
Y1225972D02*
X2267793D01*
X2268270Y1225753*
X2268429Y1225534*
X2268588Y1225097*
Y1224441*
X2268588D02*
X2268429Y1224003D01*
X2268270Y1223784*
X2267793Y1223566*
X2267793D02*
X2266361D01*
X2271293Y1225972D02*
X2270020Y1221378D01*
X2271293Y1225972D02*
X2272565Y1221378D01*
X2270497Y1222909D02*
X2272088D01*
X2273997Y1225972D02*
Y1221378D01*
Y1225972D02*
X2275429D01*
X2275906Y1225753*
X2276065Y1225534*
X2276224Y1225097*
Y1224659*
X2276065Y1224222*
X2275906Y1224003*
X2275429Y1223784*
X2273997*
X2275111D02*
X2276224Y1221378D01*
X2278929Y1225972D02*
X2277656Y1221378D01*
X2278929Y1225972D02*
X2280202Y1221378D01*
X2278134Y1222909D02*
X2279724D01*
X2281634Y1225972D02*
Y1221378D01*
X2283543*
X2284974Y1225972D02*
Y1221378D01*
X2286884*
X2288315Y1225972D02*
Y1221378D01*
Y1225972D02*
X2290384D01*
X2288315Y1223784D02*
X2289588D01*
X2288315Y1221378D02*
X2290384D01*
X2291815Y1225972D02*
Y1221378D01*
X2293724*
X2295156Y1225972D02*
Y1221378D01*
X2297065*
X2299770Y1225972D02*
X2298497Y1221378D01*
X2299770Y1225972D02*
X2301043Y1221378D01*
X2298974Y1222909D02*
X2300565D01*
X2302474Y1223347D02*
X2305338D01*
X2306770Y1225972D02*
Y1221378D01*
Y1225972D02*
X2308202D01*
X2308679Y1225753*
X2308838Y1225534*
X2308997Y1225097*
Y1224659*
X2308838Y1224222*
X2308679Y1224003*
X2308202Y1223784*
X2306770*
X2307884D02*
X2308997Y1221378D01*
X2310429Y1225972D02*
Y1221378D01*
Y1225972D02*
X2312497D01*
X2310429Y1223784D02*
X2311702D01*
X2223031Y1212799D02*
Y1208206D01*
Y1212799D02*
X2224462D01*
X2224940Y1212581*
X2225099Y1212362*
X2225258Y1211924*
Y1211487*
X2225099Y1211049*
X2224940Y1210831*
X2224462Y1210612*
X2223031D02*
X2224462D01*
X2224940Y1210393*
X2225099Y1210174*
X2225258Y1209737*
Y1209081*
X2225099Y1208643*
X2224940Y1208424*
X2224462Y1208206*
X2223031*
X2227644Y1212799D02*
X2227326Y1212581D01*
X2227008Y1212143*
X2226849Y1211706*
X2226690Y1211049*
Y1209956*
X2226849Y1209299*
X2227008Y1208862*
X2227326Y1208424*
X2227644Y1208206*
X2228281*
X2228599Y1208424*
X2228917Y1208862*
X2229076Y1209299*
X2229235Y1209956*
Y1211049*
X2229076Y1211706*
X2228917Y1212143*
X2228599Y1212581*
X2228281Y1212799*
X2227644*
X2231781D02*
Y1208206D01*
X2230667Y1212799D02*
X2232894D01*
X2235440D02*
Y1208206D01*
X2234326Y1212799D02*
X2236553D01*
X2238940D02*
X2238621Y1212581D01*
X2238303Y1212143*
X2238144Y1211706*
X2237985Y1211049*
Y1209956*
X2238144Y1209299*
X2238303Y1208862*
X2238621Y1208424*
X2238940Y1208206*
X2239576*
X2239894Y1208424*
X2240212Y1208862*
X2240371Y1209299*
X2240531Y1209956*
Y1211049*
X2240371Y1211706*
X2240212Y1212143*
X2239894Y1212581*
X2239576Y1212799*
X2238940*
X2241962D02*
Y1208206D01*
Y1212799D02*
X2243235Y1208206D01*
X2244508Y1212799D02*
X2243235Y1208206D01*
X2244508Y1212799D02*
Y1208206D01*
X2251826Y1212143D02*
X2251508Y1212581D01*
X2251031Y1212799*
X2250394*
X2249917Y1212581*
X2249599Y1212143*
Y1211706*
X2249758Y1211268*
X2249917Y1211049*
X2250235Y1210831*
X2251190Y1210393*
X2251508Y1210174*
X2251667Y1209956*
X2251826Y1209518*
Y1208862*
X2251508Y1208424*
X2251031Y1208206*
X2250394*
X2249917Y1208424*
X2249599Y1208862*
X2253258Y1212799D02*
Y1208206D01*
X2254690Y1212799D02*
Y1208206D01*
Y1212799D02*
X2255803D01*
X2256281Y1212581*
X2256599Y1212143*
X2256758Y1211706*
X2256917Y1211049*
Y1209956*
X2256758Y1209299*
X2256599Y1208862*
X2256281Y1208424*
X2255803Y1208206*
X2254690*
X2258349Y1212799D02*
Y1208206D01*
Y1212799D02*
X2260417D01*
X2258349Y1210612D02*
X2259621D01*
X2258349Y1208206D02*
X2260417D01*
X2267735Y1212143D02*
X2267417Y1212581D01*
X2266940Y1212799*
X2266303*
X2265826Y1212581*
X2265508Y1212143*
Y1211706*
X2265667Y1211268*
X2265826Y1211049*
X2266144Y1210831*
X2267099Y1210393*
X2267417Y1210174*
X2267576Y1209956*
X2267735Y1209518*
Y1208862*
X2267417Y1208424*
X2266940Y1208206*
X2266303*
X2265826Y1208424*
X2265508Y1208862*
X2269167Y1212799D02*
Y1208206D01*
X2270599Y1212799D02*
Y1208206D01*
X2272508*
X2273940Y1212799D02*
Y1208206D01*
X2276167Y1212799D02*
X2273940Y1209737D01*
X2274735Y1210831D02*
X2276167Y1208206D01*
X2283485Y1212143D02*
X2283167Y1212581D01*
X2282690Y1212799*
X2282053*
X2281576Y1212581*
X2281258Y1212143*
Y1211706*
X2281417Y1211268*
X2281576Y1211049*
X2281894Y1210831*
X2282849Y1210393*
X2283167Y1210174*
X2283326Y1209956*
X2283485Y1209518*
Y1208862*
X2283167Y1208424*
X2282690Y1208206*
X2282053*
X2281576Y1208424*
X2281258Y1208862*
X2287303Y1211706D02*
X2287144Y1212143D01*
X2286826Y1212581*
X2286508Y1212799*
X2285871*
X2285553Y1212581*
X2285235Y1212143*
X2285076Y1211706*
X2284917Y1211049*
Y1209956*
X2285076Y1209299*
X2285235Y1208862*
X2285553Y1208424*
X2285871Y1208206*
X2286508*
X2286826Y1208424*
X2287144Y1208862*
X2287303Y1209299*
X2288735Y1212799D02*
Y1208206D01*
Y1212799D02*
X2290167D01*
X2290644Y1212581*
X2290803Y1212362*
X2290962Y1211924*
Y1211487*
X2290803Y1211049*
X2290644Y1210831*
X2290167Y1210612*
X2288735*
X2289849D02*
X2290962Y1208206D01*
X2292394Y1212799D02*
Y1208206D01*
Y1212799D02*
X2294462D01*
X2292394Y1210612D02*
X2293667D01*
X2292394Y1208206D02*
X2294462D01*
X2295894Y1212799D02*
Y1208206D01*
Y1212799D02*
X2297962D01*
X2295894Y1210612D02*
X2297167D01*
X2295894Y1208206D02*
X2297962D01*
X2299394Y1212799D02*
Y1208206D01*
Y1212799D02*
X2301621Y1208206D01*
Y1212799D02*
Y1208206D01*
G54D91*
G54D100*
X2066929Y1460128D02*
X2050679D01*
Y1476378*
X2381929Y1460128D02*
X2398179D01*
Y1476378*
X2381929Y1682628D02*
X2398179D01*
Y1666378*
X2066929Y1682628D02*
X2050679D01*
Y1666378*
G74*
X0Y0D02*
M02*
