*
*
G04 PADS 9.5 Build Number: 522968 generated Gerber (RS-274-X) file*
G04 PC Version=2.1*
*
%IN "parallella-rf.pcb"*%
*
%MOIN*%
*
%FSLAX35Y35*%
*
*
*
*
G04 PC Standard Apertures*
*
*
G04 Thermal Relief Aperture macro.*
%AMTER*
1,1,$1,0,0*
1,0,$1-$2,0,0*
21,0,$3,$4,0,0,45*
21,0,$3,$4,0,0,135*
%
*
*
G04 Annular Aperture macro.*
%AMANN*
1,1,$1,0,0*
1,0,$2,0,0*
%
*
*
G04 Odd Aperture macro.*
%AMODD*
1,1,$1,0,0*
1,0,$1-0.005,0,0*
%
*
*
G04 PC Custom Aperture Macros*
*
*
*
*
*
*
G04 PC Aperture Table*
*
%ADD013C,0.006*%
%ADD091C,0.001*%
%ADD100C,0.075*%
%ADD214R,0.03937X0.04331*%
%ADD215R,0.04331X0.03937*%
%ADD321R,0.095X0.2*%
%ADD323R,0.2X0.095*%
%ADD326R,0.0315X0.03543*%
%ADD327R,0.03543X0.0315*%
%ADD328R,0.038X0.03*%
%ADD329R,0.025X0.02*%
%ADD337R,0.039X0.035*%
%ADD338R,0.032X0.014*%
%ADD339R,0.014X0.032*%
%ADD340R,0.104X0.104*%
%ADD341R,0.012X0.042*%
%ADD342R,0.068X0.05*%
%ADD343R,0.012X0.057*%
%ADD344R,0.03X0.038*%
%ADD345R,0.063X0.224*%
*
*
*
*
G04 PC Circuitry*
G04 Layer Name parallella-rf.pcb - circuitry*
%LPD*%
*
*
G04 PC Custom Flashes*
G04 Layer Name parallella-rf.pcb - flashes*
%LPD*%
*
*
G04 PC Circuitry*
G04 Layer Name parallella-rf.pcb - circuitry*
%LPD*%
*
G54D13*
G01X2356129Y1557578D02*
X2353229D01*
Y1554678*
X2356129*
Y1557578*
Y1553078D02*
X2353229D01*
Y1550178*
X2356129*
Y1553078*
X2360629D02*
X2357729D01*
Y1550178*
X2360629*
Y1553078*
Y1557578D02*
X2357729D01*
Y1554678*
X2360629*
Y1557578*
X2351129Y1590078D02*
X2348229D01*
Y1587178*
X2351129*
Y1590078*
Y1585578D02*
X2348229D01*
Y1582678*
X2351129*
Y1585578*
X2355629D02*
X2352729D01*
Y1582678*
X2355629*
Y1585578*
Y1590078D02*
X2352729D01*
Y1587178*
X2355629*
Y1590078*
X2193729Y1521678D02*
X2196629D01*
Y1524578*
X2193729*
Y1521678*
Y1526178D02*
X2196629D01*
Y1529078*
X2193729*
Y1526178*
X2189229D02*
X2192129D01*
Y1529078*
X2189229*
Y1526178*
Y1521678D02*
X2192129D01*
Y1524578*
X2189229*
Y1521678*
X2104929Y1540178D02*
Y1537578D01*
X2108929*
Y1540178*
X2104929*
X2353303Y1554678D02*
X2356129Y1557504D01*
X2354718Y1554678D02*
X2356129Y1556090D01*
X2353229Y1556018D02*
X2354789Y1557578D01*
X2353229Y1557432D02*
X2353375Y1557578D01*
X2353303Y1550178D02*
X2356129Y1553004D01*
X2354718Y1550178D02*
X2356129Y1551590D01*
X2353229Y1551518D02*
X2354789Y1553078D01*
X2353229Y1552932D02*
X2353375Y1553078D01*
X2357803Y1550178D02*
X2360629Y1553004D01*
X2359218Y1550178D02*
X2360629Y1551590D01*
X2357729Y1551518D02*
X2359289Y1553078D01*
X2357729Y1552932D02*
X2357875Y1553078D01*
X2357803Y1554678D02*
X2360629Y1557504D01*
X2359218Y1554678D02*
X2360629Y1556090D01*
X2357729Y1556018D02*
X2359289Y1557578D01*
X2357729Y1557432D02*
X2357875Y1557578D01*
X2348303Y1587178D02*
X2351129Y1590004D01*
X2349718Y1587178D02*
X2351129Y1588590D01*
X2348229Y1588518D02*
X2349789Y1590078D01*
X2348229Y1589932D02*
X2348375Y1590078D01*
X2348303Y1582678D02*
X2351129Y1585504D01*
X2349718Y1582678D02*
X2351129Y1584090D01*
X2348229Y1584018D02*
X2349789Y1585578D01*
X2348229Y1585432D02*
X2348375Y1585578D01*
X2352803Y1582678D02*
X2355629Y1585504D01*
X2354218Y1582678D02*
X2355629Y1584090D01*
X2352729Y1584018D02*
X2354289Y1585578D01*
X2352729Y1585432D02*
X2352875Y1585578D01*
X2352803Y1587178D02*
X2355629Y1590004D01*
X2354218Y1587178D02*
X2355629Y1588590D01*
X2352729Y1588518D02*
X2354289Y1590078D01*
X2352729Y1589932D02*
X2352875Y1590078D01*
X2193803Y1521678D02*
X2196629Y1524504D01*
X2195218Y1521678D02*
X2196629Y1523090D01*
X2193729Y1523018D02*
X2195289Y1524578D01*
X2193729Y1524432D02*
X2193875Y1524578D01*
X2193803Y1526178D02*
X2196629Y1529004D01*
X2195218Y1526178D02*
X2196629Y1527590D01*
X2193729Y1527518D02*
X2195289Y1529078D01*
X2193729Y1528932D02*
X2193875Y1529078D01*
X2189303Y1526178D02*
X2192129Y1529004D01*
X2190718Y1526178D02*
X2192129Y1527590D01*
X2189229Y1527518D02*
X2190789Y1529078D01*
X2189229Y1528932D02*
X2189375Y1529078D01*
X2189303Y1521678D02*
X2192129Y1524504D01*
X2190718Y1521678D02*
X2192129Y1523090D01*
X2189229Y1523018D02*
X2190789Y1524578D01*
X2189229Y1524432D02*
X2189375Y1524578D01*
X2107518Y1537578D02*
X2108929Y1538990D01*
X2106103Y1537578D02*
X2108703Y1540178D01*
X2104929Y1537818D02*
X2107289Y1540178D01*
X2104929Y1539232D02*
X2105875Y1540178D01*
X2355983Y1557578D02*
X2356129Y1557432D01*
X2354569Y1557578D02*
X2356129Y1556018D01*
X2353229Y1557504D02*
X2356055Y1554678D01*
X2353229Y1556090D02*
X2354641Y1554678D01*
X2355983Y1553078D02*
X2356129Y1552932D01*
X2354569Y1553078D02*
X2356129Y1551518D01*
X2353229Y1553004D02*
X2356055Y1550178D01*
X2353229Y1551590D02*
X2354641Y1550178D01*
X2360483Y1553078D02*
X2360629Y1552932D01*
X2359069Y1553078D02*
X2360629Y1551518D01*
X2357729Y1553004D02*
X2360555Y1550178D01*
X2357729Y1551590D02*
X2359141Y1550178D01*
X2360483Y1557578D02*
X2360629Y1557432D01*
X2359069Y1557578D02*
X2360629Y1556018D01*
X2357729Y1557504D02*
X2360555Y1554678D01*
X2357729Y1556090D02*
X2359141Y1554678D01*
X2350983Y1590078D02*
X2351129Y1589932D01*
X2349569Y1590078D02*
X2351129Y1588518D01*
X2348229Y1590004D02*
X2351055Y1587178D01*
X2348229Y1588590D02*
X2349641Y1587178D01*
X2350983Y1585578D02*
X2351129Y1585432D01*
X2349569Y1585578D02*
X2351129Y1584018D01*
X2348229Y1585504D02*
X2351055Y1582678D01*
X2348229Y1584090D02*
X2349641Y1582678D01*
X2355483Y1585578D02*
X2355629Y1585432D01*
X2354069Y1585578D02*
X2355629Y1584018D01*
X2352729Y1585504D02*
X2355555Y1582678D01*
X2352729Y1584090D02*
X2354141Y1582678D01*
X2355483Y1590078D02*
X2355629Y1589932D01*
X2354069Y1590078D02*
X2355629Y1588518D01*
X2352729Y1590004D02*
X2355555Y1587178D01*
X2352729Y1588590D02*
X2354141Y1587178D01*
X2196483Y1524578D02*
X2196629Y1524432D01*
X2195069Y1524578D02*
X2196629Y1523018D01*
X2193729Y1524504D02*
X2196555Y1521678D01*
X2193729Y1523090D02*
X2195141Y1521678D01*
X2196483Y1529078D02*
X2196629Y1528932D01*
X2195069Y1529078D02*
X2196629Y1527518D01*
X2193729Y1529004D02*
X2196555Y1526178D01*
X2193729Y1527590D02*
X2195141Y1526178D01*
X2191983Y1529078D02*
X2192129Y1528932D01*
X2190569Y1529078D02*
X2192129Y1527518D01*
X2189229Y1529004D02*
X2192055Y1526178D01*
X2189229Y1527590D02*
X2190641Y1526178D01*
X2191983Y1524578D02*
X2192129Y1524432D01*
X2190569Y1524578D02*
X2192129Y1523018D01*
X2189229Y1524504D02*
X2192055Y1521678D01*
X2189229Y1523090D02*
X2190641Y1521678D01*
X2107983Y1540178D02*
X2108929Y1539232D01*
X2106569Y1540178D02*
X2108929Y1537818D01*
X2105155Y1540178D02*
X2107755Y1537578D01*
X2104929Y1538990D02*
X2106341Y1537578D01*
G54D91*
G54D100*
X2066929Y1460128D02*
X2050679D01*
Y1476378*
X2381929Y1460128D02*
X2398179D01*
Y1476378*
X2381929Y1682628D02*
X2398179D01*
Y1666378*
X2066929Y1682628D02*
X2050679D01*
Y1666378*
G54D214*
X2087776Y1546378D03*
X2081083D03*
X2087776Y1648878D03*
X2081083D03*
X2358583Y1601378D03*
X2365276D03*
G54D215*
X2254429Y1538031D03*
Y1544724D03*
X2221929Y1582224D03*
Y1575531D03*
G54D321*
X2322179Y1668878D03*
X2356679D03*
Y1473878D03*
X2322179D03*
X2197179Y1668878D03*
X2231679D03*
X2294179Y1473878D03*
X2259679D03*
Y1668878D03*
X2294179D03*
G54D323*
X2384429Y1643628D03*
Y1609128D03*
Y1533628D03*
Y1499128D03*
X2064429Y1609128D03*
Y1643628D03*
Y1499128D03*
Y1533628D03*
G54D326*
X2219429Y1606122D03*
Y1611634D03*
X2246929Y1544134D03*
Y1538622D03*
X2251929Y1598622D03*
Y1604134D03*
X2201929Y1511634D03*
Y1506122D03*
X2349429Y1601122D03*
Y1606634D03*
X2376929Y1558622D03*
Y1564134D03*
X2221929Y1566634D03*
Y1561122D03*
X2239429Y1544134D03*
Y1538622D03*
X2281929Y1604134D03*
Y1598622D03*
X2186929Y1509134D03*
Y1503622D03*
G54D327*
X2104173Y1553878D03*
X2109685D03*
X2227185Y1501378D03*
X2221673D03*
X2097185Y1553878D03*
X2091673D03*
X2106673Y1521378D03*
X2112185D03*
X2366673Y1586378D03*
X2372185D03*
X2337185Y1596378D03*
X2331673D03*
X2339685Y1563878D03*
X2334173D03*
X2352185Y1568878D03*
X2346673D03*
X2274685Y1606378D03*
X2269173D03*
X2279685Y1583878D03*
X2274173D03*
X2279685Y1556378D03*
X2274173D03*
Y1591378D03*
X2279685D03*
X2331673Y1573878D03*
X2337185D03*
X2362185Y1538878D03*
X2356673D03*
X2291673Y1573878D03*
X2297185D03*
X2226673Y1536378D03*
X2232185D03*
X2286673Y1563878D03*
X2292185D03*
X2269173Y1598878D03*
X2274685D03*
X2286673Y1583878D03*
X2292185D03*
X2274173Y1563878D03*
X2279685D03*
X2194685Y1588878D03*
X2189173D03*
G54D328*
X2195029Y1596378D03*
X2188829D03*
X2208829Y1498878D03*
X2215029D03*
X2185029Y1541378D03*
X2178829D03*
X2337529Y1581378D03*
X2331329D03*
X2367529Y1573878D03*
X2361329D03*
X2340029Y1548878D03*
X2333829D03*
X2380029D03*
X2373829D03*
X2331329Y1588878D03*
X2337529D03*
X2333829Y1556378D03*
X2340029D03*
X2200029Y1541378D03*
X2193829D03*
X2322529Y1591378D03*
X2316329D03*
X2322529Y1553878D03*
X2316329D03*
G54D329*
X2231929Y1613878D03*
X2226929D03*
X2251929D03*
X2246929D03*
X2284429Y1573878D03*
X2279429D03*
X2226929Y1543878D03*
X2231929D03*
G54D337*
X2236179Y1598328D03*
X2227679D03*
Y1604428D03*
X2236179D03*
G54D338*
X2364579Y1557717D03*
Y1555157D03*
Y1552598D03*
Y1550039D03*
X2349279D03*
Y1552598D03*
Y1555157D03*
Y1557717D03*
X2359579Y1590217D03*
Y1587657D03*
Y1585098D03*
Y1582539D03*
X2344279D03*
Y1585098D03*
Y1587657D03*
Y1590217D03*
X2185279Y1521539D03*
Y1524098D03*
Y1526657D03*
Y1529217D03*
X2200579D03*
Y1526657D03*
Y1524098D03*
Y1521539D03*
G54D339*
X2360768Y1546228D03*
X2358209D03*
X2355650D03*
X2353091D03*
Y1561528D03*
X2355650D03*
X2358209D03*
X2360768D03*
X2355768Y1578728D03*
X2353209D03*
X2350650D03*
X2348091D03*
Y1594028D03*
X2350650D03*
X2353209D03*
X2355768D03*
X2189091Y1533028D03*
X2191650D03*
X2194209D03*
X2196768D03*
Y1517728D03*
X2194209D03*
X2191650D03*
X2189091D03*
G54D340*
X2356929Y1553878D03*
X2351929Y1586378D03*
X2192929Y1525378D03*
G54D341*
X2103976Y1544378D03*
X2105945D03*
X2107913D03*
X2109882D03*
Y1533378D03*
X2107913D03*
X2105945D03*
X2103976D03*
G54D342*
X2106929Y1538878D03*
G54D343*
X2167989Y1672528D03*
Y1648228D03*
X2166019Y1672528D03*
Y1648228D03*
X2164049Y1672528D03*
Y1648228D03*
X2162079Y1672528D03*
Y1648228D03*
X2160109Y1672528D03*
Y1648228D03*
X2158139Y1672528D03*
Y1648228D03*
X2156169Y1672528D03*
Y1648228D03*
X2154199Y1672528D03*
Y1648228D03*
X2152229Y1672528D03*
Y1648228D03*
X2150259Y1672528D03*
Y1648228D03*
X2148289Y1672528D03*
Y1648228D03*
X2146319Y1672528D03*
Y1648228D03*
X2144349Y1672528D03*
Y1648228D03*
X2142379Y1672528D03*
Y1648228D03*
X2140409Y1672528D03*
Y1648228D03*
X2138439Y1672528D03*
Y1648228D03*
X2136469Y1672528D03*
Y1648228D03*
X2134499Y1672528D03*
Y1648228D03*
X2132529Y1672528D03*
Y1648228D03*
X2130559Y1672528D03*
Y1648228D03*
X2128589Y1672528D03*
Y1648228D03*
X2126619Y1672528D03*
Y1648228D03*
X2124649Y1672528D03*
Y1648228D03*
X2122679Y1672528D03*
Y1648228D03*
X2120709Y1672528D03*
Y1648228D03*
X2118739Y1672528D03*
Y1648228D03*
X2116769Y1672528D03*
Y1648228D03*
X2114799Y1672528D03*
Y1648228D03*
X2112829Y1672528D03*
Y1648228D03*
X2110859Y1672528D03*
Y1648228D03*
X2167989Y1494528D03*
Y1470228D03*
X2166019Y1494528D03*
Y1470228D03*
X2164049Y1494528D03*
Y1470228D03*
X2162079Y1494528D03*
Y1470228D03*
X2160109Y1494528D03*
Y1470228D03*
X2158139Y1494528D03*
Y1470228D03*
X2156169Y1494528D03*
Y1470228D03*
X2154199Y1494528D03*
Y1470228D03*
X2152229Y1494528D03*
Y1470228D03*
X2150259Y1494528D03*
Y1470228D03*
X2148289Y1494528D03*
Y1470228D03*
X2146319Y1494528D03*
Y1470228D03*
X2144349Y1494528D03*
Y1470228D03*
X2142379Y1494528D03*
Y1470228D03*
X2140409Y1494528D03*
Y1470228D03*
X2138439Y1494528D03*
Y1470228D03*
X2136469Y1494528D03*
Y1470228D03*
X2134499Y1494528D03*
Y1470228D03*
X2132529Y1494528D03*
Y1470228D03*
X2130559Y1494528D03*
Y1470228D03*
X2128589Y1494528D03*
Y1470228D03*
X2126619Y1494528D03*
Y1470228D03*
X2124649Y1494528D03*
Y1470228D03*
X2122679Y1494528D03*
Y1470228D03*
X2120709Y1494528D03*
Y1470228D03*
X2118739Y1494528D03*
Y1470228D03*
X2116769Y1494528D03*
Y1470228D03*
X2114799Y1494528D03*
Y1470228D03*
X2112829Y1494528D03*
Y1470228D03*
X2110859Y1494528D03*
Y1470228D03*
G54D344*
X2119429Y1535778D03*
Y1541978D03*
X2194429Y1503278D03*
Y1509478D03*
X2259429Y1601978D03*
Y1595778D03*
X2364429Y1643278D03*
Y1649478D03*
Y1499478D03*
Y1493278D03*
X2086929Y1486978D03*
Y1480778D03*
G54D345*
X2212679Y1518878D03*
X2231179D03*
X0Y0D02*
M02*
