G04 Layer_Color=8388736*
%FSLAX44Y44*%
%MOMM*%
G71*
G01*
G75*
%ADD30C,0.2000*%
G36*
X830857Y50950D02*
X828733D01*
Y57105D01*
X824942Y50950D01*
X822703D01*
Y59927D01*
X824827D01*
Y54782D01*
X828098Y59927D01*
X830857D01*
Y50950D01*
D02*
G37*
G36*
X846593Y60083D02*
X846947Y60041D01*
X847270Y59989D01*
X847415Y59958D01*
X847551Y59927D01*
X847676Y59896D01*
X847780Y59864D01*
X847874Y59833D01*
X847957Y59812D01*
X848030Y59791D01*
X848072Y59771D01*
X848103Y59760D01*
X848113D01*
X848426Y59625D01*
X848707Y59479D01*
X848946Y59333D01*
X849165Y59177D01*
X849248Y59115D01*
X849332Y59052D01*
X849394Y58990D01*
X849457Y58938D01*
X849498Y58896D01*
X849529Y58875D01*
X849550Y58854D01*
X849561Y58844D01*
X849769Y58604D01*
X849957Y58344D01*
X850123Y58094D01*
X850248Y57865D01*
X850311Y57750D01*
X850352Y57657D01*
X850394Y57563D01*
X850425Y57490D01*
X850456Y57428D01*
X850477Y57386D01*
X850488Y57355D01*
Y57344D01*
X850592Y57011D01*
X850665Y56678D01*
X850727Y56355D01*
X850758Y56053D01*
X850769Y55918D01*
X850779Y55803D01*
X850790Y55688D01*
Y55595D01*
X850800Y55522D01*
Y55470D01*
Y55428D01*
Y55418D01*
X850790Y55001D01*
X850748Y54616D01*
X850727Y54439D01*
X850696Y54272D01*
X850665Y54116D01*
X850633Y53980D01*
X850602Y53845D01*
X850571Y53731D01*
X850540Y53637D01*
X850519Y53554D01*
X850498Y53491D01*
X850477Y53439D01*
X850467Y53408D01*
Y53397D01*
X850331Y53085D01*
X850175Y52804D01*
X850019Y52554D01*
X849873Y52335D01*
X849800Y52241D01*
X849738Y52158D01*
X849675Y52096D01*
X849634Y52033D01*
X849592Y51991D01*
X849561Y51960D01*
X849540Y51939D01*
X849529Y51929D01*
X849290Y51721D01*
X849040Y51544D01*
X848801Y51398D01*
X848571Y51273D01*
X848374Y51179D01*
X848290Y51137D01*
X848217Y51106D01*
X848155Y51085D01*
X848113Y51065D01*
X848082Y51054D01*
X848072D01*
X847749Y50960D01*
X847426Y50887D01*
X847113Y50835D01*
X846832Y50804D01*
X846707Y50783D01*
X846593D01*
X846489Y50773D01*
X846395Y50763D01*
X845989D01*
X845780Y50773D01*
X845593Y50783D01*
X845447Y50804D01*
X845322Y50815D01*
X845239Y50825D01*
X845187Y50835D01*
X845166D01*
X844874Y50887D01*
X844729Y50919D01*
X844604Y50950D01*
X844500Y50971D01*
X844406Y50992D01*
X844354Y51013D01*
X844333D01*
X844093Y51096D01*
X843989Y51127D01*
X843885Y51169D01*
X843812Y51200D01*
X843750Y51221D01*
X843708Y51231D01*
X843698Y51242D01*
X843458Y51346D01*
X843354Y51398D01*
X843250Y51439D01*
X843167Y51481D01*
X843104Y51502D01*
X843052Y51523D01*
X843042Y51533D01*
Y53678D01*
X843292D01*
X843427Y53564D01*
X843562Y53449D01*
X843614Y53408D01*
X843667Y53366D01*
X843698Y53345D01*
X843708Y53335D01*
X843896Y53189D01*
X843989Y53127D01*
X844073Y53074D01*
X844146Y53022D01*
X844198Y52991D01*
X844239Y52970D01*
X844250Y52960D01*
X844520Y52825D01*
X844645Y52762D01*
X844770Y52720D01*
X844874Y52679D01*
X844947Y52648D01*
X844999Y52637D01*
X845020Y52627D01*
X845176Y52585D01*
X845322Y52554D01*
X845458Y52533D01*
X845593Y52523D01*
X845697Y52512D01*
X845780Y52502D01*
X845853D01*
X846020Y52512D01*
X846176Y52523D01*
X846332Y52543D01*
X846468Y52575D01*
X846582Y52595D01*
X846666Y52616D01*
X846728Y52627D01*
X846739Y52637D01*
X846749D01*
X846916Y52700D01*
X847061Y52772D01*
X847207Y52845D01*
X847322Y52929D01*
X847426Y52991D01*
X847499Y53054D01*
X847541Y53095D01*
X847561Y53106D01*
X847697Y53241D01*
X847811Y53387D01*
X847915Y53533D01*
X847999Y53678D01*
X848072Y53803D01*
X848124Y53908D01*
X848145Y53949D01*
X848155Y53980D01*
X848165Y53991D01*
Y54001D01*
X848238Y54220D01*
X848301Y54460D01*
X848342Y54689D01*
X848363Y54918D01*
X848384Y55116D01*
Y55199D01*
X848394Y55272D01*
Y55324D01*
Y55366D01*
Y55397D01*
Y55407D01*
X848384Y55699D01*
X848363Y55959D01*
X848322Y56188D01*
X848280Y56386D01*
X848249Y56553D01*
X848228Y56615D01*
X848207Y56667D01*
X848197Y56719D01*
X848186Y56751D01*
X848176Y56761D01*
Y56771D01*
X848092Y56980D01*
X847999Y57157D01*
X847895Y57313D01*
X847811Y57448D01*
X847728Y57552D01*
X847665Y57625D01*
X847613Y57677D01*
X847603Y57688D01*
X847457Y57813D01*
X847322Y57917D01*
X847176Y58000D01*
X847051Y58073D01*
X846947Y58125D01*
X846864Y58167D01*
X846812Y58188D01*
X846791Y58198D01*
X846624Y58250D01*
X846457Y58292D01*
X846301Y58313D01*
X846166Y58334D01*
X846041Y58344D01*
X845947Y58354D01*
X845864D01*
X845708Y58344D01*
X845551Y58334D01*
X845416Y58313D01*
X845291Y58292D01*
X845187Y58261D01*
X845104Y58240D01*
X845062Y58229D01*
X845041Y58219D01*
X844895Y58167D01*
X844760Y58115D01*
X844635Y58063D01*
X844531Y58011D01*
X844447Y57959D01*
X844375Y57927D01*
X844333Y57907D01*
X844323Y57896D01*
X844198Y57823D01*
X844093Y57750D01*
X843989Y57688D01*
X843906Y57625D01*
X843833Y57573D01*
X843781Y57532D01*
X843750Y57511D01*
X843739Y57500D01*
X843646Y57428D01*
X843562Y57365D01*
X843489Y57313D01*
X843427Y57261D01*
X843375Y57219D01*
X843344Y57188D01*
X843323Y57178D01*
X843312Y57167D01*
X843042D01*
Y59344D01*
X843240Y59427D01*
X843333Y59469D01*
X843427Y59510D01*
X843510Y59542D01*
X843573Y59573D01*
X843614Y59583D01*
X843625Y59594D01*
X843875Y59698D01*
X844000Y59739D01*
X844114Y59781D01*
X844208Y59812D01*
X844281Y59833D01*
X844333Y59854D01*
X844354D01*
X844645Y59927D01*
X844791Y59948D01*
X844916Y59979D01*
X845031Y60000D01*
X845124Y60010D01*
X845176Y60021D01*
X845197D01*
X845551Y60062D01*
X845718Y60073D01*
X845874Y60083D01*
X846020Y60093D01*
X846218D01*
X846593Y60083D01*
D02*
G37*
G36*
X405847Y60104D02*
X406222Y60062D01*
X406566Y60000D01*
X406899Y59917D01*
X407201Y59823D01*
X407482Y59719D01*
X407732Y59604D01*
X407961Y59489D01*
X408170Y59365D01*
X408346Y59250D01*
X408492Y59146D01*
X408617Y59052D01*
X408721Y58969D01*
X408784Y58906D01*
X408836Y58865D01*
X408846Y58854D01*
X409065Y58604D01*
X409253Y58344D01*
X409409Y58073D01*
X409555Y57792D01*
X409669Y57500D01*
X409763Y57219D01*
X409846Y56938D01*
X409909Y56667D01*
X409961Y56417D01*
X410002Y56178D01*
X410023Y55970D01*
X410044Y55782D01*
X410054Y55636D01*
X410065Y55574D01*
Y55522D01*
Y55480D01*
Y55449D01*
Y55438D01*
Y55428D01*
X410054Y55032D01*
X410013Y54668D01*
X409950Y54314D01*
X409877Y53991D01*
X409784Y53689D01*
X409679Y53408D01*
X409565Y53147D01*
X409450Y52918D01*
X409346Y52710D01*
X409232Y52533D01*
X409128Y52377D01*
X409034Y52252D01*
X408961Y52158D01*
X408899Y52085D01*
X408857Y52033D01*
X408846Y52023D01*
X408607Y51804D01*
X408346Y51606D01*
X408076Y51439D01*
X407795Y51294D01*
X407513Y51169D01*
X407232Y51075D01*
X406951Y50992D01*
X406691Y50919D01*
X406430Y50867D01*
X406201Y50825D01*
X405993Y50804D01*
X405806Y50783D01*
X405660Y50773D01*
X405597Y50763D01*
X405451D01*
X405056Y50773D01*
X404681Y50815D01*
X404337Y50877D01*
X404004Y50960D01*
X403702Y51054D01*
X403421Y51158D01*
X403171Y51273D01*
X402942Y51398D01*
X402733Y51512D01*
X402556Y51627D01*
X402411Y51731D01*
X402286Y51825D01*
X402181Y51908D01*
X402108Y51971D01*
X402067Y52012D01*
X402057Y52023D01*
X401838Y52273D01*
X401650Y52533D01*
X401484Y52804D01*
X401348Y53085D01*
X401223Y53366D01*
X401130Y53658D01*
X401046Y53928D01*
X400984Y54199D01*
X400932Y54449D01*
X400890Y54678D01*
X400869Y54897D01*
X400848Y55074D01*
X400838Y55220D01*
X400828Y55334D01*
Y55376D01*
Y55407D01*
Y55418D01*
Y55428D01*
X400838Y55824D01*
X400880Y56199D01*
X400942Y56553D01*
X401026Y56876D01*
X401119Y57188D01*
X401223Y57469D01*
X401328Y57719D01*
X401442Y57959D01*
X401567Y58156D01*
X401671Y58344D01*
X401775Y58500D01*
X401869Y58625D01*
X401952Y58719D01*
X402015Y58792D01*
X402057Y58844D01*
X402067Y58854D01*
X402306Y59073D01*
X402567Y59271D01*
X402837Y59437D01*
X403119Y59583D01*
X403400Y59708D01*
X403681Y59802D01*
X403952Y59885D01*
X404223Y59958D01*
X404473Y60010D01*
X404702Y60052D01*
X404910Y60073D01*
X405097Y60093D01*
X405243Y60104D01*
X405358Y60114D01*
X405451D01*
X405847Y60104D01*
D02*
G37*
G36*
X817725D02*
X818038Y60083D01*
X818329Y60052D01*
X818589Y60021D01*
X818704Y60000D01*
X818808Y59989D01*
X818892Y59969D01*
X818975Y59958D01*
X819037Y59948D01*
X819079Y59937D01*
X819110Y59927D01*
X819121D01*
X819423Y59854D01*
X819683Y59791D01*
X819912Y59719D01*
X820100Y59667D01*
X820256Y59615D01*
X820318Y59594D01*
X820360Y59573D01*
X820402Y59562D01*
X820433Y59552D01*
X820443Y59542D01*
X820454D01*
Y57605D01*
X820235D01*
X820006Y57730D01*
X819777Y57844D01*
X819558Y57927D01*
X819360Y58011D01*
X819194Y58073D01*
X819131Y58094D01*
X819069Y58115D01*
X819016Y58125D01*
X818985Y58136D01*
X818964Y58146D01*
X818954D01*
X818715Y58209D01*
X818485Y58261D01*
X818277Y58292D01*
X818090Y58323D01*
X817934Y58334D01*
X817871D01*
X817819Y58344D01*
X817725D01*
X817548Y58334D01*
X817454D01*
X817371Y58323D01*
X817298Y58313D01*
X817236D01*
X817194Y58302D01*
X817184D01*
X817069Y58292D01*
X816955Y58271D01*
X816861Y58240D01*
X816777Y58219D01*
X816715Y58198D01*
X816663Y58177D01*
X816632Y58167D01*
X816621Y58156D01*
X816476Y58073D01*
X816371Y57990D01*
X816330Y57959D01*
X816299Y57927D01*
X816288Y57907D01*
X816278Y57896D01*
X816226Y57834D01*
X816194Y57761D01*
X816153Y57625D01*
X816142Y57563D01*
X816132Y57511D01*
Y57480D01*
Y57469D01*
X816142Y57344D01*
X816153Y57230D01*
X816173Y57136D01*
X816194Y57053D01*
X816226Y56990D01*
X816246Y56948D01*
X816257Y56917D01*
X816267Y56907D01*
X816319Y56844D01*
X816382Y56782D01*
X816517Y56688D01*
X816569Y56657D01*
X816621Y56636D01*
X816653Y56615D01*
X816663D01*
X816871Y56542D01*
X816975Y56522D01*
X817069Y56501D01*
X817163Y56490D01*
X817225Y56480D01*
X817267Y56469D01*
X817288D01*
X817423Y56459D01*
X817704D01*
X817829Y56449D01*
X818621D01*
Y54845D01*
X817621D01*
X817517Y54834D01*
X817371D01*
X817225Y54824D01*
X817079Y54814D01*
X816965Y54793D01*
X816850Y54782D01*
X816767Y54762D01*
X816705Y54741D01*
X816663Y54730D01*
X816653D01*
X816548Y54689D01*
X816455Y54647D01*
X816371Y54595D01*
X816309Y54543D01*
X816257Y54491D01*
X816215Y54449D01*
X816194Y54428D01*
X816184Y54418D01*
X816121Y54335D01*
X816080Y54241D01*
X816038Y54137D01*
X816017Y54043D01*
X816007Y53949D01*
X815996Y53876D01*
Y53835D01*
Y53814D01*
X816007Y53668D01*
X816017Y53543D01*
X816038Y53439D01*
X816059Y53345D01*
X816090Y53283D01*
X816111Y53231D01*
X816121Y53199D01*
X816132Y53189D01*
X816246Y53043D01*
X816361Y52939D01*
X816413Y52897D01*
X816444Y52866D01*
X816476Y52845D01*
X816486Y52835D01*
X816600Y52772D01*
X816715Y52710D01*
X816830Y52668D01*
X816944Y52637D01*
X817038Y52616D01*
X817111Y52595D01*
X817163Y52585D01*
X817184D01*
X817329Y52564D01*
X817475Y52554D01*
X817600Y52543D01*
X817715D01*
X817798Y52533D01*
X817934D01*
X818163Y52543D01*
X818392Y52564D01*
X818610Y52606D01*
X818808Y52648D01*
X818985Y52679D01*
X819058Y52700D01*
X819121Y52720D01*
X819173Y52731D01*
X819214Y52741D01*
X819235Y52752D01*
X819246D01*
X819506Y52845D01*
X819745Y52939D01*
X819954Y53022D01*
X820131Y53116D01*
X820287Y53189D01*
X820391Y53252D01*
X820433Y53272D01*
X820464Y53293D01*
X820474Y53304D01*
X820714D01*
Y51325D01*
X820516Y51242D01*
X820308Y51169D01*
X820089Y51106D01*
X819881Y51054D01*
X819704Y51002D01*
X819621Y50981D01*
X819558Y50971D01*
X819496Y50960D01*
X819454Y50950D01*
X819433Y50940D01*
X819423D01*
X819110Y50877D01*
X818787Y50835D01*
X818465Y50804D01*
X818163Y50783D01*
X818027Y50773D01*
X817788D01*
X817694Y50763D01*
X817506D01*
X817152Y50773D01*
X816840Y50794D01*
X816559Y50825D01*
X816434Y50846D01*
X816319Y50867D01*
X816215Y50877D01*
X816121Y50898D01*
X816049Y50919D01*
X815986Y50929D01*
X815934Y50940D01*
X815892Y50950D01*
X815872Y50960D01*
X815861D01*
X815611Y51044D01*
X815382Y51137D01*
X815184Y51231D01*
X815007Y51325D01*
X814861Y51408D01*
X814757Y51481D01*
X814715Y51502D01*
X814684Y51523D01*
X814674Y51544D01*
X814663D01*
X814476Y51700D01*
X814320Y51856D01*
X814195Y52012D01*
X814080Y52158D01*
X813997Y52283D01*
X813934Y52387D01*
X813924Y52429D01*
X813903Y52460D01*
X813893Y52470D01*
Y52481D01*
X813810Y52689D01*
X813747Y52897D01*
X813705Y53095D01*
X813674Y53283D01*
X813653Y53439D01*
Y53501D01*
X813643Y53564D01*
Y53606D01*
Y53637D01*
Y53658D01*
Y53668D01*
X813653Y53866D01*
X813674Y54043D01*
X813695Y54189D01*
X813726Y54314D01*
X813768Y54418D01*
X813789Y54491D01*
X813810Y54543D01*
X813820Y54553D01*
X813893Y54678D01*
X813966Y54793D01*
X814049Y54897D01*
X814122Y54980D01*
X814184Y55053D01*
X814237Y55116D01*
X814278Y55147D01*
X814289Y55157D01*
X814393Y55241D01*
X814507Y55314D01*
X814611Y55376D01*
X814705Y55428D01*
X814788Y55470D01*
X814851Y55501D01*
X814893Y55511D01*
X814913Y55522D01*
X815163Y55605D01*
X815267Y55626D01*
X815372Y55657D01*
X815455Y55668D01*
X815517Y55678D01*
X815559Y55688D01*
X815570D01*
Y55772D01*
X815299Y55855D01*
X815059Y55959D01*
X814851Y56084D01*
X814674Y56209D01*
X814538Y56324D01*
X814434Y56428D01*
X814403Y56469D01*
X814372Y56501D01*
X814351Y56511D01*
Y56522D01*
X814268Y56636D01*
X814195Y56751D01*
X814080Y56980D01*
X813997Y57209D01*
X813945Y57417D01*
X813903Y57594D01*
X813893Y57677D01*
Y57740D01*
X813882Y57792D01*
Y57834D01*
Y57854D01*
Y57865D01*
X813893Y58073D01*
X813924Y58261D01*
X813966Y58427D01*
X814007Y58563D01*
X814049Y58688D01*
X814091Y58771D01*
X814122Y58823D01*
X814132Y58844D01*
X814237Y59000D01*
X814351Y59135D01*
X814466Y59260D01*
X814591Y59365D01*
X814695Y59448D01*
X814778Y59510D01*
X814840Y59552D01*
X814851Y59562D01*
X814861D01*
X815028Y59656D01*
X815205Y59729D01*
X815382Y59802D01*
X815538Y59854D01*
X815695Y59896D01*
X815809Y59927D01*
X815851Y59948D01*
X815882D01*
X815903Y59958D01*
X815913D01*
X816163Y60010D01*
X816413Y60052D01*
X816663Y60073D01*
X816892Y60093D01*
X817007Y60104D01*
X817100D01*
X817184Y60114D01*
X817402D01*
X817725Y60104D01*
D02*
G37*
G36*
X837647D02*
X838022Y60062D01*
X838366Y60000D01*
X838699Y59917D01*
X839001Y59823D01*
X839282Y59719D01*
X839532Y59604D01*
X839761Y59489D01*
X839969Y59365D01*
X840146Y59250D01*
X840292Y59146D01*
X840417Y59052D01*
X840521Y58969D01*
X840584Y58906D01*
X840636Y58865D01*
X840646Y58854D01*
X840865Y58604D01*
X841052Y58344D01*
X841209Y58073D01*
X841355Y57792D01*
X841469Y57500D01*
X841563Y57219D01*
X841646Y56938D01*
X841709Y56667D01*
X841761Y56417D01*
X841802Y56178D01*
X841823Y55970D01*
X841844Y55782D01*
X841854Y55636D01*
X841865Y55574D01*
Y55522D01*
Y55480D01*
Y55449D01*
Y55438D01*
Y55428D01*
X841854Y55032D01*
X841813Y54668D01*
X841750Y54314D01*
X841677Y53991D01*
X841584Y53689D01*
X841479Y53408D01*
X841365Y53147D01*
X841250Y52918D01*
X841146Y52710D01*
X841032Y52533D01*
X840928Y52377D01*
X840834Y52252D01*
X840761Y52158D01*
X840698Y52085D01*
X840657Y52033D01*
X840646Y52023D01*
X840407Y51804D01*
X840146Y51606D01*
X839876Y51439D01*
X839595Y51294D01*
X839313Y51169D01*
X839032Y51075D01*
X838751Y50992D01*
X838491Y50919D01*
X838230Y50867D01*
X838001Y50825D01*
X837793Y50804D01*
X837606Y50783D01*
X837460Y50773D01*
X837397Y50763D01*
X837251D01*
X836856Y50773D01*
X836481Y50815D01*
X836137Y50877D01*
X835804Y50960D01*
X835502Y51054D01*
X835221Y51158D01*
X834971Y51273D01*
X834742Y51398D01*
X834533Y51512D01*
X834356Y51627D01*
X834211Y51731D01*
X834086Y51825D01*
X833981Y51908D01*
X833908Y51971D01*
X833867Y52012D01*
X833857Y52023D01*
X833638Y52273D01*
X833450Y52533D01*
X833284Y52804D01*
X833148Y53085D01*
X833023Y53366D01*
X832930Y53658D01*
X832846Y53928D01*
X832784Y54199D01*
X832732Y54449D01*
X832690Y54678D01*
X832669Y54897D01*
X832648Y55074D01*
X832638Y55220D01*
X832628Y55334D01*
Y55376D01*
Y55407D01*
Y55418D01*
Y55428D01*
X832638Y55824D01*
X832680Y56199D01*
X832742Y56553D01*
X832825Y56876D01*
X832919Y57188D01*
X833023Y57469D01*
X833128Y57719D01*
X833242Y57959D01*
X833367Y58156D01*
X833471Y58344D01*
X833575Y58500D01*
X833669Y58625D01*
X833752Y58719D01*
X833815Y58792D01*
X833857Y58844D01*
X833867Y58854D01*
X834106Y59073D01*
X834367Y59271D01*
X834638Y59437D01*
X834919Y59583D01*
X835200Y59708D01*
X835481Y59802D01*
X835752Y59885D01*
X836023Y59958D01*
X836273Y60010D01*
X836502Y60052D01*
X836710Y60073D01*
X836897Y60093D01*
X837043Y60104D01*
X837158Y60114D01*
X837251D01*
X837647Y60104D01*
D02*
G37*
G36*
X821047Y506810D02*
Y505122D01*
X816705D01*
Y503029D01*
X814497D01*
Y505122D01*
X813278D01*
Y506757D01*
X814497D01*
Y512027D01*
X816850D01*
X821047Y506810D01*
D02*
G37*
G36*
X837647Y512204D02*
X838022Y512162D01*
X838366Y512100D01*
X838699Y512016D01*
X839001Y511923D01*
X839282Y511819D01*
X839532Y511704D01*
X839761Y511590D01*
X839969Y511465D01*
X840146Y511350D01*
X840292Y511246D01*
X840417Y511152D01*
X840521Y511069D01*
X840584Y511006D01*
X840636Y510965D01*
X840646Y510954D01*
X840865Y510704D01*
X841052Y510444D01*
X841209Y510173D01*
X841355Y509892D01*
X841469Y509600D01*
X841563Y509319D01*
X841646Y509038D01*
X841709Y508767D01*
X841761Y508517D01*
X841802Y508278D01*
X841823Y508069D01*
X841844Y507882D01*
X841854Y507736D01*
X841865Y507674D01*
Y507622D01*
Y507580D01*
Y507549D01*
Y507538D01*
Y507528D01*
X841854Y507132D01*
X841813Y506768D01*
X841750Y506414D01*
X841677Y506091D01*
X841584Y505789D01*
X841479Y505508D01*
X841365Y505247D01*
X841250Y505018D01*
X841146Y504810D01*
X841032Y504633D01*
X840928Y504477D01*
X840834Y504352D01*
X840761Y504258D01*
X840698Y504185D01*
X840657Y504133D01*
X840646Y504123D01*
X840407Y503904D01*
X840146Y503706D01*
X839876Y503540D01*
X839595Y503394D01*
X839313Y503269D01*
X839032Y503175D01*
X838751Y503092D01*
X838491Y503019D01*
X838230Y502967D01*
X838001Y502925D01*
X837793Y502904D01*
X837606Y502883D01*
X837460Y502873D01*
X837397Y502863D01*
X837251D01*
X836856Y502873D01*
X836481Y502915D01*
X836137Y502977D01*
X835804Y503060D01*
X835502Y503154D01*
X835221Y503258D01*
X834971Y503373D01*
X834742Y503498D01*
X834533Y503612D01*
X834356Y503727D01*
X834211Y503831D01*
X834086Y503925D01*
X833981Y504008D01*
X833908Y504071D01*
X833867Y504112D01*
X833857Y504123D01*
X833638Y504373D01*
X833450Y504633D01*
X833284Y504904D01*
X833148Y505185D01*
X833023Y505466D01*
X832930Y505758D01*
X832846Y506028D01*
X832784Y506299D01*
X832732Y506549D01*
X832690Y506778D01*
X832669Y506997D01*
X832648Y507174D01*
X832638Y507320D01*
X832628Y507434D01*
Y507476D01*
Y507507D01*
Y507518D01*
Y507528D01*
X832638Y507924D01*
X832680Y508299D01*
X832742Y508653D01*
X832825Y508976D01*
X832919Y509288D01*
X833023Y509569D01*
X833128Y509819D01*
X833242Y510059D01*
X833367Y510257D01*
X833471Y510444D01*
X833575Y510600D01*
X833669Y510725D01*
X833752Y510819D01*
X833815Y510892D01*
X833857Y510944D01*
X833867Y510954D01*
X834106Y511173D01*
X834367Y511371D01*
X834638Y511537D01*
X834919Y511683D01*
X835200Y511808D01*
X835481Y511902D01*
X835752Y511985D01*
X836023Y512058D01*
X836273Y512110D01*
X836502Y512152D01*
X836710Y512173D01*
X836897Y512193D01*
X837043Y512204D01*
X837158Y512214D01*
X837251D01*
X837647Y512204D01*
D02*
G37*
G36*
X830857Y503050D02*
X828733D01*
Y509205D01*
X824942Y503050D01*
X822703D01*
Y512027D01*
X824827D01*
Y506882D01*
X828098Y512027D01*
X830857D01*
Y503050D01*
D02*
G37*
G36*
X846593Y512183D02*
X846947Y512141D01*
X847270Y512089D01*
X847415Y512058D01*
X847551Y512027D01*
X847676Y511996D01*
X847780Y511964D01*
X847874Y511933D01*
X847957Y511912D01*
X848030Y511892D01*
X848072Y511871D01*
X848103Y511860D01*
X848113D01*
X848426Y511725D01*
X848707Y511579D01*
X848946Y511433D01*
X849165Y511277D01*
X849248Y511215D01*
X849332Y511152D01*
X849394Y511090D01*
X849457Y511037D01*
X849498Y510996D01*
X849529Y510975D01*
X849550Y510954D01*
X849561Y510944D01*
X849769Y510704D01*
X849957Y510444D01*
X850123Y510194D01*
X850248Y509965D01*
X850311Y509850D01*
X850352Y509757D01*
X850394Y509663D01*
X850425Y509590D01*
X850456Y509528D01*
X850477Y509486D01*
X850488Y509455D01*
Y509444D01*
X850592Y509111D01*
X850665Y508778D01*
X850727Y508455D01*
X850758Y508153D01*
X850769Y508018D01*
X850779Y507903D01*
X850790Y507788D01*
Y507695D01*
X850800Y507622D01*
Y507570D01*
Y507528D01*
Y507518D01*
X850790Y507101D01*
X850748Y506716D01*
X850727Y506539D01*
X850696Y506372D01*
X850665Y506216D01*
X850633Y506081D01*
X850602Y505945D01*
X850571Y505830D01*
X850540Y505737D01*
X850519Y505653D01*
X850498Y505591D01*
X850477Y505539D01*
X850467Y505508D01*
Y505497D01*
X850331Y505185D01*
X850175Y504904D01*
X850019Y504654D01*
X849873Y504435D01*
X849800Y504341D01*
X849738Y504258D01*
X849675Y504196D01*
X849634Y504133D01*
X849592Y504091D01*
X849561Y504060D01*
X849540Y504039D01*
X849529Y504029D01*
X849290Y503821D01*
X849040Y503644D01*
X848801Y503498D01*
X848571Y503373D01*
X848374Y503279D01*
X848290Y503237D01*
X848217Y503206D01*
X848155Y503185D01*
X848113Y503165D01*
X848082Y503154D01*
X848072D01*
X847749Y503060D01*
X847426Y502988D01*
X847113Y502935D01*
X846832Y502904D01*
X846707Y502883D01*
X846593D01*
X846489Y502873D01*
X846395Y502863D01*
X845989D01*
X845780Y502873D01*
X845593Y502883D01*
X845447Y502904D01*
X845322Y502915D01*
X845239Y502925D01*
X845187Y502935D01*
X845166D01*
X844874Y502988D01*
X844729Y503019D01*
X844604Y503050D01*
X844500Y503071D01*
X844406Y503092D01*
X844354Y503112D01*
X844333D01*
X844093Y503196D01*
X843989Y503227D01*
X843885Y503269D01*
X843812Y503300D01*
X843750Y503321D01*
X843708Y503331D01*
X843698Y503342D01*
X843458Y503446D01*
X843354Y503498D01*
X843250Y503540D01*
X843167Y503581D01*
X843104Y503602D01*
X843052Y503623D01*
X843042Y503633D01*
Y505779D01*
X843292D01*
X843427Y505664D01*
X843562Y505549D01*
X843614Y505508D01*
X843667Y505466D01*
X843698Y505445D01*
X843708Y505435D01*
X843896Y505289D01*
X843989Y505227D01*
X844073Y505174D01*
X844146Y505122D01*
X844198Y505091D01*
X844239Y505070D01*
X844250Y505060D01*
X844520Y504925D01*
X844645Y504862D01*
X844770Y504820D01*
X844874Y504779D01*
X844947Y504748D01*
X844999Y504737D01*
X845020Y504727D01*
X845176Y504685D01*
X845322Y504654D01*
X845458Y504633D01*
X845593Y504622D01*
X845697Y504612D01*
X845780Y504602D01*
X845853D01*
X846020Y504612D01*
X846176Y504622D01*
X846332Y504643D01*
X846468Y504675D01*
X846582Y504695D01*
X846666Y504716D01*
X846728Y504727D01*
X846739Y504737D01*
X846749D01*
X846916Y504799D01*
X847061Y504872D01*
X847207Y504945D01*
X847322Y505029D01*
X847426Y505091D01*
X847499Y505154D01*
X847541Y505195D01*
X847561Y505206D01*
X847697Y505341D01*
X847811Y505487D01*
X847915Y505633D01*
X847999Y505779D01*
X848072Y505903D01*
X848124Y506008D01*
X848145Y506049D01*
X848155Y506081D01*
X848165Y506091D01*
Y506101D01*
X848238Y506320D01*
X848301Y506559D01*
X848342Y506789D01*
X848363Y507018D01*
X848384Y507216D01*
Y507299D01*
X848394Y507372D01*
Y507424D01*
Y507466D01*
Y507497D01*
Y507507D01*
X848384Y507799D01*
X848363Y508059D01*
X848322Y508288D01*
X848280Y508486D01*
X848249Y508653D01*
X848228Y508715D01*
X848207Y508767D01*
X848197Y508819D01*
X848186Y508851D01*
X848176Y508861D01*
Y508871D01*
X848092Y509080D01*
X847999Y509257D01*
X847895Y509413D01*
X847811Y509548D01*
X847728Y509652D01*
X847665Y509725D01*
X847613Y509777D01*
X847603Y509788D01*
X847457Y509913D01*
X847322Y510017D01*
X847176Y510100D01*
X847051Y510173D01*
X846947Y510225D01*
X846864Y510267D01*
X846812Y510288D01*
X846791Y510298D01*
X846624Y510350D01*
X846457Y510392D01*
X846301Y510413D01*
X846166Y510434D01*
X846041Y510444D01*
X845947Y510454D01*
X845864D01*
X845708Y510444D01*
X845551Y510434D01*
X845416Y510413D01*
X845291Y510392D01*
X845187Y510361D01*
X845104Y510340D01*
X845062Y510329D01*
X845041Y510319D01*
X844895Y510267D01*
X844760Y510215D01*
X844635Y510163D01*
X844531Y510111D01*
X844447Y510059D01*
X844375Y510027D01*
X844333Y510006D01*
X844323Y509996D01*
X844198Y509923D01*
X844093Y509850D01*
X843989Y509788D01*
X843906Y509725D01*
X843833Y509673D01*
X843781Y509632D01*
X843750Y509611D01*
X843739Y509600D01*
X843646Y509528D01*
X843562Y509465D01*
X843489Y509413D01*
X843427Y509361D01*
X843375Y509319D01*
X843344Y509288D01*
X843323Y509278D01*
X843312Y509267D01*
X843042D01*
Y511444D01*
X843240Y511527D01*
X843333Y511569D01*
X843427Y511610D01*
X843510Y511642D01*
X843573Y511673D01*
X843614Y511683D01*
X843625Y511694D01*
X843875Y511798D01*
X844000Y511839D01*
X844114Y511881D01*
X844208Y511912D01*
X844281Y511933D01*
X844333Y511954D01*
X844354D01*
X844645Y512027D01*
X844791Y512048D01*
X844916Y512079D01*
X845031Y512100D01*
X845124Y512110D01*
X845176Y512121D01*
X845197D01*
X845551Y512162D01*
X845718Y512173D01*
X845874Y512183D01*
X846020Y512193D01*
X846218D01*
X846593Y512183D01*
D02*
G37*
G36*
X386019Y511912D02*
X386050Y511798D01*
X386081Y511694D01*
X386113Y511610D01*
X386144Y511537D01*
X386165Y511485D01*
X386185Y511454D01*
X386196Y511444D01*
X386258Y511360D01*
X386331Y511277D01*
X386415Y511215D01*
X386488Y511152D01*
X386560Y511110D01*
X386613Y511079D01*
X386654Y511058D01*
X386665Y511048D01*
X386769Y511006D01*
X386883Y510965D01*
X386987Y510933D01*
X387092Y510913D01*
X387185Y510892D01*
X387258Y510881D01*
X387310Y510871D01*
X387331D01*
X387623Y510850D01*
X387769Y510840D01*
X387893D01*
X387998Y510829D01*
X388154D01*
Y509361D01*
X386258D01*
Y504612D01*
X388154D01*
Y503050D01*
X382155D01*
Y504612D01*
X384009D01*
Y512048D01*
X386008D01*
X386019Y511912D01*
D02*
G37*
G36*
X405847Y512204D02*
X406222Y512162D01*
X406566Y512100D01*
X406899Y512016D01*
X407201Y511923D01*
X407482Y511819D01*
X407732Y511704D01*
X407961Y511590D01*
X408170Y511465D01*
X408346Y511350D01*
X408492Y511246D01*
X408617Y511152D01*
X408721Y511069D01*
X408784Y511006D01*
X408836Y510965D01*
X408846Y510954D01*
X409065Y510704D01*
X409253Y510444D01*
X409409Y510173D01*
X409555Y509892D01*
X409669Y509600D01*
X409763Y509319D01*
X409846Y509038D01*
X409909Y508767D01*
X409961Y508517D01*
X410002Y508278D01*
X410023Y508069D01*
X410044Y507882D01*
X410054Y507736D01*
X410065Y507674D01*
Y507622D01*
Y507580D01*
Y507549D01*
Y507538D01*
Y507528D01*
X410054Y507132D01*
X410013Y506768D01*
X409950Y506414D01*
X409877Y506091D01*
X409784Y505789D01*
X409679Y505508D01*
X409565Y505247D01*
X409450Y505018D01*
X409346Y504810D01*
X409232Y504633D01*
X409128Y504477D01*
X409034Y504352D01*
X408961Y504258D01*
X408899Y504185D01*
X408857Y504133D01*
X408846Y504123D01*
X408607Y503904D01*
X408346Y503706D01*
X408076Y503540D01*
X407795Y503394D01*
X407513Y503269D01*
X407232Y503175D01*
X406951Y503092D01*
X406691Y503019D01*
X406430Y502967D01*
X406201Y502925D01*
X405993Y502904D01*
X405806Y502883D01*
X405660Y502873D01*
X405597Y502863D01*
X405451D01*
X405056Y502873D01*
X404681Y502915D01*
X404337Y502977D01*
X404004Y503060D01*
X403702Y503154D01*
X403421Y503258D01*
X403171Y503373D01*
X402942Y503498D01*
X402733Y503612D01*
X402556Y503727D01*
X402411Y503831D01*
X402286Y503925D01*
X402181Y504008D01*
X402108Y504071D01*
X402067Y504112D01*
X402057Y504123D01*
X401838Y504373D01*
X401650Y504633D01*
X401484Y504904D01*
X401348Y505185D01*
X401223Y505466D01*
X401130Y505758D01*
X401046Y506028D01*
X400984Y506299D01*
X400932Y506549D01*
X400890Y506778D01*
X400869Y506997D01*
X400848Y507174D01*
X400838Y507320D01*
X400828Y507434D01*
Y507476D01*
Y507507D01*
Y507518D01*
Y507528D01*
X400838Y507924D01*
X400880Y508299D01*
X400942Y508653D01*
X401026Y508976D01*
X401119Y509288D01*
X401223Y509569D01*
X401328Y509819D01*
X401442Y510059D01*
X401567Y510257D01*
X401671Y510444D01*
X401775Y510600D01*
X401869Y510725D01*
X401952Y510819D01*
X402015Y510892D01*
X402057Y510944D01*
X402067Y510954D01*
X402306Y511173D01*
X402567Y511371D01*
X402837Y511537D01*
X403119Y511683D01*
X403400Y511808D01*
X403681Y511902D01*
X403952Y511985D01*
X404223Y512058D01*
X404473Y512110D01*
X404702Y512152D01*
X404910Y512173D01*
X405097Y512193D01*
X405243Y512204D01*
X405358Y512214D01*
X405451D01*
X405847Y512204D01*
D02*
G37*
G36*
X399057Y503050D02*
X396933D01*
Y509205D01*
X393142Y503050D01*
X390903D01*
Y512027D01*
X393027D01*
Y506882D01*
X396297Y512027D01*
X399057D01*
Y503050D01*
D02*
G37*
G36*
X414793Y512183D02*
X415147Y512141D01*
X415470Y512089D01*
X415616Y512058D01*
X415751Y512027D01*
X415876Y511996D01*
X415980Y511964D01*
X416074Y511933D01*
X416157Y511912D01*
X416230Y511892D01*
X416272Y511871D01*
X416303Y511860D01*
X416313D01*
X416626Y511725D01*
X416907Y511579D01*
X417146Y511433D01*
X417365Y511277D01*
X417448Y511215D01*
X417532Y511152D01*
X417594Y511090D01*
X417657Y511037D01*
X417698Y510996D01*
X417729Y510975D01*
X417750Y510954D01*
X417761Y510944D01*
X417969Y510704D01*
X418157Y510444D01*
X418323Y510194D01*
X418448Y509965D01*
X418511Y509850D01*
X418552Y509757D01*
X418594Y509663D01*
X418625Y509590D01*
X418656Y509528D01*
X418677Y509486D01*
X418688Y509455D01*
Y509444D01*
X418792Y509111D01*
X418865Y508778D01*
X418927Y508455D01*
X418958Y508153D01*
X418969Y508018D01*
X418979Y507903D01*
X418990Y507788D01*
Y507695D01*
X419000Y507622D01*
Y507570D01*
Y507528D01*
Y507518D01*
X418990Y507101D01*
X418948Y506716D01*
X418927Y506539D01*
X418896Y506372D01*
X418865Y506216D01*
X418833Y506081D01*
X418802Y505945D01*
X418771Y505830D01*
X418740Y505737D01*
X418719Y505653D01*
X418698Y505591D01*
X418677Y505539D01*
X418667Y505508D01*
Y505497D01*
X418531Y505185D01*
X418375Y504904D01*
X418219Y504654D01*
X418073Y504435D01*
X418000Y504341D01*
X417938Y504258D01*
X417875Y504196D01*
X417834Y504133D01*
X417792Y504091D01*
X417761Y504060D01*
X417740Y504039D01*
X417729Y504029D01*
X417490Y503821D01*
X417240Y503644D01*
X417001Y503498D01*
X416772Y503373D01*
X416574Y503279D01*
X416490Y503237D01*
X416417Y503206D01*
X416355Y503185D01*
X416313Y503165D01*
X416282Y503154D01*
X416272D01*
X415949Y503060D01*
X415626Y502988D01*
X415313Y502935D01*
X415032Y502904D01*
X414907Y502883D01*
X414793D01*
X414689Y502873D01*
X414595Y502863D01*
X414189D01*
X413980Y502873D01*
X413793Y502883D01*
X413647Y502904D01*
X413522Y502915D01*
X413439Y502925D01*
X413387Y502935D01*
X413366D01*
X413074Y502988D01*
X412929Y503019D01*
X412804Y503050D01*
X412700Y503071D01*
X412606Y503092D01*
X412554Y503112D01*
X412533D01*
X412293Y503196D01*
X412189Y503227D01*
X412085Y503269D01*
X412012Y503300D01*
X411950Y503321D01*
X411908Y503331D01*
X411898Y503342D01*
X411658Y503446D01*
X411554Y503498D01*
X411450Y503540D01*
X411367Y503581D01*
X411304Y503602D01*
X411252Y503623D01*
X411242Y503633D01*
Y505779D01*
X411492D01*
X411627Y505664D01*
X411762Y505549D01*
X411814Y505508D01*
X411866Y505466D01*
X411898Y505445D01*
X411908Y505435D01*
X412096Y505289D01*
X412189Y505227D01*
X412273Y505174D01*
X412346Y505122D01*
X412398Y505091D01*
X412439Y505070D01*
X412450Y505060D01*
X412720Y504925D01*
X412845Y504862D01*
X412970Y504820D01*
X413074Y504779D01*
X413147Y504748D01*
X413200Y504737D01*
X413220Y504727D01*
X413377Y504685D01*
X413522Y504654D01*
X413658Y504633D01*
X413793Y504622D01*
X413897Y504612D01*
X413980Y504602D01*
X414053D01*
X414220Y504612D01*
X414376Y504622D01*
X414532Y504643D01*
X414668Y504675D01*
X414782Y504695D01*
X414866Y504716D01*
X414928Y504727D01*
X414939Y504737D01*
X414949D01*
X415116Y504799D01*
X415261Y504872D01*
X415407Y504945D01*
X415522Y505029D01*
X415626Y505091D01*
X415699Y505154D01*
X415741Y505195D01*
X415761Y505206D01*
X415897Y505341D01*
X416011Y505487D01*
X416115Y505633D01*
X416199Y505779D01*
X416272Y505903D01*
X416324Y506008D01*
X416344Y506049D01*
X416355Y506081D01*
X416365Y506091D01*
Y506101D01*
X416438Y506320D01*
X416501Y506559D01*
X416542Y506789D01*
X416563Y507018D01*
X416584Y507216D01*
Y507299D01*
X416594Y507372D01*
Y507424D01*
Y507466D01*
Y507497D01*
Y507507D01*
X416584Y507799D01*
X416563Y508059D01*
X416521Y508288D01*
X416480Y508486D01*
X416449Y508653D01*
X416428Y508715D01*
X416407Y508767D01*
X416397Y508819D01*
X416386Y508851D01*
X416376Y508861D01*
Y508871D01*
X416292Y509080D01*
X416199Y509257D01*
X416095Y509413D01*
X416011Y509548D01*
X415928Y509652D01*
X415865Y509725D01*
X415813Y509777D01*
X415803Y509788D01*
X415657Y509913D01*
X415522Y510017D01*
X415376Y510100D01*
X415251Y510173D01*
X415147Y510225D01*
X415064Y510267D01*
X415011Y510288D01*
X414991Y510298D01*
X414824Y510350D01*
X414657Y510392D01*
X414501Y510413D01*
X414366Y510434D01*
X414241Y510444D01*
X414147Y510454D01*
X414064D01*
X413908Y510444D01*
X413751Y510434D01*
X413616Y510413D01*
X413491Y510392D01*
X413387Y510361D01*
X413304Y510340D01*
X413262Y510329D01*
X413241Y510319D01*
X413095Y510267D01*
X412960Y510215D01*
X412835Y510163D01*
X412731Y510111D01*
X412648Y510059D01*
X412575Y510027D01*
X412533Y510006D01*
X412523Y509996D01*
X412398Y509923D01*
X412293Y509850D01*
X412189Y509788D01*
X412106Y509725D01*
X412033Y509673D01*
X411981Y509632D01*
X411950Y509611D01*
X411939Y509600D01*
X411846Y509528D01*
X411762Y509465D01*
X411689Y509413D01*
X411627Y509361D01*
X411575Y509319D01*
X411544Y509288D01*
X411523Y509278D01*
X411512Y509267D01*
X411242D01*
Y511444D01*
X411440Y511527D01*
X411533Y511569D01*
X411627Y511610D01*
X411710Y511642D01*
X411773Y511673D01*
X411814Y511683D01*
X411825Y511694D01*
X412075Y511798D01*
X412200Y511839D01*
X412314Y511881D01*
X412408Y511912D01*
X412481Y511933D01*
X412533Y511954D01*
X412554D01*
X412845Y512027D01*
X412991Y512048D01*
X413116Y512079D01*
X413231Y512100D01*
X413324Y512110D01*
X413377Y512121D01*
X413397D01*
X413751Y512162D01*
X413918Y512173D01*
X414074Y512183D01*
X414220Y512193D01*
X414418D01*
X414793Y512183D01*
D02*
G37*
G36*
X399057Y50950D02*
X396933D01*
Y57105D01*
X393142Y50950D01*
X390903D01*
Y59927D01*
X393027D01*
Y54782D01*
X396297Y59927D01*
X399057D01*
Y50950D01*
D02*
G37*
G36*
X414793Y60083D02*
X415147Y60041D01*
X415470Y59989D01*
X415616Y59958D01*
X415751Y59927D01*
X415876Y59896D01*
X415980Y59864D01*
X416074Y59833D01*
X416157Y59812D01*
X416230Y59791D01*
X416272Y59771D01*
X416303Y59760D01*
X416313D01*
X416626Y59625D01*
X416907Y59479D01*
X417146Y59333D01*
X417365Y59177D01*
X417448Y59115D01*
X417532Y59052D01*
X417594Y58990D01*
X417657Y58938D01*
X417698Y58896D01*
X417729Y58875D01*
X417750Y58854D01*
X417761Y58844D01*
X417969Y58604D01*
X418157Y58344D01*
X418323Y58094D01*
X418448Y57865D01*
X418511Y57750D01*
X418552Y57657D01*
X418594Y57563D01*
X418625Y57490D01*
X418656Y57428D01*
X418677Y57386D01*
X418688Y57355D01*
Y57344D01*
X418792Y57011D01*
X418865Y56678D01*
X418927Y56355D01*
X418958Y56053D01*
X418969Y55918D01*
X418979Y55803D01*
X418990Y55688D01*
Y55595D01*
X419000Y55522D01*
Y55470D01*
Y55428D01*
Y55418D01*
X418990Y55001D01*
X418948Y54616D01*
X418927Y54439D01*
X418896Y54272D01*
X418865Y54116D01*
X418833Y53980D01*
X418802Y53845D01*
X418771Y53731D01*
X418740Y53637D01*
X418719Y53554D01*
X418698Y53491D01*
X418677Y53439D01*
X418667Y53408D01*
Y53397D01*
X418531Y53085D01*
X418375Y52804D01*
X418219Y52554D01*
X418073Y52335D01*
X418000Y52241D01*
X417938Y52158D01*
X417875Y52096D01*
X417834Y52033D01*
X417792Y51991D01*
X417761Y51960D01*
X417740Y51939D01*
X417729Y51929D01*
X417490Y51721D01*
X417240Y51544D01*
X417001Y51398D01*
X416772Y51273D01*
X416574Y51179D01*
X416490Y51137D01*
X416417Y51106D01*
X416355Y51085D01*
X416313Y51065D01*
X416282Y51054D01*
X416272D01*
X415949Y50960D01*
X415626Y50887D01*
X415313Y50835D01*
X415032Y50804D01*
X414907Y50783D01*
X414793D01*
X414689Y50773D01*
X414595Y50763D01*
X414189D01*
X413980Y50773D01*
X413793Y50783D01*
X413647Y50804D01*
X413522Y50815D01*
X413439Y50825D01*
X413387Y50835D01*
X413366D01*
X413074Y50887D01*
X412929Y50919D01*
X412804Y50950D01*
X412700Y50971D01*
X412606Y50992D01*
X412554Y51013D01*
X412533D01*
X412293Y51096D01*
X412189Y51127D01*
X412085Y51169D01*
X412012Y51200D01*
X411950Y51221D01*
X411908Y51231D01*
X411898Y51242D01*
X411658Y51346D01*
X411554Y51398D01*
X411450Y51439D01*
X411367Y51481D01*
X411304Y51502D01*
X411252Y51523D01*
X411242Y51533D01*
Y53678D01*
X411492D01*
X411627Y53564D01*
X411762Y53449D01*
X411814Y53408D01*
X411866Y53366D01*
X411898Y53345D01*
X411908Y53335D01*
X412096Y53189D01*
X412189Y53127D01*
X412273Y53074D01*
X412346Y53022D01*
X412398Y52991D01*
X412439Y52970D01*
X412450Y52960D01*
X412720Y52825D01*
X412845Y52762D01*
X412970Y52720D01*
X413074Y52679D01*
X413147Y52648D01*
X413200Y52637D01*
X413220Y52627D01*
X413377Y52585D01*
X413522Y52554D01*
X413658Y52533D01*
X413793Y52523D01*
X413897Y52512D01*
X413980Y52502D01*
X414053D01*
X414220Y52512D01*
X414376Y52523D01*
X414532Y52543D01*
X414668Y52575D01*
X414782Y52595D01*
X414866Y52616D01*
X414928Y52627D01*
X414939Y52637D01*
X414949D01*
X415116Y52700D01*
X415261Y52772D01*
X415407Y52845D01*
X415522Y52929D01*
X415626Y52991D01*
X415699Y53054D01*
X415741Y53095D01*
X415761Y53106D01*
X415897Y53241D01*
X416011Y53387D01*
X416115Y53533D01*
X416199Y53678D01*
X416272Y53803D01*
X416324Y53908D01*
X416344Y53949D01*
X416355Y53980D01*
X416365Y53991D01*
Y54001D01*
X416438Y54220D01*
X416501Y54460D01*
X416542Y54689D01*
X416563Y54918D01*
X416584Y55116D01*
Y55199D01*
X416594Y55272D01*
Y55324D01*
Y55366D01*
Y55397D01*
Y55407D01*
X416584Y55699D01*
X416563Y55959D01*
X416521Y56188D01*
X416480Y56386D01*
X416449Y56553D01*
X416428Y56615D01*
X416407Y56667D01*
X416397Y56719D01*
X416386Y56751D01*
X416376Y56761D01*
Y56771D01*
X416292Y56980D01*
X416199Y57157D01*
X416095Y57313D01*
X416011Y57448D01*
X415928Y57552D01*
X415865Y57625D01*
X415813Y57677D01*
X415803Y57688D01*
X415657Y57813D01*
X415522Y57917D01*
X415376Y58000D01*
X415251Y58073D01*
X415147Y58125D01*
X415064Y58167D01*
X415011Y58188D01*
X414991Y58198D01*
X414824Y58250D01*
X414657Y58292D01*
X414501Y58313D01*
X414366Y58334D01*
X414241Y58344D01*
X414147Y58354D01*
X414064D01*
X413908Y58344D01*
X413751Y58334D01*
X413616Y58313D01*
X413491Y58292D01*
X413387Y58261D01*
X413304Y58240D01*
X413262Y58229D01*
X413241Y58219D01*
X413095Y58167D01*
X412960Y58115D01*
X412835Y58063D01*
X412731Y58011D01*
X412648Y57959D01*
X412575Y57927D01*
X412533Y57907D01*
X412523Y57896D01*
X412398Y57823D01*
X412293Y57750D01*
X412189Y57688D01*
X412106Y57625D01*
X412033Y57573D01*
X411981Y57532D01*
X411950Y57511D01*
X411939Y57500D01*
X411846Y57428D01*
X411762Y57365D01*
X411689Y57313D01*
X411627Y57261D01*
X411575Y57219D01*
X411544Y57188D01*
X411523Y57178D01*
X411512Y57167D01*
X411242D01*
Y59344D01*
X411440Y59427D01*
X411533Y59469D01*
X411627Y59510D01*
X411710Y59542D01*
X411773Y59573D01*
X411814Y59583D01*
X411825Y59594D01*
X412075Y59698D01*
X412200Y59739D01*
X412314Y59781D01*
X412408Y59812D01*
X412481Y59833D01*
X412533Y59854D01*
X412554D01*
X412845Y59927D01*
X412991Y59948D01*
X413116Y59979D01*
X413231Y60000D01*
X413324Y60010D01*
X413377Y60021D01*
X413397D01*
X413751Y60062D01*
X413918Y60073D01*
X414074Y60083D01*
X414220Y60093D01*
X414418D01*
X414793Y60083D01*
D02*
G37*
G36*
X385790D02*
X386092Y60062D01*
X386373Y60031D01*
X386623Y60000D01*
X386738Y59979D01*
X386831Y59969D01*
X386925Y59948D01*
X386998Y59937D01*
X387060Y59927D01*
X387102Y59917D01*
X387133Y59906D01*
X387144D01*
X387435Y59833D01*
X387696Y59771D01*
X387904Y59708D01*
X388081Y59646D01*
X388227Y59604D01*
X388320Y59562D01*
X388383Y59542D01*
X388404Y59531D01*
Y57542D01*
X388216D01*
X388018Y57667D01*
X387821Y57782D01*
X387633Y57886D01*
X387456Y57969D01*
X387300Y58032D01*
X387185Y58084D01*
X387144Y58104D01*
X387112Y58115D01*
X387092Y58125D01*
X387081D01*
X386852Y58198D01*
X386644Y58261D01*
X386446Y58302D01*
X386269Y58323D01*
X386123Y58344D01*
X386008Y58354D01*
X385915D01*
X385654Y58344D01*
X385425Y58302D01*
X385227Y58250D01*
X385071Y58188D01*
X384946Y58115D01*
X384852Y58063D01*
X384800Y58021D01*
X384780Y58011D01*
X384644Y57875D01*
X384551Y57719D01*
X384478Y57563D01*
X384436Y57417D01*
X384405Y57271D01*
X384394Y57167D01*
X384384Y57126D01*
Y57094D01*
Y57073D01*
Y57063D01*
X384394Y56876D01*
X384436Y56688D01*
X384478Y56511D01*
X384540Y56355D01*
X384592Y56220D01*
X384644Y56126D01*
X384665Y56084D01*
X384686Y56053D01*
X384696Y56042D01*
Y56032D01*
X384832Y55834D01*
X384988Y55626D01*
X385155Y55418D01*
X385321Y55220D01*
X385477Y55053D01*
X385550Y54980D01*
X385613Y54918D01*
X385654Y54876D01*
X385696Y54834D01*
X385717Y54814D01*
X385727Y54803D01*
X385925Y54616D01*
X386133Y54428D01*
X386352Y54230D01*
X386560Y54053D01*
X386748Y53897D01*
X386821Y53835D01*
X386894Y53783D01*
X386946Y53731D01*
X386998Y53699D01*
X387019Y53678D01*
X387029Y53668D01*
X387331Y53429D01*
X387623Y53199D01*
X387893Y52991D01*
X388143Y52804D01*
X388247Y52720D01*
X388341Y52648D01*
X388435Y52585D01*
X388508Y52533D01*
X388560Y52491D01*
X388612Y52460D01*
X388633Y52439D01*
X388643Y52429D01*
Y50950D01*
X381603D01*
Y52668D01*
X385634D01*
X385530Y52741D01*
X385415Y52835D01*
X385290Y52929D01*
X385155Y53022D01*
X385040Y53116D01*
X384946Y53189D01*
X384873Y53231D01*
X384863Y53252D01*
X384852D01*
X384644Y53418D01*
X384446Y53574D01*
X384259Y53741D01*
X384092Y53876D01*
X383946Y54001D01*
X383842Y54106D01*
X383801Y54137D01*
X383769Y54168D01*
X383759Y54178D01*
X383749Y54189D01*
X383592Y54345D01*
X383436Y54491D01*
X383301Y54637D01*
X383176Y54782D01*
X382957Y55043D01*
X382770Y55282D01*
X382697Y55386D01*
X382624Y55480D01*
X382572Y55563D01*
X382530Y55626D01*
X382489Y55688D01*
X382468Y55730D01*
X382447Y55751D01*
Y55761D01*
X382301Y56053D01*
X382197Y56334D01*
X382124Y56615D01*
X382072Y56855D01*
X382051Y56969D01*
X382041Y57073D01*
X382030Y57157D01*
Y57230D01*
X382020Y57292D01*
Y57334D01*
Y57365D01*
Y57375D01*
X382030Y57615D01*
X382062Y57834D01*
X382103Y58042D01*
X382155Y58240D01*
X382228Y58417D01*
X382301Y58583D01*
X382384Y58729D01*
X382457Y58865D01*
X382541Y58990D01*
X382624Y59094D01*
X382697Y59177D01*
X382770Y59250D01*
X382822Y59313D01*
X382864Y59354D01*
X382895Y59375D01*
X382905Y59385D01*
X383082Y59510D01*
X383270Y59615D01*
X383467Y59719D01*
X383676Y59791D01*
X383895Y59864D01*
X384103Y59917D01*
X384519Y60010D01*
X384717Y60031D01*
X384894Y60052D01*
X385061Y60073D01*
X385196Y60083D01*
X385311Y60093D01*
X385477D01*
X385790Y60083D01*
D02*
G37*
%LPC*%
G36*
X405524Y58417D02*
X405451D01*
X405285Y58406D01*
X405139Y58396D01*
X404993Y58365D01*
X404868Y58334D01*
X404764Y58302D01*
X404691Y58281D01*
X404639Y58261D01*
X404618Y58250D01*
X404473Y58177D01*
X404337Y58094D01*
X404212Y58011D01*
X404108Y57927D01*
X404025Y57854D01*
X403962Y57792D01*
X403921Y57750D01*
X403910Y57730D01*
X403806Y57584D01*
X403702Y57438D01*
X403619Y57282D01*
X403556Y57136D01*
X403494Y57000D01*
X403452Y56896D01*
X403442Y56855D01*
X403431Y56824D01*
X403421Y56813D01*
Y56803D01*
X403358Y56584D01*
X403317Y56355D01*
X403275Y56126D01*
X403254Y55907D01*
X403244Y55720D01*
Y55647D01*
X403233Y55574D01*
Y55511D01*
Y55470D01*
Y55449D01*
Y55438D01*
X403244Y55168D01*
X403254Y54918D01*
X403285Y54699D01*
X403317Y54501D01*
X403348Y54345D01*
X403358Y54282D01*
X403369Y54230D01*
X403379Y54178D01*
X403390Y54147D01*
X403400Y54137D01*
Y54126D01*
X403473Y53928D01*
X403546Y53741D01*
X403629Y53574D01*
X403712Y53439D01*
X403785Y53314D01*
X403848Y53231D01*
X403889Y53179D01*
X403900Y53158D01*
X404014Y53033D01*
X404139Y52918D01*
X404254Y52835D01*
X404368Y52752D01*
X404462Y52700D01*
X404535Y52658D01*
X404587Y52637D01*
X404608Y52627D01*
X404754Y52575D01*
X404910Y52533D01*
X405045Y52502D01*
X405181Y52481D01*
X405285Y52470D01*
X405378Y52460D01*
X405451D01*
X405618Y52470D01*
X405764Y52491D01*
X405910Y52512D01*
X406035Y52543D01*
X406139Y52575D01*
X406222Y52606D01*
X406274Y52616D01*
X406295Y52627D01*
X406441Y52700D01*
X406576Y52783D01*
X406691Y52866D01*
X406795Y52950D01*
X406878Y53022D01*
X406941Y53085D01*
X406982Y53137D01*
X406993Y53147D01*
X407097Y53293D01*
X407201Y53439D01*
X407284Y53595D01*
X407347Y53741D01*
X407409Y53866D01*
X407451Y53970D01*
X407461Y54012D01*
X407472Y54043D01*
X407482Y54053D01*
Y54064D01*
X407545Y54282D01*
X407586Y54512D01*
X407617Y54741D01*
X407638Y54959D01*
X407649Y55147D01*
Y55230D01*
X407659Y55293D01*
Y55355D01*
Y55397D01*
Y55418D01*
Y55428D01*
X407649Y55709D01*
X407628Y55970D01*
X407597Y56209D01*
X407565Y56407D01*
X407534Y56574D01*
X407513Y56646D01*
X407503Y56698D01*
X407493Y56740D01*
X407482Y56771D01*
X407472Y56792D01*
Y56803D01*
X407399Y57011D01*
X407315Y57198D01*
X407232Y57365D01*
X407159Y57490D01*
X407086Y57605D01*
X407034Y57677D01*
X406993Y57730D01*
X406982Y57740D01*
X406857Y57865D01*
X406732Y57969D01*
X406618Y58052D01*
X406503Y58125D01*
X406409Y58177D01*
X406337Y58219D01*
X406295Y58240D01*
X406274Y58250D01*
X406128Y58302D01*
X405983Y58344D01*
X405847Y58375D01*
X405722Y58396D01*
X405608Y58406D01*
X405524Y58417D01*
D02*
G37*
G36*
X837324D02*
X837251D01*
X837085Y58406D01*
X836939Y58396D01*
X836793Y58365D01*
X836668Y58334D01*
X836564Y58302D01*
X836491Y58281D01*
X836439Y58261D01*
X836418Y58250D01*
X836273Y58177D01*
X836137Y58094D01*
X836012Y58011D01*
X835908Y57927D01*
X835825Y57854D01*
X835762Y57792D01*
X835721Y57750D01*
X835710Y57730D01*
X835606Y57584D01*
X835502Y57438D01*
X835419Y57282D01*
X835356Y57136D01*
X835294Y57000D01*
X835252Y56896D01*
X835241Y56855D01*
X835231Y56824D01*
X835221Y56813D01*
Y56803D01*
X835158Y56584D01*
X835117Y56355D01*
X835075Y56126D01*
X835054Y55907D01*
X835044Y55720D01*
Y55647D01*
X835033Y55574D01*
Y55511D01*
Y55470D01*
Y55449D01*
Y55438D01*
X835044Y55168D01*
X835054Y54918D01*
X835085Y54699D01*
X835117Y54501D01*
X835148Y54345D01*
X835158Y54282D01*
X835169Y54230D01*
X835179Y54178D01*
X835190Y54147D01*
X835200Y54137D01*
Y54126D01*
X835273Y53928D01*
X835346Y53741D01*
X835429Y53574D01*
X835512Y53439D01*
X835585Y53314D01*
X835648Y53231D01*
X835689Y53179D01*
X835700Y53158D01*
X835814Y53033D01*
X835939Y52918D01*
X836054Y52835D01*
X836168Y52752D01*
X836262Y52700D01*
X836335Y52658D01*
X836387Y52637D01*
X836408Y52627D01*
X836554Y52575D01*
X836710Y52533D01*
X836845Y52502D01*
X836981Y52481D01*
X837085Y52470D01*
X837178Y52460D01*
X837251D01*
X837418Y52470D01*
X837564Y52491D01*
X837710Y52512D01*
X837835Y52543D01*
X837939Y52575D01*
X838022Y52606D01*
X838074Y52616D01*
X838095Y52627D01*
X838241Y52700D01*
X838376Y52783D01*
X838491Y52866D01*
X838595Y52950D01*
X838678Y53022D01*
X838741Y53085D01*
X838782Y53137D01*
X838793Y53147D01*
X838897Y53293D01*
X839001Y53439D01*
X839084Y53595D01*
X839147Y53741D01*
X839209Y53866D01*
X839251Y53970D01*
X839261Y54012D01*
X839272Y54043D01*
X839282Y54053D01*
Y54064D01*
X839345Y54282D01*
X839386Y54512D01*
X839417Y54741D01*
X839438Y54959D01*
X839449Y55147D01*
Y55230D01*
X839459Y55293D01*
Y55355D01*
Y55397D01*
Y55418D01*
Y55428D01*
X839449Y55709D01*
X839428Y55970D01*
X839397Y56209D01*
X839365Y56407D01*
X839334Y56574D01*
X839313Y56646D01*
X839303Y56698D01*
X839293Y56740D01*
X839282Y56771D01*
X839272Y56792D01*
Y56803D01*
X839199Y57011D01*
X839116Y57198D01*
X839032Y57365D01*
X838959Y57490D01*
X838886Y57605D01*
X838834Y57677D01*
X838793Y57730D01*
X838782Y57740D01*
X838657Y57865D01*
X838532Y57969D01*
X838418Y58052D01*
X838303Y58125D01*
X838210Y58177D01*
X838137Y58219D01*
X838095Y58240D01*
X838074Y58250D01*
X837928Y58302D01*
X837783Y58344D01*
X837647Y58375D01*
X837522Y58396D01*
X837408Y58406D01*
X837324Y58417D01*
D02*
G37*
G36*
X816705Y510006D02*
Y506757D01*
X819318D01*
X816705Y510006D01*
D02*
G37*
G36*
X837324Y510517D02*
X837251D01*
X837085Y510506D01*
X836939Y510496D01*
X836793Y510465D01*
X836668Y510434D01*
X836564Y510402D01*
X836491Y510382D01*
X836439Y510361D01*
X836418Y510350D01*
X836273Y510277D01*
X836137Y510194D01*
X836012Y510111D01*
X835908Y510027D01*
X835825Y509954D01*
X835762Y509892D01*
X835721Y509850D01*
X835710Y509829D01*
X835606Y509684D01*
X835502Y509538D01*
X835419Y509382D01*
X835356Y509236D01*
X835294Y509100D01*
X835252Y508996D01*
X835241Y508955D01*
X835231Y508923D01*
X835221Y508913D01*
Y508903D01*
X835158Y508684D01*
X835117Y508455D01*
X835075Y508226D01*
X835054Y508007D01*
X835044Y507820D01*
Y507747D01*
X835033Y507674D01*
Y507611D01*
Y507570D01*
Y507549D01*
Y507538D01*
X835044Y507268D01*
X835054Y507018D01*
X835085Y506799D01*
X835117Y506601D01*
X835148Y506445D01*
X835158Y506382D01*
X835169Y506330D01*
X835179Y506278D01*
X835190Y506247D01*
X835200Y506237D01*
Y506226D01*
X835273Y506028D01*
X835346Y505841D01*
X835429Y505674D01*
X835512Y505539D01*
X835585Y505414D01*
X835648Y505331D01*
X835689Y505279D01*
X835700Y505258D01*
X835814Y505133D01*
X835939Y505018D01*
X836054Y504935D01*
X836168Y504852D01*
X836262Y504799D01*
X836335Y504758D01*
X836387Y504737D01*
X836408Y504727D01*
X836554Y504675D01*
X836710Y504633D01*
X836845Y504602D01*
X836981Y504581D01*
X837085Y504570D01*
X837178Y504560D01*
X837251D01*
X837418Y504570D01*
X837564Y504591D01*
X837710Y504612D01*
X837835Y504643D01*
X837939Y504675D01*
X838022Y504706D01*
X838074Y504716D01*
X838095Y504727D01*
X838241Y504799D01*
X838376Y504883D01*
X838491Y504966D01*
X838595Y505050D01*
X838678Y505122D01*
X838741Y505185D01*
X838782Y505237D01*
X838793Y505247D01*
X838897Y505393D01*
X839001Y505539D01*
X839084Y505695D01*
X839147Y505841D01*
X839209Y505966D01*
X839251Y506070D01*
X839261Y506112D01*
X839272Y506143D01*
X839282Y506153D01*
Y506164D01*
X839345Y506382D01*
X839386Y506612D01*
X839417Y506841D01*
X839438Y507059D01*
X839449Y507247D01*
Y507330D01*
X839459Y507393D01*
Y507455D01*
Y507497D01*
Y507518D01*
Y507528D01*
X839449Y507809D01*
X839428Y508069D01*
X839397Y508309D01*
X839365Y508507D01*
X839334Y508674D01*
X839313Y508746D01*
X839303Y508798D01*
X839293Y508840D01*
X839282Y508871D01*
X839272Y508892D01*
Y508903D01*
X839199Y509111D01*
X839116Y509298D01*
X839032Y509465D01*
X838959Y509590D01*
X838886Y509705D01*
X838834Y509777D01*
X838793Y509829D01*
X838782Y509840D01*
X838657Y509965D01*
X838532Y510069D01*
X838418Y510152D01*
X838303Y510225D01*
X838210Y510277D01*
X838137Y510319D01*
X838095Y510340D01*
X838074Y510350D01*
X837928Y510402D01*
X837783Y510444D01*
X837647Y510475D01*
X837522Y510496D01*
X837408Y510506D01*
X837324Y510517D01*
D02*
G37*
G36*
X405524D02*
X405451D01*
X405285Y510506D01*
X405139Y510496D01*
X404993Y510465D01*
X404868Y510434D01*
X404764Y510402D01*
X404691Y510382D01*
X404639Y510361D01*
X404618Y510350D01*
X404473Y510277D01*
X404337Y510194D01*
X404212Y510111D01*
X404108Y510027D01*
X404025Y509954D01*
X403962Y509892D01*
X403921Y509850D01*
X403910Y509829D01*
X403806Y509684D01*
X403702Y509538D01*
X403619Y509382D01*
X403556Y509236D01*
X403494Y509100D01*
X403452Y508996D01*
X403442Y508955D01*
X403431Y508923D01*
X403421Y508913D01*
Y508903D01*
X403358Y508684D01*
X403317Y508455D01*
X403275Y508226D01*
X403254Y508007D01*
X403244Y507820D01*
Y507747D01*
X403233Y507674D01*
Y507611D01*
Y507570D01*
Y507549D01*
Y507538D01*
X403244Y507268D01*
X403254Y507018D01*
X403285Y506799D01*
X403317Y506601D01*
X403348Y506445D01*
X403358Y506382D01*
X403369Y506330D01*
X403379Y506278D01*
X403390Y506247D01*
X403400Y506237D01*
Y506226D01*
X403473Y506028D01*
X403546Y505841D01*
X403629Y505674D01*
X403712Y505539D01*
X403785Y505414D01*
X403848Y505331D01*
X403889Y505279D01*
X403900Y505258D01*
X404014Y505133D01*
X404139Y505018D01*
X404254Y504935D01*
X404368Y504852D01*
X404462Y504799D01*
X404535Y504758D01*
X404587Y504737D01*
X404608Y504727D01*
X404754Y504675D01*
X404910Y504633D01*
X405045Y504602D01*
X405181Y504581D01*
X405285Y504570D01*
X405378Y504560D01*
X405451D01*
X405618Y504570D01*
X405764Y504591D01*
X405910Y504612D01*
X406035Y504643D01*
X406139Y504675D01*
X406222Y504706D01*
X406274Y504716D01*
X406295Y504727D01*
X406441Y504799D01*
X406576Y504883D01*
X406691Y504966D01*
X406795Y505050D01*
X406878Y505122D01*
X406941Y505185D01*
X406982Y505237D01*
X406993Y505247D01*
X407097Y505393D01*
X407201Y505539D01*
X407284Y505695D01*
X407347Y505841D01*
X407409Y505966D01*
X407451Y506070D01*
X407461Y506112D01*
X407472Y506143D01*
X407482Y506153D01*
Y506164D01*
X407545Y506382D01*
X407586Y506612D01*
X407617Y506841D01*
X407638Y507059D01*
X407649Y507247D01*
Y507330D01*
X407659Y507393D01*
Y507455D01*
Y507497D01*
Y507518D01*
Y507528D01*
X407649Y507809D01*
X407628Y508069D01*
X407597Y508309D01*
X407565Y508507D01*
X407534Y508674D01*
X407513Y508746D01*
X407503Y508798D01*
X407493Y508840D01*
X407482Y508871D01*
X407472Y508892D01*
Y508903D01*
X407399Y509111D01*
X407315Y509298D01*
X407232Y509465D01*
X407159Y509590D01*
X407086Y509705D01*
X407034Y509777D01*
X406993Y509829D01*
X406982Y509840D01*
X406857Y509965D01*
X406732Y510069D01*
X406618Y510152D01*
X406503Y510225D01*
X406409Y510277D01*
X406337Y510319D01*
X406295Y510340D01*
X406274Y510350D01*
X406128Y510402D01*
X405983Y510444D01*
X405847Y510475D01*
X405722Y510496D01*
X405608Y510506D01*
X405524Y510517D01*
D02*
G37*
%LPD*%
D30*
X493000Y492050D02*
Y535050D01*
X478000Y477050D02*
X493000Y492050D01*
X310000Y477050D02*
X478000D01*
X295000Y492050D02*
X310000Y477050D01*
X295000Y492050D02*
Y535050D01*
X493000D01*
X295000Y82950D02*
X493000D01*
X295000Y39950D02*
Y82950D01*
Y39950D02*
X310000Y24950D01*
X478000D01*
X493000Y39950D01*
Y82950D01*
X924800Y39950D02*
Y82950D01*
X909800Y24950D02*
X924800Y39950D01*
X741800Y24950D02*
X909800D01*
X726800Y39950D02*
X741800Y24950D01*
X726800Y39950D02*
Y82950D01*
X924800D01*
X726800Y535050D02*
X924800D01*
X726800Y492050D02*
Y535050D01*
Y492050D02*
X741800Y477050D01*
X909800D01*
X924800Y492050D01*
Y535050D01*
M02*
