G04 Layer_Physical_Order=4*
G04 Layer_Color=16711680*
%FSLAX44Y44*%
%MOMM*%
G71*
G01*
G75*
%ADD16C,1.5000*%
%ADD30C,0.2000*%
%ADD31C,0.6000*%
%ADD32C,0.3000*%
%ADD33C,1.4000*%
%ADD37C,0.8000*%
%ADD38C,2.1000*%
%ADD39C,2.2000*%
%ADD40R,6.0000X6.0000*%
%ADD41C,1.3000*%
%ADD42C,0.5000*%
G04:AMPARAMS|DCode=45|XSize=0.3mm|YSize=1.448mm|CornerRadius=0.15mm|HoleSize=0mm|Usage=FLASHONLY|Rotation=180.000|XOffset=0mm|YOffset=0mm|HoleType=Round|Shape=RoundedRectangle|*
%AMROUNDEDRECTD45*
21,1,0.3000,1.1480,0,0,180.0*
21,1,0.0000,1.4480,0,0,180.0*
1,1,0.3000,0.0000,0.5740*
1,1,0.3000,0.0000,0.5740*
1,1,0.3000,0.0000,-0.5740*
1,1,0.3000,0.0000,-0.5740*
%
%ADD45ROUNDEDRECTD45*%
%ADD46C,0.2500*%
G36*
X415061Y555000D02*
X415826Y553152D01*
X409337Y546663D01*
X407866Y545987D01*
X406500Y546259D01*
X405134Y545987D01*
X404000Y545229D01*
X402866Y545987D01*
X401500Y546259D01*
X400134Y545987D01*
X399000Y545229D01*
X397866Y545987D01*
X396500Y546259D01*
X395134Y545987D01*
X394000Y545229D01*
X392866Y545987D01*
X392500Y546060D01*
Y536950D01*
X390500D01*
Y546060D01*
X390134Y545987D01*
X389000Y545229D01*
X387866Y545987D01*
X386500Y546259D01*
X385134Y545987D01*
X384000Y545229D01*
X382866Y545987D01*
X381500Y546259D01*
X381384Y546235D01*
X379781Y546307D01*
X378663Y547320D01*
X378239Y548244D01*
X378588Y550000D01*
X378239Y551756D01*
X377407Y553000D01*
X377687Y554043D01*
X378217Y555000D01*
X415061Y555000D01*
D02*
G37*
G36*
X342855Y555000D02*
X343924Y553000D01*
X343761Y552756D01*
X343412Y551000D01*
X343761Y549244D01*
X344441Y548226D01*
Y547340D01*
X343412Y546456D01*
X342755Y546009D01*
X342500Y546060D01*
Y536950D01*
X340500D01*
Y546060D01*
X340134Y545987D01*
X339000Y545229D01*
X337866Y545987D01*
X336500Y546259D01*
X335134Y545987D01*
X334000Y545229D01*
X332866Y545987D01*
X331500Y546259D01*
X330134Y545987D01*
X329000Y545229D01*
X327866Y545987D01*
X326500Y546259D01*
X325134Y545987D01*
X324000Y545229D01*
X322866Y545987D01*
X321500Y546259D01*
X320134Y545987D01*
X318977Y545213D01*
X318203Y544056D01*
X317931Y542690D01*
Y531210D01*
X318203Y529844D01*
X318977Y528687D01*
X320134Y527913D01*
X320948Y525712D01*
X320566Y525095D01*
X310625D01*
X309404Y525754D01*
X308781Y526410D01*
X308538Y528258D01*
X307824Y529981D01*
X306690Y531460D01*
X305211Y532594D01*
X303488Y533308D01*
X301640Y533551D01*
X299792Y533308D01*
X298069Y532594D01*
X296590Y531460D01*
X295456Y529981D01*
X294742Y528258D01*
X294499Y526410D01*
X294742Y524562D01*
X295456Y522840D01*
X295247Y522060D01*
X292060Y520740D01*
X286678Y517442D01*
X281878Y513343D01*
X281899Y513322D01*
X281899Y513322D01*
X149112Y380535D01*
X148798Y380221D01*
X148722Y380122D01*
X146194Y378183D01*
X142722Y376744D01*
X139342Y376299D01*
X138996Y376345D01*
X114924D01*
X114526Y378345D01*
X116304Y379081D01*
X118915Y381085D01*
X120919Y383696D01*
X122178Y386737D01*
X122608Y390000D01*
X122178Y393263D01*
X120919Y396304D01*
X118915Y398915D01*
X116304Y400919D01*
X113263Y402178D01*
X110000Y402608D01*
X106737Y402178D01*
X103696Y400919D01*
X101085Y398915D01*
X99081Y396304D01*
X97822Y393263D01*
X97392Y390000D01*
X97822Y386737D01*
X99081Y383696D01*
X101085Y381085D01*
X103696Y379081D01*
X105474Y378345D01*
X105076Y376345D01*
X100071D01*
Y376374D01*
X93779Y375879D01*
X87641Y374405D01*
X81810Y371990D01*
X76428Y368692D01*
X75493Y367894D01*
X75326Y367903D01*
X73436Y368766D01*
X73239Y369756D01*
X72244Y371244D01*
X70756Y372239D01*
X69000Y372588D01*
X67244Y372239D01*
X65756Y371244D01*
X64761Y369756D01*
X64412Y368000D01*
X64761Y366244D01*
X65756Y364756D01*
X67125Y363841D01*
X67334Y363062D01*
X67281Y361715D01*
X65001Y360495D01*
X63180Y359002D01*
X62667Y358608D01*
X62510Y358403D01*
X60440Y355881D01*
X58780Y352776D01*
X57759Y349407D01*
X57439Y346159D01*
X57405Y345904D01*
Y345725D01*
X57456Y345340D01*
X57746Y342397D01*
X58716Y339197D01*
X60293Y336249D01*
X62168Y333963D01*
X62405Y333655D01*
X62813Y333341D01*
X64871Y331652D01*
X67672Y330155D01*
X70711Y329233D01*
X73361Y328972D01*
X73871Y328905D01*
X74379Y328972D01*
X77035Y329234D01*
X80077Y330156D01*
X82881Y331655D01*
X84944Y333348D01*
X85351Y333660D01*
X85688Y333998D01*
X86000Y334127D01*
X86737Y333822D01*
X90000Y333392D01*
X92092Y333667D01*
X94737Y332572D01*
X98000Y332142D01*
X101263Y332572D01*
X104304Y333831D01*
X106699Y335669D01*
X107453Y335092D01*
X110128Y333983D01*
X113000Y333605D01*
X116145D01*
X119017Y333983D01*
X121693Y335092D01*
X123990Y336855D01*
X124718Y337583D01*
X168429D01*
X169249Y337691D01*
X174721Y338121D01*
X180859Y339595D01*
X186690Y342010D01*
X192072Y345308D01*
X196872Y349407D01*
X196851Y349428D01*
X196851Y349428D01*
X209517Y362094D01*
X209523Y362088D01*
X212190Y365337D01*
X214171Y369044D01*
X215391Y373067D01*
X215803Y377250D01*
X215842Y377248D01*
X216750Y377197D01*
X216851Y377218D01*
X217778Y377310D01*
X220460Y377574D01*
X224027Y378656D01*
X227315Y380413D01*
X228728Y381573D01*
X230181Y382761D01*
X230195Y382772D01*
X230199Y382776D01*
X231583Y384160D01*
X316048Y468625D01*
X318196Y468046D01*
X318240Y467989D01*
X318977Y466887D01*
X320134Y466113D01*
X321500Y465841D01*
X322866Y466113D01*
X323869Y465574D01*
X324761Y463756D01*
X324412Y462000D01*
X324761Y460244D01*
X325756Y458756D01*
X327244Y457761D01*
X329000Y457412D01*
X330756Y457761D01*
X332244Y458756D01*
X334450Y458457D01*
X334744Y458261D01*
X336500Y457912D01*
X338256Y458261D01*
X339744Y459256D01*
X340420D01*
X340755Y458755D01*
X342243Y457760D01*
X343999Y457411D01*
X345755Y457760D01*
X347244Y458755D01*
X348756Y457756D01*
X350244Y456761D01*
X352000Y456412D01*
X353756Y456761D01*
X355244Y457756D01*
X356239Y459244D01*
X356588Y461000D01*
X356239Y462756D01*
X355392Y464023D01*
X355679Y464862D01*
X356275Y465709D01*
X356500Y465841D01*
X357866Y466113D01*
X359000Y466871D01*
X360134Y466113D01*
X361500Y465841D01*
X362866Y466113D01*
X364000Y466871D01*
X365134Y466113D01*
X365500Y466040D01*
Y475150D01*
X367500D01*
Y466040D01*
X367866Y466113D01*
X369000Y466871D01*
X370134Y466113D01*
X371500Y465841D01*
X372866Y466113D01*
X374000Y466871D01*
X375134Y466113D01*
X376500Y465841D01*
X378441Y464275D01*
Y454500D01*
X378441Y454500D01*
X378674Y453329D01*
X379337Y452337D01*
X409337Y422337D01*
X410330Y421674D01*
X411500Y421441D01*
X420997D01*
X422500Y419441D01*
X422412Y419000D01*
X422761Y417244D01*
X423756Y415756D01*
X425244Y414761D01*
X427000Y414412D01*
X428756Y414761D01*
X428923Y414873D01*
X504941Y338854D01*
Y296368D01*
X504756Y296244D01*
X503761Y294756D01*
X503412Y293000D01*
X503761Y291244D01*
X504756Y289756D01*
X506244Y288761D01*
X508000Y288412D01*
X509756Y288761D01*
X511244Y289756D01*
X512239Y291244D01*
X512588Y293000D01*
X512239Y294756D01*
X511244Y296244D01*
X511059Y296368D01*
Y324346D01*
X512906Y325111D01*
X588180Y249837D01*
X588180Y249837D01*
X589173Y249174D01*
X590343Y248941D01*
X590343Y248941D01*
X645424D01*
X645761Y247244D01*
X646756Y245756D01*
X648244Y244761D01*
X650000Y244412D01*
X651756Y244761D01*
X653244Y245756D01*
X654239Y247244D01*
X654588Y249000D01*
X654239Y250756D01*
X653244Y252244D01*
X652280Y252889D01*
X652173Y253270D01*
Y254730D01*
X652280Y255111D01*
X653244Y255756D01*
X654239Y257244D01*
X654588Y259000D01*
X654239Y260756D01*
X653244Y262244D01*
X651756Y263239D01*
X650000Y263588D01*
X648244Y263239D01*
X646756Y262244D01*
X645761Y260756D01*
X645424Y259059D01*
X593267D01*
X563220Y289106D01*
X563879Y291276D01*
X563951Y291290D01*
X565605Y292395D01*
X566710Y294049D01*
X567098Y296000D01*
Y306888D01*
X583605Y323395D01*
X584614Y324906D01*
X584827Y325074D01*
X586840Y325508D01*
X598674Y313674D01*
X600659Y312348D01*
X603000Y311882D01*
X605341Y312348D01*
X607326Y313674D01*
X608652Y315659D01*
X609118Y318000D01*
X608652Y320341D01*
X607326Y322326D01*
X582326Y347326D01*
X580341Y348652D01*
X578000Y349118D01*
X559000D01*
X556659Y348652D01*
X554674Y347326D01*
X553348Y345341D01*
X552882Y343000D01*
X553348Y340659D01*
X554674Y338674D01*
X556659Y337348D01*
X559000Y336883D01*
X575466D01*
X578508Y333840D01*
X578074Y331827D01*
X577906Y331614D01*
X576395Y330605D01*
X558395Y312605D01*
X557290Y310951D01*
X556902Y309000D01*
Y298252D01*
X554902Y297424D01*
X519059Y333267D01*
Y343435D01*
X518826Y344605D01*
X518163Y345598D01*
X518163Y345598D01*
X466819Y396941D01*
X467648Y398941D01*
X496787D01*
X497616Y396941D01*
X490219Y389545D01*
X490000Y389588D01*
X488244Y389239D01*
X486756Y388244D01*
X485761Y386756D01*
X485412Y385000D01*
X485761Y383244D01*
X486756Y381756D01*
X488244Y380761D01*
X490000Y380412D01*
X491756Y380761D01*
X493244Y381756D01*
X494239Y383244D01*
X494588Y385000D01*
X494545Y385219D01*
X502267Y392941D01*
X594733D01*
X610837Y376837D01*
X610837Y376837D01*
X611829Y376174D01*
X613000Y375941D01*
X632000D01*
X632000Y375941D01*
X633171Y376174D01*
X634163Y376837D01*
X659163Y401837D01*
X659163Y401837D01*
X659826Y402830D01*
X660059Y404000D01*
X660059Y404000D01*
Y406632D01*
X660244Y406756D01*
X661239Y408244D01*
X661430Y409205D01*
X762787D01*
X763756Y407756D01*
X765244Y406761D01*
X767000Y406412D01*
X768756Y406761D01*
X770244Y407756D01*
X771213Y409205D01*
X858787D01*
X859756Y407756D01*
X861244Y406761D01*
X863000Y406412D01*
X864756Y406761D01*
X866244Y407756D01*
X867213Y409205D01*
X890884D01*
X891081Y407205D01*
X889994Y406989D01*
X888506Y405994D01*
X887511Y404506D01*
X887162Y402750D01*
X887511Y400994D01*
X887939Y400353D01*
Y367368D01*
X887754Y367244D01*
X886759Y365755D01*
X886410Y363999D01*
X886759Y362243D01*
X887754Y360755D01*
X889242Y359760D01*
X890998Y359411D01*
X892754Y359760D01*
X894242Y360755D01*
X895237Y362243D01*
X895586Y363999D01*
X895237Y365755D01*
X894242Y367244D01*
X894057Y367368D01*
Y398879D01*
X894994Y399506D01*
X895989Y400994D01*
X896338Y402750D01*
X895989Y404506D01*
X894994Y405994D01*
X893506Y406989D01*
X892419Y407205D01*
X892616Y409205D01*
X902150D01*
X902569Y407205D01*
X901506Y406494D01*
X900511Y405006D01*
X900162Y403250D01*
X900511Y401494D01*
X901506Y400006D01*
X901941Y399715D01*
Y367368D01*
X901756Y367244D01*
X900761Y365756D01*
X900412Y364000D01*
X900761Y362244D01*
X901756Y360756D01*
X903244Y359761D01*
X905000Y359412D01*
X906756Y359761D01*
X908244Y360756D01*
X909239Y362244D01*
X909588Y364000D01*
X909239Y365756D01*
X908244Y367244D01*
X908059Y367368D01*
Y400102D01*
X908989Y401494D01*
X909338Y403250D01*
X908989Y405006D01*
X907994Y406494D01*
X906931Y407205D01*
X907349Y409205D01*
X981179D01*
X981525Y409251D01*
X984905Y408806D01*
X988377Y407367D01*
X989812Y406266D01*
X991294Y405015D01*
X991294Y405015D01*
X991294Y405015D01*
X1056732Y339577D01*
X1056761Y339546D01*
X1057559Y337620D01*
X1057559Y337620D01*
X1059395Y336627D01*
X1063117Y332905D01*
X1065415Y331142D01*
X1068091Y330033D01*
X1070963Y329655D01*
X1076750D01*
X1079622Y330033D01*
X1082298Y331142D01*
X1084595Y332905D01*
X1085688Y333998D01*
X1086000Y334127D01*
X1086737Y333822D01*
X1090000Y333392D01*
X1093263Y333822D01*
X1094000Y334127D01*
X1094737Y333822D01*
X1098000Y333392D01*
X1101263Y333822D01*
X1104304Y335081D01*
X1106915Y337085D01*
X1108919Y339696D01*
X1110178Y342737D01*
X1110608Y346000D01*
X1110178Y349263D01*
X1108919Y352304D01*
X1106915Y354915D01*
X1106488Y355243D01*
X1106329Y357271D01*
X1104855Y363409D01*
X1102440Y369240D01*
X1099142Y374622D01*
X1095043Y379422D01*
X1095043Y379422D01*
X1093608Y380815D01*
X1025765Y448658D01*
X1024372Y450093D01*
X1024372Y450093D01*
X1019572Y454192D01*
X1014190Y457490D01*
X1008359Y459905D01*
X1002221Y461379D01*
X995929Y461874D01*
Y461845D01*
X803617D01*
X802587Y463101D01*
X802412Y463979D01*
X803105Y465433D01*
X803902Y465961D01*
X804666Y466113D01*
X805800Y466871D01*
X806934Y466113D01*
X808300Y465841D01*
X809666Y466113D01*
X810800Y466871D01*
X811934Y466113D01*
X813300Y465841D01*
X814666Y466113D01*
X815800Y466871D01*
X816934Y466113D01*
X818300Y465841D01*
X819666Y466113D01*
X820800Y466871D01*
X821934Y466113D01*
X822300Y466040D01*
Y475150D01*
Y484260D01*
X821934Y484187D01*
X820800Y483429D01*
X819666Y484187D01*
X818300Y484459D01*
X816934Y484187D01*
X815800Y483429D01*
X814666Y484187D01*
X813300Y484459D01*
X811934Y484187D01*
X810800Y483429D01*
X809666Y484187D01*
X808300Y484459D01*
X806934Y484187D01*
X805800Y483429D01*
X804666Y484187D01*
X803300Y484459D01*
X801934Y484187D01*
X800800Y483429D01*
X799666Y484187D01*
X799300Y484260D01*
Y475150D01*
X797300D01*
Y484260D01*
X796934Y484187D01*
X795800Y483429D01*
X794666Y484187D01*
X793300Y484459D01*
X791934Y484187D01*
X790800Y483429D01*
X789666Y484187D01*
X788300Y484459D01*
X786934Y484187D01*
X785800Y483429D01*
X784666Y484187D01*
X783300Y484459D01*
X781934Y484187D01*
X780800Y483429D01*
X779666Y484187D01*
X778300Y484459D01*
X776934Y484187D01*
X775800Y483429D01*
X774666Y484187D01*
X774300Y484260D01*
Y475150D01*
X772300D01*
Y484260D01*
X771934Y484187D01*
X770800Y483429D01*
X769666Y484187D01*
X768300Y484459D01*
X766934Y484187D01*
X765800Y483429D01*
X764666Y484187D01*
X763300Y484459D01*
X761934Y484187D01*
X760800Y483429D01*
X759666Y484187D01*
X758300Y484459D01*
X756934Y484187D01*
X755800Y483429D01*
X754666Y484187D01*
X753300Y484459D01*
X751934Y484187D01*
X750777Y483413D01*
X750003Y482256D01*
X749732Y480890D01*
Y469410D01*
X749773Y469199D01*
X748219Y467645D01*
X748000Y467688D01*
X746244Y467339D01*
X744756Y466344D01*
X743761Y464856D01*
X743412Y463100D01*
X742382Y461845D01*
X517353D01*
X515712Y462712D01*
X512694Y465189D01*
X509251Y467030D01*
X505514Y468163D01*
X501629Y468546D01*
Y468545D01*
X498950D01*
X498826Y469170D01*
X498163Y470163D01*
X494559Y473767D01*
Y488287D01*
X496559Y489115D01*
X497337Y488337D01*
X498330Y487674D01*
X499500Y487441D01*
X499500Y487441D01*
X509500D01*
X509500Y487441D01*
X509974Y487536D01*
X511492Y486337D01*
X511702Y485995D01*
X511518Y484600D01*
X511844Y482120D01*
X512802Y479809D01*
X514324Y477825D01*
X516309Y476302D01*
X518620Y475345D01*
X521100Y475018D01*
X523580Y475345D01*
X525891Y476302D01*
X527875Y477825D01*
X529398Y479809D01*
X530355Y482120D01*
X530682Y484600D01*
X530355Y487080D01*
X529398Y489391D01*
X528899Y490041D01*
X529885Y492041D01*
X537715D01*
X538701Y490041D01*
X538202Y489391D01*
X537244Y487080D01*
X536918Y484600D01*
X537244Y482120D01*
X538202Y479809D01*
X539725Y477825D01*
X541709Y476302D01*
X544020Y475345D01*
X546500Y475018D01*
X548980Y475345D01*
X551291Y476302D01*
X553275Y477825D01*
X554798Y479809D01*
X555756Y482120D01*
X556082Y484600D01*
X555756Y487080D01*
X554798Y489391D01*
X554299Y490041D01*
X555285Y492041D01*
X563115D01*
X564101Y490041D01*
X563602Y489391D01*
X562645Y487080D01*
X562318Y484600D01*
X562645Y482120D01*
X563602Y479809D01*
X565125Y477825D01*
X567109Y476302D01*
X569420Y475345D01*
X571900Y475018D01*
X574380Y475345D01*
X576691Y476302D01*
X578675Y477825D01*
X580198Y479809D01*
X581156Y482120D01*
X581482Y484600D01*
X581156Y487080D01*
X580198Y489391D01*
X579699Y490041D01*
X580686Y492041D01*
X588515D01*
X589501Y490041D01*
X589002Y489391D01*
X588045Y487080D01*
X587718Y484600D01*
X588045Y482120D01*
X589002Y479809D01*
X590524Y477825D01*
X592509Y476302D01*
X594820Y475345D01*
X597300Y475018D01*
X599780Y475345D01*
X602091Y476302D01*
X604075Y477825D01*
X605598Y479809D01*
X606555Y482120D01*
X606882Y484600D01*
X606555Y487080D01*
X605598Y489391D01*
X605099Y490041D01*
X606086Y492041D01*
X613914D01*
X614901Y490041D01*
X614402Y489391D01*
X613445Y487080D01*
X613118Y484600D01*
X613445Y482120D01*
X614402Y479809D01*
X615924Y477825D01*
X617909Y476302D01*
X620220Y475345D01*
X622700Y475018D01*
X625180Y475345D01*
X627491Y476302D01*
X629475Y477825D01*
X630998Y479809D01*
X631955Y482120D01*
X632282Y484600D01*
X631955Y487080D01*
X630998Y489391D01*
X630499Y490041D01*
X631485Y492041D01*
X633200D01*
X633200Y492041D01*
X634370Y492274D01*
X635363Y492937D01*
X643888Y501462D01*
X645620Y500745D01*
X648100Y500418D01*
X650580Y500745D01*
X652891Y501702D01*
X654875Y503225D01*
X656398Y505209D01*
X657355Y507520D01*
X657682Y510000D01*
X657355Y512480D01*
X656398Y514791D01*
X654875Y516776D01*
X652891Y518298D01*
X650580Y519255D01*
X648100Y519582D01*
X645620Y519255D01*
X643309Y518298D01*
X641324Y516776D01*
X639802Y514791D01*
X638844Y512480D01*
X638518Y510000D01*
X638844Y507520D01*
X639562Y505788D01*
X631933Y498159D01*
X617798D01*
X617032Y500007D01*
X618488Y501462D01*
X620220Y500745D01*
X622700Y500418D01*
X625180Y500745D01*
X627491Y501702D01*
X629475Y503225D01*
X630998Y505209D01*
X631955Y507520D01*
X632282Y510000D01*
X631955Y512480D01*
X630998Y514791D01*
X629475Y516776D01*
X627491Y518298D01*
X625180Y519255D01*
X622700Y519582D01*
X620220Y519255D01*
X617909Y518298D01*
X615924Y516776D01*
X614402Y514791D01*
X613445Y512480D01*
X613118Y510000D01*
X613445Y507520D01*
X614162Y505788D01*
X610533Y502159D01*
X605779D01*
X604792Y504159D01*
X605598Y505209D01*
X606555Y507520D01*
X606882Y510000D01*
X606555Y512480D01*
X605598Y514791D01*
X604075Y516776D01*
X602091Y518298D01*
X599780Y519255D01*
X597300Y519582D01*
X594820Y519255D01*
X592509Y518298D01*
X590524Y516776D01*
X589002Y514791D01*
X588045Y512480D01*
X587718Y510000D01*
X588045Y507520D01*
X589002Y505209D01*
X589808Y504159D01*
X588821Y502159D01*
X580379D01*
X579392Y504159D01*
X580198Y505209D01*
X581156Y507520D01*
X581482Y510000D01*
X581156Y512480D01*
X580198Y514791D01*
X578675Y516776D01*
X576691Y518298D01*
X574380Y519255D01*
X571900Y519582D01*
X569420Y519255D01*
X567109Y518298D01*
X565125Y516776D01*
X563602Y514791D01*
X562645Y512480D01*
X562318Y510000D01*
X562645Y507520D01*
X563602Y505209D01*
X564408Y504159D01*
X563421Y502159D01*
X554979D01*
X553992Y504159D01*
X554798Y505209D01*
X555756Y507520D01*
X556082Y510000D01*
X555756Y512480D01*
X554798Y514791D01*
X553275Y516776D01*
X551291Y518298D01*
X548980Y519255D01*
X546500Y519582D01*
X544020Y519255D01*
X541709Y518298D01*
X539725Y516776D01*
X538202Y514791D01*
X537244Y512480D01*
X536918Y510000D01*
X537244Y507520D01*
X538202Y505209D01*
X539008Y504159D01*
X538021Y502159D01*
X529579D01*
X528592Y504159D01*
X529398Y505209D01*
X530355Y507520D01*
X530682Y510000D01*
X530355Y512480D01*
X529398Y514791D01*
X527875Y516776D01*
X525891Y518298D01*
X523580Y519255D01*
X521100Y519582D01*
X518620Y519255D01*
X516309Y518298D01*
X514324Y516776D01*
X512802Y514791D01*
X511844Y512480D01*
X511518Y510000D01*
X511844Y507520D01*
X512802Y505209D01*
X513608Y504159D01*
X512621Y502159D01*
X508100D01*
X508100Y502159D01*
X506930Y501926D01*
X505937Y501263D01*
X505219Y500545D01*
X505000Y500588D01*
X503244Y500239D01*
X501756Y499244D01*
X500244Y498244D01*
X498756Y499239D01*
X497000Y499588D01*
X496559Y499500D01*
X494559Y501003D01*
Y505919D01*
X506163Y517523D01*
X506826Y518516D01*
X507059Y519686D01*
X507059Y519687D01*
Y533560D01*
X507658Y534738D01*
X508846Y535580D01*
X509543Y535719D01*
X509923Y535657D01*
X511623Y534603D01*
X511844Y532920D01*
X512802Y530609D01*
X514324Y528625D01*
X516309Y527102D01*
X518620Y526145D01*
X521100Y525818D01*
X523580Y526145D01*
X525891Y527102D01*
X527875Y528625D01*
X529398Y530609D01*
X530355Y532920D01*
X530682Y535400D01*
X530355Y537880D01*
X529398Y540191D01*
X528055Y541941D01*
X528271Y542885D01*
X528860Y543941D01*
X538740D01*
X539329Y542885D01*
X539545Y541941D01*
X538202Y540191D01*
X537244Y537880D01*
X536918Y535400D01*
X537244Y532920D01*
X538202Y530609D01*
X539725Y528625D01*
X541709Y527102D01*
X544020Y526145D01*
X546500Y525818D01*
X548980Y526145D01*
X551291Y527102D01*
X553275Y528625D01*
X554798Y530609D01*
X555756Y532920D01*
X556082Y535400D01*
X555756Y537880D01*
X554798Y540191D01*
X553455Y541941D01*
X553671Y542885D01*
X554260Y543941D01*
X559033D01*
X563362Y539612D01*
X562645Y537880D01*
X562318Y535400D01*
X562645Y532920D01*
X563602Y530609D01*
X565125Y528625D01*
X567109Y527102D01*
X569420Y526145D01*
X571900Y525818D01*
X574380Y526145D01*
X576691Y527102D01*
X578675Y528625D01*
X579091Y529167D01*
X581542Y529075D01*
X581756Y528756D01*
X583244Y527761D01*
X585000Y527412D01*
X586756Y527761D01*
X588244Y528756D01*
X590522Y528625D01*
X590549Y528605D01*
X592509Y527102D01*
X594820Y526145D01*
X597300Y525818D01*
X599780Y526145D01*
X602091Y527102D01*
X604075Y528625D01*
X605598Y530609D01*
X606555Y532920D01*
X606882Y535400D01*
X606555Y537880D01*
X605598Y540191D01*
X604075Y542175D01*
X602091Y543698D01*
X599780Y544655D01*
X597300Y544982D01*
X594820Y544655D01*
X592509Y543698D01*
X590524Y542175D01*
X589002Y540191D01*
X588045Y537880D01*
X588011Y537623D01*
X585835Y536422D01*
X585000Y536588D01*
X583385Y536267D01*
X583190Y536268D01*
X581232Y537300D01*
X581156Y537880D01*
X580198Y540191D01*
X578675Y542175D01*
X576691Y543698D01*
X574380Y544655D01*
X571900Y544982D01*
X569420Y544655D01*
X567688Y543938D01*
X562463Y549163D01*
X561471Y549826D01*
X560300Y550059D01*
X560300Y550059D01*
X515000D01*
X513829Y549826D01*
X512837Y549163D01*
X508219Y544545D01*
X508000Y544588D01*
X506244Y544239D01*
X504756Y543244D01*
X503761Y541756D01*
X503753Y541715D01*
X501583Y541057D01*
X489487Y553152D01*
X490253Y555000D01*
X744370D01*
X745611Y553000D01*
X745412Y552000D01*
X745704Y550529D01*
X744244Y550239D01*
X742756Y549244D01*
X742392Y548699D01*
X742337Y548663D01*
X741674Y547671D01*
X741441Y546500D01*
X741476Y546324D01*
X741412Y546000D01*
X741761Y544244D01*
X742756Y542756D01*
X744244Y541761D01*
X746000Y541412D01*
X747756Y541761D01*
X749732Y540676D01*
Y531210D01*
X750003Y529844D01*
X750777Y528687D01*
X751934Y527913D01*
X753300Y527641D01*
X754666Y527913D01*
X755800Y528671D01*
X756934Y527913D01*
X758300Y527641D01*
X759666Y527913D01*
X760800Y528671D01*
X761934Y527913D01*
X763300Y527641D01*
X764666Y527913D01*
X765800Y528671D01*
X766934Y527913D01*
X768300Y527641D01*
X769666Y527913D01*
X770800Y528671D01*
X771934Y527913D01*
X772300Y527840D01*
Y536950D01*
X774300D01*
Y527840D01*
X774666Y527913D01*
X775800Y528671D01*
X776934Y527913D01*
X778300Y527641D01*
X779666Y527913D01*
X780800Y528671D01*
X781934Y527913D01*
X783300Y527641D01*
X784666Y527913D01*
X785800Y528671D01*
X786934Y527913D01*
X788300Y527641D01*
X789666Y527913D01*
X790800Y528671D01*
X791934Y527913D01*
X793300Y527641D01*
X794666Y527913D01*
X795800Y528671D01*
X796934Y527913D01*
X797300Y527840D01*
Y536950D01*
X799300D01*
Y527840D01*
X799666Y527913D01*
X800800Y528671D01*
X801934Y527913D01*
X803300Y527641D01*
X804666Y527913D01*
X805800Y528671D01*
X806934Y527913D01*
X808300Y527641D01*
X809666Y527913D01*
X810800Y528671D01*
X811934Y527913D01*
X813300Y527641D01*
X814666Y527913D01*
X815800Y528671D01*
X816934Y527913D01*
X818300Y527641D01*
X819666Y527913D01*
X820800Y528671D01*
X821934Y527913D01*
X822300Y527840D01*
Y536950D01*
Y546060D01*
X821934Y545987D01*
X820800Y545229D01*
X819666Y545987D01*
X818300Y546259D01*
X816934Y545987D01*
X815800Y545229D01*
X814666Y545987D01*
X813300Y546259D01*
X811934Y545987D01*
X810800Y545229D01*
X809666Y545987D01*
X808300Y546259D01*
X806934Y545987D01*
X805800Y545229D01*
X804666Y545987D01*
X803902Y546139D01*
X803105Y546667D01*
X802412Y548121D01*
X802587Y548999D01*
X802237Y550755D01*
X801243Y552243D01*
X800110Y553000D01*
X800329Y554709D01*
X800443Y555000D01*
X977250Y555000D01*
X977950Y553290D01*
X977950Y553000D01*
Y522290D01*
X1041950D01*
Y552221D01*
X1043950Y553050D01*
X1215000Y382000D01*
X1215000Y178000D01*
X1043950Y6950D01*
X1041950Y7778D01*
Y37710D01*
X977950D01*
Y7000D01*
X977250Y5000D01*
X800443D01*
X800329Y5292D01*
X800110Y7000D01*
X801243Y7757D01*
X802237Y9245D01*
X802587Y11001D01*
X802412Y11879D01*
X803105Y13333D01*
X803902Y13861D01*
X804666Y14013D01*
X805800Y14771D01*
X806934Y14013D01*
X808300Y13742D01*
X809666Y14013D01*
X810800Y14771D01*
X811934Y14013D01*
X813300Y13742D01*
X814666Y14013D01*
X815800Y14771D01*
X816934Y14013D01*
X818300Y13742D01*
X819666Y14013D01*
X820800Y14771D01*
X821934Y14013D01*
X822300Y13940D01*
Y23050D01*
Y32160D01*
X821934Y32087D01*
X820800Y31329D01*
X819666Y32087D01*
X818300Y32359D01*
X816934Y32087D01*
X815800Y31329D01*
X814666Y32087D01*
X813300Y32359D01*
X811934Y32087D01*
X810800Y31329D01*
X809666Y32087D01*
X808300Y32359D01*
X806934Y32087D01*
X805800Y31329D01*
X804666Y32087D01*
X803300Y32359D01*
X801934Y32087D01*
X800800Y31329D01*
X799666Y32087D01*
X799300Y32160D01*
Y23050D01*
X797300D01*
Y32160D01*
X796934Y32087D01*
X795800Y31329D01*
X794666Y32087D01*
X793300Y32359D01*
X792932Y32285D01*
X792642Y32450D01*
X791377Y33937D01*
X791588Y35000D01*
X791239Y36756D01*
X790244Y38244D01*
X788756Y39239D01*
X787000Y39588D01*
X785244Y39239D01*
X783756Y38244D01*
X783632Y38059D01*
X781000D01*
X779829Y37826D01*
X778837Y37163D01*
X778837Y37163D01*
X776137Y34463D01*
X775474Y33471D01*
X774798Y32313D01*
X774300Y32328D01*
Y23050D01*
X772300D01*
Y32160D01*
X771934Y32087D01*
X770800Y31329D01*
X769666Y32087D01*
X768300Y32359D01*
X766934Y32087D01*
X765800Y31329D01*
X764666Y32087D01*
X763300Y32359D01*
X761934Y32087D01*
X760800Y31329D01*
X759666Y32087D01*
X758300Y32359D01*
X756934Y32087D01*
X755800Y31329D01*
X754666Y32087D01*
X753300Y32359D01*
X751934Y32087D01*
X750777Y31313D01*
X750003Y30156D01*
X749732Y28790D01*
Y17310D01*
X749773Y17099D01*
X748219Y15545D01*
X748000Y15588D01*
X746244Y15239D01*
X744756Y14244D01*
X743761Y12756D01*
X743412Y11000D01*
X743761Y9244D01*
X744756Y7756D01*
X745887Y7000D01*
X745663Y5278D01*
X745554Y5000D01*
X414145Y5000D01*
X413076Y7000D01*
X413239Y7244D01*
X413588Y9000D01*
X413545Y9219D01*
X413663Y9337D01*
X413663Y9337D01*
X414326Y10330D01*
X414559Y11500D01*
Y12175D01*
X415500Y12935D01*
Y23050D01*
Y32160D01*
X415134Y32087D01*
X414000Y31329D01*
X412866Y32087D01*
X411500Y32359D01*
X410134Y32087D01*
X409000Y31329D01*
X407866Y32087D01*
X406500Y32359D01*
X405134Y32087D01*
X404000Y31329D01*
X402866Y32087D01*
X401500Y32359D01*
X399559Y33925D01*
Y45233D01*
X407267Y52941D01*
X491000D01*
X491000Y52941D01*
X492170Y53174D01*
X493163Y53837D01*
X503163Y63837D01*
X503163Y63837D01*
X503826Y64830D01*
X504059Y66000D01*
Y130000D01*
X504059Y130000D01*
X503826Y131171D01*
X503666Y131411D01*
X505107Y132852D01*
X505244Y132761D01*
X507000Y132412D01*
X508756Y132761D01*
X508935Y132881D01*
X510500Y133633D01*
X512065Y132881D01*
X512244Y132761D01*
X514000Y132412D01*
X515756Y132761D01*
X517244Y133756D01*
X518239Y135244D01*
X518588Y137000D01*
X518239Y138756D01*
X517244Y140244D01*
X515756Y141239D01*
X514000Y141588D01*
X512244Y141239D01*
X512065Y141119D01*
X510500Y140367D01*
X508935Y141119D01*
X508756Y141239D01*
X507000Y141588D01*
X505244Y141239D01*
X503756Y140244D01*
X502761Y138756D01*
X502412Y137000D01*
X500813Y134964D01*
X500435Y134891D01*
X458059Y177267D01*
Y201067D01*
X459287Y201575D01*
X461062Y202938D01*
X462425Y204713D01*
X463281Y206781D01*
X463573Y209000D01*
X463281Y211219D01*
X462425Y213287D01*
X461062Y215062D01*
X459287Y216425D01*
X457219Y217281D01*
X455000Y217573D01*
X452781Y217281D01*
X450713Y216425D01*
X448938Y215062D01*
X447575Y213287D01*
X446719Y211219D01*
X446427Y209000D01*
X446719Y206781D01*
X447575Y204713D01*
X448938Y202938D01*
X450713Y201575D01*
X451941Y201067D01*
Y178998D01*
X450093Y178232D01*
X422773Y205553D01*
X423281Y206781D01*
X423573Y209000D01*
X423281Y211219D01*
X422425Y213287D01*
X421062Y215062D01*
X419287Y216425D01*
X417219Y217281D01*
X415000Y217573D01*
X412781Y217281D01*
X410713Y216425D01*
X408938Y215062D01*
X407575Y213287D01*
X406719Y211219D01*
X406427Y209000D01*
X406719Y206781D01*
X407575Y204713D01*
X408938Y202938D01*
X410713Y201575D01*
X412781Y200719D01*
X415000Y200427D01*
X417219Y200719D01*
X418447Y201227D01*
X492941Y126733D01*
Y80609D01*
X492505Y80253D01*
X490941Y79719D01*
X489931Y80494D01*
X488208Y81208D01*
X486360Y81451D01*
X484512Y81208D01*
X482789Y80494D01*
X481311Y79359D01*
X481059Y79031D01*
X479059Y79710D01*
Y98733D01*
X484163Y103837D01*
X484826Y104830D01*
X485059Y106000D01*
X485059Y106000D01*
Y122000D01*
X484826Y123171D01*
X484163Y124163D01*
X402773Y205553D01*
X403281Y206781D01*
X403573Y209000D01*
X403281Y211219D01*
X402425Y213287D01*
X401062Y215062D01*
X399287Y216425D01*
X397219Y217281D01*
X395000Y217573D01*
X392781Y217281D01*
X390713Y216425D01*
X388938Y215062D01*
X387575Y213287D01*
X386719Y211219D01*
X386427Y209000D01*
X386719Y206781D01*
X387575Y204713D01*
X388938Y202938D01*
X390713Y201575D01*
X392781Y200719D01*
X395000Y200427D01*
X397219Y200719D01*
X398447Y201227D01*
X477821Y121853D01*
X477685Y120938D01*
X477618Y120814D01*
X475528Y119483D01*
X475000Y119588D01*
X473244Y119239D01*
X471756Y118244D01*
X471632Y118059D01*
X470000D01*
X470000Y118059D01*
X468829Y117826D01*
X467837Y117163D01*
X458837Y108163D01*
X458174Y107171D01*
X457941Y106000D01*
X457941Y106000D01*
Y95911D01*
X456500Y94159D01*
X455134Y93887D01*
X454000Y93129D01*
X452866Y93887D01*
X451500Y94159D01*
X450134Y93887D01*
X449000Y93129D01*
X447866Y93887D01*
X446500Y94159D01*
X445134Y93887D01*
X444000Y93129D01*
X442866Y93887D01*
X442500Y93960D01*
Y84850D01*
Y75740D01*
X442866Y75813D01*
X444000Y76571D01*
X445134Y75813D01*
X446500Y75542D01*
X447866Y75813D01*
X449000Y76571D01*
X450134Y75813D01*
X451500Y75542D01*
X452866Y75813D01*
X454000Y76571D01*
X455134Y75813D01*
X456500Y75542D01*
X457866Y75813D01*
X459000Y76571D01*
X460134Y75813D01*
X461500Y75542D01*
X462866Y75813D01*
X463247Y76068D01*
X463977Y74977D01*
X464526Y74428D01*
X464761Y73244D01*
X465756Y71756D01*
X466799Y71059D01*
X466331Y69059D01*
X400000D01*
X400000Y69059D01*
X398829Y68826D01*
X397837Y68163D01*
X369337Y39663D01*
X368674Y38671D01*
X368441Y37500D01*
X368441Y37500D01*
Y33925D01*
X367500Y33165D01*
Y23050D01*
Y13940D01*
X367866Y14013D01*
X369000Y14771D01*
X370134Y14013D01*
X371500Y13742D01*
X372866Y14013D01*
X374000Y14771D01*
X375134Y14013D01*
X376500Y13742D01*
X377866Y14013D01*
X379000Y14771D01*
X380134Y14013D01*
X380500Y13940D01*
Y23050D01*
X382500D01*
Y13940D01*
X382866Y14013D01*
X384000Y14771D01*
X385134Y14013D01*
X386500Y13742D01*
X387866Y14013D01*
X389000Y14771D01*
X390134Y14013D01*
X390500Y13940D01*
Y23050D01*
X392500D01*
Y13940D01*
X392866Y14013D01*
X394000Y14771D01*
X395134Y14013D01*
X396500Y13742D01*
X396539Y13749D01*
X396996Y13183D01*
X397530Y11907D01*
X396761Y10756D01*
X396412Y9000D01*
X396761Y7244D01*
X396924Y7000D01*
X395855Y5000D01*
X242550D01*
X241850Y6710D01*
X241850Y7000D01*
Y37710D01*
X177850D01*
Y7000D01*
X177840Y6970D01*
X176246Y5754D01*
X5000Y177000D01*
X5000Y383000D01*
X176246Y554246D01*
X177850Y553022D01*
Y489290D01*
X241850D01*
Y553000D01*
X242550Y555000D01*
X342855D01*
D02*
G37*
G36*
X473244Y110761D02*
X475000Y110412D01*
X476756Y110761D01*
X476941Y110885D01*
X478941Y109816D01*
Y107267D01*
X473837Y102163D01*
X473174Y101171D01*
X472941Y100000D01*
X472941Y100000D01*
Y81526D01*
X470941Y80393D01*
X470069Y80916D01*
Y90590D01*
X469797Y91956D01*
X469023Y93113D01*
X467866Y93887D01*
X466500Y94159D01*
X466059Y94071D01*
X464059Y95391D01*
Y104733D01*
X470044Y110718D01*
X471756Y111756D01*
X473244Y110761D01*
D02*
G37*
%LPC*%
G36*
X898300Y546259D02*
X896934Y545987D01*
X895800Y545229D01*
X894666Y545987D01*
X893300Y546259D01*
X891934Y545987D01*
X890800Y545229D01*
X889666Y545987D01*
X888300Y546259D01*
X886934Y545987D01*
X885800Y545229D01*
X884666Y545987D01*
X883300Y546259D01*
X881934Y545987D01*
X880800Y545229D01*
X879666Y545987D01*
X878300Y546259D01*
X876934Y545987D01*
X875800Y545229D01*
X874666Y545987D01*
X874300Y546060D01*
Y536950D01*
Y527840D01*
X874666Y527913D01*
X875800Y528671D01*
X876934Y527913D01*
X878300Y527641D01*
X879666Y527913D01*
X880800Y528671D01*
X881934Y527913D01*
X883300Y527641D01*
X884666Y527913D01*
X885800Y528671D01*
X886934Y527913D01*
X888300Y527641D01*
X889666Y527913D01*
X890800Y528671D01*
X891934Y527913D01*
X893300Y527641D01*
X894666Y527913D01*
X895800Y528671D01*
X896934Y527913D01*
X898300Y527641D01*
X899666Y527913D01*
X900823Y528687D01*
X901597Y529844D01*
X901869Y531210D01*
Y542690D01*
X901597Y544056D01*
X900823Y545213D01*
X899666Y545987D01*
X898300Y546259D01*
D02*
G37*
G36*
X868300D02*
X866934Y545987D01*
X865800Y545229D01*
X864666Y545987D01*
X863300Y546259D01*
X861934Y545987D01*
X860800Y545229D01*
X859666Y545987D01*
X858300Y546259D01*
X856934Y545987D01*
X855800Y545229D01*
X854666Y545987D01*
X853300Y546259D01*
X851934Y545987D01*
X850800Y545229D01*
X849666Y545987D01*
X849300Y546060D01*
Y536950D01*
Y527840D01*
X849666Y527913D01*
X850800Y528671D01*
X851934Y527913D01*
X853300Y527641D01*
X854666Y527913D01*
X855800Y528671D01*
X856934Y527913D01*
X858300Y527641D01*
X859666Y527913D01*
X860800Y528671D01*
X861934Y527913D01*
X863300Y527641D01*
X864666Y527913D01*
X865800Y528671D01*
X866934Y527913D01*
X868300Y527641D01*
X869666Y527913D01*
X870800Y528671D01*
X871934Y527913D01*
X872300Y527840D01*
Y536950D01*
Y546060D01*
X871934Y545987D01*
X870800Y545229D01*
X869666Y545987D01*
X868300Y546259D01*
D02*
G37*
G36*
X843300D02*
X841934Y545987D01*
X840800Y545229D01*
X839666Y545987D01*
X838300Y546259D01*
X836934Y545987D01*
X835800Y545229D01*
X834666Y545987D01*
X833300Y546259D01*
X831934Y545987D01*
X830800Y545229D01*
X829666Y545987D01*
X828300Y546259D01*
X826934Y545987D01*
X825800Y545229D01*
X824666Y545987D01*
X824300Y546060D01*
Y536950D01*
Y527840D01*
X824666Y527913D01*
X825800Y528671D01*
X826934Y527913D01*
X828300Y527641D01*
X829666Y527913D01*
X830800Y528671D01*
X831934Y527913D01*
X833300Y527641D01*
X834666Y527913D01*
X835800Y528671D01*
X836934Y527913D01*
X838300Y527641D01*
X839666Y527913D01*
X840800Y528671D01*
X841934Y527913D01*
X843300Y527641D01*
X844666Y527913D01*
X845800Y528671D01*
X846934Y527913D01*
X847300Y527840D01*
Y536950D01*
Y546060D01*
X846934Y545987D01*
X845800Y545229D01*
X844666Y545987D01*
X843300Y546259D01*
D02*
G37*
G36*
X673500Y544982D02*
X671020Y544655D01*
X668709Y543698D01*
X666724Y542175D01*
X665202Y540191D01*
X664245Y537880D01*
X663918Y535400D01*
X664245Y532920D01*
X665202Y530609D01*
X666724Y528625D01*
X668709Y527102D01*
X671020Y526145D01*
X673500Y525818D01*
X675980Y526145D01*
X678291Y527102D01*
X680275Y528625D01*
X681798Y530609D01*
X682756Y532920D01*
X683082Y535400D01*
X682756Y537880D01*
X681798Y540191D01*
X680275Y542175D01*
X678291Y543698D01*
X675980Y544655D01*
X673500Y544982D01*
D02*
G37*
G36*
X648100D02*
X645620Y544655D01*
X643309Y543698D01*
X641324Y542175D01*
X639802Y540191D01*
X638844Y537880D01*
X638518Y535400D01*
X638844Y532920D01*
X639802Y530609D01*
X641324Y528625D01*
X643309Y527102D01*
X645620Y526145D01*
X648100Y525818D01*
X650580Y526145D01*
X652891Y527102D01*
X654875Y528625D01*
X656398Y530609D01*
X657355Y532920D01*
X657682Y535400D01*
X657355Y537880D01*
X656398Y540191D01*
X654875Y542175D01*
X652891Y543698D01*
X650580Y544655D01*
X648100Y544982D01*
D02*
G37*
G36*
X622700D02*
X620220Y544655D01*
X617909Y543698D01*
X615924Y542175D01*
X614402Y540191D01*
X613445Y537880D01*
X613118Y535400D01*
X613445Y532920D01*
X614402Y530609D01*
X615924Y528625D01*
X617909Y527102D01*
X620220Y526145D01*
X622700Y525818D01*
X625180Y526145D01*
X627491Y527102D01*
X629475Y528625D01*
X630998Y530609D01*
X631955Y532920D01*
X632282Y535400D01*
X631955Y537880D01*
X630998Y540191D01*
X629475Y542175D01*
X627491Y543698D01*
X625180Y544655D01*
X622700Y544982D01*
D02*
G37*
G36*
X918160Y533551D02*
X916312Y533308D01*
X914589Y532594D01*
X913111Y531460D01*
X911976Y529981D01*
X911262Y528258D01*
X911019Y526410D01*
X911262Y524562D01*
X911976Y522839D01*
X913111Y521361D01*
X914589Y520226D01*
X916312Y519512D01*
X918160Y519269D01*
X920008Y519512D01*
X921731Y520226D01*
X923210Y521361D01*
X924344Y522839D01*
X925058Y524562D01*
X925301Y526410D01*
X925058Y528258D01*
X924344Y529981D01*
X923210Y531460D01*
X921731Y532594D01*
X920008Y533308D01*
X918160Y533551D01*
D02*
G37*
G36*
X733440D02*
X731592Y533308D01*
X729870Y532594D01*
X728391Y531460D01*
X727256Y529981D01*
X726542Y528258D01*
X726299Y526410D01*
X726542Y524562D01*
X727256Y522839D01*
X728391Y521361D01*
X729870Y520226D01*
X731592Y519512D01*
X733440Y519269D01*
X735288Y519512D01*
X737011Y520226D01*
X738490Y521361D01*
X739624Y522839D01*
X740338Y524562D01*
X740581Y526410D01*
X740338Y528258D01*
X739624Y529981D01*
X738490Y531460D01*
X737011Y532594D01*
X735288Y533308D01*
X733440Y533551D01*
D02*
G37*
G36*
X698900Y519582D02*
X696420Y519255D01*
X694109Y518298D01*
X692124Y516776D01*
X690602Y514791D01*
X689644Y512480D01*
X689318Y510000D01*
X689644Y507520D01*
X690602Y505209D01*
X692124Y503225D01*
X694109Y501702D01*
X696420Y500745D01*
X698900Y500418D01*
X701380Y500745D01*
X703691Y501702D01*
X705675Y503225D01*
X707198Y505209D01*
X708156Y507520D01*
X708482Y510000D01*
X708156Y512480D01*
X707198Y514791D01*
X705675Y516776D01*
X703691Y518298D01*
X701380Y519255D01*
X698900Y519582D01*
D02*
G37*
G36*
X673500D02*
X671020Y519255D01*
X668709Y518298D01*
X666724Y516776D01*
X665202Y514791D01*
X664245Y512480D01*
X663918Y510000D01*
X664245Y507520D01*
X665202Y505209D01*
X666724Y503225D01*
X668709Y501702D01*
X671020Y500745D01*
X673500Y500418D01*
X675980Y500745D01*
X678291Y501702D01*
X680275Y503225D01*
X681798Y505209D01*
X682756Y507520D01*
X683082Y510000D01*
X682756Y512480D01*
X681798Y514791D01*
X680275Y516776D01*
X678291Y518298D01*
X675980Y519255D01*
X673500Y519582D01*
D02*
G37*
G36*
X1041950Y520290D02*
X1010950D01*
Y489290D01*
X1041950D01*
Y520290D01*
D02*
G37*
G36*
X1008950D02*
X977950D01*
Y489290D01*
X1008950D01*
Y520290D01*
D02*
G37*
G36*
X674500Y494050D02*
Y485600D01*
X682950D01*
X682756Y487080D01*
X681798Y489391D01*
X680275Y491376D01*
X678291Y492898D01*
X675980Y493856D01*
X674500Y494050D01*
D02*
G37*
G36*
X672500D02*
X671020Y493856D01*
X668709Y492898D01*
X666724Y491376D01*
X665202Y489391D01*
X664245Y487080D01*
X664050Y485600D01*
X672500D01*
Y494050D01*
D02*
G37*
G36*
X898300Y484459D02*
X896934Y484187D01*
X895800Y483429D01*
X894666Y484187D01*
X893300Y484459D01*
X891934Y484187D01*
X890800Y483429D01*
X889666Y484187D01*
X888300Y484459D01*
X886934Y484187D01*
X885800Y483429D01*
X884666Y484187D01*
X883300Y484459D01*
X881934Y484187D01*
X880800Y483429D01*
X879666Y484187D01*
X878300Y484459D01*
X876934Y484187D01*
X875800Y483429D01*
X874666Y484187D01*
X874300Y484260D01*
Y475150D01*
Y466040D01*
X874666Y466113D01*
X875800Y466871D01*
X876934Y466113D01*
X878300Y465841D01*
X879666Y466113D01*
X880800Y466871D01*
X881934Y466113D01*
X883300Y465841D01*
X884666Y466113D01*
X885800Y466871D01*
X886934Y466113D01*
X888300Y465841D01*
X889666Y466113D01*
X890800Y466871D01*
X891934Y466113D01*
X893300Y465841D01*
X894666Y466113D01*
X895800Y466871D01*
X896934Y466113D01*
X898300Y465841D01*
X899666Y466113D01*
X900823Y466887D01*
X901597Y468044D01*
X901869Y469410D01*
Y480890D01*
X901597Y482256D01*
X900823Y483413D01*
X899666Y484187D01*
X898300Y484459D01*
D02*
G37*
G36*
X868300D02*
X866934Y484187D01*
X865800Y483429D01*
X864666Y484187D01*
X863300Y484459D01*
X861934Y484187D01*
X860800Y483429D01*
X859666Y484187D01*
X858300Y484459D01*
X856934Y484187D01*
X855800Y483429D01*
X854666Y484187D01*
X853300Y484459D01*
X851934Y484187D01*
X850800Y483429D01*
X849666Y484187D01*
X849300Y484260D01*
Y475150D01*
Y466040D01*
X849666Y466113D01*
X850800Y466871D01*
X851934Y466113D01*
X853300Y465841D01*
X854666Y466113D01*
X855800Y466871D01*
X856934Y466113D01*
X858300Y465841D01*
X859666Y466113D01*
X860800Y466871D01*
X861934Y466113D01*
X863300Y465841D01*
X864666Y466113D01*
X865800Y466871D01*
X866934Y466113D01*
X868300Y465841D01*
X869666Y466113D01*
X870800Y466871D01*
X871934Y466113D01*
X872300Y466040D01*
Y475150D01*
Y484260D01*
X871934Y484187D01*
X870800Y483429D01*
X869666Y484187D01*
X868300Y484459D01*
D02*
G37*
G36*
X843300D02*
X841934Y484187D01*
X840800Y483429D01*
X839666Y484187D01*
X838300Y484459D01*
X836934Y484187D01*
X835800Y483429D01*
X834666Y484187D01*
X833300Y484459D01*
X831934Y484187D01*
X830800Y483429D01*
X829666Y484187D01*
X828300Y484459D01*
X826934Y484187D01*
X825800Y483429D01*
X824666Y484187D01*
X824300Y484260D01*
Y475150D01*
Y466040D01*
X824666Y466113D01*
X825800Y466871D01*
X826934Y466113D01*
X828300Y465841D01*
X829666Y466113D01*
X830800Y466871D01*
X831934Y466113D01*
X833300Y465841D01*
X834666Y466113D01*
X835800Y466871D01*
X836934Y466113D01*
X838300Y465841D01*
X839666Y466113D01*
X840800Y466871D01*
X841934Y466113D01*
X843300Y465841D01*
X844666Y466113D01*
X845800Y466871D01*
X846934Y466113D01*
X847300Y466040D01*
Y475150D01*
Y484260D01*
X846934Y484187D01*
X845800Y483429D01*
X844666Y484187D01*
X843300Y484459D01*
D02*
G37*
G36*
X682950Y483600D02*
X674500D01*
Y475150D01*
X675980Y475345D01*
X678291Y476302D01*
X680275Y477825D01*
X681798Y479809D01*
X682756Y482120D01*
X682950Y483600D01*
D02*
G37*
G36*
X672500D02*
X664050D01*
X664245Y482120D01*
X665202Y479809D01*
X666724Y477825D01*
X668709Y476302D01*
X671020Y475345D01*
X672500Y475150D01*
Y483600D01*
D02*
G37*
G36*
X698900Y494182D02*
X696420Y493856D01*
X694109Y492898D01*
X692124Y491376D01*
X690602Y489391D01*
X689644Y487080D01*
X689318Y484600D01*
X689644Y482120D01*
X690602Y479809D01*
X692124Y477825D01*
X694109Y476302D01*
X696420Y475345D01*
X698900Y475018D01*
X701380Y475345D01*
X703691Y476302D01*
X705675Y477825D01*
X707198Y479809D01*
X708156Y482120D01*
X708482Y484600D01*
X708156Y487080D01*
X707198Y489391D01*
X705675Y491376D01*
X703691Y492898D01*
X701380Y493856D01*
X698900Y494182D01*
D02*
G37*
G36*
X648100D02*
X645620Y493856D01*
X643309Y492898D01*
X641324Y491376D01*
X639802Y489391D01*
X638844Y487080D01*
X638518Y484600D01*
X638844Y482120D01*
X639802Y479809D01*
X641324Y477825D01*
X643309Y476302D01*
X645620Y475345D01*
X648100Y475018D01*
X650580Y475345D01*
X652891Y476302D01*
X654875Y477825D01*
X656398Y479809D01*
X657355Y482120D01*
X657682Y484600D01*
X657355Y487080D01*
X656398Y489391D01*
X654875Y491376D01*
X652891Y492898D01*
X650580Y493856D01*
X648100Y494182D01*
D02*
G37*
G36*
X388000Y434588D02*
X386244Y434239D01*
X384756Y433244D01*
X383761Y431756D01*
X383412Y430000D01*
X383761Y428244D01*
X384683Y426864D01*
X383755Y426244D01*
X382760Y424755D01*
X382411Y422999D01*
X382760Y421243D01*
X383755Y419755D01*
X385243Y418760D01*
X386999Y418411D01*
X388755Y418760D01*
X390243Y419755D01*
X391238Y421243D01*
X391587Y422999D01*
X391238Y424755D01*
X390316Y426135D01*
X391244Y426756D01*
X392239Y428244D01*
X392588Y430000D01*
X392239Y431756D01*
X391244Y433244D01*
X389756Y434239D01*
X388000Y434588D01*
D02*
G37*
G36*
X345500Y397559D02*
X345500Y397559D01*
X339722D01*
X339722Y397559D01*
X338551Y397326D01*
X337559Y396663D01*
X331837Y390941D01*
X331174Y389949D01*
X330941Y388778D01*
X330941Y388778D01*
Y341000D01*
X330941Y341000D01*
X331174Y339829D01*
X331837Y338837D01*
X336455Y334219D01*
X336412Y334000D01*
X336761Y332244D01*
X337756Y330756D01*
X339244Y329761D01*
X341000Y329412D01*
X342756Y329761D01*
X344244Y330756D01*
X345239Y332244D01*
X345588Y334000D01*
X345239Y335756D01*
X344244Y337244D01*
X342756Y338239D01*
X341000Y338588D01*
X340781Y338545D01*
X337059Y342267D01*
Y384695D01*
X337882Y385210D01*
X339059Y385553D01*
X340244Y384761D01*
X342000Y384412D01*
X342941Y382716D01*
Y344000D01*
X342941Y344000D01*
X343174Y342830D01*
X343837Y341837D01*
X352455Y333219D01*
X352412Y333000D01*
X352761Y331244D01*
X353756Y329756D01*
X355244Y328761D01*
X357000Y328412D01*
X358756Y328761D01*
X360244Y329756D01*
X361239Y331244D01*
X361588Y333000D01*
X361239Y334756D01*
X360244Y336244D01*
X358756Y337239D01*
X357000Y337588D01*
X356781Y337545D01*
X349059Y345267D01*
Y382759D01*
X351000Y384412D01*
X352756Y384761D01*
X354244Y385756D01*
X355239Y387244D01*
X355588Y389000D01*
X355239Y390756D01*
X354244Y392244D01*
X352756Y393239D01*
X351000Y393588D01*
X350781Y393545D01*
X347663Y396663D01*
X346671Y397326D01*
X345500Y397559D01*
D02*
G37*
G36*
X1110000Y402608D02*
X1106737Y402178D01*
X1103696Y400919D01*
X1101085Y398915D01*
X1099081Y396304D01*
X1097822Y393263D01*
X1097392Y390000D01*
X1097822Y386737D01*
X1099081Y383696D01*
X1101085Y381085D01*
X1103696Y379081D01*
X1106737Y377822D01*
X1110000Y377392D01*
X1113263Y377822D01*
X1116304Y379081D01*
X1118915Y381085D01*
X1120919Y383696D01*
X1122178Y386737D01*
X1122608Y390000D01*
X1122178Y393263D01*
X1120919Y396304D01*
X1118915Y398915D01*
X1116304Y400919D01*
X1113263Y402178D01*
X1110000Y402608D01*
D02*
G37*
G36*
X373000Y385588D02*
X371244Y385239D01*
X369756Y384244D01*
X368761Y382756D01*
X368412Y381000D01*
X368761Y379244D01*
X369756Y377756D01*
X371244Y376761D01*
X373000Y376412D01*
X374756Y376761D01*
X376244Y377756D01*
X377239Y379244D01*
X377588Y381000D01*
X377239Y382756D01*
X376244Y384244D01*
X374756Y385239D01*
X373000Y385588D01*
D02*
G37*
G36*
X292000Y384588D02*
X290244Y384239D01*
X288756Y383244D01*
X287761Y381756D01*
X287412Y380000D01*
X287761Y378244D01*
X288756Y376756D01*
X290244Y375761D01*
X292000Y375412D01*
X293756Y375761D01*
X295244Y376756D01*
X296239Y378244D01*
X296588Y380000D01*
X296239Y381756D01*
X295244Y383244D01*
X293756Y384239D01*
X292000Y384588D01*
D02*
G37*
G36*
X555000Y380588D02*
X553244Y380239D01*
X551756Y379244D01*
X550761Y377756D01*
X550412Y376000D01*
X550761Y374244D01*
X551756Y372756D01*
X553244Y371761D01*
X555000Y371412D01*
X556756Y371761D01*
X558244Y372756D01*
X559239Y374244D01*
X559588Y376000D01*
X559239Y377756D01*
X558244Y379244D01*
X556756Y380239D01*
X555000Y380588D01*
D02*
G37*
G36*
X525000Y388112D02*
X521606Y387665D01*
X518444Y386355D01*
X515728Y384272D01*
X513644Y381556D01*
X512335Y378394D01*
X511888Y375000D01*
X512335Y371606D01*
X513644Y368444D01*
X515728Y365728D01*
X518444Y363644D01*
X521606Y362335D01*
X525000Y361888D01*
X528394Y362335D01*
X531556Y363644D01*
X534272Y365728D01*
X536356Y368444D01*
X537665Y371606D01*
X538112Y375000D01*
X537665Y378394D01*
X536356Y381556D01*
X534272Y384272D01*
X531556Y386355D01*
X528394Y387665D01*
X525000Y388112D01*
D02*
G37*
G36*
X467000Y368588D02*
X465244Y368239D01*
X463756Y367244D01*
X463632Y367059D01*
X463000D01*
X461829Y366826D01*
X460837Y366163D01*
X407219Y312545D01*
X407000Y312588D01*
X405244Y312239D01*
X403756Y311244D01*
X402761Y309756D01*
X402412Y308000D01*
X402455Y307781D01*
X366837Y272163D01*
X366174Y271171D01*
X365941Y270000D01*
X365941Y270000D01*
Y261267D01*
X358733Y254059D01*
X334000D01*
X332829Y253826D01*
X331837Y253163D01*
X331837Y253163D01*
X281219Y202545D01*
X281000Y202588D01*
X279244Y202239D01*
X277756Y201244D01*
X276761Y199756D01*
X276412Y198000D01*
X276761Y196244D01*
X277756Y194756D01*
X279244Y193761D01*
X281000Y193412D01*
X282756Y193761D01*
X284244Y194756D01*
X285239Y196244D01*
X285588Y198000D01*
X285545Y198219D01*
X335267Y247941D01*
X360000D01*
X360000Y247941D01*
X361171Y248174D01*
X362163Y248837D01*
X371163Y257837D01*
X371826Y258829D01*
X372059Y260000D01*
Y268733D01*
X406781Y303455D01*
X407000Y303412D01*
X408756Y303761D01*
X410244Y304756D01*
X411239Y306244D01*
X411588Y308000D01*
X411545Y308219D01*
X463951Y360625D01*
X465244Y359761D01*
X467000Y359412D01*
X468756Y359761D01*
X470244Y360756D01*
X471239Y362244D01*
X471588Y364000D01*
X471239Y365756D01*
X470244Y367244D01*
X468756Y368239D01*
X467000Y368588D01*
D02*
G37*
G36*
X811750Y404838D02*
X809994Y404489D01*
X808506Y403494D01*
X807511Y402006D01*
X807162Y400250D01*
X807511Y398494D01*
X808506Y397006D01*
X808691Y396882D01*
Y367870D01*
X807754Y367244D01*
X806759Y365755D01*
X806410Y363999D01*
X806759Y362243D01*
X807754Y360755D01*
X809243Y359760D01*
X810430Y359524D01*
X810580Y359424D01*
X811750Y359191D01*
X812921Y359424D01*
X813913Y360087D01*
X814576Y361079D01*
X814625Y361328D01*
X815237Y362243D01*
X815586Y363999D01*
X815237Y365755D01*
X814809Y366396D01*
Y396882D01*
X814994Y397006D01*
X815989Y398494D01*
X816338Y400250D01*
X815989Y402006D01*
X814994Y403494D01*
X813506Y404489D01*
X811750Y404838D01*
D02*
G37*
G36*
X608000Y370588D02*
X606244Y370239D01*
X604756Y369244D01*
X603761Y367756D01*
X603412Y366000D01*
X603761Y364244D01*
X604756Y362756D01*
X606244Y361761D01*
X608000Y361412D01*
X609756Y361761D01*
X611244Y362756D01*
X611702Y363441D01*
X634233D01*
X640625Y357049D01*
X639761Y355756D01*
X639412Y354000D01*
X639761Y352244D01*
X640756Y350756D01*
X642244Y349761D01*
X644000Y349412D01*
X645756Y349761D01*
X647244Y350756D01*
X648239Y352244D01*
X648588Y354000D01*
X648239Y355756D01*
X647244Y357244D01*
X647059Y357368D01*
Y358000D01*
X647059Y358000D01*
X646826Y359170D01*
X646163Y360163D01*
X637663Y368663D01*
X636670Y369326D01*
X635500Y369559D01*
X635500Y369559D01*
X610774D01*
X609756Y370239D01*
X608000Y370588D01*
D02*
G37*
G36*
X698900Y360588D02*
X697144Y360239D01*
X695656Y359244D01*
X694661Y357756D01*
X694312Y356000D01*
X694661Y354244D01*
X694735Y354134D01*
X695550Y352550D01*
X694735Y350966D01*
X694661Y350856D01*
X694312Y349100D01*
X694661Y347344D01*
X695656Y345856D01*
X697144Y344861D01*
X698900Y344512D01*
X700656Y344861D01*
X702144Y345856D01*
X703139Y347344D01*
X703488Y349100D01*
X703139Y350856D01*
X703065Y350966D01*
X702250Y352550D01*
X703065Y354134D01*
X703139Y354244D01*
X703488Y356000D01*
X703139Y357756D01*
X702144Y359244D01*
X700656Y360239D01*
X698900Y360588D01*
D02*
G37*
G36*
X849000Y315588D02*
X847244Y315239D01*
X845756Y314244D01*
X845632Y314059D01*
X796368D01*
X796244Y314244D01*
X794756Y315239D01*
X793000Y315588D01*
X791244Y315239D01*
X789756Y314244D01*
X788761Y312756D01*
X788412Y311000D01*
X788761Y309244D01*
X789756Y307756D01*
X789836Y306940D01*
X786837Y303941D01*
X786174Y302949D01*
X785941Y301778D01*
X785941Y301778D01*
Y299368D01*
X785756Y299244D01*
X784761Y297756D01*
X784412Y296000D01*
X784761Y294244D01*
X785756Y292756D01*
X787244Y291761D01*
X789000Y291412D01*
X790756Y291761D01*
X792244Y292756D01*
X793239Y294244D01*
X793529Y295704D01*
X795000Y295412D01*
X796756Y295761D01*
X798244Y296756D01*
X798368Y296941D01*
X994424D01*
X994761Y295244D01*
X995756Y293756D01*
X997244Y292761D01*
X999000Y292412D01*
X1000756Y292761D01*
X1002244Y293756D01*
X1003239Y295244D01*
X1003577Y296941D01*
X1093733D01*
X1147595Y243079D01*
X1147761Y242244D01*
X1148756Y240756D01*
X1150244Y239761D01*
X1152000Y239412D01*
X1153756Y239761D01*
X1155244Y240756D01*
X1156239Y242244D01*
X1156588Y244000D01*
X1156239Y245756D01*
X1155244Y247244D01*
Y248756D01*
X1156239Y250244D01*
X1156588Y252000D01*
X1156239Y253756D01*
X1155244Y255244D01*
X1153756Y256239D01*
X1152000Y256588D01*
X1151781Y256545D01*
X1100663Y307663D01*
X1099670Y308326D01*
X1098500Y308559D01*
X1098500Y308559D01*
X993950D01*
X993588Y309000D01*
X993239Y310756D01*
X992244Y312244D01*
X990756Y313239D01*
X989000Y313588D01*
X987244Y313239D01*
X985756Y312244D01*
X984761Y310756D01*
X984412Y309000D01*
X984050Y308559D01*
X855003D01*
X853500Y310559D01*
X853588Y311000D01*
X853239Y312756D01*
X852244Y314244D01*
X850756Y315239D01*
X849000Y315588D01*
D02*
G37*
G36*
X877000Y343078D02*
X778000D01*
X775650Y342768D01*
X773461Y341861D01*
X771581Y340419D01*
X741925Y310763D01*
X740078Y311528D01*
Y318000D01*
X739768Y320350D01*
X738861Y322539D01*
X737419Y324419D01*
X735539Y325862D01*
X733350Y326768D01*
X731000Y327078D01*
X728651Y326768D01*
X726461Y325862D01*
X724581Y324419D01*
X723139Y322539D01*
X722232Y320350D01*
X721922Y318000D01*
Y292000D01*
Y287000D01*
X722232Y284650D01*
X723139Y282461D01*
X724581Y280581D01*
X726461Y279139D01*
X728651Y278232D01*
X731000Y277922D01*
X731885Y278039D01*
X732819Y276145D01*
X690733Y234059D01*
X586267D01*
X547163Y273163D01*
X546171Y273826D01*
X545000Y274059D01*
X545000Y274059D01*
X400368D01*
X400244Y274244D01*
X398756Y275239D01*
X397000Y275588D01*
X395244Y275239D01*
X393756Y274244D01*
X392761Y272756D01*
X392412Y271000D01*
X392761Y269244D01*
X393756Y267756D01*
X395244Y266761D01*
X397000Y266412D01*
X398756Y266761D01*
X400244Y267756D01*
X400368Y267941D01*
X543733D01*
X582837Y228837D01*
X582837Y228837D01*
X583829Y228174D01*
X585000Y227941D01*
X585000Y227941D01*
X692000D01*
X692000Y227941D01*
X693170Y228174D01*
X694163Y228837D01*
X786267Y320941D01*
X1118632D01*
X1118756Y320756D01*
X1120244Y319761D01*
X1122000Y319412D01*
X1123756Y319761D01*
X1125244Y320756D01*
X1126239Y322244D01*
X1126588Y324000D01*
X1126239Y325756D01*
X1125244Y327244D01*
X1123756Y328239D01*
X1122000Y328588D01*
X1120244Y328239D01*
X1118756Y327244D01*
X1118632Y327059D01*
X885539D01*
X884553Y329059D01*
X884862Y329461D01*
X885768Y331651D01*
X886078Y334000D01*
X885768Y336349D01*
X884862Y338539D01*
X883419Y340419D01*
X881539Y341861D01*
X879350Y342768D01*
X877000Y343078D01*
D02*
G37*
G36*
X464000Y314588D02*
X462244Y314239D01*
X460756Y313244D01*
X459761Y311756D01*
X459412Y310000D01*
X459621Y308947D01*
X452219Y301545D01*
X452000Y301588D01*
X450244Y301239D01*
X448756Y300244D01*
X447761Y298756D01*
X447412Y297000D01*
X447761Y295244D01*
X448756Y293756D01*
X450244Y292761D01*
X452000Y292412D01*
X453756Y292761D01*
X455244Y293756D01*
X456239Y295244D01*
X456588Y297000D01*
X456545Y297219D01*
X464921Y305595D01*
X465756Y305761D01*
X467244Y306756D01*
X468239Y308244D01*
X468588Y310000D01*
X468239Y311756D01*
X467244Y313244D01*
X465756Y314239D01*
X464000Y314588D01*
D02*
G37*
G36*
X122000Y328588D02*
X120244Y328239D01*
X118756Y327244D01*
X117761Y325756D01*
X117412Y324000D01*
X117761Y322244D01*
X118756Y320756D01*
X120244Y319761D01*
X122000Y319412D01*
X122219Y319455D01*
X157837Y283837D01*
X157837Y283837D01*
X158829Y283174D01*
X160000Y282941D01*
X160000Y282941D01*
X338632D01*
X338756Y282756D01*
X340244Y281761D01*
X342000Y281412D01*
X343756Y281761D01*
X345244Y282756D01*
X346239Y284244D01*
X346588Y286000D01*
X346239Y287756D01*
X345244Y289244D01*
X343756Y290239D01*
X342000Y290588D01*
X340244Y290239D01*
X338756Y289244D01*
X338632Y289059D01*
X161267D01*
X126545Y323781D01*
X126588Y324000D01*
X126239Y325756D01*
X125244Y327244D01*
X123756Y328239D01*
X122000Y328588D01*
D02*
G37*
G36*
X350000Y276059D02*
X350000Y276059D01*
X135000D01*
X135000Y276059D01*
X133829Y275826D01*
X132837Y275163D01*
X132837Y275163D01*
X98219Y240545D01*
X98000Y240588D01*
X96244Y240239D01*
X94756Y239244D01*
X93761Y237756D01*
X93412Y236000D01*
X93761Y234244D01*
X94756Y232756D01*
X96244Y231761D01*
X98000Y231412D01*
X99756Y231761D01*
X101244Y232756D01*
X102239Y234244D01*
X102588Y236000D01*
X102545Y236219D01*
X136267Y269941D01*
X348733D01*
X352455Y266219D01*
X352412Y266000D01*
X352761Y264244D01*
X353756Y262756D01*
X355244Y261761D01*
X357000Y261412D01*
X358756Y261761D01*
X360244Y262756D01*
X361239Y264244D01*
X361588Y266000D01*
X361239Y267756D01*
X360244Y269244D01*
X358756Y270239D01*
X357000Y270588D01*
X356781Y270545D01*
X352163Y275163D01*
X351171Y275826D01*
X350000Y276059D01*
D02*
G37*
G36*
X1020000Y277588D02*
X1018244Y277239D01*
X1016756Y276244D01*
X1015761Y274756D01*
X1015412Y273000D01*
X1015761Y271244D01*
X1016756Y269756D01*
X1018244Y268761D01*
X1020000Y268412D01*
X1021756Y268761D01*
X1023244Y269756D01*
X1024239Y271244D01*
X1024588Y273000D01*
X1024239Y274756D01*
X1023244Y276244D01*
X1021756Y277239D01*
X1020000Y277588D01*
D02*
G37*
G36*
X23000Y275588D02*
X21244Y275239D01*
X19756Y274244D01*
X18761Y272756D01*
X18412Y271000D01*
X18761Y269244D01*
X19756Y267756D01*
X21244Y266761D01*
X23000Y266412D01*
X24756Y266761D01*
X26244Y267756D01*
X27239Y269244D01*
X27588Y271000D01*
X27239Y272756D01*
X26244Y274244D01*
X24756Y275239D01*
X23000Y275588D01*
D02*
G37*
G36*
X536000Y258588D02*
X534244Y258239D01*
X532756Y257244D01*
X531761Y255756D01*
X531412Y254000D01*
X531761Y252244D01*
X532756Y250756D01*
X534244Y249761D01*
X536000Y249412D01*
X537756Y249761D01*
X539244Y250756D01*
X540239Y252244D01*
X540588Y254000D01*
X540239Y255756D01*
X539244Y257244D01*
X537756Y258239D01*
X536000Y258588D01*
D02*
G37*
G36*
X193000Y256588D02*
X191244Y256239D01*
X189756Y255244D01*
X188761Y253756D01*
X188412Y252000D01*
X188761Y250244D01*
X189756Y248756D01*
X191244Y247761D01*
X193000Y247412D01*
X194756Y247761D01*
X196244Y248756D01*
X197239Y250244D01*
X197588Y252000D01*
X197239Y253756D01*
X196244Y255244D01*
X194756Y256239D01*
X193000Y256588D01*
D02*
G37*
G36*
X1193000Y256088D02*
X1191244Y255739D01*
X1189756Y254744D01*
X1188761Y253256D01*
X1188412Y251500D01*
X1188761Y249744D01*
X1189756Y248256D01*
X1191244Y247261D01*
X1193000Y246912D01*
X1194756Y247261D01*
X1196244Y248256D01*
X1197239Y249744D01*
X1197588Y251500D01*
X1197239Y253256D01*
X1196244Y254744D01*
X1194756Y255739D01*
X1193000Y256088D01*
D02*
G37*
G36*
X698900Y544982D02*
X696420Y544655D01*
X694109Y543698D01*
X692124Y542175D01*
X690602Y540191D01*
X689644Y537880D01*
X689318Y535400D01*
X689644Y532920D01*
X690602Y530609D01*
X692124Y528625D01*
X694109Y527102D01*
X696420Y526145D01*
X698900Y525818D01*
X701380Y526145D01*
X703112Y526862D01*
X725137Y504837D01*
X725137Y504837D01*
X726130Y504174D01*
X727300Y503941D01*
X727300Y503941D01*
X928733D01*
X965837Y466837D01*
X965837Y466837D01*
X966830Y466174D01*
X968000Y465941D01*
X968000Y465941D01*
X1075733D01*
X1154441Y387233D01*
Y274000D01*
X1154441Y274000D01*
X1154674Y272829D01*
X1155337Y271837D01*
X1160941Y266233D01*
Y240267D01*
X1155733Y235059D01*
X1138267D01*
X1134405Y238921D01*
X1134239Y239756D01*
X1133244Y241244D01*
X1131756Y242239D01*
X1130000Y242588D01*
X1128244Y242239D01*
X1126756Y241244D01*
X1125761Y239756D01*
X1125412Y238000D01*
X1125761Y236244D01*
X1126756Y234756D01*
X1128244Y233761D01*
X1130000Y233412D01*
X1131053Y233621D01*
X1134837Y229837D01*
X1134837Y229837D01*
X1135829Y229174D01*
X1137000Y228941D01*
X1137000Y228941D01*
X1157000D01*
X1157000Y228941D01*
X1158170Y229174D01*
X1159163Y229837D01*
X1166163Y236837D01*
X1166163Y236837D01*
X1166826Y237829D01*
X1167059Y239000D01*
X1167059Y239000D01*
Y267500D01*
X1167059Y267500D01*
X1166826Y268671D01*
X1166163Y269663D01*
X1166163Y269663D01*
X1160559Y275267D01*
Y388500D01*
X1160326Y389670D01*
X1159663Y390663D01*
X1159663Y390663D01*
X1079163Y471163D01*
X1078170Y471826D01*
X1077000Y472059D01*
X1077000Y472059D01*
X969267D01*
X932163Y509163D01*
X931171Y509826D01*
X930000Y510059D01*
X930000Y510059D01*
X758577D01*
X758239Y511756D01*
X757244Y513244D01*
X755756Y514239D01*
X754000Y514588D01*
X752244Y514239D01*
X750756Y513244D01*
X749761Y511756D01*
X749424Y510059D01*
X728567D01*
X707438Y531188D01*
X708156Y532920D01*
X708482Y535400D01*
X708156Y537880D01*
X707198Y540191D01*
X705675Y542175D01*
X703691Y543698D01*
X701380Y544655D01*
X698900Y544982D01*
D02*
G37*
G36*
X382000Y270588D02*
X380244Y270239D01*
X378756Y269244D01*
X377761Y267756D01*
X377412Y266000D01*
X377761Y264244D01*
X378756Y262756D01*
X380244Y261761D01*
X382000Y261412D01*
X382219Y261455D01*
X389837Y253837D01*
X389837Y253837D01*
X390830Y253174D01*
X392000Y252941D01*
X506733D01*
X549837Y209837D01*
X550830Y209174D01*
X552000Y208941D01*
X1074000D01*
X1074000Y208941D01*
X1075171Y209174D01*
X1076163Y209837D01*
X1097781Y231455D01*
X1098000Y231412D01*
X1099756Y231761D01*
X1101244Y232756D01*
X1102239Y234244D01*
X1102588Y236000D01*
X1102239Y237756D01*
X1101244Y239244D01*
X1099756Y240239D01*
X1098000Y240588D01*
X1096244Y240239D01*
X1094756Y239244D01*
X1093761Y237756D01*
X1093412Y236000D01*
X1093455Y235781D01*
X1072733Y215059D01*
X553267D01*
X510163Y258163D01*
X509170Y258826D01*
X508000Y259059D01*
X508000Y259059D01*
X393267D01*
X386545Y265781D01*
X386588Y266000D01*
X386239Y267756D01*
X385244Y269244D01*
X383756Y270239D01*
X382000Y270588D01*
D02*
G37*
G36*
X456000Y237442D02*
Y230000D01*
X463442D01*
X463281Y231219D01*
X462425Y233287D01*
X461062Y235062D01*
X459287Y236425D01*
X457219Y237281D01*
X456000Y237442D01*
D02*
G37*
G36*
X454000D02*
X452781Y237281D01*
X450713Y236425D01*
X448938Y235062D01*
X447575Y233287D01*
X446719Y231219D01*
X446558Y230000D01*
X454000D01*
Y237442D01*
D02*
G37*
G36*
X436000D02*
Y230000D01*
X443442D01*
X443281Y231219D01*
X442425Y233287D01*
X441062Y235062D01*
X439287Y236425D01*
X437219Y237281D01*
X436000Y237442D01*
D02*
G37*
G36*
X434000D02*
X432781Y237281D01*
X430713Y236425D01*
X428938Y235062D01*
X427575Y233287D01*
X426719Y231219D01*
X426558Y230000D01*
X434000D01*
Y237442D01*
D02*
G37*
G36*
X416000D02*
Y230000D01*
X423442D01*
X423281Y231219D01*
X422425Y233287D01*
X421062Y235062D01*
X419287Y236425D01*
X417219Y237281D01*
X416000Y237442D01*
D02*
G37*
G36*
X414000D02*
X412781Y237281D01*
X410713Y236425D01*
X408938Y235062D01*
X407575Y233287D01*
X406719Y231219D01*
X406558Y230000D01*
X414000D01*
Y237442D01*
D02*
G37*
G36*
X396000D02*
Y230000D01*
X403442D01*
X403281Y231219D01*
X402425Y233287D01*
X401062Y235062D01*
X399287Y236425D01*
X397219Y237281D01*
X396000Y237442D01*
D02*
G37*
G36*
X394000D02*
X392781Y237281D01*
X390713Y236425D01*
X388938Y235062D01*
X387575Y233287D01*
X386719Y231219D01*
X386558Y230000D01*
X394000D01*
Y237442D01*
D02*
G37*
G36*
X376000D02*
Y230000D01*
X383442D01*
X383281Y231219D01*
X382425Y233287D01*
X381062Y235062D01*
X379287Y236425D01*
X377219Y237281D01*
X376000Y237442D01*
D02*
G37*
G36*
X374000D02*
X372781Y237281D01*
X370713Y236425D01*
X368938Y235062D01*
X367575Y233287D01*
X366719Y231219D01*
X366558Y230000D01*
X374000D01*
Y237442D01*
D02*
G37*
G36*
X356000D02*
Y230000D01*
X363442D01*
X363281Y231219D01*
X362425Y233287D01*
X361062Y235062D01*
X359287Y236425D01*
X357219Y237281D01*
X356000Y237442D01*
D02*
G37*
G36*
X354000D02*
X352781Y237281D01*
X350713Y236425D01*
X348938Y235062D01*
X347575Y233287D01*
X346719Y231219D01*
X346558Y230000D01*
X354000D01*
Y237442D01*
D02*
G37*
G36*
X336000D02*
Y230000D01*
X343442D01*
X343281Y231219D01*
X342425Y233287D01*
X341062Y235062D01*
X339287Y236425D01*
X337219Y237281D01*
X336000Y237442D01*
D02*
G37*
G36*
X334000D02*
X332781Y237281D01*
X330713Y236425D01*
X328938Y235062D01*
X327575Y233287D01*
X326719Y231219D01*
X326558Y230000D01*
X334000D01*
Y237442D01*
D02*
G37*
G36*
X463442Y228000D02*
X456000D01*
Y220558D01*
X457219Y220719D01*
X459287Y221575D01*
X461062Y222938D01*
X462425Y224713D01*
X463281Y226781D01*
X463442Y228000D01*
D02*
G37*
G36*
X454000D02*
X446558D01*
X446719Y226781D01*
X447575Y224713D01*
X448938Y222938D01*
X450713Y221575D01*
X452781Y220719D01*
X454000Y220558D01*
Y228000D01*
D02*
G37*
G36*
X443442D02*
X436000D01*
Y220558D01*
X437219Y220719D01*
X439287Y221575D01*
X441062Y222938D01*
X442425Y224713D01*
X443281Y226781D01*
X443442Y228000D01*
D02*
G37*
G36*
X434000D02*
X426558D01*
X426719Y226781D01*
X427575Y224713D01*
X428938Y222938D01*
X430713Y221575D01*
X432781Y220719D01*
X434000Y220558D01*
Y228000D01*
D02*
G37*
G36*
X423442D02*
X416000D01*
Y220558D01*
X417219Y220719D01*
X419287Y221575D01*
X421062Y222938D01*
X422425Y224713D01*
X423281Y226781D01*
X423442Y228000D01*
D02*
G37*
G36*
X414000D02*
X406558D01*
X406719Y226781D01*
X407575Y224713D01*
X408938Y222938D01*
X410713Y221575D01*
X412781Y220719D01*
X414000Y220558D01*
Y228000D01*
D02*
G37*
G36*
X403442D02*
X396000D01*
Y220558D01*
X397219Y220719D01*
X399287Y221575D01*
X401062Y222938D01*
X402425Y224713D01*
X403281Y226781D01*
X403442Y228000D01*
D02*
G37*
G36*
X394000D02*
X386558D01*
X386719Y226781D01*
X387575Y224713D01*
X388938Y222938D01*
X390713Y221575D01*
X392781Y220719D01*
X394000Y220558D01*
Y228000D01*
D02*
G37*
G36*
X383442D02*
X376000D01*
Y220558D01*
X377219Y220719D01*
X379287Y221575D01*
X381062Y222938D01*
X382425Y224713D01*
X383281Y226781D01*
X383442Y228000D01*
D02*
G37*
G36*
X374000D02*
X366558D01*
X366719Y226781D01*
X367575Y224713D01*
X368938Y222938D01*
X370713Y221575D01*
X372781Y220719D01*
X374000Y220558D01*
Y228000D01*
D02*
G37*
G36*
X343442D02*
X336000D01*
Y220558D01*
X337219Y220719D01*
X339287Y221575D01*
X341062Y222938D01*
X342425Y224713D01*
X343281Y226781D01*
X343442Y228000D01*
D02*
G37*
G36*
X334000D02*
X326558D01*
X326719Y226781D01*
X327575Y224713D01*
X328938Y222938D01*
X330713Y221575D01*
X332781Y220719D01*
X334000Y220558D01*
Y228000D01*
D02*
G37*
G36*
X257000Y267078D02*
X254650Y266768D01*
X252461Y265861D01*
X250581Y264419D01*
X249139Y262539D01*
X248232Y260349D01*
X247922Y258000D01*
X248232Y255651D01*
X249139Y253461D01*
X250581Y251581D01*
X261922Y240240D01*
Y226500D01*
X262232Y224151D01*
X263139Y221961D01*
X264581Y220081D01*
X266461Y218639D01*
X268650Y217732D01*
X271000Y217422D01*
X273349Y217732D01*
X275539Y218639D01*
X277419Y220081D01*
X278861Y221961D01*
X279768Y224151D01*
X280078Y226500D01*
Y244000D01*
X280078Y244000D01*
X279768Y246350D01*
X278862Y248539D01*
X277419Y250419D01*
X263419Y264419D01*
X261539Y265861D01*
X259349Y266768D01*
X257000Y267078D01*
D02*
G37*
G36*
X363442Y228000D02*
X346558D01*
X346719Y226781D01*
X347575Y224713D01*
X348775Y223150D01*
X348921Y222687D01*
X348778Y220539D01*
X343461Y215222D01*
X341313Y215079D01*
X340851Y215225D01*
X339287Y216425D01*
X337219Y217281D01*
X335000Y217573D01*
X332781Y217281D01*
X330713Y216425D01*
X328938Y215062D01*
X327575Y213287D01*
X326719Y211219D01*
X326427Y209000D01*
X326719Y206781D01*
X327227Y205553D01*
X310837Y189163D01*
X310174Y188171D01*
X309941Y187000D01*
X309941Y187000D01*
Y77996D01*
X307941Y77599D01*
X307824Y77881D01*
X306690Y79359D01*
X305211Y80494D01*
X303488Y81208D01*
X301640Y81451D01*
X299792Y81208D01*
X298069Y80494D01*
X296590Y79359D01*
X295456Y77881D01*
X294742Y76158D01*
X294499Y74310D01*
X294742Y72462D01*
X295456Y70739D01*
X296590Y69261D01*
X298069Y68126D01*
X299792Y67412D01*
X301640Y67169D01*
X303488Y67412D01*
X305211Y68126D01*
X306690Y69261D01*
X307824Y70739D01*
X307941Y71021D01*
X309941Y70624D01*
Y59000D01*
X309941Y59000D01*
X310174Y57829D01*
X310837Y56837D01*
X318441Y49233D01*
Y30512D01*
X318203Y30156D01*
X317931Y28790D01*
Y17310D01*
X318203Y15944D01*
X318977Y14787D01*
X320134Y14013D01*
X321500Y13742D01*
X322866Y14013D01*
X324000Y14771D01*
X325134Y14013D01*
X326500Y13742D01*
X327866Y14013D01*
X329000Y14771D01*
X330134Y14013D01*
X331500Y13742D01*
X332866Y14013D01*
X334000Y14771D01*
X335134Y14013D01*
X336500Y13742D01*
X337866Y14013D01*
X339000Y14771D01*
X340134Y14013D01*
X340500Y13940D01*
Y23050D01*
Y32160D01*
X340134Y32087D01*
X339000Y31329D01*
X337866Y32087D01*
X336500Y32359D01*
X335134Y32087D01*
X334000Y31329D01*
X332866Y32087D01*
X331500Y32359D01*
X330134Y32087D01*
X329000Y31329D01*
X327866Y32087D01*
X326500Y32359D01*
X324559Y33925D01*
Y50500D01*
X324559Y50500D01*
X324326Y51670D01*
X323663Y52663D01*
X323663Y52663D01*
X316059Y60267D01*
Y78273D01*
X318059Y78470D01*
X318203Y77744D01*
X318977Y76587D01*
X320134Y75813D01*
X321500Y75542D01*
X322866Y75813D01*
X324000Y76571D01*
X325134Y75813D01*
X326500Y75542D01*
X327866Y75813D01*
X329000Y76571D01*
X330134Y75813D01*
X331500Y75542D01*
X332866Y75813D01*
X334000Y76571D01*
X335134Y75813D01*
X336500Y75542D01*
X337866Y75813D01*
X339000Y76571D01*
X340134Y75813D01*
X340500Y75740D01*
Y84850D01*
Y93960D01*
X340134Y93887D01*
X339000Y93129D01*
X337866Y93887D01*
X336500Y94159D01*
X335134Y93887D01*
X334000Y93129D01*
X332866Y93887D01*
X331500Y94159D01*
X330134Y93887D01*
X329000Y93129D01*
X327866Y93887D01*
X326500Y94159D01*
X325134Y93887D01*
X324000Y93129D01*
X322866Y93887D01*
X321500Y94159D01*
X320134Y93887D01*
X318977Y93113D01*
X318203Y91956D01*
X318059Y91230D01*
X316059Y91427D01*
Y185733D01*
X331553Y201227D01*
X332781Y200719D01*
X335000Y200427D01*
X337219Y200719D01*
X339287Y201575D01*
X340280Y202338D01*
X340489Y202392D01*
X342481Y202091D01*
X342791Y201906D01*
X342837Y201837D01*
X375441Y169233D01*
Y107767D01*
X369337Y101663D01*
X368674Y100670D01*
X368441Y99500D01*
X368441Y99500D01*
Y95725D01*
X367500Y94965D01*
Y84850D01*
Y75740D01*
X367866Y75813D01*
X369000Y76571D01*
X370134Y75813D01*
X371500Y75542D01*
X372866Y75813D01*
X374000Y76571D01*
X375134Y75813D01*
X376500Y75542D01*
X377866Y75813D01*
X379000Y76571D01*
X380134Y75813D01*
X380500Y75740D01*
Y84850D01*
X382500D01*
Y75740D01*
X382866Y75813D01*
X384000Y76571D01*
X385134Y75813D01*
X386500Y75542D01*
X387866Y75813D01*
X389000Y76571D01*
X390134Y75813D01*
X390500Y75740D01*
Y84850D01*
Y93960D01*
X390134Y93887D01*
X389000Y93129D01*
X387866Y93887D01*
X386500Y94159D01*
X385134Y93887D01*
X384000Y93129D01*
X382866Y93887D01*
X382178Y94024D01*
X381402Y95852D01*
X381390Y96064D01*
X387163Y101837D01*
X387163Y101837D01*
X387826Y102830D01*
X388059Y104000D01*
X388059Y104000D01*
Y179000D01*
X388059Y179000D01*
X387826Y180171D01*
X387163Y181163D01*
X362773Y205553D01*
X363281Y206781D01*
X363573Y209000D01*
X363281Y211219D01*
X362675Y212684D01*
X363319Y214359D01*
X363737Y214862D01*
X364674Y215000D01*
X367227Y212447D01*
X366719Y211219D01*
X366427Y209000D01*
X366719Y206781D01*
X367575Y204713D01*
X368938Y202938D01*
X370713Y201575D01*
X372781Y200719D01*
X375000Y200427D01*
X377219Y200719D01*
X379287Y201575D01*
X381062Y202938D01*
X382425Y204713D01*
X383281Y206781D01*
X383573Y209000D01*
X383281Y211219D01*
X382425Y213287D01*
X381062Y215062D01*
X379287Y216425D01*
X377219Y217281D01*
X375000Y217573D01*
X372781Y217281D01*
X371553Y216773D01*
X367163Y221163D01*
X366171Y221826D01*
X365000Y222059D01*
X365000Y222059D01*
X362909D01*
X361922Y224059D01*
X362425Y224713D01*
X363281Y226781D01*
X363442Y228000D01*
D02*
G37*
G36*
X1138000Y215588D02*
X1136244Y215239D01*
X1134756Y214244D01*
X1133761Y212756D01*
X1133412Y211000D01*
X1133761Y209244D01*
X1134756Y207756D01*
X1136244Y206761D01*
X1138000Y206412D01*
X1139756Y206761D01*
X1141244Y207756D01*
X1142239Y209244D01*
X1142588Y211000D01*
X1142239Y212756D01*
X1141244Y214244D01*
X1139756Y215239D01*
X1138000Y215588D01*
D02*
G37*
G36*
X154000D02*
X152244Y215239D01*
X150756Y214244D01*
X149761Y212756D01*
X149412Y211000D01*
X149761Y209244D01*
X150756Y207756D01*
X152244Y206761D01*
X154000Y206412D01*
X155756Y206761D01*
X157244Y207756D01*
X158239Y209244D01*
X158588Y211000D01*
X158239Y212756D01*
X157244Y214244D01*
X155756Y215239D01*
X154000Y215588D01*
D02*
G37*
G36*
X435000Y217573D02*
X432781Y217281D01*
X430713Y216425D01*
X428938Y215062D01*
X427575Y213287D01*
X426719Y211219D01*
X426427Y209000D01*
X426719Y206781D01*
X427575Y204713D01*
X428938Y202938D01*
X430713Y201575D01*
X432781Y200719D01*
X435000Y200427D01*
X437219Y200719D01*
X439287Y201575D01*
X441062Y202938D01*
X442425Y204713D01*
X443281Y206781D01*
X443573Y209000D01*
X443281Y211219D01*
X442425Y213287D01*
X441062Y215062D01*
X439287Y216425D01*
X437219Y217281D01*
X435000Y217573D01*
D02*
G37*
G36*
X710000Y188112D02*
X706606Y187665D01*
X703444Y186355D01*
X700728Y184272D01*
X698644Y181556D01*
X697335Y178394D01*
X696888Y175000D01*
X697335Y171606D01*
X698644Y168444D01*
X700728Y165728D01*
X703444Y163645D01*
X706606Y162335D01*
X710000Y161888D01*
X713394Y162335D01*
X716556Y163645D01*
X719272Y165728D01*
X721356Y168444D01*
X722665Y171606D01*
X723112Y175000D01*
X722665Y178394D01*
X721356Y181556D01*
X719272Y184272D01*
X716556Y186355D01*
X713394Y187665D01*
X710000Y188112D01*
D02*
G37*
G36*
X1110000Y182608D02*
X1106737Y182178D01*
X1103696Y180919D01*
X1101085Y178915D01*
X1099081Y176304D01*
X1097822Y173263D01*
X1097392Y170000D01*
X1097822Y166737D01*
X1099081Y163696D01*
X1101085Y161085D01*
X1103696Y159081D01*
X1106737Y157822D01*
X1110000Y157392D01*
X1113263Y157822D01*
X1116304Y159081D01*
X1118915Y161085D01*
X1120919Y163696D01*
X1122178Y166737D01*
X1122608Y170000D01*
X1122178Y173263D01*
X1120919Y176304D01*
X1118915Y178915D01*
X1116304Y180919D01*
X1113263Y182178D01*
X1110000Y182608D01*
D02*
G37*
G36*
X110000D02*
X106737Y182178D01*
X103696Y180919D01*
X101085Y178915D01*
X99081Y176304D01*
X97822Y173263D01*
X97392Y170000D01*
X97822Y166737D01*
X99081Y163696D01*
X101085Y161085D01*
X103696Y159081D01*
X106737Y157822D01*
X110000Y157392D01*
X113263Y157822D01*
X116304Y159081D01*
X118915Y161085D01*
X120919Y163696D01*
X122178Y166737D01*
X122608Y170000D01*
X122178Y173263D01*
X120919Y176304D01*
X118915Y178915D01*
X116304Y180919D01*
X113263Y182178D01*
X110000Y182608D01*
D02*
G37*
G36*
X863000Y156588D02*
X861244Y156239D01*
X859756Y155244D01*
X858761Y153756D01*
X858412Y152000D01*
X858761Y150244D01*
X859756Y148756D01*
X861244Y147761D01*
X863000Y147412D01*
X864756Y147761D01*
X866244Y148756D01*
X867239Y150244D01*
X867588Y152000D01*
X867239Y153756D01*
X866244Y155244D01*
X864756Y156239D01*
X863000Y156588D01*
D02*
G37*
G36*
X783000D02*
X781244Y156239D01*
X779756Y155244D01*
X778761Y153756D01*
X778412Y152000D01*
X778761Y150244D01*
X779756Y148756D01*
X781244Y147761D01*
X783000Y147412D01*
X784756Y147761D01*
X786244Y148756D01*
X787239Y150244D01*
X787588Y152000D01*
X787239Y153756D01*
X786244Y155244D01*
X784756Y156239D01*
X783000Y156588D01*
D02*
G37*
G36*
X440000Y154588D02*
X438244Y154239D01*
X436756Y153244D01*
X435761Y151756D01*
X435412Y150000D01*
X435761Y148244D01*
X436756Y146756D01*
X438244Y145761D01*
X440000Y145412D01*
X440412Y145000D01*
X440761Y143244D01*
X441756Y141756D01*
X443244Y140761D01*
X445000Y140412D01*
X445412Y140000D01*
X445761Y138244D01*
X446756Y136756D01*
X448244Y135761D01*
X448513Y135708D01*
X450412Y135000D01*
X450761Y133244D01*
X451756Y131756D01*
X453244Y130761D01*
X455000Y130412D01*
X455412Y130000D01*
X455761Y128244D01*
X456756Y126756D01*
X458244Y125761D01*
X460000Y125412D01*
X461756Y125761D01*
X463244Y126756D01*
X464239Y128244D01*
X464588Y130000D01*
X464239Y131756D01*
X463244Y133244D01*
X461756Y134239D01*
X460000Y134588D01*
X459588Y135000D01*
X459239Y136756D01*
X458244Y138244D01*
X456756Y139239D01*
X456487Y139292D01*
X454588Y140000D01*
X454239Y141756D01*
X453244Y143244D01*
X451756Y144239D01*
X450000Y144588D01*
X449588Y145000D01*
X449239Y146756D01*
X448244Y148244D01*
X446756Y149239D01*
X445000Y149588D01*
X444588Y150000D01*
X444239Y151756D01*
X443244Y153244D01*
X441756Y154239D01*
X440000Y154588D01*
D02*
G37*
G36*
X900529Y110810D02*
X900529Y110810D01*
X890751D01*
X890751Y110810D01*
X889580Y110577D01*
X888588Y109914D01*
X888588Y109914D01*
X885470Y106795D01*
X885251Y106839D01*
X883495Y106490D01*
X882007Y105495D01*
X881012Y104007D01*
X880663Y102251D01*
X881012Y100495D01*
X882007Y99007D01*
X883495Y98012D01*
X885251Y97663D01*
X887007Y98012D01*
X888495Y99007D01*
X889490Y100495D01*
X889839Y102251D01*
X891433Y103344D01*
X891940Y103309D01*
X893663Y102251D01*
X894012Y100495D01*
X895006Y99007D01*
X896495Y98012D01*
X898251Y97663D01*
X899741Y96334D01*
Y95911D01*
X898300Y94159D01*
X896934Y93887D01*
X895800Y93129D01*
X894666Y93887D01*
X893300Y94159D01*
X891934Y93887D01*
X890800Y93129D01*
X889666Y93887D01*
X888300Y94159D01*
X886934Y93887D01*
X885800Y93129D01*
X884666Y93887D01*
X883300Y94159D01*
X881934Y93887D01*
X880800Y93129D01*
X879666Y93887D01*
X878300Y94159D01*
X876934Y93887D01*
X875800Y93129D01*
X874666Y93887D01*
X874300Y93960D01*
Y84850D01*
Y75740D01*
X874666Y75813D01*
X875800Y76571D01*
X876934Y75813D01*
X878300Y75542D01*
X879666Y75813D01*
X880800Y76571D01*
X881934Y75813D01*
X883300Y75542D01*
X884666Y75813D01*
X885800Y76571D01*
X886934Y75813D01*
X888300Y75542D01*
X889666Y75813D01*
X890800Y76571D01*
X891934Y75813D01*
X893300Y75542D01*
X894100Y75701D01*
X895128Y73900D01*
X874287Y53059D01*
X707916D01*
X707198Y54791D01*
X705675Y56775D01*
X703691Y58298D01*
X701380Y59255D01*
X698900Y59582D01*
X696420Y59255D01*
X694109Y58298D01*
X692124Y56775D01*
X690602Y54791D01*
X689644Y52480D01*
X689318Y50000D01*
X689644Y47520D01*
X690602Y45209D01*
X692124Y43225D01*
X694109Y41702D01*
X696420Y40745D01*
X698900Y40418D01*
X701380Y40745D01*
X703691Y41702D01*
X705675Y43225D01*
X707198Y45209D01*
X707916Y46941D01*
X714302D01*
X715068Y45093D01*
X703112Y33138D01*
X701380Y33856D01*
X698900Y34182D01*
X696420Y33856D01*
X694109Y32898D01*
X692124Y31376D01*
X690602Y29391D01*
X689644Y27080D01*
X689318Y24600D01*
X689644Y22120D01*
X690602Y19809D01*
X692124Y17825D01*
X694109Y16302D01*
X696420Y15345D01*
X698900Y15018D01*
X701380Y15345D01*
X703691Y16302D01*
X705675Y17825D01*
X707198Y19809D01*
X708156Y22120D01*
X708482Y24600D01*
X708156Y27080D01*
X707438Y28812D01*
X721567Y42941D01*
X877211D01*
X877211Y42941D01*
X878381Y43174D01*
X879374Y43837D01*
X908963Y73426D01*
X908963Y73426D01*
X909092Y73620D01*
X910398Y73514D01*
X911174Y73135D01*
X911262Y72462D01*
X911976Y70739D01*
X913111Y69261D01*
X914589Y68126D01*
X916312Y67412D01*
X918160Y67169D01*
X920008Y67412D01*
X921731Y68126D01*
X923210Y69261D01*
X924344Y70739D01*
X925058Y72462D01*
X925301Y74310D01*
X925058Y76158D01*
X924344Y77881D01*
X923210Y79359D01*
X921731Y80494D01*
X920008Y81208D01*
X918160Y81451D01*
X916312Y81208D01*
X914589Y80494D01*
X913111Y79359D01*
X911976Y77881D01*
X911859Y77598D01*
X909859Y77996D01*
Y101480D01*
X909859Y101480D01*
X909626Y102650D01*
X908963Y103643D01*
X902692Y109914D01*
X901700Y110577D01*
X900529Y110810D01*
D02*
G37*
G36*
X781000Y109588D02*
X779244Y109239D01*
X777756Y108244D01*
X776761Y106756D01*
X776412Y105000D01*
X776761Y103244D01*
X775855Y101244D01*
X774254Y100151D01*
X773313Y100765D01*
X772754Y101138D01*
X770999Y101487D01*
X769243Y101138D01*
X768720Y100788D01*
X766544Y100444D01*
X765056Y101439D01*
X763300Y101788D01*
X761544Y101439D01*
X760056Y100444D01*
X758121Y100895D01*
X757756Y101139D01*
X756000Y101488D01*
X754244Y101139D01*
X753374Y100557D01*
X752000Y100291D01*
X750626Y100557D01*
X749756Y101139D01*
X748000Y101488D01*
X746244Y101139D01*
X744756Y100144D01*
X743761Y98656D01*
X743412Y96900D01*
X743761Y95144D01*
X744756Y93656D01*
X746244Y92661D01*
X748000Y92312D01*
X748219Y92355D01*
X749773Y90801D01*
X749732Y90590D01*
Y79110D01*
X750003Y77744D01*
X750777Y76587D01*
X751934Y75813D01*
X753300Y75542D01*
X754666Y75813D01*
X755800Y76571D01*
X756934Y75813D01*
X758300Y75542D01*
X759666Y75813D01*
X760800Y76571D01*
X761934Y75813D01*
X763300Y75542D01*
X764666Y75813D01*
X765800Y76571D01*
X766934Y75813D01*
X768300Y75542D01*
X769666Y75813D01*
X770800Y76571D01*
X771934Y75813D01*
X772300Y75740D01*
Y84850D01*
X774300D01*
Y75740D01*
X774666Y75813D01*
X775800Y76571D01*
X776934Y75813D01*
X778300Y75542D01*
X779666Y75813D01*
X780800Y76571D01*
X781934Y75813D01*
X783300Y75542D01*
X784666Y75813D01*
X785800Y76571D01*
X786934Y75813D01*
X788300Y75542D01*
X789666Y75813D01*
X790800Y76571D01*
X791934Y75813D01*
X793300Y75542D01*
X794666Y75813D01*
X795800Y76571D01*
X796934Y75813D01*
X797300Y75740D01*
Y84850D01*
X799300D01*
Y75740D01*
X799666Y75813D01*
X800800Y76571D01*
X801934Y75813D01*
X803300Y75542D01*
X804666Y75813D01*
X805800Y76571D01*
X806934Y75813D01*
X808300Y75542D01*
X809666Y75813D01*
X810800Y76571D01*
X811934Y75813D01*
X813300Y75542D01*
X814666Y75813D01*
X815800Y76571D01*
X816934Y75813D01*
X818300Y75542D01*
X819666Y75813D01*
X820800Y76571D01*
X821934Y75813D01*
X822300Y75740D01*
Y84850D01*
Y93960D01*
X821934Y93887D01*
X820800Y93129D01*
X819666Y93887D01*
X818300Y94159D01*
X816934Y93887D01*
X815800Y93129D01*
X814666Y93887D01*
X813300Y94159D01*
X811934Y93887D01*
X810800Y93129D01*
X809666Y93887D01*
X808300Y94159D01*
X806934Y93887D01*
X805800Y93129D01*
X804666Y93887D01*
X804436Y93933D01*
X803233Y94569D01*
X802984Y96105D01*
X803081Y96590D01*
X802731Y98346D01*
X801737Y99834D01*
X800248Y100829D01*
X798492Y101178D01*
X796737Y100829D01*
X794243Y101143D01*
X792754Y102138D01*
X790998Y102487D01*
X789390Y102167D01*
X789243Y102138D01*
X787075Y103095D01*
X786763Y103563D01*
X786763Y103563D01*
X785545Y104781D01*
X785588Y105000D01*
X785239Y106756D01*
X784244Y108244D01*
X782756Y109239D01*
X781000Y109588D01*
D02*
G37*
G36*
X868300Y94159D02*
X866934Y93887D01*
X865800Y93129D01*
X864666Y93887D01*
X863300Y94159D01*
X861934Y93887D01*
X860800Y93129D01*
X859666Y93887D01*
X858300Y94159D01*
X856934Y93887D01*
X855800Y93129D01*
X854666Y93887D01*
X853300Y94159D01*
X851934Y93887D01*
X850800Y93129D01*
X849666Y93887D01*
X849300Y93960D01*
Y84850D01*
Y75740D01*
X849666Y75813D01*
X850800Y76571D01*
X851934Y75813D01*
X853300Y75542D01*
X854666Y75813D01*
X855800Y76571D01*
X856934Y75813D01*
X858300Y75542D01*
X859666Y75813D01*
X860800Y76571D01*
X861934Y75813D01*
X863300Y75542D01*
X864666Y75813D01*
X865800Y76571D01*
X866934Y75813D01*
X868300Y75542D01*
X869666Y75813D01*
X870800Y76571D01*
X871934Y75813D01*
X872300Y75740D01*
Y84850D01*
Y93960D01*
X871934Y93887D01*
X870800Y93129D01*
X869666Y93887D01*
X868300Y94159D01*
D02*
G37*
G36*
X843300D02*
X841934Y93887D01*
X840800Y93129D01*
X839666Y93887D01*
X838300Y94159D01*
X836934Y93887D01*
X835800Y93129D01*
X834666Y93887D01*
X833300Y94159D01*
X831934Y93887D01*
X830800Y93129D01*
X829666Y93887D01*
X828300Y94159D01*
X826934Y93887D01*
X825800Y93129D01*
X824666Y93887D01*
X824300Y93960D01*
Y84850D01*
Y75740D01*
X824666Y75813D01*
X825800Y76571D01*
X826934Y75813D01*
X828300Y75542D01*
X829666Y75813D01*
X830800Y76571D01*
X831934Y75813D01*
X833300Y75542D01*
X834666Y75813D01*
X835800Y76571D01*
X836934Y75813D01*
X838300Y75542D01*
X839666Y75813D01*
X840800Y76571D01*
X841934Y75813D01*
X843300Y75542D01*
X844666Y75813D01*
X845800Y76571D01*
X846934Y75813D01*
X847300Y75740D01*
Y84850D01*
Y93960D01*
X846934Y93887D01*
X845800Y93129D01*
X844666Y93887D01*
X843300Y94159D01*
D02*
G37*
G36*
X436500D02*
X435134Y93887D01*
X434000Y93129D01*
X432866Y93887D01*
X431500Y94159D01*
X430134Y93887D01*
X429000Y93129D01*
X427866Y93887D01*
X426500Y94159D01*
X425134Y93887D01*
X424000Y93129D01*
X422866Y93887D01*
X421500Y94159D01*
X420134Y93887D01*
X419000Y93129D01*
X417866Y93887D01*
X417500Y93960D01*
Y84850D01*
Y75740D01*
X417866Y75813D01*
X419000Y76571D01*
X420134Y75813D01*
X421500Y75542D01*
X422866Y75813D01*
X424000Y76571D01*
X425134Y75813D01*
X426500Y75542D01*
X427866Y75813D01*
X429000Y76571D01*
X430134Y75813D01*
X431500Y75542D01*
X432866Y75813D01*
X434000Y76571D01*
X435134Y75813D01*
X436500Y75542D01*
X437866Y75813D01*
X439000Y76571D01*
X440134Y75813D01*
X440500Y75740D01*
Y84850D01*
Y93960D01*
X440134Y93887D01*
X439000Y93129D01*
X437866Y93887D01*
X436500Y94159D01*
D02*
G37*
G36*
X411500D02*
X410134Y93887D01*
X409000Y93129D01*
X407866Y93887D01*
X406500Y94159D01*
X405134Y93887D01*
X404000Y93129D01*
X402866Y93887D01*
X401500Y94159D01*
X400134Y93887D01*
X399000Y93129D01*
X397866Y93887D01*
X396500Y94159D01*
X395134Y93887D01*
X394000Y93129D01*
X392866Y93887D01*
X392500Y93960D01*
Y84850D01*
Y75740D01*
X392866Y75813D01*
X394000Y76571D01*
X395134Y75813D01*
X396500Y75542D01*
X397866Y75813D01*
X399000Y76571D01*
X400134Y75813D01*
X401500Y75542D01*
X402866Y75813D01*
X404000Y76571D01*
X405134Y75813D01*
X406500Y75542D01*
X407866Y75813D01*
X409000Y76571D01*
X410134Y75813D01*
X411500Y75542D01*
X412866Y75813D01*
X414000Y76571D01*
X415134Y75813D01*
X415500Y75740D01*
Y84850D01*
Y93960D01*
X415134Y93887D01*
X414000Y93129D01*
X412866Y93887D01*
X411500Y94159D01*
D02*
G37*
G36*
X361500D02*
X360134Y93887D01*
X359000Y93129D01*
X357866Y93887D01*
X356500Y94159D01*
X355134Y93887D01*
X354000Y93129D01*
X352866Y93887D01*
X351500Y94159D01*
X350134Y93887D01*
X349000Y93129D01*
X347866Y93887D01*
X346500Y94159D01*
X345134Y93887D01*
X344000Y93129D01*
X342866Y93887D01*
X342500Y93960D01*
Y84850D01*
Y75740D01*
X342866Y75813D01*
X344000Y76571D01*
X345134Y75813D01*
X346500Y75542D01*
X347866Y75813D01*
X349000Y76571D01*
X350134Y75813D01*
X351500Y75542D01*
X352866Y75813D01*
X354000Y76571D01*
X355134Y75813D01*
X356500Y75542D01*
X357866Y75813D01*
X359000Y76571D01*
X360134Y75813D01*
X361500Y75542D01*
X362866Y75813D01*
X364000Y76571D01*
X365134Y75813D01*
X365500Y75740D01*
Y84850D01*
Y93960D01*
X365134Y93887D01*
X364000Y93129D01*
X362866Y93887D01*
X361500Y94159D01*
D02*
G37*
G36*
X527000Y129588D02*
X525244Y129239D01*
X523756Y128244D01*
X522761Y126756D01*
X522412Y125000D01*
X522761Y123244D01*
X523756Y121756D01*
X525244Y120761D01*
X527000Y120412D01*
X528756Y120761D01*
X530244Y121756D01*
X530702Y122441D01*
X538502D01*
X539268Y120593D01*
X508437Y89763D01*
X507774Y88771D01*
X507541Y87600D01*
X507541Y87600D01*
Y61867D01*
X492733Y47059D01*
X471222D01*
X471222Y47059D01*
X470051Y46826D01*
X469059Y46163D01*
X461500Y38604D01*
X453941Y46163D01*
X452949Y46826D01*
X451778Y47059D01*
X451778Y47059D01*
X449368D01*
X449244Y47244D01*
X447756Y48239D01*
X446000Y48588D01*
X444244Y48239D01*
X442756Y47244D01*
X441761Y45756D01*
X441412Y44000D01*
X441761Y42244D01*
X442756Y40756D01*
X444244Y39761D01*
X446000Y39412D01*
X447756Y39761D01*
X449244Y40756D01*
X451129Y40323D01*
X457192Y34260D01*
X456745Y33031D01*
X456304Y32320D01*
X455134Y32087D01*
X454000Y31329D01*
X452866Y32087D01*
X451500Y32359D01*
X450134Y32087D01*
X449000Y31329D01*
X447866Y32087D01*
X446500Y32359D01*
X445134Y32087D01*
X444000Y31329D01*
X442866Y32087D01*
X442500Y32160D01*
Y23050D01*
Y13940D01*
X442866Y14013D01*
X444000Y14771D01*
X445134Y14013D01*
X446500Y13742D01*
X447866Y14013D01*
X449000Y14771D01*
X450134Y14013D01*
X451500Y13742D01*
X452866Y14013D01*
X454000Y14771D01*
X455134Y14013D01*
X456500Y13742D01*
X457866Y14013D01*
X459000Y14771D01*
X460134Y14013D01*
X461500Y13742D01*
X462866Y14013D01*
X464000Y14771D01*
X465134Y14013D01*
X466500Y13742D01*
X467866Y14013D01*
X469023Y14787D01*
X469797Y15944D01*
X470069Y17310D01*
Y29624D01*
X470756Y29761D01*
X472244Y30756D01*
X473239Y32244D01*
X473588Y34000D01*
X473239Y35756D01*
X472244Y37244D01*
X471970Y37427D01*
X471710Y39410D01*
X473092Y40941D01*
X494000D01*
X494000Y40941D01*
X495171Y41174D01*
X496163Y41837D01*
X512763Y58437D01*
X512763Y58437D01*
X513426Y59429D01*
X513659Y60600D01*
Y66614D01*
X515659Y67601D01*
X516309Y67102D01*
X518620Y66144D01*
X521100Y65818D01*
X523580Y66144D01*
X525891Y67102D01*
X527875Y68625D01*
X529398Y70609D01*
X530355Y72920D01*
X530682Y75400D01*
X530355Y77880D01*
X529398Y80191D01*
X527875Y82176D01*
X525891Y83698D01*
X523580Y84656D01*
X521100Y84982D01*
X518620Y84656D01*
X516309Y83698D01*
X515659Y83199D01*
X513659Y84185D01*
Y86333D01*
X545767Y118441D01*
X576997D01*
X578500Y116441D01*
X578412Y116000D01*
X578761Y114244D01*
X579756Y112756D01*
X581244Y111761D01*
X583000Y111412D01*
X584756Y111761D01*
X584935Y111881D01*
X586500Y112633D01*
X588065Y111881D01*
X588244Y111761D01*
X590000Y111412D01*
X591756Y111761D01*
X593244Y112756D01*
X594239Y114244D01*
X594588Y116000D01*
X594500Y116441D01*
X596003Y118441D01*
X967233D01*
X985455Y100219D01*
X985412Y100000D01*
X985761Y98244D01*
X986756Y96756D01*
Y96244D01*
X985761Y94756D01*
X985412Y93000D01*
X985761Y91244D01*
X986756Y89756D01*
X988244Y88761D01*
X990000Y88412D01*
X991756Y88761D01*
X993244Y89756D01*
X994239Y91244D01*
X994460Y92356D01*
X997663Y95559D01*
X997663Y95559D01*
X998326Y96551D01*
X998559Y97722D01*
Y103500D01*
X998559Y103500D01*
X998326Y104671D01*
X997663Y105663D01*
X975663Y127663D01*
X974671Y128326D01*
X973500Y128559D01*
X973500Y128559D01*
X529774D01*
X528756Y129239D01*
X527000Y129588D01*
D02*
G37*
G36*
X547500Y84850D02*
Y76400D01*
X555950D01*
X555756Y77880D01*
X554798Y80191D01*
X553275Y82176D01*
X551291Y83698D01*
X548980Y84656D01*
X547500Y84850D01*
D02*
G37*
G36*
X545500D02*
X544020Y84656D01*
X541709Y83698D01*
X539725Y82176D01*
X538202Y80191D01*
X537244Y77880D01*
X537050Y76400D01*
X545500D01*
Y84850D01*
D02*
G37*
G36*
X733440Y81451D02*
X731592Y81208D01*
X729870Y80494D01*
X728391Y79359D01*
X727256Y77881D01*
X726542Y76158D01*
X726299Y74310D01*
X726542Y72462D01*
X727256Y70739D01*
X728391Y69261D01*
X729870Y68126D01*
X731592Y67412D01*
X733440Y67169D01*
X735288Y67412D01*
X737011Y68126D01*
X738490Y69261D01*
X739624Y70739D01*
X740338Y72462D01*
X740581Y74310D01*
X740338Y76158D01*
X739624Y77881D01*
X738490Y79359D01*
X737011Y80494D01*
X735288Y81208D01*
X733440Y81451D01*
D02*
G37*
G36*
X555950Y74400D02*
X547500D01*
Y65950D01*
X548980Y66144D01*
X551291Y67102D01*
X553275Y68625D01*
X554798Y70609D01*
X555756Y72920D01*
X555950Y74400D01*
D02*
G37*
G36*
X545500D02*
X537050D01*
X537244Y72920D01*
X538202Y70609D01*
X539725Y68625D01*
X541709Y67102D01*
X544020Y66144D01*
X545500Y65950D01*
Y74400D01*
D02*
G37*
G36*
X698900Y84982D02*
X696420Y84656D01*
X694109Y83698D01*
X692124Y82176D01*
X690602Y80191D01*
X689644Y77880D01*
X689318Y75400D01*
X689644Y72920D01*
X690602Y70609D01*
X692124Y68625D01*
X694109Y67102D01*
X696420Y66144D01*
X698900Y65818D01*
X701380Y66144D01*
X703691Y67102D01*
X705675Y68625D01*
X707198Y70609D01*
X708156Y72920D01*
X708482Y75400D01*
X708156Y77880D01*
X707198Y80191D01*
X705675Y82176D01*
X703691Y83698D01*
X701380Y84656D01*
X698900Y84982D01*
D02*
G37*
G36*
X673500D02*
X671020Y84656D01*
X668709Y83698D01*
X666724Y82176D01*
X665202Y80191D01*
X664245Y77880D01*
X663918Y75400D01*
X664245Y72920D01*
X665202Y70609D01*
X666724Y68625D01*
X668709Y67102D01*
X671020Y66144D01*
X673500Y65818D01*
X675980Y66144D01*
X678291Y67102D01*
X680275Y68625D01*
X681798Y70609D01*
X682756Y72920D01*
X683082Y75400D01*
X682756Y77880D01*
X681798Y80191D01*
X680275Y82176D01*
X678291Y83698D01*
X675980Y84656D01*
X673500Y84982D01*
D02*
G37*
G36*
X648100D02*
X645620Y84656D01*
X643309Y83698D01*
X641324Y82176D01*
X639802Y80191D01*
X638844Y77880D01*
X638518Y75400D01*
X638844Y72920D01*
X639802Y70609D01*
X641324Y68625D01*
X643309Y67102D01*
X645620Y66144D01*
X648100Y65818D01*
X650580Y66144D01*
X652891Y67102D01*
X654875Y68625D01*
X656398Y70609D01*
X657355Y72920D01*
X657682Y75400D01*
X657355Y77880D01*
X656398Y80191D01*
X654875Y82176D01*
X652891Y83698D01*
X650580Y84656D01*
X648100Y84982D01*
D02*
G37*
G36*
X622700D02*
X620220Y84656D01*
X617909Y83698D01*
X615924Y82176D01*
X614402Y80191D01*
X613445Y77880D01*
X613118Y75400D01*
X613445Y72920D01*
X614402Y70609D01*
X615924Y68625D01*
X617909Y67102D01*
X620220Y66144D01*
X622700Y65818D01*
X625180Y66144D01*
X627491Y67102D01*
X629475Y68625D01*
X630998Y70609D01*
X631955Y72920D01*
X632282Y75400D01*
X631955Y77880D01*
X630998Y80191D01*
X629475Y82176D01*
X627491Y83698D01*
X625180Y84656D01*
X622700Y84982D01*
D02*
G37*
G36*
X597300D02*
X594820Y84656D01*
X592509Y83698D01*
X590524Y82176D01*
X589002Y80191D01*
X588045Y77880D01*
X587718Y75400D01*
X588045Y72920D01*
X589002Y70609D01*
X590524Y68625D01*
X592509Y67102D01*
X594820Y66144D01*
X597300Y65818D01*
X599780Y66144D01*
X602091Y67102D01*
X604075Y68625D01*
X605598Y70609D01*
X606555Y72920D01*
X606882Y75400D01*
X606555Y77880D01*
X605598Y80191D01*
X604075Y82176D01*
X602091Y83698D01*
X599780Y84656D01*
X597300Y84982D01*
D02*
G37*
G36*
X571900D02*
X569420Y84656D01*
X567109Y83698D01*
X565125Y82176D01*
X563602Y80191D01*
X562645Y77880D01*
X562318Y75400D01*
X562645Y72920D01*
X563602Y70609D01*
X565125Y68625D01*
X567109Y67102D01*
X569420Y66144D01*
X571900Y65818D01*
X574380Y66144D01*
X576691Y67102D01*
X578675Y68625D01*
X580198Y70609D01*
X581156Y72920D01*
X581482Y75400D01*
X581156Y77880D01*
X580198Y80191D01*
X578675Y82176D01*
X576691Y83698D01*
X574380Y84656D01*
X571900Y84982D01*
D02*
G37*
G36*
X547500Y59450D02*
Y51000D01*
X555950D01*
X555756Y52480D01*
X554798Y54791D01*
X553275Y56775D01*
X551291Y58298D01*
X548980Y59255D01*
X547500Y59450D01*
D02*
G37*
G36*
X545500D02*
X544020Y59255D01*
X541709Y58298D01*
X539725Y56775D01*
X538202Y54791D01*
X537244Y52480D01*
X537050Y51000D01*
X545500D01*
Y59450D01*
D02*
G37*
G36*
X555950Y49000D02*
X547500D01*
Y40550D01*
X548980Y40745D01*
X551291Y41702D01*
X553275Y43225D01*
X554798Y45209D01*
X555756Y47520D01*
X555950Y49000D01*
D02*
G37*
G36*
X545500D02*
X537050D01*
X537244Y47520D01*
X538202Y45209D01*
X539725Y43225D01*
X541709Y41702D01*
X544020Y40745D01*
X545500Y40550D01*
Y49000D01*
D02*
G37*
G36*
X673500Y59582D02*
X671020Y59255D01*
X668709Y58298D01*
X666724Y56775D01*
X665202Y54791D01*
X664245Y52480D01*
X663918Y50000D01*
X664245Y47520D01*
X665202Y45209D01*
X666724Y43225D01*
X668709Y41702D01*
X671020Y40745D01*
X673500Y40418D01*
X675980Y40745D01*
X678291Y41702D01*
X680275Y43225D01*
X681798Y45209D01*
X682756Y47520D01*
X683082Y50000D01*
X682756Y52480D01*
X681798Y54791D01*
X680275Y56775D01*
X678291Y58298D01*
X675980Y59255D01*
X673500Y59582D01*
D02*
G37*
G36*
X648100D02*
X645620Y59255D01*
X643309Y58298D01*
X641324Y56775D01*
X639802Y54791D01*
X638844Y52480D01*
X638518Y50000D01*
X638844Y47520D01*
X639802Y45209D01*
X641324Y43225D01*
X643309Y41702D01*
X645620Y40745D01*
X648100Y40418D01*
X650580Y40745D01*
X652891Y41702D01*
X654875Y43225D01*
X656398Y45209D01*
X657355Y47520D01*
X657682Y50000D01*
X657355Y52480D01*
X656398Y54791D01*
X654875Y56775D01*
X652891Y58298D01*
X650580Y59255D01*
X648100Y59582D01*
D02*
G37*
G36*
X622700D02*
X620220Y59255D01*
X617909Y58298D01*
X615924Y56775D01*
X614402Y54791D01*
X613445Y52480D01*
X613118Y50000D01*
X613445Y47520D01*
X614402Y45209D01*
X615924Y43225D01*
X617909Y41702D01*
X620220Y40745D01*
X622700Y40418D01*
X625180Y40745D01*
X627491Y41702D01*
X629475Y43225D01*
X630998Y45209D01*
X631955Y47520D01*
X632282Y50000D01*
X631955Y52480D01*
X630998Y54791D01*
X629475Y56775D01*
X627491Y58298D01*
X625180Y59255D01*
X622700Y59582D01*
D02*
G37*
G36*
X597300D02*
X594820Y59255D01*
X592509Y58298D01*
X590524Y56775D01*
X589002Y54791D01*
X588045Y52480D01*
X587718Y50000D01*
X588045Y47520D01*
X589002Y45209D01*
X590524Y43225D01*
X592509Y41702D01*
X594820Y40745D01*
X597300Y40418D01*
X599780Y40745D01*
X602091Y41702D01*
X604075Y43225D01*
X605598Y45209D01*
X606555Y47520D01*
X606882Y50000D01*
X606555Y52480D01*
X605598Y54791D01*
X604075Y56775D01*
X602091Y58298D01*
X599780Y59255D01*
X597300Y59582D01*
D02*
G37*
G36*
X571900D02*
X569420Y59255D01*
X567109Y58298D01*
X565125Y56775D01*
X563602Y54791D01*
X562645Y52480D01*
X562318Y50000D01*
X562645Y47520D01*
X563602Y45209D01*
X565125Y43225D01*
X567109Y41702D01*
X569420Y40745D01*
X571900Y40418D01*
X574380Y40745D01*
X576691Y41702D01*
X578675Y43225D01*
X580198Y45209D01*
X581156Y47520D01*
X581482Y50000D01*
X581156Y52480D01*
X580198Y54791D01*
X578675Y56775D01*
X576691Y58298D01*
X574380Y59255D01*
X571900Y59582D01*
D02*
G37*
G36*
X521100D02*
X518620Y59255D01*
X516309Y58298D01*
X514324Y56775D01*
X512802Y54791D01*
X511844Y52480D01*
X511518Y50000D01*
X511844Y47520D01*
X512802Y45209D01*
X514324Y43225D01*
X516309Y41702D01*
X518620Y40745D01*
X521100Y40418D01*
X523580Y40745D01*
X525891Y41702D01*
X527875Y43225D01*
X529398Y45209D01*
X530355Y47520D01*
X530682Y50000D01*
X530355Y52480D01*
X529398Y54791D01*
X527875Y56775D01*
X525891Y58298D01*
X523580Y59255D01*
X521100Y59582D01*
D02*
G37*
G36*
X1041950Y70710D02*
X1010950D01*
Y39710D01*
X1041950D01*
Y70710D01*
D02*
G37*
G36*
X1008950D02*
X977950D01*
Y39710D01*
X1008950D01*
Y70710D01*
D02*
G37*
G36*
X241850D02*
X210850D01*
Y39710D01*
X241850D01*
Y70710D01*
D02*
G37*
G36*
X208850D02*
X177850D01*
Y39710D01*
X208850D01*
Y70710D01*
D02*
G37*
G36*
X898300Y32359D02*
X896934Y32087D01*
X895800Y31329D01*
X894666Y32087D01*
X893300Y32359D01*
X891934Y32087D01*
X890800Y31329D01*
X889666Y32087D01*
X888300Y32359D01*
X886934Y32087D01*
X885800Y31329D01*
X884666Y32087D01*
X883300Y32359D01*
X881934Y32087D01*
X880800Y31329D01*
X879666Y32087D01*
X878300Y32359D01*
X876934Y32087D01*
X875800Y31329D01*
X874666Y32087D01*
X874300Y32160D01*
Y23050D01*
Y13940D01*
X874666Y14013D01*
X875800Y14771D01*
X876934Y14013D01*
X878300Y13742D01*
X879666Y14013D01*
X880800Y14771D01*
X881934Y14013D01*
X883300Y13742D01*
X884666Y14013D01*
X885800Y14771D01*
X886934Y14013D01*
X888300Y13742D01*
X889666Y14013D01*
X890800Y14771D01*
X891934Y14013D01*
X893300Y13742D01*
X894666Y14013D01*
X895800Y14771D01*
X896934Y14013D01*
X898300Y13742D01*
X899666Y14013D01*
X900823Y14787D01*
X901597Y15944D01*
X901869Y17310D01*
Y28790D01*
X901597Y30156D01*
X900823Y31313D01*
X899666Y32087D01*
X898300Y32359D01*
D02*
G37*
G36*
X868300D02*
X866934Y32087D01*
X865800Y31329D01*
X864666Y32087D01*
X863300Y32359D01*
X861934Y32087D01*
X860800Y31329D01*
X859666Y32087D01*
X858300Y32359D01*
X856934Y32087D01*
X855800Y31329D01*
X854666Y32087D01*
X853300Y32359D01*
X851934Y32087D01*
X850800Y31329D01*
X849666Y32087D01*
X849300Y32160D01*
Y23050D01*
Y13940D01*
X849666Y14013D01*
X850800Y14771D01*
X851934Y14013D01*
X853300Y13742D01*
X854666Y14013D01*
X855800Y14771D01*
X856934Y14013D01*
X858300Y13742D01*
X859666Y14013D01*
X860800Y14771D01*
X861934Y14013D01*
X863300Y13742D01*
X864666Y14013D01*
X865800Y14771D01*
X866934Y14013D01*
X868300Y13742D01*
X869666Y14013D01*
X870800Y14771D01*
X871934Y14013D01*
X872300Y13940D01*
Y23050D01*
Y32160D01*
X871934Y32087D01*
X870800Y31329D01*
X869666Y32087D01*
X868300Y32359D01*
D02*
G37*
G36*
X843300D02*
X841934Y32087D01*
X840800Y31329D01*
X839666Y32087D01*
X838300Y32359D01*
X836934Y32087D01*
X835800Y31329D01*
X834666Y32087D01*
X833300Y32359D01*
X831934Y32087D01*
X830800Y31329D01*
X829666Y32087D01*
X828300Y32359D01*
X826934Y32087D01*
X825800Y31329D01*
X824666Y32087D01*
X824300Y32160D01*
Y23050D01*
Y13940D01*
X824666Y14013D01*
X825800Y14771D01*
X826934Y14013D01*
X828300Y13742D01*
X829666Y14013D01*
X830800Y14771D01*
X831934Y14013D01*
X833300Y13742D01*
X834666Y14013D01*
X835800Y14771D01*
X836934Y14013D01*
X838300Y13742D01*
X839666Y14013D01*
X840800Y14771D01*
X841934Y14013D01*
X843300Y13742D01*
X844666Y14013D01*
X845800Y14771D01*
X846934Y14013D01*
X847300Y13940D01*
Y23050D01*
Y32160D01*
X846934Y32087D01*
X845800Y31329D01*
X844666Y32087D01*
X843300Y32359D01*
D02*
G37*
G36*
X436500D02*
X435134Y32087D01*
X434000Y31329D01*
X432866Y32087D01*
X431500Y32359D01*
X430134Y32087D01*
X429000Y31329D01*
X427866Y32087D01*
X426500Y32359D01*
X425134Y32087D01*
X424000Y31329D01*
X422866Y32087D01*
X421500Y32359D01*
X420134Y32087D01*
X419000Y31329D01*
X417866Y32087D01*
X417500Y32160D01*
Y23050D01*
Y13940D01*
X417866Y14013D01*
X419000Y14771D01*
X420134Y14013D01*
X421500Y13742D01*
X422866Y14013D01*
X424000Y14771D01*
X425134Y14013D01*
X426500Y13742D01*
X427866Y14013D01*
X429000Y14771D01*
X430134Y14013D01*
X431500Y13742D01*
X432866Y14013D01*
X434000Y14771D01*
X435134Y14013D01*
X436500Y13742D01*
X437866Y14013D01*
X439000Y14771D01*
X440134Y14013D01*
X440500Y13940D01*
Y23050D01*
Y32160D01*
X440134Y32087D01*
X439000Y31329D01*
X437866Y32087D01*
X436500Y32359D01*
D02*
G37*
G36*
X361500D02*
X360134Y32087D01*
X359000Y31329D01*
X357866Y32087D01*
X356500Y32359D01*
X355134Y32087D01*
X354000Y31329D01*
X352866Y32087D01*
X351500Y32359D01*
X350134Y32087D01*
X349000Y31329D01*
X347866Y32087D01*
X346500Y32359D01*
X345134Y32087D01*
X344000Y31329D01*
X342866Y32087D01*
X342500Y32160D01*
Y23050D01*
Y13940D01*
X342866Y14013D01*
X344000Y14771D01*
X345134Y14013D01*
X346500Y13742D01*
X347866Y14013D01*
X349000Y14771D01*
X350134Y14013D01*
X351500Y13742D01*
X352866Y14013D01*
X354000Y14771D01*
X355134Y14013D01*
X356500Y13742D01*
X357866Y14013D01*
X359000Y14771D01*
X360134Y14013D01*
X361500Y13742D01*
X362866Y14013D01*
X364000Y14771D01*
X365134Y14013D01*
X365500Y13940D01*
Y23050D01*
Y32160D01*
X365134Y32087D01*
X364000Y31329D01*
X362866Y32087D01*
X361500Y32359D01*
D02*
G37*
G36*
X673500Y34182D02*
X671020Y33856D01*
X668709Y32898D01*
X666724Y31376D01*
X665202Y29391D01*
X664245Y27080D01*
X663918Y24600D01*
X664245Y22120D01*
X665202Y19809D01*
X666724Y17825D01*
X668709Y16302D01*
X671020Y15345D01*
X673500Y15018D01*
X675980Y15345D01*
X678291Y16302D01*
X680275Y17825D01*
X681798Y19809D01*
X682756Y22120D01*
X683082Y24600D01*
X682756Y27080D01*
X681798Y29391D01*
X680275Y31376D01*
X678291Y32898D01*
X675980Y33856D01*
X673500Y34182D01*
D02*
G37*
G36*
X648100D02*
X645620Y33856D01*
X643309Y32898D01*
X641324Y31376D01*
X639802Y29391D01*
X638844Y27080D01*
X638518Y24600D01*
X638844Y22120D01*
X639802Y19809D01*
X641324Y17825D01*
X643309Y16302D01*
X645620Y15345D01*
X648100Y15018D01*
X650580Y15345D01*
X652891Y16302D01*
X654875Y17825D01*
X656398Y19809D01*
X657355Y22120D01*
X657682Y24600D01*
X657355Y27080D01*
X656398Y29391D01*
X654875Y31376D01*
X652891Y32898D01*
X650580Y33856D01*
X648100Y34182D01*
D02*
G37*
G36*
X622700D02*
X620220Y33856D01*
X617909Y32898D01*
X615924Y31376D01*
X614402Y29391D01*
X613445Y27080D01*
X613118Y24600D01*
X613445Y22120D01*
X614402Y19809D01*
X615924Y17825D01*
X617909Y16302D01*
X620220Y15345D01*
X622700Y15018D01*
X625180Y15345D01*
X627491Y16302D01*
X629475Y17825D01*
X630998Y19809D01*
X631955Y22120D01*
X632282Y24600D01*
X631955Y27080D01*
X630998Y29391D01*
X629475Y31376D01*
X627491Y32898D01*
X625180Y33856D01*
X622700Y34182D01*
D02*
G37*
G36*
X597300D02*
X594820Y33856D01*
X592509Y32898D01*
X590524Y31376D01*
X589002Y29391D01*
X588045Y27080D01*
X587718Y24600D01*
X588045Y22120D01*
X589002Y19809D01*
X590524Y17825D01*
X592509Y16302D01*
X594820Y15345D01*
X597300Y15018D01*
X599780Y15345D01*
X602091Y16302D01*
X604075Y17825D01*
X605598Y19809D01*
X606555Y22120D01*
X606882Y24600D01*
X606555Y27080D01*
X605598Y29391D01*
X604075Y31376D01*
X602091Y32898D01*
X599780Y33856D01*
X597300Y34182D01*
D02*
G37*
G36*
X571900D02*
X569420Y33856D01*
X567109Y32898D01*
X565125Y31376D01*
X563602Y29391D01*
X562645Y27080D01*
X562318Y24600D01*
X562645Y22120D01*
X563602Y19809D01*
X565125Y17825D01*
X567109Y16302D01*
X569420Y15345D01*
X571900Y15018D01*
X574380Y15345D01*
X576691Y16302D01*
X578675Y17825D01*
X580198Y19809D01*
X581156Y22120D01*
X581482Y24600D01*
X581156Y27080D01*
X580198Y29391D01*
X578675Y31376D01*
X576691Y32898D01*
X574380Y33856D01*
X571900Y34182D01*
D02*
G37*
G36*
X546500D02*
X544020Y33856D01*
X541709Y32898D01*
X539725Y31376D01*
X538202Y29391D01*
X537244Y27080D01*
X536918Y24600D01*
X537244Y22120D01*
X538202Y19809D01*
X539725Y17825D01*
X541709Y16302D01*
X544020Y15345D01*
X546500Y15018D01*
X548980Y15345D01*
X551291Y16302D01*
X553275Y17825D01*
X554798Y19809D01*
X555756Y22120D01*
X556082Y24600D01*
X555756Y27080D01*
X554798Y29391D01*
X553275Y31376D01*
X551291Y32898D01*
X548980Y33856D01*
X546500Y34182D01*
D02*
G37*
G36*
X521100D02*
X518620Y33856D01*
X516309Y32898D01*
X514324Y31376D01*
X512802Y29391D01*
X511844Y27080D01*
X511518Y24600D01*
X511844Y22120D01*
X512802Y19809D01*
X514324Y17825D01*
X516309Y16302D01*
X518620Y15345D01*
X521100Y15018D01*
X523580Y15345D01*
X525891Y16302D01*
X527875Y17825D01*
X529398Y19809D01*
X530355Y22120D01*
X530682Y24600D01*
X530355Y27080D01*
X529398Y29391D01*
X527875Y31376D01*
X525891Y32898D01*
X523580Y33856D01*
X521100Y34182D01*
D02*
G37*
%LPD*%
D16*
X698900Y484600D02*
D03*
Y510000D02*
D03*
Y535400D02*
D03*
X673500Y484600D02*
D03*
Y510000D02*
D03*
Y535400D02*
D03*
X648100Y484600D02*
D03*
Y510000D02*
D03*
Y535400D02*
D03*
X622700Y484600D02*
D03*
Y510000D02*
D03*
Y535400D02*
D03*
X597300Y484600D02*
D03*
Y510000D02*
D03*
Y535400D02*
D03*
X571900Y484600D02*
D03*
Y510000D02*
D03*
Y535400D02*
D03*
X546500Y484600D02*
D03*
Y510000D02*
D03*
Y535400D02*
D03*
X521100Y484600D02*
D03*
Y510000D02*
D03*
Y535400D02*
D03*
X698900Y24600D02*
D03*
Y50000D02*
D03*
Y75400D02*
D03*
X673500Y24600D02*
D03*
Y50000D02*
D03*
Y75400D02*
D03*
X648100Y24600D02*
D03*
Y50000D02*
D03*
Y75400D02*
D03*
X622700Y24600D02*
D03*
Y50000D02*
D03*
Y75400D02*
D03*
X597300Y24600D02*
D03*
Y50000D02*
D03*
Y75400D02*
D03*
X571900Y24600D02*
D03*
Y50000D02*
D03*
Y75400D02*
D03*
X546500Y24600D02*
D03*
Y50000D02*
D03*
Y75400D02*
D03*
X521100Y24600D02*
D03*
Y50000D02*
D03*
Y75400D02*
D03*
D30*
X460700Y527910D02*
G03*
X461500Y529841I-1931J1931D01*
G01*
X454366Y504384D02*
G03*
X460700Y519675I-15291J15291D01*
G01*
X434126Y496000D02*
G03*
X454366Y504384I0J28624D01*
G01*
X338254Y496000D02*
G03*
X320293Y488560I0J-25400D01*
G01*
X168429Y348750D02*
G03*
X189006Y357273I0J29100D01*
G01*
X104639Y348750D02*
G03*
X98000Y346000I0J-9389D01*
G01*
X222350Y390617D02*
G03*
X222354Y390621I-5600J5608D01*
G01*
X216750Y388300D02*
G03*
X222350Y390617I0J7925D01*
G01*
X209409Y391341D02*
G03*
X216750Y388300I7341J7341D01*
G01*
X206250Y394500D02*
G03*
X203232Y395750I-3018J-3018D01*
G01*
X201268D02*
G03*
X198250Y394500I0J-4268D01*
G01*
X197487Y393737D02*
G03*
X196250Y390750I2987J-2987D01*
G01*
X197499Y387734D02*
G03*
X197500Y387733I3018J3016D01*
G01*
X196250Y390750D02*
G03*
X197499Y387734I4267J0D01*
G01*
X201672Y369939D02*
G03*
X204700Y377250I-7311J7311D01*
G01*
X457000Y527503D02*
G03*
X456500Y528710I-1707J0D01*
G01*
X451750Y507000D02*
G03*
X457000Y519675I-12675J12675D01*
G01*
X434126Y499700D02*
G03*
X451750Y507000I0J24924D01*
G01*
X338254Y499700D02*
G03*
X317677Y491177I0J-29100D01*
G01*
X168429Y352450D02*
G03*
X186390Y359889I0J25400D01*
G01*
X105572Y352450D02*
G03*
X90000Y346000I0J-22022D01*
G01*
X219736Y393236D02*
G03*
X219737Y393237I-2986J2989D01*
G01*
X216750Y392000D02*
G03*
X219736Y393236I0J4225D01*
G01*
X212026Y393957D02*
G03*
X216750Y392000I4724J4724D01*
G01*
X208866Y397116D02*
G03*
X203232Y399450I-5634J-5634D01*
G01*
X201268D02*
G03*
X195634Y397116I0J-7968D01*
G01*
X194871Y396354D02*
G03*
X192550Y390750I5604J-5604D01*
G01*
D02*
G03*
X194883Y385117I7967J0D01*
G01*
X201000Y377250D02*
G03*
X199762Y380238I-4225J0D01*
G01*
X199055Y372555D02*
G03*
X201000Y377250I-4695J4695D01*
G01*
X204700D02*
G03*
X202379Y382854I-7925J0D01*
G01*
X139964Y361550D02*
G03*
X158889Y369389I0J26763D01*
G01*
X446500Y529629D02*
G03*
X447150Y528060I2219J0D01*
G01*
X443897Y518147D02*
G03*
X447150Y526000I-7853J7853D01*
G01*
X434800Y514000D02*
G03*
X443250Y517500I0J11950D01*
G01*
X310321Y514000D02*
G03*
X289744Y505477I0J-29100D01*
G01*
X138996Y365250D02*
G03*
X156957Y372690I0J25400D01*
G01*
X100071Y365250D02*
G03*
X79494Y356727I0J-29100D01*
G01*
X73871Y340000D02*
G03*
X77505Y341505I0J5139D01*
G01*
X73500Y352000D02*
G03*
X75662Y352894I0J3060D01*
G01*
X73500Y352000D02*
G03*
X70513Y350763I0J-4225D01*
G01*
D02*
G03*
X68500Y345904I4859J-4859D01*
G01*
Y345725D02*
G03*
X70250Y341500I5975J0D01*
G01*
D02*
G03*
X73871Y340000I3621J3621D01*
G01*
X450850Y528060D02*
G03*
X451500Y529629I-1569J1569D01*
G01*
X446514Y515531D02*
G03*
X450850Y526000I-10469J10469D01*
G01*
X434800Y510300D02*
G03*
X445866Y514884I0J15650D01*
G01*
X310321Y510300D02*
G03*
X292360Y502860I0J-25400D01*
G01*
X100071Y361550D02*
G03*
X82111Y354110I0J-25400D01*
G01*
X1066277Y345620D02*
G03*
X1065970Y346030I-1588J-870D01*
G01*
X446500Y467829D02*
G03*
X447150Y466260I2219J0D01*
G01*
Y450622D02*
G03*
X452634Y437384I18722J0D01*
G01*
X462800Y427217D02*
G03*
X479500Y420300I16700J16700D01*
G01*
X999139Y412860D02*
G03*
X981179Y420300I-17960J-17960D01*
G01*
X450850Y466260D02*
G03*
X451500Y467829I-1569J1569D01*
G01*
X450850Y450622D02*
G03*
X455250Y440000I15022J0D01*
G01*
X465416Y429834D02*
G03*
X479500Y424000I14084J14084D01*
G01*
X1001756Y415477D02*
G03*
X981179Y424000I-20577J-20577D01*
G01*
X1069276Y347957D02*
G03*
X1069277Y347956I4724J4724D01*
G01*
D02*
G03*
X1074000Y346000I4723J4725D01*
G01*
X481344Y447050D02*
G03*
X489348Y450366I0J11320D01*
G01*
X495889Y453750D02*
G03*
X490501Y451518I0J-7620D01*
G01*
X505250Y452250D02*
G03*
X501629Y453750I-3621J-3621D01*
G01*
X507134Y450366D02*
G03*
X515139Y447050I8005J8005D01*
G01*
X461134Y453134D02*
G03*
X475821Y447050I14687J14687D01*
G01*
X457150Y462751D02*
G03*
X461134Y453134I13601J0D01*
G01*
X1013889Y439611D02*
G03*
X995929Y447050I-17960J-17960D01*
G01*
X1092000Y350979D02*
G03*
X1084560Y368940I-25400J0D01*
G01*
X1090763Y346763D02*
G03*
X1092000Y349750I-2987J2987D01*
G01*
X481344Y450750D02*
G03*
X486732Y452982I0J7620D01*
G01*
X495889Y457450D02*
G03*
X487884Y454134I0J-11320D01*
G01*
X507866Y454866D02*
G03*
X501629Y457450I-6238J-6238D01*
G01*
X509751Y452982D02*
G03*
X515139Y450750I5388J5388D01*
G01*
X463750Y455750D02*
G03*
X475821Y450750I12071J12071D01*
G01*
X460850Y462751D02*
G03*
X463750Y455750I9901J0D01*
G01*
X1016506Y442227D02*
G03*
X995929Y450750I-20577J-20577D01*
G01*
X1095700Y350979D02*
G03*
X1087177Y371556I-29100J0D01*
G01*
X1095700Y349750D02*
G03*
X1096725Y347275I3501J0D01*
G01*
X494000Y44000D02*
X510600Y60600D01*
X471222Y44000D02*
X494000D01*
X510600Y87600D02*
X544500Y121500D01*
X510600Y60600D02*
Y87600D01*
X455000Y176000D02*
X501000Y130000D01*
Y66000D02*
Y130000D01*
X491000Y56000D02*
X501000Y66000D01*
X455000Y176000D02*
Y209000D01*
X488000Y61000D02*
X496000Y69000D01*
X624000Y386000D02*
Y391000D01*
X603000Y402000D02*
X612000Y393000D01*
X465000Y402000D02*
X603000D01*
X441000Y426000D02*
X465000Y402000D01*
X692000Y231000D02*
X785000Y324000D01*
X585000Y231000D02*
X692000D01*
X545000Y271000D02*
X585000Y231000D01*
X417000Y97000D02*
X418000D01*
X416500Y97500D02*
X417000Y97000D01*
X811750Y362250D02*
Y400250D01*
X904750Y403250D02*
X905000Y403000D01*
Y364000D02*
Y403000D01*
X890998Y401998D02*
X891750Y402750D01*
X890998Y363999D02*
Y401998D01*
X810998Y363002D02*
Y363999D01*
Y363002D02*
X811750Y362250D01*
X698900Y24600D02*
X720300Y46000D01*
X877211D01*
X906800Y75589D01*
Y101480D01*
X900529Y107751D02*
X906800Y101480D01*
X890751Y107751D02*
X900529D01*
X885251Y102251D02*
X890751Y107751D01*
X698900Y50000D02*
X875554D01*
X902800Y77246D01*
Y97702D01*
X898251Y102251D02*
X902800Y97702D01*
X341000Y487000D02*
X341500Y486500D01*
X783300Y23050D02*
X783500Y22850D01*
X790998Y97899D02*
X791000Y97897D01*
X784600Y95722D02*
Y101400D01*
X783300Y94422D02*
X784600Y95722D01*
X778300Y98799D02*
X779100Y98000D01*
X778300Y84850D02*
Y98799D01*
X797690Y96590D02*
X798492D01*
X793300Y92201D02*
X797690Y96590D01*
X781000Y105000D02*
X784600Y101400D01*
X783300Y84850D02*
Y94422D01*
X744500Y546500D02*
X750500D01*
X745000Y546000D02*
X746000D01*
X744500Y546500D02*
X745000Y546000D01*
X823000Y548200D02*
X823300Y548500D01*
X823000Y548200D02*
Y550000D01*
X750500Y546500D02*
X753300Y543700D01*
X750000Y552000D02*
X752822D01*
X783300Y463580D02*
Y475150D01*
X782821Y463101D02*
X783300Y463580D01*
X782821Y463101D02*
X783998D01*
X778300Y459400D02*
Y475150D01*
X778000Y459100D02*
X778300Y459400D01*
X768300Y465799D02*
X770999Y463101D01*
X768300Y465799D02*
Y475150D01*
X763300Y462800D02*
Y475150D01*
X790998Y462101D02*
X791000Y462103D01*
X793300Y467799D02*
X797998Y463101D01*
X515139Y450750D02*
X995929D01*
X515139Y447050D02*
X995929D01*
X752000Y457000D02*
Y459278D01*
X758300Y465578D01*
X460700Y519675D02*
Y527910D01*
X338254Y496000D02*
X434126D01*
X222354Y390621D02*
X320293Y488560D01*
X104639Y348750D02*
X109000D01*
X98000Y344750D02*
Y346000D01*
X206250Y394500D02*
X209409Y391341D01*
X201268Y395750D02*
X203232D01*
X197500Y387733D02*
X202379Y382854D01*
X197499Y387734D02*
X197500Y387733D01*
X189006Y357273D02*
X201672Y369939D01*
X456500Y528710D02*
Y536950D01*
X457000Y519675D02*
Y527503D01*
X338254Y499700D02*
X434126D01*
X219737Y393237D02*
X317677Y491177D01*
X186390Y359889D02*
X188753Y362253D01*
X105572Y352450D02*
X168429D01*
X219736Y393236D02*
X219737Y393237D01*
X208866Y397116D02*
X212026Y393957D01*
X201268Y399450D02*
X203232D01*
X194871Y396354D02*
X195634Y397116D01*
X194883Y385117D02*
X199762Y380238D01*
X188753Y362253D02*
X199055Y372555D01*
X461500Y529841D02*
Y536950D01*
X120123Y348677D02*
X168429D01*
X109000Y348750D02*
X111000Y346750D01*
X113000Y344700D02*
X116145D01*
X120123Y348677D01*
X111000Y346700D02*
X113000Y344700D01*
X188753Y362253D02*
X188753D01*
X197487Y393737D02*
X198250Y394500D01*
X137960Y357710D02*
Y360109D01*
X136670Y356420D02*
X137960Y357710D01*
Y360109D02*
X139400Y361550D01*
X129000D02*
X130250Y360300D01*
Y357500D02*
Y360300D01*
Y357500D02*
X131330Y356420D01*
X123750Y360250D02*
X125050Y361550D01*
X123750Y358000D02*
Y360250D01*
X122170Y356420D02*
X123750Y358000D01*
X114650Y361550D02*
X116000Y360200D01*
Y357750D02*
Y360200D01*
Y357750D02*
X117330Y356420D01*
X109750Y360250D02*
X111050Y361550D01*
X109750Y357750D02*
Y360250D01*
X108420Y356420D02*
X109750Y357750D01*
X102000D02*
Y360250D01*
Y357750D02*
X103330Y356420D01*
X100700Y361550D02*
X102000Y360250D01*
X139400Y361550D02*
X139964D01*
X131330Y356420D02*
X136670D01*
X103330D02*
X108420D01*
X117330D02*
X122170D01*
X111050Y361550D02*
X114650D01*
X100071Y365250D02*
X138996D01*
X125050Y361550D02*
X129000D01*
X447150Y526000D02*
Y528060D01*
X446500Y529629D02*
Y536950D01*
X443250Y517500D02*
X443897Y518147D01*
X156957Y372690D02*
X289744Y505477D01*
X75662Y352894D02*
X79494Y356727D01*
X77505Y341505D02*
X82000Y346000D01*
X68500Y345725D02*
Y345904D01*
X156643Y372376D02*
X156957Y372690D01*
X450850Y526000D02*
Y528060D01*
X445866Y514884D02*
X446514Y515531D01*
X272000Y482500D02*
X292360Y502860D01*
X100071Y361550D02*
X100700D01*
X74000Y346000D02*
X82111Y354110D01*
X158889Y369389D02*
X272000Y482500D01*
X451500Y529629D02*
Y536950D01*
X272000Y482500D02*
X272000D01*
X1066277Y345620D02*
X1066516Y345382D01*
X1065918Y345979D02*
X1066277Y345620D01*
X1070963Y340750D02*
X1076750D01*
X1066516Y345197D02*
Y345382D01*
Y345197D02*
X1070963Y340750D01*
X1076750D02*
X1082000Y346000D01*
X451500Y467829D02*
Y475150D01*
X446500Y467829D02*
Y475150D01*
X447150Y450622D02*
Y466260D01*
X452634Y437384D02*
X462800Y427217D01*
X450850Y450622D02*
Y466260D01*
X455250Y440000D02*
X465416Y429834D01*
X507866Y454866D02*
X509751Y452982D01*
X460850Y466260D02*
X461500Y466910D01*
Y475150D01*
X456500Y466910D02*
Y475150D01*
Y466910D02*
X457150Y466260D01*
X495889Y453750D02*
X501629D01*
X475821Y447050D02*
X481344D01*
X457150Y462751D02*
Y466260D01*
X1090000Y346000D02*
X1090763Y346763D01*
X1013889Y439611D02*
X1084560Y368940D01*
X1092000Y349750D02*
Y350979D01*
X495889Y457450D02*
X501629D01*
X475821Y450750D02*
X481344D01*
X460850Y462751D02*
Y466260D01*
X1096725Y347275D02*
X1098000Y346000D01*
X1095700Y349750D02*
Y350979D01*
X1065233Y352000D02*
Y355233D01*
X1057000Y360233D02*
X1060233D01*
X1065233Y352000D02*
X1069276Y347957D01*
X1069277Y347956D01*
X1001756Y415477D02*
X1048233Y369000D01*
X1055000Y362233D02*
X1057000Y360233D01*
X1048233Y369000D02*
X1051000D01*
X1053000Y371000D01*
X1056000D01*
X1057250Y369750D01*
X1055000Y362233D02*
Y365000D01*
X1057250Y367250D01*
Y369750D01*
X1060233Y360233D02*
X1061750Y361750D01*
X1065250D01*
X1065233Y355233D02*
X1067000Y357000D01*
Y360000D01*
X1065250Y361750D02*
X1067000Y360000D01*
X466500Y536950D02*
X470000Y533450D01*
X441000Y524250D02*
X441500Y524750D01*
X436500Y527528D02*
Y536950D01*
X371500D02*
Y544500D01*
X368000Y548000D02*
X371500Y544500D01*
X336500Y462500D02*
Y475150D01*
X336000Y462000D02*
X336500Y462500D01*
X356500Y528500D02*
Y536950D01*
X376500D02*
Y545157D01*
X374000Y547657D02*
X376500Y545157D01*
X386500Y528498D02*
Y536950D01*
Y528498D02*
X387999Y526999D01*
X361500Y523500D02*
Y536950D01*
X357999Y519999D02*
X361500Y523500D01*
X346500Y536950D02*
Y544500D01*
X343999Y461999D02*
Y461999D01*
X346500Y464500D01*
Y475150D01*
X351500Y461500D02*
X352000Y461000D01*
X351500Y461500D02*
Y475150D01*
X361500D02*
Y484500D01*
X364000Y487000D01*
Y489000D01*
X371500Y487500D02*
X371999Y487999D01*
X371500Y475150D02*
Y487500D01*
X356500Y487500D02*
X356999Y487999D01*
X356500Y475150D02*
Y487500D01*
X379000Y484754D02*
Y487000D01*
X376500Y482254D02*
X379000Y484754D01*
X376500Y475150D02*
Y482254D01*
X329000Y462000D02*
Y463000D01*
X331500Y465500D01*
Y475150D01*
X341000Y486000D02*
Y487000D01*
X367000Y464000D02*
Y464000D01*
X366500Y463500D02*
X367000Y464000D01*
X391500Y536950D02*
Y548500D01*
X391000Y548000D02*
X391500Y548500D01*
X441000Y486000D02*
X441500Y485500D01*
X848300Y526500D02*
X848800Y526000D01*
X772800Y487000D02*
X773300Y487500D01*
X873000Y525050D02*
X873300Y524750D01*
X873000Y525050D02*
Y526000D01*
Y72950D02*
Y73900D01*
Y72950D02*
X873300Y72650D01*
X873000Y34900D02*
X873300Y34600D01*
X848300Y74400D02*
X848800Y73900D01*
X441200Y72950D02*
Y73900D01*
Y72950D02*
X441500Y72650D01*
X441200Y34900D02*
X441500Y34600D01*
X341000Y33900D02*
Y34900D01*
X367000Y11900D02*
Y11900D01*
X366500Y11400D02*
X367000Y11900D01*
X391000Y95900D02*
X391500Y96400D01*
X391000Y95900D02*
X391000D01*
X848000Y464000D02*
X848300Y464300D01*
X873300Y464700D02*
X873800Y464200D01*
X365000Y219000D02*
X375000Y209000D01*
X351565Y219000D02*
X365000D01*
X345000Y204000D02*
Y212435D01*
X351565Y219000D01*
X415000Y209000D02*
X496000Y128000D01*
Y69000D02*
Y128000D01*
X313000Y59000D02*
X321500Y50500D01*
Y23050D02*
Y50500D01*
X313000Y59000D02*
Y187000D01*
X335000Y209000D01*
X753300Y536950D02*
Y543700D01*
X768300Y536950D02*
Y546301D01*
X791000Y547657D02*
Y549997D01*
X787000Y488000D02*
X792554D01*
X798300Y475150D02*
Y482254D01*
X792554Y488000D02*
X798300Y482254D01*
X788300Y467143D02*
Y475150D01*
Y467143D02*
X791000Y464443D01*
X793300Y467799D02*
Y475150D01*
X791000Y462103D02*
Y464443D01*
X748000Y463100D02*
X753300Y468400D01*
X758300Y465578D02*
Y475150D01*
X753300Y468400D02*
Y475150D01*
X768300Y94200D02*
X770999Y96899D01*
X788300Y84850D02*
Y92857D01*
X791000Y95557D01*
X793300Y84850D02*
Y92201D01*
X791000Y95557D02*
Y97897D01*
X768300Y84850D02*
Y94200D01*
X763300Y84850D02*
Y97200D01*
X756000Y96722D02*
Y96900D01*
X748000D02*
X753300Y91600D01*
X756000Y96722D02*
X758300Y94422D01*
Y84850D02*
Y94422D01*
X753300Y84850D02*
Y91600D01*
X768300Y13700D02*
X770999Y11001D01*
X793300Y15699D02*
Y23050D01*
X768300Y13700D02*
Y23050D01*
X763300Y10700D02*
Y23050D01*
X756000Y11000D02*
Y11178D01*
X748000Y11000D02*
X753300Y16300D01*
X756000Y11178D02*
X758300Y13478D01*
Y23050D01*
X753300Y16300D02*
Y23050D01*
X374000Y547657D02*
Y550000D01*
X433750Y524778D02*
X436500Y527528D01*
X431500Y529250D02*
Y536950D01*
X391000Y548000D02*
X391000D01*
X357999Y519999D02*
Y519999D01*
X352000Y524000D02*
X356500Y528500D01*
X560300Y547000D02*
X571900Y535400D01*
X326000Y523000D02*
Y523668D01*
X330832Y528500D01*
X331500D01*
X331500Y528500D01*
Y536950D01*
X333110Y523000D02*
X334000D01*
X336499Y525499D01*
Y536949D01*
X336500Y536950D01*
X508100Y499100D02*
X611800D01*
X622700Y510000D01*
X633200Y495100D02*
X648100Y510000D01*
X505000Y496000D02*
X508100Y499100D01*
X508000Y540000D02*
X515000Y547000D01*
X560300D01*
X479810Y547190D02*
X496000Y531000D01*
Y523000D02*
Y531000D01*
X481467Y551190D02*
X500000Y532657D01*
Y521343D02*
Y532657D01*
X483124Y555190D02*
X504000Y534314D01*
Y519686D02*
Y534314D01*
X421500Y536950D02*
Y545157D01*
X427533Y551190D01*
X481467D01*
X426500Y536950D02*
Y544500D01*
X429190Y547190D02*
X479810D01*
X426500Y544500D02*
X429190Y547190D01*
X411500Y536950D02*
Y544500D01*
X422190Y555190D01*
X483124D01*
X489348Y450366D02*
X490501Y451518D01*
X497000Y493000D02*
X499500Y490500D01*
X497000Y493000D02*
Y495000D01*
X491500Y472500D02*
Y507186D01*
X504000Y519686D01*
X487500Y508843D02*
X500000Y521343D01*
X483500Y510500D02*
X496000Y523000D01*
X483500Y463500D02*
Y510500D01*
X483000Y463000D02*
X483500Y463500D01*
X487500Y465500D02*
Y508843D01*
Y465500D02*
X489000Y464000D01*
Y463000D02*
Y464000D01*
X491500Y472500D02*
X496000Y468000D01*
X482000Y463000D02*
X483000D01*
X392000Y462000D02*
X392000Y462000D01*
X386500Y475150D02*
X386500Y475150D01*
X427000Y419000D02*
X429121D01*
X647000Y256000D02*
X650000Y259000D01*
X647000Y252000D02*
X650000Y249000D01*
X431000Y474650D02*
X431500Y475150D01*
X431000Y451000D02*
X431000Y451000D01*
Y474650D01*
X435000Y444000D02*
X436500Y445500D01*
Y475150D01*
X430000Y450000D02*
X431000Y451000D01*
X428999Y448999D02*
X430000Y450000D01*
X428999Y448999D02*
X429998Y448000D01*
X429999Y448001D01*
Y448999D01*
X406500Y455500D02*
Y475150D01*
X411500Y458278D02*
Y475150D01*
Y458278D02*
X412500Y457278D01*
X421500Y458500D02*
Y475150D01*
X418000Y455000D02*
X421500Y458500D01*
X426500Y453500D02*
Y475150D01*
X406500Y455500D02*
X407000Y455000D01*
X381500Y454500D02*
Y475150D01*
X386500Y455157D02*
Y475150D01*
X401500Y445814D02*
Y475150D01*
X386500Y455157D02*
X412657Y429000D01*
X401500Y445814D02*
X409314Y438000D01*
X412500Y443500D02*
Y457278D01*
X422000Y449000D02*
X426500Y453500D01*
X1098500Y305500D02*
X1152000Y252000D01*
X1095000Y300000D02*
X1151000Y244000D01*
X1152000D01*
X999000Y297000D02*
Y300000D01*
X989000Y305500D02*
Y309000D01*
Y305500D02*
X1098500D01*
X999000Y300000D02*
X1095000D01*
X345500Y394500D02*
X351000Y389000D01*
X339722Y394500D02*
X345500D01*
X452000Y297000D02*
X464000Y309000D01*
Y310000D01*
X160000Y286000D02*
X342000D01*
X122000Y324000D02*
X160000Y286000D01*
X429121Y419000D02*
X508000Y340121D01*
Y293000D02*
Y340121D01*
X397000Y271000D02*
X545000D01*
X382000Y266000D02*
X392000Y256000D01*
X1074000Y212000D02*
X1098000Y236000D01*
X461500Y34278D02*
X471222Y44000D01*
X461500Y23050D02*
Y34278D01*
X990000Y93000D02*
X990778D01*
X995500Y97722D01*
Y103500D01*
X461000Y85350D02*
X461500Y84850D01*
X461000Y85350D02*
Y106000D01*
X472000Y66000D02*
X476000Y70000D01*
Y100000D01*
X395000Y209000D02*
X482000Y122000D01*
X476000Y100000D02*
X482000Y106000D01*
Y122000D01*
X461000Y106000D02*
X470000Y115000D01*
X475000D01*
X446000Y44000D02*
X451778D01*
X461500Y34278D01*
X772800Y486000D02*
Y487000D01*
X486732Y452982D02*
X487884Y454134D01*
X496000Y463000D02*
Y468000D01*
X505250Y452250D02*
X507134Y450366D01*
X1016506Y442227D02*
X1087177Y371556D01*
X1077000Y469000D02*
X1157500Y388500D01*
X698900Y535400D02*
X727300Y507000D01*
X930000D02*
X968000Y469000D01*
X1077000D01*
X490000Y385000D02*
X501000Y396000D01*
X657000Y404000D02*
Y410000D01*
X281000Y198000D02*
X334000Y251000D01*
X785000Y324000D02*
X1122000D01*
X98000Y236000D02*
X135000Y273000D01*
X350000D01*
X357000Y266000D01*
X527000Y125000D02*
X527500Y125500D01*
X973500D01*
X544500Y121500D02*
X968500D01*
X990000Y100000D01*
X973500Y125500D02*
X995500Y103500D01*
X346000Y344000D02*
X357000Y333000D01*
X346000Y344000D02*
Y385000D01*
X342000Y389000D02*
X346000Y385000D01*
X334000Y341000D02*
X341000Y334000D01*
X334000Y341000D02*
Y388778D01*
X339722Y394500D01*
X392000Y256000D02*
X508000D01*
X552000Y212000D01*
X1074000D01*
X376500Y84850D02*
Y95500D01*
X378500Y106500D02*
Y170500D01*
X371500Y99500D02*
X378500Y106500D01*
X345000Y204000D02*
X378500Y170500D01*
X376500Y95500D02*
X385000Y104000D01*
Y179000D01*
X355000Y209000D02*
X385000Y179000D01*
X441000Y426000D02*
Y431000D01*
X334000Y251000D02*
X360000D01*
X369000Y260000D01*
Y270000D01*
X463000Y364000D02*
X467000D01*
X351500Y536950D02*
Y546722D01*
X355000Y550222D02*
Y551000D01*
X351500Y546722D02*
X355000Y550222D01*
X346500Y544500D02*
X347500Y545500D01*
Y548379D01*
X348000Y548879D01*
Y551000D01*
X1130000Y238000D02*
X1131000D01*
X1137000Y232000D01*
X1157000D01*
X1164000Y239000D01*
Y267500D01*
X1157500Y274000D02*
X1164000Y267500D01*
X1157500Y274000D02*
Y388500D01*
X499500Y490500D02*
X509500D01*
X514100Y495100D01*
X633200D01*
X778300Y536950D02*
Y552700D01*
X752822Y552000D02*
X758300Y546522D01*
Y536950D02*
Y546522D01*
X763300Y536950D02*
Y549300D01*
X783300Y536950D02*
Y548520D01*
X768300Y546301D02*
X770999Y548999D01*
X790998Y549999D02*
X791000Y549997D01*
X782821Y548999D02*
X783300Y548520D01*
X793300Y544300D02*
X797998Y548999D01*
X793300Y536950D02*
Y544300D01*
X788300Y544957D02*
X791000Y547657D01*
X788300Y536950D02*
Y544957D01*
X782821Y548999D02*
X783998D01*
X778000Y553000D02*
X778300Y552700D01*
X793000Y311000D02*
X849000D01*
X369000Y270000D02*
X463000Y364000D01*
X754000Y507000D02*
Y510000D01*
X727300Y507000D02*
X754000D01*
X930000D01*
X416500Y526500D02*
X417001Y525999D01*
X380000Y525000D02*
X381500Y526500D01*
Y536950D01*
X387999Y524999D02*
Y526999D01*
X432750Y522250D02*
X433750Y524778D01*
X424750Y522500D02*
X431500Y529250D01*
X417001Y525999D02*
X417999D01*
X310321Y510300D02*
X434800D01*
X310321Y514000D02*
X434800D01*
X412250Y521749D02*
X413000Y520999D01*
X412250Y521749D02*
Y524096D01*
X406500Y529846D02*
X412250Y524096D01*
X406500Y529846D02*
Y536950D01*
X396500Y523500D02*
Y536950D01*
Y523500D02*
X399000Y521000D01*
X406000D02*
Y521778D01*
X401500Y526278D02*
Y536950D01*
Y526278D02*
X406000Y521778D01*
X396500Y475150D02*
Y484500D01*
X393000Y488000D02*
X396500Y484500D01*
X389000Y488000D02*
X393000D01*
X429278Y424500D02*
X432500Y421278D01*
Y421278D02*
Y421278D01*
Y421278D02*
X512000Y341778D01*
X381500Y454500D02*
X411500Y424500D01*
X429278D01*
X412657Y429000D02*
X430435D01*
X516000Y343435D01*
X590343Y252000D02*
X647000D01*
X512000Y330343D02*
Y341778D01*
X592000Y256000D02*
X647000D01*
X516000Y332000D02*
Y343435D01*
X512000Y330343D02*
X590343Y252000D01*
X516000Y332000D02*
X592000Y256000D01*
X999140Y412860D02*
X1065970Y346030D01*
X479500Y424000D02*
X981179D01*
X479500Y420300D02*
X981179D01*
X607000Y408000D02*
X624000Y391000D01*
X468000Y408000D02*
X607000D01*
X446500Y429500D02*
Y433278D01*
Y429500D02*
X468000Y408000D01*
X441778Y438000D02*
X446500Y433278D01*
X409314Y438000D02*
X441778D01*
X644000Y354000D02*
Y358000D01*
X608000Y366000D02*
X608500Y366500D01*
X635500D01*
X644000Y358000D01*
X371500Y84850D02*
Y99500D01*
X795000Y300000D02*
X999000D01*
X789000Y301778D02*
X792722Y305500D01*
X789000Y296000D02*
Y301778D01*
X792722Y305500D02*
X989000D01*
X401000Y9000D02*
X406500Y14500D01*
Y23050D01*
X411500Y11500D02*
Y23050D01*
X409000Y9000D02*
X411500Y11500D01*
X400000Y66000D02*
X472000D01*
X371500Y23050D02*
Y37500D01*
X400000Y66000D01*
X403000Y61000D02*
X488000D01*
X376500Y23050D02*
Y34500D01*
X403000Y61000D01*
X406000Y56000D02*
X491000D01*
X396500Y23050D02*
Y46500D01*
X406000Y56000D01*
X773900Y36000D02*
X774000D01*
X772800Y34900D02*
X773900Y36000D01*
X781936Y11000D02*
X783500Y12564D01*
Y22850D01*
X781000Y11000D02*
X781936D01*
X793300Y15699D02*
X797998Y11001D01*
X790998Y10001D02*
X791000Y10003D01*
X788300Y12703D02*
Y23050D01*
Y12703D02*
X791000Y10003D01*
X778300Y23050D02*
Y32300D01*
X781000Y35000D01*
X787000D01*
X501000Y396000D02*
X596000D01*
X613000Y379000D01*
X632000D01*
X657000Y404000D01*
D31*
X473000Y458000D02*
Y475650D01*
X470000Y478650D02*
X473000Y475650D01*
X470000Y478650D02*
Y533450D01*
X562000Y296000D02*
Y309000D01*
X580000Y327000D01*
D32*
X466500Y77500D02*
X469000Y75000D01*
X466500Y77500D02*
Y84850D01*
Y31500D02*
X469000Y34000D01*
X466500Y23050D02*
Y31500D01*
D33*
X257000Y258000D02*
X271000Y244000D01*
Y226500D02*
Y244000D01*
X778000Y334000D02*
X877000D01*
X731000Y287000D02*
Y292000D01*
Y318000D01*
Y287000D02*
X778000Y334000D01*
D37*
X559000Y343000D02*
X578000D01*
X603000Y318000D01*
D38*
X110000Y170000D02*
D03*
Y390000D02*
D03*
X1110000D02*
D03*
Y170000D02*
D03*
D39*
X525000Y375000D02*
D03*
X710000Y175000D02*
D03*
D40*
X1009950Y521290D02*
D03*
X209850D02*
D03*
X1009950Y38710D02*
D03*
X209850D02*
D03*
D41*
X455000Y209000D02*
D03*
Y229000D02*
D03*
X435000Y209000D02*
D03*
Y229000D02*
D03*
X415000Y209000D02*
D03*
Y229000D02*
D03*
X395000Y209000D02*
D03*
Y229000D02*
D03*
X375000Y209000D02*
D03*
Y229000D02*
D03*
X355000Y209000D02*
D03*
Y229000D02*
D03*
X335000Y209000D02*
D03*
Y229000D02*
D03*
D42*
X362000Y97000D02*
D03*
X449000D02*
D03*
X418000D02*
D03*
X271000Y226500D02*
D03*
X904750Y403250D02*
D03*
X905000Y364000D02*
D03*
X891750Y402750D02*
D03*
X890998Y363999D02*
D03*
X811750Y400250D02*
D03*
X810998Y363999D02*
D03*
X838000Y366000D02*
D03*
X898251Y102251D02*
D03*
X885251D02*
D03*
X838000Y105000D02*
D03*
X823000Y74000D02*
D03*
X787000Y35000D02*
D03*
X790998Y97899D02*
D03*
X779100Y98000D02*
D03*
X798492Y96590D02*
D03*
X781000Y105000D02*
D03*
X746000Y546000D02*
D03*
X823000Y550000D02*
D03*
X750000Y552000D02*
D03*
X783998Y463101D02*
D03*
X778000Y459100D02*
D03*
X770999Y463101D02*
D03*
X763300Y462800D02*
D03*
X790998Y462101D02*
D03*
X797998Y463101D02*
D03*
X752000Y457000D02*
D03*
X98000Y344750D02*
D03*
X90000Y346000D02*
D03*
X82000D02*
D03*
X74000D02*
D03*
X74500Y359750D02*
D03*
X1074000Y346000D02*
D03*
X469000Y75000D02*
D03*
Y34000D02*
D03*
X1082000Y346000D02*
D03*
X1098000D02*
D03*
X1090000D02*
D03*
X1122000Y324000D02*
D03*
X1098000Y236000D02*
D03*
X122000Y324000D02*
D03*
X98000Y236000D02*
D03*
X441000Y524250D02*
D03*
X336500Y462500D02*
D03*
X329000Y462000D02*
D03*
X343999Y461999D02*
D03*
X352000Y461000D02*
D03*
X364000Y489000D02*
D03*
X371999Y487999D02*
D03*
X356999D02*
D03*
X379000Y487000D02*
D03*
X341000Y486000D02*
D03*
X367000Y464000D02*
D03*
X441000Y486000D02*
D03*
X848800Y526000D02*
D03*
X799800D02*
D03*
X873000D02*
D03*
X824000Y464000D02*
D03*
Y11900D02*
D03*
X873000Y73900D02*
D03*
Y34900D02*
D03*
X799800Y73900D02*
D03*
X773799Y73899D02*
D03*
X848800Y73900D02*
D03*
X441200D02*
D03*
Y34900D02*
D03*
X341000Y33900D02*
D03*
X367000Y11900D02*
D03*
X341999Y73899D02*
D03*
X391000Y95900D02*
D03*
X377000Y72000D02*
D03*
X848000Y464000D02*
D03*
X873800Y464200D02*
D03*
X787000Y488000D02*
D03*
X748000Y463100D02*
D03*
X770999Y96899D02*
D03*
X763300Y97200D02*
D03*
X756000Y96900D02*
D03*
X748000D02*
D03*
X795000Y35000D02*
D03*
X770999Y11001D02*
D03*
X763300Y10700D02*
D03*
X756000Y11000D02*
D03*
X748000D02*
D03*
X367000Y549000D02*
D03*
X374000Y550000D02*
D03*
X391000Y548000D02*
D03*
X368000Y526000D02*
D03*
X380000Y525000D02*
D03*
X357999Y519999D02*
D03*
X352000Y524000D02*
D03*
X341999Y525999D02*
D03*
X326000Y523000D02*
D03*
X333110D02*
D03*
X505000Y496000D02*
D03*
X508000Y540000D02*
D03*
X473000Y458000D02*
D03*
X497000Y495000D02*
D03*
X489000Y463000D02*
D03*
X482000D02*
D03*
X612000Y393000D02*
D03*
X624000Y386000D02*
D03*
X441000Y431000D02*
D03*
X392000Y462000D02*
D03*
X399000Y521000D02*
D03*
X427000Y419000D02*
D03*
X650000Y259000D02*
D03*
Y249000D02*
D03*
X435000Y444000D02*
D03*
X418000Y455000D02*
D03*
X429999Y448999D02*
D03*
X407000Y455000D02*
D03*
X388000Y430000D02*
D03*
X386999Y422999D02*
D03*
X412500Y443500D02*
D03*
X422000Y449000D02*
D03*
X793000Y311000D02*
D03*
X789000Y296000D02*
D03*
X1152000Y252000D02*
D03*
Y244000D02*
D03*
X989000Y309000D02*
D03*
X999000Y297000D02*
D03*
X357000Y333000D02*
D03*
X341000Y334000D02*
D03*
X351000Y389000D02*
D03*
X342000D02*
D03*
X464000Y310000D02*
D03*
X452000Y297000D02*
D03*
X342000Y286000D02*
D03*
X357000Y266000D02*
D03*
X508000Y293000D02*
D03*
X397000Y271000D02*
D03*
X382000Y266000D02*
D03*
X990000Y100000D02*
D03*
Y93000D02*
D03*
X475000Y115000D02*
D03*
X401000Y9000D02*
D03*
X392200Y11900D02*
D03*
X446000Y44000D02*
D03*
X460000Y130000D02*
D03*
X450000Y140000D02*
D03*
X440000Y150000D02*
D03*
X292000Y380000D02*
D03*
X373000Y381000D02*
D03*
X69000Y368000D02*
D03*
X193000Y252000D02*
D03*
X154000Y211000D02*
D03*
X863000Y411000D02*
D03*
X767000D02*
D03*
X783000Y152000D02*
D03*
X863000D02*
D03*
X1193000Y251500D02*
D03*
X1138000Y211000D02*
D03*
X1130000Y238000D02*
D03*
X773799Y525999D02*
D03*
X772800Y486000D02*
D03*
X496000Y463000D02*
D03*
X1069000Y372500D02*
D03*
X490000Y385000D02*
D03*
X657000Y410000D02*
D03*
X281000Y198000D02*
D03*
X731000Y318000D02*
D03*
X527000Y125000D02*
D03*
X877000Y334000D02*
D03*
X590000Y116000D02*
D03*
X698900Y349100D02*
D03*
Y356000D02*
D03*
X583000Y116000D02*
D03*
X176000Y236000D02*
D03*
X146000Y235500D02*
D03*
X53500Y344250D02*
D03*
X65500Y276000D02*
D03*
X44000Y292000D02*
D03*
X65500Y308000D02*
D03*
X44000Y324000D02*
D03*
X176000Y292000D02*
D03*
Y260000D02*
D03*
X280000Y261750D02*
D03*
X320500Y355750D02*
D03*
X340000D02*
D03*
X359500D02*
D03*
X346500Y415750D02*
D03*
X327000D02*
D03*
X400500Y355750D02*
D03*
X420000D02*
D03*
X439500D02*
D03*
X433000Y394250D02*
D03*
X407000D02*
D03*
X472000Y525000D02*
D03*
X536000Y254000D02*
D03*
X683000Y272000D02*
D03*
X514000Y286000D02*
D03*
Y190000D02*
D03*
X766000Y133000D02*
D03*
X868000Y139000D02*
D03*
X898000Y164000D02*
D03*
X917000Y135000D02*
D03*
X1154000Y208000D02*
D03*
X1185000Y203000D02*
D03*
X1177000Y292000D02*
D03*
X1176000Y260000D02*
D03*
X1174000Y332000D02*
D03*
X1125000Y355000D02*
D03*
X1083000D02*
D03*
X1053000Y344000D02*
D03*
X1069000Y312000D02*
D03*
X1035000Y290000D02*
D03*
X1069000Y276000D02*
D03*
X945000Y262000D02*
D03*
X866000Y398000D02*
D03*
X918000Y385000D02*
D03*
X898000Y412000D02*
D03*
X785000Y398000D02*
D03*
X819000Y408000D02*
D03*
X364000Y59000D02*
D03*
X352000Y150000D02*
D03*
X372000D02*
D03*
X433000Y97000D02*
D03*
X467000D02*
D03*
X818000Y161000D02*
D03*
X643000Y225000D02*
D03*
X585000Y200000D02*
D03*
X525000Y229000D02*
D03*
X731000Y292000D02*
D03*
X419000Y73000D02*
D03*
X467000Y364000D02*
D03*
X463000Y443000D02*
D03*
X257000Y258000D02*
D03*
X355000Y551000D02*
D03*
X348000Y551000D02*
D03*
X416500Y486750D02*
D03*
X763300Y549300D02*
D03*
X797998Y548999D02*
D03*
X770999D02*
D03*
X790998Y549999D02*
D03*
X783998Y548999D02*
D03*
X778000Y553000D02*
D03*
X849000Y311000D02*
D03*
X407000Y308000D02*
D03*
X754000Y510000D02*
D03*
X585000Y532000D02*
D03*
X387999Y524999D02*
D03*
X432750Y522250D02*
D03*
X424750Y522500D02*
D03*
X417999Y525999D02*
D03*
X413000Y520999D02*
D03*
X406000Y521000D02*
D03*
X389000Y488000D02*
D03*
X349000D02*
D03*
X320000Y304000D02*
D03*
X196000Y342000D02*
D03*
X177000Y320000D02*
D03*
X152000Y322000D02*
D03*
X722000Y198000D02*
D03*
X681000Y205000D02*
D03*
X799000Y204000D02*
D03*
Y291000D02*
D03*
Y318000D02*
D03*
X642000Y141000D02*
D03*
X387000Y252000D02*
D03*
X445000Y145000D02*
D03*
X455000Y135000D02*
D03*
X614000Y361000D02*
D03*
X555000Y376000D02*
D03*
X60000Y150000D02*
D03*
X40000Y190000D02*
D03*
Y350000D02*
D03*
X60000Y390000D02*
D03*
X80000Y110000D02*
D03*
X100000Y150000D02*
D03*
X80000Y190000D02*
D03*
Y270000D02*
D03*
X100000Y310000D02*
D03*
X80000Y430000D02*
D03*
X100000Y470000D02*
D03*
X140000Y70000D02*
D03*
X120000Y110000D02*
D03*
X140000Y150000D02*
D03*
X120000Y190000D02*
D03*
Y270000D02*
D03*
X140000Y390000D02*
D03*
X120000Y430000D02*
D03*
X140000Y470000D02*
D03*
X160000Y30000D02*
D03*
Y110000D02*
D03*
Y190000D02*
D03*
Y430000D02*
D03*
X180000Y470000D02*
D03*
X160000Y510000D02*
D03*
X200000Y110000D02*
D03*
X220000Y150000D02*
D03*
X200000Y190000D02*
D03*
X220000Y230000D02*
D03*
Y310000D02*
D03*
Y470000D02*
D03*
X240000Y110000D02*
D03*
X260000Y150000D02*
D03*
X240000Y190000D02*
D03*
Y350000D02*
D03*
X260000Y390000D02*
D03*
X280000Y30000D02*
D03*
Y110000D02*
D03*
Y190000D02*
D03*
X300000Y230000D02*
D03*
Y310000D02*
D03*
X280000Y430000D02*
D03*
X320000D02*
D03*
X380000Y310000D02*
D03*
X420000Y390000D02*
D03*
X480000Y30000D02*
D03*
Y190000D02*
D03*
X500000Y230000D02*
D03*
X520000Y110000D02*
D03*
Y350000D02*
D03*
X560000Y30000D02*
D03*
X580000Y470000D02*
D03*
X600000Y270000D02*
D03*
X620000Y470000D02*
D03*
X640000Y270000D02*
D03*
X660000Y390000D02*
D03*
X720000Y350000D02*
D03*
X760000Y270000D02*
D03*
Y350000D02*
D03*
X860000Y230000D02*
D03*
X840000Y270000D02*
D03*
Y350000D02*
D03*
X900000Y230000D02*
D03*
X880000Y270000D02*
D03*
X920000Y190000D02*
D03*
X940000Y230000D02*
D03*
X920000Y270000D02*
D03*
Y350000D02*
D03*
X940000Y390000D02*
D03*
Y470000D02*
D03*
X960000Y30000D02*
D03*
Y110000D02*
D03*
X980000Y150000D02*
D03*
X960000Y190000D02*
D03*
X980000Y230000D02*
D03*
X960000Y270000D02*
D03*
X980000Y390000D02*
D03*
X960000Y510000D02*
D03*
X1020000Y150000D02*
D03*
X1000000Y190000D02*
D03*
X1020000Y230000D02*
D03*
X1000000Y270000D02*
D03*
Y350000D02*
D03*
X1060000Y70000D02*
D03*
X1040000Y110000D02*
D03*
X1060000Y150000D02*
D03*
X1040000Y190000D02*
D03*
Y350000D02*
D03*
X1100000Y70000D02*
D03*
X1080000Y110000D02*
D03*
X1100000Y150000D02*
D03*
X1080000Y270000D02*
D03*
Y430000D02*
D03*
X1100000Y470000D02*
D03*
X1080000Y510000D02*
D03*
X1120000Y110000D02*
D03*
X1140000Y150000D02*
D03*
X1120000Y190000D02*
D03*
X1140000Y310000D02*
D03*
Y390000D02*
D03*
X1180000Y150000D02*
D03*
X1160000Y190000D02*
D03*
Y430000D02*
D03*
X559000Y343000D02*
D03*
X603000Y318000D02*
D03*
X559999Y351999D02*
D03*
X562000Y296000D02*
D03*
X596000Y338000D02*
D03*
X580000Y327000D02*
D03*
X644000Y354000D02*
D03*
X608000Y366000D02*
D03*
X559000Y319000D02*
D03*
X629000Y328000D02*
D03*
X528000Y437000D02*
D03*
X549000Y282000D02*
D03*
X717000Y296000D02*
D03*
X324000Y159000D02*
D03*
X342000Y109000D02*
D03*
X686000Y44000D02*
D03*
X675000Y63000D02*
D03*
X614000Y10000D02*
D03*
X724000Y9000D02*
D03*
X608000Y116000D02*
D03*
X795000Y300000D02*
D03*
X1210000Y380000D02*
D03*
Y330000D02*
D03*
Y280000D02*
D03*
Y180000D02*
D03*
Y230000D02*
D03*
X10000Y180000D02*
D03*
Y380000D02*
D03*
Y280000D02*
D03*
Y230000D02*
D03*
Y330000D02*
D03*
X650000Y550000D02*
D03*
X687000Y522000D02*
D03*
X297000Y549000D02*
D03*
X23000Y271000D02*
D03*
X1020000Y273000D02*
D03*
X924000Y549000D02*
D03*
X409000Y9000D02*
D03*
X405000Y40750D02*
D03*
X795000Y160000D02*
D03*
X810000Y40000D02*
D03*
X848000Y35000D02*
D03*
X774000Y36000D02*
D03*
X797998Y11001D02*
D03*
X781000Y11000D02*
D03*
X790998Y10001D02*
D03*
X507000Y137000D02*
D03*
X700000Y150000D02*
D03*
X514000Y137000D02*
D03*
X731000Y285000D02*
D03*
D45*
X466500Y536950D02*
D03*
Y475150D02*
D03*
X461500Y536950D02*
D03*
Y475150D02*
D03*
X456500Y536950D02*
D03*
Y475150D02*
D03*
X451500Y536950D02*
D03*
Y475150D02*
D03*
X446500Y536950D02*
D03*
Y475150D02*
D03*
X441500Y536950D02*
D03*
Y475150D02*
D03*
X436500Y536950D02*
D03*
Y475150D02*
D03*
X431500Y536950D02*
D03*
Y475150D02*
D03*
X426500Y536950D02*
D03*
Y475150D02*
D03*
X421500Y536950D02*
D03*
Y475150D02*
D03*
X416500Y536950D02*
D03*
Y475150D02*
D03*
X411500Y536950D02*
D03*
Y475150D02*
D03*
X406500Y536950D02*
D03*
Y475150D02*
D03*
X401500Y536950D02*
D03*
Y475150D02*
D03*
X396500Y536950D02*
D03*
Y475150D02*
D03*
X391500Y536950D02*
D03*
Y475150D02*
D03*
X386500Y536950D02*
D03*
Y475150D02*
D03*
X381500Y536950D02*
D03*
Y475150D02*
D03*
X376500Y536950D02*
D03*
X371500D02*
D03*
Y475150D02*
D03*
X366500Y536950D02*
D03*
Y475150D02*
D03*
X361500Y536950D02*
D03*
Y475150D02*
D03*
X356500Y536950D02*
D03*
Y475150D02*
D03*
X351500Y536950D02*
D03*
Y475150D02*
D03*
X346500Y536950D02*
D03*
Y475150D02*
D03*
X341500Y536950D02*
D03*
Y475150D02*
D03*
X336500Y536950D02*
D03*
Y475150D02*
D03*
X331500Y536950D02*
D03*
Y475150D02*
D03*
X326500Y536950D02*
D03*
Y475150D02*
D03*
X321500Y536950D02*
D03*
Y475150D02*
D03*
X376500D02*
D03*
Y23050D02*
D03*
X321500D02*
D03*
Y84850D02*
D03*
X326500Y23050D02*
D03*
Y84850D02*
D03*
X331500Y23050D02*
D03*
Y84850D02*
D03*
X336500Y23050D02*
D03*
Y84850D02*
D03*
X341500Y23050D02*
D03*
Y84850D02*
D03*
X346500Y23050D02*
D03*
Y84850D02*
D03*
X351500Y23050D02*
D03*
Y84850D02*
D03*
X356500Y23050D02*
D03*
Y84850D02*
D03*
X361500Y23050D02*
D03*
Y84850D02*
D03*
X366500Y23050D02*
D03*
Y84850D02*
D03*
X371500Y23050D02*
D03*
Y84850D02*
D03*
X376500D02*
D03*
X381500Y23050D02*
D03*
Y84850D02*
D03*
X386500Y23050D02*
D03*
Y84850D02*
D03*
X391500Y23050D02*
D03*
Y84850D02*
D03*
X396500Y23050D02*
D03*
Y84850D02*
D03*
X401500Y23050D02*
D03*
Y84850D02*
D03*
X406500Y23050D02*
D03*
Y84850D02*
D03*
X411500Y23050D02*
D03*
Y84850D02*
D03*
X416500Y23050D02*
D03*
Y84850D02*
D03*
X421500Y23050D02*
D03*
Y84850D02*
D03*
X426500Y23050D02*
D03*
Y84850D02*
D03*
X431500Y23050D02*
D03*
Y84850D02*
D03*
X436500Y23050D02*
D03*
Y84850D02*
D03*
X441500Y23050D02*
D03*
Y84850D02*
D03*
X446500Y23050D02*
D03*
Y84850D02*
D03*
X451500Y23050D02*
D03*
Y84850D02*
D03*
X456500Y23050D02*
D03*
Y84850D02*
D03*
X461500Y23050D02*
D03*
Y84850D02*
D03*
X466500Y23050D02*
D03*
Y84850D02*
D03*
X898300D02*
D03*
Y23050D02*
D03*
X893300Y84850D02*
D03*
Y23050D02*
D03*
X888300Y84850D02*
D03*
Y23050D02*
D03*
X883300Y84850D02*
D03*
Y23050D02*
D03*
X878300Y84850D02*
D03*
Y23050D02*
D03*
X873300Y84850D02*
D03*
Y23050D02*
D03*
X868300Y84850D02*
D03*
Y23050D02*
D03*
X863300Y84850D02*
D03*
Y23050D02*
D03*
X858300Y84850D02*
D03*
Y23050D02*
D03*
X853300Y84850D02*
D03*
Y23050D02*
D03*
X848300Y84850D02*
D03*
Y23050D02*
D03*
X843300Y84850D02*
D03*
Y23050D02*
D03*
X838300Y84850D02*
D03*
Y23050D02*
D03*
X833300Y84850D02*
D03*
Y23050D02*
D03*
X828300Y84850D02*
D03*
Y23050D02*
D03*
X823300Y84850D02*
D03*
Y23050D02*
D03*
X818300Y84850D02*
D03*
Y23050D02*
D03*
X813300Y84850D02*
D03*
Y23050D02*
D03*
X808300Y84850D02*
D03*
X803300D02*
D03*
Y23050D02*
D03*
X798300Y84850D02*
D03*
Y23050D02*
D03*
X793300Y84850D02*
D03*
Y23050D02*
D03*
X788300Y84850D02*
D03*
Y23050D02*
D03*
X783300Y84850D02*
D03*
Y23050D02*
D03*
X778300Y84850D02*
D03*
Y23050D02*
D03*
X773300Y84850D02*
D03*
Y23050D02*
D03*
X768300Y84850D02*
D03*
Y23050D02*
D03*
X763300Y84850D02*
D03*
Y23050D02*
D03*
X758300Y84850D02*
D03*
Y23050D02*
D03*
X753300Y84850D02*
D03*
Y23050D02*
D03*
X808300D02*
D03*
Y475150D02*
D03*
X753300D02*
D03*
Y536950D02*
D03*
X758300Y475150D02*
D03*
Y536950D02*
D03*
X763300Y475150D02*
D03*
Y536950D02*
D03*
X768300Y475150D02*
D03*
Y536950D02*
D03*
X773300Y475150D02*
D03*
Y536950D02*
D03*
X778300Y475150D02*
D03*
Y536950D02*
D03*
X783300Y475150D02*
D03*
Y536950D02*
D03*
X788300Y475150D02*
D03*
Y536950D02*
D03*
X793300Y475150D02*
D03*
Y536950D02*
D03*
X798300Y475150D02*
D03*
Y536950D02*
D03*
X803300Y475150D02*
D03*
Y536950D02*
D03*
X808300D02*
D03*
X813300Y475150D02*
D03*
Y536950D02*
D03*
X818300Y475150D02*
D03*
Y536950D02*
D03*
X823300Y475150D02*
D03*
Y536950D02*
D03*
X828300Y475150D02*
D03*
Y536950D02*
D03*
X833300Y475150D02*
D03*
Y536950D02*
D03*
X838300Y475150D02*
D03*
Y536950D02*
D03*
X843300Y475150D02*
D03*
Y536950D02*
D03*
X848300Y475150D02*
D03*
Y536950D02*
D03*
X853300Y475150D02*
D03*
Y536950D02*
D03*
X858300Y475150D02*
D03*
Y536950D02*
D03*
X863300Y475150D02*
D03*
Y536950D02*
D03*
X868300Y475150D02*
D03*
Y536950D02*
D03*
X873300Y475150D02*
D03*
Y536950D02*
D03*
X878300Y475150D02*
D03*
Y536950D02*
D03*
X883300Y475150D02*
D03*
Y536950D02*
D03*
X888300Y475150D02*
D03*
Y536950D02*
D03*
X893300Y475150D02*
D03*
Y536950D02*
D03*
X898300Y475150D02*
D03*
Y536950D02*
D03*
D46*
X823300Y74300D02*
Y84850D01*
X823000Y74000D02*
X823300Y74300D01*
X391500Y462500D02*
X392000Y462000D01*
X391500Y462500D02*
Y475150D01*
X341500D02*
Y486500D01*
X341000Y34900D02*
X341500Y34400D01*
Y23050D02*
Y34400D01*
X773300Y23050D02*
Y34400D01*
X772800Y34900D02*
X773300Y34400D01*
X416500Y475150D02*
Y486750D01*
X441500Y524750D02*
Y536950D01*
X366500Y463500D02*
Y475150D01*
X341500Y525250D02*
Y536950D01*
X416500Y526500D02*
Y536950D01*
X366500Y527000D02*
X367500Y526000D01*
X366500Y527000D02*
Y536950D01*
X441500Y475150D02*
Y485500D01*
X798300Y527000D02*
Y536950D01*
Y527000D02*
X799300Y526000D01*
X848300Y526500D02*
Y536950D01*
X823300D02*
Y548500D01*
X799300Y526000D02*
X799800D01*
X773300Y475150D02*
Y487500D01*
Y525250D02*
Y536950D01*
X873300Y524750D02*
Y536950D01*
X823300Y464000D02*
Y475150D01*
Y11900D02*
Y23050D01*
X873300D02*
Y34600D01*
Y72650D02*
Y84850D01*
X773300Y73150D02*
Y84850D01*
X799300Y73900D02*
X799800D01*
X773799Y73899D02*
X774550Y73148D01*
X848300Y74400D02*
Y84850D01*
X798300Y74900D02*
X799300Y73900D01*
X798300Y74900D02*
Y84850D01*
X441500Y23050D02*
Y34600D01*
X366500Y11400D02*
Y23050D01*
X341500Y73150D02*
Y84850D01*
X341999Y73899D02*
X342750Y73148D01*
X391500Y84850D02*
Y96400D01*
X366500Y74900D02*
Y84850D01*
X416500D02*
Y97500D01*
X369400Y72000D02*
X377000D01*
X366500Y74900D02*
X369400Y72000D01*
X381500Y76500D02*
Y84850D01*
X377000Y72000D02*
X381500Y76500D01*
Y13774D02*
Y23050D01*
Y13774D02*
X383374Y11900D01*
X391500D01*
Y23050D01*
X848300Y464300D02*
Y475150D01*
X873300Y464700D02*
Y475150D01*
X798300Y23050D02*
Y31700D01*
X795000Y35000D02*
X798300Y31700D01*
X441500Y72650D02*
Y84850D01*
X367500Y526000D02*
X368000D01*
X341999Y525999D02*
X342750Y525248D01*
X773799Y525999D02*
X774550Y525248D01*
X416500Y10500D02*
Y23050D01*
X848300D02*
Y34700D01*
X848000Y35000D02*
X848300Y34700D01*
M02*
