G04 Layer_Physical_Order=3*
G04 Layer_Color=16440176*
%FSLAX44Y44*%
%MOMM*%
G71*
G01*
G75*
%ADD16C,1.5000*%
%ADD40R,6.0000X6.0000*%
%ADD41C,1.3000*%
%ADD42C,0.5000*%
G36*
X342855Y555000D02*
X343924Y553000D01*
X343761Y552756D01*
X343412Y551000D01*
X343761Y549244D01*
X344756Y547756D01*
X346244Y546761D01*
X348000Y546412D01*
X349756Y546761D01*
X349935Y546881D01*
X351756Y547756D01*
X353244Y546761D01*
X355000Y546412D01*
X356756Y546761D01*
X358244Y547756D01*
X359239Y549244D01*
X359588Y551000D01*
X359239Y552756D01*
X359076Y553000D01*
X360145Y555000D01*
X364554D01*
X364663Y554723D01*
X364887Y553000D01*
X363756Y552244D01*
X362761Y550756D01*
X362412Y549000D01*
X362761Y547244D01*
X363756Y545756D01*
X365244Y544761D01*
X367000Y544412D01*
X368756Y544761D01*
X370244Y545756D01*
X370864Y546683D01*
X372244Y545761D01*
X374000Y545412D01*
X375756Y545761D01*
X377244Y546756D01*
X378239Y548244D01*
X378588Y550000D01*
X378239Y551756D01*
X377407Y553000D01*
X377687Y554043D01*
X378217Y555000D01*
X744370Y555000D01*
X745611Y553000D01*
X745412Y552000D01*
X745704Y550529D01*
X744244Y550239D01*
X742756Y549244D01*
X741761Y547756D01*
X741412Y546000D01*
X741761Y544244D01*
X742756Y542756D01*
X744244Y541761D01*
X746000Y541412D01*
X747756Y541761D01*
X749244Y542756D01*
X750239Y544244D01*
X750588Y546000D01*
X750296Y547471D01*
X751756Y547761D01*
X753244Y548756D01*
X754239Y550244D01*
X754588Y552000D01*
X754389Y553000D01*
X755630Y555000D01*
X760131D01*
X760738Y553000D01*
X760056Y552544D01*
X759061Y551056D01*
X758712Y549300D01*
X759061Y547544D01*
X760056Y546056D01*
X761544Y545061D01*
X763300Y544712D01*
X765056Y545061D01*
X765579Y545410D01*
X767754Y545755D01*
X769243Y544760D01*
X770999Y544411D01*
X772754Y544760D01*
X774243Y545755D01*
X775237Y547243D01*
X776244Y548761D01*
X778000Y548412D01*
X779469Y548704D01*
X779760Y547243D01*
X780754Y545755D01*
X782243Y544760D01*
X783998Y544411D01*
X785754Y544760D01*
X787243Y545755D01*
X787862Y546682D01*
X789243Y545760D01*
X790998Y545411D01*
X792754Y545760D01*
X794134Y546682D01*
X794754Y545755D01*
X796243Y544760D01*
X797998Y544411D01*
X799754Y544760D01*
X801243Y545755D01*
X802237Y547243D01*
X802587Y548999D01*
X802237Y550755D01*
X801243Y552243D01*
X800110Y553000D01*
X800329Y554709D01*
X800443Y555000D01*
X977250Y555000D01*
X977950Y553290D01*
X977950Y553000D01*
Y522290D01*
X1041950D01*
Y552221D01*
X1043950Y553050D01*
X1215000Y382000D01*
X1215000Y178000D01*
X1043950Y6950D01*
X1041950Y7778D01*
Y37710D01*
X977950D01*
Y7000D01*
X977250Y5000D01*
X800443D01*
X800329Y5292D01*
X800110Y7000D01*
X801243Y7757D01*
X802237Y9245D01*
X802587Y11001D01*
X802237Y12757D01*
X801243Y14245D01*
X799754Y15240D01*
X797998Y15589D01*
X796243Y15240D01*
X794754Y14245D01*
X794134Y13318D01*
X792754Y14240D01*
X790998Y14589D01*
X789243Y14240D01*
X787754Y13245D01*
X787312Y12584D01*
X786055Y12688D01*
X785130Y12918D01*
X784244Y14244D01*
X782756Y15239D01*
X781000Y15588D01*
X779244Y15239D01*
X777756Y14244D01*
X777111Y13279D01*
X776725Y13172D01*
X775272Y13172D01*
X774888Y13279D01*
X774243Y14245D01*
X772754Y15240D01*
X770999Y15589D01*
X769243Y15240D01*
X767754Y14245D01*
X765579Y14590D01*
X765056Y14939D01*
X763300Y15288D01*
X761544Y14939D01*
X761179Y14695D01*
X759244Y14244D01*
X757756Y15239D01*
X756000Y15588D01*
X754244Y15239D01*
X753374Y14657D01*
X752000Y14391D01*
X750626Y14657D01*
X749756Y15239D01*
X748000Y15588D01*
X746244Y15239D01*
X744756Y14244D01*
X743761Y12756D01*
X743412Y11000D01*
X743761Y9244D01*
X744756Y7756D01*
X745887Y7000D01*
X745663Y5278D01*
X745554Y5000D01*
X414145Y5000D01*
X413076Y7000D01*
X413239Y7244D01*
X413588Y9000D01*
X413239Y10756D01*
X412244Y12244D01*
X410756Y13239D01*
X409000Y13588D01*
X407244Y13239D01*
X405756Y12244D01*
X404244D01*
X402756Y13239D01*
X401000Y13588D01*
X399244Y13239D01*
X397756Y12244D01*
X396761Y10756D01*
X396412Y9000D01*
X396761Y7244D01*
X396924Y7000D01*
X395855Y5000D01*
X242550D01*
X241850Y6710D01*
X241850Y7000D01*
Y37710D01*
X177850D01*
Y7000D01*
X177840Y6970D01*
X176246Y5754D01*
X5000Y177000D01*
X5000Y383000D01*
X176246Y554246D01*
X177850Y553022D01*
Y489290D01*
X241850D01*
Y553000D01*
X242550Y555000D01*
X342855D01*
D02*
G37*
%LPC*%
G36*
X521100Y544982D02*
X518620Y544655D01*
X516309Y543698D01*
X514324Y542175D01*
X514221Y542041D01*
X513660Y541960D01*
X511886Y542283D01*
X511244Y543244D01*
X509756Y544239D01*
X508000Y544588D01*
X506244Y544239D01*
X504756Y543244D01*
X503761Y541756D01*
X503412Y540000D01*
X503761Y538244D01*
X504756Y536756D01*
X506244Y535761D01*
X508000Y535412D01*
X509543Y535719D01*
X509923Y535657D01*
X511623Y534603D01*
X511844Y532920D01*
X512802Y530609D01*
X514324Y528625D01*
X516309Y527102D01*
X518620Y526145D01*
X521100Y525818D01*
X523580Y526145D01*
X525891Y527102D01*
X527875Y528625D01*
X529398Y530609D01*
X530355Y532920D01*
X530682Y535400D01*
X530355Y537880D01*
X529398Y540191D01*
X527875Y542175D01*
X525891Y543698D01*
X523580Y544655D01*
X521100Y544982D01*
D02*
G37*
G36*
X597300D02*
X594820Y544655D01*
X592509Y543698D01*
X590524Y542175D01*
X589002Y540191D01*
X588045Y537880D01*
X588011Y537623D01*
X585835Y536422D01*
X585000Y536588D01*
X583385Y536267D01*
X583190Y536268D01*
X581232Y537300D01*
X581156Y537880D01*
X580198Y540191D01*
X578675Y542175D01*
X576691Y543698D01*
X574380Y544655D01*
X571900Y544982D01*
X569420Y544655D01*
X567109Y543698D01*
X565125Y542175D01*
X563602Y540191D01*
X562645Y537880D01*
X562318Y535400D01*
X562645Y532920D01*
X563602Y530609D01*
X565125Y528625D01*
X567109Y527102D01*
X569420Y526145D01*
X571900Y525818D01*
X574380Y526145D01*
X576691Y527102D01*
X578675Y528625D01*
X579091Y529167D01*
X581542Y529075D01*
X581756Y528756D01*
X583244Y527761D01*
X585000Y527412D01*
X586756Y527761D01*
X588244Y528756D01*
X590522Y528625D01*
X590549Y528605D01*
X592509Y527102D01*
X594820Y526145D01*
X597300Y525818D01*
X599780Y526145D01*
X602091Y527102D01*
X604075Y528625D01*
X605598Y530609D01*
X606555Y532920D01*
X606882Y535400D01*
X606555Y537880D01*
X605598Y540191D01*
X604075Y542175D01*
X602091Y543698D01*
X599780Y544655D01*
X597300Y544982D01*
D02*
G37*
G36*
X333110Y527588D02*
X331354Y527239D01*
X331099Y527068D01*
X329555Y526382D01*
X328011Y527068D01*
X327756Y527239D01*
X326000Y527588D01*
X324244Y527239D01*
X322756Y526244D01*
X321761Y524756D01*
X321412Y523000D01*
X321761Y521244D01*
X322756Y519756D01*
X324244Y518761D01*
X326000Y518412D01*
X327756Y518761D01*
X328011Y518932D01*
X329555Y519618D01*
X331099Y518932D01*
X331354Y518761D01*
X333110Y518412D01*
X334866Y518761D01*
X336354Y519756D01*
X337349Y521244D01*
X337698Y523000D01*
X337349Y524756D01*
X336354Y526244D01*
X334866Y527239D01*
X333110Y527588D01*
D02*
G37*
G36*
X698900Y544982D02*
X696420Y544655D01*
X694109Y543698D01*
X692124Y542175D01*
X690602Y540191D01*
X689644Y537880D01*
X689318Y535400D01*
X689644Y532920D01*
X690602Y530609D01*
X692124Y528625D01*
X694109Y527102D01*
X696420Y526145D01*
X698900Y525818D01*
X701380Y526145D01*
X703691Y527102D01*
X705675Y528625D01*
X707198Y530609D01*
X708156Y532920D01*
X708482Y535400D01*
X708156Y537880D01*
X707198Y540191D01*
X705675Y542175D01*
X703691Y543698D01*
X701380Y544655D01*
X698900Y544982D01*
D02*
G37*
G36*
X673500D02*
X671020Y544655D01*
X668709Y543698D01*
X666724Y542175D01*
X665202Y540191D01*
X664245Y537880D01*
X663918Y535400D01*
X664245Y532920D01*
X665202Y530609D01*
X666724Y528625D01*
X668709Y527102D01*
X671020Y526145D01*
X673500Y525818D01*
X675980Y526145D01*
X678291Y527102D01*
X680275Y528625D01*
X681798Y530609D01*
X682756Y532920D01*
X683082Y535400D01*
X682756Y537880D01*
X681798Y540191D01*
X680275Y542175D01*
X678291Y543698D01*
X675980Y544655D01*
X673500Y544982D01*
D02*
G37*
G36*
X648100D02*
X645620Y544655D01*
X643309Y543698D01*
X641324Y542175D01*
X639802Y540191D01*
X638844Y537880D01*
X638518Y535400D01*
X638844Y532920D01*
X639802Y530609D01*
X641324Y528625D01*
X643309Y527102D01*
X645620Y526145D01*
X648100Y525818D01*
X650580Y526145D01*
X652891Y527102D01*
X654875Y528625D01*
X656398Y530609D01*
X657355Y532920D01*
X657682Y535400D01*
X657355Y537880D01*
X656398Y540191D01*
X654875Y542175D01*
X652891Y543698D01*
X650580Y544655D01*
X648100Y544982D01*
D02*
G37*
G36*
X622700D02*
X620220Y544655D01*
X617909Y543698D01*
X615924Y542175D01*
X614402Y540191D01*
X613445Y537880D01*
X613118Y535400D01*
X613445Y532920D01*
X614402Y530609D01*
X615924Y528625D01*
X617909Y527102D01*
X620220Y526145D01*
X622700Y525818D01*
X625180Y526145D01*
X627491Y527102D01*
X629475Y528625D01*
X630998Y530609D01*
X631955Y532920D01*
X632282Y535400D01*
X631955Y537880D01*
X630998Y540191D01*
X629475Y542175D01*
X627491Y543698D01*
X625180Y544655D01*
X622700Y544982D01*
D02*
G37*
G36*
X546500D02*
X544020Y544655D01*
X541709Y543698D01*
X539725Y542175D01*
X538202Y540191D01*
X537244Y537880D01*
X536918Y535400D01*
X537244Y532920D01*
X538202Y530609D01*
X539725Y528625D01*
X541709Y527102D01*
X544020Y526145D01*
X546500Y525818D01*
X548980Y526145D01*
X551291Y527102D01*
X553275Y528625D01*
X554798Y530609D01*
X555756Y532920D01*
X556082Y535400D01*
X555756Y537880D01*
X554798Y540191D01*
X553275Y542175D01*
X551291Y543698D01*
X548980Y544655D01*
X546500Y544982D01*
D02*
G37*
G36*
X406000Y525588D02*
X404244Y525239D01*
X404065Y525119D01*
X402500Y524367D01*
X400935Y525119D01*
X400756Y525239D01*
X399000Y525588D01*
X397244Y525239D01*
X395756Y524244D01*
X394761Y522756D01*
X394412Y521000D01*
X394761Y519244D01*
X395756Y517756D01*
X397244Y516761D01*
X399000Y516412D01*
X400756Y516761D01*
X402244Y517756D01*
X402756D01*
X404244Y516761D01*
X406000Y516412D01*
X407756Y516761D01*
X407934Y516880D01*
X409501Y517632D01*
X411065Y516880D01*
X411244Y516760D01*
X413000Y516411D01*
X414756Y516760D01*
X416244Y517755D01*
X417239Y519243D01*
X417588Y520999D01*
X417239Y522755D01*
X416244Y524243D01*
X414756Y525238D01*
X413000Y525587D01*
X411244Y525238D01*
X411066Y525118D01*
X409499Y524367D01*
X407935Y525119D01*
X407756Y525239D01*
X406000Y525588D01*
D02*
G37*
G36*
X472000Y529588D02*
X470244Y529239D01*
X468756Y528244D01*
X467761Y526756D01*
X467412Y525000D01*
X467761Y523244D01*
X468756Y521756D01*
X470244Y520761D01*
X472000Y520412D01*
X473756Y520761D01*
X475244Y521756D01*
X476239Y523244D01*
X476588Y525000D01*
X476239Y526756D01*
X475244Y528244D01*
X473756Y529239D01*
X472000Y529588D01*
D02*
G37*
G36*
X380000D02*
X378244Y529239D01*
X376756Y528244D01*
X375761Y526756D01*
X375412Y525000D01*
X375761Y523244D01*
X376756Y521756D01*
X378244Y520761D01*
X380000Y520412D01*
X381756Y520761D01*
X383244Y521756D01*
X384754D01*
X384755Y521755D01*
X386243Y520760D01*
X387999Y520411D01*
X389755Y520760D01*
X391244Y521755D01*
X392238Y523243D01*
X392587Y524999D01*
X392238Y526755D01*
X391244Y528243D01*
X389755Y529238D01*
X387999Y529587D01*
X386243Y529238D01*
X384755Y528243D01*
X383245D01*
X383244Y528244D01*
X381756Y529239D01*
X380000Y529588D01*
D02*
G37*
G36*
X918160Y533551D02*
X916312Y533308D01*
X914589Y532594D01*
X913111Y531460D01*
X911976Y529981D01*
X911262Y528258D01*
X911019Y526410D01*
X911262Y524562D01*
X911976Y522839D01*
X913111Y521361D01*
X914589Y520226D01*
X916312Y519512D01*
X918160Y519269D01*
X920008Y519512D01*
X921731Y520226D01*
X923210Y521361D01*
X924344Y522839D01*
X925058Y524562D01*
X925301Y526410D01*
X925058Y528258D01*
X924344Y529981D01*
X923210Y531460D01*
X921731Y532594D01*
X920008Y533308D01*
X918160Y533551D01*
D02*
G37*
G36*
X733440D02*
X731592Y533308D01*
X729870Y532594D01*
X728391Y531460D01*
X727256Y529981D01*
X726542Y528258D01*
X726299Y526410D01*
X726542Y524562D01*
X727256Y522839D01*
X728391Y521361D01*
X729870Y520226D01*
X731592Y519512D01*
X733440Y519269D01*
X735288Y519512D01*
X737011Y520226D01*
X738490Y521361D01*
X739624Y522839D01*
X740338Y524562D01*
X740581Y526410D01*
X740338Y528258D01*
X739624Y529981D01*
X738490Y531460D01*
X737011Y532594D01*
X735288Y533308D01*
X733440Y533551D01*
D02*
G37*
G36*
X486360D02*
X484512Y533308D01*
X482789Y532594D01*
X481311Y531460D01*
X480176Y529981D01*
X479462Y528258D01*
X479219Y526410D01*
X479462Y524562D01*
X480176Y522839D01*
X481311Y521361D01*
X482789Y520226D01*
X484512Y519512D01*
X486360Y519269D01*
X488208Y519512D01*
X489931Y520226D01*
X491410Y521361D01*
X492544Y522839D01*
X493258Y524562D01*
X493501Y526410D01*
X493258Y528258D01*
X492544Y529981D01*
X491410Y531460D01*
X489931Y532594D01*
X488208Y533308D01*
X486360Y533551D01*
D02*
G37*
G36*
X301640D02*
X299792Y533308D01*
X298069Y532594D01*
X296590Y531460D01*
X295456Y529981D01*
X294742Y528258D01*
X294499Y526410D01*
X294742Y524562D01*
X295456Y522839D01*
X296590Y521361D01*
X298069Y520226D01*
X299792Y519512D01*
X301640Y519269D01*
X303488Y519512D01*
X305211Y520226D01*
X306690Y521361D01*
X307824Y522839D01*
X308538Y524562D01*
X308781Y526410D01*
X308538Y528258D01*
X307824Y529981D01*
X306690Y531460D01*
X305211Y532594D01*
X303488Y533308D01*
X301640Y533551D01*
D02*
G37*
G36*
X424750Y527088D02*
X422994Y526739D01*
X421506Y525744D01*
X420511Y524256D01*
X420162Y522500D01*
X420511Y520744D01*
X421506Y519256D01*
X422994Y518261D01*
X424750Y517912D01*
X426506Y518261D01*
X427518Y518937D01*
X429506Y519006D01*
X430994Y518011D01*
X432750Y517662D01*
X434506Y518011D01*
X435994Y519006D01*
X436989Y520494D01*
X437338Y522250D01*
X436989Y524006D01*
X435994Y525494D01*
X434506Y526489D01*
X432750Y526838D01*
X430994Y526489D01*
X429982Y525813D01*
X427994Y525744D01*
X426506Y526739D01*
X424750Y527088D01*
D02*
G37*
G36*
X352000Y528588D02*
X350244Y528239D01*
X348756Y527244D01*
X347761Y525756D01*
X347412Y524000D01*
X347761Y522244D01*
X348756Y520756D01*
X350244Y519761D01*
X352000Y519412D01*
X353470Y519704D01*
X353760Y518243D01*
X354755Y516755D01*
X356244Y515760D01*
X357999Y515411D01*
X359755Y515760D01*
X361244Y516755D01*
X362238Y518243D01*
X362587Y519999D01*
X362238Y521755D01*
X361244Y523243D01*
X359755Y524238D01*
X357999Y524587D01*
X356530Y524295D01*
X356239Y525756D01*
X355244Y527244D01*
X353756Y528239D01*
X352000Y528588D01*
D02*
G37*
G36*
X754000Y514588D02*
X752244Y514239D01*
X750756Y513244D01*
X749761Y511756D01*
X749412Y510000D01*
X749761Y508244D01*
X750756Y506756D01*
X752244Y505761D01*
X754000Y505412D01*
X755756Y505761D01*
X757244Y506756D01*
X758239Y508244D01*
X758588Y510000D01*
X758239Y511756D01*
X757244Y513244D01*
X755756Y514239D01*
X754000Y514588D01*
D02*
G37*
G36*
X698900Y519582D02*
X696420Y519255D01*
X694109Y518298D01*
X692124Y516776D01*
X690602Y514791D01*
X689644Y512480D01*
X689318Y510000D01*
X689644Y507520D01*
X690602Y505209D01*
X692124Y503225D01*
X694109Y501702D01*
X696420Y500745D01*
X698900Y500418D01*
X701380Y500745D01*
X703691Y501702D01*
X705675Y503225D01*
X707198Y505209D01*
X708156Y507520D01*
X708482Y510000D01*
X708156Y512480D01*
X707198Y514791D01*
X705675Y516776D01*
X703691Y518298D01*
X701380Y519255D01*
X698900Y519582D01*
D02*
G37*
G36*
X673500D02*
X671020Y519255D01*
X668709Y518298D01*
X666724Y516776D01*
X665202Y514791D01*
X664245Y512480D01*
X663918Y510000D01*
X664245Y507520D01*
X665202Y505209D01*
X666724Y503225D01*
X668709Y501702D01*
X671020Y500745D01*
X673500Y500418D01*
X675980Y500745D01*
X678291Y501702D01*
X680275Y503225D01*
X681798Y505209D01*
X682756Y507520D01*
X683082Y510000D01*
X682756Y512480D01*
X681798Y514791D01*
X680275Y516776D01*
X678291Y518298D01*
X675980Y519255D01*
X673500Y519582D01*
D02*
G37*
G36*
X648100D02*
X645620Y519255D01*
X643309Y518298D01*
X641324Y516776D01*
X639802Y514791D01*
X638844Y512480D01*
X638518Y510000D01*
X638844Y507520D01*
X639802Y505209D01*
X641324Y503225D01*
X643309Y501702D01*
X645620Y500745D01*
X648100Y500418D01*
X650580Y500745D01*
X652891Y501702D01*
X654875Y503225D01*
X656398Y505209D01*
X657355Y507520D01*
X657682Y510000D01*
X657355Y512480D01*
X656398Y514791D01*
X654875Y516776D01*
X652891Y518298D01*
X650580Y519255D01*
X648100Y519582D01*
D02*
G37*
G36*
X622700D02*
X620220Y519255D01*
X617909Y518298D01*
X615924Y516776D01*
X614402Y514791D01*
X613445Y512480D01*
X613118Y510000D01*
X613445Y507520D01*
X614402Y505209D01*
X615924Y503225D01*
X617909Y501702D01*
X620220Y500745D01*
X622700Y500418D01*
X625180Y500745D01*
X627491Y501702D01*
X629475Y503225D01*
X630998Y505209D01*
X631955Y507520D01*
X632282Y510000D01*
X631955Y512480D01*
X630998Y514791D01*
X629475Y516776D01*
X627491Y518298D01*
X625180Y519255D01*
X622700Y519582D01*
D02*
G37*
G36*
X597300D02*
X594820Y519255D01*
X592509Y518298D01*
X590524Y516776D01*
X589002Y514791D01*
X588045Y512480D01*
X587718Y510000D01*
X588045Y507520D01*
X589002Y505209D01*
X590524Y503225D01*
X592509Y501702D01*
X594820Y500745D01*
X597300Y500418D01*
X599780Y500745D01*
X602091Y501702D01*
X604075Y503225D01*
X605598Y505209D01*
X606555Y507520D01*
X606882Y510000D01*
X606555Y512480D01*
X605598Y514791D01*
X604075Y516776D01*
X602091Y518298D01*
X599780Y519255D01*
X597300Y519582D01*
D02*
G37*
G36*
X571900D02*
X569420Y519255D01*
X567109Y518298D01*
X565125Y516776D01*
X563602Y514791D01*
X562645Y512480D01*
X562318Y510000D01*
X562645Y507520D01*
X563602Y505209D01*
X565125Y503225D01*
X567109Y501702D01*
X569420Y500745D01*
X571900Y500418D01*
X574380Y500745D01*
X576691Y501702D01*
X578675Y503225D01*
X580198Y505209D01*
X581156Y507520D01*
X581482Y510000D01*
X581156Y512480D01*
X580198Y514791D01*
X578675Y516776D01*
X576691Y518298D01*
X574380Y519255D01*
X571900Y519582D01*
D02*
G37*
G36*
X546500D02*
X544020Y519255D01*
X541709Y518298D01*
X539725Y516776D01*
X538202Y514791D01*
X537244Y512480D01*
X536918Y510000D01*
X537244Y507520D01*
X538202Y505209D01*
X539725Y503225D01*
X541709Y501702D01*
X544020Y500745D01*
X546500Y500418D01*
X548980Y500745D01*
X551291Y501702D01*
X553275Y503225D01*
X554798Y505209D01*
X555756Y507520D01*
X556082Y510000D01*
X555756Y512480D01*
X554798Y514791D01*
X553275Y516776D01*
X551291Y518298D01*
X548980Y519255D01*
X546500Y519582D01*
D02*
G37*
G36*
X521100D02*
X518620Y519255D01*
X516309Y518298D01*
X514324Y516776D01*
X512802Y514791D01*
X511844Y512480D01*
X511518Y510000D01*
X511844Y507520D01*
X512802Y505209D01*
X514324Y503225D01*
X516309Y501702D01*
X518620Y500745D01*
X521100Y500418D01*
X523580Y500745D01*
X525891Y501702D01*
X527875Y503225D01*
X529398Y505209D01*
X530355Y507520D01*
X530682Y510000D01*
X530355Y512480D01*
X529398Y514791D01*
X527875Y516776D01*
X525891Y518298D01*
X523580Y519255D01*
X521100Y519582D01*
D02*
G37*
G36*
X505000Y500588D02*
X503244Y500239D01*
X501756Y499244D01*
X500244Y498244D01*
X498756Y499239D01*
X497000Y499588D01*
X495244Y499239D01*
X493756Y498244D01*
X492761Y496756D01*
X492412Y495000D01*
X492761Y493244D01*
X493756Y491756D01*
X495244Y490761D01*
X497000Y490412D01*
X498756Y490761D01*
X500244Y491756D01*
X501756Y492756D01*
X503244Y491761D01*
X505000Y491412D01*
X506756Y491761D01*
X508244Y492756D01*
X509239Y494244D01*
X509588Y496000D01*
X509239Y497756D01*
X508244Y499244D01*
X506756Y500239D01*
X505000Y500588D01*
D02*
G37*
G36*
X364000Y493588D02*
X362244Y493239D01*
X360756Y492244D01*
X360135Y491316D01*
X358755Y492238D01*
X356999Y492587D01*
X355243Y492238D01*
X353755Y491243D01*
X351626Y491657D01*
X350756Y492239D01*
X349000Y492588D01*
X347244Y492239D01*
X345756Y491244D01*
X344761Y489756D01*
X344412Y488000D01*
X344761Y486244D01*
X345756Y484756D01*
X347244Y483761D01*
X349000Y483412D01*
X350756Y483761D01*
X352244Y484756D01*
X354373Y484342D01*
X355243Y483760D01*
X356999Y483411D01*
X358755Y483760D01*
X360244Y484755D01*
X360864Y485683D01*
X362244Y484761D01*
X364000Y484412D01*
X365756Y484761D01*
X367244Y485756D01*
X368911Y484650D01*
X370243Y483760D01*
X371999Y483411D01*
X373755Y483760D01*
X375136Y484683D01*
X375756Y483756D01*
X377244Y482761D01*
X379000Y482412D01*
X380756Y482761D01*
X382244Y483756D01*
X383131Y485083D01*
X384050Y485312D01*
X385313Y485419D01*
X385756Y484756D01*
X387244Y483761D01*
X389000Y483412D01*
X390756Y483761D01*
X392244Y484756D01*
X393239Y486244D01*
X393588Y488000D01*
X393239Y489756D01*
X392244Y491244D01*
X390756Y492239D01*
X389000Y492588D01*
X387244Y492239D01*
X385756Y491244D01*
X384869Y489917D01*
X383950Y489688D01*
X382687Y489581D01*
X382244Y490244D01*
X380756Y491239D01*
X379000Y491588D01*
X377244Y491239D01*
X375863Y490316D01*
X375244Y491243D01*
X373755Y492238D01*
X371999Y492587D01*
X370243Y492238D01*
X368755Y491243D01*
X367088Y492349D01*
X365756Y493239D01*
X364000Y493588D01*
D02*
G37*
G36*
X1041950Y520290D02*
X1010950D01*
Y489290D01*
X1041950D01*
Y520290D01*
D02*
G37*
G36*
X1008950D02*
X977950D01*
Y489290D01*
X1008950D01*
Y520290D01*
D02*
G37*
G36*
X674500Y494050D02*
Y485600D01*
X682950D01*
X682756Y487080D01*
X681798Y489391D01*
X680275Y491376D01*
X678291Y492898D01*
X675980Y493856D01*
X674500Y494050D01*
D02*
G37*
G36*
X672500D02*
X671020Y493856D01*
X668709Y492898D01*
X666724Y491376D01*
X665202Y489391D01*
X664245Y487080D01*
X664050Y485600D01*
X672500D01*
Y494050D01*
D02*
G37*
G36*
X682950Y483600D02*
X674500D01*
Y475150D01*
X675980Y475345D01*
X678291Y476302D01*
X680275Y477825D01*
X681798Y479809D01*
X682756Y482120D01*
X682950Y483600D01*
D02*
G37*
G36*
X672500D02*
X664050D01*
X664245Y482120D01*
X665202Y479809D01*
X666724Y477825D01*
X668709Y476302D01*
X671020Y475345D01*
X672500Y475150D01*
Y483600D01*
D02*
G37*
G36*
X698900Y494182D02*
X696420Y493856D01*
X694109Y492898D01*
X692124Y491376D01*
X690602Y489391D01*
X689644Y487080D01*
X689318Y484600D01*
X689644Y482120D01*
X690602Y479809D01*
X692124Y477825D01*
X694109Y476302D01*
X696420Y475345D01*
X698900Y475018D01*
X701380Y475345D01*
X703691Y476302D01*
X705675Y477825D01*
X707198Y479809D01*
X708156Y482120D01*
X708482Y484600D01*
X708156Y487080D01*
X707198Y489391D01*
X705675Y491376D01*
X703691Y492898D01*
X701380Y493856D01*
X698900Y494182D01*
D02*
G37*
G36*
X648100D02*
X645620Y493856D01*
X643309Y492898D01*
X641324Y491376D01*
X639802Y489391D01*
X638844Y487080D01*
X638518Y484600D01*
X638844Y482120D01*
X639802Y479809D01*
X641324Y477825D01*
X643309Y476302D01*
X645620Y475345D01*
X648100Y475018D01*
X650580Y475345D01*
X652891Y476302D01*
X654875Y477825D01*
X656398Y479809D01*
X657355Y482120D01*
X657682Y484600D01*
X657355Y487080D01*
X656398Y489391D01*
X654875Y491376D01*
X652891Y492898D01*
X650580Y493856D01*
X648100Y494182D01*
D02*
G37*
G36*
X622700D02*
X620220Y493856D01*
X617909Y492898D01*
X615924Y491376D01*
X614402Y489391D01*
X613445Y487080D01*
X613118Y484600D01*
X613445Y482120D01*
X614402Y479809D01*
X615924Y477825D01*
X617909Y476302D01*
X620220Y475345D01*
X622700Y475018D01*
X625180Y475345D01*
X627491Y476302D01*
X629475Y477825D01*
X630998Y479809D01*
X631955Y482120D01*
X632282Y484600D01*
X631955Y487080D01*
X630998Y489391D01*
X629475Y491376D01*
X627491Y492898D01*
X625180Y493856D01*
X622700Y494182D01*
D02*
G37*
G36*
X597300D02*
X594820Y493856D01*
X592509Y492898D01*
X590524Y491376D01*
X589002Y489391D01*
X588045Y487080D01*
X587718Y484600D01*
X588045Y482120D01*
X589002Y479809D01*
X590524Y477825D01*
X592509Y476302D01*
X594820Y475345D01*
X597300Y475018D01*
X599780Y475345D01*
X602091Y476302D01*
X604075Y477825D01*
X605598Y479809D01*
X606555Y482120D01*
X606882Y484600D01*
X606555Y487080D01*
X605598Y489391D01*
X604075Y491376D01*
X602091Y492898D01*
X599780Y493856D01*
X597300Y494182D01*
D02*
G37*
G36*
X571900D02*
X569420Y493856D01*
X567109Y492898D01*
X565125Y491376D01*
X563602Y489391D01*
X562645Y487080D01*
X562318Y484600D01*
X562645Y482120D01*
X563602Y479809D01*
X565125Y477825D01*
X567109Y476302D01*
X569420Y475345D01*
X571900Y475018D01*
X574380Y475345D01*
X576691Y476302D01*
X578675Y477825D01*
X580198Y479809D01*
X581156Y482120D01*
X581482Y484600D01*
X581156Y487080D01*
X580198Y489391D01*
X578675Y491376D01*
X576691Y492898D01*
X574380Y493856D01*
X571900Y494182D01*
D02*
G37*
G36*
X546500D02*
X544020Y493856D01*
X541709Y492898D01*
X539725Y491376D01*
X538202Y489391D01*
X537244Y487080D01*
X536918Y484600D01*
X537244Y482120D01*
X538202Y479809D01*
X539725Y477825D01*
X541709Y476302D01*
X544020Y475345D01*
X546500Y475018D01*
X548980Y475345D01*
X551291Y476302D01*
X553275Y477825D01*
X554798Y479809D01*
X555756Y482120D01*
X556082Y484600D01*
X555756Y487080D01*
X554798Y489391D01*
X553275Y491376D01*
X551291Y492898D01*
X548980Y493856D01*
X546500Y494182D01*
D02*
G37*
G36*
X521100D02*
X518620Y493856D01*
X516309Y492898D01*
X514324Y491376D01*
X512802Y489391D01*
X511844Y487080D01*
X511518Y484600D01*
X511844Y482120D01*
X512802Y479809D01*
X514324Y477825D01*
X516309Y476302D01*
X518620Y475345D01*
X521100Y475018D01*
X523580Y475345D01*
X525891Y476302D01*
X527875Y477825D01*
X529398Y479809D01*
X530355Y482120D01*
X530682Y484600D01*
X530355Y487080D01*
X529398Y489391D01*
X527875Y491376D01*
X525891Y492898D01*
X523580Y493856D01*
X521100Y494182D01*
D02*
G37*
G36*
X496000Y467588D02*
X494244Y467239D01*
X494065Y467119D01*
X492500Y466367D01*
X490935Y467119D01*
X490756Y467239D01*
X489000Y467588D01*
X487244Y467239D01*
X485756Y466244D01*
X485244D01*
X483756Y467239D01*
X482000Y467588D01*
X480244Y467239D01*
X478756Y466244D01*
X477761Y464756D01*
X477412Y463000D01*
X477462Y462748D01*
X475642Y461647D01*
X474756Y462239D01*
X473000Y462588D01*
X471244Y462239D01*
X469756Y461244D01*
X468761Y459756D01*
X468412Y458000D01*
X468761Y456244D01*
X469756Y454756D01*
X471244Y453761D01*
X473000Y453412D01*
X474756Y453761D01*
X476244Y454756D01*
X477239Y456244D01*
X477588Y458000D01*
X477538Y458252D01*
X479358Y459353D01*
X480244Y458761D01*
X482000Y458412D01*
X483756Y458761D01*
X485244Y459756D01*
X485756D01*
X487244Y458761D01*
X489000Y458412D01*
X490756Y458761D01*
X490935Y458881D01*
X492500Y459633D01*
X494065Y458881D01*
X494244Y458761D01*
X496000Y458412D01*
X497756Y458761D01*
X499244Y459756D01*
X500239Y461244D01*
X500588Y463000D01*
X500239Y464756D01*
X499244Y466244D01*
X497756Y467239D01*
X496000Y467588D01*
D02*
G37*
G36*
X336500Y467088D02*
X334744Y466739D01*
X333256Y465744D01*
X331050Y466043D01*
X330756Y466239D01*
X329000Y466588D01*
X327244Y466239D01*
X325756Y465244D01*
X324761Y463756D01*
X324412Y462000D01*
X324761Y460244D01*
X325756Y458756D01*
X327244Y457761D01*
X329000Y457412D01*
X330756Y457761D01*
X332244Y458756D01*
X334450Y458457D01*
X334744Y458261D01*
X336500Y457912D01*
X338256Y458261D01*
X338549Y458457D01*
X340651Y458741D01*
X341488Y458265D01*
X342243Y457760D01*
X343999Y457411D01*
X345755Y457760D01*
X347244Y458755D01*
X348912Y457651D01*
X350244Y456761D01*
X352000Y456412D01*
X353756Y456761D01*
X355244Y457756D01*
X356239Y459244D01*
X356588Y461000D01*
X356239Y462756D01*
X355244Y464244D01*
X353756Y465239D01*
X352000Y465588D01*
X350244Y465239D01*
X348756Y464244D01*
X347088Y465348D01*
X345755Y466238D01*
X343999Y466587D01*
X342243Y466238D01*
X340755Y465243D01*
X339011Y466234D01*
X338256Y466739D01*
X336500Y467088D01*
D02*
G37*
G36*
X797998Y467689D02*
X796243Y467340D01*
X794754Y466345D01*
X794134Y465418D01*
X792754Y466340D01*
X790998Y466689D01*
X789243Y466340D01*
X787862Y465418D01*
X787243Y466345D01*
X785754Y467340D01*
X783998Y467689D01*
X782243Y467340D01*
X780754Y466345D01*
X779760Y464857D01*
X779469Y463396D01*
X778000Y463688D01*
X776244Y463339D01*
X775237Y464857D01*
X774243Y466345D01*
X772754Y467340D01*
X770999Y467689D01*
X769243Y467340D01*
X768442Y466805D01*
X766544Y466044D01*
X765056Y467039D01*
X763300Y467388D01*
X761544Y467039D01*
X760056Y466044D01*
X759061Y464556D01*
X758712Y462800D01*
X759061Y461044D01*
X760056Y459556D01*
X761544Y458561D01*
X763300Y458212D01*
X765056Y458561D01*
X765857Y459096D01*
X767754Y459857D01*
X769243Y458862D01*
X770999Y458513D01*
X772754Y458862D01*
X773761Y457344D01*
X774756Y455856D01*
X776244Y454861D01*
X778000Y454512D01*
X779756Y454861D01*
X781244Y455856D01*
X782239Y457344D01*
X782530Y458805D01*
X783998Y458513D01*
X785754Y458862D01*
X787134Y459784D01*
X787754Y458857D01*
X789243Y457862D01*
X790998Y457513D01*
X792754Y457862D01*
X794243Y458857D01*
X794863Y459784D01*
X796243Y458862D01*
X797998Y458513D01*
X799754Y458862D01*
X801243Y459857D01*
X802237Y461345D01*
X802587Y463101D01*
X802237Y464857D01*
X801243Y466345D01*
X799754Y467340D01*
X797998Y467689D01*
D02*
G37*
G36*
X418000Y459588D02*
X416244Y459239D01*
X414756Y458244D01*
X413761Y456756D01*
X413520Y455542D01*
X411480D01*
X411239Y456756D01*
X410244Y458244D01*
X408756Y459239D01*
X407000Y459588D01*
X405244Y459239D01*
X403756Y458244D01*
X402761Y456756D01*
X402412Y455000D01*
X402761Y453244D01*
X403756Y451756D01*
X405244Y450761D01*
X407000Y450412D01*
X408756Y450761D01*
X410244Y451756D01*
X411239Y453244D01*
X411480Y454458D01*
X413520D01*
X413761Y453244D01*
X414756Y451756D01*
X416244Y450761D01*
X417704Y450471D01*
X417412Y449000D01*
X417685Y447628D01*
X415973Y446595D01*
X415744Y446744D01*
X415613Y446832D01*
X414256Y447739D01*
X412500Y448088D01*
X410744Y447739D01*
X409256Y446744D01*
X408261Y445256D01*
X407912Y443500D01*
X408261Y441744D01*
X409256Y440256D01*
X410744Y439261D01*
X412500Y438912D01*
X414256Y439261D01*
X415744Y440256D01*
X416739Y441744D01*
X417088Y443500D01*
X416815Y444872D01*
X418527Y445905D01*
X418756Y445756D01*
X418887Y445668D01*
X420244Y444761D01*
X422000Y444412D01*
X423756Y444761D01*
X424625Y445342D01*
X426755Y445755D01*
X428243Y444760D01*
X428513Y444706D01*
X430111Y444112D01*
X430708Y442513D01*
X430761Y442244D01*
X431756Y440756D01*
X433244Y439761D01*
X435000Y439412D01*
X436756Y439761D01*
X438244Y440756D01*
X439239Y442244D01*
X439588Y444000D01*
X439239Y445756D01*
X438244Y447244D01*
X436756Y448239D01*
X436486Y448293D01*
X434888Y448887D01*
X434291Y450486D01*
X434238Y450755D01*
X433243Y452243D01*
X431755Y453238D01*
X429999Y453587D01*
X428243Y453238D01*
X427374Y452657D01*
X425244Y452244D01*
X423756Y453239D01*
X422296Y453529D01*
X422588Y455000D01*
X422239Y456756D01*
X421244Y458244D01*
X419756Y459239D01*
X418000Y459588D01*
D02*
G37*
G36*
X748000Y467688D02*
X746244Y467339D01*
X744756Y466344D01*
X743761Y464856D01*
X743412Y463100D01*
X743761Y461344D01*
X744756Y459856D01*
X746244Y458861D01*
X747723Y458567D01*
X747412Y457000D01*
X747761Y455244D01*
X748756Y453756D01*
X750244Y452761D01*
X752000Y452412D01*
X753756Y452761D01*
X755244Y453756D01*
X756239Y455244D01*
X756588Y457000D01*
X756239Y458756D01*
X755244Y460244D01*
X753756Y461239D01*
X752277Y461533D01*
X752588Y463100D01*
X752239Y464856D01*
X751244Y466344D01*
X749756Y467339D01*
X748000Y467688D01*
D02*
G37*
G36*
X441000Y435588D02*
X439244Y435239D01*
X437756Y434244D01*
X436761Y432756D01*
X436412Y431000D01*
X436761Y429244D01*
X437756Y427756D01*
X439244Y426761D01*
X441000Y426412D01*
X442756Y426761D01*
X444244Y427756D01*
X445239Y429244D01*
X445588Y431000D01*
X445239Y432756D01*
X444244Y434244D01*
X442756Y435239D01*
X441000Y435588D01*
D02*
G37*
G36*
X388000Y434588D02*
X386244Y434239D01*
X384756Y433244D01*
X383761Y431756D01*
X383412Y430000D01*
X383761Y428244D01*
X384683Y426864D01*
X383755Y426244D01*
X382760Y424755D01*
X382411Y422999D01*
X382760Y421243D01*
X383755Y419755D01*
X385243Y418760D01*
X386999Y418411D01*
X388755Y418760D01*
X390243Y419755D01*
X391238Y421243D01*
X391587Y422999D01*
X391238Y424755D01*
X390316Y426135D01*
X391244Y426756D01*
X392239Y428244D01*
X392588Y430000D01*
X392239Y431756D01*
X391244Y433244D01*
X389756Y434239D01*
X388000Y434588D01*
D02*
G37*
G36*
X427000Y423588D02*
X425244Y423239D01*
X423756Y422244D01*
X422761Y420756D01*
X422412Y419000D01*
X422761Y417244D01*
X423756Y415756D01*
X425244Y414761D01*
X427000Y414412D01*
X428756Y414761D01*
X430244Y415756D01*
X431239Y417244D01*
X431588Y419000D01*
X431239Y420756D01*
X430244Y422244D01*
X428756Y423239D01*
X427000Y423588D01*
D02*
G37*
G36*
X863000Y415588D02*
X861244Y415239D01*
X859756Y414244D01*
X858761Y412756D01*
X858412Y411000D01*
X858761Y409244D01*
X859756Y407756D01*
X861244Y406761D01*
X863000Y406412D01*
X864756Y406761D01*
X866244Y407756D01*
X867239Y409244D01*
X867588Y411000D01*
X867239Y412756D01*
X866244Y414244D01*
X864756Y415239D01*
X863000Y415588D01*
D02*
G37*
G36*
X767000D02*
X765244Y415239D01*
X763756Y414244D01*
X762761Y412756D01*
X762412Y411000D01*
X762761Y409244D01*
X763756Y407756D01*
X765244Y406761D01*
X767000Y406412D01*
X768756Y406761D01*
X770244Y407756D01*
X771239Y409244D01*
X771588Y411000D01*
X771239Y412756D01*
X770244Y414244D01*
X768756Y415239D01*
X767000Y415588D01*
D02*
G37*
G36*
X657000Y414588D02*
X655244Y414239D01*
X653756Y413244D01*
X652761Y411756D01*
X652412Y410000D01*
X652761Y408244D01*
X653756Y406756D01*
X655244Y405761D01*
X657000Y405412D01*
X658756Y405761D01*
X660244Y406756D01*
X661239Y408244D01*
X661588Y410000D01*
X661239Y411756D01*
X660244Y413244D01*
X658756Y414239D01*
X657000Y414588D01*
D02*
G37*
G36*
X904750Y407838D02*
X902994Y407489D01*
X901506Y406494D01*
X900511Y405006D01*
X900162Y403250D01*
X900511Y401494D01*
X901506Y400006D01*
X902994Y399011D01*
X904750Y398662D01*
X906506Y399011D01*
X907994Y400006D01*
X908989Y401494D01*
X909338Y403250D01*
X908989Y405006D01*
X907994Y406494D01*
X906506Y407489D01*
X904750Y407838D01*
D02*
G37*
G36*
X891750Y407338D02*
X889994Y406989D01*
X888506Y405994D01*
X887511Y404506D01*
X887162Y402750D01*
X887511Y400994D01*
X888506Y399506D01*
X889994Y398511D01*
X891750Y398162D01*
X893506Y398511D01*
X894994Y399506D01*
X895989Y400994D01*
X896338Y402750D01*
X895989Y404506D01*
X894994Y405994D01*
X893506Y406989D01*
X891750Y407338D01*
D02*
G37*
G36*
X811750Y404838D02*
X809994Y404489D01*
X808506Y403494D01*
X807511Y402006D01*
X807162Y400250D01*
X807511Y398494D01*
X808506Y397006D01*
X809994Y396011D01*
X811750Y395662D01*
X813506Y396011D01*
X814994Y397006D01*
X815989Y398494D01*
X816338Y400250D01*
X815989Y402006D01*
X814994Y403494D01*
X813506Y404489D01*
X811750Y404838D01*
D02*
G37*
G36*
X351000Y393588D02*
X349244Y393239D01*
X347756Y392244D01*
X347703Y392165D01*
X345297D01*
X345244Y392244D01*
X343756Y393239D01*
X342000Y393588D01*
X340244Y393239D01*
X338756Y392244D01*
X337761Y390756D01*
X337412Y389000D01*
X337761Y387244D01*
X338756Y385756D01*
X340244Y384761D01*
X342000Y384412D01*
X343756Y384761D01*
X345244Y385756D01*
X345297Y385835D01*
X347703D01*
X347756Y385756D01*
X349244Y384761D01*
X351000Y384412D01*
X352756Y384761D01*
X354244Y385756D01*
X355239Y387244D01*
X355588Y389000D01*
X355239Y390756D01*
X354244Y392244D01*
X352756Y393239D01*
X351000Y393588D01*
D02*
G37*
G36*
X612000Y397588D02*
X610244Y397239D01*
X608756Y396244D01*
X607761Y394756D01*
X607412Y393000D01*
X607761Y391244D01*
X608756Y389756D01*
X610244Y388761D01*
X612000Y388412D01*
X613756Y388761D01*
X615244Y389756D01*
X616239Y391244D01*
X616588Y393000D01*
X616239Y394756D01*
X615244Y396244D01*
X613756Y397239D01*
X612000Y397588D01*
D02*
G37*
G36*
X624000Y390588D02*
X622244Y390239D01*
X620756Y389244D01*
X619761Y387756D01*
X619412Y386000D01*
X619761Y384244D01*
X620756Y382756D01*
X622244Y381761D01*
X624000Y381412D01*
X625756Y381761D01*
X627244Y382756D01*
X628239Y384244D01*
X628588Y386000D01*
X628239Y387756D01*
X627244Y389244D01*
X625756Y390239D01*
X624000Y390588D01*
D02*
G37*
G36*
X490000Y389588D02*
X488244Y389239D01*
X486756Y388244D01*
X485761Y386756D01*
X485412Y385000D01*
X485761Y383244D01*
X486756Y381756D01*
X488244Y380761D01*
X490000Y380412D01*
X491756Y380761D01*
X493244Y381756D01*
X494239Y383244D01*
X494588Y385000D01*
X494239Y386756D01*
X493244Y388244D01*
X491756Y389239D01*
X490000Y389588D01*
D02*
G37*
G36*
X1110000Y402608D02*
X1106737Y402178D01*
X1103696Y400919D01*
X1101085Y398915D01*
X1099081Y396304D01*
X1097822Y393263D01*
X1097392Y390000D01*
X1097822Y386737D01*
X1099081Y383696D01*
X1101085Y381085D01*
X1103696Y379081D01*
X1106737Y377822D01*
X1110000Y377392D01*
X1113263Y377822D01*
X1116304Y379081D01*
X1118915Y381085D01*
X1120919Y383696D01*
X1122178Y386737D01*
X1122608Y390000D01*
X1122178Y393263D01*
X1120919Y396304D01*
X1118915Y398915D01*
X1116304Y400919D01*
X1113263Y402178D01*
X1110000Y402608D01*
D02*
G37*
G36*
X110000D02*
X106737Y402178D01*
X103696Y400919D01*
X101085Y398915D01*
X99081Y396304D01*
X97822Y393263D01*
X97392Y390000D01*
X97822Y386737D01*
X99081Y383696D01*
X101085Y381085D01*
X103696Y379081D01*
X106737Y377822D01*
X110000Y377392D01*
X113263Y377822D01*
X116304Y379081D01*
X118915Y381085D01*
X120919Y383696D01*
X122178Y386737D01*
X122608Y390000D01*
X122178Y393263D01*
X120919Y396304D01*
X118915Y398915D01*
X116304Y400919D01*
X113263Y402178D01*
X110000Y402608D01*
D02*
G37*
G36*
X373000Y385588D02*
X371244Y385239D01*
X369756Y384244D01*
X368761Y382756D01*
X368412Y381000D01*
X368761Y379244D01*
X369756Y377756D01*
X371244Y376761D01*
X373000Y376412D01*
X374756Y376761D01*
X376244Y377756D01*
X377239Y379244D01*
X377588Y381000D01*
X377239Y382756D01*
X376244Y384244D01*
X374756Y385239D01*
X373000Y385588D01*
D02*
G37*
G36*
X292000Y384588D02*
X290244Y384239D01*
X288756Y383244D01*
X287761Y381756D01*
X287412Y380000D01*
X287761Y378244D01*
X288756Y376756D01*
X290244Y375761D01*
X292000Y375412D01*
X293756Y375761D01*
X295244Y376756D01*
X296239Y378244D01*
X296588Y380000D01*
X296239Y381756D01*
X295244Y383244D01*
X293756Y384239D01*
X292000Y384588D01*
D02*
G37*
G36*
X555000Y380588D02*
X553244Y380239D01*
X551756Y379244D01*
X550761Y377756D01*
X550412Y376000D01*
X550761Y374244D01*
X551756Y372756D01*
X553244Y371761D01*
X555000Y371412D01*
X556756Y371761D01*
X558244Y372756D01*
X559239Y374244D01*
X559588Y376000D01*
X559239Y377756D01*
X558244Y379244D01*
X556756Y380239D01*
X555000Y380588D01*
D02*
G37*
G36*
X1069000Y377088D02*
X1067244Y376739D01*
X1065756Y375744D01*
X1064761Y374256D01*
X1064412Y372500D01*
X1064761Y370744D01*
X1065756Y369256D01*
X1067244Y368261D01*
X1069000Y367912D01*
X1070756Y368261D01*
X1072244Y369256D01*
X1073239Y370744D01*
X1073588Y372500D01*
X1073239Y374256D01*
X1072244Y375744D01*
X1070756Y376739D01*
X1069000Y377088D01*
D02*
G37*
G36*
X69000Y372588D02*
X67244Y372239D01*
X65756Y371244D01*
X64761Y369756D01*
X64412Y368000D01*
X64761Y366244D01*
X65756Y364756D01*
X67244Y363761D01*
X69000Y363412D01*
X70756Y363761D01*
X72244Y364756D01*
X73239Y366244D01*
X73588Y368000D01*
X73239Y369756D01*
X72244Y371244D01*
X70756Y372239D01*
X69000Y372588D01*
D02*
G37*
G36*
X525000Y388112D02*
X521606Y387665D01*
X518444Y386355D01*
X515728Y384272D01*
X513644Y381556D01*
X512335Y378394D01*
X511888Y375000D01*
X512335Y371606D01*
X513644Y368444D01*
X515728Y365728D01*
X518444Y363644D01*
X521606Y362335D01*
X525000Y361888D01*
X528394Y362335D01*
X531556Y363644D01*
X534272Y365728D01*
X536356Y368444D01*
X537665Y371606D01*
X538112Y375000D01*
X537665Y378394D01*
X536356Y381556D01*
X534272Y384272D01*
X531556Y386355D01*
X528394Y387665D01*
X525000Y388112D01*
D02*
G37*
G36*
X608000Y370588D02*
X606244Y370239D01*
X604756Y369244D01*
X603761Y367756D01*
X603412Y366000D01*
X603761Y364244D01*
X604756Y362756D01*
X606244Y361761D01*
X608000Y361412D01*
X609756Y361761D01*
X611244Y362756D01*
X612239Y364244D01*
X612588Y366000D01*
X612239Y367756D01*
X611244Y369244D01*
X609756Y370239D01*
X608000Y370588D01*
D02*
G37*
G36*
X905000Y368588D02*
X903244Y368239D01*
X901756Y367244D01*
X900761Y365756D01*
X900412Y364000D01*
X900761Y362244D01*
X901756Y360756D01*
X903244Y359761D01*
X905000Y359412D01*
X906756Y359761D01*
X908244Y360756D01*
X909239Y362244D01*
X909588Y364000D01*
X909239Y365756D01*
X908244Y367244D01*
X906756Y368239D01*
X905000Y368588D01*
D02*
G37*
G36*
X467000D02*
X465244Y368239D01*
X463756Y367244D01*
X462761Y365756D01*
X462412Y364000D01*
X462761Y362244D01*
X463756Y360756D01*
X465244Y359761D01*
X467000Y359412D01*
X468756Y359761D01*
X470244Y360756D01*
X471239Y362244D01*
X471588Y364000D01*
X471239Y365756D01*
X470244Y367244D01*
X468756Y368239D01*
X467000Y368588D01*
D02*
G37*
G36*
X890998Y368587D02*
X889242Y368238D01*
X887754Y367244D01*
X886759Y365755D01*
X886410Y363999D01*
X886759Y362243D01*
X887754Y360755D01*
X889242Y359760D01*
X890998Y359411D01*
X892754Y359760D01*
X894242Y360755D01*
X895237Y362243D01*
X895586Y363999D01*
X895237Y365755D01*
X894242Y367244D01*
X892754Y368238D01*
X890998Y368587D01*
D02*
G37*
G36*
X810998D02*
X809243Y368238D01*
X807754Y367244D01*
X806759Y365755D01*
X806410Y363999D01*
X806759Y362243D01*
X807754Y360755D01*
X809243Y359760D01*
X810998Y359411D01*
X812754Y359760D01*
X814243Y360755D01*
X815237Y362243D01*
X815586Y363999D01*
X815237Y365755D01*
X814243Y367244D01*
X812754Y368238D01*
X810998Y368587D01*
D02*
G37*
G36*
X644000Y358588D02*
X642244Y358239D01*
X640756Y357244D01*
X639761Y355756D01*
X639412Y354000D01*
X639761Y352244D01*
X640756Y350756D01*
X642244Y349761D01*
X644000Y349412D01*
X645756Y349761D01*
X647244Y350756D01*
X648239Y352244D01*
X648588Y354000D01*
X648239Y355756D01*
X647244Y357244D01*
X645756Y358239D01*
X644000Y358588D01*
D02*
G37*
G36*
X1098000Y350588D02*
X1096244Y350239D01*
X1094756Y349244D01*
X1093244D01*
X1091756Y350239D01*
X1090000Y350588D01*
X1088244Y350239D01*
X1086756Y349244D01*
X1085244D01*
X1083756Y350239D01*
X1082000Y350588D01*
X1080244Y350239D01*
X1078756Y349244D01*
X1077244D01*
X1075756Y350239D01*
X1074000Y350588D01*
X1072244Y350239D01*
X1070756Y349244D01*
X1069761Y347756D01*
X1069412Y346000D01*
X1069761Y344244D01*
X1070756Y342756D01*
X1072244Y341761D01*
X1074000Y341412D01*
X1075756Y341761D01*
X1077244Y342756D01*
X1078756D01*
X1080244Y341761D01*
X1082000Y341412D01*
X1083756Y341761D01*
X1085244Y342756D01*
X1086756D01*
X1088244Y341761D01*
X1090000Y341412D01*
X1091756Y341761D01*
X1093244Y342756D01*
X1094756D01*
X1096244Y341761D01*
X1098000Y341412D01*
X1099756Y341761D01*
X1101244Y342756D01*
X1102239Y344244D01*
X1102588Y346000D01*
X1102239Y347756D01*
X1101244Y349244D01*
X1099756Y350239D01*
X1098000Y350588D01*
D02*
G37*
G36*
X90000D02*
X88244Y350239D01*
X86756Y349244D01*
X85244D01*
X83756Y350239D01*
X82000Y350588D01*
X80244Y350239D01*
X78756Y349244D01*
X77244D01*
X75756Y350239D01*
X74000Y350588D01*
X72244Y350239D01*
X70756Y349244D01*
X69761Y347756D01*
X69412Y346000D01*
X69761Y344244D01*
X70756Y342756D01*
X72244Y341761D01*
X74000Y341412D01*
X75756Y341761D01*
X77244Y342756D01*
X78756D01*
X80244Y341761D01*
X82000Y341412D01*
X83756Y341761D01*
X85244Y342756D01*
X86756D01*
X88244Y341761D01*
X90000Y341412D01*
X91756Y341761D01*
X92175Y342042D01*
X93295Y342714D01*
X94738Y341532D01*
X94756Y341506D01*
X96244Y340511D01*
X98000Y340162D01*
X99756Y340511D01*
X101244Y341506D01*
X102239Y342994D01*
X102588Y344750D01*
X102239Y346506D01*
X101244Y347994D01*
X99756Y348989D01*
X98000Y349338D01*
X96244Y348989D01*
X95825Y348708D01*
X94705Y348036D01*
X93262Y349218D01*
X93244Y349244D01*
X91756Y350239D01*
X90000Y350588D01*
D02*
G37*
G36*
X698900Y360588D02*
X697144Y360239D01*
X695656Y359244D01*
X694661Y357756D01*
X694312Y356000D01*
X694661Y354244D01*
X694735Y354134D01*
X695550Y352550D01*
X694735Y350966D01*
X694661Y350856D01*
X694312Y349100D01*
X694661Y347344D01*
X695656Y345856D01*
X697144Y344861D01*
X698900Y344512D01*
X700656Y344861D01*
X702144Y345856D01*
X703139Y347344D01*
X703488Y349100D01*
X703139Y350856D01*
X703065Y350966D01*
X702250Y352550D01*
X703065Y354134D01*
X703139Y354244D01*
X703488Y356000D01*
X703139Y357756D01*
X702144Y359244D01*
X700656Y360239D01*
X698900Y360588D01*
D02*
G37*
G36*
X559000Y347588D02*
X557244Y347239D01*
X555756Y346244D01*
X554761Y344756D01*
X554412Y343000D01*
X554761Y341244D01*
X555756Y339756D01*
X557244Y338761D01*
X559000Y338412D01*
X560756Y338761D01*
X562244Y339756D01*
X563239Y341244D01*
X563588Y343000D01*
X563239Y344756D01*
X562244Y346244D01*
X560756Y347239D01*
X559000Y347588D01*
D02*
G37*
G36*
X877000Y338588D02*
X875244Y338239D01*
X873756Y337244D01*
X872761Y335756D01*
X872412Y334000D01*
X872761Y332244D01*
X873756Y330756D01*
X875244Y329761D01*
X877000Y329412D01*
X878756Y329761D01*
X880244Y330756D01*
X881239Y332244D01*
X881588Y334000D01*
X881239Y335756D01*
X880244Y337244D01*
X878756Y338239D01*
X877000Y338588D01*
D02*
G37*
G36*
X341000D02*
X339244Y338239D01*
X337756Y337244D01*
X336761Y335756D01*
X336412Y334000D01*
X336761Y332244D01*
X337756Y330756D01*
X339244Y329761D01*
X341000Y329412D01*
X342756Y329761D01*
X344244Y330756D01*
X345239Y332244D01*
X345588Y334000D01*
X345239Y335756D01*
X344244Y337244D01*
X342756Y338239D01*
X341000Y338588D01*
D02*
G37*
G36*
X357000Y337588D02*
X355244Y337239D01*
X353756Y336244D01*
X352761Y334756D01*
X352412Y333000D01*
X352761Y331244D01*
X353756Y329756D01*
X355244Y328761D01*
X357000Y328412D01*
X358756Y328761D01*
X360244Y329756D01*
X361239Y331244D01*
X361588Y333000D01*
X361239Y334756D01*
X360244Y336244D01*
X358756Y337239D01*
X357000Y337588D01*
D02*
G37*
G36*
X580000Y331588D02*
X578244Y331239D01*
X576756Y330244D01*
X575761Y328756D01*
X575412Y327000D01*
X575761Y325244D01*
X576756Y323756D01*
X578244Y322761D01*
X580000Y322412D01*
X581756Y322761D01*
X583244Y323756D01*
X584239Y325244D01*
X584588Y327000D01*
X584239Y328756D01*
X583244Y330244D01*
X581756Y331239D01*
X580000Y331588D01*
D02*
G37*
G36*
X1122000Y328588D02*
X1120244Y328239D01*
X1118756Y327244D01*
X1117761Y325756D01*
X1117412Y324000D01*
X1117761Y322244D01*
X1118756Y320756D01*
X1120244Y319761D01*
X1122000Y319412D01*
X1123756Y319761D01*
X1125244Y320756D01*
X1126239Y322244D01*
X1126588Y324000D01*
X1126239Y325756D01*
X1125244Y327244D01*
X1123756Y328239D01*
X1122000Y328588D01*
D02*
G37*
G36*
X122000D02*
X120244Y328239D01*
X118756Y327244D01*
X117761Y325756D01*
X117412Y324000D01*
X117761Y322244D01*
X118756Y320756D01*
X120244Y319761D01*
X122000Y319412D01*
X123756Y319761D01*
X125244Y320756D01*
X126239Y322244D01*
X126588Y324000D01*
X126239Y325756D01*
X125244Y327244D01*
X123756Y328239D01*
X122000Y328588D01*
D02*
G37*
G36*
X731000Y322588D02*
X729244Y322239D01*
X727756Y321244D01*
X726761Y319756D01*
X726412Y318000D01*
X726761Y316244D01*
X727756Y314756D01*
X729244Y313761D01*
X731000Y313412D01*
X732756Y313761D01*
X734244Y314756D01*
X735239Y316244D01*
X735588Y318000D01*
X735239Y319756D01*
X734244Y321244D01*
X732756Y322239D01*
X731000Y322588D01*
D02*
G37*
G36*
X603000D02*
X601244Y322239D01*
X599756Y321244D01*
X598761Y319756D01*
X598412Y318000D01*
X598761Y316244D01*
X599756Y314756D01*
X601244Y313761D01*
X603000Y313412D01*
X604756Y313761D01*
X606244Y314756D01*
X607239Y316244D01*
X607588Y318000D01*
X607239Y319756D01*
X606244Y321244D01*
X604756Y322239D01*
X603000Y322588D01*
D02*
G37*
G36*
X849000Y315588D02*
X847244Y315239D01*
X845756Y314244D01*
X844761Y312756D01*
X844412Y311000D01*
X844761Y309244D01*
X845756Y307756D01*
X847244Y306761D01*
X849000Y306412D01*
X850756Y306761D01*
X852244Y307756D01*
X853239Y309244D01*
X853588Y311000D01*
X853239Y312756D01*
X852244Y314244D01*
X850756Y315239D01*
X849000Y315588D01*
D02*
G37*
G36*
X793000D02*
X791244Y315239D01*
X789756Y314244D01*
X788761Y312756D01*
X788412Y311000D01*
X788761Y309244D01*
X789756Y307756D01*
X791244Y306761D01*
X793000Y306412D01*
X794756Y306761D01*
X796244Y307756D01*
X797239Y309244D01*
X797588Y311000D01*
X797239Y312756D01*
X796244Y314244D01*
X794756Y315239D01*
X793000Y315588D01*
D02*
G37*
G36*
X464000Y314588D02*
X462244Y314239D01*
X460756Y313244D01*
X459761Y311756D01*
X459412Y310000D01*
X459761Y308244D01*
X460756Y306756D01*
X462244Y305761D01*
X464000Y305412D01*
X465756Y305761D01*
X467244Y306756D01*
X468239Y308244D01*
X468588Y310000D01*
X468239Y311756D01*
X467244Y313244D01*
X465756Y314239D01*
X464000Y314588D01*
D02*
G37*
G36*
X989000Y313588D02*
X987244Y313239D01*
X985756Y312244D01*
X984761Y310756D01*
X984412Y309000D01*
X984761Y307244D01*
X985756Y305756D01*
X987244Y304761D01*
X989000Y304412D01*
X990756Y304761D01*
X992244Y305756D01*
X993239Y307244D01*
X993588Y309000D01*
X993239Y310756D01*
X992244Y312244D01*
X990756Y313239D01*
X989000Y313588D01*
D02*
G37*
G36*
X407000Y312588D02*
X405244Y312239D01*
X403756Y311244D01*
X402761Y309756D01*
X402412Y308000D01*
X402761Y306244D01*
X403756Y304756D01*
X405244Y303761D01*
X407000Y303412D01*
X408756Y303761D01*
X410244Y304756D01*
X411239Y306244D01*
X411588Y308000D01*
X411239Y309756D01*
X410244Y311244D01*
X408756Y312239D01*
X407000Y312588D01*
D02*
G37*
G36*
X795000Y304588D02*
X793244Y304239D01*
X791756Y303244D01*
X790761Y301756D01*
X790471Y300296D01*
X789000Y300588D01*
X787244Y300239D01*
X785756Y299244D01*
X784761Y297756D01*
X784412Y296000D01*
X784761Y294244D01*
X785756Y292756D01*
X787244Y291761D01*
X789000Y291412D01*
X790756Y291761D01*
X792244Y292756D01*
X793239Y294244D01*
X793529Y295704D01*
X795000Y295412D01*
X796756Y295761D01*
X798244Y296756D01*
X799239Y298244D01*
X799588Y300000D01*
X799239Y301756D01*
X798244Y303244D01*
X796756Y304239D01*
X795000Y304588D01*
D02*
G37*
G36*
X999000Y301588D02*
X997244Y301239D01*
X995756Y300244D01*
X994761Y298756D01*
X994412Y297000D01*
X994761Y295244D01*
X995756Y293756D01*
X997244Y292761D01*
X999000Y292412D01*
X1000756Y292761D01*
X1002244Y293756D01*
X1003239Y295244D01*
X1003588Y297000D01*
X1003239Y298756D01*
X1002244Y300244D01*
X1000756Y301239D01*
X999000Y301588D01*
D02*
G37*
G36*
X452000D02*
X450244Y301239D01*
X448756Y300244D01*
X447761Y298756D01*
X447412Y297000D01*
X447761Y295244D01*
X448756Y293756D01*
X450244Y292761D01*
X452000Y292412D01*
X453756Y292761D01*
X455244Y293756D01*
X456239Y295244D01*
X456588Y297000D01*
X456239Y298756D01*
X455244Y300244D01*
X453756Y301239D01*
X452000Y301588D01*
D02*
G37*
G36*
X562000Y300588D02*
X560244Y300239D01*
X558756Y299244D01*
X557761Y297756D01*
X557412Y296000D01*
X557761Y294244D01*
X558756Y292756D01*
X560244Y291761D01*
X562000Y291412D01*
X563756Y291761D01*
X565244Y292756D01*
X566239Y294244D01*
X566588Y296000D01*
X566239Y297756D01*
X565244Y299244D01*
X563756Y300239D01*
X562000Y300588D01*
D02*
G37*
G36*
X508000Y297588D02*
X506244Y297239D01*
X504756Y296244D01*
X503761Y294756D01*
X503412Y293000D01*
X503761Y291244D01*
X504756Y289756D01*
X506244Y288761D01*
X508000Y288412D01*
X509756Y288761D01*
X511244Y289756D01*
X512239Y291244D01*
X512588Y293000D01*
X512239Y294756D01*
X511244Y296244D01*
X509756Y297239D01*
X508000Y297588D01*
D02*
G37*
G36*
X342000Y290588D02*
X340244Y290239D01*
X338756Y289244D01*
X337761Y287756D01*
X337412Y286000D01*
X337761Y284244D01*
X338756Y282756D01*
X340244Y281761D01*
X342000Y281412D01*
X343756Y281761D01*
X345244Y282756D01*
X346239Y284244D01*
X346588Y286000D01*
X346239Y287756D01*
X345244Y289244D01*
X343756Y290239D01*
X342000Y290588D01*
D02*
G37*
G36*
X731000Y296588D02*
X729244Y296239D01*
X727756Y295244D01*
X726761Y293756D01*
X726412Y292000D01*
X726761Y290244D01*
X727756Y288756D01*
Y288244D01*
X726761Y286756D01*
X726412Y285000D01*
X726761Y283244D01*
X727756Y281756D01*
X729244Y280761D01*
X731000Y280412D01*
X732756Y280761D01*
X734244Y281756D01*
X735239Y283244D01*
X735588Y285000D01*
X735239Y286756D01*
X734244Y288244D01*
Y288756D01*
X735239Y290244D01*
X735588Y292000D01*
X735239Y293756D01*
X734244Y295244D01*
X732756Y296239D01*
X731000Y296588D01*
D02*
G37*
G36*
X1020000Y277588D02*
X1018244Y277239D01*
X1016756Y276244D01*
X1015761Y274756D01*
X1015412Y273000D01*
X1015761Y271244D01*
X1016756Y269756D01*
X1018244Y268761D01*
X1020000Y268412D01*
X1021756Y268761D01*
X1023244Y269756D01*
X1024239Y271244D01*
X1024588Y273000D01*
X1024239Y274756D01*
X1023244Y276244D01*
X1021756Y277239D01*
X1020000Y277588D01*
D02*
G37*
G36*
X397000Y275588D02*
X395244Y275239D01*
X393756Y274244D01*
X392761Y272756D01*
X392412Y271000D01*
X392761Y269244D01*
X393756Y267756D01*
X395244Y266761D01*
X397000Y266412D01*
X398756Y266761D01*
X400244Y267756D01*
X401239Y269244D01*
X401588Y271000D01*
X401239Y272756D01*
X400244Y274244D01*
X398756Y275239D01*
X397000Y275588D01*
D02*
G37*
G36*
X23000D02*
X21244Y275239D01*
X19756Y274244D01*
X18761Y272756D01*
X18412Y271000D01*
X18761Y269244D01*
X19756Y267756D01*
X21244Y266761D01*
X23000Y266412D01*
X24756Y266761D01*
X26244Y267756D01*
X27239Y269244D01*
X27588Y271000D01*
X27239Y272756D01*
X26244Y274244D01*
X24756Y275239D01*
X23000Y275588D01*
D02*
G37*
G36*
X382000Y270588D02*
X380244Y270239D01*
X378756Y269244D01*
X377761Y267756D01*
X377412Y266000D01*
X377761Y264244D01*
X378756Y262756D01*
X380244Y261761D01*
X382000Y261412D01*
X383756Y261761D01*
X385244Y262756D01*
X386239Y264244D01*
X386588Y266000D01*
X386239Y267756D01*
X385244Y269244D01*
X383756Y270239D01*
X382000Y270588D01*
D02*
G37*
G36*
X357000D02*
X355244Y270239D01*
X353756Y269244D01*
X352761Y267756D01*
X352412Y266000D01*
X352761Y264244D01*
X353756Y262756D01*
X355244Y261761D01*
X357000Y261412D01*
X358756Y261761D01*
X360244Y262756D01*
X361239Y264244D01*
X361588Y266000D01*
X361239Y267756D01*
X360244Y269244D01*
X358756Y270239D01*
X357000Y270588D01*
D02*
G37*
G36*
X257000Y262588D02*
X255244Y262239D01*
X253756Y261244D01*
X252761Y259756D01*
X252412Y258000D01*
X252761Y256244D01*
X253756Y254756D01*
X255244Y253761D01*
X257000Y253412D01*
X258756Y253761D01*
X260244Y254756D01*
X261239Y256244D01*
X261588Y258000D01*
X261239Y259756D01*
X260244Y261244D01*
X258756Y262239D01*
X257000Y262588D01*
D02*
G37*
G36*
X536000Y258588D02*
X534244Y258239D01*
X532756Y257244D01*
X531761Y255756D01*
X531412Y254000D01*
X531761Y252244D01*
X532756Y250756D01*
X534244Y249761D01*
X536000Y249412D01*
X537756Y249761D01*
X539244Y250756D01*
X540239Y252244D01*
X540588Y254000D01*
X540239Y255756D01*
X539244Y257244D01*
X537756Y258239D01*
X536000Y258588D01*
D02*
G37*
G36*
X193000Y256588D02*
X191244Y256239D01*
X189756Y255244D01*
X188761Y253756D01*
X188412Y252000D01*
X188761Y250244D01*
X189756Y248756D01*
X191244Y247761D01*
X193000Y247412D01*
X194756Y247761D01*
X196244Y248756D01*
X197239Y250244D01*
X197588Y252000D01*
X197239Y253756D01*
X196244Y255244D01*
X194756Y256239D01*
X193000Y256588D01*
D02*
G37*
G36*
X1193000Y256088D02*
X1191244Y255739D01*
X1189756Y254744D01*
X1188761Y253256D01*
X1188412Y251500D01*
X1188761Y249744D01*
X1189756Y248256D01*
X1191244Y247261D01*
X1193000Y246912D01*
X1194756Y247261D01*
X1196244Y248256D01*
X1197239Y249744D01*
X1197588Y251500D01*
X1197239Y253256D01*
X1196244Y254744D01*
X1194756Y255739D01*
X1193000Y256088D01*
D02*
G37*
G36*
X650000Y263588D02*
X648244Y263239D01*
X646756Y262244D01*
X645761Y260756D01*
X645412Y259000D01*
X645761Y257244D01*
X646756Y255756D01*
X647720Y255111D01*
X647827Y254730D01*
Y253270D01*
X647720Y252889D01*
X646756Y252244D01*
X645761Y250756D01*
X645412Y249000D01*
X645761Y247244D01*
X646756Y245756D01*
X648244Y244761D01*
X650000Y244412D01*
X651756Y244761D01*
X653244Y245756D01*
X654239Y247244D01*
X654588Y249000D01*
X654239Y250756D01*
X653244Y252244D01*
X652280Y252889D01*
X652173Y253270D01*
Y254730D01*
X652280Y255111D01*
X653244Y255756D01*
X654239Y257244D01*
X654588Y259000D01*
X654239Y260756D01*
X653244Y262244D01*
X651756Y263239D01*
X650000Y263588D01*
D02*
G37*
G36*
X1152000Y256588D02*
X1150244Y256239D01*
X1148756Y255244D01*
X1147761Y253756D01*
X1147412Y252000D01*
X1147761Y250244D01*
X1148756Y248756D01*
Y247244D01*
X1147761Y245756D01*
X1147412Y244000D01*
X1147761Y242244D01*
X1148756Y240756D01*
X1150244Y239761D01*
X1152000Y239412D01*
X1153756Y239761D01*
X1155244Y240756D01*
X1156239Y242244D01*
X1156588Y244000D01*
X1156239Y245756D01*
X1155244Y247244D01*
Y248756D01*
X1156239Y250244D01*
X1156588Y252000D01*
X1156239Y253756D01*
X1155244Y255244D01*
X1153756Y256239D01*
X1152000Y256588D01*
D02*
G37*
G36*
X1130000Y242588D02*
X1128244Y242239D01*
X1126756Y241244D01*
X1125761Y239756D01*
X1125412Y238000D01*
X1125761Y236244D01*
X1126756Y234756D01*
X1128244Y233761D01*
X1130000Y233412D01*
X1131756Y233761D01*
X1133244Y234756D01*
X1134239Y236244D01*
X1134588Y238000D01*
X1134239Y239756D01*
X1133244Y241244D01*
X1131756Y242239D01*
X1130000Y242588D01*
D02*
G37*
G36*
X1098000Y240588D02*
X1096244Y240239D01*
X1094756Y239244D01*
X1093761Y237756D01*
X1093412Y236000D01*
X1093761Y234244D01*
X1094756Y232756D01*
X1096244Y231761D01*
X1098000Y231412D01*
X1099756Y231761D01*
X1101244Y232756D01*
X1102239Y234244D01*
X1102588Y236000D01*
X1102239Y237756D01*
X1101244Y239244D01*
X1099756Y240239D01*
X1098000Y240588D01*
D02*
G37*
G36*
X98000D02*
X96244Y240239D01*
X94756Y239244D01*
X93761Y237756D01*
X93412Y236000D01*
X93761Y234244D01*
X94756Y232756D01*
X96244Y231761D01*
X98000Y231412D01*
X99756Y231761D01*
X101244Y232756D01*
X102239Y234244D01*
X102588Y236000D01*
X102239Y237756D01*
X101244Y239244D01*
X99756Y240239D01*
X98000Y240588D01*
D02*
G37*
G36*
X456000Y237442D02*
Y230000D01*
X463442D01*
X463281Y231219D01*
X462425Y233287D01*
X461062Y235062D01*
X459287Y236425D01*
X457219Y237281D01*
X456000Y237442D01*
D02*
G37*
G36*
X454000D02*
X452781Y237281D01*
X450713Y236425D01*
X448938Y235062D01*
X447575Y233287D01*
X446719Y231219D01*
X446558Y230000D01*
X454000D01*
Y237442D01*
D02*
G37*
G36*
X436000D02*
Y230000D01*
X443442D01*
X443281Y231219D01*
X442425Y233287D01*
X441062Y235062D01*
X439287Y236425D01*
X437219Y237281D01*
X436000Y237442D01*
D02*
G37*
G36*
X434000D02*
X432781Y237281D01*
X430713Y236425D01*
X428938Y235062D01*
X427575Y233287D01*
X426719Y231219D01*
X426558Y230000D01*
X434000D01*
Y237442D01*
D02*
G37*
G36*
X416000D02*
Y230000D01*
X423442D01*
X423281Y231219D01*
X422425Y233287D01*
X421062Y235062D01*
X419287Y236425D01*
X417219Y237281D01*
X416000Y237442D01*
D02*
G37*
G36*
X414000D02*
X412781Y237281D01*
X410713Y236425D01*
X408938Y235062D01*
X407575Y233287D01*
X406719Y231219D01*
X406558Y230000D01*
X414000D01*
Y237442D01*
D02*
G37*
G36*
X396000D02*
Y230000D01*
X403442D01*
X403281Y231219D01*
X402425Y233287D01*
X401062Y235062D01*
X399287Y236425D01*
X397219Y237281D01*
X396000Y237442D01*
D02*
G37*
G36*
X394000D02*
X392781Y237281D01*
X390713Y236425D01*
X388938Y235062D01*
X387575Y233287D01*
X386719Y231219D01*
X386558Y230000D01*
X394000D01*
Y237442D01*
D02*
G37*
G36*
X376000D02*
Y230000D01*
X383442D01*
X383281Y231219D01*
X382425Y233287D01*
X381062Y235062D01*
X379287Y236425D01*
X377219Y237281D01*
X376000Y237442D01*
D02*
G37*
G36*
X374000D02*
X372781Y237281D01*
X370713Y236425D01*
X368938Y235062D01*
X367575Y233287D01*
X366719Y231219D01*
X366558Y230000D01*
X374000D01*
Y237442D01*
D02*
G37*
G36*
X356000D02*
Y230000D01*
X363442D01*
X363281Y231219D01*
X362425Y233287D01*
X361062Y235062D01*
X359287Y236425D01*
X357219Y237281D01*
X356000Y237442D01*
D02*
G37*
G36*
X354000D02*
X352781Y237281D01*
X350713Y236425D01*
X348938Y235062D01*
X347575Y233287D01*
X346719Y231219D01*
X346558Y230000D01*
X354000D01*
Y237442D01*
D02*
G37*
G36*
X336000D02*
Y230000D01*
X343442D01*
X343281Y231219D01*
X342425Y233287D01*
X341062Y235062D01*
X339287Y236425D01*
X337219Y237281D01*
X336000Y237442D01*
D02*
G37*
G36*
X334000D02*
X332781Y237281D01*
X330713Y236425D01*
X328938Y235062D01*
X327575Y233287D01*
X326719Y231219D01*
X326558Y230000D01*
X334000D01*
Y237442D01*
D02*
G37*
G36*
X271000Y231088D02*
X269244Y230739D01*
X267756Y229744D01*
X266761Y228256D01*
X266412Y226500D01*
X266761Y224744D01*
X267756Y223256D01*
X269244Y222261D01*
X271000Y221912D01*
X272756Y222261D01*
X274244Y223256D01*
X275239Y224744D01*
X275588Y226500D01*
X275239Y228256D01*
X274244Y229744D01*
X272756Y230739D01*
X271000Y231088D01*
D02*
G37*
G36*
X463442Y228000D02*
X456000D01*
Y220558D01*
X457219Y220719D01*
X459287Y221575D01*
X461062Y222938D01*
X462425Y224713D01*
X463281Y226781D01*
X463442Y228000D01*
D02*
G37*
G36*
X454000D02*
X446558D01*
X446719Y226781D01*
X447575Y224713D01*
X448938Y222938D01*
X450713Y221575D01*
X452781Y220719D01*
X454000Y220558D01*
Y228000D01*
D02*
G37*
G36*
X443442D02*
X436000D01*
Y220558D01*
X437219Y220719D01*
X439287Y221575D01*
X441062Y222938D01*
X442425Y224713D01*
X443281Y226781D01*
X443442Y228000D01*
D02*
G37*
G36*
X434000D02*
X426558D01*
X426719Y226781D01*
X427575Y224713D01*
X428938Y222938D01*
X430713Y221575D01*
X432781Y220719D01*
X434000Y220558D01*
Y228000D01*
D02*
G37*
G36*
X423442D02*
X416000D01*
Y220558D01*
X417219Y220719D01*
X419287Y221575D01*
X421062Y222938D01*
X422425Y224713D01*
X423281Y226781D01*
X423442Y228000D01*
D02*
G37*
G36*
X414000D02*
X406558D01*
X406719Y226781D01*
X407575Y224713D01*
X408938Y222938D01*
X410713Y221575D01*
X412781Y220719D01*
X414000Y220558D01*
Y228000D01*
D02*
G37*
G36*
X403442D02*
X396000D01*
Y220558D01*
X397219Y220719D01*
X399287Y221575D01*
X401062Y222938D01*
X402425Y224713D01*
X403281Y226781D01*
X403442Y228000D01*
D02*
G37*
G36*
X394000D02*
X386558D01*
X386719Y226781D01*
X387575Y224713D01*
X388938Y222938D01*
X390713Y221575D01*
X392781Y220719D01*
X394000Y220558D01*
Y228000D01*
D02*
G37*
G36*
X383442D02*
X376000D01*
Y220558D01*
X377219Y220719D01*
X379287Y221575D01*
X381062Y222938D01*
X382425Y224713D01*
X383281Y226781D01*
X383442Y228000D01*
D02*
G37*
G36*
X374000D02*
X366558D01*
X366719Y226781D01*
X367575Y224713D01*
X368938Y222938D01*
X370713Y221575D01*
X372781Y220719D01*
X374000Y220558D01*
Y228000D01*
D02*
G37*
G36*
X363442D02*
X356000D01*
Y220558D01*
X357219Y220719D01*
X359287Y221575D01*
X361062Y222938D01*
X362425Y224713D01*
X363281Y226781D01*
X363442Y228000D01*
D02*
G37*
G36*
X354000D02*
X346558D01*
X346719Y226781D01*
X347575Y224713D01*
X348938Y222938D01*
X350713Y221575D01*
X352781Y220719D01*
X354000Y220558D01*
Y228000D01*
D02*
G37*
G36*
X343442D02*
X336000D01*
Y220558D01*
X337219Y220719D01*
X339287Y221575D01*
X341062Y222938D01*
X342425Y224713D01*
X343281Y226781D01*
X343442Y228000D01*
D02*
G37*
G36*
X334000D02*
X326558D01*
X326719Y226781D01*
X327575Y224713D01*
X328938Y222938D01*
X330713Y221575D01*
X332781Y220719D01*
X334000Y220558D01*
Y228000D01*
D02*
G37*
G36*
X1138000Y215588D02*
X1136244Y215239D01*
X1134756Y214244D01*
X1133761Y212756D01*
X1133412Y211000D01*
X1133761Y209244D01*
X1134756Y207756D01*
X1136244Y206761D01*
X1138000Y206412D01*
X1139756Y206761D01*
X1141244Y207756D01*
X1142239Y209244D01*
X1142588Y211000D01*
X1142239Y212756D01*
X1141244Y214244D01*
X1139756Y215239D01*
X1138000Y215588D01*
D02*
G37*
G36*
X154000D02*
X152244Y215239D01*
X150756Y214244D01*
X149761Y212756D01*
X149412Y211000D01*
X149761Y209244D01*
X150756Y207756D01*
X152244Y206761D01*
X154000Y206412D01*
X155756Y206761D01*
X157244Y207756D01*
X158239Y209244D01*
X158588Y211000D01*
X158239Y212756D01*
X157244Y214244D01*
X155756Y215239D01*
X154000Y215588D01*
D02*
G37*
G36*
X455000Y217573D02*
X452781Y217281D01*
X450713Y216425D01*
X448938Y215062D01*
X447575Y213287D01*
X446719Y211219D01*
X446427Y209000D01*
X446719Y206781D01*
X447575Y204713D01*
X448938Y202938D01*
X450713Y201575D01*
X452781Y200719D01*
X455000Y200427D01*
X457219Y200719D01*
X459287Y201575D01*
X461062Y202938D01*
X462425Y204713D01*
X463281Y206781D01*
X463573Y209000D01*
X463281Y211219D01*
X462425Y213287D01*
X461062Y215062D01*
X459287Y216425D01*
X457219Y217281D01*
X455000Y217573D01*
D02*
G37*
G36*
X435000D02*
X432781Y217281D01*
X430713Y216425D01*
X428938Y215062D01*
X427575Y213287D01*
X426719Y211219D01*
X426427Y209000D01*
X426719Y206781D01*
X427575Y204713D01*
X428938Y202938D01*
X430713Y201575D01*
X432781Y200719D01*
X435000Y200427D01*
X437219Y200719D01*
X439287Y201575D01*
X441062Y202938D01*
X442425Y204713D01*
X443281Y206781D01*
X443573Y209000D01*
X443281Y211219D01*
X442425Y213287D01*
X441062Y215062D01*
X439287Y216425D01*
X437219Y217281D01*
X435000Y217573D01*
D02*
G37*
G36*
X415000D02*
X412781Y217281D01*
X410713Y216425D01*
X408938Y215062D01*
X407575Y213287D01*
X406719Y211219D01*
X406427Y209000D01*
X406719Y206781D01*
X407575Y204713D01*
X408938Y202938D01*
X410713Y201575D01*
X412781Y200719D01*
X415000Y200427D01*
X417219Y200719D01*
X419287Y201575D01*
X421062Y202938D01*
X422425Y204713D01*
X423281Y206781D01*
X423573Y209000D01*
X423281Y211219D01*
X422425Y213287D01*
X421062Y215062D01*
X419287Y216425D01*
X417219Y217281D01*
X415000Y217573D01*
D02*
G37*
G36*
X395000D02*
X392781Y217281D01*
X390713Y216425D01*
X388938Y215062D01*
X387575Y213287D01*
X386719Y211219D01*
X386427Y209000D01*
X386719Y206781D01*
X387575Y204713D01*
X388938Y202938D01*
X390713Y201575D01*
X392781Y200719D01*
X395000Y200427D01*
X397219Y200719D01*
X399287Y201575D01*
X401062Y202938D01*
X402425Y204713D01*
X403281Y206781D01*
X403573Y209000D01*
X403281Y211219D01*
X402425Y213287D01*
X401062Y215062D01*
X399287Y216425D01*
X397219Y217281D01*
X395000Y217573D01*
D02*
G37*
G36*
X375000D02*
X372781Y217281D01*
X370713Y216425D01*
X368938Y215062D01*
X367575Y213287D01*
X366719Y211219D01*
X366427Y209000D01*
X366719Y206781D01*
X367575Y204713D01*
X368938Y202938D01*
X370713Y201575D01*
X372781Y200719D01*
X375000Y200427D01*
X377219Y200719D01*
X379287Y201575D01*
X381062Y202938D01*
X382425Y204713D01*
X383281Y206781D01*
X383573Y209000D01*
X383281Y211219D01*
X382425Y213287D01*
X381062Y215062D01*
X379287Y216425D01*
X377219Y217281D01*
X375000Y217573D01*
D02*
G37*
G36*
X355000D02*
X352781Y217281D01*
X350713Y216425D01*
X348938Y215062D01*
X347575Y213287D01*
X346719Y211219D01*
X346427Y209000D01*
X346719Y206781D01*
X347575Y204713D01*
X348938Y202938D01*
X350713Y201575D01*
X352781Y200719D01*
X355000Y200427D01*
X357219Y200719D01*
X359287Y201575D01*
X361062Y202938D01*
X362425Y204713D01*
X363281Y206781D01*
X363573Y209000D01*
X363281Y211219D01*
X362425Y213287D01*
X361062Y215062D01*
X359287Y216425D01*
X357219Y217281D01*
X355000Y217573D01*
D02*
G37*
G36*
X335000D02*
X332781Y217281D01*
X330713Y216425D01*
X328938Y215062D01*
X327575Y213287D01*
X326719Y211219D01*
X326427Y209000D01*
X326719Y206781D01*
X327575Y204713D01*
X328938Y202938D01*
X330713Y201575D01*
X332781Y200719D01*
X335000Y200427D01*
X337219Y200719D01*
X339287Y201575D01*
X341062Y202938D01*
X342425Y204713D01*
X343281Y206781D01*
X343573Y209000D01*
X343281Y211219D01*
X342425Y213287D01*
X341062Y215062D01*
X339287Y216425D01*
X337219Y217281D01*
X335000Y217573D01*
D02*
G37*
G36*
X281000Y202588D02*
X279244Y202239D01*
X277756Y201244D01*
X276761Y199756D01*
X276412Y198000D01*
X276761Y196244D01*
X277756Y194756D01*
X279244Y193761D01*
X281000Y193412D01*
X282756Y193761D01*
X284244Y194756D01*
X285239Y196244D01*
X285588Y198000D01*
X285239Y199756D01*
X284244Y201244D01*
X282756Y202239D01*
X281000Y202588D01*
D02*
G37*
G36*
X710000Y188112D02*
X706606Y187665D01*
X703444Y186355D01*
X700728Y184272D01*
X698644Y181556D01*
X697335Y178394D01*
X696888Y175000D01*
X697335Y171606D01*
X698644Y168444D01*
X700728Y165728D01*
X703444Y163645D01*
X706606Y162335D01*
X710000Y161888D01*
X713394Y162335D01*
X716556Y163645D01*
X719272Y165728D01*
X721356Y168444D01*
X722665Y171606D01*
X723112Y175000D01*
X722665Y178394D01*
X721356Y181556D01*
X719272Y184272D01*
X716556Y186355D01*
X713394Y187665D01*
X710000Y188112D01*
D02*
G37*
G36*
X1110000Y182608D02*
X1106737Y182178D01*
X1103696Y180919D01*
X1101085Y178915D01*
X1099081Y176304D01*
X1097822Y173263D01*
X1097392Y170000D01*
X1097822Y166737D01*
X1099081Y163696D01*
X1101085Y161085D01*
X1103696Y159081D01*
X1106737Y157822D01*
X1110000Y157392D01*
X1113263Y157822D01*
X1116304Y159081D01*
X1118915Y161085D01*
X1120919Y163696D01*
X1122178Y166737D01*
X1122608Y170000D01*
X1122178Y173263D01*
X1120919Y176304D01*
X1118915Y178915D01*
X1116304Y180919D01*
X1113263Y182178D01*
X1110000Y182608D01*
D02*
G37*
G36*
X110000D02*
X106737Y182178D01*
X103696Y180919D01*
X101085Y178915D01*
X99081Y176304D01*
X97822Y173263D01*
X97392Y170000D01*
X97822Y166737D01*
X99081Y163696D01*
X101085Y161085D01*
X103696Y159081D01*
X106737Y157822D01*
X110000Y157392D01*
X113263Y157822D01*
X116304Y159081D01*
X118915Y161085D01*
X120919Y163696D01*
X122178Y166737D01*
X122608Y170000D01*
X122178Y173263D01*
X120919Y176304D01*
X118915Y178915D01*
X116304Y180919D01*
X113263Y182178D01*
X110000Y182608D01*
D02*
G37*
G36*
X863000Y156588D02*
X861244Y156239D01*
X859756Y155244D01*
X858761Y153756D01*
X858412Y152000D01*
X858761Y150244D01*
X859756Y148756D01*
X861244Y147761D01*
X863000Y147412D01*
X864756Y147761D01*
X866244Y148756D01*
X867239Y150244D01*
X867588Y152000D01*
X867239Y153756D01*
X866244Y155244D01*
X864756Y156239D01*
X863000Y156588D01*
D02*
G37*
G36*
X783000D02*
X781244Y156239D01*
X779756Y155244D01*
X778761Y153756D01*
X778412Y152000D01*
X778761Y150244D01*
X779756Y148756D01*
X781244Y147761D01*
X783000Y147412D01*
X784756Y147761D01*
X786244Y148756D01*
X787239Y150244D01*
X787588Y152000D01*
X787239Y153756D01*
X786244Y155244D01*
X784756Y156239D01*
X783000Y156588D01*
D02*
G37*
G36*
X514000Y141588D02*
X512244Y141239D01*
X512065Y141119D01*
X510500Y140367D01*
X508935Y141119D01*
X508756Y141239D01*
X507000Y141588D01*
X505244Y141239D01*
X503756Y140244D01*
X502761Y138756D01*
X502412Y137000D01*
X502761Y135244D01*
X503756Y133756D01*
X505244Y132761D01*
X507000Y132412D01*
X508756Y132761D01*
X508935Y132881D01*
X510500Y133633D01*
X512065Y132881D01*
X512244Y132761D01*
X514000Y132412D01*
X515756Y132761D01*
X517244Y133756D01*
X518239Y135244D01*
X518588Y137000D01*
X518239Y138756D01*
X517244Y140244D01*
X515756Y141239D01*
X514000Y141588D01*
D02*
G37*
G36*
X440000Y154588D02*
X438244Y154239D01*
X436756Y153244D01*
X435761Y151756D01*
X435412Y150000D01*
X435761Y148244D01*
X436756Y146756D01*
X438244Y145761D01*
X440000Y145412D01*
X440412Y145000D01*
X440761Y143244D01*
X441756Y141756D01*
X443244Y140761D01*
X445000Y140412D01*
X445412Y140000D01*
X445761Y138244D01*
X446756Y136756D01*
X448244Y135761D01*
X448513Y135708D01*
X450412Y135000D01*
X450761Y133244D01*
X451756Y131756D01*
X453244Y130761D01*
X455000Y130412D01*
X455412Y130000D01*
X455761Y128244D01*
X456756Y126756D01*
X458244Y125761D01*
X460000Y125412D01*
X461756Y125761D01*
X463244Y126756D01*
X464239Y128244D01*
X464588Y130000D01*
X464239Y131756D01*
X463244Y133244D01*
X461756Y134239D01*
X460000Y134588D01*
X459588Y135000D01*
X459239Y136756D01*
X458244Y138244D01*
X456756Y139239D01*
X456487Y139292D01*
X454588Y140000D01*
X454239Y141756D01*
X453244Y143244D01*
X451756Y144239D01*
X450000Y144588D01*
X449588Y145000D01*
X449239Y146756D01*
X448244Y148244D01*
X446756Y149239D01*
X445000Y149588D01*
X444588Y150000D01*
X444239Y151756D01*
X443244Y153244D01*
X441756Y154239D01*
X440000Y154588D01*
D02*
G37*
G36*
X527000Y129588D02*
X525244Y129239D01*
X523756Y128244D01*
X522761Y126756D01*
X522412Y125000D01*
X522761Y123244D01*
X523756Y121756D01*
X525244Y120761D01*
X527000Y120412D01*
X528756Y120761D01*
X530244Y121756D01*
X531239Y123244D01*
X531588Y125000D01*
X531239Y126756D01*
X530244Y128244D01*
X528756Y129239D01*
X527000Y129588D01*
D02*
G37*
G36*
X590000Y120588D02*
X588244Y120239D01*
X588065Y120119D01*
X586500Y119367D01*
X584935Y120119D01*
X584756Y120239D01*
X583000Y120588D01*
X581244Y120239D01*
X579756Y119244D01*
X578761Y117756D01*
X578412Y116000D01*
X578761Y114244D01*
X579756Y112756D01*
X581244Y111761D01*
X583000Y111412D01*
X584756Y111761D01*
X584935Y111881D01*
X586500Y112633D01*
X588065Y111881D01*
X588244Y111761D01*
X590000Y111412D01*
X591756Y111761D01*
X593244Y112756D01*
X594239Y114244D01*
X594588Y116000D01*
X594239Y117756D01*
X593244Y119244D01*
X591756Y120239D01*
X590000Y120588D01*
D02*
G37*
G36*
X475000Y119588D02*
X473244Y119239D01*
X471756Y118244D01*
X470761Y116756D01*
X470412Y115000D01*
X470761Y113244D01*
X471756Y111756D01*
X473244Y110761D01*
X475000Y110412D01*
X476756Y110761D01*
X478244Y111756D01*
X479239Y113244D01*
X479588Y115000D01*
X479239Y116756D01*
X478244Y118244D01*
X476756Y119239D01*
X475000Y119588D01*
D02*
G37*
G36*
X781000Y109588D02*
X779244Y109239D01*
X777756Y108244D01*
X776761Y106756D01*
X776412Y105000D01*
X776761Y103244D01*
X775855Y101244D01*
X774254Y100151D01*
X773313Y100765D01*
X772754Y101138D01*
X770999Y101487D01*
X769243Y101138D01*
X767754Y100143D01*
X765857Y100904D01*
X765056Y101439D01*
X763300Y101788D01*
X761544Y101439D01*
X761019Y101088D01*
X759244Y100144D01*
X757756Y101139D01*
X756000Y101488D01*
X754244Y101139D01*
X753374Y100557D01*
X752000Y100291D01*
X750626Y100557D01*
X749756Y101139D01*
X748000Y101488D01*
X746244Y101139D01*
X744756Y100144D01*
X743761Y98656D01*
X743412Y96900D01*
X743761Y95144D01*
X744756Y93656D01*
X746244Y92661D01*
X748000Y92312D01*
X749756Y92661D01*
X751244Y93656D01*
X752756D01*
X754244Y92661D01*
X756000Y92312D01*
X757756Y92661D01*
X758281Y93012D01*
X760056Y93956D01*
X761544Y92961D01*
X763300Y92612D01*
X765056Y92961D01*
X766544Y93956D01*
X768442Y93195D01*
X769243Y92660D01*
X770999Y92311D01*
X772754Y92660D01*
X774243Y93655D01*
X775844Y94748D01*
X776785Y94134D01*
X777344Y93761D01*
X779100Y93412D01*
X780856Y93761D01*
X782344Y94755D01*
X783339Y96244D01*
X783688Y98000D01*
X783339Y99756D01*
X782722Y100679D01*
X782756Y100761D01*
X784244Y101756D01*
X785239Y103244D01*
X785588Y105000D01*
X785239Y106756D01*
X784244Y108244D01*
X782756Y109239D01*
X781000Y109588D01*
D02*
G37*
G36*
X898251Y106839D02*
X896495Y106490D01*
X895006Y105495D01*
X894012Y104007D01*
X893663Y102251D01*
X894012Y100495D01*
X895006Y99007D01*
X896495Y98012D01*
X898251Y97663D01*
X900007Y98012D01*
X901495Y99007D01*
X902490Y100495D01*
X902839Y102251D01*
X902490Y104007D01*
X901495Y105495D01*
X900007Y106490D01*
X898251Y106839D01*
D02*
G37*
G36*
X885251D02*
X883495Y106490D01*
X882007Y105495D01*
X881012Y104007D01*
X880663Y102251D01*
X881012Y100495D01*
X882007Y99007D01*
X883495Y98012D01*
X885251Y97663D01*
X887007Y98012D01*
X888495Y99007D01*
X889490Y100495D01*
X889839Y102251D01*
X889490Y104007D01*
X888495Y105495D01*
X887007Y106490D01*
X885251Y106839D01*
D02*
G37*
G36*
X790998Y102487D02*
X789243Y102138D01*
X787754Y101143D01*
X786759Y99655D01*
X786410Y97899D01*
X786759Y96143D01*
X787754Y94655D01*
X789243Y93660D01*
X790998Y93311D01*
X792754Y93660D01*
X795248Y93346D01*
X796737Y92351D01*
X798492Y92002D01*
X800248Y92351D01*
X801737Y93346D01*
X802731Y94834D01*
X803081Y96590D01*
X802731Y98346D01*
X801737Y99834D01*
X800248Y100829D01*
X798492Y101178D01*
X796737Y100829D01*
X794243Y101143D01*
X792754Y102138D01*
X790998Y102487D01*
D02*
G37*
G36*
X990000Y104588D02*
X988244Y104239D01*
X986756Y103244D01*
X985761Y101756D01*
X985412Y100000D01*
X985761Y98244D01*
X986756Y96756D01*
Y96244D01*
X985761Y94756D01*
X985412Y93000D01*
X985761Y91244D01*
X986756Y89756D01*
X988244Y88761D01*
X990000Y88412D01*
X991756Y88761D01*
X993244Y89756D01*
X994239Y91244D01*
X994588Y93000D01*
X994239Y94756D01*
X993244Y96244D01*
Y96756D01*
X994239Y98244D01*
X994588Y100000D01*
X994239Y101756D01*
X993244Y103244D01*
X991756Y104239D01*
X990000Y104588D01*
D02*
G37*
G36*
X547500Y84850D02*
Y76400D01*
X555950D01*
X555756Y77880D01*
X554798Y80191D01*
X553275Y82176D01*
X551291Y83698D01*
X548980Y84656D01*
X547500Y84850D01*
D02*
G37*
G36*
X545500D02*
X544020Y84656D01*
X541709Y83698D01*
X539725Y82176D01*
X538202Y80191D01*
X537244Y77880D01*
X537050Y76400D01*
X545500D01*
Y84850D01*
D02*
G37*
G36*
X469000Y79588D02*
X467244Y79239D01*
X465756Y78244D01*
X464761Y76756D01*
X464412Y75000D01*
X464761Y73244D01*
X465756Y71756D01*
X467244Y70761D01*
X469000Y70412D01*
X470756Y70761D01*
X472244Y71756D01*
X473239Y73244D01*
X473588Y75000D01*
X473239Y76756D01*
X472244Y78244D01*
X470756Y79239D01*
X469000Y79588D01*
D02*
G37*
G36*
X918160Y81451D02*
X916312Y81208D01*
X914589Y80494D01*
X913111Y79359D01*
X911976Y77881D01*
X911262Y76158D01*
X911019Y74310D01*
X911262Y72462D01*
X911976Y70739D01*
X913111Y69261D01*
X914589Y68126D01*
X916312Y67412D01*
X918160Y67169D01*
X920008Y67412D01*
X921731Y68126D01*
X923210Y69261D01*
X924344Y70739D01*
X925058Y72462D01*
X925301Y74310D01*
X925058Y76158D01*
X924344Y77881D01*
X923210Y79359D01*
X921731Y80494D01*
X920008Y81208D01*
X918160Y81451D01*
D02*
G37*
G36*
X733440D02*
X731592Y81208D01*
X729870Y80494D01*
X728391Y79359D01*
X727256Y77881D01*
X726542Y76158D01*
X726299Y74310D01*
X726542Y72462D01*
X727256Y70739D01*
X728391Y69261D01*
X729870Y68126D01*
X731592Y67412D01*
X733440Y67169D01*
X735288Y67412D01*
X737011Y68126D01*
X738490Y69261D01*
X739624Y70739D01*
X740338Y72462D01*
X740581Y74310D01*
X740338Y76158D01*
X739624Y77881D01*
X738490Y79359D01*
X737011Y80494D01*
X735288Y81208D01*
X733440Y81451D01*
D02*
G37*
G36*
X486360D02*
X484512Y81208D01*
X482789Y80494D01*
X481311Y79359D01*
X480176Y77881D01*
X479462Y76158D01*
X479219Y74310D01*
X479462Y72462D01*
X480176Y70739D01*
X481311Y69261D01*
X482789Y68126D01*
X484512Y67412D01*
X486360Y67169D01*
X488208Y67412D01*
X489931Y68126D01*
X491410Y69261D01*
X492544Y70739D01*
X493258Y72462D01*
X493501Y74310D01*
X493258Y76158D01*
X492544Y77881D01*
X491410Y79359D01*
X489931Y80494D01*
X488208Y81208D01*
X486360Y81451D01*
D02*
G37*
G36*
X301640D02*
X299792Y81208D01*
X298069Y80494D01*
X296590Y79359D01*
X295456Y77881D01*
X294742Y76158D01*
X294499Y74310D01*
X294742Y72462D01*
X295456Y70739D01*
X296590Y69261D01*
X298069Y68126D01*
X299792Y67412D01*
X301640Y67169D01*
X303488Y67412D01*
X305211Y68126D01*
X306690Y69261D01*
X307824Y70739D01*
X308538Y72462D01*
X308781Y74310D01*
X308538Y76158D01*
X307824Y77881D01*
X306690Y79359D01*
X305211Y80494D01*
X303488Y81208D01*
X301640Y81451D01*
D02*
G37*
G36*
X555950Y74400D02*
X547500D01*
Y65950D01*
X548980Y66144D01*
X551291Y67102D01*
X553275Y68625D01*
X554798Y70609D01*
X555756Y72920D01*
X555950Y74400D01*
D02*
G37*
G36*
X545500D02*
X537050D01*
X537244Y72920D01*
X538202Y70609D01*
X539725Y68625D01*
X541709Y67102D01*
X544020Y66144D01*
X545500Y65950D01*
Y74400D01*
D02*
G37*
G36*
X698900Y84982D02*
X696420Y84656D01*
X694109Y83698D01*
X692124Y82176D01*
X690602Y80191D01*
X689644Y77880D01*
X689318Y75400D01*
X689644Y72920D01*
X690602Y70609D01*
X692124Y68625D01*
X694109Y67102D01*
X696420Y66144D01*
X698900Y65818D01*
X701380Y66144D01*
X703691Y67102D01*
X705675Y68625D01*
X707198Y70609D01*
X708156Y72920D01*
X708482Y75400D01*
X708156Y77880D01*
X707198Y80191D01*
X705675Y82176D01*
X703691Y83698D01*
X701380Y84656D01*
X698900Y84982D01*
D02*
G37*
G36*
X673500D02*
X671020Y84656D01*
X668709Y83698D01*
X666724Y82176D01*
X665202Y80191D01*
X664245Y77880D01*
X663918Y75400D01*
X664245Y72920D01*
X665202Y70609D01*
X666724Y68625D01*
X668709Y67102D01*
X671020Y66144D01*
X673500Y65818D01*
X675980Y66144D01*
X678291Y67102D01*
X680275Y68625D01*
X681798Y70609D01*
X682756Y72920D01*
X683082Y75400D01*
X682756Y77880D01*
X681798Y80191D01*
X680275Y82176D01*
X678291Y83698D01*
X675980Y84656D01*
X673500Y84982D01*
D02*
G37*
G36*
X648100D02*
X645620Y84656D01*
X643309Y83698D01*
X641324Y82176D01*
X639802Y80191D01*
X638844Y77880D01*
X638518Y75400D01*
X638844Y72920D01*
X639802Y70609D01*
X641324Y68625D01*
X643309Y67102D01*
X645620Y66144D01*
X648100Y65818D01*
X650580Y66144D01*
X652891Y67102D01*
X654875Y68625D01*
X656398Y70609D01*
X657355Y72920D01*
X657682Y75400D01*
X657355Y77880D01*
X656398Y80191D01*
X654875Y82176D01*
X652891Y83698D01*
X650580Y84656D01*
X648100Y84982D01*
D02*
G37*
G36*
X622700D02*
X620220Y84656D01*
X617909Y83698D01*
X615924Y82176D01*
X614402Y80191D01*
X613445Y77880D01*
X613118Y75400D01*
X613445Y72920D01*
X614402Y70609D01*
X615924Y68625D01*
X617909Y67102D01*
X620220Y66144D01*
X622700Y65818D01*
X625180Y66144D01*
X627491Y67102D01*
X629475Y68625D01*
X630998Y70609D01*
X631955Y72920D01*
X632282Y75400D01*
X631955Y77880D01*
X630998Y80191D01*
X629475Y82176D01*
X627491Y83698D01*
X625180Y84656D01*
X622700Y84982D01*
D02*
G37*
G36*
X597300D02*
X594820Y84656D01*
X592509Y83698D01*
X590524Y82176D01*
X589002Y80191D01*
X588045Y77880D01*
X587718Y75400D01*
X588045Y72920D01*
X589002Y70609D01*
X590524Y68625D01*
X592509Y67102D01*
X594820Y66144D01*
X597300Y65818D01*
X599780Y66144D01*
X602091Y67102D01*
X604075Y68625D01*
X605598Y70609D01*
X606555Y72920D01*
X606882Y75400D01*
X606555Y77880D01*
X605598Y80191D01*
X604075Y82176D01*
X602091Y83698D01*
X599780Y84656D01*
X597300Y84982D01*
D02*
G37*
G36*
X571900D02*
X569420Y84656D01*
X567109Y83698D01*
X565125Y82176D01*
X563602Y80191D01*
X562645Y77880D01*
X562318Y75400D01*
X562645Y72920D01*
X563602Y70609D01*
X565125Y68625D01*
X567109Y67102D01*
X569420Y66144D01*
X571900Y65818D01*
X574380Y66144D01*
X576691Y67102D01*
X578675Y68625D01*
X580198Y70609D01*
X581156Y72920D01*
X581482Y75400D01*
X581156Y77880D01*
X580198Y80191D01*
X578675Y82176D01*
X576691Y83698D01*
X574380Y84656D01*
X571900Y84982D01*
D02*
G37*
G36*
X521100D02*
X518620Y84656D01*
X516309Y83698D01*
X514324Y82176D01*
X512802Y80191D01*
X511844Y77880D01*
X511518Y75400D01*
X511844Y72920D01*
X512802Y70609D01*
X514324Y68625D01*
X516309Y67102D01*
X518620Y66144D01*
X521100Y65818D01*
X523580Y66144D01*
X525891Y67102D01*
X527875Y68625D01*
X529398Y70609D01*
X530355Y72920D01*
X530682Y75400D01*
X530355Y77880D01*
X529398Y80191D01*
X527875Y82176D01*
X525891Y83698D01*
X523580Y84656D01*
X521100Y84982D01*
D02*
G37*
G36*
X547500Y59450D02*
Y51000D01*
X555950D01*
X555756Y52480D01*
X554798Y54791D01*
X553275Y56775D01*
X551291Y58298D01*
X548980Y59255D01*
X547500Y59450D01*
D02*
G37*
G36*
X545500D02*
X544020Y59255D01*
X541709Y58298D01*
X539725Y56775D01*
X538202Y54791D01*
X537244Y52480D01*
X537050Y51000D01*
X545500D01*
Y59450D01*
D02*
G37*
G36*
X555950Y49000D02*
X547500D01*
Y40550D01*
X548980Y40745D01*
X551291Y41702D01*
X553275Y43225D01*
X554798Y45209D01*
X555756Y47520D01*
X555950Y49000D01*
D02*
G37*
G36*
X545500D02*
X537050D01*
X537244Y47520D01*
X538202Y45209D01*
X539725Y43225D01*
X541709Y41702D01*
X544020Y40745D01*
X545500Y40550D01*
Y49000D01*
D02*
G37*
G36*
X698900Y59582D02*
X696420Y59255D01*
X694109Y58298D01*
X692124Y56775D01*
X690602Y54791D01*
X689644Y52480D01*
X689318Y50000D01*
X689644Y47520D01*
X690602Y45209D01*
X692124Y43225D01*
X694109Y41702D01*
X696420Y40745D01*
X698900Y40418D01*
X701380Y40745D01*
X703691Y41702D01*
X705675Y43225D01*
X707198Y45209D01*
X708156Y47520D01*
X708482Y50000D01*
X708156Y52480D01*
X707198Y54791D01*
X705675Y56775D01*
X703691Y58298D01*
X701380Y59255D01*
X698900Y59582D01*
D02*
G37*
G36*
X673500D02*
X671020Y59255D01*
X668709Y58298D01*
X666724Y56775D01*
X665202Y54791D01*
X664245Y52480D01*
X663918Y50000D01*
X664245Y47520D01*
X665202Y45209D01*
X666724Y43225D01*
X668709Y41702D01*
X671020Y40745D01*
X673500Y40418D01*
X675980Y40745D01*
X678291Y41702D01*
X680275Y43225D01*
X681798Y45209D01*
X682756Y47520D01*
X683082Y50000D01*
X682756Y52480D01*
X681798Y54791D01*
X680275Y56775D01*
X678291Y58298D01*
X675980Y59255D01*
X673500Y59582D01*
D02*
G37*
G36*
X648100D02*
X645620Y59255D01*
X643309Y58298D01*
X641324Y56775D01*
X639802Y54791D01*
X638844Y52480D01*
X638518Y50000D01*
X638844Y47520D01*
X639802Y45209D01*
X641324Y43225D01*
X643309Y41702D01*
X645620Y40745D01*
X648100Y40418D01*
X650580Y40745D01*
X652891Y41702D01*
X654875Y43225D01*
X656398Y45209D01*
X657355Y47520D01*
X657682Y50000D01*
X657355Y52480D01*
X656398Y54791D01*
X654875Y56775D01*
X652891Y58298D01*
X650580Y59255D01*
X648100Y59582D01*
D02*
G37*
G36*
X622700D02*
X620220Y59255D01*
X617909Y58298D01*
X615924Y56775D01*
X614402Y54791D01*
X613445Y52480D01*
X613118Y50000D01*
X613445Y47520D01*
X614402Y45209D01*
X615924Y43225D01*
X617909Y41702D01*
X620220Y40745D01*
X622700Y40418D01*
X625180Y40745D01*
X627491Y41702D01*
X629475Y43225D01*
X630998Y45209D01*
X631955Y47520D01*
X632282Y50000D01*
X631955Y52480D01*
X630998Y54791D01*
X629475Y56775D01*
X627491Y58298D01*
X625180Y59255D01*
X622700Y59582D01*
D02*
G37*
G36*
X597300D02*
X594820Y59255D01*
X592509Y58298D01*
X590524Y56775D01*
X589002Y54791D01*
X588045Y52480D01*
X587718Y50000D01*
X588045Y47520D01*
X589002Y45209D01*
X590524Y43225D01*
X592509Y41702D01*
X594820Y40745D01*
X597300Y40418D01*
X599780Y40745D01*
X602091Y41702D01*
X604075Y43225D01*
X605598Y45209D01*
X606555Y47520D01*
X606882Y50000D01*
X606555Y52480D01*
X605598Y54791D01*
X604075Y56775D01*
X602091Y58298D01*
X599780Y59255D01*
X597300Y59582D01*
D02*
G37*
G36*
X571900D02*
X569420Y59255D01*
X567109Y58298D01*
X565125Y56775D01*
X563602Y54791D01*
X562645Y52480D01*
X562318Y50000D01*
X562645Y47520D01*
X563602Y45209D01*
X565125Y43225D01*
X567109Y41702D01*
X569420Y40745D01*
X571900Y40418D01*
X574380Y40745D01*
X576691Y41702D01*
X578675Y43225D01*
X580198Y45209D01*
X581156Y47520D01*
X581482Y50000D01*
X581156Y52480D01*
X580198Y54791D01*
X578675Y56775D01*
X576691Y58298D01*
X574380Y59255D01*
X571900Y59582D01*
D02*
G37*
G36*
X521100D02*
X518620Y59255D01*
X516309Y58298D01*
X514324Y56775D01*
X512802Y54791D01*
X511844Y52480D01*
X511518Y50000D01*
X511844Y47520D01*
X512802Y45209D01*
X514324Y43225D01*
X516309Y41702D01*
X518620Y40745D01*
X521100Y40418D01*
X523580Y40745D01*
X525891Y41702D01*
X527875Y43225D01*
X529398Y45209D01*
X530355Y47520D01*
X530682Y50000D01*
X530355Y52480D01*
X529398Y54791D01*
X527875Y56775D01*
X525891Y58298D01*
X523580Y59255D01*
X521100Y59582D01*
D02*
G37*
G36*
X1041950Y70710D02*
X1010950D01*
Y39710D01*
X1041950D01*
Y70710D01*
D02*
G37*
G36*
X1008950D02*
X977950D01*
Y39710D01*
X1008950D01*
Y70710D01*
D02*
G37*
G36*
X241850D02*
X210850D01*
Y39710D01*
X241850D01*
Y70710D01*
D02*
G37*
G36*
X208850D02*
X177850D01*
Y39710D01*
X208850D01*
Y70710D01*
D02*
G37*
G36*
X446000Y48588D02*
X444244Y48239D01*
X442756Y47244D01*
X441761Y45756D01*
X441412Y44000D01*
X441761Y42244D01*
X442756Y40756D01*
X444244Y39761D01*
X446000Y39412D01*
X447756Y39761D01*
X449244Y40756D01*
X450239Y42244D01*
X450588Y44000D01*
X450239Y45756D01*
X449244Y47244D01*
X447756Y48239D01*
X446000Y48588D01*
D02*
G37*
G36*
X787000Y39588D02*
X785244Y39239D01*
X783756Y38244D01*
X782761Y36756D01*
X782412Y35000D01*
X782761Y33244D01*
X783756Y31756D01*
X785244Y30761D01*
X787000Y30412D01*
X788756Y30761D01*
X790244Y31756D01*
X791239Y33244D01*
X791588Y35000D01*
X791239Y36756D01*
X790244Y38244D01*
X788756Y39239D01*
X787000Y39588D01*
D02*
G37*
G36*
X469000Y38588D02*
X467244Y38239D01*
X465756Y37244D01*
X464761Y35756D01*
X464412Y34000D01*
X464761Y32244D01*
X465756Y30756D01*
X467244Y29761D01*
X469000Y29412D01*
X470756Y29761D01*
X472244Y30756D01*
X473239Y32244D01*
X473588Y34000D01*
X473239Y35756D01*
X472244Y37244D01*
X470756Y38239D01*
X469000Y38588D01*
D02*
G37*
G36*
X698900Y34182D02*
X696420Y33856D01*
X694109Y32898D01*
X692124Y31376D01*
X690602Y29391D01*
X689644Y27080D01*
X689318Y24600D01*
X689644Y22120D01*
X690602Y19809D01*
X692124Y17825D01*
X694109Y16302D01*
X696420Y15345D01*
X698900Y15018D01*
X701380Y15345D01*
X703691Y16302D01*
X705675Y17825D01*
X707198Y19809D01*
X708156Y22120D01*
X708482Y24600D01*
X708156Y27080D01*
X707198Y29391D01*
X705675Y31376D01*
X703691Y32898D01*
X701380Y33856D01*
X698900Y34182D01*
D02*
G37*
G36*
X673500D02*
X671020Y33856D01*
X668709Y32898D01*
X666724Y31376D01*
X665202Y29391D01*
X664245Y27080D01*
X663918Y24600D01*
X664245Y22120D01*
X665202Y19809D01*
X666724Y17825D01*
X668709Y16302D01*
X671020Y15345D01*
X673500Y15018D01*
X675980Y15345D01*
X678291Y16302D01*
X680275Y17825D01*
X681798Y19809D01*
X682756Y22120D01*
X683082Y24600D01*
X682756Y27080D01*
X681798Y29391D01*
X680275Y31376D01*
X678291Y32898D01*
X675980Y33856D01*
X673500Y34182D01*
D02*
G37*
G36*
X648100D02*
X645620Y33856D01*
X643309Y32898D01*
X641324Y31376D01*
X639802Y29391D01*
X638844Y27080D01*
X638518Y24600D01*
X638844Y22120D01*
X639802Y19809D01*
X641324Y17825D01*
X643309Y16302D01*
X645620Y15345D01*
X648100Y15018D01*
X650580Y15345D01*
X652891Y16302D01*
X654875Y17825D01*
X656398Y19809D01*
X657355Y22120D01*
X657682Y24600D01*
X657355Y27080D01*
X656398Y29391D01*
X654875Y31376D01*
X652891Y32898D01*
X650580Y33856D01*
X648100Y34182D01*
D02*
G37*
G36*
X622700D02*
X620220Y33856D01*
X617909Y32898D01*
X615924Y31376D01*
X614402Y29391D01*
X613445Y27080D01*
X613118Y24600D01*
X613445Y22120D01*
X614402Y19809D01*
X615924Y17825D01*
X617909Y16302D01*
X620220Y15345D01*
X622700Y15018D01*
X625180Y15345D01*
X627491Y16302D01*
X629475Y17825D01*
X630998Y19809D01*
X631955Y22120D01*
X632282Y24600D01*
X631955Y27080D01*
X630998Y29391D01*
X629475Y31376D01*
X627491Y32898D01*
X625180Y33856D01*
X622700Y34182D01*
D02*
G37*
G36*
X597300D02*
X594820Y33856D01*
X592509Y32898D01*
X590524Y31376D01*
X589002Y29391D01*
X588045Y27080D01*
X587718Y24600D01*
X588045Y22120D01*
X589002Y19809D01*
X590524Y17825D01*
X592509Y16302D01*
X594820Y15345D01*
X597300Y15018D01*
X599780Y15345D01*
X602091Y16302D01*
X604075Y17825D01*
X605598Y19809D01*
X606555Y22120D01*
X606882Y24600D01*
X606555Y27080D01*
X605598Y29391D01*
X604075Y31376D01*
X602091Y32898D01*
X599780Y33856D01*
X597300Y34182D01*
D02*
G37*
G36*
X571900D02*
X569420Y33856D01*
X567109Y32898D01*
X565125Y31376D01*
X563602Y29391D01*
X562645Y27080D01*
X562318Y24600D01*
X562645Y22120D01*
X563602Y19809D01*
X565125Y17825D01*
X567109Y16302D01*
X569420Y15345D01*
X571900Y15018D01*
X574380Y15345D01*
X576691Y16302D01*
X578675Y17825D01*
X580198Y19809D01*
X581156Y22120D01*
X581482Y24600D01*
X581156Y27080D01*
X580198Y29391D01*
X578675Y31376D01*
X576691Y32898D01*
X574380Y33856D01*
X571900Y34182D01*
D02*
G37*
G36*
X546500D02*
X544020Y33856D01*
X541709Y32898D01*
X539725Y31376D01*
X538202Y29391D01*
X537244Y27080D01*
X536918Y24600D01*
X537244Y22120D01*
X538202Y19809D01*
X539725Y17825D01*
X541709Y16302D01*
X544020Y15345D01*
X546500Y15018D01*
X548980Y15345D01*
X551291Y16302D01*
X553275Y17825D01*
X554798Y19809D01*
X555756Y22120D01*
X556082Y24600D01*
X555756Y27080D01*
X554798Y29391D01*
X553275Y31376D01*
X551291Y32898D01*
X548980Y33856D01*
X546500Y34182D01*
D02*
G37*
G36*
X521100D02*
X518620Y33856D01*
X516309Y32898D01*
X514324Y31376D01*
X512802Y29391D01*
X511844Y27080D01*
X511518Y24600D01*
X511844Y22120D01*
X512802Y19809D01*
X514324Y17825D01*
X516309Y16302D01*
X518620Y15345D01*
X521100Y15018D01*
X523580Y15345D01*
X525891Y16302D01*
X527875Y17825D01*
X529398Y19809D01*
X530355Y22120D01*
X530682Y24600D01*
X530355Y27080D01*
X529398Y29391D01*
X527875Y31376D01*
X525891Y32898D01*
X523580Y33856D01*
X521100Y34182D01*
D02*
G37*
%LPD*%
D16*
X673500Y484600D02*
D03*
X546500Y50000D02*
D03*
Y75400D02*
D03*
D40*
X1009950Y521290D02*
D03*
Y38710D02*
D03*
X209850D02*
D03*
D41*
X455000Y229000D02*
D03*
X435000D02*
D03*
X415000D02*
D03*
X395000D02*
D03*
X375000D02*
D03*
X355000D02*
D03*
X335000D02*
D03*
D42*
X362000Y97000D02*
D03*
X449000D02*
D03*
X418000D02*
D03*
X838000Y366000D02*
D03*
Y105000D02*
D03*
X823000Y74000D02*
D03*
Y550000D02*
D03*
X74500Y359750D02*
D03*
X441000Y524250D02*
D03*
X341000Y486000D02*
D03*
X367000Y464000D02*
D03*
X441000Y486000D02*
D03*
X848800Y526000D02*
D03*
X799800D02*
D03*
X873000D02*
D03*
X824000Y464000D02*
D03*
Y11900D02*
D03*
X873000Y73900D02*
D03*
Y34900D02*
D03*
X799800Y73900D02*
D03*
X773799Y73899D02*
D03*
X848800Y73900D02*
D03*
X441200D02*
D03*
Y34900D02*
D03*
X341000Y33900D02*
D03*
X367000Y11900D02*
D03*
X341999Y73899D02*
D03*
X391000Y95900D02*
D03*
X377000Y72000D02*
D03*
X848000Y464000D02*
D03*
X873800Y464200D02*
D03*
X787000Y488000D02*
D03*
X795000Y35000D02*
D03*
X391000Y548000D02*
D03*
X368000Y526000D02*
D03*
X341999Y525999D02*
D03*
X392000Y462000D02*
D03*
X392200Y11900D02*
D03*
X773799Y525999D02*
D03*
X772800Y486000D02*
D03*
X176000Y236000D02*
D03*
X146000Y235500D02*
D03*
X53500Y344250D02*
D03*
X65500Y276000D02*
D03*
X44000Y292000D02*
D03*
X65500Y308000D02*
D03*
X44000Y324000D02*
D03*
X176000Y292000D02*
D03*
Y260000D02*
D03*
X280000Y261750D02*
D03*
X320500Y355750D02*
D03*
X340000D02*
D03*
X359500D02*
D03*
X346500Y415750D02*
D03*
X327000D02*
D03*
X400500Y355750D02*
D03*
X420000D02*
D03*
X439500D02*
D03*
X433000Y394250D02*
D03*
X407000D02*
D03*
X683000Y272000D02*
D03*
X514000Y286000D02*
D03*
Y190000D02*
D03*
X766000Y133000D02*
D03*
X868000Y139000D02*
D03*
X898000Y164000D02*
D03*
X917000Y135000D02*
D03*
X1154000Y208000D02*
D03*
X1185000Y203000D02*
D03*
X1177000Y292000D02*
D03*
X1176000Y260000D02*
D03*
X1174000Y332000D02*
D03*
X1125000Y355000D02*
D03*
X1083000D02*
D03*
X1053000Y344000D02*
D03*
X1069000Y312000D02*
D03*
X1035000Y290000D02*
D03*
X1069000Y276000D02*
D03*
X945000Y262000D02*
D03*
X866000Y398000D02*
D03*
X918000Y385000D02*
D03*
X898000Y412000D02*
D03*
X785000Y398000D02*
D03*
X819000Y408000D02*
D03*
X364000Y59000D02*
D03*
X352000Y150000D02*
D03*
X372000D02*
D03*
X433000Y97000D02*
D03*
X467000D02*
D03*
X818000Y161000D02*
D03*
X643000Y225000D02*
D03*
X585000Y200000D02*
D03*
X525000Y229000D02*
D03*
X419000Y73000D02*
D03*
X463000Y443000D02*
D03*
X416500Y486750D02*
D03*
X417999Y525999D02*
D03*
X320000Y304000D02*
D03*
X196000Y342000D02*
D03*
X177000Y320000D02*
D03*
X152000Y322000D02*
D03*
X722000Y198000D02*
D03*
X681000Y205000D02*
D03*
X799000Y204000D02*
D03*
Y291000D02*
D03*
Y318000D02*
D03*
X642000Y141000D02*
D03*
X387000Y252000D02*
D03*
X614000Y361000D02*
D03*
X60000Y150000D02*
D03*
X40000Y190000D02*
D03*
Y350000D02*
D03*
X60000Y390000D02*
D03*
X80000Y110000D02*
D03*
X100000Y150000D02*
D03*
X80000Y190000D02*
D03*
Y270000D02*
D03*
X100000Y310000D02*
D03*
X80000Y430000D02*
D03*
X100000Y470000D02*
D03*
X140000Y70000D02*
D03*
X120000Y110000D02*
D03*
X140000Y150000D02*
D03*
X120000Y190000D02*
D03*
Y270000D02*
D03*
X140000Y390000D02*
D03*
X120000Y430000D02*
D03*
X140000Y470000D02*
D03*
X160000Y30000D02*
D03*
Y110000D02*
D03*
Y190000D02*
D03*
Y430000D02*
D03*
X180000Y470000D02*
D03*
X160000Y510000D02*
D03*
X200000Y110000D02*
D03*
X220000Y150000D02*
D03*
X200000Y190000D02*
D03*
X220000Y230000D02*
D03*
Y310000D02*
D03*
Y470000D02*
D03*
X240000Y110000D02*
D03*
X260000Y150000D02*
D03*
X240000Y190000D02*
D03*
Y350000D02*
D03*
X260000Y390000D02*
D03*
X280000Y30000D02*
D03*
Y110000D02*
D03*
Y190000D02*
D03*
X300000Y230000D02*
D03*
Y310000D02*
D03*
X280000Y430000D02*
D03*
X320000D02*
D03*
X380000Y310000D02*
D03*
X420000Y390000D02*
D03*
X480000Y30000D02*
D03*
Y190000D02*
D03*
X500000Y230000D02*
D03*
X520000Y110000D02*
D03*
Y350000D02*
D03*
X560000Y30000D02*
D03*
X580000Y470000D02*
D03*
X600000Y270000D02*
D03*
X620000Y470000D02*
D03*
X640000Y270000D02*
D03*
X660000Y390000D02*
D03*
X720000Y350000D02*
D03*
X760000Y270000D02*
D03*
Y350000D02*
D03*
X860000Y230000D02*
D03*
X840000Y270000D02*
D03*
Y350000D02*
D03*
X900000Y230000D02*
D03*
X880000Y270000D02*
D03*
X920000Y190000D02*
D03*
X940000Y230000D02*
D03*
X920000Y270000D02*
D03*
Y350000D02*
D03*
X940000Y390000D02*
D03*
Y470000D02*
D03*
X960000Y30000D02*
D03*
Y110000D02*
D03*
X980000Y150000D02*
D03*
X960000Y190000D02*
D03*
X980000Y230000D02*
D03*
X960000Y270000D02*
D03*
X980000Y390000D02*
D03*
X960000Y510000D02*
D03*
X1020000Y150000D02*
D03*
X1000000Y190000D02*
D03*
X1020000Y230000D02*
D03*
X1000000Y270000D02*
D03*
Y350000D02*
D03*
X1060000Y70000D02*
D03*
X1040000Y110000D02*
D03*
X1060000Y150000D02*
D03*
X1040000Y190000D02*
D03*
Y350000D02*
D03*
X1100000Y70000D02*
D03*
X1080000Y110000D02*
D03*
X1100000Y150000D02*
D03*
X1080000Y270000D02*
D03*
Y430000D02*
D03*
X1100000Y470000D02*
D03*
X1080000Y510000D02*
D03*
X1120000Y110000D02*
D03*
X1140000Y150000D02*
D03*
X1120000Y190000D02*
D03*
X1140000Y310000D02*
D03*
Y390000D02*
D03*
X1180000Y150000D02*
D03*
X1160000Y190000D02*
D03*
Y430000D02*
D03*
X559999Y351999D02*
D03*
X596000Y338000D02*
D03*
X559000Y319000D02*
D03*
X629000Y328000D02*
D03*
X528000Y437000D02*
D03*
X549000Y282000D02*
D03*
X717000Y296000D02*
D03*
X324000Y159000D02*
D03*
X342000Y109000D02*
D03*
X686000Y44000D02*
D03*
X675000Y63000D02*
D03*
X614000Y10000D02*
D03*
X724000Y9000D02*
D03*
X608000Y116000D02*
D03*
X1210000Y380000D02*
D03*
Y330000D02*
D03*
Y280000D02*
D03*
Y180000D02*
D03*
Y230000D02*
D03*
X10000Y180000D02*
D03*
Y380000D02*
D03*
Y280000D02*
D03*
Y230000D02*
D03*
Y330000D02*
D03*
X650000Y550000D02*
D03*
X687000Y522000D02*
D03*
X297000Y549000D02*
D03*
X924000D02*
D03*
X405000Y40750D02*
D03*
X795000Y160000D02*
D03*
X810000Y40000D02*
D03*
X848000Y35000D02*
D03*
X774000Y36000D02*
D03*
X700000Y150000D02*
D03*
M02*
