G04 Layer_Color=8388736*
%FSLAX44Y44*%
%MOMM*%
G71*
G01*
G75*
%ADD55R,1.1032X0.9032*%
%ADD56R,0.9032X1.1032*%
%ADD57R,1.1032X1.0032*%
%ADD58R,1.0532X0.8032*%
%ADD59R,0.8032X1.0532*%
%ADD60O,0.6032X1.1032*%
%ADD61C,1.7032*%
%ADD62O,0.6032X1.8032*%
%ADD63O,0.6032X2.8032*%
%ADD64O,1.8032X0.6032*%
%ADD65O,0.9632X2.4032*%
%ADD66O,2.4032X0.9632*%
%ADD67R,1.1000X2.8000*%
%ADD68O,0.7532X1.2032*%
%ADD69R,1.5032X3.6032*%
%ADD70R,1.2032X0.9032*%
%ADD71O,0.5100X1.3600*%
%ADD72O,0.5400X1.3400*%
%ADD73O,0.7000X0.4000*%
%ADD74O,0.4000X0.7000*%
%ADD75C,1.1000*%
%ADD76C,2.3032*%
%ADD77C,2.4032*%
%ADD78R,6.2032X6.2032*%
%ADD79C,1.5032*%
D55*
X775000Y138500D02*
D03*
Y151500D02*
D03*
X855000Y138500D02*
D03*
Y151500D02*
D03*
Y398500D02*
D03*
Y411500D02*
D03*
X775000Y398500D02*
D03*
Y411500D02*
D03*
X1185000Y213500D02*
D03*
Y226500D02*
D03*
X1035000Y281500D02*
D03*
Y268500D02*
D03*
X1185000Y326500D02*
D03*
Y313500D02*
D03*
Y288500D02*
D03*
Y301500D02*
D03*
Y276500D02*
D03*
Y263500D02*
D03*
X185000Y213500D02*
D03*
Y226500D02*
D03*
X35000Y281500D02*
D03*
Y268500D02*
D03*
X185000Y326500D02*
D03*
Y313500D02*
D03*
Y288500D02*
D03*
Y301500D02*
D03*
Y276500D02*
D03*
Y263500D02*
D03*
X525000Y272500D02*
D03*
Y285500D02*
D03*
Y237500D02*
D03*
Y250500D02*
D03*
X380000Y381500D02*
D03*
Y368500D02*
D03*
X300000Y381500D02*
D03*
Y368500D02*
D03*
X372000Y141500D02*
D03*
Y128500D02*
D03*
X352000Y141500D02*
D03*
Y128500D02*
D03*
X442000Y93500D02*
D03*
Y106500D02*
D03*
X456000Y93500D02*
D03*
Y106500D02*
D03*
D56*
X1078500Y355000D02*
D03*
X1091500D02*
D03*
X1053500D02*
D03*
X1066500D02*
D03*
X1116500D02*
D03*
X1103500D02*
D03*
X78500D02*
D03*
X91500D02*
D03*
X53500D02*
D03*
X66500D02*
D03*
X116500D02*
D03*
X103500D02*
D03*
X567500Y361000D02*
D03*
X580500D02*
D03*
X567500Y320000D02*
D03*
X580500D02*
D03*
X567500Y334000D02*
D03*
X580500D02*
D03*
X368500Y70000D02*
D03*
X355500D02*
D03*
X423500D02*
D03*
X410500D02*
D03*
D57*
X280000Y272500D02*
D03*
Y287500D02*
D03*
X945000Y272500D02*
D03*
Y287500D02*
D03*
D58*
X1185000Y338500D02*
D03*
Y351500D02*
D03*
X185000Y338500D02*
D03*
Y351500D02*
D03*
X1035000Y336500D02*
D03*
Y323500D02*
D03*
Y311500D02*
D03*
Y298500D02*
D03*
X1185000Y238500D02*
D03*
Y251500D02*
D03*
X35000Y336500D02*
D03*
Y323500D02*
D03*
Y311500D02*
D03*
Y298500D02*
D03*
X185000Y238500D02*
D03*
Y251500D02*
D03*
X525000Y220500D02*
D03*
Y207500D02*
D03*
Y177500D02*
D03*
Y190500D02*
D03*
X280000Y316500D02*
D03*
Y303500D02*
D03*
X945000Y316500D02*
D03*
Y303500D02*
D03*
X397000Y46500D02*
D03*
Y33500D02*
D03*
X262000Y368500D02*
D03*
Y381500D02*
D03*
X275000Y368500D02*
D03*
Y381500D02*
D03*
D59*
X580500Y347000D02*
D03*
X567500D02*
D03*
X746500Y497000D02*
D03*
X733500D02*
D03*
X746500Y510000D02*
D03*
X733500D02*
D03*
D60*
X354000Y324500D02*
D03*
X346000D02*
D03*
X338000D02*
D03*
X330000D02*
D03*
X354000Y307500D02*
D03*
X346000D02*
D03*
X338000D02*
D03*
X330000D02*
D03*
D61*
X980000Y265000D02*
D03*
Y295000D02*
D03*
X230000Y100000D02*
D03*
Y124000D02*
D03*
X327000Y266000D02*
D03*
X312000Y286000D02*
D03*
X357000Y266000D02*
D03*
X342000Y286000D02*
D03*
X624000Y385000D02*
D03*
X612000Y405000D02*
D03*
X600000Y385000D02*
D03*
X588000Y405000D02*
D03*
X576000Y385000D02*
D03*
X655000Y149000D02*
D03*
X700000Y230000D02*
D03*
Y254000D02*
D03*
X476000Y445000D02*
D03*
X698900Y484600D02*
D03*
Y510000D02*
D03*
Y535400D02*
D03*
X673500Y484600D02*
D03*
Y510000D02*
D03*
Y535400D02*
D03*
X648100Y484600D02*
D03*
Y510000D02*
D03*
Y535400D02*
D03*
X622700Y484600D02*
D03*
Y510000D02*
D03*
Y535400D02*
D03*
X597300Y484600D02*
D03*
Y510000D02*
D03*
Y535400D02*
D03*
X571900Y484600D02*
D03*
Y510000D02*
D03*
Y535400D02*
D03*
X546500Y484600D02*
D03*
Y510000D02*
D03*
Y535400D02*
D03*
X521100Y484600D02*
D03*
Y510000D02*
D03*
Y535400D02*
D03*
X698900Y24600D02*
D03*
Y50000D02*
D03*
Y75400D02*
D03*
X673500Y24600D02*
D03*
Y50000D02*
D03*
Y75400D02*
D03*
X648100Y24600D02*
D03*
Y50000D02*
D03*
Y75400D02*
D03*
X622700Y24600D02*
D03*
Y50000D02*
D03*
Y75400D02*
D03*
X597300Y24600D02*
D03*
Y50000D02*
D03*
Y75400D02*
D03*
X571900Y24600D02*
D03*
Y50000D02*
D03*
Y75400D02*
D03*
X546500Y24600D02*
D03*
Y50000D02*
D03*
Y75400D02*
D03*
X521100Y24600D02*
D03*
Y50000D02*
D03*
Y75400D02*
D03*
D62*
X1066000Y335250D02*
D03*
X1074000D02*
D03*
X1082000D02*
D03*
X1090000D02*
D03*
X1098000D02*
D03*
X1114000D02*
D03*
X1122000D02*
D03*
X1130000D02*
D03*
X1138000D02*
D03*
X1146000D02*
D03*
X1154000D02*
D03*
Y224750D02*
D03*
X1146000D02*
D03*
X1138000D02*
D03*
X1130000D02*
D03*
X1122000D02*
D03*
X1114000D02*
D03*
X1106000D02*
D03*
X1098000D02*
D03*
X1090000D02*
D03*
X1082000D02*
D03*
X1074000D02*
D03*
X1066000D02*
D03*
X66000Y335250D02*
D03*
X74000D02*
D03*
X82000D02*
D03*
X90000D02*
D03*
X98000D02*
D03*
X114000D02*
D03*
X122000D02*
D03*
X130000D02*
D03*
X138000D02*
D03*
X146000D02*
D03*
X154000D02*
D03*
Y224750D02*
D03*
X146000D02*
D03*
X138000D02*
D03*
X130000D02*
D03*
X122000D02*
D03*
X114000D02*
D03*
X106000D02*
D03*
X98000D02*
D03*
X90000D02*
D03*
X82000D02*
D03*
X74000D02*
D03*
X66000D02*
D03*
D63*
X1106000Y330250D02*
D03*
X106000D02*
D03*
D64*
X1165250Y324000D02*
D03*
Y316000D02*
D03*
Y308000D02*
D03*
Y300000D02*
D03*
Y292000D02*
D03*
Y284000D02*
D03*
Y276000D02*
D03*
Y268000D02*
D03*
Y260000D02*
D03*
Y252000D02*
D03*
Y244000D02*
D03*
Y236000D02*
D03*
X1054750D02*
D03*
Y244000D02*
D03*
Y252000D02*
D03*
Y260000D02*
D03*
Y268000D02*
D03*
Y276000D02*
D03*
Y284000D02*
D03*
Y292000D02*
D03*
Y300000D02*
D03*
Y308000D02*
D03*
Y316000D02*
D03*
Y324000D02*
D03*
X165250D02*
D03*
Y316000D02*
D03*
Y308000D02*
D03*
Y300000D02*
D03*
Y292000D02*
D03*
Y284000D02*
D03*
Y276000D02*
D03*
Y268000D02*
D03*
Y260000D02*
D03*
Y252000D02*
D03*
Y244000D02*
D03*
Y236000D02*
D03*
X54750D02*
D03*
Y244000D02*
D03*
Y252000D02*
D03*
Y260000D02*
D03*
Y268000D02*
D03*
Y276000D02*
D03*
Y284000D02*
D03*
Y292000D02*
D03*
Y300000D02*
D03*
Y308000D02*
D03*
Y316000D02*
D03*
Y324000D02*
D03*
D65*
X571900Y289000D02*
D03*
X584600D02*
D03*
X597300D02*
D03*
X610000D02*
D03*
X622700D02*
D03*
X635400D02*
D03*
X648100D02*
D03*
Y179000D02*
D03*
X635400D02*
D03*
X622700D02*
D03*
X610000D02*
D03*
X597300D02*
D03*
X584600D02*
D03*
X571900D02*
D03*
D66*
X665000Y272100D02*
D03*
Y259400D02*
D03*
Y246700D02*
D03*
Y234000D02*
D03*
Y221300D02*
D03*
Y208600D02*
D03*
Y195900D02*
D03*
X555000D02*
D03*
Y208600D02*
D03*
Y221300D02*
D03*
Y234000D02*
D03*
Y246700D02*
D03*
Y259400D02*
D03*
Y272100D02*
D03*
D67*
X406000Y138000D02*
D03*
X428000D02*
D03*
D68*
X352500Y86750D02*
D03*
X362000D02*
D03*
X371500D02*
D03*
Y113250D02*
D03*
X352500D02*
D03*
X407500Y86750D02*
D03*
X417000D02*
D03*
X426500D02*
D03*
Y113250D02*
D03*
X407500D02*
D03*
D69*
X416000Y40000D02*
D03*
X458000D02*
D03*
D70*
X376000Y23000D02*
D03*
Y57000D02*
D03*
X352000D02*
D03*
Y23000D02*
D03*
D71*
X872251Y114746D02*
D03*
X878751D02*
D03*
X885251D02*
D03*
X891751D02*
D03*
X898251D02*
D03*
X904751D02*
D03*
X911251D02*
D03*
X917751D02*
D03*
X872251Y175246D02*
D03*
X878751D02*
D03*
X885251D02*
D03*
X891751D02*
D03*
X898251D02*
D03*
X904751D02*
D03*
X911251D02*
D03*
X917751D02*
D03*
X837750Y175250D02*
D03*
X831250D02*
D03*
X824750D02*
D03*
X818250D02*
D03*
X811750D02*
D03*
X805250D02*
D03*
X798750D02*
D03*
X792250D02*
D03*
X837750Y114750D02*
D03*
X831250D02*
D03*
X824750D02*
D03*
X818250D02*
D03*
X811750D02*
D03*
X805250D02*
D03*
X798750D02*
D03*
X792250D02*
D03*
X872250Y374750D02*
D03*
X878750D02*
D03*
X885250D02*
D03*
X891750D02*
D03*
X898250D02*
D03*
X904750D02*
D03*
X911250D02*
D03*
X917750D02*
D03*
X872250Y435250D02*
D03*
X878750D02*
D03*
X885250D02*
D03*
X891750D02*
D03*
X898250D02*
D03*
X904750D02*
D03*
X911250D02*
D03*
X917750D02*
D03*
X837750D02*
D03*
X831250D02*
D03*
X824750D02*
D03*
X818250D02*
D03*
X811750D02*
D03*
X805250D02*
D03*
X798750D02*
D03*
X792250D02*
D03*
X837750Y374750D02*
D03*
X831250D02*
D03*
X824750D02*
D03*
X818250D02*
D03*
X811750D02*
D03*
X805250D02*
D03*
X798750D02*
D03*
X792250D02*
D03*
D72*
X320500Y345000D02*
D03*
X327000D02*
D03*
X333500D02*
D03*
X340000D02*
D03*
X346500D02*
D03*
X353000D02*
D03*
X359500D02*
D03*
X320500Y405000D02*
D03*
X327000D02*
D03*
X333500D02*
D03*
X340000D02*
D03*
X346500D02*
D03*
X353000D02*
D03*
X359500D02*
D03*
X439500D02*
D03*
X433000D02*
D03*
X426500D02*
D03*
X420000D02*
D03*
X413500D02*
D03*
X407000D02*
D03*
X400500D02*
D03*
X439500Y345000D02*
D03*
X433000D02*
D03*
X426500D02*
D03*
X420000D02*
D03*
X413500D02*
D03*
X407000D02*
D03*
X400500D02*
D03*
D73*
X623250Y345000D02*
D03*
Y340000D02*
D03*
Y335000D02*
D03*
X604750D02*
D03*
Y340000D02*
D03*
Y345000D02*
D03*
D74*
X621500Y328250D02*
D03*
X616500D02*
D03*
X611500D02*
D03*
X606500D02*
D03*
Y351750D02*
D03*
X611500D02*
D03*
X616500D02*
D03*
X621500D02*
D03*
D75*
X486360Y526410D02*
D03*
X301640D02*
D03*
Y74310D02*
D03*
X486360D02*
D03*
X918160D02*
D03*
X733440D02*
D03*
Y526410D02*
D03*
X918160D02*
D03*
D76*
X110000Y170000D02*
D03*
Y390000D02*
D03*
X1110000D02*
D03*
Y170000D02*
D03*
D77*
X525000Y375000D02*
D03*
X710000Y175000D02*
D03*
D78*
X1009950Y521290D02*
D03*
X209850D02*
D03*
X1009950Y38710D02*
D03*
X209850D02*
D03*
D79*
X455000Y209000D02*
D03*
Y229000D02*
D03*
X435000Y209000D02*
D03*
Y229000D02*
D03*
X415000Y209000D02*
D03*
Y229000D02*
D03*
X395000Y209000D02*
D03*
Y229000D02*
D03*
X375000Y209000D02*
D03*
Y229000D02*
D03*
X355000Y209000D02*
D03*
Y229000D02*
D03*
X335000Y209000D02*
D03*
Y229000D02*
D03*
M02*
