G04 Layer_Physical_Order=2*
G04 Layer_Color=36540*
%FSLAX44Y44*%
%MOMM*%
G71*
G01*
G75*
%ADD16C,1.5000*%
%ADD30C,0.2000*%
%ADD31C,0.6000*%
%ADD34C,1.0000*%
%ADD42C,0.5000*%
%ADD43C,2.0000*%
%ADD44C,1.5000*%
G36*
X977950Y489290D02*
X1041950D01*
Y515437D01*
X1043798Y516202D01*
X1180000Y380000D01*
X1180000Y334446D01*
X1179723Y334338D01*
X1178000Y334113D01*
X1177244Y335244D01*
X1175756Y336239D01*
X1174000Y336588D01*
X1172244Y336239D01*
X1170756Y335244D01*
X1169761Y333756D01*
X1169412Y332000D01*
X1169761Y330244D01*
X1170756Y328756D01*
X1172244Y327761D01*
X1174000Y327412D01*
X1175756Y327761D01*
X1177244Y328756D01*
X1178000Y329887D01*
X1179723Y329663D01*
X1180000Y329554D01*
X1180000Y297630D01*
X1178000Y296389D01*
X1177000Y296588D01*
X1175244Y296239D01*
X1173756Y295244D01*
X1172761Y293756D01*
X1172412Y292000D01*
X1172761Y290244D01*
X1173756Y288756D01*
X1175244Y287761D01*
X1177000Y287412D01*
X1178000Y287611D01*
X1180000Y286370D01*
Y265145D01*
X1178000Y264076D01*
X1177756Y264239D01*
X1176000Y264588D01*
X1174244Y264239D01*
X1172756Y263244D01*
X1171761Y261756D01*
X1171412Y260000D01*
X1171761Y258244D01*
X1172756Y256756D01*
X1174244Y255761D01*
X1176000Y255412D01*
X1177756Y255761D01*
X1178000Y255924D01*
X1180000Y254855D01*
X1180000Y180000D01*
X1043798Y43798D01*
X1041950Y44563D01*
Y70710D01*
X977950D01*
Y40000D01*
X814588Y40000D01*
X814588Y40000D01*
X814239Y41756D01*
X813244Y43244D01*
X811756Y44239D01*
X810000Y44588D01*
X808244Y44239D01*
X806756Y43244D01*
X805761Y41756D01*
X805412Y40000D01*
X805412Y40000D01*
X776113D01*
X775756Y40239D01*
X774000Y40588D01*
X772244Y40239D01*
X771887Y40000D01*
X704602D01*
X704406Y40367D01*
X704080Y42000D01*
X705675Y43225D01*
X707198Y45209D01*
X708156Y47520D01*
X708482Y50000D01*
X708156Y52480D01*
X707198Y54791D01*
X705675Y56775D01*
X703691Y58298D01*
X701380Y59255D01*
X698900Y59582D01*
X696420Y59255D01*
X694109Y58298D01*
X692124Y56775D01*
X690602Y54791D01*
X689644Y52480D01*
X689318Y50000D01*
X689376Y49562D01*
X688486Y48835D01*
X687527Y48285D01*
X686000Y48588D01*
X684884Y48366D01*
X683390Y49408D01*
X683063Y49855D01*
X683082Y50000D01*
X682756Y52480D01*
X681798Y54791D01*
X680275Y56775D01*
X678930Y57808D01*
X678440Y59201D01*
X678625Y60325D01*
X679239Y61244D01*
X679588Y63000D01*
X679239Y64756D01*
X678939Y65205D01*
X678468Y66583D01*
X679348Y67913D01*
X680275Y68625D01*
X681798Y70609D01*
X682756Y72920D01*
X683082Y75400D01*
X682756Y77880D01*
X681798Y80191D01*
X680275Y82176D01*
X678291Y83698D01*
X675980Y84656D01*
X673500Y84982D01*
X671020Y84656D01*
X668709Y83698D01*
X666724Y82176D01*
X665202Y80191D01*
X664245Y77880D01*
X663918Y75400D01*
X664245Y72920D01*
X665202Y70609D01*
X666724Y68625D01*
X668709Y67102D01*
X669660Y66708D01*
X670758Y64762D01*
X670655Y64222D01*
X670412Y63000D01*
X670761Y61244D01*
X670764Y61239D01*
X670800Y60961D01*
X669974Y58822D01*
X668709Y58298D01*
X666724Y56775D01*
X665202Y54791D01*
X664245Y52480D01*
X663918Y50000D01*
X664245Y47520D01*
X665202Y45209D01*
X666724Y43225D01*
X668320Y42000D01*
X667995Y40367D01*
X667798Y40000D01*
X653802D01*
X653605Y40367D01*
X653280Y42000D01*
X654875Y43225D01*
X656398Y45209D01*
X657355Y47520D01*
X657682Y50000D01*
X657355Y52480D01*
X656398Y54791D01*
X654875Y56775D01*
X652891Y58298D01*
X650580Y59255D01*
X648100Y59582D01*
X645620Y59255D01*
X643309Y58298D01*
X641324Y56775D01*
X639802Y54791D01*
X638844Y52480D01*
X638518Y50000D01*
X638844Y47520D01*
X639802Y45209D01*
X641324Y43225D01*
X642920Y42000D01*
X642595Y40367D01*
X642398Y40000D01*
X628402D01*
X628205Y40367D01*
X627880Y42000D01*
X629475Y43225D01*
X630998Y45209D01*
X631955Y47520D01*
X632282Y50000D01*
X631955Y52480D01*
X630998Y54791D01*
X629475Y56775D01*
X627491Y58298D01*
X625180Y59255D01*
X622700Y59582D01*
X620220Y59255D01*
X617909Y58298D01*
X615924Y56775D01*
X614402Y54791D01*
X613445Y52480D01*
X613118Y50000D01*
X613445Y47520D01*
X614402Y45209D01*
X615924Y43225D01*
X617520Y42000D01*
X617195Y40367D01*
X616998Y40000D01*
X603002D01*
X602805Y40367D01*
X602480Y42000D01*
X604075Y43225D01*
X605598Y45209D01*
X606555Y47520D01*
X606882Y50000D01*
X606555Y52480D01*
X605598Y54791D01*
X604075Y56775D01*
X602091Y58298D01*
X599780Y59255D01*
X597300Y59582D01*
X594820Y59255D01*
X592509Y58298D01*
X590524Y56775D01*
X589002Y54791D01*
X588045Y52480D01*
X587718Y50000D01*
X588045Y47520D01*
X589002Y45209D01*
X590524Y43225D01*
X592120Y42000D01*
X591795Y40367D01*
X591598Y40000D01*
X577602D01*
X577406Y40367D01*
X577080Y42000D01*
X578675Y43225D01*
X580198Y45209D01*
X581156Y47520D01*
X581482Y50000D01*
X581156Y52480D01*
X580198Y54791D01*
X578675Y56775D01*
X576691Y58298D01*
X574380Y59255D01*
X571900Y59582D01*
X569420Y59255D01*
X567109Y58298D01*
X565125Y56775D01*
X563602Y54791D01*
X562645Y52480D01*
X562318Y50000D01*
X562645Y47520D01*
X563602Y45209D01*
X565125Y43225D01*
X566720Y42000D01*
X566395Y40367D01*
X566198Y40000D01*
X552202D01*
X552006Y40367D01*
X551680Y42000D01*
X553275Y43225D01*
X554798Y45209D01*
X555756Y47520D01*
X556082Y50000D01*
X555756Y52480D01*
X554798Y54791D01*
X553275Y56775D01*
X551291Y58298D01*
X548980Y59255D01*
X546500Y59582D01*
X544020Y59255D01*
X541709Y58298D01*
X539725Y56775D01*
X538202Y54791D01*
X537244Y52480D01*
X536918Y50000D01*
X537244Y47520D01*
X538202Y45209D01*
X539725Y43225D01*
X541320Y42000D01*
X540994Y40367D01*
X540798Y40000D01*
X526802D01*
X526605Y40367D01*
X526280Y42000D01*
X527875Y43225D01*
X529398Y45209D01*
X530355Y47520D01*
X530550Y49000D01*
X521100D01*
X511650D01*
X511844Y47520D01*
X512802Y45209D01*
X514324Y43225D01*
X515920Y42000D01*
X515594Y40367D01*
X515398Y40000D01*
X451145D01*
X450076Y42000D01*
X450239Y42244D01*
X450588Y44000D01*
X450239Y45756D01*
X449244Y47244D01*
X447756Y48239D01*
X446000Y48588D01*
X444244Y48239D01*
X442756Y47244D01*
X441761Y45756D01*
X441412Y44000D01*
X441761Y42244D01*
X441924Y42000D01*
X440855Y40000D01*
X410204D01*
X409588Y40750D01*
X409239Y42506D01*
X408244Y43994D01*
X406756Y44989D01*
X405000Y45338D01*
X403244Y44989D01*
X401756Y43994D01*
X400761Y42506D01*
X400412Y40750D01*
X399796Y40000D01*
X241850Y40000D01*
Y70710D01*
X177850D01*
Y44763D01*
X176002Y43998D01*
X40000Y180000D01*
Y185412D01*
X41756Y185761D01*
X43244Y186756D01*
X44239Y188244D01*
X44588Y190000D01*
X44239Y191756D01*
X43244Y193244D01*
X41756Y194239D01*
X40000Y194588D01*
X40000Y286855D01*
X42000Y287924D01*
X42244Y287761D01*
X44000Y287412D01*
X45756Y287761D01*
X47244Y288756D01*
X48239Y290244D01*
X48588Y292000D01*
X48239Y293756D01*
X47244Y295244D01*
X45756Y296239D01*
X44000Y296588D01*
X42244Y296239D01*
X42000Y296076D01*
X40000Y297145D01*
Y318855D01*
X42000Y319924D01*
X42244Y319761D01*
X44000Y319412D01*
X45756Y319761D01*
X47244Y320756D01*
X48239Y322244D01*
X48588Y324000D01*
X48239Y325756D01*
X47244Y327244D01*
X45756Y328239D01*
X44000Y328588D01*
X42244Y328239D01*
X42000Y328076D01*
X40000Y329145D01*
Y345412D01*
X41756Y345761D01*
X43244Y346756D01*
X44239Y348244D01*
X44588Y350000D01*
X44239Y351756D01*
X43244Y353244D01*
X41756Y354239D01*
X40000Y354588D01*
Y380000D01*
X176002Y516002D01*
X177850Y515237D01*
Y489290D01*
X241850D01*
Y520000D01*
X298614D01*
X299792Y519512D01*
X301640Y519269D01*
X303488Y519512D01*
X304666Y520000D01*
X322592D01*
X322756Y519756D01*
X324244Y518761D01*
X326000Y518412D01*
X327756Y518761D01*
X329244Y519756D01*
X329866D01*
X331354Y518761D01*
X333110Y518412D01*
X334866Y518761D01*
X336354Y519756D01*
X336518Y520000D01*
X349887D01*
X350244Y519761D01*
X352000Y519412D01*
X353470Y519704D01*
X353760Y518243D01*
X354755Y516755D01*
X356244Y515760D01*
X357999Y515411D01*
X359755Y515760D01*
X361244Y516755D01*
X362238Y518243D01*
X362587Y519999D01*
X362588Y520000D01*
X389073D01*
X390441Y518722D01*
X390674Y517551D01*
X391337Y516559D01*
X394559Y513337D01*
X394559Y513337D01*
X395551Y512674D01*
X396722Y512441D01*
X396722Y512441D01*
X401278D01*
X401278Y512441D01*
X402449Y512674D01*
X403441Y513337D01*
X406644Y516540D01*
X407756Y516761D01*
X407934Y516880D01*
X409501Y517632D01*
X411065Y516880D01*
X411244Y516760D01*
X411754Y516659D01*
X412413Y514488D01*
X394837Y496913D01*
X394174Y495920D01*
X393941Y494750D01*
X393941Y494750D01*
Y492305D01*
X393118Y491790D01*
X391941Y491447D01*
X390756Y492239D01*
X389000Y492588D01*
X387244Y492239D01*
X385756Y491244D01*
X384869Y489917D01*
X383950Y489688D01*
X382687Y489581D01*
X382244Y490244D01*
X380756Y491239D01*
X379000Y491588D01*
X377244Y491239D01*
X375863Y490316D01*
X375244Y491243D01*
X373755Y492238D01*
X371999Y492587D01*
X370243Y492238D01*
X368755Y491243D01*
X367244Y492244D01*
X365756Y493239D01*
X364000Y493588D01*
X362244Y493239D01*
X360756Y492244D01*
X360135Y491316D01*
X358755Y492238D01*
X356999Y492587D01*
X355243Y492238D01*
X353755Y491243D01*
X351626Y491657D01*
X350756Y492239D01*
X349000Y492588D01*
X347244Y492239D01*
X345756Y491244D01*
X345392Y490700D01*
X344665Y489777D01*
X342829Y490190D01*
X342756Y490239D01*
X341000Y490588D01*
X339244Y490239D01*
X337756Y489244D01*
X336761Y487756D01*
X336412Y486000D01*
X336761Y484244D01*
X337756Y482756D01*
X339244Y481761D01*
X341000Y481412D01*
X342756Y481761D01*
X344244Y482756D01*
X344608Y483300D01*
X345335Y484222D01*
X347171Y483810D01*
X347244Y483761D01*
X349000Y483412D01*
X349219Y483455D01*
X353337Y479337D01*
X353337Y479337D01*
X354329Y478674D01*
X355500Y478441D01*
X382500D01*
X382500Y478441D01*
X383671Y478674D01*
X384663Y479337D01*
X388781Y483455D01*
X389000Y483412D01*
X390756Y483761D01*
X391941Y484553D01*
X393118Y484210D01*
X393941Y483695D01*
Y468241D01*
X392000Y466588D01*
X390244Y466239D01*
X388756Y465244D01*
X387761Y463756D01*
X387412Y462000D01*
X387761Y460244D01*
X388756Y458756D01*
X390244Y457761D01*
X392000Y457412D01*
X392441Y457500D01*
X394441Y455997D01*
Y440767D01*
X388219Y434545D01*
X388000Y434588D01*
X386244Y434239D01*
X384756Y433244D01*
X383761Y431756D01*
X383412Y430000D01*
X383761Y428244D01*
X384683Y426864D01*
X383755Y426244D01*
X382760Y424755D01*
X382411Y422999D01*
X382760Y421243D01*
X383755Y419755D01*
X385243Y418760D01*
X386999Y418411D01*
X388755Y418760D01*
X390243Y419755D01*
X390424Y420025D01*
X391170Y420173D01*
X392162Y420836D01*
X403663Y432337D01*
X403663Y432337D01*
X404326Y433330D01*
X404559Y434500D01*
Y448997D01*
X406559Y450500D01*
X407000Y450412D01*
X408756Y450761D01*
X410244Y451756D01*
X411239Y453244D01*
X411480Y454458D01*
X413520D01*
X413761Y453244D01*
X414756Y451756D01*
X416244Y450761D01*
X417704Y450471D01*
X417412Y449000D01*
X417685Y447628D01*
X415973Y446595D01*
X415744Y446744D01*
X415613Y446832D01*
X414256Y447739D01*
X412500Y448088D01*
X410744Y447739D01*
X409256Y446744D01*
X408261Y445256D01*
X407912Y443500D01*
X408261Y441744D01*
X409256Y440256D01*
X410744Y439261D01*
X412500Y438912D01*
X414256Y439261D01*
X415744Y440256D01*
X416739Y441744D01*
X417088Y443500D01*
X416815Y444872D01*
X418527Y445905D01*
X418756Y445756D01*
X418887Y445668D01*
X420244Y444761D01*
X422000Y444412D01*
X423756Y444761D01*
X424625Y445342D01*
X426755Y445755D01*
X428243Y444760D01*
X428513Y444706D01*
X430111Y444112D01*
X430708Y442513D01*
X430761Y442244D01*
X431756Y440756D01*
X433244Y439761D01*
X435000Y439412D01*
X435941Y439599D01*
X437941Y438331D01*
Y434368D01*
X437756Y434244D01*
X436761Y432756D01*
X436412Y431000D01*
X436761Y429244D01*
X437756Y427756D01*
X438130Y427506D01*
X438481Y425029D01*
X435511Y422059D01*
X430368D01*
X430244Y422244D01*
X428756Y423239D01*
X427000Y423588D01*
X425244Y423239D01*
X423756Y422244D01*
X422761Y420756D01*
X422412Y419000D01*
X422761Y417244D01*
X423756Y415756D01*
X425244Y414761D01*
X427000Y414412D01*
X428756Y414761D01*
X430244Y415756D01*
X430368Y415941D01*
X436778D01*
X436778Y415941D01*
X437949Y416174D01*
X438941Y416837D01*
X448663Y426559D01*
X448663Y426559D01*
X449326Y427551D01*
X449559Y428722D01*
Y476798D01*
X452663Y479902D01*
X452663Y479902D01*
X453326Y480894D01*
X453559Y482065D01*
Y520000D01*
X469790D01*
X477065Y512725D01*
X478719Y511620D01*
X480670Y511232D01*
X502430D01*
X504381Y511620D01*
X506035Y512725D01*
X510450Y517140D01*
X512267Y516956D01*
X513097Y515176D01*
X512802Y514791D01*
X511844Y512480D01*
X511518Y510000D01*
X511844Y507520D01*
X512802Y505209D01*
X514324Y503225D01*
X516309Y501702D01*
X518620Y500745D01*
X521100Y500418D01*
X523580Y500745D01*
X525891Y501702D01*
X527875Y503225D01*
X529398Y505209D01*
X530355Y507520D01*
X530682Y510000D01*
X530355Y512480D01*
X529398Y514791D01*
X528929Y515402D01*
X529916Y517402D01*
X537684D01*
X538671Y515402D01*
X538202Y514791D01*
X537244Y512480D01*
X536918Y510000D01*
X537244Y507520D01*
X538202Y505209D01*
X539725Y503225D01*
X541709Y501702D01*
X544020Y500745D01*
X546500Y500418D01*
X548980Y500745D01*
X551291Y501702D01*
X553275Y503225D01*
X554798Y505209D01*
X555756Y507520D01*
X556082Y510000D01*
X555756Y512480D01*
X554798Y514791D01*
X554329Y515402D01*
X555316Y517402D01*
X563084D01*
X564071Y515402D01*
X563602Y514791D01*
X562645Y512480D01*
X562318Y510000D01*
X562645Y507520D01*
X563602Y505209D01*
X565125Y503225D01*
X567109Y501702D01*
X569420Y500745D01*
X571900Y500418D01*
X574380Y500745D01*
X576691Y501702D01*
X578675Y503225D01*
X580198Y505209D01*
X581156Y507520D01*
X581482Y510000D01*
X581156Y512480D01*
X580198Y514791D01*
X579729Y515402D01*
X580716Y517402D01*
X588484D01*
X589471Y515402D01*
X589002Y514791D01*
X588045Y512480D01*
X587718Y510000D01*
X588045Y507520D01*
X589002Y505209D01*
X590524Y503225D01*
X592509Y501702D01*
X594820Y500745D01*
X597300Y500418D01*
X599780Y500745D01*
X602091Y501702D01*
X604075Y503225D01*
X605598Y505209D01*
X606555Y507520D01*
X606882Y510000D01*
X606555Y512480D01*
X605598Y514791D01*
X605129Y515402D01*
X606116Y517402D01*
X613884D01*
X614871Y515402D01*
X614402Y514791D01*
X613445Y512480D01*
X613118Y510000D01*
X613445Y507520D01*
X614402Y505209D01*
X615924Y503225D01*
X617909Y501702D01*
X620220Y500745D01*
X622700Y500418D01*
X625180Y500745D01*
X627491Y501702D01*
X629475Y503225D01*
X630998Y505209D01*
X631955Y507520D01*
X632282Y510000D01*
X631955Y512480D01*
X630998Y514791D01*
X630529Y515402D01*
X631516Y517402D01*
X639284D01*
X640271Y515402D01*
X639802Y514791D01*
X638844Y512480D01*
X638518Y510000D01*
X638844Y507520D01*
X639802Y505209D01*
X641324Y503225D01*
X643309Y501702D01*
X645620Y500745D01*
X648100Y500418D01*
X650580Y500745D01*
X652891Y501702D01*
X654875Y503225D01*
X656398Y505209D01*
X657355Y507520D01*
X657682Y510000D01*
X657355Y512480D01*
X656398Y514791D01*
X655929Y515402D01*
X656916Y517402D01*
X658888D01*
X664194Y512096D01*
X663918Y510000D01*
X664245Y507520D01*
X665202Y505209D01*
X666724Y503225D01*
X668709Y501702D01*
X671020Y500745D01*
X673500Y500418D01*
X675980Y500745D01*
X678291Y501702D01*
X680275Y503225D01*
X681798Y505209D01*
X682756Y507520D01*
X683082Y510000D01*
X682756Y512480D01*
X681798Y514791D01*
X680275Y516776D01*
X678680Y518000D01*
X679006Y519633D01*
X679202Y520000D01*
X682924D01*
X683756Y518756D01*
X685244Y517761D01*
X687000Y517412D01*
X688756Y517761D01*
X690244Y518756D01*
X691076Y520000D01*
X693198D01*
X693394Y519633D01*
X693720Y518000D01*
X692124Y516776D01*
X690602Y514791D01*
X689644Y512480D01*
X689450Y511000D01*
X708350D01*
X708156Y512480D01*
X707198Y514791D01*
X705675Y516776D01*
X704080Y518000D01*
X704406Y519633D01*
X704602Y520000D01*
X730414D01*
X731592Y519512D01*
X733440Y519269D01*
X735288Y519512D01*
X736466Y520000D01*
X915134D01*
X916312Y519512D01*
X918160Y519269D01*
X920008Y519512D01*
X921186Y520000D01*
X977950D01*
Y489290D01*
D02*
G37*
%LPC*%
G36*
X754000Y514588D02*
X752244Y514239D01*
X750756Y513244D01*
X749761Y511756D01*
X749412Y510000D01*
X749761Y508244D01*
X750756Y506756D01*
X752244Y505761D01*
X754000Y505412D01*
X755756Y505761D01*
X757244Y506756D01*
X758239Y508244D01*
X758588Y510000D01*
X758239Y511756D01*
X757244Y513244D01*
X755756Y514239D01*
X754000Y514588D01*
D02*
G37*
G36*
X960000Y514588D02*
X958244Y514239D01*
X956756Y513244D01*
X955761Y511756D01*
X955412Y510000D01*
X955761Y508244D01*
X956756Y506756D01*
X958244Y505761D01*
X960000Y505412D01*
X961756Y505761D01*
X963244Y506756D01*
X964239Y508244D01*
X964588Y510000D01*
X964239Y511756D01*
X963244Y513244D01*
X961756Y514239D01*
X960000Y514588D01*
D02*
G37*
G36*
X708350Y509000D02*
X699900D01*
Y500550D01*
X701380Y500745D01*
X703691Y501702D01*
X705675Y503225D01*
X707198Y505209D01*
X708156Y507520D01*
X708350Y509000D01*
D02*
G37*
G36*
X697900D02*
X689450D01*
X689644Y507520D01*
X690602Y505209D01*
X692124Y503225D01*
X694109Y501702D01*
X696420Y500745D01*
X697900Y500550D01*
Y509000D01*
D02*
G37*
G36*
X505000Y500588D02*
X503244Y500239D01*
X501756Y499244D01*
X500244Y498244D01*
X498756Y499239D01*
X497000Y499588D01*
X495244Y499239D01*
X493756Y498244D01*
X492761Y496756D01*
X492412Y495000D01*
X492761Y493244D01*
X493756Y491756D01*
X495244Y490761D01*
X497000Y490412D01*
X498756Y490761D01*
X500088Y491651D01*
X501756Y492756D01*
X503244Y491761D01*
X505000Y491412D01*
X506756Y491761D01*
X508244Y492756D01*
X509239Y494244D01*
X509588Y496000D01*
X509239Y497756D01*
X508244Y499244D01*
X506756Y500239D01*
X505000Y500588D01*
D02*
G37*
G36*
X787000Y492588D02*
X785244Y492239D01*
X783756Y491244D01*
X782761Y489756D01*
X782412Y488000D01*
X782761Y486244D01*
X783756Y484756D01*
X785244Y483761D01*
X787000Y483412D01*
X788756Y483761D01*
X790244Y484756D01*
X791239Y486244D01*
X791588Y488000D01*
X791239Y489756D01*
X790244Y491244D01*
X788756Y492239D01*
X787000Y492588D01*
D02*
G37*
G36*
X772800Y490588D02*
X771044Y490239D01*
X769556Y489244D01*
X768561Y487756D01*
X768212Y486000D01*
X768561Y484244D01*
X769556Y482756D01*
X771044Y481761D01*
X772800Y481412D01*
X774556Y481761D01*
X776044Y482756D01*
X777039Y484244D01*
X777388Y486000D01*
X777039Y487756D01*
X776044Y489244D01*
X774556Y490239D01*
X772800Y490588D01*
D02*
G37*
G36*
X698900Y494182D02*
X696420Y493856D01*
X694109Y492898D01*
X692124Y491376D01*
X690602Y489391D01*
X689644Y487080D01*
X689318Y484600D01*
X689644Y482120D01*
X690602Y479809D01*
X692124Y477825D01*
X694109Y476302D01*
X696420Y475345D01*
X698900Y475018D01*
X701380Y475345D01*
X703691Y476302D01*
X705675Y477825D01*
X707198Y479809D01*
X708156Y482120D01*
X708482Y484600D01*
X708156Y487080D01*
X707198Y489391D01*
X705675Y491376D01*
X703691Y492898D01*
X701380Y493856D01*
X698900Y494182D01*
D02*
G37*
G36*
X673500D02*
X671020Y493856D01*
X668709Y492898D01*
X666724Y491376D01*
X665202Y489391D01*
X664245Y487080D01*
X663918Y484600D01*
X664245Y482120D01*
X665202Y479809D01*
X666724Y477825D01*
X668709Y476302D01*
X671020Y475345D01*
X673500Y475018D01*
X675980Y475345D01*
X678291Y476302D01*
X680275Y477825D01*
X681798Y479809D01*
X682756Y482120D01*
X683082Y484600D01*
X682756Y487080D01*
X681798Y489391D01*
X680275Y491376D01*
X678291Y492898D01*
X675980Y493856D01*
X673500Y494182D01*
D02*
G37*
G36*
X648100D02*
X645620Y493856D01*
X643309Y492898D01*
X641324Y491376D01*
X639802Y489391D01*
X638844Y487080D01*
X638518Y484600D01*
X638844Y482120D01*
X639802Y479809D01*
X641324Y477825D01*
X643309Y476302D01*
X645620Y475345D01*
X648100Y475018D01*
X650580Y475345D01*
X652891Y476302D01*
X654875Y477825D01*
X656398Y479809D01*
X657355Y482120D01*
X657682Y484600D01*
X657355Y487080D01*
X656398Y489391D01*
X654875Y491376D01*
X652891Y492898D01*
X650580Y493856D01*
X648100Y494182D01*
D02*
G37*
G36*
X597300D02*
X594820Y493856D01*
X592509Y492898D01*
X590524Y491376D01*
X589002Y489391D01*
X588045Y487080D01*
X587718Y484600D01*
X588045Y482120D01*
X589002Y479809D01*
X590524Y477825D01*
X592509Y476302D01*
X594820Y475345D01*
X597300Y475018D01*
X599780Y475345D01*
X602091Y476302D01*
X604075Y477825D01*
X605598Y479809D01*
X606555Y482120D01*
X606882Y484600D01*
X606555Y487080D01*
X605598Y489391D01*
X604075Y491376D01*
X602091Y492898D01*
X599780Y493856D01*
X597300Y494182D01*
D02*
G37*
G36*
X571900D02*
X569420Y493856D01*
X567109Y492898D01*
X565125Y491376D01*
X563602Y489391D01*
X562645Y487080D01*
X562318Y484600D01*
X562645Y482120D01*
X563602Y479809D01*
X565125Y477825D01*
X567109Y476302D01*
X569420Y475345D01*
X571900Y475018D01*
X574380Y475345D01*
X576691Y476302D01*
X578675Y477825D01*
X580198Y479809D01*
X581156Y482120D01*
X581482Y484600D01*
X581156Y487080D01*
X580198Y489391D01*
X578675Y491376D01*
X576691Y492898D01*
X574380Y493856D01*
X571900Y494182D01*
D02*
G37*
G36*
X546500D02*
X544020Y493856D01*
X541709Y492898D01*
X539725Y491376D01*
X538202Y489391D01*
X537244Y487080D01*
X536918Y484600D01*
X537244Y482120D01*
X538202Y479809D01*
X539725Y477825D01*
X541709Y476302D01*
X544020Y475345D01*
X546500Y475018D01*
X548980Y475345D01*
X551291Y476302D01*
X553275Y477825D01*
X554798Y479809D01*
X555756Y482120D01*
X556082Y484600D01*
X555756Y487080D01*
X554798Y489391D01*
X553275Y491376D01*
X551291Y492898D01*
X548980Y493856D01*
X546500Y494182D01*
D02*
G37*
G36*
X521100D02*
X518620Y493856D01*
X516309Y492898D01*
X514324Y491376D01*
X512802Y489391D01*
X511844Y487080D01*
X511518Y484600D01*
X511844Y482120D01*
X512802Y479809D01*
X514324Y477825D01*
X516309Y476302D01*
X518620Y475345D01*
X521100Y475018D01*
X523580Y475345D01*
X525891Y476302D01*
X527875Y477825D01*
X529398Y479809D01*
X530355Y482120D01*
X530682Y484600D01*
X530355Y487080D01*
X529398Y489391D01*
X527875Y491376D01*
X525891Y492898D01*
X523580Y493856D01*
X521100Y494182D01*
D02*
G37*
G36*
X496000Y467588D02*
X494244Y467239D01*
X494065Y467119D01*
X492500Y466367D01*
X490935Y467119D01*
X490756Y467239D01*
X489000Y467588D01*
X487244Y467239D01*
X485756Y466244D01*
X485244D01*
X483756Y467239D01*
X482000Y467588D01*
X480244Y467239D01*
X478756Y466244D01*
X478174Y465374D01*
X477283Y464691D01*
X475666Y464473D01*
X474827Y464820D01*
X473000Y465060D01*
X471173Y464820D01*
X469470Y464114D01*
X468008Y462992D01*
X466885Y461530D01*
X466180Y459827D01*
X465940Y458000D01*
X466180Y456173D01*
X466885Y454470D01*
X468008Y453008D01*
X534060Y386955D01*
X532739Y385448D01*
X531556Y386355D01*
X528394Y387665D01*
X525000Y388112D01*
X521606Y387665D01*
X518444Y386355D01*
X515728Y384272D01*
X513644Y381556D01*
X512335Y378394D01*
X511888Y375000D01*
X512335Y371606D01*
X513644Y368444D01*
X515728Y365728D01*
X518444Y363644D01*
X521606Y362335D01*
X525000Y361888D01*
X528394Y362335D01*
X528611Y362425D01*
X529744Y360729D01*
X524507Y355492D01*
X523386Y354030D01*
X522479Y353755D01*
X521756Y354239D01*
X520000Y354588D01*
X518244Y354239D01*
X516756Y353244D01*
X515761Y351756D01*
X515412Y350000D01*
X515761Y348244D01*
X516756Y346756D01*
X518244Y345761D01*
X520000Y345412D01*
X520440Y345499D01*
X522440Y343996D01*
Y260500D01*
X522680Y258673D01*
X523386Y256970D01*
X524507Y255508D01*
X531007Y249008D01*
X532470Y247885D01*
X534173Y247180D01*
X536000Y246940D01*
X537827Y247180D01*
X539530Y247885D01*
X540992Y249008D01*
X542114Y250470D01*
X542820Y252173D01*
X543060Y254000D01*
X542820Y255827D01*
X542114Y257530D01*
X540992Y258992D01*
X536560Y263424D01*
Y347575D01*
X559992Y371007D01*
X561114Y372470D01*
X561820Y374173D01*
X562060Y376000D01*
X561820Y377827D01*
X561114Y379530D01*
X559992Y380992D01*
X484332Y456653D01*
X484741Y458649D01*
X486407Y459321D01*
X487244Y458761D01*
X489000Y458412D01*
X490756Y458761D01*
X490935Y458881D01*
X492500Y459633D01*
X494065Y458881D01*
X494244Y458761D01*
X496000Y458412D01*
X497756Y458761D01*
X499244Y459756D01*
X500239Y461244D01*
X500588Y463000D01*
X500239Y464756D01*
X499244Y466244D01*
X497756Y467239D01*
X496000Y467588D01*
D02*
G37*
G36*
X336500Y467088D02*
X334744Y466739D01*
X333256Y465744D01*
X331050Y466043D01*
X330756Y466239D01*
X329000Y466588D01*
X327244Y466239D01*
X325756Y465244D01*
X324761Y463756D01*
X324412Y462000D01*
X324761Y460244D01*
X325756Y458756D01*
X327244Y457761D01*
X329000Y457412D01*
X330756Y457761D01*
X332244Y458756D01*
X334450Y458457D01*
X334744Y458261D01*
X336500Y457912D01*
X338256Y458261D01*
X338549Y458457D01*
X340651Y458741D01*
X341488Y458265D01*
X342243Y457760D01*
X343999Y457411D01*
X345755Y457760D01*
X347244Y458755D01*
X348912Y457651D01*
X350244Y456761D01*
X352000Y456412D01*
X353756Y456761D01*
X355244Y457756D01*
X356239Y459244D01*
X356588Y461000D01*
X356239Y462756D01*
X355244Y464244D01*
X353756Y465239D01*
X352000Y465588D01*
X350244Y465239D01*
X348756Y464244D01*
X347088Y465348D01*
X345755Y466238D01*
X343999Y466587D01*
X342243Y466238D01*
X340755Y465243D01*
X339011Y466234D01*
X338256Y466739D01*
X336500Y467088D01*
D02*
G37*
G36*
X797998Y467689D02*
X796243Y467340D01*
X794754Y466345D01*
X794134Y465418D01*
X792754Y466340D01*
X790998Y466689D01*
X789243Y466340D01*
X787862Y465418D01*
X787243Y466345D01*
X785754Y467340D01*
X783998Y467689D01*
X782243Y467340D01*
X780754Y466345D01*
X779760Y464857D01*
X779469Y463396D01*
X778000Y463688D01*
X776244Y463339D01*
X775237Y464857D01*
X774243Y466345D01*
X772754Y467340D01*
X770999Y467689D01*
X769243Y467340D01*
X767754Y466345D01*
X765579Y466689D01*
X765056Y467039D01*
X763300Y467388D01*
X761544Y467039D01*
X760056Y466044D01*
X759061Y464556D01*
X758712Y462800D01*
X759061Y461044D01*
X760056Y459556D01*
X761544Y458561D01*
X763300Y458212D01*
X765056Y458561D01*
X766544Y459556D01*
X768720Y459212D01*
X769243Y458862D01*
X770999Y458513D01*
X772754Y458862D01*
X773761Y457344D01*
X774756Y455856D01*
X776244Y454861D01*
X778000Y454512D01*
X779756Y454861D01*
X781244Y455856D01*
X782239Y457344D01*
X782530Y458805D01*
X783998Y458513D01*
X785754Y458862D01*
X787134Y459784D01*
X787754Y458857D01*
X789243Y457862D01*
X790998Y457513D01*
X792754Y457862D01*
X794243Y458857D01*
X794863Y459784D01*
X796243Y458862D01*
X797998Y458513D01*
X799754Y458862D01*
X801243Y459857D01*
X802237Y461345D01*
X802587Y463101D01*
X802237Y464857D01*
X801243Y466345D01*
X799754Y467340D01*
X797998Y467689D01*
D02*
G37*
G36*
X940000Y474588D02*
X938244Y474239D01*
X936756Y473244D01*
X935761Y471756D01*
X935412Y470000D01*
X935761Y468244D01*
X936756Y466756D01*
X938244Y465761D01*
X940000Y465412D01*
X941756Y465761D01*
X943244Y466756D01*
X944239Y468244D01*
X944588Y470000D01*
X944239Y471756D01*
X943244Y473244D01*
X941756Y474239D01*
X940000Y474588D01*
D02*
G37*
G36*
X622700Y494182D02*
X620220Y493856D01*
X617909Y492898D01*
X615924Y491376D01*
X614402Y489391D01*
X613445Y487080D01*
X613118Y484600D01*
X613445Y482120D01*
X614402Y479809D01*
X615924Y477825D01*
X617909Y476302D01*
X618056Y476241D01*
X618164Y475098D01*
X618022Y474090D01*
X616756Y473244D01*
X615761Y471756D01*
X615412Y470000D01*
X615761Y468244D01*
X616756Y466756D01*
X618244Y465761D01*
X620000Y465412D01*
X621756Y465761D01*
X623244Y466756D01*
X624239Y468244D01*
X624588Y470000D01*
X624239Y471756D01*
X623350Y473086D01*
X623506Y473968D01*
X623944Y475182D01*
X625180Y475345D01*
X627491Y476302D01*
X629475Y477825D01*
X630998Y479809D01*
X631955Y482120D01*
X632282Y484600D01*
X631955Y487080D01*
X630998Y489391D01*
X629475Y491376D01*
X627491Y492898D01*
X625180Y493856D01*
X622700Y494182D01*
D02*
G37*
G36*
X580000Y474588D02*
X578244Y474239D01*
X576756Y473244D01*
X575761Y471756D01*
X575412Y470000D01*
X575761Y468244D01*
X576756Y466756D01*
X578244Y465761D01*
X580000Y465412D01*
X581756Y465761D01*
X583244Y466756D01*
X584239Y468244D01*
X584588Y470000D01*
X584239Y471756D01*
X583244Y473244D01*
X581756Y474239D01*
X580000Y474588D01*
D02*
G37*
G36*
X220000D02*
X218244Y474239D01*
X216756Y473244D01*
X215761Y471756D01*
X215412Y470000D01*
X215761Y468244D01*
X216756Y466756D01*
X218244Y465761D01*
X220000Y465412D01*
X221756Y465761D01*
X223244Y466756D01*
X224239Y468244D01*
X224588Y470000D01*
X224239Y471756D01*
X223244Y473244D01*
X221756Y474239D01*
X220000Y474588D01*
D02*
G37*
G36*
X180000D02*
X178244Y474239D01*
X176756Y473244D01*
X175761Y471756D01*
X175412Y470000D01*
X175761Y468244D01*
X176756Y466756D01*
X178244Y465761D01*
X180000Y465412D01*
X181756Y465761D01*
X183244Y466756D01*
X184239Y468244D01*
X184588Y470000D01*
X184239Y471756D01*
X183244Y473244D01*
X181756Y474239D01*
X180000Y474588D01*
D02*
G37*
G36*
X140000D02*
X138244Y474239D01*
X136756Y473244D01*
X135761Y471756D01*
X135412Y470000D01*
X135761Y468244D01*
X136756Y466756D01*
X138244Y465761D01*
X140000Y465412D01*
X141756Y465761D01*
X143244Y466756D01*
X144239Y468244D01*
X144588Y470000D01*
X144239Y471756D01*
X143244Y473244D01*
X141756Y474239D01*
X140000Y474588D01*
D02*
G37*
G36*
X873800Y468788D02*
X872044Y468439D01*
X870556Y467444D01*
X869561Y465956D01*
X869212Y464200D01*
X869561Y462444D01*
X870556Y460956D01*
X872044Y459961D01*
X873800Y459612D01*
X875556Y459961D01*
X877044Y460956D01*
X878039Y462444D01*
X878388Y464200D01*
X878039Y465956D01*
X877044Y467444D01*
X875556Y468439D01*
X873800Y468788D01*
D02*
G37*
G36*
X848000Y468588D02*
X846244Y468239D01*
X844756Y467244D01*
X843761Y465756D01*
X843412Y464000D01*
X843761Y462244D01*
X844756Y460756D01*
X846244Y459761D01*
X848000Y459412D01*
X849756Y459761D01*
X851244Y460756D01*
X852239Y462244D01*
X852588Y464000D01*
X852239Y465756D01*
X851244Y467244D01*
X849756Y468239D01*
X848000Y468588D01*
D02*
G37*
G36*
X824000D02*
X822244Y468239D01*
X820756Y467244D01*
X819761Y465756D01*
X819412Y464000D01*
X819761Y462244D01*
X820756Y460756D01*
X822244Y459761D01*
X824000Y459412D01*
X825756Y459761D01*
X827244Y460756D01*
X828239Y462244D01*
X828588Y464000D01*
X828239Y465756D01*
X827244Y467244D01*
X825756Y468239D01*
X824000Y468588D01*
D02*
G37*
G36*
X367000D02*
X365244Y468239D01*
X363756Y467244D01*
X362761Y465756D01*
X362412Y464000D01*
X362761Y462244D01*
X363756Y460756D01*
X365244Y459761D01*
X367000Y459412D01*
X368756Y459761D01*
X370244Y460756D01*
X371239Y462244D01*
X371588Y464000D01*
X371239Y465756D01*
X370244Y467244D01*
X368756Y468239D01*
X367000Y468588D01*
D02*
G37*
G36*
X748000Y467688D02*
X746244Y467339D01*
X744756Y466344D01*
X743761Y464856D01*
X743412Y463100D01*
X743761Y461344D01*
X744756Y459856D01*
X746244Y458861D01*
X747723Y458567D01*
X747412Y457000D01*
X747761Y455244D01*
X748756Y453756D01*
X750244Y452761D01*
X752000Y452412D01*
X753756Y452761D01*
X755244Y453756D01*
X756239Y455244D01*
X756588Y457000D01*
X756239Y458756D01*
X755244Y460244D01*
X753756Y461239D01*
X752277Y461533D01*
X752588Y463100D01*
X752239Y464856D01*
X751244Y466344D01*
X749756Y467339D01*
X748000Y467688D01*
D02*
G37*
G36*
X463000Y447588D02*
X461244Y447239D01*
X459756Y446244D01*
X458761Y444756D01*
X458412Y443000D01*
X458761Y441244D01*
X459756Y439756D01*
X461244Y438761D01*
X463000Y438412D01*
X464756Y438761D01*
X466244Y439756D01*
X467239Y441244D01*
X467588Y443000D01*
X467239Y444756D01*
X466244Y446244D01*
X464756Y447239D01*
X463000Y447588D01*
D02*
G37*
G36*
X528000Y441588D02*
X526244Y441239D01*
X524756Y440244D01*
X523761Y438756D01*
X523412Y437000D01*
X523761Y435244D01*
X524756Y433756D01*
X526244Y432761D01*
X528000Y432412D01*
X529756Y432761D01*
X531244Y433756D01*
X532239Y435244D01*
X532588Y437000D01*
X532239Y438756D01*
X531244Y440244D01*
X529756Y441239D01*
X528000Y441588D01*
D02*
G37*
G36*
X1080000Y434588D02*
X1078244Y434239D01*
X1076756Y433244D01*
X1075761Y431756D01*
X1075412Y430000D01*
X1075761Y428244D01*
X1076756Y426756D01*
X1078244Y425761D01*
X1080000Y425412D01*
X1081756Y425761D01*
X1083244Y426756D01*
X1084239Y428244D01*
X1084588Y430000D01*
X1084239Y431756D01*
X1083244Y433244D01*
X1081756Y434239D01*
X1080000Y434588D01*
D02*
G37*
G36*
X320000D02*
X318244Y434239D01*
X316756Y433244D01*
X315761Y431756D01*
X315412Y430000D01*
X315761Y428244D01*
X316756Y426756D01*
X318244Y425761D01*
X320000Y425412D01*
X321756Y425761D01*
X323244Y426756D01*
X324239Y428244D01*
X324588Y430000D01*
X324239Y431756D01*
X323244Y433244D01*
X321756Y434239D01*
X320000Y434588D01*
D02*
G37*
G36*
X280000D02*
X278244Y434239D01*
X276756Y433244D01*
X275761Y431756D01*
X275412Y430000D01*
X275761Y428244D01*
X276756Y426756D01*
X278244Y425761D01*
X280000Y425412D01*
X281756Y425761D01*
X283244Y426756D01*
X284239Y428244D01*
X284588Y430000D01*
X284239Y431756D01*
X283244Y433244D01*
X281756Y434239D01*
X280000Y434588D01*
D02*
G37*
G36*
X160000D02*
X158244Y434239D01*
X156756Y433244D01*
X155761Y431756D01*
X155412Y430000D01*
X155761Y428244D01*
X156756Y426756D01*
X158244Y425761D01*
X160000Y425412D01*
X161756Y425761D01*
X163244Y426756D01*
X164239Y428244D01*
X164588Y430000D01*
X164239Y431756D01*
X163244Y433244D01*
X161756Y434239D01*
X160000Y434588D01*
D02*
G37*
G36*
X120000D02*
X118244Y434239D01*
X116756Y433244D01*
X115761Y431756D01*
X115412Y430000D01*
X115761Y428244D01*
X116756Y426756D01*
X118244Y425761D01*
X120000Y425412D01*
X121756Y425761D01*
X123244Y426756D01*
X124239Y428244D01*
X124588Y430000D01*
X124239Y431756D01*
X123244Y433244D01*
X121756Y434239D01*
X120000Y434588D01*
D02*
G37*
G36*
X346500Y420338D02*
X344744Y419989D01*
X343256Y418994D01*
X342261Y417506D01*
X341912Y415750D01*
X342261Y413994D01*
X343256Y412506D01*
X344744Y411511D01*
X346500Y411162D01*
X348256Y411511D01*
X349744Y412506D01*
X350739Y413994D01*
X351088Y415750D01*
X350739Y417506D01*
X349744Y418994D01*
X348256Y419989D01*
X346500Y420338D01*
D02*
G37*
G36*
X327000D02*
X325244Y419989D01*
X323756Y418994D01*
X322761Y417506D01*
X322412Y415750D01*
X322761Y413994D01*
X323756Y412506D01*
X325244Y411511D01*
X327000Y411162D01*
X328756Y411511D01*
X330244Y412506D01*
X331239Y413994D01*
X331588Y415750D01*
X331239Y417506D01*
X330244Y418994D01*
X328756Y419989D01*
X327000Y420338D01*
D02*
G37*
G36*
X898000Y416588D02*
X896244Y416239D01*
X894756Y415244D01*
X893761Y413756D01*
X893412Y412000D01*
X893761Y410244D01*
X894756Y408756D01*
X896244Y407761D01*
X898000Y407412D01*
X899756Y407761D01*
X901244Y408756D01*
X902239Y410244D01*
X902588Y412000D01*
X902239Y413756D01*
X901244Y415244D01*
X899756Y416239D01*
X898000Y416588D01*
D02*
G37*
G36*
X657000Y414588D02*
X655244Y414239D01*
X653756Y413244D01*
X652761Y411756D01*
X652412Y410000D01*
X652761Y408244D01*
X653756Y406756D01*
X655244Y405761D01*
X657000Y405412D01*
X658756Y405761D01*
X660244Y406756D01*
X661239Y408244D01*
X661588Y410000D01*
X661239Y411756D01*
X660244Y413244D01*
X658756Y414239D01*
X657000Y414588D01*
D02*
G37*
G36*
X819000Y412588D02*
X817244Y412239D01*
X815756Y411244D01*
X814761Y409756D01*
X814412Y408000D01*
X814761Y406244D01*
X814989Y405903D01*
X813547Y404461D01*
X813506Y404489D01*
X811750Y404838D01*
X809994Y404489D01*
X808506Y403494D01*
X807511Y402006D01*
X807162Y400250D01*
X807511Y398494D01*
X808506Y397006D01*
X809994Y396011D01*
X811750Y395662D01*
X813506Y396011D01*
X814994Y397006D01*
X815989Y398494D01*
X816338Y400250D01*
X815989Y402006D01*
X815761Y402347D01*
X817203Y403788D01*
X817244Y403761D01*
X819000Y403412D01*
X820756Y403761D01*
X822244Y404756D01*
X823239Y406244D01*
X823588Y408000D01*
X823239Y409756D01*
X822244Y411244D01*
X820756Y412239D01*
X819000Y412588D01*
D02*
G37*
G36*
X904750Y407838D02*
X902994Y407489D01*
X901506Y406494D01*
X900511Y405006D01*
X900162Y403250D01*
X900511Y401494D01*
X901506Y400006D01*
X902994Y399011D01*
X904750Y398662D01*
X906506Y399011D01*
X907994Y400006D01*
X908989Y401494D01*
X909338Y403250D01*
X908989Y405006D01*
X907994Y406494D01*
X906506Y407489D01*
X904750Y407838D01*
D02*
G37*
G36*
X891750Y407338D02*
X889994Y406989D01*
X888506Y405994D01*
X887511Y404506D01*
X887162Y402750D01*
X887511Y400994D01*
X888506Y399506D01*
X889994Y398511D01*
X891750Y398162D01*
X893506Y398511D01*
X894994Y399506D01*
X895989Y400994D01*
X896338Y402750D01*
X895989Y404506D01*
X894994Y405994D01*
X893506Y406989D01*
X891750Y407338D01*
D02*
G37*
G36*
X866000Y402588D02*
X864244Y402239D01*
X862756Y401244D01*
X861761Y399756D01*
X861412Y398000D01*
X861761Y396244D01*
X862756Y394756D01*
X864244Y393761D01*
X866000Y393412D01*
X867756Y393761D01*
X869244Y394756D01*
X870239Y396244D01*
X870588Y398000D01*
X870239Y399756D01*
X869244Y401244D01*
X867756Y402239D01*
X866000Y402588D01*
D02*
G37*
G36*
X785000D02*
X783244Y402239D01*
X781756Y401244D01*
X780761Y399756D01*
X780412Y398000D01*
X780761Y396244D01*
X781756Y394756D01*
X783244Y393761D01*
X785000Y393412D01*
X786756Y393761D01*
X788244Y394756D01*
X789239Y396244D01*
X789588Y398000D01*
X789239Y399756D01*
X788244Y401244D01*
X786756Y402239D01*
X785000Y402588D01*
D02*
G37*
G36*
X351000Y393588D02*
X349244Y393239D01*
X347756Y392244D01*
X347703Y392165D01*
X345297D01*
X345244Y392244D01*
X343756Y393239D01*
X342000Y393588D01*
X340244Y393239D01*
X338756Y392244D01*
X337761Y390756D01*
X337412Y389000D01*
X337761Y387244D01*
X338756Y385756D01*
X340244Y384761D01*
X342000Y384412D01*
X343756Y384761D01*
X345244Y385756D01*
X345297Y385835D01*
X347703D01*
X347756Y385756D01*
X349244Y384761D01*
X351000Y384412D01*
X352756Y384761D01*
X354244Y385756D01*
X355239Y387244D01*
X355588Y389000D01*
X355239Y390756D01*
X354244Y392244D01*
X352756Y393239D01*
X351000Y393588D01*
D02*
G37*
G36*
X433000Y398838D02*
X431244Y398489D01*
X429756Y397494D01*
X428761Y396006D01*
X428412Y394250D01*
X428761Y392494D01*
X429756Y391006D01*
X431244Y390011D01*
X433000Y389662D01*
X434756Y390011D01*
X436244Y391006D01*
X437239Y392494D01*
X437588Y394250D01*
X437239Y396006D01*
X436244Y397494D01*
X434756Y398489D01*
X433000Y398838D01*
D02*
G37*
G36*
X407000D02*
X405244Y398489D01*
X403756Y397494D01*
X402761Y396006D01*
X402412Y394250D01*
X402761Y392494D01*
X403756Y391006D01*
X405244Y390011D01*
X407000Y389662D01*
X408756Y390011D01*
X410244Y391006D01*
X411239Y392494D01*
X411588Y394250D01*
X411239Y396006D01*
X410244Y397494D01*
X408756Y398489D01*
X407000Y398838D01*
D02*
G37*
G36*
X612000Y397588D02*
X610244Y397239D01*
X608756Y396244D01*
X607761Y394756D01*
X607412Y393000D01*
X607761Y391244D01*
X608756Y389756D01*
X610244Y388761D01*
X612000Y388412D01*
X613756Y388761D01*
X615244Y389756D01*
X616239Y391244D01*
X616588Y393000D01*
X616239Y394756D01*
X615244Y396244D01*
X613756Y397239D01*
X612000Y397588D01*
D02*
G37*
G36*
X1140000Y394588D02*
X1138244Y394239D01*
X1136756Y393244D01*
X1135761Y391756D01*
X1135412Y390000D01*
X1135761Y388244D01*
X1136756Y386756D01*
X1138244Y385761D01*
X1140000Y385412D01*
X1141756Y385761D01*
X1143244Y386756D01*
X1144239Y388244D01*
X1144588Y390000D01*
X1144239Y391756D01*
X1143244Y393244D01*
X1141756Y394239D01*
X1140000Y394588D01*
D02*
G37*
G36*
X980000D02*
X978244Y394239D01*
X976756Y393244D01*
X975761Y391756D01*
X975412Y390000D01*
X975761Y388244D01*
X976756Y386756D01*
X978244Y385761D01*
X980000Y385412D01*
X981756Y385761D01*
X983244Y386756D01*
X984239Y388244D01*
X984588Y390000D01*
X984239Y391756D01*
X983244Y393244D01*
X981756Y394239D01*
X980000Y394588D01*
D02*
G37*
G36*
X940000D02*
X938244Y394239D01*
X936756Y393244D01*
X935761Y391756D01*
X935412Y390000D01*
X935761Y388244D01*
X936756Y386756D01*
X938244Y385761D01*
X940000Y385412D01*
X941756Y385761D01*
X943244Y386756D01*
X944239Y388244D01*
X944588Y390000D01*
X944239Y391756D01*
X943244Y393244D01*
X941756Y394239D01*
X940000Y394588D01*
D02*
G37*
G36*
X660000D02*
X658244Y394239D01*
X656756Y393244D01*
X655761Y391756D01*
X655412Y390000D01*
X655761Y388244D01*
X656756Y386756D01*
X658244Y385761D01*
X660000Y385412D01*
X661756Y385761D01*
X663244Y386756D01*
X664239Y388244D01*
X664588Y390000D01*
X664239Y391756D01*
X663244Y393244D01*
X661756Y394239D01*
X660000Y394588D01*
D02*
G37*
G36*
X420000D02*
X418244Y394239D01*
X416756Y393244D01*
X415761Y391756D01*
X415412Y390000D01*
X415761Y388244D01*
X416756Y386756D01*
X418244Y385761D01*
X420000Y385412D01*
X421756Y385761D01*
X423244Y386756D01*
X424239Y388244D01*
X424588Y390000D01*
X424239Y391756D01*
X423244Y393244D01*
X421756Y394239D01*
X420000Y394588D01*
D02*
G37*
G36*
X260000D02*
X258244Y394239D01*
X256756Y393244D01*
X255761Y391756D01*
X255412Y390000D01*
X255761Y388244D01*
X256756Y386756D01*
X258244Y385761D01*
X260000Y385412D01*
X261756Y385761D01*
X263244Y386756D01*
X264239Y388244D01*
X264588Y390000D01*
X264239Y391756D01*
X263244Y393244D01*
X261756Y394239D01*
X260000Y394588D01*
D02*
G37*
G36*
X140000D02*
X138244Y394239D01*
X136756Y393244D01*
X135761Y391756D01*
X135412Y390000D01*
X135761Y388244D01*
X136756Y386756D01*
X138244Y385761D01*
X140000Y385412D01*
X141756Y385761D01*
X143244Y386756D01*
X144239Y388244D01*
X144588Y390000D01*
X144239Y391756D01*
X143244Y393244D01*
X141756Y394239D01*
X140000Y394588D01*
D02*
G37*
G36*
X60000D02*
X58244Y394239D01*
X56756Y393244D01*
X55761Y391756D01*
X55412Y390000D01*
X55761Y388244D01*
X56756Y386756D01*
X58244Y385761D01*
X60000Y385412D01*
X61756Y385761D01*
X63244Y386756D01*
X64239Y388244D01*
X64588Y390000D01*
X64239Y391756D01*
X63244Y393244D01*
X61756Y394239D01*
X60000Y394588D01*
D02*
G37*
G36*
X624000Y390588D02*
X622244Y390239D01*
X620756Y389244D01*
X619761Y387756D01*
X619412Y386000D01*
X619761Y384244D01*
X620756Y382756D01*
X622244Y381761D01*
X624000Y381412D01*
X625756Y381761D01*
X627244Y382756D01*
X628239Y384244D01*
X628588Y386000D01*
X628239Y387756D01*
X627244Y389244D01*
X625756Y390239D01*
X624000Y390588D01*
D02*
G37*
G36*
X918000Y389588D02*
X916244Y389239D01*
X914756Y388244D01*
X913761Y386756D01*
X913412Y385000D01*
X913761Y383244D01*
X914756Y381756D01*
X916244Y380761D01*
X918000Y380412D01*
X919756Y380761D01*
X921244Y381756D01*
X922239Y383244D01*
X922588Y385000D01*
X922239Y386756D01*
X921244Y388244D01*
X919756Y389239D01*
X918000Y389588D01*
D02*
G37*
G36*
X490000D02*
X488244Y389239D01*
X486756Y388244D01*
X485761Y386756D01*
X485412Y385000D01*
X485761Y383244D01*
X486756Y381756D01*
X488244Y380761D01*
X490000Y380412D01*
X491756Y380761D01*
X493244Y381756D01*
X494239Y383244D01*
X494588Y385000D01*
X494239Y386756D01*
X493244Y388244D01*
X491756Y389239D01*
X490000Y389588D01*
D02*
G37*
G36*
X1110000Y402608D02*
X1106737Y402178D01*
X1103696Y400919D01*
X1101085Y398915D01*
X1099081Y396304D01*
X1097822Y393263D01*
X1097392Y390000D01*
X1097822Y386737D01*
X1099081Y383696D01*
X1101085Y381085D01*
X1103696Y379081D01*
X1106737Y377822D01*
X1110000Y377392D01*
X1113263Y377822D01*
X1116304Y379081D01*
X1118915Y381085D01*
X1120919Y383696D01*
X1122178Y386737D01*
X1122608Y390000D01*
X1122178Y393263D01*
X1120919Y396304D01*
X1118915Y398915D01*
X1116304Y400919D01*
X1113263Y402178D01*
X1110000Y402608D01*
D02*
G37*
G36*
X110000D02*
X106737Y402178D01*
X103696Y400919D01*
X101085Y398915D01*
X99081Y396304D01*
X97822Y393263D01*
X97392Y390000D01*
X97822Y386737D01*
X99081Y383696D01*
X101085Y381085D01*
X103696Y379081D01*
X106737Y377822D01*
X110000Y377392D01*
X113263Y377822D01*
X116304Y379081D01*
X118915Y381085D01*
X120919Y383696D01*
X122178Y386737D01*
X122608Y390000D01*
X122178Y393263D01*
X120919Y396304D01*
X118915Y398915D01*
X116304Y400919D01*
X113263Y402178D01*
X110000Y402608D01*
D02*
G37*
G36*
X838000Y370588D02*
X836244Y370239D01*
X834756Y369244D01*
X833761Y367756D01*
X833412Y366000D01*
X833761Y364244D01*
X834756Y362756D01*
X836244Y361761D01*
X838000Y361412D01*
X839756Y361761D01*
X841244Y362756D01*
X842239Y364244D01*
X842588Y366000D01*
X842239Y367756D01*
X841244Y369244D01*
X839756Y370239D01*
X838000Y370588D01*
D02*
G37*
G36*
X905000Y368588D02*
X903244Y368239D01*
X901756Y367244D01*
X900761Y365756D01*
X900412Y364000D01*
X900761Y362244D01*
X901756Y360756D01*
X903244Y359761D01*
X905000Y359412D01*
X906756Y359761D01*
X908244Y360756D01*
X909239Y362244D01*
X909588Y364000D01*
X909239Y365756D01*
X908244Y367244D01*
X906756Y368239D01*
X905000Y368588D01*
D02*
G37*
G36*
X467000D02*
X465244Y368239D01*
X463756Y367244D01*
X462761Y365756D01*
X462412Y364000D01*
X462761Y362244D01*
X463756Y360756D01*
X465244Y359761D01*
X467000Y359412D01*
X468756Y359761D01*
X470244Y360756D01*
X471239Y362244D01*
X471588Y364000D01*
X471239Y365756D01*
X470244Y367244D01*
X468756Y368239D01*
X467000Y368588D01*
D02*
G37*
G36*
X890998Y368587D02*
X889242Y368238D01*
X887754Y367244D01*
X886759Y365755D01*
X886410Y363999D01*
X886759Y362243D01*
X887754Y360755D01*
X889242Y359760D01*
X890998Y359411D01*
X892754Y359760D01*
X894242Y360755D01*
X895237Y362243D01*
X895586Y363999D01*
X895237Y365755D01*
X894242Y367244D01*
X892754Y368238D01*
X890998Y368587D01*
D02*
G37*
G36*
X810998D02*
X809243Y368238D01*
X807754Y367244D01*
X806759Y365755D01*
X806410Y363999D01*
X806759Y362243D01*
X807754Y360755D01*
X809243Y359760D01*
X810998Y359411D01*
X812754Y359760D01*
X814243Y360755D01*
X815237Y362243D01*
X815586Y363999D01*
X815237Y365755D01*
X814243Y367244D01*
X812754Y368238D01*
X810998Y368587D01*
D02*
G37*
G36*
X608000Y370588D02*
X606244Y370239D01*
X604756Y369244D01*
X603761Y367756D01*
X603412Y366000D01*
X603761Y364244D01*
X604756Y362756D01*
X606244Y361761D01*
X607475Y361516D01*
X609412Y361000D01*
X609761Y359244D01*
X610756Y357756D01*
X612244Y356761D01*
X614000Y356412D01*
X615756Y356761D01*
X617244Y357756D01*
X618239Y359244D01*
X618588Y361000D01*
X618239Y362756D01*
X617244Y364244D01*
X615756Y365239D01*
X614000Y365588D01*
X612331Y367295D01*
X612239Y367756D01*
X611244Y369244D01*
X609756Y370239D01*
X608000Y370588D01*
D02*
G37*
G36*
X74500Y364338D02*
X72744Y363989D01*
X71256Y362994D01*
X70261Y361506D01*
X69912Y359750D01*
X70261Y357994D01*
X71256Y356506D01*
X72744Y355511D01*
X74500Y355162D01*
X76256Y355511D01*
X77744Y356506D01*
X78739Y357994D01*
X79088Y359750D01*
X78739Y361506D01*
X77744Y362994D01*
X76256Y363989D01*
X74500Y364338D01*
D02*
G37*
G36*
X439500Y360338D02*
X437744Y359989D01*
X436256Y358994D01*
X435261Y357506D01*
X434912Y355750D01*
X435261Y353994D01*
X436256Y352506D01*
X437744Y351511D01*
X439500Y351162D01*
X441256Y351511D01*
X442744Y352506D01*
X443739Y353994D01*
X444088Y355750D01*
X443739Y357506D01*
X442744Y358994D01*
X441256Y359989D01*
X439500Y360338D01*
D02*
G37*
G36*
X420000D02*
X418244Y359989D01*
X416756Y358994D01*
X415761Y357506D01*
X415412Y355750D01*
X415761Y353994D01*
X416756Y352506D01*
X418244Y351511D01*
X420000Y351162D01*
X421756Y351511D01*
X423244Y352506D01*
X424239Y353994D01*
X424588Y355750D01*
X424239Y357506D01*
X423244Y358994D01*
X421756Y359989D01*
X420000Y360338D01*
D02*
G37*
G36*
X400500D02*
X398744Y359989D01*
X397256Y358994D01*
X396261Y357506D01*
X395912Y355750D01*
X396261Y353994D01*
X397256Y352506D01*
X398744Y351511D01*
X400500Y351162D01*
X402256Y351511D01*
X403744Y352506D01*
X404739Y353994D01*
X405088Y355750D01*
X404739Y357506D01*
X403744Y358994D01*
X402256Y359989D01*
X400500Y360338D01*
D02*
G37*
G36*
X359500D02*
X357744Y359989D01*
X356256Y358994D01*
X355261Y357506D01*
X354912Y355750D01*
X355261Y353994D01*
X356256Y352506D01*
X357744Y351511D01*
X359500Y351162D01*
X361256Y351511D01*
X362744Y352506D01*
X363739Y353994D01*
X364088Y355750D01*
X363739Y357506D01*
X362744Y358994D01*
X361256Y359989D01*
X359500Y360338D01*
D02*
G37*
G36*
X340000D02*
X338244Y359989D01*
X336756Y358994D01*
X335761Y357506D01*
X335412Y355750D01*
X335761Y353994D01*
X336756Y352506D01*
X338244Y351511D01*
X340000Y351162D01*
X341756Y351511D01*
X343244Y352506D01*
X344239Y353994D01*
X344588Y355750D01*
X344239Y357506D01*
X343244Y358994D01*
X341756Y359989D01*
X340000Y360338D01*
D02*
G37*
G36*
X320500D02*
X318744Y359989D01*
X317256Y358994D01*
X316261Y357506D01*
X315912Y355750D01*
X316261Y353994D01*
X317256Y352506D01*
X318744Y351511D01*
X320500Y351162D01*
X322256Y351511D01*
X323744Y352506D01*
X324739Y353994D01*
X325088Y355750D01*
X324739Y357506D01*
X323744Y358994D01*
X322256Y359989D01*
X320500Y360338D01*
D02*
G37*
G36*
X1125000Y359588D02*
X1123244Y359239D01*
X1121756Y358244D01*
X1120761Y356756D01*
X1120412Y355000D01*
X1120761Y353244D01*
X1121756Y351756D01*
X1123244Y350761D01*
X1125000Y350412D01*
X1126756Y350761D01*
X1128244Y351756D01*
X1129239Y353244D01*
X1129588Y355000D01*
X1129239Y356756D01*
X1128244Y358244D01*
X1126756Y359239D01*
X1125000Y359588D01*
D02*
G37*
G36*
X644000Y358588D02*
X642244Y358239D01*
X640756Y357244D01*
X639761Y355756D01*
X639412Y354000D01*
X639761Y352244D01*
X640756Y350756D01*
X642244Y349761D01*
X644000Y349412D01*
X645756Y349761D01*
X647244Y350756D01*
X648239Y352244D01*
X648588Y354000D01*
X648239Y355756D01*
X647244Y357244D01*
X645756Y358239D01*
X644000Y358588D01*
D02*
G37*
G36*
X1083000Y359588D02*
X1081244Y359239D01*
X1079756Y358244D01*
X1078761Y356756D01*
X1078412Y355000D01*
X1078761Y353244D01*
X1079581Y352018D01*
X1079729Y351620D01*
X1079335Y349631D01*
X1078756Y349244D01*
X1077244D01*
X1075756Y350239D01*
X1074000Y350588D01*
X1072244Y350239D01*
X1070756Y349244D01*
X1069761Y347756D01*
X1069412Y346000D01*
X1069761Y344244D01*
X1070756Y342756D01*
X1072244Y341761D01*
X1074000Y341412D01*
X1075756Y341761D01*
X1077244Y342756D01*
X1078756D01*
X1080244Y341761D01*
X1082000Y341412D01*
X1083756Y341761D01*
X1085244Y342756D01*
X1086756D01*
X1088244Y341761D01*
X1090000Y341412D01*
X1091756Y341761D01*
X1093244Y342756D01*
X1094756D01*
X1096244Y341761D01*
X1098000Y341412D01*
X1099756Y341761D01*
X1101244Y342756D01*
X1102239Y344244D01*
X1102588Y346000D01*
X1102239Y347756D01*
X1101244Y349244D01*
X1099756Y350239D01*
X1098000Y350588D01*
X1096244Y350239D01*
X1094756Y349244D01*
X1093244D01*
X1091756Y350239D01*
X1090000Y350588D01*
X1088244Y350239D01*
X1088001Y350077D01*
X1086796Y350477D01*
X1086553Y352217D01*
X1087239Y353244D01*
X1087588Y355000D01*
X1087239Y356756D01*
X1086244Y358244D01*
X1084756Y359239D01*
X1083000Y359588D01*
D02*
G37*
G36*
X90000Y350588D02*
X88244Y350239D01*
X86756Y349244D01*
X85244D01*
X83756Y350239D01*
X82000Y350588D01*
X80244Y350239D01*
X78756Y349244D01*
X77244D01*
X75756Y350239D01*
X74000Y350588D01*
X72244Y350239D01*
X70756Y349244D01*
X69761Y347756D01*
X69412Y346000D01*
X69761Y344244D01*
X70756Y342756D01*
X72244Y341761D01*
X74000Y341412D01*
X75756Y341761D01*
X77244Y342756D01*
X78756D01*
X80244Y341761D01*
X82000Y341412D01*
X83756Y341761D01*
X85244Y342756D01*
X86756D01*
X88244Y341761D01*
X90000Y341412D01*
X91756Y341761D01*
X92175Y342042D01*
X93295Y342714D01*
X94738Y341532D01*
X94756Y341506D01*
X96244Y340511D01*
X98000Y340162D01*
X99756Y340511D01*
X101244Y341506D01*
X102239Y342994D01*
X102588Y344750D01*
X102239Y346506D01*
X101244Y347994D01*
X99756Y348989D01*
X98000Y349338D01*
X96244Y348989D01*
X95825Y348708D01*
X94705Y348036D01*
X93262Y349218D01*
X93244Y349244D01*
X91756Y350239D01*
X90000Y350588D01*
D02*
G37*
G36*
X1040000Y354588D02*
X1038244Y354239D01*
X1036756Y353244D01*
X1035761Y351756D01*
X1035412Y350000D01*
X1035761Y348244D01*
X1036756Y346756D01*
X1038244Y345761D01*
X1040000Y345412D01*
X1041756Y345761D01*
X1043244Y346756D01*
X1044239Y348244D01*
X1044588Y350000D01*
X1044239Y351756D01*
X1043244Y353244D01*
X1041756Y354239D01*
X1040000Y354588D01*
D02*
G37*
G36*
X1000000D02*
X998244Y354239D01*
X996756Y353244D01*
X995761Y351756D01*
X995412Y350000D01*
X995761Y348244D01*
X996756Y346756D01*
X998244Y345761D01*
X1000000Y345412D01*
X1001756Y345761D01*
X1003244Y346756D01*
X1004239Y348244D01*
X1004588Y350000D01*
X1004239Y351756D01*
X1003244Y353244D01*
X1001756Y354239D01*
X1000000Y354588D01*
D02*
G37*
G36*
X920000D02*
X918244Y354239D01*
X916756Y353244D01*
X915761Y351756D01*
X915412Y350000D01*
X915761Y348244D01*
X916756Y346756D01*
X918244Y345761D01*
X920000Y345412D01*
X921756Y345761D01*
X923244Y346756D01*
X924239Y348244D01*
X924588Y350000D01*
X924239Y351756D01*
X923244Y353244D01*
X921756Y354239D01*
X920000Y354588D01*
D02*
G37*
G36*
X840000D02*
X838244Y354239D01*
X836756Y353244D01*
X835761Y351756D01*
X835412Y350000D01*
X835761Y348244D01*
X836756Y346756D01*
X838244Y345761D01*
X840000Y345412D01*
X841756Y345761D01*
X843244Y346756D01*
X844239Y348244D01*
X844588Y350000D01*
X844239Y351756D01*
X843244Y353244D01*
X841756Y354239D01*
X840000Y354588D01*
D02*
G37*
G36*
X760000D02*
X758244Y354239D01*
X756756Y353244D01*
X755761Y351756D01*
X755412Y350000D01*
X755761Y348244D01*
X756756Y346756D01*
X758244Y345761D01*
X760000Y345412D01*
X761756Y345761D01*
X763244Y346756D01*
X764239Y348244D01*
X764588Y350000D01*
X764239Y351756D01*
X763244Y353244D01*
X761756Y354239D01*
X760000Y354588D01*
D02*
G37*
G36*
X720000D02*
X718244Y354239D01*
X716756Y353244D01*
X715761Y351756D01*
X715412Y350000D01*
X715761Y348244D01*
X716756Y346756D01*
X718244Y345761D01*
X720000Y345412D01*
X721756Y345761D01*
X723244Y346756D01*
X724239Y348244D01*
X724588Y350000D01*
X724239Y351756D01*
X723244Y353244D01*
X721756Y354239D01*
X720000Y354588D01*
D02*
G37*
G36*
X240000D02*
X238244Y354239D01*
X236756Y353244D01*
X235761Y351756D01*
X235412Y350000D01*
X235761Y348244D01*
X236756Y346756D01*
X238244Y345761D01*
X240000Y345412D01*
X241756Y345761D01*
X243244Y346756D01*
X244239Y348244D01*
X244588Y350000D01*
X244239Y351756D01*
X243244Y353244D01*
X241756Y354239D01*
X240000Y354588D01*
D02*
G37*
G36*
X53500Y348838D02*
X51744Y348489D01*
X50256Y347494D01*
X49261Y346006D01*
X48912Y344250D01*
X49261Y342494D01*
X50256Y341006D01*
X51744Y340011D01*
X53500Y339662D01*
X55256Y340011D01*
X56744Y341006D01*
X57739Y342494D01*
X58088Y344250D01*
X57739Y346006D01*
X56744Y347494D01*
X55256Y348489D01*
X53500Y348838D01*
D02*
G37*
G36*
X1053000Y348588D02*
X1051244Y348239D01*
X1049756Y347244D01*
X1048761Y345756D01*
X1048412Y344000D01*
X1048761Y342244D01*
X1049756Y340756D01*
X1051244Y339761D01*
X1053000Y339412D01*
X1054756Y339761D01*
X1056244Y340756D01*
X1057239Y342244D01*
X1057588Y344000D01*
X1057239Y345756D01*
X1056244Y347244D01*
X1054756Y348239D01*
X1053000Y348588D01*
D02*
G37*
G36*
X559999Y356587D02*
X558243Y356238D01*
X556755Y355244D01*
X555760Y353755D01*
X555411Y351999D01*
X555760Y350243D01*
X556580Y349017D01*
X556728Y348620D01*
X556334Y346631D01*
X555756Y346244D01*
X554761Y344756D01*
X554412Y343000D01*
X554761Y341244D01*
X555756Y339756D01*
X557244Y338761D01*
X559000Y338412D01*
X560756Y338761D01*
X562244Y339756D01*
X563239Y341244D01*
X563588Y343000D01*
X563239Y344756D01*
X562419Y345982D01*
X562271Y346379D01*
X562665Y348369D01*
X563243Y348755D01*
X564238Y350243D01*
X564587Y351999D01*
X564238Y353755D01*
X563243Y355244D01*
X561755Y356238D01*
X559999Y356587D01*
D02*
G37*
G36*
X196000Y346588D02*
X194244Y346239D01*
X192756Y345244D01*
X191761Y343756D01*
X191412Y342000D01*
X191761Y340244D01*
X192756Y338756D01*
X194244Y337761D01*
X196000Y337412D01*
X197756Y337761D01*
X199244Y338756D01*
X200239Y340244D01*
X200588Y342000D01*
X200239Y343756D01*
X199244Y345244D01*
X197756Y346239D01*
X196000Y346588D01*
D02*
G37*
G36*
X596000Y342588D02*
X594244Y342239D01*
X592756Y341244D01*
X591761Y339756D01*
X591412Y338000D01*
X591761Y336244D01*
X592756Y334756D01*
X594244Y333761D01*
X596000Y333412D01*
X597756Y333761D01*
X599244Y334756D01*
X600239Y336244D01*
X600588Y338000D01*
X600239Y339756D01*
X599244Y341244D01*
X597756Y342239D01*
X596000Y342588D01*
D02*
G37*
G36*
X877000Y338588D02*
X875244Y338239D01*
X873756Y337244D01*
X872761Y335756D01*
X872412Y334000D01*
X872761Y332244D01*
X873756Y330756D01*
X875244Y329761D01*
X877000Y329412D01*
X878756Y329761D01*
X880244Y330756D01*
X881239Y332244D01*
X881588Y334000D01*
X881239Y335756D01*
X880244Y337244D01*
X878756Y338239D01*
X877000Y338588D01*
D02*
G37*
G36*
X341000D02*
X339244Y338239D01*
X337756Y337244D01*
X336761Y335756D01*
X336412Y334000D01*
X336761Y332244D01*
X337756Y330756D01*
X339244Y329761D01*
X341000Y329412D01*
X342756Y329761D01*
X344244Y330756D01*
X345239Y332244D01*
X345588Y334000D01*
X345239Y335756D01*
X344244Y337244D01*
X342756Y338239D01*
X341000Y338588D01*
D02*
G37*
G36*
X357000Y337588D02*
X355244Y337239D01*
X353756Y336244D01*
X352761Y334756D01*
X352412Y333000D01*
X352761Y331244D01*
X353756Y329756D01*
X355244Y328761D01*
X357000Y328412D01*
X358756Y328761D01*
X360244Y329756D01*
X361239Y331244D01*
X361588Y333000D01*
X361239Y334756D01*
X360244Y336244D01*
X358756Y337239D01*
X357000Y337588D01*
D02*
G37*
G36*
X629000Y332588D02*
X627244Y332239D01*
X625756Y331244D01*
X624761Y329756D01*
X624412Y328000D01*
X624761Y326244D01*
X625756Y324756D01*
X627244Y323761D01*
X629000Y323412D01*
X630756Y323761D01*
X632244Y324756D01*
X633239Y326244D01*
X633588Y328000D01*
X633239Y329756D01*
X632244Y331244D01*
X630756Y332239D01*
X629000Y332588D01*
D02*
G37*
G36*
X580000Y331588D02*
X578244Y331239D01*
X576756Y330244D01*
X575761Y328756D01*
X575412Y327000D01*
X575761Y325244D01*
X576756Y323756D01*
X578244Y322761D01*
X580000Y322412D01*
X581756Y322761D01*
X583244Y323756D01*
X584239Y325244D01*
X584588Y327000D01*
X584239Y328756D01*
X583244Y330244D01*
X581756Y331239D01*
X580000Y331588D01*
D02*
G37*
G36*
X1122000Y328588D02*
X1120244Y328239D01*
X1118756Y327244D01*
X1117761Y325756D01*
X1117412Y324000D01*
X1117761Y322244D01*
X1118756Y320756D01*
X1120244Y319761D01*
X1122000Y319412D01*
X1123756Y319761D01*
X1125244Y320756D01*
X1126239Y322244D01*
X1126588Y324000D01*
X1126239Y325756D01*
X1125244Y327244D01*
X1123756Y328239D01*
X1122000Y328588D01*
D02*
G37*
G36*
X122000D02*
X120244Y328239D01*
X118756Y327244D01*
X117761Y325756D01*
X117412Y324000D01*
X117761Y322244D01*
X118756Y320756D01*
X120244Y319761D01*
X122000Y319412D01*
X123756Y319761D01*
X125244Y320756D01*
X126239Y322244D01*
X126588Y324000D01*
X126239Y325756D01*
X125244Y327244D01*
X123756Y328239D01*
X122000Y328588D01*
D02*
G37*
G36*
X152000Y326588D02*
X150244Y326239D01*
X148756Y325244D01*
X147761Y323756D01*
X147412Y322000D01*
X147761Y320244D01*
X148756Y318756D01*
X150244Y317761D01*
X152000Y317412D01*
X153756Y317761D01*
X155244Y318756D01*
X156239Y320244D01*
X156588Y322000D01*
X156239Y323756D01*
X155244Y325244D01*
X153756Y326239D01*
X152000Y326588D01*
D02*
G37*
G36*
X177000Y324588D02*
X175244Y324239D01*
X173756Y323244D01*
X172761Y321756D01*
X172412Y320000D01*
X172761Y318244D01*
X173756Y316756D01*
X175244Y315761D01*
X177000Y315412D01*
X178756Y315761D01*
X180244Y316756D01*
X181239Y318244D01*
X181588Y320000D01*
X181239Y321756D01*
X180244Y323244D01*
X178756Y324239D01*
X177000Y324588D01*
D02*
G37*
G36*
X559000Y323588D02*
X557244Y323239D01*
X555756Y322244D01*
X554761Y320756D01*
X554412Y319000D01*
X554761Y317244D01*
X555756Y315756D01*
X557244Y314761D01*
X559000Y314412D01*
X560756Y314761D01*
X562244Y315756D01*
X563239Y317244D01*
X563588Y319000D01*
X563239Y320756D01*
X562244Y322244D01*
X560756Y323239D01*
X559000Y323588D01*
D02*
G37*
G36*
X731000Y322588D02*
X729244Y322239D01*
X727756Y321244D01*
X726761Y319756D01*
X726412Y318000D01*
X726761Y316244D01*
X727756Y314756D01*
X729244Y313761D01*
X731000Y313412D01*
X732756Y313761D01*
X734244Y314756D01*
X735239Y316244D01*
X735588Y318000D01*
X735239Y319756D01*
X734244Y321244D01*
X732756Y322239D01*
X731000Y322588D01*
D02*
G37*
G36*
X603000D02*
X601244Y322239D01*
X599756Y321244D01*
X598761Y319756D01*
X598412Y318000D01*
X598761Y316244D01*
X599756Y314756D01*
X601244Y313761D01*
X603000Y313412D01*
X604756Y313761D01*
X606244Y314756D01*
X607239Y316244D01*
X607588Y318000D01*
X607239Y319756D01*
X606244Y321244D01*
X604756Y322239D01*
X603000Y322588D01*
D02*
G37*
G36*
X1069000Y316588D02*
X1067244Y316239D01*
X1065756Y315244D01*
X1064761Y313756D01*
X1064412Y312000D01*
X1064761Y310244D01*
X1065756Y308756D01*
X1067244Y307761D01*
X1069000Y307412D01*
X1070756Y307761D01*
X1072244Y308756D01*
X1073239Y310244D01*
X1073588Y312000D01*
X1073239Y313756D01*
X1072244Y315244D01*
X1070756Y316239D01*
X1069000Y316588D01*
D02*
G37*
G36*
X849000Y315588D02*
X847244Y315239D01*
X845756Y314244D01*
X844761Y312756D01*
X844412Y311000D01*
X844761Y309244D01*
X845756Y307756D01*
X847244Y306761D01*
X849000Y306412D01*
X850756Y306761D01*
X852244Y307756D01*
X853239Y309244D01*
X853588Y311000D01*
X853239Y312756D01*
X852244Y314244D01*
X850756Y315239D01*
X849000Y315588D01*
D02*
G37*
G36*
X799000Y322588D02*
X797244Y322239D01*
X795756Y321244D01*
X794761Y319756D01*
X794412Y318000D01*
X794547Y317320D01*
X793005Y315593D01*
X792980Y315584D01*
X791244Y315239D01*
X791067Y315120D01*
X789756Y314244D01*
X788761Y312756D01*
X788412Y311000D01*
X788761Y309244D01*
X789756Y307756D01*
X791244Y306761D01*
X793000Y306412D01*
X794756Y306761D01*
X796244Y307756D01*
X797239Y309244D01*
X797588Y311000D01*
X797453Y311680D01*
X798995Y313407D01*
X799020Y313416D01*
X800756Y313761D01*
X800934Y313880D01*
X802244Y314756D01*
X803239Y316244D01*
X803588Y318000D01*
X803239Y319756D01*
X802244Y321244D01*
X800756Y322239D01*
X799000Y322588D01*
D02*
G37*
G36*
X464000Y314588D02*
X462244Y314239D01*
X460756Y313244D01*
X459761Y311756D01*
X459412Y310000D01*
X459761Y308244D01*
X460756Y306756D01*
X462244Y305761D01*
X464000Y305412D01*
X465756Y305761D01*
X467244Y306756D01*
X468239Y308244D01*
X468588Y310000D01*
X468239Y311756D01*
X467244Y313244D01*
X465756Y314239D01*
X464000Y314588D01*
D02*
G37*
G36*
X1140000Y314588D02*
X1138244Y314239D01*
X1136756Y313244D01*
X1135761Y311756D01*
X1135412Y310000D01*
X1135761Y308244D01*
X1136756Y306756D01*
X1138244Y305761D01*
X1140000Y305412D01*
X1141756Y305761D01*
X1143244Y306756D01*
X1144239Y308244D01*
X1144588Y310000D01*
X1144239Y311756D01*
X1143244Y313244D01*
X1141756Y314239D01*
X1140000Y314588D01*
D02*
G37*
G36*
X380000D02*
X378244Y314239D01*
X376756Y313244D01*
X375761Y311756D01*
X375412Y310000D01*
X375761Y308244D01*
X376756Y306756D01*
X378244Y305761D01*
X380000Y305412D01*
X381756Y305761D01*
X383244Y306756D01*
X384239Y308244D01*
X384588Y310000D01*
X384239Y311756D01*
X383244Y313244D01*
X381756Y314239D01*
X380000Y314588D01*
D02*
G37*
G36*
X300000D02*
X298244Y314239D01*
X296756Y313244D01*
X295761Y311756D01*
X295412Y310000D01*
X295761Y308244D01*
X296756Y306756D01*
X298244Y305761D01*
X300000Y305412D01*
X301756Y305761D01*
X303244Y306756D01*
X304239Y308244D01*
X304588Y310000D01*
X304239Y311756D01*
X303244Y313244D01*
X301756Y314239D01*
X300000Y314588D01*
D02*
G37*
G36*
X220000D02*
X218244Y314239D01*
X216756Y313244D01*
X215761Y311756D01*
X215412Y310000D01*
X215761Y308244D01*
X216756Y306756D01*
X218244Y305761D01*
X220000Y305412D01*
X221756Y305761D01*
X223244Y306756D01*
X224239Y308244D01*
X224588Y310000D01*
X224239Y311756D01*
X223244Y313244D01*
X221756Y314239D01*
X220000Y314588D01*
D02*
G37*
G36*
X100000D02*
X98244Y314239D01*
X96756Y313244D01*
X95761Y311756D01*
X95412Y310000D01*
X95761Y308244D01*
X96756Y306756D01*
X98244Y305761D01*
X100000Y305412D01*
X101756Y305761D01*
X103244Y306756D01*
X104239Y308244D01*
X104588Y310000D01*
X104239Y311756D01*
X103244Y313244D01*
X101756Y314239D01*
X100000Y314588D01*
D02*
G37*
G36*
X989000Y313588D02*
X987244Y313239D01*
X985756Y312244D01*
X984761Y310756D01*
X984412Y309000D01*
X984761Y307244D01*
X985756Y305756D01*
X987244Y304761D01*
X989000Y304412D01*
X990756Y304761D01*
X992244Y305756D01*
X993239Y307244D01*
X993588Y309000D01*
X993239Y310756D01*
X992244Y312244D01*
X990756Y313239D01*
X989000Y313588D01*
D02*
G37*
G36*
X65500Y312588D02*
X63744Y312239D01*
X62256Y311244D01*
X61261Y309756D01*
X60912Y308000D01*
X61261Y306244D01*
X62256Y304756D01*
X63744Y303761D01*
X65500Y303412D01*
X67256Y303761D01*
X68744Y304756D01*
X69739Y306244D01*
X70088Y308000D01*
X69739Y309756D01*
X68744Y311244D01*
X67256Y312239D01*
X65500Y312588D01*
D02*
G37*
G36*
X407000Y312588D02*
X405244Y312239D01*
X403756Y311244D01*
X402761Y309756D01*
X402412Y308000D01*
X402761Y306244D01*
X403756Y304756D01*
X405244Y303761D01*
X407000Y303412D01*
X408756Y303761D01*
X410244Y304756D01*
X411239Y306244D01*
X411588Y308000D01*
X411239Y309756D01*
X410244Y311244D01*
X408756Y312239D01*
X407000Y312588D01*
D02*
G37*
G36*
X795000Y304588D02*
X793244Y304239D01*
X791756Y303244D01*
X790761Y301756D01*
X790471Y300296D01*
X789000Y300588D01*
X787244Y300239D01*
X785756Y299244D01*
X784761Y297756D01*
X784412Y296000D01*
X784761Y294244D01*
X785756Y292756D01*
X787244Y291761D01*
X789000Y291412D01*
X790756Y291761D01*
X792244Y292756D01*
X792970Y293841D01*
X793096Y293855D01*
X793481Y293601D01*
X794612Y292004D01*
X794412Y291000D01*
X794761Y289244D01*
X795756Y287756D01*
X797244Y286761D01*
X799000Y286412D01*
X800756Y286761D01*
X802244Y287756D01*
X803239Y289244D01*
X803588Y291000D01*
X803239Y292756D01*
X802244Y294244D01*
X800756Y295239D01*
X799634Y295462D01*
X798801Y297163D01*
X798755Y297521D01*
X799239Y298244D01*
X799588Y300000D01*
X799239Y301756D01*
X798244Y303244D01*
X796756Y304239D01*
X795000Y304588D01*
D02*
G37*
G36*
X320000Y308588D02*
X318244Y308239D01*
X316756Y307244D01*
X315761Y305756D01*
X315412Y304000D01*
X315761Y302244D01*
X316756Y300756D01*
X318244Y299761D01*
X320000Y299412D01*
X321756Y299761D01*
X323244Y300756D01*
X324239Y302244D01*
X324588Y304000D01*
X324239Y305756D01*
X323244Y307244D01*
X321756Y308239D01*
X320000Y308588D01*
D02*
G37*
G36*
X999000Y301588D02*
X997244Y301239D01*
X995756Y300244D01*
X994761Y298756D01*
X994412Y297000D01*
X994761Y295244D01*
X995756Y293756D01*
X997244Y292761D01*
X999000Y292412D01*
X1000756Y292761D01*
X1002244Y293756D01*
X1003239Y295244D01*
X1003588Y297000D01*
X1003239Y298756D01*
X1002244Y300244D01*
X1000756Y301239D01*
X999000Y301588D01*
D02*
G37*
G36*
X452000D02*
X450244Y301239D01*
X448756Y300244D01*
X447761Y298756D01*
X447412Y297000D01*
X447761Y295244D01*
X448756Y293756D01*
X450244Y292761D01*
X452000Y292412D01*
X453756Y292761D01*
X455244Y293756D01*
X456239Y295244D01*
X456588Y297000D01*
X456239Y298756D01*
X455244Y300244D01*
X453756Y301239D01*
X452000Y301588D01*
D02*
G37*
G36*
X562000Y300588D02*
X560244Y300239D01*
X558756Y299244D01*
X557761Y297756D01*
X557412Y296000D01*
X557761Y294244D01*
X558756Y292756D01*
X560244Y291761D01*
X562000Y291412D01*
X563756Y291761D01*
X565244Y292756D01*
X566239Y294244D01*
X566588Y296000D01*
X566239Y297756D01*
X565244Y299244D01*
X563756Y300239D01*
X562000Y300588D01*
D02*
G37*
G36*
X176000Y296588D02*
X174244Y296239D01*
X172756Y295244D01*
X171761Y293756D01*
X171412Y292000D01*
X171761Y290244D01*
X172756Y288756D01*
X174244Y287761D01*
X176000Y287412D01*
X177756Y287761D01*
X179244Y288756D01*
X180239Y290244D01*
X180588Y292000D01*
X180239Y293756D01*
X179244Y295244D01*
X177756Y296239D01*
X176000Y296588D01*
D02*
G37*
G36*
X1035000Y294588D02*
X1033244Y294239D01*
X1031756Y293244D01*
X1030761Y291756D01*
X1030412Y290000D01*
X1030761Y288244D01*
X1031756Y286756D01*
X1033244Y285761D01*
X1035000Y285412D01*
X1036756Y285761D01*
X1038244Y286756D01*
X1039239Y288244D01*
X1039588Y290000D01*
X1039239Y291756D01*
X1038244Y293244D01*
X1036756Y294239D01*
X1035000Y294588D01*
D02*
G37*
G36*
X508000Y297588D02*
X506244Y297239D01*
X504756Y296244D01*
X503761Y294756D01*
X503412Y293000D01*
X503761Y291244D01*
X504756Y289756D01*
X506067Y288880D01*
X506244Y288761D01*
X507980Y288416D01*
X508005Y288407D01*
X509547Y286680D01*
X509412Y286000D01*
X509761Y284244D01*
X510756Y282756D01*
X512244Y281761D01*
X514000Y281412D01*
X515756Y281761D01*
X517244Y282756D01*
X518239Y284244D01*
X518588Y286000D01*
X518239Y287756D01*
X517244Y289244D01*
X515933Y290120D01*
X515756Y290239D01*
X514020Y290584D01*
X513995Y290593D01*
X512453Y292320D01*
X512588Y293000D01*
X512239Y294756D01*
X511244Y296244D01*
X509756Y297239D01*
X508000Y297588D01*
D02*
G37*
G36*
X342000Y290588D02*
X340244Y290239D01*
X338756Y289244D01*
X337761Y287756D01*
X337412Y286000D01*
X337761Y284244D01*
X338756Y282756D01*
X340244Y281761D01*
X342000Y281412D01*
X343756Y281761D01*
X345244Y282756D01*
X346239Y284244D01*
X346588Y286000D01*
X346239Y287756D01*
X345244Y289244D01*
X343756Y290239D01*
X342000Y290588D01*
D02*
G37*
G36*
X549000Y286588D02*
X547244Y286239D01*
X545756Y285244D01*
X544761Y283756D01*
X544412Y282000D01*
X544761Y280244D01*
X545756Y278756D01*
X547244Y277761D01*
X549000Y277412D01*
X550756Y277761D01*
X552244Y278756D01*
X553239Y280244D01*
X553588Y282000D01*
X553239Y283756D01*
X552244Y285244D01*
X550756Y286239D01*
X549000Y286588D01*
D02*
G37*
G36*
X698900Y368104D02*
X695767Y367691D01*
X692848Y366482D01*
X690341Y364558D01*
X688418Y362052D01*
X687209Y359133D01*
X686796Y356000D01*
Y277281D01*
X684796Y276212D01*
X684756Y276239D01*
X683000Y276588D01*
X681244Y276239D01*
X679756Y275244D01*
X678761Y273756D01*
X678412Y272000D01*
X678761Y270244D01*
X679756Y268756D01*
X681244Y267761D01*
X683000Y267412D01*
X684756Y267761D01*
X684796Y267788D01*
X686796Y266719D01*
Y249914D01*
X581441Y144558D01*
X579518Y142052D01*
X578309Y139133D01*
X577896Y136000D01*
Y116000D01*
X578126Y114253D01*
X576232Y113319D01*
X545775Y143776D01*
X543791Y145298D01*
X541480Y146256D01*
X539000Y146582D01*
X507000D01*
X504520Y146256D01*
X502209Y145298D01*
X500225Y143776D01*
X498702Y141791D01*
X497744Y139480D01*
X497418Y137000D01*
X497744Y134520D01*
X498702Y132209D01*
X500225Y130225D01*
X502209Y128702D01*
X504520Y127745D01*
X507000Y127418D01*
X520981D01*
X522495Y125418D01*
X522412Y125000D01*
X522761Y123244D01*
X523756Y121756D01*
X525244Y120761D01*
X527000Y120412D01*
X528756Y120761D01*
X530244Y121756D01*
X531239Y123244D01*
X531588Y125000D01*
X531505Y125418D01*
X533019Y127418D01*
X535031D01*
X574225Y88224D01*
X576209Y86702D01*
X578520Y85744D01*
X581000Y85418D01*
X591616D01*
X591878Y84913D01*
X592144Y83418D01*
X590524Y82176D01*
X589002Y80191D01*
X588045Y77880D01*
X587718Y75400D01*
X588045Y72920D01*
X589002Y70609D01*
X590524Y68625D01*
X592509Y67102D01*
X594820Y66144D01*
X597300Y65818D01*
X599780Y66144D01*
X602091Y67102D01*
X604075Y68625D01*
X605598Y70609D01*
X606555Y72920D01*
X606882Y75400D01*
X606555Y77880D01*
X605598Y80191D01*
X604075Y82176D01*
X602456Y83418D01*
X602722Y84913D01*
X602984Y85418D01*
X612971D01*
X615451Y85744D01*
X617761Y86702D01*
X619746Y88224D01*
X661776Y130254D01*
X663298Y132238D01*
X664256Y134550D01*
X664582Y137029D01*
Y158061D01*
X737775Y231254D01*
X739298Y233238D01*
X740256Y235550D01*
X740582Y238029D01*
Y292000D01*
X740256Y294480D01*
X739298Y296791D01*
X737775Y298776D01*
X735791Y300298D01*
X733480Y301255D01*
X731000Y301582D01*
X728520Y301255D01*
X726209Y300298D01*
X724225Y298776D01*
X723312Y297586D01*
X722210Y297676D01*
X721102Y297960D01*
X720244Y299244D01*
X718756Y300239D01*
X717000Y300588D01*
X715244Y300239D01*
X713756Y299244D01*
X713004Y298119D01*
X711235Y298360D01*
X711004Y298451D01*
Y356000D01*
X710591Y359133D01*
X709382Y362052D01*
X707458Y364558D01*
X704952Y366482D01*
X702033Y367691D01*
X698900Y368104D01*
D02*
G37*
G36*
X1069000Y280588D02*
X1067244Y280239D01*
X1065756Y279244D01*
X1064761Y277756D01*
X1064412Y276000D01*
X1064761Y274244D01*
X1065756Y272756D01*
X1067244Y271761D01*
X1069000Y271412D01*
X1070756Y271761D01*
X1072244Y272756D01*
X1073239Y274244D01*
X1073588Y276000D01*
X1073239Y277756D01*
X1072244Y279244D01*
X1070756Y280239D01*
X1069000Y280588D01*
D02*
G37*
G36*
X65500D02*
X63744Y280239D01*
X62256Y279244D01*
X61261Y277756D01*
X60912Y276000D01*
X61261Y274244D01*
X62256Y272756D01*
X63744Y271761D01*
X65500Y271412D01*
X67256Y271761D01*
X68744Y272756D01*
X69739Y274244D01*
X70088Y276000D01*
X69739Y277756D01*
X68744Y279244D01*
X67256Y280239D01*
X65500Y280588D01*
D02*
G37*
G36*
X397000Y275588D02*
X395244Y275239D01*
X393756Y274244D01*
X392761Y272756D01*
X392412Y271000D01*
X392761Y269244D01*
X393756Y267756D01*
X395244Y266761D01*
X397000Y266412D01*
X398756Y266761D01*
X400244Y267756D01*
X401239Y269244D01*
X401588Y271000D01*
X401239Y272756D01*
X400244Y274244D01*
X398756Y275239D01*
X397000Y275588D01*
D02*
G37*
G36*
X1080000Y274588D02*
X1078244Y274239D01*
X1076756Y273244D01*
X1075761Y271756D01*
X1075412Y270000D01*
X1075761Y268244D01*
X1076756Y266756D01*
X1078244Y265761D01*
X1080000Y265412D01*
X1081756Y265761D01*
X1083244Y266756D01*
X1084239Y268244D01*
X1084588Y270000D01*
X1084239Y271756D01*
X1083244Y273244D01*
X1081756Y274239D01*
X1080000Y274588D01*
D02*
G37*
G36*
X1000000D02*
X998244Y274239D01*
X996756Y273244D01*
X995761Y271756D01*
X995412Y270000D01*
X995761Y268244D01*
X996756Y266756D01*
X998244Y265761D01*
X1000000Y265412D01*
X1001756Y265761D01*
X1003244Y266756D01*
X1004239Y268244D01*
X1004588Y270000D01*
X1004239Y271756D01*
X1003244Y273244D01*
X1001756Y274239D01*
X1000000Y274588D01*
D02*
G37*
G36*
X960000D02*
X958244Y274239D01*
X956756Y273244D01*
X955761Y271756D01*
X955412Y270000D01*
X955761Y268244D01*
X956756Y266756D01*
X958244Y265761D01*
X960000Y265412D01*
X961756Y265761D01*
X963244Y266756D01*
X964239Y268244D01*
X964588Y270000D01*
X964239Y271756D01*
X963244Y273244D01*
X961756Y274239D01*
X960000Y274588D01*
D02*
G37*
G36*
X920000D02*
X918244Y274239D01*
X916756Y273244D01*
X915761Y271756D01*
X915412Y270000D01*
X915761Y268244D01*
X916756Y266756D01*
X918244Y265761D01*
X920000Y265412D01*
X921756Y265761D01*
X923244Y266756D01*
X924239Y268244D01*
X924588Y270000D01*
X924239Y271756D01*
X923244Y273244D01*
X921756Y274239D01*
X920000Y274588D01*
D02*
G37*
G36*
X880000D02*
X878244Y274239D01*
X876756Y273244D01*
X875761Y271756D01*
X875412Y270000D01*
X875761Y268244D01*
X876756Y266756D01*
X878244Y265761D01*
X880000Y265412D01*
X881756Y265761D01*
X883244Y266756D01*
X884239Y268244D01*
X884588Y270000D01*
X884239Y271756D01*
X883244Y273244D01*
X881756Y274239D01*
X880000Y274588D01*
D02*
G37*
G36*
X840000D02*
X838244Y274239D01*
X836756Y273244D01*
X835761Y271756D01*
X835412Y270000D01*
X835761Y268244D01*
X836756Y266756D01*
X838244Y265761D01*
X840000Y265412D01*
X841756Y265761D01*
X843244Y266756D01*
X844239Y268244D01*
X844588Y270000D01*
X844239Y271756D01*
X843244Y273244D01*
X841756Y274239D01*
X840000Y274588D01*
D02*
G37*
G36*
X760000D02*
X758244Y274239D01*
X756756Y273244D01*
X755761Y271756D01*
X755412Y270000D01*
X755761Y268244D01*
X756756Y266756D01*
X758244Y265761D01*
X760000Y265412D01*
X761756Y265761D01*
X763244Y266756D01*
X764239Y268244D01*
X764588Y270000D01*
X764239Y271756D01*
X763244Y273244D01*
X761756Y274239D01*
X760000Y274588D01*
D02*
G37*
G36*
X640000D02*
X638244Y274239D01*
X636756Y273244D01*
X635761Y271756D01*
X635412Y270000D01*
X635761Y268244D01*
X636756Y266756D01*
X638244Y265761D01*
X640000Y265412D01*
X641756Y265761D01*
X643244Y266756D01*
X644239Y268244D01*
X644588Y270000D01*
X644239Y271756D01*
X643244Y273244D01*
X641756Y274239D01*
X640000Y274588D01*
D02*
G37*
G36*
X600000D02*
X598244Y274239D01*
X596756Y273244D01*
X595761Y271756D01*
X595412Y270000D01*
X595761Y268244D01*
X596756Y266756D01*
X598244Y265761D01*
X600000Y265412D01*
X601756Y265761D01*
X603244Y266756D01*
X604239Y268244D01*
X604588Y270000D01*
X604239Y271756D01*
X603244Y273244D01*
X601756Y274239D01*
X600000Y274588D01*
D02*
G37*
G36*
X120000D02*
X118244Y274239D01*
X116756Y273244D01*
X115761Y271756D01*
X115412Y270000D01*
X115761Y268244D01*
X116756Y266756D01*
X118244Y265761D01*
X120000Y265412D01*
X121756Y265761D01*
X123244Y266756D01*
X124239Y268244D01*
X124588Y270000D01*
X124239Y271756D01*
X123244Y273244D01*
X121756Y274239D01*
X120000Y274588D01*
D02*
G37*
G36*
X80000D02*
X78244Y274239D01*
X76756Y273244D01*
X75761Y271756D01*
X75412Y270000D01*
X75761Y268244D01*
X76756Y266756D01*
X78244Y265761D01*
X80000Y265412D01*
X81756Y265761D01*
X83244Y266756D01*
X84239Y268244D01*
X84588Y270000D01*
X84239Y271756D01*
X83244Y273244D01*
X81756Y274239D01*
X80000Y274588D01*
D02*
G37*
G36*
X382000Y270588D02*
X380244Y270239D01*
X378756Y269244D01*
X377761Y267756D01*
X377412Y266000D01*
X377761Y264244D01*
X378756Y262756D01*
X380244Y261761D01*
X382000Y261412D01*
X383756Y261761D01*
X385244Y262756D01*
X386239Y264244D01*
X386588Y266000D01*
X386239Y267756D01*
X385244Y269244D01*
X383756Y270239D01*
X382000Y270588D01*
D02*
G37*
G36*
X357000D02*
X355244Y270239D01*
X353756Y269244D01*
X352761Y267756D01*
X352412Y266000D01*
X352761Y264244D01*
X353756Y262756D01*
X355244Y261761D01*
X357000Y261412D01*
X358756Y261761D01*
X360244Y262756D01*
X361239Y264244D01*
X361588Y266000D01*
X361239Y267756D01*
X360244Y269244D01*
X358756Y270239D01*
X357000Y270588D01*
D02*
G37*
G36*
X945000Y266588D02*
X943244Y266239D01*
X941756Y265244D01*
X940761Y263756D01*
X940412Y262000D01*
X940761Y260244D01*
X941756Y258756D01*
X943244Y257761D01*
X945000Y257412D01*
X946756Y257761D01*
X948244Y258756D01*
X949239Y260244D01*
X949588Y262000D01*
X949239Y263756D01*
X948244Y265244D01*
X946756Y266239D01*
X945000Y266588D01*
D02*
G37*
G36*
X280000Y266338D02*
X278244Y265989D01*
X276756Y264994D01*
X275761Y263506D01*
X275412Y261750D01*
X275761Y259994D01*
X276756Y258506D01*
X278244Y257511D01*
X280000Y257162D01*
X281756Y257511D01*
X283244Y258506D01*
X284239Y259994D01*
X284588Y261750D01*
X284239Y263506D01*
X283244Y264994D01*
X281756Y265989D01*
X280000Y266338D01*
D02*
G37*
G36*
X176000Y264588D02*
X174244Y264239D01*
X172756Y263244D01*
X171761Y261756D01*
X171412Y260000D01*
X171761Y258244D01*
X172756Y256756D01*
X174244Y255761D01*
X176000Y255412D01*
X177756Y255761D01*
X179244Y256756D01*
X180239Y258244D01*
X180588Y260000D01*
X180239Y261756D01*
X179244Y263244D01*
X177756Y264239D01*
X176000Y264588D01*
D02*
G37*
G36*
X257000Y262588D02*
X255244Y262239D01*
X253756Y261244D01*
X252761Y259756D01*
X252412Y258000D01*
X252761Y256244D01*
X253756Y254756D01*
X255244Y253761D01*
X257000Y253412D01*
X258756Y253761D01*
X260244Y254756D01*
X261239Y256244D01*
X261588Y258000D01*
X261239Y259756D01*
X260244Y261244D01*
X258756Y262239D01*
X257000Y262588D01*
D02*
G37*
G36*
X387000Y256588D02*
X385244Y256239D01*
X383756Y255244D01*
X382761Y253756D01*
X382412Y252000D01*
X382761Y250244D01*
X383756Y248756D01*
X385244Y247761D01*
X387000Y247412D01*
X388756Y247761D01*
X390244Y248756D01*
X391239Y250244D01*
X391588Y252000D01*
X391239Y253756D01*
X390244Y255244D01*
X388756Y256239D01*
X387000Y256588D01*
D02*
G37*
G36*
X650000Y263588D02*
X648244Y263239D01*
X646756Y262244D01*
X645761Y260756D01*
X645412Y259000D01*
X645761Y257244D01*
X646756Y255756D01*
X647720Y255111D01*
X647827Y254730D01*
Y253270D01*
X647720Y252889D01*
X646756Y252244D01*
X645761Y250756D01*
X645412Y249000D01*
X645761Y247244D01*
X646756Y245756D01*
X648244Y244761D01*
X650000Y244412D01*
X651756Y244761D01*
X653244Y245756D01*
X654239Y247244D01*
X654588Y249000D01*
X654239Y250756D01*
X653244Y252244D01*
X652280Y252889D01*
X652173Y253270D01*
Y254730D01*
X652280Y255111D01*
X653244Y255756D01*
X654239Y257244D01*
X654588Y259000D01*
X654239Y260756D01*
X653244Y262244D01*
X651756Y263239D01*
X650000Y263588D01*
D02*
G37*
G36*
X1152000Y256588D02*
X1150244Y256239D01*
X1148756Y255244D01*
X1147761Y253756D01*
X1147412Y252000D01*
X1147761Y250244D01*
X1148756Y248756D01*
Y247244D01*
X1147761Y245756D01*
X1147412Y244000D01*
X1147761Y242244D01*
X1148756Y240756D01*
X1150244Y239761D01*
X1152000Y239412D01*
X1153756Y239761D01*
X1155244Y240756D01*
X1156239Y242244D01*
X1156588Y244000D01*
X1156239Y245756D01*
X1155244Y247244D01*
Y248756D01*
X1156239Y250244D01*
X1156588Y252000D01*
X1156239Y253756D01*
X1155244Y255244D01*
X1153756Y256239D01*
X1152000Y256588D01*
D02*
G37*
G36*
X1130000Y242588D02*
X1128244Y242239D01*
X1126756Y241244D01*
X1125761Y239756D01*
X1125412Y238000D01*
X1125761Y236244D01*
X1126756Y234756D01*
X1128244Y233761D01*
X1130000Y233412D01*
X1131756Y233761D01*
X1133244Y234756D01*
X1134239Y236244D01*
X1134588Y238000D01*
X1134239Y239756D01*
X1133244Y241244D01*
X1131756Y242239D01*
X1130000Y242588D01*
D02*
G37*
G36*
X1098000Y240588D02*
X1096244Y240239D01*
X1094756Y239244D01*
X1093761Y237756D01*
X1093412Y236000D01*
X1093761Y234244D01*
X1094756Y232756D01*
X1096244Y231761D01*
X1098000Y231412D01*
X1099756Y231761D01*
X1101244Y232756D01*
X1102239Y234244D01*
X1102588Y236000D01*
X1102239Y237756D01*
X1101244Y239244D01*
X1099756Y240239D01*
X1098000Y240588D01*
D02*
G37*
G36*
X176000D02*
X174244Y240239D01*
X172756Y239244D01*
X171761Y237756D01*
X171412Y236000D01*
X171761Y234244D01*
X172756Y232756D01*
X174244Y231761D01*
X176000Y231412D01*
X177756Y231761D01*
X179244Y232756D01*
X180239Y234244D01*
X180588Y236000D01*
X180239Y237756D01*
X179244Y239244D01*
X177756Y240239D01*
X176000Y240588D01*
D02*
G37*
G36*
X98000D02*
X96244Y240239D01*
X94756Y239244D01*
X93761Y237756D01*
X93412Y236000D01*
X93761Y234244D01*
X94756Y232756D01*
X96244Y231761D01*
X98000Y231412D01*
X99756Y231761D01*
X101244Y232756D01*
X102239Y234244D01*
X102588Y236000D01*
X102239Y237756D01*
X101244Y239244D01*
X99756Y240239D01*
X98000Y240588D01*
D02*
G37*
G36*
X146000Y240088D02*
X144244Y239739D01*
X142756Y238744D01*
X141761Y237256D01*
X141412Y235500D01*
X141761Y233744D01*
X142756Y232256D01*
X144244Y231261D01*
X146000Y230912D01*
X147756Y231261D01*
X149244Y232256D01*
X150239Y233744D01*
X150588Y235500D01*
X150239Y237256D01*
X149244Y238744D01*
X147756Y239739D01*
X146000Y240088D01*
D02*
G37*
G36*
X1020000Y234588D02*
X1018244Y234239D01*
X1016756Y233244D01*
X1015761Y231756D01*
X1015412Y230000D01*
X1015761Y228244D01*
X1016756Y226756D01*
X1018244Y225761D01*
X1020000Y225412D01*
X1021756Y225761D01*
X1023244Y226756D01*
X1024239Y228244D01*
X1024588Y230000D01*
X1024239Y231756D01*
X1023244Y233244D01*
X1021756Y234239D01*
X1020000Y234588D01*
D02*
G37*
G36*
X980000D02*
X978244Y234239D01*
X976756Y233244D01*
X975761Y231756D01*
X975412Y230000D01*
X975761Y228244D01*
X976756Y226756D01*
X978244Y225761D01*
X980000Y225412D01*
X981756Y225761D01*
X983244Y226756D01*
X984239Y228244D01*
X984588Y230000D01*
X984239Y231756D01*
X983244Y233244D01*
X981756Y234239D01*
X980000Y234588D01*
D02*
G37*
G36*
X940000D02*
X938244Y234239D01*
X936756Y233244D01*
X935761Y231756D01*
X935412Y230000D01*
X935761Y228244D01*
X936756Y226756D01*
X938244Y225761D01*
X940000Y225412D01*
X941756Y225761D01*
X943244Y226756D01*
X944239Y228244D01*
X944588Y230000D01*
X944239Y231756D01*
X943244Y233244D01*
X941756Y234239D01*
X940000Y234588D01*
D02*
G37*
G36*
X900000D02*
X898244Y234239D01*
X896756Y233244D01*
X895761Y231756D01*
X895412Y230000D01*
X895761Y228244D01*
X896756Y226756D01*
X898244Y225761D01*
X900000Y225412D01*
X901756Y225761D01*
X903244Y226756D01*
X904239Y228244D01*
X904588Y230000D01*
X904239Y231756D01*
X903244Y233244D01*
X901756Y234239D01*
X900000Y234588D01*
D02*
G37*
G36*
X860000D02*
X858244Y234239D01*
X856756Y233244D01*
X855761Y231756D01*
X855412Y230000D01*
X855761Y228244D01*
X856756Y226756D01*
X858244Y225761D01*
X860000Y225412D01*
X861756Y225761D01*
X863244Y226756D01*
X864239Y228244D01*
X864588Y230000D01*
X864239Y231756D01*
X863244Y233244D01*
X861756Y234239D01*
X860000Y234588D01*
D02*
G37*
G36*
X500000D02*
X498244Y234239D01*
X496756Y233244D01*
X495761Y231756D01*
X495412Y230000D01*
X495761Y228244D01*
X496756Y226756D01*
X498244Y225761D01*
X500000Y225412D01*
X501756Y225761D01*
X503244Y226756D01*
X504239Y228244D01*
X504588Y230000D01*
X504239Y231756D01*
X503244Y233244D01*
X501756Y234239D01*
X500000Y234588D01*
D02*
G37*
G36*
X300000D02*
X298244Y234239D01*
X296756Y233244D01*
X295761Y231756D01*
X295412Y230000D01*
X295761Y228244D01*
X296756Y226756D01*
X298244Y225761D01*
X300000Y225412D01*
X301756Y225761D01*
X303244Y226756D01*
X304239Y228244D01*
X304588Y230000D01*
X304239Y231756D01*
X303244Y233244D01*
X301756Y234239D01*
X300000Y234588D01*
D02*
G37*
G36*
X220000D02*
X218244Y234239D01*
X216756Y233244D01*
X215761Y231756D01*
X215412Y230000D01*
X215761Y228244D01*
X216756Y226756D01*
X218244Y225761D01*
X220000Y225412D01*
X221756Y225761D01*
X223244Y226756D01*
X224239Y228244D01*
X224588Y230000D01*
X224239Y231756D01*
X223244Y233244D01*
X221756Y234239D01*
X220000Y234588D01*
D02*
G37*
G36*
X525000Y233588D02*
X523244Y233239D01*
X521756Y232244D01*
X520761Y230756D01*
X520412Y229000D01*
X520761Y227244D01*
X521756Y225756D01*
X523244Y224761D01*
X525000Y224412D01*
X526756Y224761D01*
X528244Y225756D01*
X529239Y227244D01*
X529588Y229000D01*
X529239Y230756D01*
X528244Y232244D01*
X526756Y233239D01*
X525000Y233588D01*
D02*
G37*
G36*
X271000Y231088D02*
X269244Y230739D01*
X267756Y229744D01*
X266761Y228256D01*
X266412Y226500D01*
X266761Y224744D01*
X267756Y223256D01*
X269244Y222261D01*
X271000Y221912D01*
X272756Y222261D01*
X274244Y223256D01*
X275239Y224744D01*
X275588Y226500D01*
X275239Y228256D01*
X274244Y229744D01*
X272756Y230739D01*
X271000Y231088D01*
D02*
G37*
G36*
X455000Y237573D02*
X452781Y237281D01*
X450713Y236425D01*
X448938Y235062D01*
X447575Y233287D01*
X446719Y231219D01*
X446427Y229000D01*
X446719Y226781D01*
X447575Y224713D01*
X448938Y222938D01*
X450713Y221575D01*
X452781Y220719D01*
X455000Y220427D01*
X457219Y220719D01*
X459287Y221575D01*
X461062Y222938D01*
X462425Y224713D01*
X463281Y226781D01*
X463573Y229000D01*
X463281Y231219D01*
X462425Y233287D01*
X461062Y235062D01*
X459287Y236425D01*
X457219Y237281D01*
X455000Y237573D01*
D02*
G37*
G36*
X435000D02*
X432781Y237281D01*
X430713Y236425D01*
X428938Y235062D01*
X427575Y233287D01*
X426719Y231219D01*
X426427Y229000D01*
X426719Y226781D01*
X427575Y224713D01*
X428938Y222938D01*
X430713Y221575D01*
X432781Y220719D01*
X435000Y220427D01*
X437219Y220719D01*
X439287Y221575D01*
X441062Y222938D01*
X442425Y224713D01*
X443281Y226781D01*
X443573Y229000D01*
X443281Y231219D01*
X442425Y233287D01*
X441062Y235062D01*
X439287Y236425D01*
X437219Y237281D01*
X435000Y237573D01*
D02*
G37*
G36*
X415000D02*
X412781Y237281D01*
X410713Y236425D01*
X408938Y235062D01*
X407575Y233287D01*
X406719Y231219D01*
X406427Y229000D01*
X406719Y226781D01*
X407575Y224713D01*
X408938Y222938D01*
X410713Y221575D01*
X412781Y220719D01*
X415000Y220427D01*
X417219Y220719D01*
X419287Y221575D01*
X421062Y222938D01*
X422425Y224713D01*
X423281Y226781D01*
X423573Y229000D01*
X423281Y231219D01*
X422425Y233287D01*
X421062Y235062D01*
X419287Y236425D01*
X417219Y237281D01*
X415000Y237573D01*
D02*
G37*
G36*
X395000D02*
X392781Y237281D01*
X390713Y236425D01*
X388938Y235062D01*
X387575Y233287D01*
X386719Y231219D01*
X386427Y229000D01*
X386719Y226781D01*
X387575Y224713D01*
X388938Y222938D01*
X390713Y221575D01*
X392781Y220719D01*
X395000Y220427D01*
X397219Y220719D01*
X399287Y221575D01*
X401062Y222938D01*
X402425Y224713D01*
X403281Y226781D01*
X403573Y229000D01*
X403281Y231219D01*
X402425Y233287D01*
X401062Y235062D01*
X399287Y236425D01*
X397219Y237281D01*
X395000Y237573D01*
D02*
G37*
G36*
X375000D02*
X372781Y237281D01*
X370713Y236425D01*
X368938Y235062D01*
X367575Y233287D01*
X366719Y231219D01*
X366427Y229000D01*
X366719Y226781D01*
X367575Y224713D01*
X368938Y222938D01*
X370713Y221575D01*
X372781Y220719D01*
X375000Y220427D01*
X377219Y220719D01*
X379287Y221575D01*
X381062Y222938D01*
X382425Y224713D01*
X383281Y226781D01*
X383573Y229000D01*
X383281Y231219D01*
X382425Y233287D01*
X381062Y235062D01*
X379287Y236425D01*
X377219Y237281D01*
X375000Y237573D01*
D02*
G37*
G36*
X355000D02*
X352781Y237281D01*
X350713Y236425D01*
X348938Y235062D01*
X347575Y233287D01*
X346719Y231219D01*
X346427Y229000D01*
X346719Y226781D01*
X347575Y224713D01*
X348938Y222938D01*
X350713Y221575D01*
X352781Y220719D01*
X355000Y220427D01*
X357219Y220719D01*
X359287Y221575D01*
X361062Y222938D01*
X362425Y224713D01*
X363281Y226781D01*
X363573Y229000D01*
X363281Y231219D01*
X362425Y233287D01*
X361062Y235062D01*
X359287Y236425D01*
X357219Y237281D01*
X355000Y237573D01*
D02*
G37*
G36*
X335000D02*
X332781Y237281D01*
X330713Y236425D01*
X328938Y235062D01*
X327575Y233287D01*
X326719Y231219D01*
X326427Y229000D01*
X326719Y226781D01*
X327575Y224713D01*
X328938Y222938D01*
X330713Y221575D01*
X332781Y220719D01*
X335000Y220427D01*
X337219Y220719D01*
X339287Y221575D01*
X341062Y222938D01*
X342425Y224713D01*
X343281Y226781D01*
X343573Y229000D01*
X343281Y231219D01*
X342425Y233287D01*
X341062Y235062D01*
X339287Y236425D01*
X337219Y237281D01*
X335000Y237573D01*
D02*
G37*
G36*
X643000Y229588D02*
X641244Y229239D01*
X639756Y228244D01*
X638761Y226756D01*
X638412Y225000D01*
X638761Y223244D01*
X639756Y221756D01*
X641244Y220761D01*
X643000Y220412D01*
X644756Y220761D01*
X646244Y221756D01*
X647239Y223244D01*
X647588Y225000D01*
X647239Y226756D01*
X646244Y228244D01*
X644756Y229239D01*
X643000Y229588D01*
D02*
G37*
G36*
X1154000Y212588D02*
X1152244Y212239D01*
X1150756Y211244D01*
X1149761Y209756D01*
X1149412Y208000D01*
X1149761Y206244D01*
X1150756Y204756D01*
X1152244Y203761D01*
X1154000Y203412D01*
X1155756Y203761D01*
X1157244Y204756D01*
X1158239Y206244D01*
X1158588Y208000D01*
X1158239Y209756D01*
X1157244Y211244D01*
X1155756Y212239D01*
X1154000Y212588D01*
D02*
G37*
G36*
X455000Y217573D02*
X452781Y217281D01*
X450713Y216425D01*
X448938Y215062D01*
X447575Y213287D01*
X446719Y211219D01*
X446427Y209000D01*
X446719Y206781D01*
X447575Y204713D01*
X448938Y202938D01*
X450713Y201575D01*
X452781Y200719D01*
X455000Y200427D01*
X457219Y200719D01*
X459287Y201575D01*
X461062Y202938D01*
X462425Y204713D01*
X463281Y206781D01*
X463573Y209000D01*
X463281Y211219D01*
X462425Y213287D01*
X461062Y215062D01*
X459287Y216425D01*
X457219Y217281D01*
X455000Y217573D01*
D02*
G37*
G36*
X435000D02*
X432781Y217281D01*
X430713Y216425D01*
X428938Y215062D01*
X427575Y213287D01*
X426719Y211219D01*
X426427Y209000D01*
X426719Y206781D01*
X427575Y204713D01*
X428938Y202938D01*
X430713Y201575D01*
X432781Y200719D01*
X435000Y200427D01*
X437219Y200719D01*
X439287Y201575D01*
X441062Y202938D01*
X442425Y204713D01*
X443281Y206781D01*
X443573Y209000D01*
X443281Y211219D01*
X442425Y213287D01*
X441062Y215062D01*
X439287Y216425D01*
X437219Y217281D01*
X435000Y217573D01*
D02*
G37*
G36*
X415000D02*
X412781Y217281D01*
X410713Y216425D01*
X408938Y215062D01*
X407575Y213287D01*
X406719Y211219D01*
X406427Y209000D01*
X406719Y206781D01*
X407575Y204713D01*
X408938Y202938D01*
X410713Y201575D01*
X412781Y200719D01*
X415000Y200427D01*
X417219Y200719D01*
X419287Y201575D01*
X421062Y202938D01*
X422425Y204713D01*
X423281Y206781D01*
X423573Y209000D01*
X423281Y211219D01*
X422425Y213287D01*
X421062Y215062D01*
X419287Y216425D01*
X417219Y217281D01*
X415000Y217573D01*
D02*
G37*
G36*
X395000D02*
X392781Y217281D01*
X390713Y216425D01*
X388938Y215062D01*
X387575Y213287D01*
X386719Y211219D01*
X386427Y209000D01*
X386719Y206781D01*
X387575Y204713D01*
X388938Y202938D01*
X390713Y201575D01*
X392781Y200719D01*
X395000Y200427D01*
X397219Y200719D01*
X399287Y201575D01*
X401062Y202938D01*
X402425Y204713D01*
X403281Y206781D01*
X403573Y209000D01*
X403281Y211219D01*
X402425Y213287D01*
X401062Y215062D01*
X399287Y216425D01*
X397219Y217281D01*
X395000Y217573D01*
D02*
G37*
G36*
X375000D02*
X372781Y217281D01*
X370713Y216425D01*
X368938Y215062D01*
X367575Y213287D01*
X366719Y211219D01*
X366427Y209000D01*
X366719Y206781D01*
X367575Y204713D01*
X368938Y202938D01*
X370713Y201575D01*
X372781Y200719D01*
X375000Y200427D01*
X377219Y200719D01*
X379287Y201575D01*
X381062Y202938D01*
X382425Y204713D01*
X383281Y206781D01*
X383573Y209000D01*
X383281Y211219D01*
X382425Y213287D01*
X381062Y215062D01*
X379287Y216425D01*
X377219Y217281D01*
X375000Y217573D01*
D02*
G37*
G36*
X355000D02*
X352781Y217281D01*
X350713Y216425D01*
X348938Y215062D01*
X347575Y213287D01*
X346719Y211219D01*
X346427Y209000D01*
X346719Y206781D01*
X347575Y204713D01*
X348938Y202938D01*
X350713Y201575D01*
X352781Y200719D01*
X355000Y200427D01*
X357219Y200719D01*
X359287Y201575D01*
X361062Y202938D01*
X362425Y204713D01*
X363281Y206781D01*
X363573Y209000D01*
X363281Y211219D01*
X362425Y213287D01*
X361062Y215062D01*
X359287Y216425D01*
X357219Y217281D01*
X355000Y217573D01*
D02*
G37*
G36*
X335000D02*
X332781Y217281D01*
X330713Y216425D01*
X328938Y215062D01*
X327575Y213287D01*
X326719Y211219D01*
X326427Y209000D01*
X326719Y206781D01*
X327575Y204713D01*
X328938Y202938D01*
X330713Y201575D01*
X332781Y200719D01*
X335000Y200427D01*
X337219Y200719D01*
X339287Y201575D01*
X341062Y202938D01*
X342425Y204713D01*
X343281Y206781D01*
X343573Y209000D01*
X343281Y211219D01*
X342425Y213287D01*
X341062Y215062D01*
X339287Y216425D01*
X337219Y217281D01*
X335000Y217573D01*
D02*
G37*
G36*
X799000Y208588D02*
X797244Y208239D01*
X795756Y207244D01*
X794761Y205756D01*
X794412Y204000D01*
X794761Y202244D01*
X795756Y200756D01*
X797244Y199761D01*
X799000Y199412D01*
X800756Y199761D01*
X802244Y200756D01*
X803239Y202244D01*
X803588Y204000D01*
X803239Y205756D01*
X802244Y207244D01*
X800756Y208239D01*
X799000Y208588D01*
D02*
G37*
G36*
X585000Y204588D02*
X583244Y204239D01*
X581756Y203244D01*
X580761Y201756D01*
X580412Y200000D01*
X580761Y198244D01*
X581756Y196756D01*
X583244Y195761D01*
X585000Y195412D01*
X586756Y195761D01*
X588244Y196756D01*
X589239Y198244D01*
X589588Y200000D01*
X589239Y201756D01*
X588244Y203244D01*
X586756Y204239D01*
X585000Y204588D01*
D02*
G37*
G36*
X722000Y202588D02*
X720244Y202239D01*
X718756Y201244D01*
X717761Y199756D01*
X717412Y198000D01*
X717761Y196244D01*
X718756Y194756D01*
X720244Y193761D01*
X722000Y193412D01*
X723756Y193761D01*
X725244Y194756D01*
X726239Y196244D01*
X726588Y198000D01*
X726239Y199756D01*
X725244Y201244D01*
X723756Y202239D01*
X722000Y202588D01*
D02*
G37*
G36*
X514000Y194588D02*
X512244Y194239D01*
X510756Y193244D01*
X509761Y191756D01*
X509412Y190000D01*
X509761Y188244D01*
X510756Y186756D01*
X512244Y185761D01*
X514000Y185412D01*
X515756Y185761D01*
X517244Y186756D01*
X518239Y188244D01*
X518588Y190000D01*
X518239Y191756D01*
X517244Y193244D01*
X515756Y194239D01*
X514000Y194588D01*
D02*
G37*
G36*
X1160000Y194588D02*
X1158244Y194239D01*
X1156756Y193244D01*
X1155761Y191756D01*
X1155412Y190000D01*
X1155761Y188244D01*
X1156756Y186756D01*
X1158244Y185761D01*
X1160000Y185412D01*
X1161756Y185761D01*
X1163244Y186756D01*
X1164239Y188244D01*
X1164588Y190000D01*
X1164239Y191756D01*
X1163244Y193244D01*
X1161756Y194239D01*
X1160000Y194588D01*
D02*
G37*
G36*
X1120000D02*
X1118244Y194239D01*
X1116756Y193244D01*
X1115761Y191756D01*
X1115412Y190000D01*
X1115761Y188244D01*
X1116756Y186756D01*
X1118244Y185761D01*
X1120000Y185412D01*
X1121756Y185761D01*
X1123244Y186756D01*
X1124239Y188244D01*
X1124588Y190000D01*
X1124239Y191756D01*
X1123244Y193244D01*
X1121756Y194239D01*
X1120000Y194588D01*
D02*
G37*
G36*
X1040000D02*
X1038244Y194239D01*
X1036756Y193244D01*
X1035761Y191756D01*
X1035412Y190000D01*
X1035761Y188244D01*
X1036756Y186756D01*
X1038244Y185761D01*
X1040000Y185412D01*
X1041756Y185761D01*
X1043244Y186756D01*
X1044239Y188244D01*
X1044588Y190000D01*
X1044239Y191756D01*
X1043244Y193244D01*
X1041756Y194239D01*
X1040000Y194588D01*
D02*
G37*
G36*
X1000000D02*
X998244Y194239D01*
X996756Y193244D01*
X995761Y191756D01*
X995412Y190000D01*
X995761Y188244D01*
X996756Y186756D01*
X998244Y185761D01*
X1000000Y185412D01*
X1001756Y185761D01*
X1003244Y186756D01*
X1004239Y188244D01*
X1004588Y190000D01*
X1004239Y191756D01*
X1003244Y193244D01*
X1001756Y194239D01*
X1000000Y194588D01*
D02*
G37*
G36*
X960000D02*
X958244Y194239D01*
X956756Y193244D01*
X955761Y191756D01*
X955412Y190000D01*
X955761Y188244D01*
X956756Y186756D01*
X958244Y185761D01*
X960000Y185412D01*
X961756Y185761D01*
X963244Y186756D01*
X964239Y188244D01*
X964588Y190000D01*
X964239Y191756D01*
X963244Y193244D01*
X961756Y194239D01*
X960000Y194588D01*
D02*
G37*
G36*
X920000D02*
X918244Y194239D01*
X916756Y193244D01*
X915761Y191756D01*
X915412Y190000D01*
X915761Y188244D01*
X916756Y186756D01*
X918244Y185761D01*
X920000Y185412D01*
X921756Y185761D01*
X923244Y186756D01*
X924239Y188244D01*
X924588Y190000D01*
X924239Y191756D01*
X923244Y193244D01*
X921756Y194239D01*
X920000Y194588D01*
D02*
G37*
G36*
X480000D02*
X478244Y194239D01*
X476756Y193244D01*
X475761Y191756D01*
X475412Y190000D01*
X475761Y188244D01*
X476756Y186756D01*
X478244Y185761D01*
X480000Y185412D01*
X481756Y185761D01*
X483244Y186756D01*
X484239Y188244D01*
X484588Y190000D01*
X484239Y191756D01*
X483244Y193244D01*
X481756Y194239D01*
X480000Y194588D01*
D02*
G37*
G36*
X281000Y202588D02*
X279244Y202239D01*
X277756Y201244D01*
X276761Y199756D01*
X276412Y198000D01*
X276761Y196244D01*
X277756Y194756D01*
X276651Y193088D01*
X275761Y191756D01*
X275412Y190000D01*
X275761Y188244D01*
X276756Y186756D01*
X278244Y185761D01*
X280000Y185412D01*
X281756Y185761D01*
X283244Y186756D01*
X284239Y188244D01*
X284588Y190000D01*
X284239Y191756D01*
X283244Y193244D01*
X284349Y194912D01*
X285239Y196244D01*
X285588Y198000D01*
X285239Y199756D01*
X284244Y201244D01*
X282756Y202239D01*
X281000Y202588D01*
D02*
G37*
G36*
X240000Y194588D02*
X238244Y194239D01*
X236756Y193244D01*
X235761Y191756D01*
X235412Y190000D01*
X235761Y188244D01*
X236756Y186756D01*
X238244Y185761D01*
X240000Y185412D01*
X241756Y185761D01*
X243244Y186756D01*
X244239Y188244D01*
X244588Y190000D01*
X244239Y191756D01*
X243244Y193244D01*
X241756Y194239D01*
X240000Y194588D01*
D02*
G37*
G36*
X200000D02*
X198244Y194239D01*
X196756Y193244D01*
X195761Y191756D01*
X195412Y190000D01*
X195761Y188244D01*
X196756Y186756D01*
X198244Y185761D01*
X200000Y185412D01*
X201756Y185761D01*
X203244Y186756D01*
X204239Y188244D01*
X204588Y190000D01*
X204239Y191756D01*
X203244Y193244D01*
X201756Y194239D01*
X200000Y194588D01*
D02*
G37*
G36*
X160000D02*
X158244Y194239D01*
X156756Y193244D01*
X155761Y191756D01*
X155412Y190000D01*
X155761Y188244D01*
X156756Y186756D01*
X158244Y185761D01*
X160000Y185412D01*
X161756Y185761D01*
X163244Y186756D01*
X164239Y188244D01*
X164588Y190000D01*
X164239Y191756D01*
X163244Y193244D01*
X161756Y194239D01*
X160000Y194588D01*
D02*
G37*
G36*
X120000D02*
X118244Y194239D01*
X116756Y193244D01*
X115761Y191756D01*
X115412Y190000D01*
X115761Y188244D01*
X116756Y186756D01*
X118244Y185761D01*
X120000Y185412D01*
X121756Y185761D01*
X123244Y186756D01*
X124239Y188244D01*
X124588Y190000D01*
X124239Y191756D01*
X123244Y193244D01*
X121756Y194239D01*
X120000Y194588D01*
D02*
G37*
G36*
X80000D02*
X78244Y194239D01*
X76756Y193244D01*
X75761Y191756D01*
X75412Y190000D01*
X75761Y188244D01*
X76756Y186756D01*
X78244Y185761D01*
X80000Y185412D01*
X81756Y185761D01*
X83244Y186756D01*
X84239Y188244D01*
X84588Y190000D01*
X84239Y191756D01*
X83244Y193244D01*
X81756Y194239D01*
X80000Y194588D01*
D02*
G37*
G36*
X710000Y188112D02*
X706606Y187665D01*
X703444Y186355D01*
X700728Y184272D01*
X698644Y181556D01*
X697335Y178394D01*
X696888Y175000D01*
X697335Y171606D01*
X698644Y168444D01*
X700728Y165728D01*
X703444Y163645D01*
X706606Y162335D01*
X710000Y161888D01*
X713394Y162335D01*
X716556Y163645D01*
X719272Y165728D01*
X721356Y168444D01*
X722665Y171606D01*
X723112Y175000D01*
X722665Y178394D01*
X721356Y181556D01*
X719272Y184272D01*
X716556Y186355D01*
X713394Y187665D01*
X710000Y188112D01*
D02*
G37*
G36*
X898000Y168588D02*
X896244Y168239D01*
X894756Y167244D01*
X893761Y165756D01*
X893412Y164000D01*
X893761Y162244D01*
X894756Y160756D01*
X896244Y159761D01*
X898000Y159412D01*
X899756Y159761D01*
X901244Y160756D01*
X902239Y162244D01*
X902588Y164000D01*
X902239Y165756D01*
X901244Y167244D01*
X899756Y168239D01*
X898000Y168588D01*
D02*
G37*
G36*
X1110000Y182608D02*
X1106737Y182178D01*
X1103696Y180919D01*
X1101085Y178915D01*
X1099081Y176304D01*
X1097822Y173263D01*
X1097392Y170000D01*
X1097822Y166737D01*
X1099081Y163696D01*
X1101085Y161085D01*
X1103696Y159081D01*
X1106737Y157822D01*
X1110000Y157392D01*
X1113263Y157822D01*
X1116304Y159081D01*
X1118915Y161085D01*
X1120919Y163696D01*
X1122178Y166737D01*
X1122608Y170000D01*
X1122178Y173263D01*
X1120919Y176304D01*
X1118915Y178915D01*
X1116304Y180919D01*
X1113263Y182178D01*
X1110000Y182608D01*
D02*
G37*
G36*
X110000D02*
X106737Y182178D01*
X103696Y180919D01*
X101085Y178915D01*
X99081Y176304D01*
X97822Y173263D01*
X97392Y170000D01*
X97822Y166737D01*
X99081Y163696D01*
X101085Y161085D01*
X103696Y159081D01*
X106737Y157822D01*
X110000Y157392D01*
X113263Y157822D01*
X116304Y159081D01*
X118915Y161085D01*
X120919Y163696D01*
X122178Y166737D01*
X122608Y170000D01*
X122178Y173263D01*
X120919Y176304D01*
X118915Y178915D01*
X116304Y180919D01*
X113263Y182178D01*
X110000Y182608D01*
D02*
G37*
G36*
X818000Y165588D02*
X816244Y165239D01*
X814756Y164244D01*
X813761Y162756D01*
X813412Y161000D01*
X813761Y159244D01*
X814756Y157756D01*
X816244Y156761D01*
X818000Y156412D01*
X819756Y156761D01*
X821244Y157756D01*
X822239Y159244D01*
X822588Y161000D01*
X822239Y162756D01*
X821244Y164244D01*
X819756Y165239D01*
X818000Y165588D01*
D02*
G37*
G36*
X795000Y164588D02*
X793244Y164239D01*
X791756Y163244D01*
X790761Y161756D01*
X790412Y160000D01*
X790761Y158244D01*
X791756Y156756D01*
X793244Y155761D01*
X795000Y155412D01*
X796756Y155761D01*
X798244Y156756D01*
X799239Y158244D01*
X799588Y160000D01*
X799239Y161756D01*
X798244Y163244D01*
X796756Y164239D01*
X795000Y164588D01*
D02*
G37*
G36*
X324000Y163588D02*
X322244Y163239D01*
X320756Y162244D01*
X319761Y160756D01*
X319412Y159000D01*
X319761Y157244D01*
X320756Y155756D01*
X322244Y154761D01*
X324000Y154412D01*
X325756Y154761D01*
X327244Y155756D01*
X328239Y157244D01*
X328588Y159000D01*
X328239Y160756D01*
X327244Y162244D01*
X325756Y163239D01*
X324000Y163588D01*
D02*
G37*
G36*
X372000Y154588D02*
X370244Y154239D01*
X368756Y153244D01*
X367761Y151756D01*
X367412Y150000D01*
X367761Y148244D01*
X368756Y146756D01*
X370244Y145761D01*
X372000Y145412D01*
X373756Y145761D01*
X375244Y146756D01*
X376239Y148244D01*
X376588Y150000D01*
X376239Y151756D01*
X375244Y153244D01*
X373756Y154239D01*
X372000Y154588D01*
D02*
G37*
G36*
X352000D02*
X350244Y154239D01*
X348756Y153244D01*
X347761Y151756D01*
X347412Y150000D01*
X347761Y148244D01*
X348756Y146756D01*
X350244Y145761D01*
X352000Y145412D01*
X353756Y145761D01*
X355244Y146756D01*
X356239Y148244D01*
X356588Y150000D01*
X356239Y151756D01*
X355244Y153244D01*
X353756Y154239D01*
X352000Y154588D01*
D02*
G37*
G36*
X1140000Y154588D02*
X1138244Y154239D01*
X1136756Y153244D01*
X1135761Y151756D01*
X1135412Y150000D01*
X1135761Y148244D01*
X1136756Y146756D01*
X1138244Y145761D01*
X1140000Y145412D01*
X1141756Y145761D01*
X1143244Y146756D01*
X1144239Y148244D01*
X1144588Y150000D01*
X1144239Y151756D01*
X1143244Y153244D01*
X1141756Y154239D01*
X1140000Y154588D01*
D02*
G37*
G36*
X1100000D02*
X1098244Y154239D01*
X1096756Y153244D01*
X1095761Y151756D01*
X1095412Y150000D01*
X1095761Y148244D01*
X1096756Y146756D01*
X1098244Y145761D01*
X1100000Y145412D01*
X1101756Y145761D01*
X1103244Y146756D01*
X1104239Y148244D01*
X1104588Y150000D01*
X1104239Y151756D01*
X1103244Y153244D01*
X1101756Y154239D01*
X1100000Y154588D01*
D02*
G37*
G36*
X1060000D02*
X1058244Y154239D01*
X1056756Y153244D01*
X1055761Y151756D01*
X1055412Y150000D01*
X1055761Y148244D01*
X1056756Y146756D01*
X1058244Y145761D01*
X1060000Y145412D01*
X1061756Y145761D01*
X1063244Y146756D01*
X1064239Y148244D01*
X1064588Y150000D01*
X1064239Y151756D01*
X1063244Y153244D01*
X1061756Y154239D01*
X1060000Y154588D01*
D02*
G37*
G36*
X1020000D02*
X1018244Y154239D01*
X1016756Y153244D01*
X1015761Y151756D01*
X1015412Y150000D01*
X1015761Y148244D01*
X1016756Y146756D01*
X1018244Y145761D01*
X1020000Y145412D01*
X1021756Y145761D01*
X1023244Y146756D01*
X1024239Y148244D01*
X1024588Y150000D01*
X1024239Y151756D01*
X1023244Y153244D01*
X1021756Y154239D01*
X1020000Y154588D01*
D02*
G37*
G36*
X980000D02*
X978244Y154239D01*
X976756Y153244D01*
X975761Y151756D01*
X975412Y150000D01*
X975761Y148244D01*
X976756Y146756D01*
X978244Y145761D01*
X980000Y145412D01*
X981756Y145761D01*
X983244Y146756D01*
X984239Y148244D01*
X984588Y150000D01*
X984239Y151756D01*
X983244Y153244D01*
X981756Y154239D01*
X980000Y154588D01*
D02*
G37*
G36*
X700000D02*
X698244Y154239D01*
X696756Y153244D01*
X695761Y151756D01*
X695412Y150000D01*
X695761Y148244D01*
X696756Y146756D01*
X698244Y145761D01*
X700000Y145412D01*
X701756Y145761D01*
X703244Y146756D01*
X704239Y148244D01*
X704588Y150000D01*
X704239Y151756D01*
X703244Y153244D01*
X701756Y154239D01*
X700000Y154588D01*
D02*
G37*
G36*
X260000D02*
X258244Y154239D01*
X256756Y153244D01*
X255761Y151756D01*
X255412Y150000D01*
X255761Y148244D01*
X256756Y146756D01*
X258244Y145761D01*
X260000Y145412D01*
X261756Y145761D01*
X263244Y146756D01*
X264239Y148244D01*
X264588Y150000D01*
X264239Y151756D01*
X263244Y153244D01*
X261756Y154239D01*
X260000Y154588D01*
D02*
G37*
G36*
X220000D02*
X218244Y154239D01*
X216756Y153244D01*
X215761Y151756D01*
X215412Y150000D01*
X215761Y148244D01*
X216756Y146756D01*
X218244Y145761D01*
X220000Y145412D01*
X221756Y145761D01*
X223244Y146756D01*
X224239Y148244D01*
X224588Y150000D01*
X224239Y151756D01*
X223244Y153244D01*
X221756Y154239D01*
X220000Y154588D01*
D02*
G37*
G36*
X140000D02*
X138244Y154239D01*
X136756Y153244D01*
X135761Y151756D01*
X135412Y150000D01*
X135761Y148244D01*
X136756Y146756D01*
X138244Y145761D01*
X140000Y145412D01*
X141756Y145761D01*
X143244Y146756D01*
X144239Y148244D01*
X144588Y150000D01*
X144239Y151756D01*
X143244Y153244D01*
X141756Y154239D01*
X140000Y154588D01*
D02*
G37*
G36*
X100000D02*
X98244Y154239D01*
X96756Y153244D01*
X95761Y151756D01*
X95412Y150000D01*
X95761Y148244D01*
X96756Y146756D01*
X98244Y145761D01*
X100000Y145412D01*
X101756Y145761D01*
X103244Y146756D01*
X104239Y148244D01*
X104588Y150000D01*
X104239Y151756D01*
X103244Y153244D01*
X101756Y154239D01*
X100000Y154588D01*
D02*
G37*
G36*
X868000Y143588D02*
X866244Y143239D01*
X864756Y142244D01*
X863761Y140756D01*
X863412Y139000D01*
X863761Y137244D01*
X864756Y135756D01*
X866244Y134761D01*
X868000Y134412D01*
X869756Y134761D01*
X871244Y135756D01*
X872239Y137244D01*
X872588Y139000D01*
X872239Y140756D01*
X871244Y142244D01*
X869756Y143239D01*
X868000Y143588D01*
D02*
G37*
G36*
X917000Y139588D02*
X915244Y139239D01*
X913756Y138244D01*
X912761Y136756D01*
X912412Y135000D01*
X912761Y133244D01*
X913756Y131756D01*
X915244Y130761D01*
X917000Y130412D01*
X918756Y130761D01*
X920244Y131756D01*
X921239Y133244D01*
X921588Y135000D01*
X921239Y136756D01*
X920244Y138244D01*
X918756Y139239D01*
X917000Y139588D01*
D02*
G37*
G36*
X766000Y137588D02*
X764244Y137239D01*
X762756Y136244D01*
X761761Y134756D01*
X761412Y133000D01*
X761761Y131244D01*
X762756Y129756D01*
X764244Y128761D01*
X766000Y128412D01*
X767756Y128761D01*
X769244Y129756D01*
X770239Y131244D01*
X770588Y133000D01*
X770239Y134756D01*
X769244Y136244D01*
X767756Y137239D01*
X766000Y137588D01*
D02*
G37*
G36*
X475000Y119588D02*
X473244Y119239D01*
X471756Y118244D01*
X470761Y116756D01*
X470412Y115000D01*
X470761Y113244D01*
X471756Y111756D01*
X473244Y110761D01*
X475000Y110412D01*
X476756Y110761D01*
X478244Y111756D01*
X479239Y113244D01*
X479588Y115000D01*
X479239Y116756D01*
X478244Y118244D01*
X476756Y119239D01*
X475000Y119588D01*
D02*
G37*
G36*
X1080000Y114588D02*
X1078244Y114239D01*
X1076756Y113244D01*
X1075761Y111756D01*
X1075412Y110000D01*
X1075761Y108244D01*
X1076756Y106756D01*
X1078244Y105761D01*
X1080000Y105412D01*
X1081756Y105761D01*
X1083244Y106756D01*
X1084239Y108244D01*
X1084588Y110000D01*
X1084239Y111756D01*
X1083244Y113244D01*
X1081756Y114239D01*
X1080000Y114588D01*
D02*
G37*
G36*
X1040000D02*
X1038244Y114239D01*
X1036756Y113244D01*
X1035761Y111756D01*
X1035412Y110000D01*
X1035761Y108244D01*
X1036756Y106756D01*
X1038244Y105761D01*
X1040000Y105412D01*
X1041756Y105761D01*
X1043244Y106756D01*
X1044239Y108244D01*
X1044588Y110000D01*
X1044239Y111756D01*
X1043244Y113244D01*
X1041756Y114239D01*
X1040000Y114588D01*
D02*
G37*
G36*
X960000D02*
X958244Y114239D01*
X956756Y113244D01*
X955761Y111756D01*
X955412Y110000D01*
X955761Y108244D01*
X956756Y106756D01*
X958244Y105761D01*
X960000Y105412D01*
X961756Y105761D01*
X963244Y106756D01*
X964239Y108244D01*
X964588Y110000D01*
X964239Y111756D01*
X963244Y113244D01*
X961756Y114239D01*
X960000Y114588D01*
D02*
G37*
G36*
X520000D02*
X518244Y114239D01*
X516756Y113244D01*
X515761Y111756D01*
X515412Y110000D01*
X515761Y108244D01*
X516756Y106756D01*
X518244Y105761D01*
X520000Y105412D01*
X521756Y105761D01*
X523244Y106756D01*
X524239Y108244D01*
X524588Y110000D01*
X524239Y111756D01*
X523244Y113244D01*
X521756Y114239D01*
X520000Y114588D01*
D02*
G37*
G36*
X280000D02*
X278244Y114239D01*
X276756Y113244D01*
X275761Y111756D01*
X275412Y110000D01*
X275761Y108244D01*
X276756Y106756D01*
X278244Y105761D01*
X280000Y105412D01*
X281756Y105761D01*
X283244Y106756D01*
X284239Y108244D01*
X284588Y110000D01*
X284239Y111756D01*
X283244Y113244D01*
X281756Y114239D01*
X280000Y114588D01*
D02*
G37*
G36*
X240000D02*
X238244Y114239D01*
X236756Y113244D01*
X235761Y111756D01*
X235412Y110000D01*
X235761Y108244D01*
X236756Y106756D01*
X238244Y105761D01*
X240000Y105412D01*
X241756Y105761D01*
X243244Y106756D01*
X244239Y108244D01*
X244588Y110000D01*
X244239Y111756D01*
X243244Y113244D01*
X241756Y114239D01*
X240000Y114588D01*
D02*
G37*
G36*
X200000D02*
X198244Y114239D01*
X196756Y113244D01*
X195761Y111756D01*
X195412Y110000D01*
X195761Y108244D01*
X196756Y106756D01*
X198244Y105761D01*
X200000Y105412D01*
X201756Y105761D01*
X203244Y106756D01*
X204239Y108244D01*
X204588Y110000D01*
X204239Y111756D01*
X203244Y113244D01*
X201756Y114239D01*
X200000Y114588D01*
D02*
G37*
G36*
X160000D02*
X158244Y114239D01*
X156756Y113244D01*
X155761Y111756D01*
X155412Y110000D01*
X155761Y108244D01*
X156756Y106756D01*
X158244Y105761D01*
X160000Y105412D01*
X161756Y105761D01*
X163244Y106756D01*
X164239Y108244D01*
X164588Y110000D01*
X164239Y111756D01*
X163244Y113244D01*
X161756Y114239D01*
X160000Y114588D01*
D02*
G37*
G36*
X120000D02*
X118244Y114239D01*
X116756Y113244D01*
X115761Y111756D01*
X115412Y110000D01*
X115761Y108244D01*
X116756Y106756D01*
X118244Y105761D01*
X120000Y105412D01*
X121756Y105761D01*
X123244Y106756D01*
X124239Y108244D01*
X124588Y110000D01*
X124239Y111756D01*
X123244Y113244D01*
X121756Y114239D01*
X120000Y114588D01*
D02*
G37*
G36*
X342000Y113588D02*
X340244Y113239D01*
X338756Y112244D01*
X337761Y110756D01*
X337412Y109000D01*
X337761Y107244D01*
X338756Y105756D01*
X340244Y104761D01*
X342000Y104412D01*
X343756Y104761D01*
X345244Y105756D01*
X346239Y107244D01*
X346588Y109000D01*
X346239Y110756D01*
X345244Y112244D01*
X343756Y113239D01*
X342000Y113588D01*
D02*
G37*
G36*
X838000Y109588D02*
X836244Y109239D01*
X834756Y108244D01*
X833761Y106756D01*
X833412Y105000D01*
X833761Y103244D01*
X834756Y101756D01*
X836244Y100761D01*
X838000Y100412D01*
X839756Y100761D01*
X841244Y101756D01*
X842239Y103244D01*
X842588Y105000D01*
X842239Y106756D01*
X841244Y108244D01*
X839756Y109239D01*
X838000Y109588D01*
D02*
G37*
G36*
X781000D02*
X779244Y109239D01*
X777756Y108244D01*
X776761Y106756D01*
X776412Y105000D01*
X776761Y103244D01*
X775855Y101244D01*
X774254Y100151D01*
X773313Y100765D01*
X772754Y101138D01*
X770999Y101487D01*
X769243Y101138D01*
X768720Y100788D01*
X766544Y100444D01*
X765056Y101439D01*
X763300Y101788D01*
X761544Y101439D01*
X761019Y101088D01*
X759244Y100144D01*
X757756Y101139D01*
X756000Y101488D01*
X754244Y101139D01*
X753374Y100557D01*
X752000Y100291D01*
X750626Y100557D01*
X749756Y101139D01*
X748000Y101488D01*
X746244Y101139D01*
X744756Y100144D01*
X743761Y98656D01*
X743412Y96900D01*
X743761Y95144D01*
X744756Y93656D01*
X746244Y92661D01*
X748000Y92312D01*
X749756Y92661D01*
X750626Y93243D01*
X752000Y93509D01*
X753374Y93243D01*
X754244Y92661D01*
X756000Y92312D01*
X757756Y92661D01*
X758281Y93012D01*
X759411Y93613D01*
X761296Y93127D01*
X761544Y92961D01*
X763300Y92612D01*
X765056Y92961D01*
X765579Y93310D01*
X767754Y93655D01*
X769243Y92660D01*
X770999Y92311D01*
X772754Y92660D01*
X774243Y93655D01*
X775844Y94748D01*
X776785Y94134D01*
X777344Y93761D01*
X779100Y93412D01*
X780856Y93761D01*
X782344Y94755D01*
X783339Y96244D01*
X783688Y98000D01*
X783339Y99756D01*
X782722Y100679D01*
X782756Y100761D01*
X784244Y101756D01*
X785239Y103244D01*
X785588Y105000D01*
X785239Y106756D01*
X784244Y108244D01*
X782756Y109239D01*
X781000Y109588D01*
D02*
G37*
G36*
X898251Y106839D02*
X896495Y106490D01*
X895006Y105495D01*
X894012Y104007D01*
X893663Y102251D01*
X894012Y100495D01*
X895006Y99007D01*
X896495Y98012D01*
X898251Y97663D01*
X900007Y98012D01*
X901495Y99007D01*
X902490Y100495D01*
X902839Y102251D01*
X902490Y104007D01*
X901495Y105495D01*
X900007Y106490D01*
X898251Y106839D01*
D02*
G37*
G36*
X885251D02*
X883495Y106490D01*
X882007Y105495D01*
X881012Y104007D01*
X880663Y102251D01*
X881012Y100495D01*
X882007Y99007D01*
X883495Y98012D01*
X885251Y97663D01*
X887007Y98012D01*
X888495Y99007D01*
X889490Y100495D01*
X889839Y102251D01*
X889490Y104007D01*
X888495Y105495D01*
X887007Y106490D01*
X885251Y106839D01*
D02*
G37*
G36*
X467000Y101588D02*
X465244Y101239D01*
X463756Y100244D01*
X462761Y98756D01*
X462412Y97000D01*
X462761Y95244D01*
X463756Y93756D01*
X465244Y92761D01*
X467000Y92412D01*
X468756Y92761D01*
X470244Y93756D01*
X471239Y95244D01*
X471588Y97000D01*
X471239Y98756D01*
X470244Y100244D01*
X468756Y101239D01*
X467000Y101588D01*
D02*
G37*
G36*
X449000D02*
X447244Y101239D01*
X445756Y100244D01*
X444761Y98756D01*
X444412Y97000D01*
X444761Y95244D01*
X445756Y93756D01*
X447244Y92761D01*
X449000Y92412D01*
X450756Y92761D01*
X452244Y93756D01*
X453239Y95244D01*
X453588Y97000D01*
X453239Y98756D01*
X452244Y100244D01*
X450756Y101239D01*
X449000Y101588D01*
D02*
G37*
G36*
X433000D02*
X431244Y101239D01*
X429756Y100244D01*
X428761Y98756D01*
X428412Y97000D01*
X428761Y95244D01*
X429756Y93756D01*
X431244Y92761D01*
X433000Y92412D01*
X434756Y92761D01*
X436244Y93756D01*
X437239Y95244D01*
X437588Y97000D01*
X437239Y98756D01*
X436244Y100244D01*
X434756Y101239D01*
X433000Y101588D01*
D02*
G37*
G36*
X418000D02*
X416244Y101239D01*
X414756Y100244D01*
X413761Y98756D01*
X413412Y97000D01*
X413761Y95244D01*
X414756Y93756D01*
X416244Y92761D01*
X418000Y92412D01*
X419756Y92761D01*
X421244Y93756D01*
X422239Y95244D01*
X422588Y97000D01*
X422239Y98756D01*
X421244Y100244D01*
X419756Y101239D01*
X418000Y101588D01*
D02*
G37*
G36*
X362000D02*
X360244Y101239D01*
X358756Y100244D01*
X357761Y98756D01*
X357412Y97000D01*
X357761Y95244D01*
X358756Y93756D01*
X360244Y92761D01*
X362000Y92412D01*
X363756Y92761D01*
X365244Y93756D01*
X366239Y95244D01*
X366588Y97000D01*
X366239Y98756D01*
X365244Y100244D01*
X363756Y101239D01*
X362000Y101588D01*
D02*
G37*
G36*
X790998Y102487D02*
X789243Y102138D01*
X787754Y101143D01*
X786759Y99655D01*
X786410Y97899D01*
X786759Y96143D01*
X787754Y94655D01*
X789243Y93660D01*
X790998Y93311D01*
X792754Y93660D01*
X795248Y93346D01*
X796737Y92351D01*
X798492Y92002D01*
X800248Y92351D01*
X801737Y93346D01*
X802731Y94834D01*
X803081Y96590D01*
X802731Y98346D01*
X801737Y99834D01*
X800248Y100829D01*
X798492Y101178D01*
X796737Y100829D01*
X794243Y101143D01*
X792754Y102138D01*
X790998Y102487D01*
D02*
G37*
G36*
X391000Y100488D02*
X389244Y100139D01*
X387756Y99144D01*
X386761Y97656D01*
X386412Y95900D01*
X386761Y94144D01*
X387756Y92656D01*
X389244Y91661D01*
X391000Y91312D01*
X392756Y91661D01*
X394244Y92656D01*
X395239Y94144D01*
X395588Y95900D01*
X395239Y97656D01*
X394244Y99144D01*
X392756Y100139D01*
X391000Y100488D01*
D02*
G37*
G36*
X990000Y104588D02*
X988244Y104239D01*
X986756Y103244D01*
X985761Y101756D01*
X985412Y100000D01*
X985761Y98244D01*
X986756Y96756D01*
Y96244D01*
X985761Y94756D01*
X985412Y93000D01*
X985761Y91244D01*
X986756Y89756D01*
X988244Y88761D01*
X990000Y88412D01*
X991756Y88761D01*
X993244Y89756D01*
X994239Y91244D01*
X994588Y93000D01*
X994239Y94756D01*
X993244Y96244D01*
Y96756D01*
X994239Y98244D01*
X994588Y100000D01*
X994239Y101756D01*
X993244Y103244D01*
X991756Y104239D01*
X990000Y104588D01*
D02*
G37*
G36*
X469000Y79588D02*
X467244Y79239D01*
X465756Y78244D01*
X464761Y76756D01*
X464412Y75000D01*
X464761Y73244D01*
X465756Y71756D01*
X467244Y70761D01*
X469000Y70412D01*
X470756Y70761D01*
X472244Y71756D01*
X473239Y73244D01*
X473588Y75000D01*
X473239Y76756D01*
X472244Y78244D01*
X470756Y79239D01*
X469000Y79588D01*
D02*
G37*
G36*
X823000Y78588D02*
X821244Y78239D01*
X819756Y77244D01*
X818761Y75756D01*
X818412Y74000D01*
X818761Y72244D01*
X819756Y70756D01*
X821244Y69761D01*
X823000Y69412D01*
X824756Y69761D01*
X826244Y70756D01*
X827239Y72244D01*
X827588Y74000D01*
X827239Y75756D01*
X826244Y77244D01*
X824756Y78239D01*
X823000Y78588D01*
D02*
G37*
G36*
X873000Y78488D02*
X871244Y78139D01*
X869756Y77144D01*
X868761Y75656D01*
X868412Y73900D01*
X868761Y72144D01*
X869756Y70656D01*
X871244Y69661D01*
X873000Y69312D01*
X874756Y69661D01*
X876244Y70656D01*
X877239Y72144D01*
X877588Y73900D01*
X877239Y75656D01*
X876244Y77144D01*
X874756Y78139D01*
X873000Y78488D01*
D02*
G37*
G36*
X848800D02*
X847044Y78139D01*
X845556Y77144D01*
X844561Y75656D01*
X844212Y73900D01*
X844561Y72144D01*
X845556Y70656D01*
X847044Y69661D01*
X848800Y69312D01*
X850556Y69661D01*
X852044Y70656D01*
X853039Y72144D01*
X853388Y73900D01*
X853039Y75656D01*
X852044Y77144D01*
X850556Y78139D01*
X848800Y78488D01*
D02*
G37*
G36*
X799800D02*
X798044Y78139D01*
X796556Y77144D01*
X795561Y75656D01*
X795212Y73900D01*
X795561Y72144D01*
X796556Y70656D01*
X798044Y69661D01*
X799800Y69312D01*
X801556Y69661D01*
X803044Y70656D01*
X804039Y72144D01*
X804388Y73900D01*
X804039Y75656D01*
X803044Y77144D01*
X801556Y78139D01*
X799800Y78488D01*
D02*
G37*
G36*
X441200D02*
X439444Y78139D01*
X437956Y77144D01*
X436961Y75656D01*
X436612Y73900D01*
X436961Y72144D01*
X437956Y70656D01*
X439444Y69661D01*
X441200Y69312D01*
X442956Y69661D01*
X444444Y70656D01*
X445439Y72144D01*
X445788Y73900D01*
X445439Y75656D01*
X444444Y77144D01*
X442956Y78139D01*
X441200Y78488D01*
D02*
G37*
G36*
X773799Y78487D02*
X772044Y78138D01*
X770555Y77143D01*
X769560Y75655D01*
X769211Y73899D01*
X769560Y72143D01*
X770555Y70655D01*
X772044Y69660D01*
X773799Y69311D01*
X775555Y69660D01*
X777044Y70655D01*
X778038Y72143D01*
X778388Y73899D01*
X778038Y75655D01*
X777044Y77143D01*
X775555Y78138D01*
X773799Y78487D01*
D02*
G37*
G36*
X341999D02*
X340243Y78138D01*
X338755Y77143D01*
X337760Y75655D01*
X337411Y73899D01*
X337760Y72143D01*
X338755Y70655D01*
X340243Y69660D01*
X341999Y69311D01*
X343755Y69660D01*
X345244Y70655D01*
X346238Y72143D01*
X346587Y73899D01*
X346238Y75655D01*
X345244Y77143D01*
X343755Y78138D01*
X341999Y78487D01*
D02*
G37*
G36*
X419000Y77588D02*
X417244Y77239D01*
X415756Y76244D01*
X414761Y74756D01*
X414412Y73000D01*
X414761Y71244D01*
X415756Y69756D01*
X417244Y68761D01*
X419000Y68412D01*
X420756Y68761D01*
X422244Y69756D01*
X423239Y71244D01*
X423588Y73000D01*
X423239Y74756D01*
X422244Y76244D01*
X420756Y77239D01*
X419000Y77588D01*
D02*
G37*
G36*
X377000Y76588D02*
X375244Y76239D01*
X373756Y75244D01*
X372761Y73756D01*
X372412Y72000D01*
X372761Y70244D01*
X373756Y68756D01*
X375244Y67761D01*
X377000Y67412D01*
X378756Y67761D01*
X380244Y68756D01*
X381239Y70244D01*
X381588Y72000D01*
X381239Y73756D01*
X380244Y75244D01*
X378756Y76239D01*
X377000Y76588D01*
D02*
G37*
G36*
X918160Y81451D02*
X916312Y81208D01*
X914589Y80494D01*
X913111Y79359D01*
X911976Y77881D01*
X911262Y76158D01*
X911019Y74310D01*
X911262Y72462D01*
X911976Y70739D01*
X913111Y69261D01*
X914589Y68126D01*
X916312Y67412D01*
X918160Y67169D01*
X920008Y67412D01*
X921731Y68126D01*
X923210Y69261D01*
X924344Y70739D01*
X925058Y72462D01*
X925301Y74310D01*
X925058Y76158D01*
X924344Y77881D01*
X923210Y79359D01*
X921731Y80494D01*
X920008Y81208D01*
X918160Y81451D01*
D02*
G37*
G36*
X733440D02*
X731592Y81208D01*
X729870Y80494D01*
X728391Y79359D01*
X727256Y77881D01*
X726542Y76158D01*
X726299Y74310D01*
X726542Y72462D01*
X727256Y70739D01*
X728391Y69261D01*
X729870Y68126D01*
X731592Y67412D01*
X733440Y67169D01*
X735288Y67412D01*
X737011Y68126D01*
X738490Y69261D01*
X739624Y70739D01*
X740338Y72462D01*
X740581Y74310D01*
X740338Y76158D01*
X739624Y77881D01*
X738490Y79359D01*
X737011Y80494D01*
X735288Y81208D01*
X733440Y81451D01*
D02*
G37*
G36*
X486360D02*
X484512Y81208D01*
X482789Y80494D01*
X481311Y79359D01*
X480176Y77881D01*
X479462Y76158D01*
X479219Y74310D01*
X479462Y72462D01*
X480176Y70739D01*
X481311Y69261D01*
X482789Y68126D01*
X484512Y67412D01*
X486360Y67169D01*
X488208Y67412D01*
X489931Y68126D01*
X491410Y69261D01*
X492544Y70739D01*
X493258Y72462D01*
X493501Y74310D01*
X493258Y76158D01*
X492544Y77881D01*
X491410Y79359D01*
X489931Y80494D01*
X488208Y81208D01*
X486360Y81451D01*
D02*
G37*
G36*
X301640D02*
X299792Y81208D01*
X298069Y80494D01*
X296590Y79359D01*
X295456Y77881D01*
X294742Y76158D01*
X294499Y74310D01*
X294742Y72462D01*
X295456Y70739D01*
X296590Y69261D01*
X298069Y68126D01*
X299792Y67412D01*
X301640Y67169D01*
X303488Y67412D01*
X305211Y68126D01*
X306690Y69261D01*
X307824Y70739D01*
X308538Y72462D01*
X308781Y74310D01*
X308538Y76158D01*
X307824Y77881D01*
X306690Y79359D01*
X305211Y80494D01*
X303488Y81208D01*
X301640Y81451D01*
D02*
G37*
G36*
X698900Y84982D02*
X696420Y84656D01*
X694109Y83698D01*
X692124Y82176D01*
X690602Y80191D01*
X689644Y77880D01*
X689318Y75400D01*
X689644Y72920D01*
X690602Y70609D01*
X692124Y68625D01*
X694109Y67102D01*
X696420Y66144D01*
X698900Y65818D01*
X701380Y66144D01*
X703691Y67102D01*
X705675Y68625D01*
X707198Y70609D01*
X708156Y72920D01*
X708482Y75400D01*
X708156Y77880D01*
X707198Y80191D01*
X705675Y82176D01*
X703691Y83698D01*
X701380Y84656D01*
X698900Y84982D01*
D02*
G37*
G36*
X648100D02*
X645620Y84656D01*
X643309Y83698D01*
X641324Y82176D01*
X639802Y80191D01*
X638844Y77880D01*
X638518Y75400D01*
X638844Y72920D01*
X639802Y70609D01*
X641324Y68625D01*
X643309Y67102D01*
X645620Y66144D01*
X648100Y65818D01*
X650580Y66144D01*
X652891Y67102D01*
X654875Y68625D01*
X656398Y70609D01*
X657355Y72920D01*
X657682Y75400D01*
X657355Y77880D01*
X656398Y80191D01*
X654875Y82176D01*
X652891Y83698D01*
X650580Y84656D01*
X648100Y84982D01*
D02*
G37*
G36*
X622700D02*
X620220Y84656D01*
X617909Y83698D01*
X615924Y82176D01*
X614402Y80191D01*
X613445Y77880D01*
X613118Y75400D01*
X613445Y72920D01*
X614402Y70609D01*
X615924Y68625D01*
X617909Y67102D01*
X620220Y66144D01*
X622700Y65818D01*
X625180Y66144D01*
X627491Y67102D01*
X629475Y68625D01*
X630998Y70609D01*
X631955Y72920D01*
X632282Y75400D01*
X631955Y77880D01*
X630998Y80191D01*
X629475Y82176D01*
X627491Y83698D01*
X625180Y84656D01*
X622700Y84982D01*
D02*
G37*
G36*
X571900D02*
X569420Y84656D01*
X567109Y83698D01*
X565125Y82176D01*
X563602Y80191D01*
X562645Y77880D01*
X562318Y75400D01*
X562645Y72920D01*
X563602Y70609D01*
X565125Y68625D01*
X567109Y67102D01*
X569420Y66144D01*
X571900Y65818D01*
X574380Y66144D01*
X576691Y67102D01*
X578675Y68625D01*
X580198Y70609D01*
X581156Y72920D01*
X581482Y75400D01*
X581156Y77880D01*
X580198Y80191D01*
X578675Y82176D01*
X576691Y83698D01*
X574380Y84656D01*
X571900Y84982D01*
D02*
G37*
G36*
X546500D02*
X544020Y84656D01*
X541709Y83698D01*
X539725Y82176D01*
X538202Y80191D01*
X537244Y77880D01*
X536918Y75400D01*
X537244Y72920D01*
X538202Y70609D01*
X539725Y68625D01*
X541709Y67102D01*
X544020Y66144D01*
X546500Y65818D01*
X548980Y66144D01*
X551291Y67102D01*
X553275Y68625D01*
X554798Y70609D01*
X555756Y72920D01*
X556082Y75400D01*
X555756Y77880D01*
X554798Y80191D01*
X553275Y82176D01*
X551291Y83698D01*
X548980Y84656D01*
X546500Y84982D01*
D02*
G37*
G36*
X521100D02*
X518620Y84656D01*
X516309Y83698D01*
X514324Y82176D01*
X512802Y80191D01*
X511844Y77880D01*
X511518Y75400D01*
X511844Y72920D01*
X512802Y70609D01*
X514324Y68625D01*
X516309Y67102D01*
X518620Y66144D01*
X521100Y65818D01*
X523580Y66144D01*
X525891Y67102D01*
X527875Y68625D01*
X529398Y70609D01*
X530355Y72920D01*
X530682Y75400D01*
X530355Y77880D01*
X529398Y80191D01*
X527875Y82176D01*
X525891Y83698D01*
X523580Y84656D01*
X521100Y84982D01*
D02*
G37*
G36*
X1060000Y74588D02*
X1058244Y74239D01*
X1056756Y73244D01*
X1055761Y71756D01*
X1055412Y70000D01*
X1055761Y68244D01*
X1056756Y66756D01*
X1058244Y65761D01*
X1060000Y65412D01*
X1061756Y65761D01*
X1063244Y66756D01*
X1064239Y68244D01*
X1064588Y70000D01*
X1064239Y71756D01*
X1063244Y73244D01*
X1061756Y74239D01*
X1060000Y74588D01*
D02*
G37*
G36*
X364000Y63588D02*
X362244Y63239D01*
X360756Y62244D01*
X359761Y60756D01*
X359412Y59000D01*
X359761Y57244D01*
X360756Y55756D01*
X362244Y54761D01*
X364000Y54412D01*
X365756Y54761D01*
X367244Y55756D01*
X368239Y57244D01*
X368588Y59000D01*
X368239Y60756D01*
X367244Y62244D01*
X365756Y63239D01*
X364000Y63588D01*
D02*
G37*
G36*
X522100Y59450D02*
Y51000D01*
X530550D01*
X530355Y52480D01*
X529398Y54791D01*
X527875Y56775D01*
X525891Y58298D01*
X523580Y59255D01*
X522100Y59450D01*
D02*
G37*
G36*
X520100D02*
X518620Y59255D01*
X516309Y58298D01*
X514324Y56775D01*
X512802Y54791D01*
X511844Y52480D01*
X511650Y51000D01*
X520100D01*
Y59450D01*
D02*
G37*
%LPD*%
D16*
X698900Y510000D02*
D03*
X673500D02*
D03*
X521100Y50000D02*
D03*
D30*
X441528Y531500D02*
X446500Y526528D01*
Y483722D02*
Y526528D01*
X441000Y478222D02*
X446500Y483722D01*
X427000Y419000D02*
X436778D01*
X446500Y478065D02*
X450500Y482065D01*
Y528185D01*
X436778Y419000D02*
X446500Y428722D01*
Y478065D01*
X441000Y431000D02*
Y478222D01*
X397500Y439500D02*
Y464278D01*
X397000Y464778D02*
X397500Y464278D01*
X397000Y464778D02*
Y494750D01*
X401500Y434500D02*
Y493593D01*
X401500Y434500D02*
X401500D01*
X389999Y422999D02*
X401500Y434500D01*
X386999Y422999D02*
X389999D01*
X442771Y535914D02*
X450500Y528185D01*
X414722Y531500D02*
X441528D01*
X412499Y529277D02*
X414722Y531500D01*
X412499Y521499D02*
Y529277D01*
X401500Y493593D02*
X424907Y517000D01*
X427028D01*
X432278Y522250D01*
X432750D01*
X397000Y494750D02*
X424750Y522500D01*
X412499Y521499D02*
X412999Y520999D01*
X413000D01*
X399000Y521778D02*
X413136Y535914D01*
X399000Y521000D02*
Y521778D01*
X413136Y535914D02*
X442771D01*
X406000Y520222D02*
Y521000D01*
X401278Y515500D02*
X406000Y520222D01*
X396722Y515500D02*
X401278D01*
X393500Y518722D02*
X396722Y515500D01*
X393500Y518722D02*
Y523278D01*
X585000Y532000D02*
Y540000D01*
X393500Y523278D02*
X417222Y547000D01*
X578000D01*
X585000Y540000D01*
X388000Y430000D02*
X397500Y439500D01*
X349000Y488000D02*
X355500Y481500D01*
X382500D01*
X389000Y488000D01*
D31*
X472000Y525000D02*
X480670Y516330D01*
X502430D01*
X508600Y522500D01*
X661000D01*
X673500Y510000D01*
D34*
X473000Y458000D02*
X555000Y376000D01*
X529500Y260500D02*
Y350500D01*
Y260500D02*
X536000Y254000D01*
X529500Y350500D02*
X555000Y376000D01*
X1191500Y250000D02*
X1193000Y251500D01*
X1170000Y250000D02*
X1191500D01*
X23000Y271000D02*
X50000D01*
D42*
X473000Y458000D02*
D03*
X441000Y431000D02*
D03*
X399000Y521000D02*
D03*
X427000Y419000D02*
D03*
X388000Y430000D02*
D03*
X386999Y422999D02*
D03*
X460000Y130000D02*
D03*
X450000Y140000D02*
D03*
X440000Y150000D02*
D03*
X292000Y380000D02*
D03*
X373000Y381000D02*
D03*
X69000Y368000D02*
D03*
X193000Y252000D02*
D03*
X154000Y211000D02*
D03*
X863000Y411000D02*
D03*
X767000D02*
D03*
X783000Y152000D02*
D03*
X863000D02*
D03*
X1193000Y251500D02*
D03*
X1138000Y211000D02*
D03*
X1069000Y372500D02*
D03*
X590000Y116000D02*
D03*
X698900Y349100D02*
D03*
Y356000D02*
D03*
X583000Y116000D02*
D03*
X472000Y525000D02*
D03*
X536000Y254000D02*
D03*
X731000Y292000D02*
D03*
X585000Y532000D02*
D03*
X432750Y522250D02*
D03*
X424750Y522500D02*
D03*
X413000Y520999D02*
D03*
X406000Y521000D02*
D03*
X389000Y488000D02*
D03*
X349000D02*
D03*
X445000Y145000D02*
D03*
X455000Y135000D02*
D03*
X555000Y376000D02*
D03*
X23000Y271000D02*
D03*
X1020000Y273000D02*
D03*
X507000Y137000D02*
D03*
X514000D02*
D03*
X731000Y285000D02*
D03*
D43*
X590000Y116000D02*
Y136000D01*
X698900Y244900D01*
Y356000D01*
D44*
X731000Y238029D02*
Y292000D01*
X655000Y137029D02*
Y162029D01*
X731000Y238029D01*
X507000Y137000D02*
X539000D01*
X581000Y95000D01*
X612971D01*
X655000Y137029D01*
M02*
